<svg preserveAspectRatio="none" width="100%" height="100%" overflow="visible" style="display: block;" viewBox="10.75 0.0 56 56" fill="none" xmlns="http://www.w3.org/2000/svg">
<g id="Container">
<path id="Icon" d="M31.7498 39.6668C31.1082 39.6668 30.5589 39.4384 30.1019 38.9814C29.645 38.5245 29.4165 37.9752 29.4165 37.3335V18.6668C29.4165 18.0252 29.645 17.4759 30.1019 17.0189C30.5589 16.562 31.1082 16.3335 31.7498 16.3335H45.7498C46.3915 16.3335 46.9408 16.562 47.3978 17.0189C47.8547 17.4759 48.0832 18.0252 48.0832 18.6668V37.3335C48.0832 37.9752 47.8547 38.5245 47.3978 38.9814C46.9408 39.4384 46.3915 39.6668 45.7498 39.6668H31.7498V39.6668M31.7498 37.3335H45.7498V37.3335V37.3335V18.6668V18.6668V18.6668H43.4165V26.8335L40.4998 25.0835L37.5832 26.8335V18.6668H31.7498V18.6668V18.6668V37.3335V37.3335V37.3335V37.3335M31.7498 37.3335V37.3335V37.3335V18.6668V18.6668V18.6668V18.6668V18.6668V18.6668V37.3335V37.3335V37.3335V37.3335V37.3335M37.5832 26.8335L40.4998 25.0835L43.4165 26.8335V26.8335L40.4998 25.0835L37.5832 26.8335V26.8335V26.8335" fill="#000000"/>
</g>
</svg>
