<svg preserveAspectRatio="none" width="100%" height="100%" overflow="visible" style="display: block;" viewBox="10.75 0.0 56 56" fill="none" xmlns="http://www.w3.org/2000/svg">
<g id="Container">
<path id="Icon" d="M30.5833 36.1667H32.2458L43.65 24.7625L41.9875 23.1L30.5833 34.5042V36.1667V36.1667M28.25 38.5V33.5417L43.65 18.1708C43.8833 17.9569 44.141 17.7917 44.4229 17.675C44.7049 17.5583 45.0014 17.5 45.3125 17.5C45.6236 17.5 45.925 17.5583 46.2167 17.675C46.5083 17.7917 46.7611 17.9667 46.975 18.2L48.5792 19.8333C48.8125 20.0472 48.9826 20.3 49.0896 20.5917C49.1965 20.8833 49.25 21.175 49.25 21.4667C49.25 21.7778 49.1965 22.0743 49.0896 22.3562C48.9826 22.6382 48.8125 22.8958 48.5792 23.1292L33.2083 38.5H28.25V38.5M46.9167 21.4667V21.4667L45.2833 19.8333V19.8333L46.9167 21.4667V21.4667M42.8042 23.9458L41.9875 23.1V23.1L43.65 24.7625V24.7625L42.8042 23.9458V23.9458" fill="#000000"/>
</g>
</svg>
