<svg preserveAspectRatio="none" width="100%" height="100%" overflow="visible" style="display: block;" viewBox="10.75 0.0 56 56" fill="none" xmlns="http://www.w3.org/2000/svg">
<g id="Container">
<path id="Icon" d="M36.4167 35C34.1417 35 32.2118 34.2076 30.6271 32.6229C29.0424 31.0382 28.25 29.1083 28.25 26.8333V19.8333C28.25 19.1917 28.4785 18.6424 28.9354 18.1854C29.3924 17.7285 29.9417 17.5 30.5833 17.5H45.1667C46.2944 17.5 47.2569 17.8986 48.0542 18.6958C48.8514 19.4931 49.25 20.4556 49.25 21.5833C49.25 22.7111 48.8514 23.6736 48.0542 24.4708C47.2569 25.2681 46.2944 25.6667 45.1667 25.6667H44.5833V26.8333C44.5833 29.1083 43.791 31.0382 42.2063 32.6229C40.6215 34.2076 38.6917 35 36.4167 35V35M30.5833 23.3333H42.25V19.8333H30.5833V23.3333V23.3333M36.4167 32.6667C38.0306 32.6667 39.4062 32.0979 40.5437 30.9604C41.6812 29.8229 42.25 28.4472 42.25 26.8333V25.6667H30.5833V26.8333C30.5833 28.4472 31.1521 29.8229 32.2896 30.9604C33.4271 32.0979 34.8028 32.6667 36.4167 32.6667V32.6667M44.5833 23.3333H45.1667C45.6528 23.3333 46.066 23.1632 46.4062 22.8229C46.7465 22.4826 46.9167 22.0694 46.9167 21.5833C46.9167 21.0972 46.7465 20.684 46.4062 20.3438C46.066 20.0035 45.6528 19.8333 45.1667 19.8333H44.5833V23.3333V23.3333M28.25 38.5V36.1667H46.9167V38.5H28.25V38.5M36.4167 25.6667V25.6667V25.6667V25.6667V25.6667V25.6667V25.6667V25.6667V25.6667" fill="#000000"/>
</g>
</svg>
