<svg preserveAspectRatio="none" width="100%" height="100%" overflow="visible" style="display: block;" viewBox="10.75 0.0 56 56" fill="none" xmlns="http://www.w3.org/2000/svg">
<g id="Container">
<path id="Icon" d="M30.5835 38.5C29.9418 38.5 29.3925 38.2715 28.9356 37.8146C28.4786 37.3576 28.2502 36.8083 28.2502 36.1667V21C28.2502 19.7167 28.7071 18.6181 29.621 17.7042C30.5349 16.7903 31.6335 16.3333 32.9168 16.3333H45.7502C47.0335 16.3333 48.1321 16.7903 49.046 17.7042C49.9599 18.6181 50.4168 19.7167 50.4168 21V36.1667C50.4168 36.8083 50.1884 37.3576 49.7314 37.8146C49.2745 38.2715 48.7252 38.5 48.0835 38.5H46.3335C46.3335 39.1417 46.105 39.691 45.6481 40.1479C45.1912 40.6049 44.6418 40.8333 44.0002 40.8333C43.3585 40.8333 42.8092 40.6049 42.3522 40.1479C41.8953 39.691 41.6668 39.1417 41.6668 38.5H37.0002C37.0002 39.1417 36.7717 39.691 36.3148 40.1479C35.8578 40.6049 35.3085 40.8333 34.6668 40.8333C34.0252 40.8333 33.4759 40.6049 33.0189 40.1479C32.562 39.691 32.3335 39.1417 32.3335 38.5H30.5835ZM32.9168 28H45.7502V21H32.9168V28ZM34.6668 35C35.3085 35 35.8578 34.7715 36.3148 34.3146C36.7717 33.8576 37.0002 33.3083 37.0002 32.6667C37.0002 32.025 36.7717 31.4757 36.3148 31.0187C35.8578 30.5618 35.3085 30.3333 34.6668 30.3333C34.0252 30.3333 33.4759 30.5618 33.0189 31.0187C32.562 31.4757 32.3335 32.025 32.3335 32.6667C32.3335 33.3083 32.562 33.8576 33.0189 34.3146C33.4759 34.7715 34.0252 35 34.6668 35ZM44.0002 35C44.6418 35 45.1912 34.7715 45.6481 34.3146C46.105 33.8576 46.3335 33.3083 46.3335 32.6667C46.3335 32.025 46.105 31.4757 45.6481 31.0187C45.1912 30.5618 44.6418 30.3333 44.0002 30.3333C43.3585 30.3333 42.8092 30.5618 42.3522 31.0187C41.8953 31.4757 41.6668 32.025 41.6668 32.6667C41.6668 33.3083 41.8953 33.8576 42.3522 34.3146C42.8092 34.7715 43.3585 35 44.0002 35Z" fill="#000000"/>
</g>
</svg>
