<svg preserveAspectRatio="none" width="100%" height="100%" overflow="visible" style="display: block;" viewBox="10.75 0.0 56 56" fill="none" xmlns="http://www.w3.org/2000/svg">
<g id="Container">
<path id="Icon" d="M29.4168 36.1667L36.4168 32.6667L32.3335 23.3333L35.8335 21L41.0835 29.1667L48.0835 25.6667C48.5113 25.4333 48.9632 25.3847 49.4393 25.5208C49.9154 25.6569 50.2752 25.9333 50.5185 26.35C50.7618 26.7667 50.8154 27.209 50.6793 27.6771C50.5432 28.1451 50.2668 28.5 49.8502 28.7417L31.7502 38.5L29.4168 36.1667ZM32.9168 38.5L36.4168 36.75L38.7502 39.0833L37.0002 40.8333L32.9168 38.5ZM29.4168 34.4167L27.0835 32.0833L30.5835 25.0833L33.5002 28L29.4168 34.4167Z" fill="#000000"/>
</g>
</svg>
