<svg preserveAspectRatio="none" width="100%" height="100%" overflow="visible" style="display: block;" viewBox="10.75 0.0 56 56" fill="none" xmlns="http://www.w3.org/2000/svg">
<g id="Container">
<path id="Icon" d="M38.7502 39.6667C35.9224 39.6667 33.5335 38.6819 31.5835 36.7125C29.6335 34.7431 28.6585 32.3444 28.6585 29.5167C28.6585 27.1528 29.4036 25.0486 30.8939 23.2042C32.3842 21.3597 34.2696 20.1111 36.5502 19.4583V21.9042C34.9307 22.4903 33.6043 23.4687 32.571 24.8396C31.5377 26.2104 31.021 27.7472 31.021 29.45C31.021 31.6333 31.7856 33.4931 33.3147 35.0292C34.8439 36.5653 36.696 37.3333 38.871 37.3333C41.046 37.3333 42.8981 36.5569 44.4272 35.0042C45.9564 33.4514 46.721 31.5833 46.721 29.4C46.721 27.725 46.1995 26.2042 45.1564 24.8375C44.1134 23.4708 42.7779 22.4903 41.1502 21.8958V19.4583C43.4696 20.1111 45.3745 21.3646 46.8647 23.2187C48.3549 25.0729 49.1002 27.1806 49.1002 29.5417C49.1002 32.3611 48.1154 34.7521 46.146 36.7146C44.1766 38.6771 41.6779 39.6583 38.6502 39.6583L38.7502 39.6667ZM37.5835 30.3333V16.3333H40.5002V30.3333H37.5835Z" fill="#000000"/>
</g>
</svg>
