<svg preserveAspectRatio="none" width="100%" height="100%" overflow="visible" style="display: block;" viewBox="10.75 0.0 56 56" fill="none" xmlns="http://www.w3.org/2000/svg">
<g id="Container">
<path id="Icon" d="M30.5832 38.5C30.2526 38.5 29.9755 38.3882 29.7519 38.1646C29.5283 37.941 29.4165 37.6639 29.4165 37.3333V36.1667V36.1667C28.4443 36.1667 27.6179 35.8264 26.9373 35.1458C26.2568 34.4653 25.9165 33.6389 25.9165 32.6667V26.8333C25.9165 25.8611 26.2568 25.0347 26.9373 24.3542C27.6179 23.6736 28.4443 23.3333 29.4165 23.3333V23.3333V21C29.4165 20.0278 29.7568 19.2014 30.4373 18.5208C31.1179 17.8403 31.9443 17.5 32.9165 17.5H44.5832C45.5554 17.5 46.3818 17.8403 47.0623 18.5208C47.7429 19.2014 48.0832 20.0278 48.0832 21V23.3333V23.3333C49.0554 23.3333 49.8818 23.6736 50.5623 24.3542C51.2429 25.0347 51.5832 25.8611 51.5832 26.8333V32.6667C51.5832 33.6389 51.2429 34.4653 50.5623 35.1458C49.8818 35.8264 49.0554 36.1667 48.0832 36.1667V36.1667V37.3333C48.0832 37.6639 47.9714 37.941 47.7478 38.1646C47.5241 38.3882 47.2471 38.5 46.9165 38.5C46.5859 38.5 46.3089 38.3882 46.0853 38.1646C45.8616 37.941 45.7498 37.6639 45.7498 37.3333V36.1667H31.7498V37.3333C31.7498 37.6639 31.638 37.941 31.4144 38.1646C31.1908 38.3882 30.9137 38.5 30.5832 38.5V38.5M29.4165 33.8333H48.0832C48.4137 33.8333 48.6908 33.7215 48.9144 33.4979C49.138 33.2743 49.2498 32.9972 49.2498 32.6667V26.8333C49.2498 26.5028 49.138 26.2257 48.9144 26.0021C48.6908 25.7785 48.4137 25.6667 48.0832 25.6667C47.7526 25.6667 47.4755 25.7785 47.2519 26.0021C47.0283 26.2257 46.9165 26.5028 46.9165 26.8333V31.5H30.5832V26.8333C30.5832 26.5028 30.4714 26.2257 30.2478 26.0021C30.0241 25.7785 29.7471 25.6667 29.4165 25.6667C29.0859 25.6667 28.8089 25.7785 28.5853 26.0021C28.3616 26.2257 28.2498 26.5028 28.2498 26.8333V32.6667C28.2498 32.9972 28.3616 33.2743 28.5853 33.4979C28.8089 33.7215 29.0859 33.8333 29.4165 33.8333V33.8333M32.9165 29.1667H44.5832V26.8333C44.5832 26.3083 44.6901 25.8319 44.904 25.4042C45.1179 24.9764 45.3998 24.5972 45.7498 24.2667V21C45.7498 20.6694 45.638 20.3924 45.4144 20.1688C45.1908 19.9451 44.9137 19.8333 44.5832 19.8333H32.9165C32.5859 19.8333 32.3089 19.9451 32.0853 20.1688C31.8616 20.3924 31.7498 20.6694 31.7498 21V24.2667C32.0998 24.5972 32.3818 24.9764 32.5957 25.4042C32.8096 25.8319 32.9165 26.3083 32.9165 26.8333V29.1667V29.1667M38.7498 29.1667V29.1667V29.1667V29.1667V29.1667V29.1667V29.1667V29.1667V29.1667V29.1667V29.1667V29.1667V29.1667V29.1667V29.1667V29.1667M38.7498 33.8333V33.8333V33.8333V33.8333V33.8333V33.8333V33.8333V33.8333V33.8333V33.8333V33.8333V33.8333V33.8333V33.8333V33.8333V33.8333V33.8333V33.8333V33.8333V33.8333M38.7498 31.5V31.5V31.5V31.5V31.5V31.5V31.5V31.5V31.5V31.5V31.5V31.5V31.5V31.5V31.5V31.5V31.5V31.5V31.5V31.5" fill="#000000"/>
</g>
</svg>
