<svg preserveAspectRatio="none" width="100%" height="100%" overflow="visible" style="display: block;" viewBox="10.75 0.0 56 56" fill="none" xmlns="http://www.w3.org/2000/svg">
<g id="Container">
<path id="Icon" d="M38.7498 38.5L38.1665 26.8333L34.0832 25.6667H25.9165V23.3333H32.9165L41.0832 17.5L42.5998 19.2792L37.7582 22.75H41.0832L50.1832 17.5L51.5832 19.1333L41.6665 26.8333L41.0832 38.5H38.7498ZM31.7498 22.1667C31.1082 22.1667 30.5589 21.9382 30.1019 21.4813C29.645 21.0243 29.4165 20.475 29.4165 19.8333C29.4165 19.1917 29.645 18.6424 30.1019 18.1854C30.5589 17.7285 31.1082 17.5 31.7498 17.5C32.3915 17.5 32.9408 17.7285 33.3978 18.1854C33.8547 18.6424 34.0832 19.1917 34.0832 19.8333C34.0832 20.475 33.8547 21.0243 33.3978 21.4813C32.9408 21.9382 32.3915 22.1667 31.7498 22.1667Z" fill="#000000"/>
</g>
</svg>
