<svg preserveAspectRatio="none" width="100%" height="100%" overflow="visible" style="display: block;" viewBox="10.75 0.0 56 56" fill="none" xmlns="http://www.w3.org/2000/svg">
<g id="Container">
<path id="Icon" d="M31.7502 36.1667H45.7502L44.0877 24.5H33.4127L31.7502 36.1667ZM38.7502 22.1667C39.0807 22.1667 39.3578 22.0549 39.5814 21.8313C39.805 21.6076 39.9168 21.3306 39.9168 21C39.9168 20.6694 39.805 20.3924 39.5814 20.1688C39.3578 19.9451 39.0807 19.8333 38.7502 19.8333C38.4196 19.8333 38.1425 19.9451 37.9189 20.1688C37.6953 20.3924 37.5835 20.6694 37.5835 21C37.5835 21.3306 37.6953 21.6076 37.9189 21.8313C38.1425 22.0549 38.4196 22.1667 38.7502 22.1667ZM42.046 22.1667H44.0877C44.671 22.1667 45.1765 22.3611 45.6043 22.75C46.0321 23.1389 46.2946 23.6153 46.3918 24.1792L48.0543 35.8458C48.1516 36.5458 47.9717 37.1632 47.5147 37.6979C47.0578 38.2326 46.4696 38.5 45.7502 38.5H31.7502C31.0307 38.5 30.4425 38.2326 29.9856 37.6979C29.5286 37.1632 29.3488 36.5458 29.446 35.8458L31.1085 24.1792C31.2057 23.6153 31.4682 23.1389 31.896 22.75C32.3238 22.3611 32.8293 22.1667 33.4127 22.1667H35.4543C35.396 21.9722 35.3474 21.7826 35.3085 21.5979C35.2696 21.4132 35.2502 21.2139 35.2502 21C35.2502 20.0278 35.5904 19.2014 36.271 18.5208C36.9516 17.8403 37.7779 17.5 38.7502 17.5C39.7224 17.5 40.5488 17.8403 41.2293 18.5208C41.9099 19.2014 42.2502 20.0278 42.2502 21C42.2502 21.2139 42.2307 21.4132 42.1918 21.5979C42.1529 21.7826 42.1043 21.9722 42.046 22.1667ZM31.7502 36.1667H45.7502H31.7502Z" fill="#000000"/>
</g>
</svg>
