<svg preserveAspectRatio="none" width="100%" height="100%" overflow="visible" style="display: block;" viewBox="10.75 0.0 56 56" fill="none" xmlns="http://www.w3.org/2000/svg">
<g id="Container">
<path id="Icon" d="M31.7498 39.6668C31.1082 39.6668 30.5589 39.4384 30.1019 38.9814C29.645 38.5245 29.4165 37.9752 29.4165 37.3335V23.3335C29.4165 22.6918 29.645 22.1425 30.1019 21.6856C30.5589 21.2286 31.1082 21.0002 31.7498 21.0002H34.0832V21.0002C34.0832 19.7168 34.5401 18.6182 35.454 17.7043C36.3679 16.7904 37.4665 16.3335 38.7498 16.3335C40.0332 16.3335 41.1318 16.7904 42.0457 17.7043C42.9596 18.6182 43.4165 19.7168 43.4165 21.0002V21.0002H45.7498C46.3915 21.0002 46.9408 21.2286 47.3978 21.6856C47.8547 22.1425 48.0832 22.6918 48.0832 23.3335V37.3335C48.0832 37.9752 47.8547 38.5245 47.3978 38.9814C46.9408 39.4384 46.3915 39.6668 45.7498 39.6668H31.7498V39.6668M31.7498 37.3335H45.7498V37.3335V37.3335V23.3335V23.3335V23.3335H43.4165V25.6668C43.4165 25.9974 43.3047 26.2745 43.0811 26.4981C42.8575 26.7217 42.5804 26.8335 42.2498 26.8335C41.9193 26.8335 41.6422 26.7217 41.4186 26.4981C41.195 26.2745 41.0832 25.9974 41.0832 25.6668V23.3335H36.4165V25.6668C36.4165 25.9974 36.3047 26.2745 36.0811 26.4981C35.8575 26.7217 35.5804 26.8335 35.2498 26.8335C34.9193 26.8335 34.6422 26.7217 34.4186 26.4981C34.195 26.2745 34.0832 25.9974 34.0832 25.6668V23.3335H31.7498V23.3335V23.3335V37.3335V37.3335V37.3335V37.3335M36.4165 21.0002H41.0832V21.0002C41.0832 20.3585 40.8547 19.8092 40.3978 19.3522C39.9408 18.8953 39.3915 18.6668 38.7498 18.6668C38.1082 18.6668 37.5589 18.8953 37.1019 19.3522C36.645 19.8092 36.4165 20.3585 36.4165 21.0002V21.0002V21.0002M31.7498 37.3335V37.3335V37.3335V37.3335V23.3335V23.3335V23.3335V23.3335V23.3335V23.3335V37.3335V37.3335V37.3335V37.3335" fill="#000000"/>
</g>
</svg>
