<svg preserveAspectRatio="none" width="100%" height="100%" overflow="visible" style="display: block;" viewBox="10.75 0.0 56 56" fill="none" xmlns="http://www.w3.org/2000/svg">
<g id="Container">
<path id="Icon" d="M31.7502 38.5C31.1085 38.5 30.5592 38.2715 30.1022 37.8146C29.6453 37.3576 29.4168 36.8083 29.4168 36.1667V21C29.4168 20.3583 29.6453 19.809 30.1022 19.3521C30.5592 18.8951 31.1085 18.6667 31.7502 18.6667H46.9168C47.5585 18.6667 48.1078 18.8951 48.5648 19.3521C49.0217 19.809 49.2502 20.3583 49.2502 21V36.1667C49.2502 36.8083 49.0217 37.3576 48.5648 37.8146C48.1078 38.2715 47.5585 38.5 46.9168 38.5H31.7502ZM31.7502 36.1667H46.9168V21H31.7502V36.1667ZM37.0002 33.8333V30.3333H33.5002V28H37.0002V24.5H39.3335V28H42.8335V30.3333H39.3335V33.8333H37.0002Z" fill="#000000"/>
</g>
</svg>
