<svg preserveAspectRatio="none" width="100%" height="100%" overflow="visible" style="display: block;" viewBox="107.25 0.0 56 56" fill="none" xmlns="http://www.w3.org/2000/svg">
<g id="Container">
<path id="Icon" d="M125.917 37.3332V34.9998H129.125L128.658 34.5915C127.647 33.6971 126.937 32.6762 126.529 31.529C126.121 30.3818 125.917 29.2248 125.917 28.0582C125.917 25.8998 126.563 23.9797 127.856 22.2978C129.149 20.6158 130.836 19.5026 132.917 18.9582V21.4082C131.517 21.9137 130.389 22.7741 129.533 23.9894C128.678 25.2047 128.25 26.5609 128.25 28.0582C128.25 28.9332 128.415 29.7839 128.746 30.6103C129.076 31.4366 129.592 32.1998 130.292 32.8998L130.583 33.1915V30.3332H132.917V37.3332H125.917V37.3332M137.583 37.0415V34.5915C138.983 34.0859 140.111 33.2255 140.967 32.0103C141.822 30.795 142.25 29.4387 142.25 27.9415C142.25 27.0665 142.085 26.2158 141.754 25.3894C141.423 24.563 140.908 23.7998 140.208 23.0998L139.917 22.8082V25.6665H137.583V18.6665H144.583V20.9998H141.375L141.842 21.4082C142.794 22.3609 143.489 23.3964 143.927 24.5144C144.364 25.6325 144.583 26.7748 144.583 27.9415C144.583 30.0998 143.937 32.02 142.644 33.7019C141.351 35.3839 139.664 36.4971 137.583 37.0415V37.0415" fill="#000000"/>
</g>
</svg>
