<svg preserveAspectRatio="none" width="100%" height="100%" overflow="visible" style="display: block;" viewBox="0 0 23.3333 22.1667" fill="none" xmlns="http://www.w3.org/2000/svg">
<g id="Container">
<path id="Icon" d="M2.33333 17.5V19.8333V19.8333V19.8333H21V19.8333V19.8333V17.5H2.33333V17.5M2.33333 4.66667H4.9C4.80278 4.49167 4.73958 4.30694 4.71042 4.1125C4.68125 3.91806 4.66667 3.71389 4.66667 3.5C4.66667 2.52778 5.00694 1.70139 5.6875 1.02083C6.36806 0.340278 7.19444 0 8.16667 0C8.75 0 9.28958 0.150694 9.78542 0.452083C10.2812 0.753472 10.7139 1.12778 11.0833 1.575L11.6667 2.33333L12.25 1.575C12.6 1.10833 13.0278 0.729167 13.5333 0.4375C14.0389 0.145833 14.5833 0 15.1667 0C16.1389 0 16.9653 0.340278 17.6458 1.02083C18.3264 1.70139 18.6667 2.52778 18.6667 3.5C18.6667 3.71389 18.6521 3.91806 18.6229 4.1125C18.5938 4.30694 18.5306 4.49167 18.4333 4.66667H21C21.6417 4.66667 22.191 4.89514 22.6479 5.35208C23.1049 5.80903 23.3333 6.35833 23.3333 7V19.8333C23.3333 20.475 23.1049 21.0243 22.6479 21.4813C22.191 21.9382 21.6417 22.1667 21 22.1667H2.33333C1.69167 22.1667 1.14236 21.9382 0.685417 21.4813C0.228472 21.0243 0 20.475 0 19.8333V7C0 6.35833 0.228472 5.80903 0.685417 5.35208C1.14236 4.89514 1.69167 4.66667 2.33333 4.66667V4.66667M2.33333 14H21V7V7V7H15.05L17.5 10.325L15.6333 11.6667L11.6667 6.3L7.7 11.6667L5.83333 10.325L8.225 7H2.33333V7V7V14V14M8.16667 4.66667C8.49722 4.66667 8.77431 4.55486 8.99792 4.33125C9.22153 4.10764 9.33333 3.83056 9.33333 3.5C9.33333 3.16944 9.22153 2.89236 8.99792 2.66875C8.77431 2.44514 8.49722 2.33333 8.16667 2.33333C7.83611 2.33333 7.55903 2.44514 7.33542 2.66875C7.11181 2.89236 7 3.16944 7 3.5C7 3.83056 7.11181 4.10764 7.33542 4.33125C7.55903 4.55486 7.83611 4.66667 8.16667 4.66667V4.66667M15.1667 4.66667C15.4972 4.66667 15.7743 4.55486 15.9979 4.33125C16.2215 4.10764 16.3333 3.83056 16.3333 3.5C16.3333 3.16944 16.2215 2.89236 15.9979 2.66875C15.7743 2.44514 15.4972 2.33333 15.1667 2.33333C14.8361 2.33333 14.559 2.44514 14.3354 2.66875C14.1118 2.89236 14 3.16944 14 3.5C14 3.83056 14.1118 4.10764 14.3354 4.33125C14.559 4.55486 14.8361 4.66667 15.1667 4.66667V4.66667" fill="#000000"/>
</g>
</svg>
