<svg preserveAspectRatio="none" width="100%" height="100%" overflow="visible" style="display: block;" viewBox="10.75 0.0 56 56" fill="none" xmlns="http://www.w3.org/2000/svg">
<g id="Container">
<path id="Icon" d="M31.1665 38.5V17.5H39.3332C41.2776 17.5 42.9304 18.1806 44.2915 19.5417C45.6526 20.9028 46.3332 22.5556 46.3332 24.5C46.3332 26.4444 45.6526 28.0972 44.2915 29.4583C42.9304 30.8194 41.2776 31.5 39.3332 31.5H35.8332V38.5H31.1665ZM35.8332 26.8333H39.5665C40.2082 26.8333 40.7575 26.6049 41.2144 26.1479C41.6714 25.691 41.8998 25.1417 41.8998 24.5C41.8998 23.8583 41.6714 23.309 41.2144 22.8521C40.7575 22.3951 40.2082 22.1667 39.5665 22.1667H35.8332V26.8333Z" fill="#000000"/>
</g>
</svg>
