<svg preserveAspectRatio="none" width="100%" height="100%" overflow="visible" style="display: block;" viewBox="0 0 25.6667 18.6667" fill="none" xmlns="http://www.w3.org/2000/svg">
<g id="Container">
<path id="Icon" d="M16.3333 18.6667C13.7278 18.6667 11.5208 17.7625 9.7125 15.9542C7.90417 14.1458 7 11.9389 7 9.33333C7 6.72778 7.90417 4.52083 9.7125 2.7125C11.5208 0.904167 13.7278 0 16.3333 0C18.9389 0 21.1458 0.904167 22.9542 2.7125C24.7625 4.52083 25.6667 6.72778 25.6667 9.33333C25.6667 11.9389 24.7625 14.1458 22.9542 15.9542C21.1458 17.7625 18.9389 18.6667 16.3333 18.6667V18.6667M7 18.375C4.93889 17.8306 3.25694 16.7222 1.95417 15.05C0.651389 13.3778 0 11.4722 0 9.33333C0 7.19444 0.651389 5.28889 1.95417 3.61667C3.25694 1.94444 4.93889 0.836111 7 0.291667V2.74167C5.6 3.22778 4.47222 4.07361 3.61667 5.27917C2.76111 6.48472 2.33333 7.83611 2.33333 9.33333C2.33333 10.8306 2.76111 12.1819 3.61667 13.3875C4.47222 14.5931 5.6 15.4389 7 15.925V18.375V18.375M16.3333 9.33333V9.33333V9.33333V9.33333V9.33333V9.33333V9.33333V9.33333V9.33333V9.33333M16.3333 16.3333C18.2778 16.3333 19.9306 15.6528 21.2917 14.2917C22.6528 12.9306 23.3333 11.2778 23.3333 9.33333C23.3333 7.38889 22.6528 5.73611 21.2917 4.375C19.9306 3.01389 18.2778 2.33333 16.3333 2.33333C14.3889 2.33333 12.7361 3.01389 11.375 4.375C10.0139 5.73611 9.33333 7.38889 9.33333 9.33333C9.33333 11.2778 10.0139 12.9306 11.375 14.2917C12.7361 15.6528 14.3889 16.3333 16.3333 16.3333V16.3333" fill="#000000"/>
</g>
</svg>
