<svg preserveAspectRatio="none" width="100%" height="100%" overflow="visible" style="display: block;" viewBox="10.75 0.0 56 56" fill="none" xmlns="http://www.w3.org/2000/svg">
<g id="Container">
<path id="Icon" d="M30.5835 37.3333C29.9418 37.3333 29.3925 37.1049 28.9356 36.6479C28.4786 36.191 28.2502 35.6417 28.2502 35C28.2502 34.3583 28.4786 33.809 28.9356 33.3521C29.3925 32.8951 29.9418 32.6667 30.5835 32.6667C31.2252 32.6667 31.7745 32.8951 32.2314 33.3521C32.6884 33.809 32.9168 34.3583 32.9168 35C32.9168 35.6417 32.6884 36.191 32.2314 36.6479C31.7745 37.1049 31.2252 37.3333 30.5835 37.3333ZM45.7502 37.3333C45.1085 37.3333 44.5592 37.1049 44.1022 36.6479C43.6453 36.191 43.4168 35.6417 43.4168 35C43.4168 34.3583 43.6453 33.809 44.1022 33.3521C44.5592 32.8951 45.1085 32.6667 45.7502 32.6667C46.3918 32.6667 46.9411 32.8951 47.3981 33.3521C47.855 33.809 48.0835 34.3583 48.0835 35C48.0835 35.6417 47.855 36.191 47.3981 36.6479C46.9411 37.1049 46.3918 37.3333 45.7502 37.3333ZM27.0835 19.8333H49.2502L46.3335 30.3333H30.0002L27.0835 19.8333ZM29.4168 28H46.9168L48.0835 22.1667H28.2502L29.4168 28ZM32.3335 26.8333V23.3333H34.6668V26.8333H32.3335ZM36.4168 26.8333V23.3333H38.7502V26.8333H36.4168ZM40.5002 26.8333V23.3333H42.8335V26.8333H40.5002Z" fill="#000000"/>
</g>
</svg>
