<svg preserveAspectRatio="xMidYMid meet" width="100%" height="100%" overflow="visible" style="display: block;" viewBox="10.75 0.0 56 56" fill="none" xmlns="http://www.w3.org/2000/svg">
<g id="Container" transform="translate(10.7500, 13.3913) scale(2.0870)">
<path id="Icon" d="M7 9.33333C6.35833 9.33333 5.80903 9.10486 5.35208 8.64792C4.89514 8.19097 4.66667 7.64167 4.66667 7C4.66667 6.35833 4.89514 5.80903 5.35208 5.35208C5.80903 4.89514 6.35833 4.66667 7 4.66667C7.64167 4.66667 8.19097 4.89514 8.64792 5.35208C9.10486 5.80903 9.33333 6.35833 9.33333 7C9.33333 7.64167 9.10486 8.19097 8.64792 8.64792C8.19097 9.10486 7.64167 9.33333 7 9.33333V9.33333M7 14C5.05556 14 3.40278 13.3194 2.04167 11.9583C0.680556 10.5972 0 8.94444 0 7C0 5.05556 0.680556 3.40278 2.04167 2.04167C3.40278 0.680556 5.05556 0 7 0C8.30278 0 9.48403 0.320833 10.5437 0.9625C11.6035 1.60417 12.4444 2.45 13.0667 3.5H23.3333L26.8333 7L21.5833 12.25L19.25 10.5L16.9167 12.25L14.4375 10.5H13.0667C12.4444 11.55 11.6035 12.3958 10.5437 13.0375C9.48403 13.6792 8.30278 14 7 14V14M7 11.6667C8.08889 11.6667 9.04653 11.3361 9.87292 10.675C10.6993 10.0139 11.2486 9.17778 11.5208 8.16667H15.1667L16.8583 9.3625L19.25 7.58333L21.3208 9.1875L23.5083 7L22.3417 5.83333H11.5208C11.2486 4.82222 10.6993 3.98611 9.87292 3.325C9.04653 2.66389 8.08889 2.33333 7 2.33333C5.71667 2.33333 4.61806 2.79028 3.70417 3.70417C2.79028 4.61806 2.33333 5.71667 2.33333 7C2.33333 8.28333 2.79028 9.38194 3.70417 10.2958C4.61806 11.2097 5.71667 11.6667 7 11.6667V11.6667" fill="#000000"/>
</g>
</svg>
