<svg preserveAspectRatio="none" width="100%" height="100%" overflow="visible" style="display: block;" viewBox="10.75 0.0 56 56" fill="none" xmlns="http://www.w3.org/2000/svg">
<g id="Container">
<path id="Icon" d="M31.7498 37.3332C31.1082 37.3332 30.5589 37.1047 30.1019 36.6478C29.645 36.1908 29.4165 35.6415 29.4165 34.9998C29.4165 34.3582 29.645 33.8089 30.1019 33.3519C30.5589 32.895 31.1082 32.6665 31.7498 32.6665C32.3915 32.6665 32.9408 32.895 33.3978 33.3519C33.8547 33.8089 34.0832 34.3582 34.0832 34.9998C34.0832 35.6415 33.8547 36.1908 33.3978 36.6478C32.9408 37.1047 32.3915 37.3332 31.7498 37.3332V37.3332M38.7498 37.3332C38.1082 37.3332 37.5589 37.1047 37.1019 36.6478C36.645 36.1908 36.4165 35.6415 36.4165 34.9998C36.4165 34.3582 36.645 33.8089 37.1019 33.3519C37.5589 32.895 38.1082 32.6665 38.7498 32.6665C39.3915 32.6665 39.9408 32.895 40.3978 33.3519C40.8547 33.8089 41.0832 34.3582 41.0832 34.9998C41.0832 35.6415 40.8547 36.1908 40.3978 36.6478C39.9408 37.1047 39.3915 37.3332 38.7498 37.3332V37.3332M45.7498 37.3332C45.1082 37.3332 44.5589 37.1047 44.1019 36.6478C43.645 36.1908 43.4165 35.6415 43.4165 34.9998C43.4165 34.3582 43.645 33.8089 44.1019 33.3519C44.5589 32.895 45.1082 32.6665 45.7498 32.6665C46.3915 32.6665 46.9408 32.895 47.3978 33.3519C47.8547 33.8089 48.0832 34.3582 48.0832 34.9998C48.0832 35.6415 47.8547 36.1908 47.3978 36.6478C46.9408 37.1047 46.3915 37.3332 45.7498 37.3332V37.3332M31.7498 30.3332C31.1082 30.3332 30.5589 30.1047 30.1019 29.6478C29.645 29.1908 29.4165 28.6415 29.4165 27.9998C29.4165 27.3582 29.645 26.8089 30.1019 26.3519C30.5589 25.895 31.1082 25.6665 31.7498 25.6665C32.3915 25.6665 32.9408 25.895 33.3978 26.3519C33.8547 26.8089 34.0832 27.3582 34.0832 27.9998C34.0832 28.6415 33.8547 29.1908 33.3978 29.6478C32.9408 30.1047 32.3915 30.3332 31.7498 30.3332V30.3332M38.7498 30.3332C38.1082 30.3332 37.5589 30.1047 37.1019 29.6478C36.645 29.1908 36.4165 28.6415 36.4165 27.9998C36.4165 27.3582 36.645 26.8089 37.1019 26.3519C37.5589 25.895 38.1082 25.6665 38.7498 25.6665C39.3915 25.6665 39.9408 25.895 40.3978 26.3519C40.8547 26.8089 41.0832 27.3582 41.0832 27.9998C41.0832 28.6415 40.8547 29.1908 40.3978 29.6478C39.9408 30.1047 39.3915 30.3332 38.7498 30.3332V30.3332M45.7498 30.3332C45.1082 30.3332 44.5589 30.1047 44.1019 29.6478C43.645 29.1908 43.4165 28.6415 43.4165 27.9998C43.4165 27.3582 43.645 26.8089 44.1019 26.3519C44.5589 25.895 45.1082 25.6665 45.7498 25.6665C46.3915 25.6665 46.9408 25.895 47.3978 26.3519C47.8547 26.8089 48.0832 27.3582 48.0832 27.9998C48.0832 28.6415 47.8547 29.1908 47.3978 29.6478C46.9408 30.1047 46.3915 30.3332 45.7498 30.3332V30.3332M31.7498 23.3332C31.1082 23.3332 30.5589 23.1047 30.1019 22.6478C29.645 22.1908 29.4165 21.6415 29.4165 20.9998C29.4165 20.3582 29.645 19.8089 30.1019 19.3519C30.5589 18.895 31.1082 18.6665 31.7498 18.6665C32.3915 18.6665 32.9408 18.895 33.3978 19.3519C33.8547 19.8089 34.0832 20.3582 34.0832 20.9998C34.0832 21.6415 33.8547 22.1908 33.3978 22.6478C32.9408 23.1047 32.3915 23.3332 31.7498 23.3332V23.3332M38.7498 23.3332C38.1082 23.3332 37.5589 23.1047 37.1019 22.6478C36.645 22.1908 36.4165 21.6415 36.4165 20.9998C36.4165 20.3582 36.645 19.8089 37.1019 19.3519C37.5589 18.895 38.1082 18.6665 38.7498 18.6665C39.3915 18.6665 39.9408 18.895 40.3978 19.3519C40.8547 19.8089 41.0832 20.3582 41.0832 20.9998C41.0832 21.6415 40.8547 22.1908 40.3978 22.6478C39.9408 23.1047 39.3915 23.3332 38.7498 23.3332V23.3332M45.7498 23.3332C45.1082 23.3332 44.5589 23.1047 44.1019 22.6478C43.645 22.1908 43.4165 21.6415 43.4165 20.9998C43.4165 20.3582 43.645 19.8089 44.1019 19.3519C44.5589 18.895 45.1082 18.6665 45.7498 18.6665C46.3915 18.6665 46.9408 18.895 47.3978 19.3519C47.8547 19.8089 48.0832 20.3582 48.0832 20.9998C48.0832 21.6415 47.8547 22.1908 47.3978 22.6478C46.9408 23.1047 46.3915 23.3332 45.7498 23.3332V23.3332" fill="#000000"/>
</g>
</svg>
