<svg preserveAspectRatio="none" width="100%" height="100%" overflow="visible" style="display: block;" viewBox="10.75 0.0 56 56" fill="none" xmlns="http://www.w3.org/2000/svg">
<g id="Container">
<path id="Icon" d="M29.4168 35C28.7752 35 28.2259 34.7715 27.7689 34.3146C27.312 33.8576 27.0835 33.3083 27.0835 32.6667V23.3333C27.0835 22.6917 27.312 22.1424 27.7689 21.6854C28.2259 21.2285 28.7752 21 29.4168 21H48.0835C48.7252 21 49.2745 21.2285 49.7314 21.6854C50.1884 22.1424 50.4168 22.6917 50.4168 23.3333V32.6667C50.4168 33.3083 50.1884 33.8576 49.7314 34.3146C49.2745 34.7715 48.7252 35 48.0835 35H29.4168ZM29.4168 32.6667H48.0835V23.3333H29.4168V32.6667ZM32.9168 31.5H35.2502V29.1667H37.5835V26.8333H35.2502V24.5H32.9168V26.8333H30.5835V29.1667H32.9168V31.5ZM41.6668 31.5C42.1529 31.5 42.5661 31.3299 42.9064 30.9896C43.2467 30.6493 43.4168 30.2361 43.4168 29.75C43.4168 29.2639 43.2467 28.8507 42.9064 28.5104C42.5661 28.1701 42.1529 28 41.6668 28C41.1807 28 40.7675 28.1701 40.4272 28.5104C40.087 28.8507 39.9168 29.2639 39.9168 29.75C39.9168 30.2361 40.087 30.6493 40.4272 30.9896C40.7675 31.3299 41.1807 31.5 41.6668 31.5ZM45.1668 28C45.6529 28 46.0661 27.8299 46.4064 27.4896C46.7467 27.1493 46.9168 26.7361 46.9168 26.25C46.9168 25.7639 46.7467 25.3507 46.4064 25.0104C46.0661 24.6701 45.6529 24.5 45.1668 24.5C44.6807 24.5 44.2675 24.6701 43.9272 25.0104C43.587 25.3507 43.4168 25.7639 43.4168 26.25C43.4168 26.7361 43.587 27.1493 43.9272 27.4896C44.2675 27.8299 44.6807 28 45.1668 28ZM29.4168 32.6667V23.3333V32.6667Z" fill="#000000"/>
</g>
</svg>
