<svg preserveAspectRatio="none" width="100%" height="100%" overflow="visible" style="display: block;" viewBox="10.75 0.0 56 56" fill="none" xmlns="http://www.w3.org/2000/svg">
<g id="Container">
<path id="Icon" d="M28.2502 37.3332C27.9196 37.3332 27.6425 37.2214 27.4189 36.9978C27.1953 36.7741 27.0835 36.4971 27.0835 36.1665C27.0835 35.9721 27.1224 35.7922 27.2002 35.6269C27.2779 35.4616 27.3946 35.3304 27.5502 35.2332L37.5835 27.7082V25.6665C37.5835 25.3359 37.7002 25.0589 37.9335 24.8353C38.1668 24.6116 38.4488 24.4998 38.7793 24.4998C39.2654 24.4998 39.6738 24.3248 40.0043 23.9748C40.3349 23.6248 40.5002 23.2068 40.5002 22.7207C40.5002 22.2346 40.33 21.8262 39.9897 21.4957C39.6495 21.1651 39.2363 20.9998 38.7502 20.9998C38.2641 20.9998 37.8509 21.17 37.5106 21.5103C37.1703 21.8505 37.0002 22.2637 37.0002 22.7498H34.6668C34.6668 21.6221 35.0654 20.6596 35.8627 19.8623C36.6599 19.0651 37.6224 18.6665 38.7502 18.6665C39.8779 18.6665 40.8404 19.0603 41.6377 19.8478C42.4349 20.6353 42.8335 21.5929 42.8335 22.7207C42.8335 23.6346 42.5661 24.4512 42.0314 25.1707C41.4967 25.8901 40.7918 26.3859 39.9168 26.6582V27.7082L49.9502 35.2332C50.1057 35.3304 50.2224 35.4616 50.3002 35.6269C50.3779 35.7922 50.4168 35.9721 50.4168 36.1665C50.4168 36.4971 50.305 36.7741 50.0814 36.9978C49.8578 37.2214 49.5807 37.3332 49.2502 37.3332H28.2502ZM31.7502 34.9998H45.7502L38.7502 29.7498L31.7502 34.9998Z" fill="#000000"/>
</g>
</svg>
