<svg preserveAspectRatio="none" width="100%" height="100%" overflow="visible" style="display: block;" viewBox="10.75 0.0 56 56" fill="none" xmlns="http://www.w3.org/2000/svg">
<g id="Container">
<path id="Icon" d="M32.9168 39.6667C32.2752 39.6667 31.7259 39.4382 31.2689 38.9813C30.812 38.5243 30.5835 37.975 30.5835 37.3333V18.6667C30.5835 18.025 30.812 17.4757 31.2689 17.0187C31.7259 16.5618 32.2752 16.3333 32.9168 16.3333H46.9168C47.5585 16.3333 48.1078 16.5618 48.5648 17.0187C49.0217 17.4757 49.2502 18.025 49.2502 18.6667V37.3333C49.2502 37.975 49.0217 38.5243 48.5648 38.9813C48.1078 39.4382 47.5585 39.6667 46.9168 39.6667H32.9168ZM32.9168 37.3333H46.9168V18.6667H32.9168V37.3333ZM37.5835 35H42.2502V32.6667H37.5835V35ZM37.5835 30.3333H42.2502V28H37.5835V30.3333ZM39.9168 25.6667C40.3446 25.6667 40.7092 25.5125 41.0106 25.2042C41.312 24.8958 41.4627 24.5278 41.4627 24.1C41.4627 23.6722 41.3085 23.3076 41.0002 23.0063C40.6918 22.7049 40.3238 22.5542 39.896 22.5542C39.4682 22.5542 39.1036 22.7083 38.8022 23.0167C38.5009 23.325 38.3502 23.6931 38.3502 24.1208C38.3502 24.5486 38.5043 24.9132 38.8127 25.2146C39.121 25.516 39.489 25.6667 39.9168 25.6667Z" fill="#000000"/>
</g>
</svg>
