<svg preserveAspectRatio="none" width="100%" height="100%" overflow="visible" style="display: block;" viewBox="107.25 0.0 56 56" fill="none" xmlns="http://www.w3.org/2000/svg">
<g id="Container">
<path id="Icon" d="M134.2 36.1668H136.242V34.7085C137.214 34.5335 138.05 34.1543 138.75 33.571C139.45 32.9877 139.8 32.1224 139.8 30.9752C139.8 30.1585 139.567 29.4099 139.1 28.7293C138.633 28.0488 137.7 27.4557 136.3 26.9502C135.133 26.5613 134.327 26.221 133.879 25.9293C133.432 25.6377 133.208 25.2391 133.208 24.7335C133.208 24.2279 133.388 23.8293 133.748 23.5377C134.108 23.246 134.628 23.1002 135.308 23.1002C135.931 23.1002 136.417 23.2509 136.767 23.5522C137.117 23.8536 137.37 24.2279 137.525 24.6752L139.392 23.9168C139.178 23.2363 138.784 22.6432 138.211 22.1377C137.637 21.6321 137 21.3502 136.3 21.2918V19.8335H134.258V21.2918C133.286 21.5057 132.528 21.9335 131.983 22.5752C131.439 23.2168 131.167 23.9363 131.167 24.7335C131.167 25.6474 131.434 26.3863 131.969 26.9502C132.504 27.5141 133.345 28.0002 134.492 28.4085C135.717 28.8557 136.568 29.2543 137.044 29.6043C137.52 29.9543 137.758 30.4113 137.758 30.9752C137.758 31.6168 137.53 32.0884 137.073 32.3897C136.616 32.6911 136.067 32.8418 135.425 32.8418C134.783 32.8418 134.215 32.6425 133.719 32.2439C133.223 31.8453 132.858 31.2474 132.625 30.4502L130.7 31.2085C130.972 32.1418 131.395 32.8953 131.969 33.4689C132.543 34.0425 133.286 34.4363 134.2 34.6502V36.1668ZM135.25 39.6668C133.636 39.6668 132.12 39.3606 130.7 38.7481C129.281 38.1356 128.046 37.3043 126.996 36.2543C125.946 35.2043 125.115 33.9696 124.502 32.5502C123.89 31.1307 123.583 29.6141 123.583 28.0002C123.583 26.3863 123.89 24.8696 124.502 23.4502C125.115 22.0307 125.946 20.796 126.996 19.746C128.046 18.696 129.281 17.8647 130.7 17.2522C132.12 16.6397 133.636 16.3335 135.25 16.3335C136.864 16.3335 138.381 16.6397 139.8 17.2522C141.22 17.8647 142.454 18.696 143.504 19.746C144.554 20.796 145.386 22.0307 145.998 23.4502C146.611 24.8696 146.917 26.3863 146.917 28.0002C146.917 29.6141 146.611 31.1307 145.998 32.5502C145.386 33.9696 144.554 35.2043 143.504 36.2543C142.454 37.3043 141.22 38.1356 139.8 38.7481C138.381 39.3606 136.864 39.6668 135.25 39.6668ZM135.25 37.3335C137.856 37.3335 140.063 36.4293 141.871 34.621C143.679 32.8127 144.583 30.6057 144.583 28.0002C144.583 25.3946 143.679 23.1877 141.871 21.3793C140.063 19.571 137.856 18.6668 135.25 18.6668C132.645 18.6668 130.438 19.571 128.629 21.3793C126.821 23.1877 125.917 25.3946 125.917 28.0002C125.917 30.6057 126.821 32.8127 128.629 34.621C130.438 36.4293 132.645 37.3335 135.25 37.3335Z" fill="#000000"/>
</g>
</svg>
