<svg preserveAspectRatio="none" width="100%" height="100%" overflow="visible" style="display: block;" viewBox="10.75 0.0 56 56" fill="none" xmlns="http://www.w3.org/2000/svg">
<g id="Container">
<path id="Icon" d="M42.25 38.5L35.25 36.05L29.825 38.15C29.4361 38.3056 29.0764 38.2618 28.7458 38.0187C28.4153 37.7757 28.25 37.45 28.25 37.0417V20.7083C28.25 20.4556 28.3229 20.2319 28.4688 20.0375C28.6146 19.8431 28.8139 19.6972 29.0667 19.6L35.25 17.5L42.25 19.95L47.675 17.85C48.0639 17.6944 48.4236 17.7382 48.7542 17.9812C49.0847 18.2243 49.25 18.55 49.25 18.9583V35.2917C49.25 35.5444 49.1771 35.7681 49.0312 35.9625C48.8854 36.1569 48.6861 36.3028 48.4333 36.4L42.25 38.5ZM41.0833 35.6417V21.9917L36.4167 20.3583V34.0083L41.0833 35.6417ZM43.4167 35.6417L46.9167 34.475V20.65L43.4167 21.9917V35.6417ZM30.5833 35.35L34.0833 34.0083V20.3583L30.5833 21.525V35.35ZM43.4167 21.9917V35.6417V21.9917ZM34.0833 20.3583V34.0083V20.3583Z" fill="#000000"/>
</g>
</svg>
