<svg preserveAspectRatio="none" width="100%" height="100%" overflow="visible" style="display: block;" viewBox="10.75 0.0 56 56" fill="none" xmlns="http://www.w3.org/2000/svg">
<g id="Container">
<path id="Icon" d="M29.4168 39.6668C28.7752 39.6668 28.2259 39.4384 27.7689 38.9814C27.312 38.5245 27.0835 37.9752 27.0835 37.3335V23.3335C27.0835 22.6918 27.312 22.1425 27.7689 21.6856C28.2259 21.2286 28.7752 21.0002 29.4168 21.0002H34.0835V18.6668C34.0835 18.0252 34.312 17.4759 34.7689 17.0189C35.2259 16.562 35.7752 16.3335 36.4168 16.3335H41.0835C41.7252 16.3335 42.2745 16.562 42.7314 17.0189C43.1884 17.4759 43.4168 18.0252 43.4168 18.6668V21.0002H48.0835C48.7252 21.0002 49.2745 21.2286 49.7314 21.6856C50.1884 22.1425 50.4168 22.6918 50.4168 23.3335V37.3335C50.4168 37.9752 50.1884 38.5245 49.7314 38.9814C49.2745 39.4384 48.7252 39.6668 48.0835 39.6668H29.4168ZM29.4168 37.3335H48.0835V23.3335H29.4168V37.3335ZM36.4168 21.0002H41.0835V18.6668H36.4168V21.0002ZM29.4168 37.3335V23.3335V37.3335ZM37.5835 31.5002V35.0002H39.9168V31.5002H43.4168V29.1668H39.9168V25.6668H37.5835V29.1668H34.0835V31.5002H37.5835Z" fill="#000000"/>
</g>
</svg>
