<svg preserveAspectRatio="none" width="100%" height="100%" overflow="visible" style="display: block;" viewBox="10.75 0.0 56 56" fill="none" xmlns="http://www.w3.org/2000/svg">
<g id="Container">
<path id="Icon" d="M30.5835 39.6667C29.9418 39.6667 29.3925 39.4382 28.9356 38.9813C28.4786 38.5243 28.2502 37.975 28.2502 37.3333V20.6667C28.2502 20.025 28.4786 19.4757 28.9356 19.0187C29.3925 18.5618 29.9418 18.3333 30.5835 18.3333H48.0835C48.7252 18.3333 49.2745 18.5618 49.7314 19.0187C50.1884 19.4757 50.4168 20.025 50.4168 20.6667V37.3333C50.4168 37.975 50.1884 38.5243 49.7314 38.9813C49.2745 39.4382 48.7252 39.6667 48.0835 39.6667H30.5835ZM30.5835 37.3333H48.0835V26.8333H30.5835V37.3333ZM30.5835 24.5H48.0835V20.6667H30.5835V24.5ZM39.3335 33.8333C38.6918 33.8333 38.1425 33.6049 37.6856 33.1479C37.2286 32.691 37.0002 32.1417 37.0002 31.5C37.0002 30.8583 37.2286 30.309 37.6856 29.8521C38.1425 29.3951 38.6918 29.1667 39.3335 29.1667C39.9752 29.1667 40.5245 29.3951 40.9814 29.8521C41.4384 30.309 41.6668 30.8583 41.6668 31.5C41.6668 32.1417 41.4384 32.691 40.9814 33.1479C40.5245 33.6049 39.9752 33.8333 39.3335 33.8333Z" fill="#000000"/>
</g>
</svg>
