<svg preserveAspectRatio="none" width="100%" height="100%" overflow="visible" style="display: block;" viewBox="10.75 0.0 56 56" fill="none" xmlns="http://www.w3.org/2000/svg">
<g id="Container">
<path id="Icon" d="M27.0835 24.4998V20.9998C27.0835 20.3582 27.312 19.8089 27.7689 19.3519C28.2259 18.895 28.7752 18.6665 29.4168 18.6665H48.0835C48.7252 18.6665 49.2745 18.895 49.7314 19.3519C50.1884 19.8089 50.4168 20.3582 50.4168 20.9998V24.4998H48.0835V20.9998H29.4168V24.4998H27.0835ZM29.4168 37.3332C28.7752 37.3332 28.2259 37.1047 27.7689 36.6478C27.312 36.1908 27.0835 35.6415 27.0835 34.9998V31.4998H29.4168V34.9998H48.0835V31.4998H50.4168V34.9998C50.4168 35.6415 50.1884 36.1908 49.7314 36.6478C49.2745 37.1047 48.7252 37.3332 48.0835 37.3332H29.4168ZM36.4168 33.8332C36.6307 33.8332 36.8349 33.7797 37.0293 33.6728C37.2238 33.5658 37.3696 33.4054 37.4668 33.1915L41.0835 25.9582L42.3668 28.5248C42.4641 28.7387 42.6099 28.8991 42.8043 29.0061C42.9988 29.113 43.2029 29.1665 43.4168 29.1665H50.4168V26.8332H44.146L42.1335 22.8082C42.0363 22.5943 41.8904 22.4436 41.696 22.3561C41.5016 22.2686 41.2974 22.2248 41.0835 22.2248C40.8696 22.2248 40.6654 22.2686 40.471 22.3561C40.2766 22.4436 40.1307 22.5943 40.0335 22.8082L36.4168 30.0415L35.1335 27.4748C35.0363 27.2609 34.8904 27.1005 34.696 26.9936C34.5016 26.8866 34.2974 26.8332 34.0835 26.8332H27.0835V29.1665H33.3543L35.3668 33.1915C35.4641 33.4054 35.6099 33.5658 35.8043 33.6728C35.9988 33.7797 36.2029 33.8332 36.4168 33.8332Z" fill="#000000"/>
</g>
</svg>
