<svg preserveAspectRatio="none" width="100%" height="100%" overflow="visible" style="display: block;" viewBox="10.75 0.0 56 56" fill="none" xmlns="http://www.w3.org/2000/svg">
<g id="Container">
<path id="Icon" d="M32.9168 39.6667C32.2752 39.6667 31.7259 39.4382 31.2689 38.9813C30.812 38.5243 30.5835 37.975 30.5835 37.3333V18.6667C30.5835 18.025 30.812 17.4757 31.2689 17.0187C31.7259 16.5618 32.2752 16.3333 32.9168 16.3333H46.9168C47.5585 16.3333 48.1078 16.5618 48.5648 17.0187C49.0217 17.4757 49.2502 18.025 49.2502 18.6667V37.3333C49.2502 37.975 49.0217 38.5243 48.5648 38.9813C48.1078 39.4382 47.5585 39.6667 46.9168 39.6667H32.9168ZM32.9168 26.8333H46.9168V18.6667H32.9168V26.8333ZM35.2502 25.6667V21H37.5835V25.6667H35.2502ZM38.7502 25.6667V21H41.0835V25.6667H38.7502ZM42.2502 25.6667V21H44.5835V25.6667H42.2502ZM32.9168 37.3333H46.9168V29.1667H32.9168V37.3333Z" fill="#000000"/>
</g>
</svg>
