<svg preserveAspectRatio="none" width="100%" height="100%" overflow="visible" style="display: block;" viewBox="10.75 0.0 56 56" fill="none" xmlns="http://www.w3.org/2000/svg">
<g id="Container">
<path id="Icon" d="M41.0832 25.5498V23.5665C41.7248 23.2943 42.3811 23.0901 43.0519 22.954C43.7228 22.8179 44.4276 22.7498 45.1665 22.7498C45.6721 22.7498 46.1679 22.7887 46.654 22.8665C47.1401 22.9443 47.6165 23.0415 48.0832 23.1582V25.0248C47.6165 24.8498 47.145 24.7186 46.6686 24.6311C46.1922 24.5436 45.6915 24.4998 45.1665 24.4998C44.4276 24.4998 43.7179 24.5922 43.0373 24.7769C42.3568 24.9616 41.7054 25.2193 41.0832 25.5498ZM41.0832 31.9665V29.9832C41.7248 29.7109 42.3811 29.5068 43.0519 29.3707C43.7228 29.2346 44.4276 29.1665 45.1665 29.1665C45.6721 29.1665 46.1679 29.2054 46.654 29.2832C47.1401 29.3609 47.6165 29.4582 48.0832 29.5748V31.4415C47.6165 31.2665 47.145 31.1353 46.6686 31.0478C46.1922 30.9603 45.6915 30.9165 45.1665 30.9165C44.4276 30.9165 43.7179 31.004 43.0373 31.179C42.3568 31.354 41.7054 31.6165 41.0832 31.9665ZM41.0832 28.7582V26.7748C41.7248 26.5026 42.3811 26.2984 43.0519 26.1623C43.7228 26.0262 44.4276 25.9582 45.1665 25.9582C45.6721 25.9582 46.1679 25.9971 46.654 26.0748C47.1401 26.1526 47.6165 26.2498 48.0832 26.3665V28.2332C47.6165 28.0582 47.145 27.9269 46.6686 27.8394C46.1922 27.7519 45.6915 27.7082 45.1665 27.7082C44.4276 27.7082 43.7179 27.8005 43.0373 27.9853C42.3568 28.17 41.7054 28.4276 41.0832 28.7582ZM32.3332 32.6665C33.2471 32.6665 34.1366 32.7686 35.0019 32.9728C35.8672 33.1769 36.7276 33.4832 37.5832 33.8915V22.3998C36.7859 21.9332 35.9401 21.5832 35.0457 21.3498C34.1512 21.1165 33.2471 20.9998 32.3332 20.9998C31.6332 20.9998 30.938 21.0679 30.2478 21.204C29.5575 21.3401 28.8915 21.5443 28.2498 21.8165V33.3665C28.9304 33.1332 29.6061 32.9582 30.2769 32.8415C30.9478 32.7248 31.6332 32.6665 32.3332 32.6665ZM39.9165 33.8915C40.7721 33.4832 41.6325 33.1769 42.4978 32.9728C43.363 32.7686 44.2526 32.6665 45.1665 32.6665C45.8665 32.6665 46.5519 32.7248 47.2228 32.8415C47.8936 32.9582 48.5693 33.1332 49.2498 33.3665V21.8165C48.6082 21.5443 47.9422 21.3401 47.2519 21.204C46.5616 21.0679 45.8665 20.9998 45.1665 20.9998C44.2526 20.9998 43.3484 21.1165 42.454 21.3498C41.5596 21.5832 40.7137 21.9332 39.9165 22.3998V33.8915ZM38.7498 37.3332C37.8165 36.5943 36.8054 36.0207 35.7165 35.6123C34.6276 35.204 33.4998 34.9998 32.3332 34.9998C31.5165 34.9998 30.7144 35.1068 29.9269 35.3207C29.1394 35.5346 28.3859 35.8359 27.6665 36.2248C27.2582 36.4387 26.8644 36.429 26.4853 36.1957C26.1061 35.9623 25.9165 35.6221 25.9165 35.1748V21.1165C25.9165 20.9026 25.97 20.6984 26.0769 20.504C26.1839 20.3096 26.3443 20.1637 26.5582 20.0665C27.4526 19.5998 28.3859 19.2498 29.3582 19.0165C30.3304 18.7832 31.3221 18.6665 32.3332 18.6665C33.4609 18.6665 34.5644 18.8123 35.6436 19.104C36.7228 19.3957 37.7582 19.8332 38.7498 20.4165C39.7415 19.8332 40.7769 19.3957 41.8561 19.104C42.9353 18.8123 44.0387 18.6665 45.1665 18.6665C46.1776 18.6665 47.1693 18.7832 48.1415 19.0165C49.1137 19.2498 50.0471 19.5998 50.9415 20.0665C51.1554 20.1637 51.3158 20.3096 51.4228 20.504C51.5297 20.6984 51.5832 20.9026 51.5832 21.1165V35.1748C51.5832 35.6221 51.3936 35.9623 51.0144 36.1957C50.6353 36.429 50.2415 36.4387 49.8332 36.2248C49.1137 35.8359 48.3603 35.5346 47.5728 35.3207C46.7853 35.1068 45.9832 34.9998 45.1665 34.9998C43.9998 34.9998 42.8721 35.204 41.7832 35.6123C40.6943 36.0207 39.6832 36.5943 38.7498 37.3332Z" fill="#000000"/>
</g>
</svg>
