<svg preserveAspectRatio="none" width="100%" height="100%" overflow="visible" style="display: block;" viewBox="10.75 0.0 56 56" fill="none" xmlns="http://www.w3.org/2000/svg">
<g id="Container">
<path id="Icon" d="M38.7498 39.6668C36.0471 38.9863 33.8158 37.4356 32.0561 35.0147C30.2964 32.5939 29.4165 29.9057 29.4165 26.9502V19.8335L38.7498 16.3335L48.0832 19.8335V26.9502C48.0832 29.9057 47.2033 32.5939 45.4436 35.0147C43.6839 37.4356 41.4526 38.9863 38.7498 39.6668ZM38.7498 37.2168C40.7721 36.5752 42.4443 35.2918 43.7665 33.3668C45.0887 31.4418 45.7498 29.3029 45.7498 26.9502V21.4377L38.7498 18.8127L31.7498 21.4377V26.9502C31.7498 29.3029 32.4109 31.4418 33.7332 33.3668C35.0554 35.2918 36.7276 36.5752 38.7498 37.2168Z" fill="#000000"/>
</g>
</svg>
