<svg preserveAspectRatio="none" width="100%" height="100%" overflow="visible" style="display: block;" viewBox="10.75 0.0 56 56" fill="none" xmlns="http://www.w3.org/2000/svg">
<g id="Container">
<path id="Icon" d="M29.4168 39.6667V25.6667H27.0835V18.6667H35.2918C34.903 18.1111 34.6609 17.4965 34.5656 16.8229C34.4703 16.1493 34.5564 15.4917 34.8239 14.85C35.0915 14.2083 35.5002 13.6806 36.0502 13.2667C36.6002 12.8528 37.2335 12.6458 37.9502 12.6458C38.6668 12.6458 39.3002 12.8528 39.8502 13.2667C40.4002 13.6806 40.8089 14.2083 41.0764 14.85C41.3439 15.4917 41.4301 16.1493 41.3347 16.8229C41.2394 17.4965 40.9974 18.1111 40.6085 18.6667H48.8168V25.6667H46.4835V39.6667H29.4168ZM37.9502 18.6667C38.4363 18.6667 38.8495 18.4965 39.1897 18.1563C39.5299 17.816 39.7001 17.4028 39.7001 16.9167C39.7001 16.4306 39.5299 16.0174 39.1897 15.6771C38.8495 15.3368 38.4363 15.1667 37.9502 15.1667C37.464 15.1667 37.0509 15.3368 36.7106 15.6771C36.3704 16.0174 36.2002 16.4306 36.2002 16.9167C36.2002 17.4028 36.3704 17.816 36.7106 18.1563C37.0509 18.4965 37.464 18.6667 37.9502 18.6667ZM29.4168 21V23.3333H36.7835V21H29.4168ZM39.1168 21V23.3333H46.4835V21H39.1168ZM31.7502 37.3333H36.7835V25.6667H31.7502V37.3333ZM39.1168 37.3333H44.1502V25.6667H39.1168V37.3333Z" fill="#000000"/>
</g>
</svg>
