<svg preserveAspectRatio="none" width="100%" height="100%" overflow="visible" style="display: block;" viewBox="10.75 0.0 56 56" fill="none" xmlns="http://www.w3.org/2000/svg">
<g id="Container">
<path id="Icon" d="M35.8335 33.2502L44.0002 28.0002L35.8335 22.7502V33.2502V33.2502M38.7502 39.6668C37.1363 39.6668 35.6196 39.3606 34.2002 38.7481C32.7807 38.1356 31.546 37.3043 30.496 36.2543C29.446 35.2043 28.6147 33.9696 28.0022 32.5502C27.3897 31.1307 27.0835 29.6141 27.0835 28.0002C27.0835 26.3863 27.3897 24.8696 28.0022 23.4502C28.6147 22.0307 29.446 20.796 30.496 19.746C31.546 18.696 32.7807 17.8647 34.2002 17.2522C35.6196 16.6397 37.1363 16.3335 38.7502 16.3335C40.3641 16.3335 41.8807 16.6397 43.3002 17.2522C44.7196 17.8647 45.9543 18.696 47.0043 19.746C48.0543 20.796 48.8856 22.0307 49.4981 23.4502C50.1106 24.8696 50.4168 26.3863 50.4168 28.0002C50.4168 29.6141 50.1106 31.1307 49.4981 32.5502C48.8856 33.9696 48.0543 35.2043 47.0043 36.2543C45.9543 37.3043 44.7196 38.1356 43.3002 38.7481C41.8807 39.3606 40.3641 39.6668 38.7502 39.6668V39.6668M38.7502 37.3335C41.3557 37.3335 43.5627 36.4293 45.371 34.621C47.1793 32.8127 48.0835 30.6057 48.0835 28.0002C48.0835 25.3946 47.1793 23.1877 45.371 21.3793C43.5627 19.571 41.3557 18.6668 38.7502 18.6668C36.1446 18.6668 33.9377 19.571 32.1293 21.3793C30.321 23.1877 29.4168 25.3946 29.4168 28.0002C29.4168 30.6057 30.321 32.8127 32.1293 34.621C33.9377 36.4293 36.1446 37.3335 38.7502 37.3335V37.3335M38.7502 28.0002V28.0002V28.0002V28.0002V28.0002V28.0002V28.0002V28.0002V28.0002V28.0002" fill="#000000"/>
</g>
</svg>
