<svg preserveAspectRatio="none" width="100%" height="100%" overflow="visible" style="display: block;" viewBox="10.75 0.0 56 56" fill="none" xmlns="http://www.w3.org/2000/svg">
<g id="Container">
<path id="Icon" d="M31.75 36.1667V37.3333C31.75 37.6639 31.6382 37.941 31.4146 38.1646C31.191 38.3882 30.9139 38.5 30.5833 38.5H29.4167C29.0861 38.5 28.809 38.3882 28.5854 38.1646C28.3618 37.941 28.25 37.6639 28.25 37.3333V28L30.7 21C30.8167 20.65 31.0257 20.3681 31.3271 20.1542C31.6285 19.9403 31.9639 19.8333 32.3333 19.8333H35.25V17.5H42.25V19.8333H45.1667C45.5361 19.8333 45.8715 19.9403 46.1729 20.1542C46.4743 20.3681 46.6833 20.65 46.8 21L49.25 28V37.3333C49.25 37.6639 49.1382 37.941 48.9146 38.1646C48.691 38.3882 48.4139 38.5 48.0833 38.5H46.9167C46.5861 38.5 46.309 38.3882 46.0854 38.1646C45.8618 37.941 45.75 37.6639 45.75 37.3333V36.1667H31.75ZM31.5167 25.6667H45.9833L44.7583 22.1667H32.7417L31.5167 25.6667ZM30.5833 28V33.8333V28ZM33.5 32.6667C33.9861 32.6667 34.3993 32.4965 34.7396 32.1562C35.0799 31.816 35.25 31.4028 35.25 30.9167C35.25 30.4306 35.0799 30.0174 34.7396 29.6771C34.3993 29.3368 33.9861 29.1667 33.5 29.1667C33.0139 29.1667 32.6007 29.3368 32.2604 29.6771C31.9201 30.0174 31.75 30.4306 31.75 30.9167C31.75 31.4028 31.9201 31.816 32.2604 32.1562C32.6007 32.4965 33.0139 32.6667 33.5 32.6667ZM44 32.6667C44.4861 32.6667 44.8993 32.4965 45.2396 32.1562C45.5799 31.816 45.75 31.4028 45.75 30.9167C45.75 30.4306 45.5799 30.0174 45.2396 29.6771C44.8993 29.3368 44.4861 29.1667 44 29.1667C43.5139 29.1667 43.1007 29.3368 42.7604 29.6771C42.4201 30.0174 42.25 30.4306 42.25 30.9167C42.25 31.4028 42.4201 31.816 42.7604 32.1562C43.1007 32.4965 43.5139 32.6667 44 32.6667ZM30.5833 33.8333H46.9167V28H30.5833V33.8333Z" fill="#000000"/>
</g>
</svg>
