<svg preserveAspectRatio="none" width="100%" height="100%" overflow="visible" style="display: block;" viewBox="10.75 0.0 56 56" fill="none" xmlns="http://www.w3.org/2000/svg">
<g id="Container">
<path id="Icon" d="M48.1998 33.7752C48.5304 33.9502 48.8221 33.9113 49.0748 33.6585C49.3276 33.4057 49.3665 33.1141 49.1915 32.7835L47.4998 29.6335L46.2748 32.7835L48.1998 33.7752V33.7752M42.3665 32.6668H43.7665L46.5665 25.7252C46.6248 25.5696 46.6103 25.4384 46.5228 25.3314C46.4353 25.2245 46.3332 25.1418 46.2165 25.0835L43.8832 24.1502C43.7082 24.0918 43.538 24.1113 43.3728 24.2085C43.2075 24.3057 43.1054 24.4418 43.0665 24.6168L42.3665 32.6668V32.6668M33.7332 32.6668H35.1332L34.4332 24.6168C34.3943 24.4029 34.2922 24.2571 34.1269 24.1793C33.9616 24.1016 33.7915 24.0918 33.6165 24.1502L31.2832 25.0835C31.1276 25.1418 31.0158 25.2245 30.9478 25.3314C30.8797 25.4384 30.8748 25.5696 30.9332 25.7252L33.7332 32.6668V32.6668M29.2998 33.7752L31.2248 32.7835L29.9998 29.6335L28.3082 32.7835C28.1332 33.1141 28.1721 33.4057 28.4248 33.6585C28.6776 33.9113 28.9693 33.9502 29.2998 33.7752V33.7752M37.4665 32.6668H40.0332L40.9082 22.8085C40.9471 22.6335 40.9033 22.4828 40.7769 22.3564C40.6505 22.23 40.4998 22.1668 40.3248 22.1668H37.1748C37.0193 22.1668 36.8783 22.23 36.7519 22.3564C36.6255 22.4828 36.5721 22.6335 36.5915 22.8085L37.4665 32.6668V32.6668M28.7748 36.1668C27.9582 36.1668 27.2776 35.8606 26.7332 35.2481C26.1887 34.6356 25.9165 33.9113 25.9165 33.0752C25.9165 32.8418 25.9505 32.6134 26.0186 32.3897C26.0866 32.1661 26.1693 31.9474 26.2665 31.7335L28.8332 26.8335C28.5609 26.0557 28.5707 25.2877 28.8623 24.5293C29.154 23.771 29.6693 23.2363 30.4082 22.9252L32.7415 21.9918C33.0137 21.8946 33.2859 21.8266 33.5582 21.7877C33.8304 21.7488 34.1026 21.7585 34.3748 21.8168C34.6471 21.2529 35.0262 20.7814 35.5123 20.4022C35.9984 20.0231 36.5526 19.8335 37.1748 19.8335H40.3248C40.9471 19.8335 41.5012 20.0231 41.9873 20.4022C42.4734 20.7814 42.8526 21.2529 43.1248 21.8168C43.3971 21.7779 43.6693 21.7731 43.9415 21.8022C44.2137 21.8314 44.4859 21.8946 44.7582 21.9918L47.0915 22.9252C47.8693 23.2363 48.4137 23.771 48.7248 24.5293C49.0359 25.2877 49.0165 26.0363 48.6665 26.7752L51.2332 31.6752C51.3498 31.8891 51.4373 32.1127 51.4957 32.346C51.554 32.5793 51.5832 32.8224 51.5832 33.0752C51.5832 33.9502 51.2866 34.6842 50.6936 35.2772C50.1005 35.8703 49.3665 36.1668 48.4915 36.1668C48.2776 36.1668 48.0637 36.1425 47.8498 36.0939C47.6359 36.0453 47.4221 35.9724 47.2082 35.8752L45.3998 35.0002H32.0415L30.4082 35.8752C30.1554 36.0113 29.888 36.0939 29.6061 36.1231C29.3241 36.1522 29.0471 36.1668 28.7748 36.1668V36.1668M38.7498 28.0002V28.0002V28.0002V28.0002V28.0002V28.0002V28.0002V28.0002V28.0002V28.0002V28.0002V28.0002V28.0002V28.0002V28.0002V28.0002V28.0002V28.0002V28.0002V28.0002V28.0002V28.0002V28.0002V28.0002V28.0002V28.0002V28.0002V28.0002V28.0002V28.0002V28.0002V28.0002V28.0002V28.0002" fill="#000000"/>
</g>
</svg>
