<svg preserveAspectRatio="none" width="100%" height="100%" overflow="visible" style="display: block;" viewBox="10.75 0.0 56 56" fill="none" xmlns="http://www.w3.org/2000/svg">
<g id="Container">
<path id="Icon" d="M32.9168 38.5L35.8335 41.4167H33.5002L30.5835 38.5H29.4168C28.7752 38.5 28.2259 38.2715 27.7689 37.8146C27.312 37.3576 27.0835 36.8083 27.0835 36.1667V21C27.0835 19.3958 27.7064 18.0729 28.9522 17.0312C30.1981 15.9896 31.6863 15.3229 33.4168 15.0312V17.4583C32.3585 17.6708 31.4863 18.1167 30.8002 18.7958C30.1141 19.475 29.771 20.2333 29.771 21.0708H46.1452C46.1452 20.2333 45.7924 19.475 45.0868 18.7958C44.3811 18.1167 43.4991 17.6708 42.4408 17.4583V15.0312C44.1713 15.3229 45.6595 15.9896 46.9053 17.0312C48.1512 18.0729 48.7741 19.3958 48.7741 21V36.1667C48.7741 36.8083 48.5408 37.3576 48.0741 37.8146C47.6075 38.2715 47.0533 38.5 46.4116 38.5H45.2449L42.3282 41.4167H39.9949L42.9116 38.5H32.9168ZM29.4168 30.3333H46.0835V23.3333H29.4168V30.3333ZM29.4168 36.1667H46.0835V32.6667H29.4168V36.1667ZM37.8335 17.5V14H39.0002C39.4671 14 39.8586 14.1597 40.1749 14.4792C40.4912 14.7986 40.6493 15.1944 40.6493 15.6667C40.6493 16.1389 40.4912 16.5347 40.1749 16.8542C39.8586 17.1736 39.4671 17.3333 39.0002 17.3333H37.8335V17.5Z" fill="#000000"/>
</g>
</svg>
