<svg preserveAspectRatio="none" width="100%" height="100%" overflow="visible" style="display: block;" viewBox="10.75 0.0 56 56" fill="none" xmlns="http://www.w3.org/2000/svg">
<g id="Container">
<path id="Icon" d="M37.5835 39.6667V21H40.5002V28.1167C41.4307 28.5833 42.1797 29.2667 42.7471 30.1667C43.3144 31.0667 43.5981 32.0667 43.5981 33.1667C43.5981 34.7222 43.0522 36.0486 41.9603 37.1458C40.8685 38.2431 39.5474 38.7917 37.9968 38.7917C37.2649 38.7917 36.5647 38.6528 35.896 38.375C35.2272 38.0972 34.6335 37.7 34.1147 37.1833L35.771 35.5271C36.0293 35.7854 36.3265 35.9875 36.6627 36.1333C36.9988 36.2792 37.3522 36.3521 37.7227 36.3521C38.5307 36.3521 39.2189 36.0667 39.7872 35.4958C40.3557 34.925 40.6399 34.2333 40.6399 33.4208C40.6399 32.6083 40.3557 31.9187 39.7872 31.3521C39.2189 30.7854 38.5307 30.5021 37.7227 30.5021C37.3522 30.5021 36.9988 30.575 36.6627 30.7208C36.3265 30.8667 36.0293 31.0687 35.771 31.3271L34.1147 29.6708C34.6335 29.1542 35.2272 28.7569 35.896 28.4792C36.5647 28.2014 37.2649 28.0625 37.9968 28.0625C38.2649 28.0625 38.5265 28.0819 38.7814 28.1208C39.0363 28.1597 39.2884 28.2181 39.5372 28.2958L40.5002 28.1167V21H37.5835V18.6667H43.4168V21H42.4539L43.4168 21.5833V39.6667H37.5835ZM35.2502 21V18.6667H37.5835V21H35.2502Z" fill="#000000"/>
</g>
</svg>
