<svg preserveAspectRatio="none" width="100%" height="100%" overflow="visible" style="display: block;" viewBox="10.75 0.0 56 56" fill="none" xmlns="http://www.w3.org/2000/svg">
<g id="Container">
<path id="Icon" d="M27.0833 37.9168C26.4417 37.9168 25.8924 37.6884 25.4354 37.2314C24.9785 36.7745 24.75 36.2252 24.75 35.5835H29.4167C28.775 35.5835 28.2257 35.355 27.7687 34.8981C27.3118 34.4411 27.0833 33.8918 27.0833 33.2502V20.4168C27.0833 19.7752 27.3118 19.2259 27.7687 18.7689C28.2257 18.312 28.775 18.0835 29.4167 18.0835H48.0833C48.725 18.0835 49.2743 18.312 49.7313 18.7689C50.1882 19.2259 50.4167 19.7752 50.4167 20.4168V33.2502C50.4167 33.8918 50.1882 34.4411 49.7313 34.8981C49.2743 35.355 48.725 35.5835 48.0833 35.5835H52.75C52.75 36.2252 52.5215 36.7745 52.0646 37.2314C51.6076 37.6884 51.0583 37.9168 50.4167 37.9168H27.0833ZM38.75 36.7502C39.0806 36.7502 39.3576 36.6384 39.5813 36.4147C39.8049 36.1911 39.9167 35.9141 39.9167 35.5835C39.9167 35.2529 39.8049 34.9759 39.5813 34.7522C39.3576 34.5286 39.0806 34.4168 38.75 34.4168C38.4194 34.4168 38.1424 34.5286 37.9187 34.7522C37.6951 34.9759 37.5833 35.2529 37.5833 35.5835C37.5833 35.9141 37.6951 36.1911 37.9187 36.4147C38.1424 36.6384 38.4194 36.7502 38.75 36.7502ZM29.4167 33.2502H48.0833V20.4168H29.4167V33.2502ZM29.4167 33.2502V20.4168V33.2502Z" fill="#000000"/>
</g>
</svg>
