<svg preserveAspectRatio="none" width="100%" height="100%" overflow="visible" style="display: block;" viewBox="10.75 0.0 56 56" fill="none" xmlns="http://www.w3.org/2000/svg">
<g id="Container">
<path id="Icon" d="M30.5835 38.5C29.9418 38.5 29.3925 38.2715 28.9356 37.8146C28.4786 37.3576 28.2502 36.8083 28.2502 36.1667V21C28.2502 20.3583 28.4786 19.809 28.9356 19.3521C29.3925 18.8951 29.9418 18.6667 30.5835 18.6667H37.5835V21H30.5835V36.1667H46.9168V21H41.0835V18.6667H46.9168C47.5585 18.6667 48.1078 18.8951 48.5648 19.3521C49.0217 19.809 49.2502 20.3583 49.2502 21V36.1667C49.2502 36.8083 49.0217 37.3576 48.5648 37.8146C48.1078 38.2715 47.5585 38.5 46.9168 38.5H30.5835ZM38.7502 26.8333L35.2502 23.3333L36.9168 21.6667L37.5835 22.3333V16.3333H40.5002V22.3333L41.1668 21.6667L42.8335 23.3333L38.7502 26.8333Z" fill="#000000"/>
</g>
</svg>
