<svg preserveAspectRatio="none" width="100%" height="100%" overflow="visible" style="display: block;" viewBox="10.75 0.0 56 56" fill="none" xmlns="http://www.w3.org/2000/svg">
<g id="Container">
<path id="Icon" d="M38.8668 39.6668C37.2335 39.6668 35.7022 39.3557 34.2731 38.7335C32.8439 38.1113 31.5995 37.2703 30.5397 36.2106C29.48 35.1509 28.6391 33.9064 28.0168 32.4772C27.3946 31.0481 27.0835 29.5168 27.0835 27.8835C27.0835 25.0446 27.9877 22.5411 29.796 20.3731C31.6043 18.205 33.9085 16.8585 36.7085 16.3335C36.3585 18.2585 36.4654 20.1397 37.0293 21.9772C37.5932 23.8147 38.5654 25.4238 39.946 26.8043C41.3266 28.1849 42.9356 29.1571 44.7731 29.721C46.6106 30.2849 48.4918 30.3918 50.4168 30.0418C49.9113 32.8418 48.5696 35.146 46.3918 36.9543C44.2141 38.7627 41.7057 39.6668 38.8668 39.6668V39.6668M38.8668 37.3335C40.5779 37.3335 42.1627 36.9057 43.621 36.0502C45.0793 35.1946 46.2266 34.0182 47.0627 32.521C45.3904 32.3654 43.8057 31.9425 42.3085 31.2522C40.8113 30.562 39.4696 29.6238 38.2835 28.4377C37.0974 27.2516 36.1543 25.9099 35.4543 24.4127C34.7543 22.9154 34.3363 21.3307 34.2002 19.6585C32.7029 20.4946 31.5314 21.6467 30.6856 23.1147C29.8397 24.5828 29.4168 26.1724 29.4168 27.8835C29.4168 30.5085 30.3356 32.7397 32.1731 34.5772C34.0106 36.4147 36.2418 37.3335 38.8668 37.3335V37.3335M38.2835 28.4377V28.4377V28.4377V28.4377V28.4377V28.4377V28.4377V28.4377V28.4377V28.4377V28.4377V28.4377" fill="#000000"/>
</g>
</svg>
