<svg preserveAspectRatio="none" width="100%" height="100%" overflow="visible" style="display: block;" viewBox="10.75 0.0 56 56" fill="none" xmlns="http://www.w3.org/2000/svg">
<g id="Container">
<path id="Icon" d="M25.9165 37.3332V32.6665C25.9165 32.0054 26.145 31.4512 26.6019 31.004C27.0589 30.5568 27.6082 30.3332 28.2498 30.3332H32.0707C32.4596 30.3332 32.829 30.4304 33.179 30.6248C33.529 30.8193 33.8109 31.0818 34.0248 31.4123C34.5887 32.1707 35.2839 32.7637 36.1103 33.1915C36.9366 33.6193 37.8165 33.8332 38.7498 33.8332C39.7026 33.8332 40.5922 33.6193 41.4186 33.1915C42.245 32.7637 42.9304 32.1707 43.4748 31.4123C43.7276 31.0818 44.0241 30.8193 44.3644 30.6248C44.7047 30.4304 45.0596 30.3332 45.429 30.3332H49.2498C49.9109 30.3332 50.4651 30.5568 50.9123 31.004C51.3596 31.4512 51.5832 32.0054 51.5832 32.6665V37.3332H43.4165V34.679C42.7359 35.1651 42.0019 35.5346 41.2144 35.7873C40.4269 36.0401 39.6054 36.1665 38.7498 36.1665C37.9137 36.1665 37.0971 36.0353 36.2998 35.7728C35.5026 35.5103 34.7637 35.1359 34.0832 34.6498V37.3332H25.9165V37.3332M38.7498 32.6665C38.0109 32.6665 37.3109 32.4964 36.6498 32.1561C35.9887 31.8158 35.4346 31.3443 34.9873 30.7415C34.6568 30.2554 34.2436 29.8714 33.7478 29.5894C33.2519 29.3075 32.7123 29.1665 32.129 29.1665C32.5568 28.4471 33.4609 27.8783 34.8415 27.4603C36.2221 27.0422 37.5248 26.8332 38.7498 26.8332C39.9748 26.8332 41.2776 27.0422 42.6582 27.4603C44.0387 27.8783 44.9429 28.4471 45.3707 29.1665C44.8068 29.1665 44.2721 29.3075 43.7665 29.5894C43.2609 29.8714 42.8429 30.2554 42.5123 30.7415C42.0846 31.3637 41.5401 31.8401 40.879 32.1707C40.2179 32.5012 39.5082 32.6665 38.7498 32.6665V32.6665M29.4165 29.1665C28.4443 29.1665 27.6179 28.8262 26.9373 28.1457C26.2568 27.4651 25.9165 26.6387 25.9165 25.6665C25.9165 24.6748 26.2568 23.8436 26.9373 23.1728C27.6179 22.5019 28.4443 22.1665 29.4165 22.1665C30.4082 22.1665 31.2394 22.5019 31.9103 23.1728C32.5811 23.8436 32.9165 24.6748 32.9165 25.6665C32.9165 26.6387 32.5811 27.4651 31.9103 28.1457C31.2394 28.8262 30.4082 29.1665 29.4165 29.1665V29.1665M48.0832 29.1665C47.1109 29.1665 46.2846 28.8262 45.604 28.1457C44.9234 27.4651 44.5832 26.6387 44.5832 25.6665C44.5832 24.6748 44.9234 23.8436 45.604 23.1728C46.2846 22.5019 47.1109 22.1665 48.0832 22.1665C49.0748 22.1665 49.9061 22.5019 50.5769 23.1728C51.2478 23.8436 51.5832 24.6748 51.5832 25.6665C51.5832 26.6387 51.2478 27.4651 50.5769 28.1457C49.9061 28.8262 49.0748 29.1665 48.0832 29.1665V29.1665M38.7498 25.6665C37.7776 25.6665 36.9512 25.3262 36.2707 24.6457C35.5901 23.9651 35.2498 23.1387 35.2498 22.1665C35.2498 21.1748 35.5901 20.3436 36.2707 19.6728C36.9512 19.0019 37.7776 18.6665 38.7498 18.6665C39.7415 18.6665 40.5728 19.0019 41.2436 19.6728C41.9144 20.3436 42.2498 21.1748 42.2498 22.1665C42.2498 23.1387 41.9144 23.9651 41.2436 24.6457C40.5728 25.3262 39.7415 25.6665 38.7498 25.6665V25.6665" fill="#000000"/>
</g>
</svg>
