<svg preserveAspectRatio="none" width="100%" height="100%" overflow="visible" style="display: block;" viewBox="10.75 0.0 56 56" fill="none" xmlns="http://www.w3.org/2000/svg">
<g id="Container">
<path id="Icon" d="M40.3835 39.5502L38.7502 37.9169L42.8919 33.7752L32.9752 23.8585L28.8335 28.0002L27.2002 26.3669L28.8335 24.6752L27.2002 23.0419L29.6502 20.5919L28.0169 18.9002L29.6502 17.2669L31.3419 18.9002L33.7919 16.4502L35.4252 18.0835L37.1169 16.4502L38.7502 18.0835L34.6085 22.2252L44.5252 32.1419L48.6669 28.0002L50.3002 29.6335L48.6669 31.3252L50.3002 32.9585L47.8502 35.4085L49.4835 37.1002L47.8502 38.7335L46.1585 37.1002L43.7085 39.5502L42.0752 37.9169L40.3835 39.5502Z" fill="#000000"/>
</g>
</svg>
