<svg preserveAspectRatio="none" width="100%" height="100%" overflow="visible" style="display: block;" viewBox="10.75 0.0 56 56" fill="none" xmlns="http://www.w3.org/2000/svg">
<g id="Container">
<path id="Icon" d="M38.7502 40.8333C38.1085 40.8333 37.5592 40.6049 37.1022 40.1479C36.6453 39.691 36.4168 39.1417 36.4168 38.5V33.8333C36.4168 32.725 36.1012 31.7569 35.4702 30.9292C34.8391 30.1014 34.0182 29.5764 33.0072 29.3542C32.4634 29.2292 32.005 28.9549 31.6322 28.5312C31.2594 28.1076 31.0729 27.6111 31.0729 27.0417C31.0729 26.2778 31.3109 25.6354 31.7868 25.1146C32.2627 24.5937 32.8613 24.3333 33.5827 24.3333C34.7918 24.3333 35.9182 24.5885 36.9618 25.099C38.0054 25.6094 38.8825 26.3194 39.5931 27.2292C40.3037 26.3194 41.1808 25.6094 42.2243 25.099C43.2679 24.5885 44.3943 24.3333 45.6033 24.3333C46.3247 24.3333 46.9233 24.5937 47.3993 25.1146C47.8752 25.6354 48.1132 26.2778 48.1132 27.0417C48.1132 27.6111 47.9267 28.1076 47.5539 28.5312C47.1811 28.9549 46.7227 29.2292 46.1789 29.3542C45.1679 29.5764 44.347 30.1014 43.716 30.9292C43.0849 31.7569 42.7693 32.725 42.7693 33.8333V38.5C42.7693 39.1417 42.5408 39.691 42.0839 40.1479C41.6269 40.6049 41.0776 40.8333 40.436 40.8333H38.7502ZM38.7502 38.5H40.436V33.8333C40.436 32.4917 40.7905 31.2667 41.4995 30.1583C42.2085 29.05 43.1405 28.1833 44.2955 27.5583C43.8241 27.325 43.333 27.2083 42.822 27.2083C41.6991 27.2083 40.7238 27.6063 39.896 28.4021C39.0682 29.1979 38.6543 30.1528 38.6543 31.2667L38.7502 38.5Z" fill="#000000"/>
</g>
</svg>
