<svg preserveAspectRatio="none" width="100%" height="100%" overflow="visible" style="display: block;" viewBox="10.75 0.0 56 56" fill="none" xmlns="http://www.w3.org/2000/svg">
<g id="Container">
<path id="Icon" d="M31.1957 39.0832C30.6707 39.0832 30.204 38.9228 29.7957 38.6019C29.3874 38.2811 29.1054 37.8679 28.9499 37.3623L25.9749 26.5707C25.8776 26.2012 25.9408 25.8609 26.1644 25.5498C26.3881 25.2387 26.6943 25.0832 27.0832 25.0832H32.6249L37.7582 17.4415C37.8554 17.2859 37.9915 17.1596 38.1665 17.0623C38.3415 16.9651 38.5262 16.9165 38.7207 16.9165C38.9151 16.9165 39.0999 16.9651 39.2749 17.0623C39.4499 17.1596 39.586 17.2859 39.6832 17.4415L44.8165 25.0832H50.4165C50.8054 25.0832 51.1117 25.2387 51.3353 25.5498C51.5589 25.8609 51.6221 26.2012 51.5249 26.5707L48.5499 37.3623C48.3943 37.8679 48.1124 38.2811 47.704 38.6019C47.2957 38.9228 46.829 39.0832 46.304 39.0832H31.1957V39.0832M31.1665 36.7498H46.3332V36.7498V36.7498L48.8999 27.4165H28.5999L31.1665 36.7498V36.7498V36.7498V36.7498M38.7499 34.4165C39.3915 34.4165 39.9408 34.188 40.3978 33.7311C40.8547 33.2741 41.0832 32.7248 41.0832 32.0832C41.0832 31.4415 40.8547 30.8922 40.3978 30.4353C39.9408 29.9783 39.3915 29.7498 38.7499 29.7498C38.1082 29.7498 37.5589 29.9783 37.1019 30.4353C36.645 30.8922 36.4165 31.4415 36.4165 32.0832C36.4165 32.7248 36.645 33.2741 37.1019 33.7311C37.5589 34.188 38.1082 34.4165 38.7499 34.4165V34.4165M35.454 25.0832H42.0165L38.7207 20.1832L35.454 25.0832V25.0832M38.7499 32.0832V32.0832V32.0832V32.0832V32.0832V32.0832V32.0832V32.0832V32.0832V32.0832" fill="#000000"/>
</g>
</svg>
