<svg preserveAspectRatio="none" width="100%" height="100%" overflow="visible" style="display: block;" viewBox="107.25 0.0 56 56" fill="none" xmlns="http://www.w3.org/2000/svg">
<g id="Container">
<path id="Icon" d="M125.917 40.25V27.4167H123.583V20.4167H129.65C129.553 20.2417 129.49 20.0569 129.461 19.8625C129.431 19.6681 129.417 19.4639 129.417 19.25C129.417 18.2778 129.757 17.4514 130.438 16.7708C131.118 16.0903 131.945 15.75 132.917 15.75C133.364 15.75 133.782 15.8326 134.171 15.9979C134.56 16.1632 134.92 16.3917 135.25 16.6833C135.581 16.3722 135.94 16.1389 136.329 15.9833C136.718 15.8278 137.136 15.75 137.583 15.75C138.556 15.75 139.382 16.0903 140.063 16.7708C140.743 17.4514 141.083 18.2778 141.083 19.25C141.083 19.4639 141.064 19.6632 141.025 19.8479C140.986 20.0326 140.928 20.2222 140.85 20.4167H146.917V27.4167H144.583V40.25H125.917V40.25M137.583 18.0833C137.253 18.0833 136.976 18.1951 136.752 18.4188C136.529 18.6424 136.417 18.9194 136.417 19.25C136.417 19.5806 136.529 19.8576 136.752 20.0813C136.976 20.3049 137.253 20.4167 137.583 20.4167C137.914 20.4167 138.191 20.3049 138.415 20.0813C138.638 19.8576 138.75 19.5806 138.75 19.25C138.75 18.9194 138.638 18.6424 138.415 18.4188C138.191 18.1951 137.914 18.0833 137.583 18.0833V18.0833M131.75 19.25C131.75 19.5806 131.862 19.8576 132.086 20.0813C132.309 20.3049 132.586 20.4167 132.917 20.4167C133.247 20.4167 133.524 20.3049 133.748 20.0813C133.972 19.8576 134.083 19.5806 134.083 19.25C134.083 18.9194 133.972 18.6424 133.748 18.4188C133.524 18.1951 133.247 18.0833 132.917 18.0833C132.586 18.0833 132.309 18.1951 132.086 18.4188C131.862 18.6424 131.75 18.9194 131.75 19.25V19.25M125.917 22.75V25.0833H134.083V22.75H125.917V22.75M134.083 37.9167V27.4167H128.25V37.9167H134.083V37.9167M136.417 37.9167H142.25V27.4167H136.417V37.9167V37.9167M144.583 25.0833V22.75H136.417V25.0833H144.583V25.0833" fill="#000000"/>
</g>
</svg>
