<svg preserveAspectRatio="none" width="100%" height="100%" overflow="visible" style="display: block;" viewBox="10.75 0.0 56 56" fill="none" xmlns="http://www.w3.org/2000/svg">
<g id="Container">
<path id="Icon" d="M32.9167 39.6668V32.6668H31.05C30.2722 32.6668 29.6111 32.3946 29.0667 31.8502C28.5222 31.3057 28.25 30.6446 28.25 29.8668C28.25 29.3029 28.4056 28.7828 28.7167 28.3064C29.0278 27.83 29.4361 27.4752 29.9417 27.2418L37.5833 23.8585V23.1002C36.8833 22.8474 36.3194 22.4245 35.8917 21.8314C35.4639 21.2384 35.25 20.5724 35.25 19.8335C35.25 18.8613 35.5903 18.0349 36.2708 17.3543C36.9514 16.6738 37.7778 16.3335 38.75 16.3335C39.7222 16.3335 40.5486 16.6738 41.2292 17.3543C41.9097 18.0349 42.25 18.8613 42.25 19.8335H39.9167C39.9167 19.5029 39.8049 19.2259 39.5813 19.0022C39.3576 18.7786 39.0806 18.6668 38.75 18.6668C38.4194 18.6668 38.1424 18.7786 37.9187 19.0022C37.6951 19.2259 37.5833 19.5029 37.5833 19.8335C37.5833 20.1641 37.6951 20.4411 37.9187 20.6647C38.1424 20.8884 38.4194 21.0002 38.75 21.0002C39.0806 21.0002 39.3576 21.112 39.5813 21.3356C39.8049 21.5592 39.9167 21.8363 39.9167 22.1668V23.8585L47.5583 27.2418C48.0639 27.4752 48.4722 27.83 48.7833 28.3064C49.0944 28.7828 49.25 29.3029 49.25 29.8668C49.25 30.6446 48.9778 31.3057 48.4333 31.8502C47.8889 32.3946 47.2278 32.6668 46.45 32.6668H44.5833V39.6668H32.9167V39.6668M31.05 30.3335H32.9167V29.1668H44.5833V30.3335H46.45C46.5861 30.3335 46.6979 30.2849 46.7854 30.1877C46.8729 30.0904 46.9167 29.9641 46.9167 29.8085C46.9167 29.7113 46.8924 29.6286 46.8438 29.5606C46.7951 29.4925 46.7222 29.4391 46.625 29.4002L38.75 25.9002L30.875 29.4002C30.7778 29.4391 30.7049 29.4925 30.6562 29.5606C30.6076 29.6286 30.5833 29.7113 30.5833 29.8085C30.5833 29.9641 30.6271 30.0904 30.7146 30.1877C30.8021 30.2849 30.9139 30.3335 31.05 30.3335V30.3335M35.25 37.3335H42.25V31.5002H35.25V37.3335V37.3335M35.25 31.5002V31.5002H42.25V31.5002H35.25V31.5002" fill="#000000"/>
</g>
</svg>
