<svg preserveAspectRatio="none" width="100%" height="100%" overflow="visible" style="display: block;" viewBox="10.75 0.0 56 56" fill="none" xmlns="http://www.w3.org/2000/svg">
<g id="Container">
<path id="Icon" d="M34.6665 39.9582L32.3332 38.2082V33.5415H31.1665C30.5248 33.5415 29.9755 33.313 29.5186 32.8561C29.0616 32.3991 28.8332 31.8498 28.8332 31.2082V22.4582C28.5026 22.4582 28.2255 22.3464 28.0019 22.1228C27.7783 21.8991 27.6665 21.6221 27.6665 21.2915C27.6665 20.9609 27.7783 20.6839 28.0019 20.4603C28.2255 20.2366 28.5026 20.1248 28.8332 20.1248H32.3332V18.3748H31.7498C31.4193 18.3748 31.1422 18.263 30.9186 18.0394C30.695 17.8158 30.5832 17.5387 30.5832 17.2082C30.5832 16.8776 30.695 16.6005 30.9186 16.3769C31.1422 16.1533 31.4193 16.0415 31.7498 16.0415H35.2498C35.5804 16.0415 35.8575 16.1533 36.0811 16.3769C36.3047 16.6005 36.4165 16.8776 36.4165 17.2082C36.4165 17.5387 36.3047 17.8158 36.0811 18.0394C35.8575 18.263 35.5804 18.3748 35.2498 18.3748H34.6665V20.1248H38.1665C38.4971 20.1248 38.7741 20.2366 38.9978 20.4603C39.2214 20.6839 39.3332 20.9609 39.3332 21.2915C39.3332 21.6221 39.2214 21.8991 38.9978 22.1228C38.7741 22.3464 38.4971 22.4582 38.1665 22.4582V31.2082C38.1665 31.8498 37.938 32.3991 37.4811 32.8561C37.0241 33.313 36.4748 33.5415 35.8332 33.5415H34.6665V39.9582ZM31.1665 31.2082H35.8332V29.4582H33.7915C33.5582 29.4582 33.354 29.3707 33.179 29.1957C33.004 29.0207 32.9165 28.8165 32.9165 28.5832C32.9165 28.3498 33.004 28.1457 33.179 27.9707C33.354 27.7957 33.5582 27.7082 33.7915 27.7082H35.8332V25.9582H33.7915C33.5582 25.9582 33.354 25.8707 33.179 25.6957C33.004 25.5207 32.9165 25.3165 32.9165 25.0832C32.9165 24.8498 33.004 24.6457 33.179 24.4707C33.354 24.2957 33.5582 24.2082 33.7915 24.2082H35.8332V22.4582H31.1665V31.2082ZM42.8332 39.3748C42.1915 39.3748 41.6422 39.1464 41.1853 38.6894C40.7283 38.2325 40.4998 37.6832 40.4998 37.0415V29.4582C40.4998 28.8943 40.5971 28.4276 40.7915 28.0582C40.9859 27.6887 41.1901 27.3679 41.404 27.0957C41.6179 26.8234 41.8123 26.6047 41.9873 26.4394C42.1623 26.2741 42.2498 26.1137 42.2498 25.9582V25.3748C41.9193 25.3748 41.6422 25.263 41.4186 25.0394C41.195 24.8158 41.0832 24.5387 41.0832 24.2082C41.0832 23.8776 41.195 23.6005 41.4186 23.3769C41.6422 23.1533 41.9193 23.0415 42.2498 23.0415H48.0832C48.4137 23.0415 48.6908 23.1533 48.9144 23.3769C49.138 23.6005 49.2498 23.8776 49.2498 24.2082C49.2498 24.5387 49.138 24.8158 48.9144 25.0394C48.6908 25.263 48.4137 25.3748 48.0832 25.3748V25.9582C48.0832 26.1137 48.1804 26.2887 48.3748 26.4832C48.5693 26.6776 48.7832 26.9109 49.0165 27.1832C49.2304 27.4554 49.42 27.7762 49.5853 28.1457C49.7505 28.5151 49.8332 28.9526 49.8332 29.4582V37.0415C49.8332 37.6832 49.6047 38.2325 49.1478 38.6894C48.6908 39.1464 48.1415 39.3748 47.4998 39.3748H42.8332ZM42.8332 30.0415H47.4998V29.4582C47.4998 29.1665 47.4123 28.9137 47.2373 28.6998C47.0623 28.4859 46.8679 28.2526 46.654 27.9998C46.4401 27.7471 46.2359 27.4651 46.0415 27.154C45.8471 26.8429 45.7498 26.4443 45.7498 25.9582V25.3748H44.5832V25.9582C44.5832 26.4248 44.4908 26.8137 44.3061 27.1248C44.1214 27.4359 43.9221 27.7179 43.7082 27.9707C43.4943 28.2234 43.295 28.4616 43.1103 28.6853C42.9255 28.9089 42.8332 29.1665 42.8332 29.4582V30.0415ZM42.8332 33.5415H47.4998V31.7915H42.8332V33.5415ZM42.8332 37.0415H47.4998V35.2915H42.8332V37.0415ZM42.8332 33.5415H47.4998H42.8332Z" fill="#000000"/>
</g>
</svg>
