<svg preserveAspectRatio="none" width="100%" height="100%" overflow="visible" style="display: block;" viewBox="107.25 0.0 56 56" fill="none" xmlns="http://www.w3.org/2000/svg">
<g id="Container">
<path id="Icon" d="M129.417 36.75V34.4167H137.7C138.925 34.4167 139.989 34.0278 140.894 33.25C141.798 32.4722 142.25 31.5 142.25 30.3333C142.25 29.1667 141.798 28.1944 140.894 27.4167C139.989 26.6389 138.925 26.25 137.7 26.25H130.35L133.383 29.2833L131.75 30.9167L125.917 25.0833L131.75 19.25L133.383 20.8833L130.35 23.9167H137.7C139.586 23.9167 141.205 24.5292 142.556 25.7542C143.907 26.9792 144.583 28.5056 144.583 30.3333C144.583 32.1611 143.907 33.6875 142.556 34.9125C141.205 36.1375 139.586 36.75 137.7 36.75H129.417V36.75" fill="#000000"/>
</g>
</svg>
