<svg preserveAspectRatio="none" width="100%" height="100%" overflow="visible" style="display: block;" viewBox="10.75 0.0 56 56" fill="none" xmlns="http://www.w3.org/2000/svg">
<g id="Container">
<path id="Icon" d="M30.0002 27.4165C29.1835 27.4165 28.4932 27.1346 27.9293 26.5707C27.3654 26.0068 27.0835 25.3165 27.0835 24.4998C27.0835 23.6832 27.3654 22.9929 27.9293 22.429C28.4932 21.8651 29.1835 21.5832 30.0002 21.5832C30.8168 21.5832 31.5071 21.8651 32.071 22.429C32.6349 22.9929 32.9168 23.6832 32.9168 24.4998C32.9168 25.3165 32.6349 26.0068 32.071 26.5707C31.5071 27.1346 30.8168 27.4165 30.0002 27.4165V27.4165M35.2502 22.7498C34.4335 22.7498 33.7432 22.4679 33.1793 21.904C32.6154 21.3401 32.3335 20.6498 32.3335 19.8332C32.3335 19.0165 32.6154 18.3262 33.1793 17.7623C33.7432 17.1984 34.4335 16.9165 35.2502 16.9165C36.0668 16.9165 36.7571 17.1984 37.321 17.7623C37.8849 18.3262 38.1668 19.0165 38.1668 19.8332C38.1668 20.6498 37.8849 21.3401 37.321 21.904C36.7571 22.4679 36.0668 22.7498 35.2502 22.7498V22.7498M42.2502 22.7498C41.4335 22.7498 40.7432 22.4679 40.1793 21.904C39.6154 21.3401 39.3335 20.6498 39.3335 19.8332C39.3335 19.0165 39.6154 18.3262 40.1793 17.7623C40.7432 17.1984 41.4335 16.9165 42.2502 16.9165C43.0668 16.9165 43.7571 17.1984 44.321 17.7623C44.8849 18.3262 45.1668 19.0165 45.1668 19.8332C45.1668 20.6498 44.8849 21.3401 44.321 21.904C43.7571 22.4679 43.0668 22.7498 42.2502 22.7498V22.7498M47.5002 27.4165C46.6835 27.4165 45.9932 27.1346 45.4293 26.5707C44.8654 26.0068 44.5835 25.3165 44.5835 24.4998C44.5835 23.6832 44.8654 22.9929 45.4293 22.429C45.9932 21.8651 46.6835 21.5832 47.5002 21.5832C48.3168 21.5832 49.0071 21.8651 49.571 22.429C50.1349 22.9929 50.4168 23.6832 50.4168 24.4998C50.4168 25.3165 50.1349 26.0068 49.571 26.5707C49.0071 27.1346 48.3168 27.4165 47.5002 27.4165V27.4165M32.5085 39.0832C31.6335 39.0832 30.8995 38.7478 30.3064 38.0769C29.7134 37.4061 29.4168 36.6137 29.4168 35.6998C29.4168 34.6887 29.762 33.804 30.4522 33.0457C31.1425 32.2873 31.8279 31.5387 32.5085 30.7998C33.0724 30.1971 33.5585 29.5408 33.9668 28.8311C34.3752 28.1214 34.8613 27.4554 35.4252 26.8332C35.8529 26.3276 36.3488 25.9096 36.9127 25.579C37.4766 25.2484 38.0891 25.0832 38.7502 25.0832C39.4113 25.0832 40.0238 25.2387 40.5877 25.5498C41.1516 25.8609 41.6474 26.2693 42.0752 26.7748C42.6196 27.3971 43.1009 28.0679 43.5189 28.7873C43.937 29.5068 44.4279 30.1776 44.9918 30.7998C45.6724 31.5387 46.3578 32.2873 47.0481 33.0457C47.7384 33.804 48.0835 34.6887 48.0835 35.6998C48.0835 36.6137 47.787 37.4061 47.1939 38.0769C46.6009 38.7478 45.8668 39.0832 44.9918 39.0832C43.9418 39.0832 42.9016 38.9957 41.871 38.8207C40.8404 38.6457 39.8002 38.5582 38.7502 38.5582C37.7002 38.5582 36.6599 38.6457 35.6293 38.8207C34.5988 38.9957 33.5585 39.0832 32.5085 39.0832V39.0832" fill="#000000"/>
</g>
</svg>
