<svg preserveAspectRatio="none" width="100%" height="100%" overflow="visible" style="display: block;" viewBox="10.75 0.0 56 56" fill="none" xmlns="http://www.w3.org/2000/svg">
<g id="Container">
<path id="Icon" d="M31.7502 39.6667V21H34.0835V23.7125C35.1085 23.0542 36.1946 22.5521 37.3418 22.2063C38.489 21.8604 39.6724 21.6875 40.8918 21.6875C41.689 21.6875 42.4564 21.7778 43.1939 21.9583C43.9314 22.1389 44.6502 22.3861 45.3502 22.7V28.625C45.3502 29.1181 45.1701 29.5347 44.8097 29.875C44.4495 30.2153 44.0282 30.3854 43.5458 30.3854C43.0634 30.3854 42.6473 30.2153 42.2973 29.875C41.9473 29.5347 41.7723 29.1181 41.7723 28.625V24.9083C41.2304 24.7639 40.6884 24.6545 40.1464 24.5802C39.6043 24.5059 39.0622 24.4687 38.5202 24.4687C37.3952 24.4687 36.309 24.6361 35.2618 24.9708C34.2145 25.3056 33.2335 25.7833 32.3189 26.4042V39.6667H31.7502ZM44.5835 39.6667V32.6667H48.0835V39.6667H44.5835ZM46.3335 30.3333C45.7696 30.3333 45.2932 30.1389 44.9043 29.75C44.5154 29.3611 44.321 28.8847 44.321 28.3208C44.321 27.7569 44.5154 27.2806 44.9043 26.8917C45.2932 26.5028 45.7696 26.3083 46.3335 26.3083C46.8974 26.3083 47.3737 26.5028 47.7627 26.8917C48.1516 27.2806 48.346 27.7569 48.346 28.3208C48.346 28.8847 48.1516 29.3611 47.7627 29.75C47.3737 30.1389 46.8974 30.3333 46.3335 30.3333ZM37.5835 30.3333V28H41.0835V30.3333H37.5835Z" fill="#000000"/>
</g>
</svg>
