<svg preserveAspectRatio="none" width="100%" height="100%" overflow="visible" style="display: block;" viewBox="10.75 0.0 56 56" fill="none" xmlns="http://www.w3.org/2000/svg">
<g id="Container">
<path id="Icon" d="M31.7498 29.7498C31.7498 30.7609 31.954 31.7186 32.3623 32.6228C32.7707 33.5269 33.354 34.3193 34.1123 34.9998C34.0929 34.9026 34.0832 34.8151 34.0832 34.7373C34.0832 34.6596 34.0832 34.5721 34.0832 34.4748C34.0832 33.8526 34.1998 33.2693 34.4332 32.7248C34.6665 32.1804 35.0068 31.6846 35.454 31.2373L38.7498 27.9998L42.0457 31.2373C42.4929 31.6846 42.8332 32.1804 43.0665 32.7248C43.2998 33.2693 43.4165 33.8526 43.4165 34.4748C43.4165 34.5721 43.4165 34.6596 43.4165 34.7373C43.4165 34.8151 43.4068 34.9026 43.3873 34.9998C44.1457 34.3193 44.729 33.5269 45.1373 32.6228C45.5457 31.7186 45.7498 30.7609 45.7498 29.7498C45.7498 28.7776 45.57 27.8589 45.2103 26.9936C44.8505 26.1283 44.3304 25.3554 43.6498 24.6748V24.6748C43.2609 24.9276 42.8526 25.1172 42.4248 25.2436C41.9971 25.37 41.5596 25.4332 41.1123 25.4332C39.9068 25.4332 38.8616 25.0346 37.9769 24.2373C37.0922 23.4401 36.5818 22.4582 36.4457 21.2915V21.2915C35.6873 21.9332 35.0165 22.5991 34.4332 23.2894C33.8498 23.9797 33.3589 24.6797 32.9603 25.3894C32.5616 26.0991 32.2603 26.8234 32.0561 27.5623C31.8519 28.3012 31.7498 29.0304 31.7498 29.7498V29.7498M38.7498 31.2665L37.0873 32.8998C36.8734 33.1137 36.7082 33.3568 36.5915 33.629C36.4748 33.9012 36.4165 34.1832 36.4165 34.4748C36.4165 35.0971 36.645 35.6318 37.1019 36.079C37.5589 36.5262 38.1082 36.7498 38.7498 36.7498C39.3915 36.7498 39.9408 36.5262 40.3978 36.079C40.8547 35.6318 41.0832 35.0971 41.0832 34.4748C41.0832 34.1637 41.0248 33.8769 40.9082 33.6144C40.7915 33.3519 40.6262 33.1137 40.4123 32.8998L38.7498 31.2665V31.2665M38.7498 16.9165V20.7665C38.7498 21.4276 38.9783 21.9818 39.4353 22.429C39.8922 22.8762 40.4512 23.0998 41.1123 23.0998C41.4623 23.0998 41.788 23.0269 42.0894 22.8811C42.3908 22.7353 42.6582 22.5165 42.8915 22.2248L43.4165 21.5832C44.8554 22.3998 45.9929 23.5373 46.829 24.9957C47.6651 26.454 48.0832 28.0387 48.0832 29.7498C48.0832 32.3554 47.179 34.5623 45.3707 36.3707C43.5623 38.179 41.3554 39.0832 38.7498 39.0832C36.1443 39.0832 33.9373 38.179 32.129 36.3707C30.3207 34.5623 29.4165 32.3554 29.4165 29.7498C29.4165 27.2415 30.2575 24.8596 31.9394 22.604C33.6214 20.3484 35.8915 18.4526 38.7498 16.9165V16.9165" fill="#000000"/>
</g>
</svg>
