<svg preserveAspectRatio="none" width="100%" height="100%" overflow="visible" style="display: block;" viewBox="107.25 0.0 56 56" fill="none" xmlns="http://www.w3.org/2000/svg">
<g id="Container">
<path id="Icon" d="M133.617 33.3668L141.842 25.1418L140.208 23.5085L133.617 30.1002L130.292 26.7752L128.658 28.4085L133.617 33.3668ZM135.25 39.6668C133.636 39.6668 132.12 39.3606 130.7 38.7481C129.281 38.1356 128.046 37.3043 126.996 36.2543C125.946 35.2043 125.115 33.9696 124.502 32.5502C123.89 31.1307 123.583 29.6141 123.583 28.0002C123.583 26.3863 123.89 24.8696 124.502 23.4502C125.115 22.0307 125.946 20.796 126.996 19.746C128.046 18.696 129.281 17.8647 130.7 17.2522C132.12 16.6397 133.636 16.3335 135.25 16.3335C136.864 16.3335 138.381 16.6397 139.8 17.2522C141.22 17.8647 142.454 18.696 143.504 19.746C144.554 20.796 145.386 22.0307 145.998 23.4502C146.611 24.8696 146.917 26.3863 146.917 28.0002C146.917 29.6141 146.611 31.1307 145.998 32.5502C145.386 33.9696 144.554 35.2043 143.504 36.2543C142.454 37.3043 141.22 38.1356 139.8 38.7481C138.381 39.3606 136.864 39.6668 135.25 39.6668ZM135.25 37.3335C137.856 37.3335 140.063 36.4293 141.871 34.621C143.679 32.8127 144.583 30.6057 144.583 28.0002C144.583 25.3946 143.679 23.1877 141.871 21.3793C140.063 19.571 137.856 18.6668 135.25 18.6668C132.645 18.6668 130.438 19.571 128.629 21.3793C126.821 23.1877 125.917 25.3946 125.917 28.0002C125.917 30.6057 126.821 32.8127 128.629 34.621C130.438 36.4293 132.645 37.3335 135.25 37.3335Z" fill="#000000"/>
</g>
</svg>
