<svg preserveAspectRatio="none" width="100%" height="100%" overflow="visible" style="display: block;" viewBox="10.75 0.0 56 56" fill="none" xmlns="http://www.w3.org/2000/svg">
<g id="Container">
<path id="Icon" d="M30.3585 29.7502C30.5141 29.5557 30.6308 29.3175 30.7085 29.0356C30.7863 28.7536 30.8252 28.4085 30.8252 28.0002C30.8252 27.4168 30.6308 26.6779 30.2419 25.7835C29.853 24.8891 29.6585 24.2182 29.6585 23.771C29.6585 23.5377 29.6828 23.2946 29.7315 23.0418C29.7801 22.7891 29.9113 22.4974 30.1252 22.1668H31.8752C31.6613 22.4974 31.5301 22.7891 31.4815 23.0418C31.4328 23.2946 31.4085 23.5377 31.4085 23.771C31.4085 24.2182 31.603 24.8891 31.9919 25.7835C32.3808 26.6779 32.5752 27.4168 32.5752 28.0002C32.5752 28.4085 32.5363 28.7439 32.4585 29.0064C32.3808 29.2689 32.2641 29.5168 32.1085 29.7502H30.3585V29.7502M37.9419 29.7502C38.0974 29.5557 38.2141 29.3175 38.2919 29.0356C38.3696 28.7536 38.4085 28.4085 38.4085 28.0002C38.4085 27.4168 38.2141 26.6779 37.8252 25.7835C37.4363 24.8891 37.2419 24.2182 37.2419 23.771C37.2419 23.5377 37.2662 23.2946 37.3148 23.0418C37.3634 22.7891 37.4946 22.4974 37.7085 22.1668H39.4585C39.2446 22.4974 39.1134 22.7891 39.0648 23.0418C39.0162 23.2946 38.9919 23.5377 38.9919 23.771C38.9919 24.2182 39.1863 24.8891 39.5752 25.7835C39.9641 26.6779 40.1585 27.4168 40.1585 28.0002C40.1585 28.4085 40.1196 28.7439 40.0419 29.0064C39.9641 29.2689 39.8474 29.5168 39.6919 29.7502H37.9419V29.7502M34.1502 29.7502C34.3058 29.5557 34.4224 29.3175 34.5002 29.0356C34.578 28.7536 34.6169 28.4085 34.6169 28.0002C34.6169 27.4168 34.4224 26.6779 34.0335 25.7835C33.6446 24.8891 33.4502 24.2182 33.4502 23.771C33.4502 23.5377 33.4745 23.2946 33.5231 23.0418C33.5717 22.7891 33.703 22.4974 33.9169 22.1668H35.6669C35.453 22.4974 35.3217 22.7891 35.2731 23.0418C35.2245 23.2946 35.2002 23.5377 35.2002 23.771C35.2002 24.2182 35.3946 24.8891 35.7835 25.7835C36.1724 26.6779 36.3669 27.4168 36.3669 28.0002C36.3669 28.4085 36.328 28.7439 36.2502 29.0064C36.1724 29.2689 36.0558 29.5168 35.9002 29.7502H34.1502V29.7502M35.7835 39.6668C33.8196 39.6668 32.0891 39.0106 30.5919 37.6981C29.0946 36.3856 28.2002 34.7571 27.9085 32.8127C27.8502 32.4627 27.9426 32.1564 28.1856 31.8939C28.4287 31.6314 28.7252 31.5002 29.0752 31.5002H41.3544L42.6377 19.4252C42.7349 18.5502 43.1092 17.8161 43.7606 17.2231C44.412 16.63 45.1946 16.3335 46.1085 16.3335C47.0808 16.3335 47.9071 16.6738 48.5877 17.3543C49.2683 18.0349 49.6085 18.8613 49.6085 19.8335C49.6085 20.1057 49.5842 20.4654 49.5356 20.9127C49.487 21.3599 49.4627 21.5835 49.4627 21.5835L47.1585 21.2918C47.1585 21.2918 47.178 21.0925 47.2169 20.6939C47.2558 20.2953 47.2752 20.0085 47.2752 19.8335C47.2752 19.5029 47.1634 19.2259 46.9398 19.0022C46.7162 18.7786 46.4391 18.6668 46.1085 18.6668C45.7974 18.6668 45.5349 18.7689 45.321 18.9731C45.1071 19.1772 44.9808 19.4252 44.9419 19.7168L43.6002 32.4043C43.3863 34.4654 42.5405 36.1911 41.0627 37.5814C39.5849 38.9717 37.8252 39.6668 35.7835 39.6668V39.6668M35.7835 37.3335C36.9308 37.3335 37.9613 37.0127 38.8752 36.371C39.7891 35.7293 40.4502 34.8835 40.8585 33.8335H30.621C31.0683 34.8835 31.7537 35.7293 32.6773 36.371C33.6009 37.0127 34.6363 37.3335 35.7835 37.3335V37.3335M35.7835 33.8335V33.8335V33.8335V33.8335V33.8335V33.8335V33.8335" fill="#000000"/>
</g>
</svg>
