<svg width="78" height="80" viewBox="0 0 78 80" fill="none" xmlns="http://www.w3.org/2000/svg">
<rect x="10.75" width="56" height="56" rx="16" fill="#64748B" fill-opacity="0.1"/>
<path d="M38.75 40.25C38.5167 40.25 38.2979 40.1868 38.0938 40.0604C37.8896 39.934 37.7389 39.7347 37.6417 39.4625L31.75 21.6708L35.8333 22.6625L37.5833 21.3208V18.55C37.5833 17.7722 37.8653 17.1111 38.4292 16.5667C38.9931 16.0222 39.6833 15.75 40.5 15.75C41.3167 15.75 42.0069 16.0222 42.5708 16.5667C43.1347 17.1111 43.4167 17.7722 43.4167 18.55V19.25H41.0833V18.55C41.0833 18.3944 41.025 18.2632 40.9083 18.1562C40.7917 18.0493 40.6556 17.9958 40.5 17.9958C40.3444 17.9958 40.2083 18.0493 40.0917 18.1562C39.975 18.2632 39.9167 18.3944 39.9167 18.55V21.3208L41.6667 22.6625L45.75 21.6708L39.8583 39.4333C39.7611 39.7056 39.6104 39.9097 39.4062 40.0458C39.2021 40.1819 38.9833 40.25 38.75 40.25V40.25M39.9167 31.85L42.1917 24.9083L41.1417 25.1708L39.9167 24.2667V31.85V31.85M37.5833 31.85V24.2667L36.3583 25.2L35.2792 24.9083L37.5833 31.85V31.85" fill="#64748B"/>
<path d="M11.8521 77V68.36H12.9201V77H11.8521ZM19.3341 77V73.754C19.3341 73.448 19.3066 73.153 19.2516 72.869C19.1966 72.585 19.1021 72.3295 18.9681 72.1025C18.8341 71.8755 18.6541 71.696 18.4281 71.564C18.2021 71.432 17.9181 71.366 17.5761 71.366C17.3081 71.366 17.0646 71.4115 16.8456 71.5025C16.6266 71.5935 16.4391 71.7305 16.2831 71.9135C16.1271 72.0965 16.0066 72.327 15.9216 72.605C15.8366 72.883 15.7941 73.21 15.7941 73.586L15.0921 73.37C15.0921 72.744 15.2051 72.2055 15.4311 71.7545C15.6571 71.3035 15.9751 70.957 16.3851 70.715C16.7951 70.473 17.2781 70.352 17.8341 70.352C18.2521 70.352 18.6096 70.418 18.9066 70.55C19.2036 70.682 19.4501 70.8575 19.6461 71.0765C19.8421 71.2955 19.9961 71.5395 20.1081 71.8085C20.2201 72.0775 20.2991 72.3515 20.3451 72.6305C20.3911 72.9095 20.4141 73.172 20.4141 73.418V77H19.3341ZM14.7141 77V70.52H15.6741V72.254H15.7941V77H14.7141ZM24.4221 77.174C23.6481 77.174 23.0146 77.005 22.5216 76.667C22.0286 76.329 21.7261 75.856 21.6141 75.248L22.7061 75.074C22.7941 75.426 22.9961 75.705 23.3121 75.911C23.6281 76.117 24.0201 76.22 24.4881 76.22C24.9301 76.22 25.2776 76.1285 25.5306 75.9455C25.7836 75.7625 25.9101 75.512 25.9101 75.194C25.9101 75.012 25.8681 74.864 25.7841 74.75C25.7001 74.636 25.5271 74.529 25.2651 74.429C25.0031 74.329 24.6081 74.208 24.0801 74.066C23.5081 73.914 23.0576 73.7565 22.7286 73.5935C22.3996 73.4305 22.1656 73.241 22.0266 73.025C21.8876 72.809 21.8181 72.546 21.8181 72.236C21.8181 71.856 21.9221 71.5235 22.1301 71.2385C22.3381 70.9535 22.6286 70.7325 23.0016 70.5755C23.3746 70.4185 23.8101 70.34 24.3081 70.34C24.8001 70.34 25.2396 70.4185 25.6266 70.5755C26.0136 70.7325 26.3261 70.9535 26.5641 71.2385C26.8021 71.5235 26.9441 71.856 26.9901 72.236L25.8981 72.434C25.8461 72.088 25.6786 71.8145 25.3956 71.6135C25.1126 71.4125 24.7501 71.306 24.3081 71.294C23.8881 71.28 23.5471 71.355 23.2851 71.519C23.0231 71.683 22.8921 71.904 22.8921 72.182C22.8921 72.34 22.9406 72.4745 23.0376 72.5855C23.1346 72.6965 23.3166 72.802 23.5836 72.902C23.8506 73.002 24.2381 73.116 24.7461 73.244C25.3161 73.39 25.7661 73.5475 26.0961 73.7165C26.4261 73.8855 26.6616 74.0855 26.8026 74.3165C26.9436 74.5475 27.0141 74.83 27.0141 75.164C27.0141 75.79 26.7841 76.2815 26.3241 76.6385C25.8641 76.9955 25.2301 77.174 24.4221 77.174ZM30.8001 77.168C30.3821 77.168 30.0246 77.102 29.7276 76.97C29.4306 76.838 29.1841 76.6625 28.9881 76.4435C28.7921 76.2245 28.6381 75.9805 28.5261 75.7115C28.4141 75.4425 28.3351 75.1685 28.2891 74.8895C28.2431 74.6105 28.2201 74.348 28.2201 74.102V70.52H29.3001V73.766C29.3001 74.07 29.3276 74.3645 29.3826 74.6495C29.4376 74.9345 29.5321 75.1905 29.6661 75.4175C29.8001 75.6445 29.9801 75.824 30.2061 75.956C30.4321 76.088 30.7161 76.154 31.0581 76.154C31.3261 76.154 31.5696 76.1085 31.7886 76.0175C32.0076 75.9265 32.1951 75.7895 32.3511 75.6065C32.5071 75.4235 32.6276 75.1925 32.7126 74.9135C32.7976 74.6345 32.8401 74.308 32.8401 73.934L33.5421 74.15C33.5421 74.776 33.4291 75.3145 33.2031 75.7655C32.9771 76.2165 32.6591 76.563 32.2491 76.805C31.8391 77.047 31.3561 77.168 30.8001 77.168ZM32.9601 77V75.266H32.8401V70.52H33.9141V77H32.9601ZM35.5941 77V70.52H36.5481V72.086L36.3921 71.882C36.4681 71.682 36.5671 71.498 36.6891 71.33C36.8111 71.162 36.9481 71.024 37.1001 70.916C37.2661 70.782 37.4556 70.679 37.6686 70.607C37.8816 70.535 38.0981 70.492 38.3181 70.478C38.5381 70.464 38.7441 70.478 38.9361 70.52V71.522C38.7121 71.464 38.4656 71.449 38.1966 71.477C37.9276 71.505 37.6801 71.602 37.4541 71.768C37.2441 71.918 37.0826 72.0985 36.9696 72.3095C36.8566 72.5205 36.7781 72.749 36.7341 72.995C36.6901 73.241 36.6681 73.492 36.6681 73.748V77H35.5941ZM41.7081 77.18C41.2241 77.18 40.8186 77.0915 40.4916 76.9145C40.1646 76.7375 39.9186 76.5025 39.7536 76.2095C39.5886 75.9165 39.5061 75.596 39.5061 75.248C39.5061 74.908 39.5706 74.6135 39.6996 74.3645C39.8286 74.1155 40.0116 73.9075 40.2486 73.7405C40.4856 73.5735 40.7681 73.442 41.0961 73.346C41.4041 73.264 41.7486 73.1915 42.1296 73.1285C42.5106 73.0655 42.8971 73.0085 43.2891 72.9575C43.6811 72.9065 44.0481 72.856 44.3901 72.806L44.0061 73.028C44.0161 72.454 43.9006 72.0285 43.6596 71.7515C43.4186 71.4745 43.0021 71.336 42.4101 71.336C42.0181 71.336 41.6746 71.4255 41.3796 71.6045C41.0846 71.7835 40.8781 72.072 40.7601 72.47L39.7461 72.164C39.9001 71.596 40.2016 71.15 40.6506 70.826C41.0996 70.502 41.6901 70.34 42.4221 70.34C43.0081 70.34 43.5121 70.445 43.9341 70.655C44.3561 70.865 44.6601 71.182 44.8461 71.606C44.9381 71.806 44.9961 72.023 45.0201 72.257C45.0441 72.491 45.0561 72.736 45.0561 72.992V77H44.1081V75.446L44.3301 75.59C44.0861 76.116 43.7446 76.5125 43.3056 76.7795C42.8666 77.0465 42.3341 77.18 41.7081 77.18ZM41.8701 76.286C42.2541 76.286 42.5871 76.2175 42.8691 76.0805C43.1511 75.9435 43.3781 75.7615 43.5501 75.5345C43.7221 75.3075 43.8341 75.06 43.8861 74.792C43.9441 74.592 43.9766 74.3695 43.9836 74.1245C43.9906 73.8795 43.9941 73.69 43.9941 73.556L44.3661 73.718C44.0181 73.768 43.6756 73.815 43.3386 73.859C43.0016 73.903 42.6831 73.9495 42.3831 73.9985C42.0831 74.0475 41.8141 74.106 41.5761 74.174C41.3981 74.23 41.2326 74.3025 41.0796 74.3915C40.9266 74.4805 40.8031 74.594 40.7091 74.732C40.6151 74.87 40.5681 75.04 40.5681 75.242C40.5681 75.42 40.6126 75.5885 40.7016 75.7475C40.7906 75.9065 40.9306 76.036 41.1216 76.136C41.3126 76.236 41.5621 76.286 41.8701 76.286ZM51.2301 77V73.754C51.2301 73.448 51.2026 73.153 51.1476 72.869C51.0926 72.585 50.9981 72.3295 50.8641 72.1025C50.7301 71.8755 50.5501 71.696 50.3241 71.564C50.0981 71.432 49.8141 71.366 49.4721 71.366C49.2041 71.366 48.9606 71.4115 48.7416 71.5025C48.5226 71.5935 48.3351 71.7305 48.1791 71.9135C48.0231 72.0965 47.9026 72.327 47.8176 72.605C47.7326 72.883 47.6901 73.21 47.6901 73.586L46.9881 73.37C46.9881 72.744 47.1011 72.2055 47.3271 71.7545C47.5531 71.3035 47.8711 70.957 48.2811 70.715C48.6911 70.473 49.1741 70.352 49.7301 70.352C50.1481 70.352 50.5056 70.418 50.8026 70.55C51.0996 70.682 51.3461 70.8575 51.5421 71.0765C51.7381 71.2955 51.8921 71.5395 52.0041 71.8085C52.1161 72.0775 52.1951 72.3515 52.2411 72.6305C52.2871 72.9095 52.3101 73.172 52.3101 73.418V77H51.2301ZM46.6101 77V70.52H47.5701V72.254H47.6901V77H46.6101ZM56.5401 77.18C55.8821 77.18 55.3241 77.033 54.8661 76.739C54.4081 76.445 54.0591 76.0405 53.8191 75.5255C53.5791 75.0105 53.4561 74.422 53.4501 73.76C53.4561 73.086 53.5821 72.492 53.8281 71.978C54.0741 71.464 54.4271 71.0625 54.8871 70.7735C55.3471 70.4845 55.9021 70.34 56.5521 70.34C57.2341 70.34 57.8221 70.508 58.3161 70.844C58.8101 71.18 59.1421 71.64 59.3121 72.224L58.2561 72.542C58.1181 72.166 57.8961 71.874 57.5901 71.666C57.2841 71.458 56.9341 71.354 56.5401 71.354C56.0961 71.354 55.7301 71.457 55.4421 71.663C55.1541 71.869 54.9401 72.153 54.8001 72.515C54.6601 72.877 54.5881 73.292 54.5841 73.76C54.5901 74.482 54.7566 75.0635 55.0836 75.5045C55.4106 75.9455 55.8961 76.166 56.5401 76.166C56.9621 76.166 57.3131 76.069 57.5931 75.875C57.8731 75.681 58.0861 75.4 58.2321 75.032L59.3121 75.314C59.0861 75.918 58.7351 76.38 58.2591 76.7C57.7831 77.02 57.2101 77.18 56.5401 77.18ZM63.1701 77.18C62.5321 77.18 61.9761 77.0395 61.5021 76.7585C61.0281 76.4775 60.6596 76.0835 60.3966 75.5765C60.1336 75.0695 60.0021 74.478 60.0021 73.802C60.0021 73.094 60.1316 72.481 60.3906 71.963C60.6496 71.445 61.0126 71.045 61.4796 70.763C61.9466 70.481 62.4941 70.34 63.1221 70.34C63.7721 70.34 64.3261 70.49 64.7841 70.79C65.2421 71.09 65.5866 71.518 65.8176 72.074C66.0486 72.63 66.1471 73.292 66.1131 74.06H65.0361V73.676C65.0241 72.88 64.8621 72.285 64.5501 71.891C64.2381 71.497 63.7741 71.3 63.1581 71.3C62.4961 71.3 61.9936 71.512 61.6506 71.936C61.3076 72.36 61.1361 72.968 61.1361 73.76C61.1361 74.524 61.3076 75.116 61.6506 75.536C61.9936 75.956 62.4841 76.166 63.1221 76.166C63.5501 76.166 63.9221 76.068 64.2381 75.872C64.5541 75.676 64.8021 75.394 64.9821 75.026L66.0081 75.38C65.7541 75.952 65.3746 76.395 64.8696 76.709C64.3646 77.023 63.7981 77.18 63.1701 77.18ZM60.7761 74.06V73.202H65.5641V74.06H60.7761Z" fill="#475569"/>
</svg>
