<svg width="78" height="80" viewBox="0 0 78 80" fill="none" xmlns="http://www.w3.org/2000/svg">
<rect x="10.75" width="56" height="56" rx="16" fill="#13A4EC" fill-opacity="0.1"/>
<path d="M31.7498 39.6668C31.1082 39.6668 30.5589 39.4384 30.1019 38.9814C29.645 38.5245 29.4165 37.9752 29.4165 37.3335V23.3335C29.4165 22.6918 29.645 22.1425 30.1019 21.6856C30.5589 21.2286 31.1082 21.0002 31.7498 21.0002H34.0832V21.0002C34.0832 19.7168 34.5401 18.6182 35.454 17.7043C36.3679 16.7904 37.4665 16.3335 38.7498 16.3335C40.0332 16.3335 41.1318 16.7904 42.0457 17.7043C42.9596 18.6182 43.4165 19.7168 43.4165 21.0002V21.0002H45.7498C46.3915 21.0002 46.9408 21.2286 47.3978 21.6856C47.8547 22.1425 48.0832 22.6918 48.0832 23.3335V37.3335C48.0832 37.9752 47.8547 38.5245 47.3978 38.9814C46.9408 39.4384 46.3915 39.6668 45.7498 39.6668H31.7498V39.6668M31.7498 37.3335H45.7498V37.3335V37.3335V23.3335V23.3335V23.3335H43.4165V25.6668C43.4165 25.9974 43.3047 26.2745 43.0811 26.4981C42.8575 26.7217 42.5804 26.8335 42.2498 26.8335C41.9193 26.8335 41.6422 26.7217 41.4186 26.4981C41.195 26.2745 41.0832 25.9974 41.0832 25.6668V23.3335H36.4165V25.6668C36.4165 25.9974 36.3047 26.2745 36.0811 26.4981C35.8575 26.7217 35.5804 26.8335 35.2498 26.8335C34.9193 26.8335 34.6422 26.7217 34.4186 26.4981C34.195 26.2745 34.0832 25.9974 34.0832 25.6668V23.3335H31.7498V23.3335V23.3335V37.3335V37.3335V37.3335V37.3335M36.4165 21.0002H41.0832V21.0002C41.0832 20.3585 40.8547 19.8092 40.3978 19.3522C39.9408 18.8953 39.3915 18.6668 38.7498 18.6668C38.1082 18.6668 37.5589 18.8953 37.1019 19.3522C36.645 19.8092 36.4165 20.3585 36.4165 21.0002V21.0002V21.0002M31.7498 37.3335V37.3335V37.3335V37.3335V23.3335V23.3335V23.3335V23.3335V23.3335V23.3335V37.3335V37.3335V37.3335V37.3335" fill="#13A4EC"/>
<path d="M19.0188 77V69.374H16.0728V68.36H23.0328V69.374H20.0868V77H19.0188ZM24.9948 77.18C24.5108 77.18 24.1053 77.0915 23.7783 76.9145C23.4513 76.7375 23.2053 76.5025 23.0403 76.2095C22.8753 75.9165 22.7928 75.596 22.7928 75.248C22.7928 74.908 22.8573 74.6135 22.9863 74.3645C23.1153 74.1155 23.2983 73.9075 23.5353 73.7405C23.7723 73.5735 24.0548 73.442 24.3828 73.346C24.6908 73.264 25.0353 73.1915 25.4163 73.1285C25.7973 73.0655 26.1838 73.0085 26.5758 72.9575C26.9678 72.9065 27.3348 72.856 27.6768 72.806L27.2928 73.028C27.3028 72.454 27.1873 72.0285 26.9463 71.7515C26.7053 71.4745 26.2888 71.336 25.6968 71.336C25.3048 71.336 24.9613 71.4255 24.6663 71.6045C24.3713 71.7835 24.1648 72.072 24.0468 72.47L23.0328 72.164C23.1868 71.596 23.4883 71.15 23.9373 70.826C24.3863 70.502 24.9768 70.34 25.7088 70.34C26.2948 70.34 26.7988 70.445 27.2208 70.655C27.6428 70.865 27.9468 71.182 28.1328 71.606C28.2248 71.806 28.2828 72.023 28.3068 72.257C28.3308 72.491 28.3428 72.736 28.3428 72.992V77H27.3948V75.446L27.6168 75.59C27.3728 76.116 27.0313 76.5125 26.5923 76.7795C26.1533 77.0465 25.6208 77.18 24.9948 77.18ZM25.1568 76.286C25.5408 76.286 25.8738 76.2175 26.1558 76.0805C26.4378 75.9435 26.6648 75.7615 26.8368 75.5345C27.0088 75.3075 27.1208 75.06 27.1728 74.792C27.2308 74.592 27.2633 74.3695 27.2703 74.1245C27.2773 73.8795 27.2808 73.69 27.2808 73.556L27.6528 73.718C27.3048 73.768 26.9623 73.815 26.6253 73.859C26.2883 73.903 25.9698 73.9495 25.6698 73.9985C25.3698 74.0475 25.1008 74.106 24.8628 74.174C24.6848 74.23 24.5193 74.3025 24.3663 74.3915C24.2133 74.4805 24.0898 74.594 23.9958 74.732C23.9018 74.87 23.8548 75.04 23.8548 75.242C23.8548 75.42 23.8993 75.5885 23.9883 75.7475C24.0773 75.9065 24.2173 76.036 24.4083 76.136C24.5993 76.236 24.8488 76.286 25.1568 76.286ZM29.8968 77L29.9028 68.36H30.9828V73.64L33.7008 70.52H35.0868L32.2248 73.76L35.4228 77H33.9288L30.9828 73.88V77H29.8968ZM38.7108 77.18C38.0728 77.18 37.5168 77.0395 37.0428 76.7585C36.5688 76.4775 36.2003 76.0835 35.9373 75.5765C35.6743 75.0695 35.5428 74.478 35.5428 73.802C35.5428 73.094 35.6723 72.481 35.9313 71.963C36.1903 71.445 36.5533 71.045 37.0203 70.763C37.4873 70.481 38.0348 70.34 38.6628 70.34C39.3128 70.34 39.8668 70.49 40.3248 70.79C40.7828 71.09 41.1273 71.518 41.3583 72.074C41.5893 72.63 41.6878 73.292 41.6538 74.06H40.5768V73.676C40.5648 72.88 40.4028 72.285 40.0908 71.891C39.7788 71.497 39.3148 71.3 38.6988 71.3C38.0368 71.3 37.5343 71.512 37.1913 71.936C36.8483 72.36 36.6768 72.968 36.6768 73.76C36.6768 74.524 36.8483 75.116 37.1913 75.536C37.5343 75.956 38.0248 76.166 38.6628 76.166C39.0908 76.166 39.4628 76.068 39.7788 75.872C40.0948 75.676 40.3428 75.394 40.5228 75.026L41.5488 75.38C41.2948 75.952 40.9153 76.395 40.4103 76.709C39.9053 77.023 39.3388 77.18 38.7108 77.18ZM36.3168 74.06V73.202H41.1048V74.06H36.3168ZM45.7488 77.18C45.1028 77.18 44.5468 77.034 44.0808 76.742C43.6148 76.45 43.2563 76.0465 43.0053 75.5315C42.7543 75.0165 42.6288 74.424 42.6288 73.754C42.6288 73.076 42.7568 72.4805 43.0128 71.9675C43.2688 71.4545 43.6303 71.055 44.0973 70.769C44.5643 70.483 45.1148 70.34 45.7488 70.34C46.3968 70.34 46.9543 70.4855 47.4213 70.7765C47.8883 71.0675 48.2473 71.4695 48.4983 71.9825C48.7493 72.4955 48.8748 73.086 48.8748 73.754C48.8748 74.432 48.7483 75.028 48.4953 75.542C48.2423 76.056 47.8818 76.4575 47.4138 76.7465C46.9458 77.0355 46.3908 77.18 45.7488 77.18ZM45.7488 76.166C46.4188 76.166 46.9183 75.942 47.2473 75.494C47.5763 75.046 47.7408 74.466 47.7408 73.754C47.7408 73.024 47.5748 72.4415 47.2428 72.0065C46.9108 71.5715 46.4128 71.354 45.7488 71.354C45.2968 71.354 44.9243 71.456 44.6313 71.66C44.3383 71.864 44.1203 72.146 43.9773 72.506C43.8343 72.866 43.7628 73.282 43.7628 73.754C43.7628 74.484 43.9308 75.0685 44.2668 75.5075C44.6028 75.9465 45.0968 76.166 45.7488 76.166ZM52.6548 77.168C52.2368 77.168 51.8793 77.102 51.5823 76.97C51.2853 76.838 51.0388 76.6625 50.8428 76.4435C50.6468 76.2245 50.4928 75.9805 50.3808 75.7115C50.2688 75.4425 50.1898 75.1685 50.1438 74.8895C50.0978 74.6105 50.0748 74.348 50.0748 74.102V70.52H51.1548V73.766C51.1548 74.07 51.1823 74.3645 51.2373 74.6495C51.2923 74.9345 51.3868 75.1905 51.5208 75.4175C51.6548 75.6445 51.8348 75.824 52.0608 75.956C52.2868 76.088 52.5708 76.154 52.9128 76.154C53.1808 76.154 53.4243 76.1085 53.6433 76.0175C53.8623 75.9265 54.0498 75.7895 54.2058 75.6065C54.3618 75.4235 54.4823 75.1925 54.5673 74.9135C54.6523 74.6345 54.6948 74.308 54.6948 73.934L55.3968 74.15C55.3968 74.776 55.2838 75.3145 55.0578 75.7655C54.8318 76.2165 54.5138 76.563 54.1038 76.805C53.6938 77.047 53.2108 77.168 52.6548 77.168ZM54.8148 77V75.266H54.6948V70.52H55.7688V77H54.8148ZM61.0668 77C60.6808 77.078 60.3013 77.11 59.9283 77.096C59.5553 77.082 59.2223 77.006 58.9293 76.868C58.6363 76.73 58.4148 76.514 58.2648 76.22C58.1368 75.966 58.0678 75.708 58.0578 75.446C58.0478 75.184 58.0428 74.886 58.0428 74.552V68.72H59.1108V74.504C59.1108 74.77 59.1138 74.9965 59.1198 75.1835C59.1258 75.3705 59.1668 75.532 59.2428 75.668C59.3868 75.926 59.6158 76.0765 59.9298 76.1195C60.2438 76.1625 60.6228 76.15 61.0668 76.082V77ZM56.7288 71.402V70.52H61.0668V71.402H56.7288Z" fill="#475569"/>
</svg>
