<svg width="78" height="80" viewBox="0 0 78 80" fill="none" xmlns="http://www.w3.org/2000/svg">
<rect x="10.75" width="56" height="56" rx="16" fill="#EC4899" fill-opacity="0.1"/>
<path d="M38.7502 30.9165C37.7779 30.9165 36.9516 30.5762 36.271 29.8957C35.5904 29.2151 35.2502 28.3887 35.2502 27.4165V20.4165C35.2502 19.4443 35.5904 18.6179 36.271 17.9373C36.9516 17.2568 37.7779 16.9165 38.7502 16.9165C39.7224 16.9165 40.5488 17.2568 41.2293 17.9373C41.9099 18.6179 42.2502 19.4443 42.2502 20.4165V27.4165C42.2502 28.3887 41.9099 29.2151 41.2293 29.8957C40.5488 30.5762 39.7224 30.9165 38.7502 30.9165ZM37.5835 39.0832V35.4957C35.5613 35.2234 33.8891 34.3193 32.5668 32.7832C31.2446 31.2471 30.5835 29.4582 30.5835 27.4165H32.9168C32.9168 29.0304 33.4856 30.4061 34.6231 31.5436C35.7606 32.6811 37.1363 33.2498 38.7502 33.2498C40.3641 33.2498 41.7397 32.6811 42.8772 31.5436C44.0147 30.4061 44.5835 29.0304 44.5835 27.4165H46.9168C46.9168 29.4582 46.2557 31.2471 44.9335 32.7832C43.6113 34.3193 41.9391 35.2234 39.9168 35.4957V39.0832H37.5835ZM38.7502 28.5832C39.0807 28.5832 39.3578 28.4714 39.5814 28.2478C39.805 28.0241 39.9168 27.7471 39.9168 27.4165V20.4165C39.9168 20.0859 39.805 19.8089 39.5814 19.5853C39.3578 19.3616 39.0807 19.2498 38.7502 19.2498C38.4196 19.2498 38.1425 19.3616 37.9189 19.5853C37.6953 19.8089 37.5835 20.0859 37.5835 20.4165V27.4165C37.5835 27.7471 37.6953 28.0241 37.9189 28.2478C38.1425 28.4714 38.4196 28.5832 38.7502 28.5832Z" fill="#EC4899"/>
<path d="M28.6248 77V68.36H29.6928V72.416L33.4728 68.36H34.8168L30.8928 72.554L35.1228 77H33.7428L29.6928 72.776V77H28.6248ZM38.1888 77V69.374H35.2428V68.36H42.2028V69.374H39.2568V77H38.1888ZM45.2748 77L42.3828 68.36H43.4928L46.0068 75.866L48.5448 68.36H49.6548L46.7628 77H45.2748Z" fill="#475569"/>
</svg>
