<svg width="78" height="80" viewBox="0 0 78 80" fill="none" xmlns="http://www.w3.org/2000/svg">
<rect x="10.75" width="56" height="56" rx="16" fill="#64748B" fill-opacity="0.1"/>
<path d="M50.4168 20.9998V34.9998C50.4168 35.6415 50.1884 36.1908 49.7314 36.6478C49.2745 37.1047 48.7252 37.3332 48.0835 37.3332H29.4168C28.7752 37.3332 28.2259 37.1047 27.7689 36.6478C27.312 36.1908 27.0835 35.6415 27.0835 34.9998V20.9998C27.0835 20.3582 27.312 19.8089 27.7689 19.3519C28.2259 18.895 28.7752 18.6665 29.4168 18.6665H48.0835C48.7252 18.6665 49.2745 18.895 49.7314 19.3519C50.1884 19.8089 50.4168 20.3582 50.4168 20.9998V20.9998M29.4168 23.3332H48.0835V20.9998V20.9998V20.9998H29.4168V20.9998V20.9998V23.3332V23.3332M29.4168 27.9998V34.9998V34.9998V34.9998H48.0835V34.9998V34.9998V27.9998H29.4168V27.9998M29.4168 34.9998V34.9998V34.9998V34.9998V20.9998V20.9998V20.9998V20.9998V20.9998V20.9998V34.9998V34.9998V34.9998V34.9998" fill="#64748B"/>
<path d="M7.56221 77V68.36H10.9762C11.0602 68.36 11.1597 68.363 11.2747 68.369C11.3897 68.375 11.5022 68.388 11.6122 68.408C12.0782 68.48 12.4702 68.6405 12.7882 68.8895C13.1062 69.1385 13.3457 69.452 13.5067 69.83C13.6677 70.208 13.7482 70.626 13.7482 71.084C13.7482 71.754 13.5742 72.3335 13.2262 72.8225C12.8782 73.3115 12.3682 73.618 11.6962 73.742L11.2882 73.808H8.63021V77H7.56221ZM12.7042 77L11.0002 73.484L12.0562 73.16L13.9282 77H12.7042ZM8.63021 72.794H10.9402C11.0162 72.794 11.1027 72.79 11.1997 72.782C11.2967 72.774 11.3902 72.76 11.4802 72.74C11.7562 72.678 11.9807 72.5615 12.1537 72.3905C12.3267 72.2195 12.4537 72.019 12.5347 71.789C12.6157 71.559 12.6562 71.324 12.6562 71.084C12.6562 70.844 12.6157 70.609 12.5347 70.379C12.4537 70.149 12.3267 69.9485 12.1537 69.7775C11.9807 69.6065 11.7562 69.49 11.4802 69.428C11.3902 69.406 11.2967 69.3915 11.1997 69.3845C11.1027 69.3775 11.0162 69.374 10.9402 69.374H8.63021V72.794ZM18.0562 77.18C17.4182 77.18 16.8622 77.0395 16.3882 76.7585C15.9142 76.4775 15.5457 76.0835 15.2827 75.5765C15.0197 75.0695 14.8882 74.478 14.8882 73.802C14.8882 73.094 15.0177 72.481 15.2767 71.963C15.5357 71.445 15.8987 71.045 16.3657 70.763C16.8327 70.481 17.3802 70.34 18.0082 70.34C18.6582 70.34 19.2122 70.49 19.6702 70.79C20.1282 71.09 20.4727 71.518 20.7037 72.074C20.9347 72.63 21.0332 73.292 20.9992 74.06H19.9222V73.676C19.9102 72.88 19.7482 72.285 19.4362 71.891C19.1242 71.497 18.6602 71.3 18.0442 71.3C17.3822 71.3 16.8797 71.512 16.5367 71.936C16.1937 72.36 16.0222 72.968 16.0222 73.76C16.0222 74.524 16.1937 75.116 16.5367 75.536C16.8797 75.956 17.3702 76.166 18.0082 76.166C18.4362 76.166 18.8082 76.068 19.1242 75.872C19.4402 75.676 19.6882 75.394 19.8682 75.026L20.8942 75.38C20.6402 75.952 20.2607 76.395 19.7557 76.709C19.2507 77.023 18.6842 77.18 18.0562 77.18ZM15.6622 74.06V73.202H20.4502V74.06H15.6622ZM25.1302 77.18C24.5222 77.18 24.0102 77.029 23.5942 76.727C23.1782 76.425 22.8632 76.0155 22.6492 75.4985C22.4352 74.9815 22.3282 74.4 22.3282 73.754C22.3282 73.102 22.4352 72.5185 22.6492 72.0035C22.8632 71.4885 23.1787 71.0825 23.5957 70.7855C24.0127 70.4885 24.5262 70.34 25.1362 70.34C25.7362 70.34 26.2527 70.4895 26.6857 70.7885C27.1187 71.0875 27.4517 71.4945 27.6847 72.0095C27.9177 72.5245 28.0342 73.106 28.0342 73.754C28.0342 74.402 27.9177 74.9845 27.6847 75.5015C27.4517 76.0185 27.1187 76.4275 26.6857 76.7285C26.2527 77.0295 25.7342 77.18 25.1302 77.18ZM22.1482 79.88V70.52H23.1022V75.29H23.2222V79.88H22.1482ZM24.9982 76.202C25.4242 76.202 25.7777 76.094 26.0587 75.878C26.3397 75.662 26.5502 75.369 26.6902 74.999C26.8302 74.629 26.9002 74.214 26.9002 73.754C26.9002 73.298 26.8307 72.886 26.6917 72.518C26.5527 72.15 26.3407 71.858 26.0557 71.642C25.7707 71.426 25.4082 71.318 24.9682 71.318C24.5462 71.318 24.1972 71.421 23.9212 71.627C23.6452 71.833 23.4397 72.1195 23.3047 72.4865C23.1697 72.8535 23.1022 73.276 23.1022 73.754C23.1022 74.228 23.1692 74.6495 23.3032 75.0185C23.4372 75.3875 23.6442 75.677 23.9242 75.887C24.2042 76.097 24.5622 76.202 24.9982 76.202ZM31.1962 77.18C30.7122 77.18 30.3067 77.0915 29.9797 76.9145C29.6527 76.7375 29.4067 76.5025 29.2417 76.2095C29.0767 75.9165 28.9942 75.596 28.9942 75.248C28.9942 74.908 29.0587 74.6135 29.1877 74.3645C29.3167 74.1155 29.4997 73.9075 29.7367 73.7405C29.9737 73.5735 30.2562 73.442 30.5842 73.346C30.8922 73.264 31.2367 73.1915 31.6177 73.1285C31.9987 73.0655 32.3852 73.0085 32.7772 72.9575C33.1692 72.9065 33.5362 72.856 33.8782 72.806L33.4942 73.028C33.5042 72.454 33.3887 72.0285 33.1477 71.7515C32.9067 71.4745 32.4902 71.336 31.8982 71.336C31.5062 71.336 31.1627 71.4255 30.8677 71.6045C30.5727 71.7835 30.3662 72.072 30.2482 72.47L29.2342 72.164C29.3882 71.596 29.6897 71.15 30.1387 70.826C30.5877 70.502 31.1782 70.34 31.9102 70.34C32.4962 70.34 33.0002 70.445 33.4222 70.655C33.8442 70.865 34.1482 71.182 34.3342 71.606C34.4262 71.806 34.4842 72.023 34.5082 72.257C34.5322 72.491 34.5442 72.736 34.5442 72.992V77H33.5962V75.446L33.8182 75.59C33.5742 76.116 33.2327 76.5125 32.7937 76.7795C32.3547 77.0465 31.8222 77.18 31.1962 77.18ZM31.3582 76.286C31.7422 76.286 32.0752 76.2175 32.3572 76.0805C32.6392 75.9435 32.8662 75.7615 33.0382 75.5345C33.2102 75.3075 33.3222 75.06 33.3742 74.792C33.4322 74.592 33.4647 74.3695 33.4717 74.1245C33.4787 73.8795 33.4822 73.69 33.4822 73.556L33.8542 73.718C33.5062 73.768 33.1637 73.815 32.8267 73.859C32.4897 73.903 32.1712 73.9495 31.8712 73.9985C31.5712 74.0475 31.3022 74.106 31.0642 74.174C30.8862 74.23 30.7207 74.3025 30.5677 74.3915C30.4147 74.4805 30.2912 74.594 30.1972 74.732C30.1032 74.87 30.0562 75.04 30.0562 75.242C30.0562 75.42 30.1007 75.5885 30.1897 75.7475C30.2787 75.9065 30.4187 76.036 30.6097 76.136C30.8007 76.236 31.0502 76.286 31.3582 76.286ZM36.6442 79.88L37.8982 76.472L37.9162 77.48L35.0842 70.52H36.2062L38.4262 76.118H38.0422L40.1242 70.52H41.2102L37.6822 79.88H36.6442ZM49.9462 77L49.9522 72.854C49.9522 72.37 49.8227 71.991 49.5637 71.717C49.3047 71.443 48.9702 71.306 48.5602 71.306C48.3182 71.306 48.0897 71.3615 47.8747 71.4725C47.6597 71.5835 47.4842 71.7555 47.3482 71.9885C47.2122 72.2215 47.1442 72.52 47.1442 72.884L46.5802 72.656C46.5702 72.196 46.6642 71.793 46.8622 71.447C47.0602 71.101 47.3317 70.832 47.6767 70.64C48.0217 70.448 48.4102 70.352 48.8422 70.352C49.5182 70.352 50.0502 70.5575 50.4382 70.9685C50.8262 71.3795 51.0202 71.93 51.0202 72.62L51.0142 77H49.9462ZM42.1942 77V70.52H43.1482V72.254H43.2682V77H42.1942ZM46.0762 77L46.0822 72.896C46.0822 72.402 45.9542 72.0135 45.6982 71.7305C45.4422 71.4475 45.1022 71.306 44.6782 71.306C44.2562 71.306 43.9157 71.4505 43.6567 71.7395C43.3977 72.0285 43.2682 72.41 43.2682 72.884L42.7042 72.548C42.7042 72.128 42.8042 71.7525 43.0042 71.4215C43.2042 71.0905 43.4762 70.8295 43.8202 70.6385C44.1642 70.4475 44.5542 70.352 44.9902 70.352C45.4262 70.352 45.8057 70.4445 46.1287 70.6295C46.4517 70.8145 46.7017 71.078 46.8787 71.42C47.0557 71.762 47.1442 72.168 47.1442 72.638L47.1382 77H46.0762ZM55.3282 77.18C54.6902 77.18 54.1342 77.0395 53.6602 76.7585C53.1862 76.4775 52.8177 76.0835 52.5547 75.5765C52.2917 75.0695 52.1602 74.478 52.1602 73.802C52.1602 73.094 52.2897 72.481 52.5487 71.963C52.8077 71.445 53.1707 71.045 53.6377 70.763C54.1047 70.481 54.6522 70.34 55.2802 70.34C55.9302 70.34 56.4842 70.49 56.9422 70.79C57.4002 71.09 57.7447 71.518 57.9757 72.074C58.2067 72.63 58.3052 73.292 58.2712 74.06H57.1942V73.676C57.1822 72.88 57.0202 72.285 56.7082 71.891C56.3962 71.497 55.9322 71.3 55.3162 71.3C54.6542 71.3 54.1517 71.512 53.8087 71.936C53.4657 72.36 53.2942 72.968 53.2942 73.76C53.2942 74.524 53.4657 75.116 53.8087 75.536C54.1517 75.956 54.6422 76.166 55.2802 76.166C55.7082 76.166 56.0802 76.068 56.3962 75.872C56.7122 75.676 56.9602 75.394 57.1402 75.026L58.1662 75.38C57.9122 75.952 57.5327 76.395 57.0277 76.709C56.5227 77.023 55.9562 77.18 55.3282 77.18ZM52.9342 74.06V73.202H57.7222V74.06H52.9342ZM64.0402 77V73.754C64.0402 73.448 64.0127 73.153 63.9577 72.869C63.9027 72.585 63.8082 72.3295 63.6742 72.1025C63.5402 71.8755 63.3602 71.696 63.1342 71.564C62.9082 71.432 62.6242 71.366 62.2822 71.366C62.0142 71.366 61.7707 71.4115 61.5517 71.5025C61.3327 71.5935 61.1452 71.7305 60.9892 71.9135C60.8332 72.0965 60.7127 72.327 60.6277 72.605C60.5427 72.883 60.5002 73.21 60.5002 73.586L59.7982 73.37C59.7982 72.744 59.9112 72.2055 60.1372 71.7545C60.3632 71.3035 60.6812 70.957 61.0912 70.715C61.5012 70.473 61.9842 70.352 62.5402 70.352C62.9582 70.352 63.3157 70.418 63.6127 70.55C63.9097 70.682 64.1562 70.8575 64.3522 71.0765C64.5482 71.2955 64.7022 71.5395 64.8142 71.8085C64.9262 72.0775 65.0052 72.3515 65.0512 72.6305C65.0972 72.9095 65.1202 73.172 65.1202 73.418V77H64.0402ZM59.4202 77V70.52H60.3802V72.254H60.5002V77H59.4202ZM70.2982 77C69.9122 77.078 69.5327 77.11 69.1597 77.096C68.7867 77.082 68.4537 77.006 68.1607 76.868C67.8677 76.73 67.6462 76.514 67.4962 76.22C67.3682 75.966 67.2992 75.708 67.2892 75.446C67.2792 75.184 67.2742 74.886 67.2742 74.552V68.72H68.3422V74.504C68.3422 74.77 68.3452 74.9965 68.3512 75.1835C68.3572 75.3705 68.3982 75.532 68.4742 75.668C68.6182 75.926 68.8472 76.0765 69.1612 76.1195C69.4752 76.1625 69.8542 76.15 70.2982 76.082V77ZM65.9602 71.402V70.52H70.2982V71.402H65.9602Z" fill="#475569"/>
</svg>
