<svg width="271" height="80" viewBox="0 0 271 80" fill="none" xmlns="http://www.w3.org/2000/svg">
<rect x="107.25" width="56" height="56" rx="16" fill="#A855F7" fill-opacity="0.1"/>
<path d="M125.917 37.3332V34.9998H129.125L128.658 34.5915C127.647 33.6971 126.937 32.6762 126.529 31.529C126.121 30.3818 125.917 29.2248 125.917 28.0582C125.917 25.8998 126.563 23.9797 127.856 22.2978C129.149 20.6158 130.836 19.5026 132.917 18.9582V21.4082C131.517 21.9137 130.389 22.7741 129.533 23.9894C128.678 25.2047 128.25 26.5609 128.25 28.0582C128.25 28.9332 128.415 29.7839 128.746 30.6103C129.076 31.4366 129.592 32.1998 130.292 32.8998L130.583 33.1915V30.3332H132.917V37.3332H125.917V37.3332M137.583 37.0415V34.5915C138.983 34.0859 140.111 33.2255 140.967 32.0103C141.822 30.795 142.25 29.4387 142.25 27.9415C142.25 27.0665 142.085 26.2158 141.754 25.3894C141.423 24.563 140.908 23.7998 140.208 23.0998L139.917 22.8082V25.6665H137.583V18.6665H144.583V20.9998H141.375L141.842 21.4082C142.794 22.3609 143.489 23.3964 143.927 24.5144C144.364 25.6325 144.583 26.7748 144.583 27.9415C144.583 30.0998 143.937 32.02 142.644 33.7019C141.351 35.3839 139.664 36.4971 137.583 37.0415V37.0415" fill="#9333EA"/>
<path d="M114.856 77V69.374H111.91V68.36H118.87V69.374H115.924V77H114.856ZM119.23 77V70.52H120.184V72.086L120.028 71.882C120.104 71.682 120.203 71.498 120.325 71.33C120.447 71.162 120.584 71.024 120.736 70.916C120.902 70.782 121.092 70.679 121.305 70.607C121.518 70.535 121.734 70.492 121.954 70.478C122.174 70.464 122.38 70.478 122.572 70.52V71.522C122.348 71.464 122.102 71.449 121.833 71.477C121.564 71.505 121.316 71.602 121.09 71.768C120.88 71.918 120.719 72.0985 120.606 72.3095C120.493 72.5205 120.414 72.749 120.37 72.995C120.326 73.241 120.304 73.492 120.304 73.748V77H119.23ZM125.344 77.18C124.86 77.18 124.455 77.0915 124.128 76.9145C123.801 76.7375 123.555 76.5025 123.39 76.2095C123.225 75.9165 123.142 75.596 123.142 75.248C123.142 74.908 123.207 74.6135 123.336 74.3645C123.465 74.1155 123.648 73.9075 123.885 73.7405C124.122 73.5735 124.404 73.442 124.732 73.346C125.04 73.264 125.385 73.1915 125.766 73.1285C126.147 73.0655 126.533 73.0085 126.925 72.9575C127.317 72.9065 127.684 72.856 128.026 72.806L127.642 73.028C127.652 72.454 127.537 72.0285 127.296 71.7515C127.055 71.4745 126.638 71.336 126.046 71.336C125.654 71.336 125.311 71.4255 125.016 71.6045C124.721 71.7835 124.514 72.072 124.396 72.47L123.382 72.164C123.536 71.596 123.838 71.15 124.287 70.826C124.736 70.502 125.326 70.34 126.058 70.34C126.644 70.34 127.148 70.445 127.57 70.655C127.992 70.865 128.296 71.182 128.482 71.606C128.574 71.806 128.632 72.023 128.656 72.257C128.68 72.491 128.692 72.736 128.692 72.992V77H127.744V75.446L127.966 75.59C127.722 76.116 127.381 76.5125 126.942 76.7795C126.503 77.0465 125.97 77.18 125.344 77.18ZM125.506 76.286C125.89 76.286 126.223 76.2175 126.505 76.0805C126.787 75.9435 127.014 75.7615 127.186 75.5345C127.358 75.3075 127.47 75.06 127.522 74.792C127.58 74.592 127.613 74.3695 127.62 74.1245C127.627 73.8795 127.63 73.69 127.63 73.556L128.002 73.718C127.654 73.768 127.312 73.815 126.975 73.859C126.638 73.903 126.319 73.9495 126.019 73.9985C125.719 74.0475 125.45 74.106 125.212 74.174C125.034 74.23 124.869 74.3025 124.716 74.3915C124.563 74.4805 124.439 74.594 124.345 74.732C124.251 74.87 124.204 75.04 124.204 75.242C124.204 75.42 124.249 75.5885 124.338 75.7475C124.427 75.9065 124.567 76.036 124.758 76.136C124.949 76.236 125.198 76.286 125.506 76.286ZM134.866 77V73.754C134.866 73.448 134.839 73.153 134.784 72.869C134.729 72.585 134.634 72.3295 134.5 72.1025C134.366 71.8755 134.186 71.696 133.96 71.564C133.734 71.432 133.45 71.366 133.108 71.366C132.84 71.366 132.597 71.4115 132.378 71.5025C132.159 71.5935 131.971 71.7305 131.815 71.9135C131.659 72.0965 131.539 72.327 131.454 72.605C131.369 72.883 131.326 73.21 131.326 73.586L130.624 73.37C130.624 72.744 130.737 72.2055 130.963 71.7545C131.189 71.3035 131.507 70.957 131.917 70.715C132.327 70.473 132.81 70.352 133.366 70.352C133.784 70.352 134.142 70.418 134.439 70.55C134.736 70.682 134.982 70.8575 135.178 71.0765C135.374 71.2955 135.528 71.5395 135.64 71.8085C135.752 72.0775 135.831 72.3515 135.877 72.6305C135.923 72.9095 135.946 73.172 135.946 73.418V77H134.866ZM130.246 77V70.52H131.206V72.254H131.326V77H130.246ZM139.954 77.174C139.18 77.174 138.547 77.005 138.054 76.667C137.561 76.329 137.258 75.856 137.146 75.248L138.238 75.074C138.326 75.426 138.528 75.705 138.844 75.911C139.16 76.117 139.552 76.22 140.02 76.22C140.462 76.22 140.81 76.1285 141.063 75.9455C141.316 75.7625 141.442 75.512 141.442 75.194C141.442 75.012 141.4 74.864 141.316 74.75C141.232 74.636 141.059 74.529 140.797 74.429C140.535 74.329 140.14 74.208 139.612 74.066C139.04 73.914 138.59 73.7565 138.261 73.5935C137.932 73.4305 137.698 73.241 137.559 73.025C137.42 72.809 137.35 72.546 137.35 72.236C137.35 71.856 137.454 71.5235 137.662 71.2385C137.87 70.9535 138.161 70.7325 138.534 70.5755C138.907 70.4185 139.342 70.34 139.84 70.34C140.332 70.34 140.772 70.4185 141.159 70.5755C141.546 70.7325 141.858 70.9535 142.096 71.2385C142.334 71.5235 142.476 71.856 142.522 72.236L141.43 72.434C141.378 72.088 141.211 71.8145 140.928 71.6135C140.645 71.4125 140.282 71.306 139.84 71.294C139.42 71.28 139.079 71.355 138.817 71.519C138.555 71.683 138.424 71.904 138.424 72.182C138.424 72.34 138.473 72.4745 138.57 72.5855C138.667 72.6965 138.849 72.802 139.116 72.902C139.383 73.002 139.77 73.116 140.278 73.244C140.848 73.39 141.298 73.5475 141.628 73.7165C141.958 73.8855 142.194 74.0855 142.335 74.3165C142.476 74.5475 142.546 74.83 142.546 75.164C142.546 75.79 142.316 76.2815 141.856 76.6385C141.396 76.9955 140.762 77.174 139.954 77.174ZM144.49 77V70.166C144.49 70 144.498 69.8295 144.513 69.6545C144.528 69.4795 144.564 69.309 144.621 69.143C144.678 68.977 144.77 68.824 144.898 68.684C145.046 68.522 145.208 68.4055 145.384 68.3345C145.56 68.2635 145.739 68.22 145.921 68.204C146.103 68.188 146.276 68.18 146.44 68.18H147.262V69.068H146.5C146.184 69.068 145.948 69.1455 145.792 69.3005C145.636 69.4555 145.558 69.688 145.558 69.998V77H144.49ZM143.392 71.402V70.52H147.262V71.402H143.392ZM150.79 77.18C150.152 77.18 149.596 77.0395 149.122 76.7585C148.648 76.4775 148.28 76.0835 148.017 75.5765C147.754 75.0695 147.622 74.478 147.622 73.802C147.622 73.094 147.752 72.481 148.011 71.963C148.27 71.445 148.633 71.045 149.1 70.763C149.567 70.481 150.114 70.34 150.742 70.34C151.392 70.34 151.946 70.49 152.404 70.79C152.862 71.09 153.207 71.518 153.438 72.074C153.669 72.63 153.767 73.292 153.733 74.06H152.656V73.676C152.644 72.88 152.482 72.285 152.17 71.891C151.858 71.497 151.394 71.3 150.778 71.3C150.116 71.3 149.614 71.512 149.271 71.936C148.928 72.36 148.756 72.968 148.756 73.76C148.756 74.524 148.928 75.116 149.271 75.536C149.614 75.956 150.104 76.166 150.742 76.166C151.17 76.166 151.542 76.068 151.858 75.872C152.174 75.676 152.422 75.394 152.602 75.026L153.628 75.38C153.374 75.952 152.995 76.395 152.49 76.709C151.985 77.023 151.418 77.18 150.79 77.18ZM148.396 74.06V73.202H153.184V74.06H148.396ZM155.068 77V70.52H156.022V72.086L155.866 71.882C155.942 71.682 156.041 71.498 156.163 71.33C156.285 71.162 156.422 71.024 156.574 70.916C156.74 70.782 156.93 70.679 157.143 70.607C157.356 70.535 157.572 70.492 157.792 70.478C158.012 70.464 158.218 70.478 158.41 70.52V71.522C158.186 71.464 157.94 71.449 157.671 71.477C157.402 71.505 157.154 71.602 156.928 71.768C156.718 71.918 156.557 72.0985 156.444 72.3095C156.331 72.5205 156.252 72.749 156.208 72.995C156.164 73.241 156.142 73.492 156.142 73.748V77H155.068Z" fill="#475569"/>
</svg>
