<svg width="78" height="80" viewBox="0 0 78 80" fill="none" xmlns="http://www.w3.org/2000/svg">
<rect x="10.75" width="56" height="56" rx="16" fill="#EC4899" fill-opacity="0.1"/>
<path d="M36.4167 38.5C35.1333 38.5 34.0347 38.0431 33.1208 37.1292C32.2069 36.2153 31.75 35.1167 31.75 33.8333C31.75 32.55 32.2069 31.4514 33.1208 30.5375C34.0347 29.6236 35.1333 29.1667 36.4167 29.1667C36.8639 29.1667 37.2771 29.2201 37.6562 29.3271C38.0354 29.434 38.4 29.5944 38.75 29.8083V17.5H45.75V22.1667H41.0833V33.8333C41.0833 35.1167 40.6264 36.2153 39.7125 37.1292C38.7986 38.0431 37.7 38.5 36.4167 38.5V38.5" fill="#EC4899"/>
<path d="M22.847 77V68.36H23.819L27.083 75.242L30.329 68.36H31.313V76.994H30.299V70.706L27.365 77H26.795L23.861 70.706V77H22.847ZM35.453 77.168C35.035 77.168 34.6775 77.102 34.3805 76.97C34.0835 76.838 33.837 76.6625 33.641 76.4435C33.445 76.2245 33.291 75.9805 33.179 75.7115C33.067 75.4425 32.988 75.1685 32.942 74.8895C32.896 74.6105 32.873 74.348 32.873 74.102V70.52H33.953V73.766C33.953 74.07 33.9805 74.3645 34.0355 74.6495C34.0905 74.9345 34.185 75.1905 34.319 75.4175C34.453 75.6445 34.633 75.824 34.859 75.956C35.085 76.088 35.369 76.154 35.711 76.154C35.979 76.154 36.2225 76.1085 36.4415 76.0175C36.6605 75.9265 36.848 75.7895 37.004 75.6065C37.16 75.4235 37.2805 75.1925 37.3655 74.9135C37.4505 74.6345 37.493 74.308 37.493 73.934L38.195 74.15C38.195 74.776 38.082 75.3145 37.856 75.7655C37.63 76.2165 37.312 76.563 36.902 76.805C36.492 77.047 36.009 77.168 35.453 77.168ZM37.613 77V75.266H37.493V70.52H38.567V77H37.613ZM42.695 77.174C41.921 77.174 41.2875 77.005 40.7945 76.667C40.3015 76.329 39.999 75.856 39.887 75.248L40.979 75.074C41.067 75.426 41.269 75.705 41.585 75.911C41.901 76.117 42.293 76.22 42.761 76.22C43.203 76.22 43.5505 76.1285 43.8035 75.9455C44.0565 75.7625 44.183 75.512 44.183 75.194C44.183 75.012 44.141 74.864 44.057 74.75C43.973 74.636 43.8 74.529 43.538 74.429C43.276 74.329 42.881 74.208 42.353 74.066C41.781 73.914 41.3305 73.7565 41.0015 73.5935C40.6725 73.4305 40.4385 73.241 40.2995 73.025C40.1605 72.809 40.091 72.546 40.091 72.236C40.091 71.856 40.195 71.5235 40.403 71.2385C40.611 70.9535 40.9015 70.7325 41.2745 70.5755C41.6475 70.4185 42.083 70.34 42.581 70.34C43.073 70.34 43.5125 70.4185 43.8995 70.5755C44.2865 70.7325 44.599 70.9535 44.837 71.2385C45.075 71.5235 45.217 71.856 45.263 72.236L44.171 72.434C44.119 72.088 43.9515 71.8145 43.6685 71.6135C43.3855 71.4125 43.023 71.306 42.581 71.294C42.161 71.28 41.82 71.355 41.558 71.519C41.296 71.683 41.165 71.904 41.165 72.182C41.165 72.34 41.2135 72.4745 41.3105 72.5855C41.4075 72.6965 41.5895 72.802 41.8565 72.902C42.1235 73.002 42.511 73.116 43.019 73.244C43.589 73.39 44.039 73.5475 44.369 73.7165C44.699 73.8855 44.9345 74.0855 45.0755 74.3165C45.2165 74.5475 45.287 74.83 45.287 75.164C45.287 75.79 45.057 76.2815 44.597 76.6385C44.137 76.9955 43.503 77.174 42.695 77.174ZM46.733 69.374V68.27H47.801V69.374H46.733ZM46.733 77V70.52H47.801V77H46.733ZM52.331 77.18C51.673 77.18 51.115 77.033 50.657 76.739C50.199 76.445 49.85 76.0405 49.61 75.5255C49.37 75.0105 49.247 74.422 49.241 73.76C49.247 73.086 49.373 72.492 49.619 71.978C49.865 71.464 50.218 71.0625 50.678 70.7735C51.138 70.4845 51.693 70.34 52.343 70.34C53.025 70.34 53.613 70.508 54.107 70.844C54.601 71.18 54.933 71.64 55.103 72.224L54.047 72.542C53.909 72.166 53.687 71.874 53.381 71.666C53.075 71.458 52.725 71.354 52.331 71.354C51.887 71.354 51.521 71.457 51.233 71.663C50.945 71.869 50.731 72.153 50.591 72.515C50.451 72.877 50.379 73.292 50.375 73.76C50.381 74.482 50.5475 75.0635 50.8745 75.5045C51.2015 75.9455 51.687 76.166 52.331 76.166C52.753 76.166 53.104 76.069 53.384 75.875C53.664 75.681 53.877 75.4 54.023 75.032L55.103 75.314C54.877 75.918 54.526 76.38 54.05 76.7C53.574 77.02 53.001 77.18 52.331 77.18Z" fill="#475569"/>
</svg>
