<svg width="271" height="80" viewBox="0 0 271 80" fill="none" xmlns="http://www.w3.org/2000/svg">
<rect x="107.25" width="56" height="56" rx="16" fill="#22C55E" fill-opacity="0.1"/>
<path d="M125.917 39.0832C125.275 39.0832 124.726 38.8547 124.269 38.3978C123.812 37.9408 123.583 37.3915 123.583 36.7498V23.9165C123.583 23.2748 123.812 22.7255 124.269 22.2686C124.726 21.8116 125.275 21.5832 125.917 21.5832H130.583V19.2498C130.583 18.6082 130.812 18.0589 131.269 17.6019C131.726 17.145 132.275 16.9165 132.917 16.9165H137.583C138.225 16.9165 138.774 17.145 139.231 17.6019C139.688 18.0589 139.917 18.6082 139.917 19.2498V21.5832H144.583C145.225 21.5832 145.774 21.8116 146.231 22.2686C146.688 22.7255 146.917 23.2748 146.917 23.9165V36.7498C146.917 37.3915 146.688 37.9408 146.231 38.3978C145.774 38.8547 145.225 39.0832 144.583 39.0832H125.917ZM125.917 36.7498H144.583V23.9165H125.917V36.7498ZM132.917 21.5832H137.583V19.2498H132.917V21.5832ZM125.917 36.7498V23.9165V36.7498Z" fill="#16A34A"/>
<path d="M109.246 77V68.36H112.66C112.744 68.36 112.843 68.363 112.958 68.369C113.073 68.375 113.186 68.388 113.296 68.408C113.762 68.48 114.154 68.6405 114.472 68.8895C114.79 69.1385 115.029 69.452 115.19 69.83C115.351 70.208 115.432 70.626 115.432 71.084C115.432 71.542 115.351 71.96 115.189 72.338C115.027 72.716 114.787 73.0295 114.469 73.2785C114.151 73.5275 113.76 73.688 113.296 73.76C113.186 73.776 113.073 73.788 112.957 73.796C112.841 73.804 112.742 73.808 112.66 73.808H110.314V77H109.246ZM110.314 72.794H112.624C112.7 72.794 112.786 72.79 112.883 72.782C112.98 72.774 113.074 72.76 113.164 72.74C113.44 72.678 113.664 72.5615 113.837 72.3905C114.01 72.2195 114.137 72.019 114.218 71.789C114.299 71.559 114.34 71.324 114.34 71.084C114.34 70.844 114.299 70.609 114.218 70.379C114.137 70.149 114.01 69.9485 113.837 69.7775C113.664 69.6065 113.44 69.49 113.164 69.428C113.074 69.406 112.98 69.3915 112.883 69.3845C112.786 69.3775 112.7 69.374 112.624 69.374H110.314V72.794ZM118.234 77.18C117.75 77.18 117.344 77.0915 117.017 76.9145C116.69 76.7375 116.444 76.5025 116.279 76.2095C116.114 75.9165 116.032 75.596 116.032 75.248C116.032 74.908 116.096 74.6135 116.225 74.3645C116.354 74.1155 116.537 73.9075 116.774 73.7405C117.011 73.5735 117.294 73.442 117.622 73.346C117.93 73.264 118.274 73.1915 118.655 73.1285C119.036 73.0655 119.423 73.0085 119.815 72.9575C120.207 72.9065 120.574 72.856 120.916 72.806L120.532 73.028C120.542 72.454 120.426 72.0285 120.185 71.7515C119.944 71.4745 119.528 71.336 118.936 71.336C118.544 71.336 118.2 71.4255 117.905 71.6045C117.61 71.7835 117.404 72.072 117.286 72.47L116.272 72.164C116.426 71.596 116.727 71.15 117.176 70.826C117.625 70.502 118.216 70.34 118.948 70.34C119.534 70.34 120.038 70.445 120.46 70.655C120.882 70.865 121.186 71.182 121.372 71.606C121.464 71.806 121.522 72.023 121.546 72.257C121.57 72.491 121.582 72.736 121.582 72.992V77H120.634V75.446L120.856 75.59C120.612 76.116 120.27 76.5125 119.831 76.7795C119.392 77.0465 118.86 77.18 118.234 77.18ZM118.396 76.286C118.78 76.286 119.113 76.2175 119.395 76.0805C119.677 75.9435 119.904 75.7615 120.076 75.5345C120.248 75.3075 120.36 75.06 120.412 74.792C120.47 74.592 120.502 74.3695 120.509 74.1245C120.516 73.8795 120.52 73.69 120.52 73.556L120.892 73.718C120.544 73.768 120.201 73.815 119.864 73.859C119.527 73.903 119.209 73.9495 118.909 73.9985C118.609 74.0475 118.34 74.106 118.102 74.174C117.924 74.23 117.758 74.3025 117.605 74.3915C117.452 74.4805 117.329 74.594 117.235 74.732C117.141 74.87 117.094 75.04 117.094 75.242C117.094 75.42 117.138 75.5885 117.227 75.7475C117.316 75.9065 117.456 76.036 117.647 76.136C117.838 76.236 118.088 76.286 118.396 76.286ZM123.142 77V70.52H124.096V72.086L123.94 71.882C124.016 71.682 124.115 71.498 124.237 71.33C124.359 71.162 124.496 71.024 124.648 70.916C124.814 70.782 125.003 70.679 125.216 70.607C125.429 70.535 125.646 70.492 125.866 70.478C126.086 70.464 126.292 70.478 126.484 70.52V71.522C126.26 71.464 126.013 71.449 125.744 71.477C125.475 71.505 125.228 71.602 125.002 71.768C124.792 71.918 124.63 72.0985 124.517 72.3095C124.404 72.5205 124.326 72.749 124.282 72.995C124.238 73.241 124.216 73.492 124.216 73.748V77H123.142ZM131.242 77C130.856 77.078 130.476 77.11 130.103 77.096C129.73 77.082 129.397 77.006 129.104 76.868C128.811 76.73 128.59 76.514 128.44 76.22C128.312 75.966 128.243 75.708 128.233 75.446C128.223 75.184 128.218 74.886 128.218 74.552V68.72H129.286V74.504C129.286 74.77 129.289 74.9965 129.295 75.1835C129.301 75.3705 129.342 75.532 129.418 75.668C129.562 75.926 129.791 76.0765 130.105 76.1195C130.419 76.1625 130.798 76.15 131.242 76.082V77ZM126.904 71.402V70.52H131.242V71.402H126.904ZM132.442 73.658V72.776H136.042V73.658H132.442ZM141.22 77C140.834 77.078 140.454 77.11 140.081 77.096C139.708 77.082 139.375 77.006 139.082 76.868C138.789 76.73 138.568 76.514 138.418 76.22C138.29 75.966 138.221 75.708 138.211 75.446C138.201 75.184 138.196 74.886 138.196 74.552V68.72H139.264V74.504C139.264 74.77 139.267 74.9965 139.273 75.1835C139.279 75.3705 139.32 75.532 139.396 75.668C139.54 75.926 139.769 76.0765 140.083 76.1195C140.397 76.1625 140.776 76.15 141.22 76.082V77ZM136.882 71.402V70.52H141.22V71.402H136.882ZM142.66 69.374V68.27H143.728V69.374H142.66ZM142.66 77V70.52H143.728V77H142.66ZM153.274 77L153.28 72.854C153.28 72.37 153.15 71.991 152.891 71.717C152.632 71.443 152.298 71.306 151.888 71.306C151.646 71.306 151.417 71.3615 151.202 71.4725C150.987 71.5835 150.812 71.7555 150.676 71.9885C150.54 72.2215 150.472 72.52 150.472 72.884L149.908 72.656C149.898 72.196 149.992 71.793 150.19 71.447C150.388 71.101 150.659 70.832 151.004 70.64C151.349 70.448 151.738 70.352 152.17 70.352C152.846 70.352 153.378 70.5575 153.766 70.9685C154.154 71.3795 154.348 71.93 154.348 72.62L154.342 77H153.274ZM145.522 77V70.52H146.476V72.254H146.596V77H145.522ZM149.404 77L149.41 72.896C149.41 72.402 149.282 72.0135 149.026 71.7305C148.77 71.4475 148.43 71.306 148.006 71.306C147.584 71.306 147.243 71.4505 146.984 71.7395C146.725 72.0285 146.596 72.41 146.596 72.884L146.032 72.548C146.032 72.128 146.132 71.7525 146.332 71.4215C146.532 71.0905 146.804 70.8295 147.148 70.6385C147.492 70.4475 147.882 70.352 148.318 70.352C148.754 70.352 149.133 70.4445 149.456 70.6295C149.779 70.8145 150.029 71.078 150.206 71.42C150.383 71.762 150.472 72.168 150.472 72.638L150.466 77H149.404ZM158.656 77.18C158.018 77.18 157.462 77.0395 156.988 76.7585C156.514 76.4775 156.145 76.0835 155.882 75.5765C155.619 75.0695 155.488 74.478 155.488 73.802C155.488 73.094 155.617 72.481 155.876 71.963C156.135 71.445 156.498 71.045 156.965 70.763C157.432 70.481 157.98 70.34 158.608 70.34C159.258 70.34 159.812 70.49 160.27 70.79C160.728 71.09 161.072 71.518 161.303 72.074C161.534 72.63 161.633 73.292 161.599 74.06H160.522V73.676C160.51 72.88 160.348 72.285 160.036 71.891C159.724 71.497 159.26 71.3 158.644 71.3C157.982 71.3 157.479 71.512 157.136 71.936C156.793 72.36 156.622 72.968 156.622 73.76C156.622 74.524 156.793 75.116 157.136 75.536C157.479 75.956 157.97 76.166 158.608 76.166C159.036 76.166 159.408 76.068 159.724 75.872C160.04 75.676 160.288 75.394 160.468 75.026L161.494 75.38C161.24 75.952 160.86 76.395 160.355 76.709C159.85 77.023 159.284 77.18 158.656 77.18ZM156.262 74.06V73.202H161.05V74.06H156.262Z" fill="#475569"/>
</svg>
