<svg width="78" height="80" viewBox="0 0 78 80" fill="none" xmlns="http://www.w3.org/2000/svg">
<rect x="10.75" width="56" height="56" rx="16" fill="#F97316" fill-opacity="0.1"/>
<path d="M27.0833 37.9168C26.4417 37.9168 25.8924 37.6884 25.4354 37.2314C24.9785 36.7745 24.75 36.2252 24.75 35.5835H29.4167C28.775 35.5835 28.2257 35.355 27.7687 34.8981C27.3118 34.4411 27.0833 33.8918 27.0833 33.2502V20.4168C27.0833 19.7752 27.3118 19.2259 27.7687 18.7689C28.2257 18.312 28.775 18.0835 29.4167 18.0835H48.0833C48.725 18.0835 49.2743 18.312 49.7313 18.7689C50.1882 19.2259 50.4167 19.7752 50.4167 20.4168V33.2502C50.4167 33.8918 50.1882 34.4411 49.7313 34.8981C49.2743 35.355 48.725 35.5835 48.0833 35.5835H52.75C52.75 36.2252 52.5215 36.7745 52.0646 37.2314C51.6076 37.6884 51.0583 37.9168 50.4167 37.9168H27.0833ZM38.75 36.7502C39.0806 36.7502 39.3576 36.6384 39.5813 36.4147C39.8049 36.1911 39.9167 35.9141 39.9167 35.5835C39.9167 35.2529 39.8049 34.9759 39.5813 34.7522C39.3576 34.5286 39.0806 34.4168 38.75 34.4168C38.4194 34.4168 38.1424 34.5286 37.9187 34.7522C37.6951 34.9759 37.5833 35.2529 37.5833 35.5835C37.5833 35.9141 37.6951 36.1911 37.9187 36.4147C38.1424 36.6384 38.4194 36.7502 38.75 36.7502ZM29.4167 33.2502H48.0833V20.4168H29.4167V33.2502ZM29.4167 33.2502V20.4168V33.2502Z" fill="#F97316"/>
<g clip-path="url(#clip0_183_596)">
<path d="M21.5779 77V68.36H24.2419C24.3279 68.36 24.4809 68.362 24.7009 68.366C24.9209 68.37 25.1319 68.386 25.3339 68.414C25.9999 68.502 26.5584 68.745 27.0094 69.143C27.4604 69.541 27.7999 70.0465 28.0279 70.6595C28.2559 71.2725 28.3699 71.946 28.3699 72.68C28.3699 73.416 28.2559 74.0905 28.0279 74.7035C27.7999 75.3165 27.4604 75.8215 27.0094 76.2185C26.5584 76.6155 25.9999 76.858 25.3339 76.946C25.1339 76.972 24.9224 76.9875 24.6994 76.9925C24.4764 76.9975 24.3239 77 24.2419 77H21.5779ZM22.6759 75.98H24.2419C24.3919 75.98 24.5614 75.9755 24.7504 75.9665C24.9394 75.9575 25.1039 75.94 25.2439 75.914C25.7159 75.828 26.0979 75.6305 26.3899 75.3215C26.6819 75.0125 26.8959 74.6285 27.0319 74.1695C27.1679 73.7105 27.2359 73.214 27.2359 72.68C27.2359 72.136 27.1669 71.6345 27.0289 71.1755C26.8909 70.7165 26.6754 70.3345 26.3824 70.0295C26.0894 69.7245 25.7099 69.53 25.2439 69.446C25.1039 69.418 24.9379 69.4 24.7459 69.392C24.5539 69.384 24.3859 69.38 24.2419 69.38H22.6759V75.98ZM29.8699 69.374V68.27H30.9379V69.374H29.8699ZM29.8699 77V70.52H30.9379V77H29.8699ZM35.3599 80.06C35.0199 80.06 34.6879 80.0085 34.3639 79.9055C34.0399 79.8025 33.7429 79.646 33.4729 79.436C33.2029 79.226 32.9779 78.96 32.7979 78.638L33.7759 78.122C33.9359 78.44 34.1624 78.6705 34.4554 78.8135C34.7484 78.9565 35.0519 79.028 35.3659 79.028C35.7779 79.028 36.1194 78.953 36.3904 78.803C36.6614 78.653 36.8624 78.43 36.9934 78.134C37.1244 77.838 37.1879 77.47 37.1839 77.03V75.26H37.3099V70.52H38.2579V77.042C38.2579 77.22 38.2524 77.3905 38.2414 77.5535C38.2304 77.7165 38.2099 77.878 38.1799 78.038C38.0959 78.498 37.9299 78.877 37.6819 79.175C37.4339 79.473 37.1139 79.695 36.7219 79.841C36.3299 79.987 35.8759 80.06 35.3599 80.06ZM35.2819 77.18C34.6779 77.18 34.1594 77.0295 33.7264 76.7285C33.2934 76.4275 32.9604 76.0185 32.7274 75.5015C32.4944 74.9845 32.3779 74.402 32.3779 73.754C32.3779 73.106 32.4944 72.5245 32.7274 72.0095C32.9604 71.4945 33.2934 71.0875 33.7264 70.7885C34.1594 70.4895 34.6759 70.34 35.2759 70.34C35.8859 70.34 36.3994 70.4885 36.8164 70.7855C37.2334 71.0825 37.5489 71.4885 37.7629 72.0035C37.9769 72.5185 38.0839 73.102 38.0839 73.754C38.0839 74.4 37.9769 74.9815 37.7629 75.4985C37.5489 76.0155 37.2339 76.425 36.8179 76.727C36.4019 77.029 35.8899 77.18 35.2819 77.18ZM35.4139 76.202C35.8499 76.202 36.2079 76.097 36.4879 75.887C36.7679 75.677 36.9749 75.3875 37.1089 75.0185C37.2429 74.6495 37.3099 74.228 37.3099 73.754C37.3099 73.276 37.2424 72.8535 37.1074 72.4865C36.9724 72.1195 36.7669 71.833 36.4909 71.627C36.2149 71.421 35.8659 71.318 35.4439 71.318C35.0039 71.318 34.6409 71.426 34.3549 71.642C34.0689 71.858 33.8569 72.15 33.7189 72.518C33.5809 72.886 33.5119 73.298 33.5119 73.754C33.5119 74.214 33.5819 74.629 33.7219 74.999C33.8619 75.369 34.0724 75.662 34.3534 75.878C34.6344 76.094 34.9879 76.202 35.4139 76.202ZM40.0579 69.374V68.27H41.1259V69.374H40.0579ZM40.0579 77V70.52H41.1259V77H40.0579ZM46.5439 77C46.1579 77.078 45.7784 77.11 45.4054 77.096C45.0324 77.082 44.6994 77.006 44.4064 76.868C44.1134 76.73 43.8919 76.514 43.7419 76.22C43.6139 75.966 43.5449 75.708 43.5349 75.446C43.5249 75.184 43.5199 74.886 43.5199 74.552V68.72H44.5879V74.504C44.5879 74.77 44.5909 74.9965 44.5969 75.1835C44.6029 75.3705 44.6439 75.532 44.7199 75.668C44.8639 75.926 45.0929 76.0765 45.4069 76.1195C45.7209 76.1625 46.0999 76.15 46.5439 76.082V77ZM42.2059 71.402V70.52H46.5439V71.402H42.2059ZM49.7059 77.18C49.2219 77.18 48.8164 77.0915 48.4894 76.9145C48.1624 76.7375 47.9164 76.5025 47.7514 76.2095C47.5864 75.9165 47.5039 75.596 47.5039 75.248C47.5039 74.908 47.5684 74.6135 47.6974 74.3645C47.8264 74.1155 48.0094 73.9075 48.2464 73.7405C48.4834 73.5735 48.7659 73.442 49.0939 73.346C49.4019 73.264 49.7464 73.1915 50.1274 73.1285C50.5084 73.0655 50.8949 73.0085 51.2869 72.9575C51.6789 72.9065 52.0459 72.856 52.3879 72.806L52.0039 73.028C52.0139 72.454 51.8984 72.0285 51.6574 71.7515C51.4164 71.4745 50.9999 71.336 50.4079 71.336C50.0159 71.336 49.6724 71.4255 49.3774 71.6045C49.0824 71.7835 48.8759 72.072 48.7579 72.47L47.7439 72.164C47.8979 71.596 48.1994 71.15 48.6484 70.826C49.0974 70.502 49.6879 70.34 50.4199 70.34C51.0059 70.34 51.5099 70.445 51.9319 70.655C52.3539 70.865 52.6579 71.182 52.8439 71.606C52.9359 71.806 52.9939 72.023 53.0179 72.257C53.0419 72.491 53.0539 72.736 53.0539 72.992V77H52.1059V75.446L52.3279 75.59C52.0839 76.116 51.7424 76.5125 51.3034 76.7795C50.8644 77.0465 50.3319 77.18 49.7059 77.18ZM49.8679 76.286C50.2519 76.286 50.5849 76.2175 50.8669 76.0805C51.1489 75.9435 51.3759 75.7615 51.5479 75.5345C51.7199 75.3075 51.8319 75.06 51.8839 74.792C51.9419 74.592 51.9744 74.3695 51.9814 74.1245C51.9884 73.8795 51.9919 73.69 51.9919 73.556L52.3639 73.718C52.0159 73.768 51.6734 73.815 51.3364 73.859C50.9994 73.903 50.6809 73.9495 50.3809 73.9985C50.0809 74.0475 49.8119 74.106 49.5739 74.174C49.3959 74.23 49.2304 74.3025 49.0774 74.3915C48.9244 74.4805 48.8009 74.594 48.7069 74.732C48.6129 74.87 48.5659 75.04 48.5659 75.242C48.5659 75.42 48.6104 75.5885 48.6994 75.7475C48.7884 75.9065 48.9284 76.036 49.1194 76.136C49.3104 76.236 49.5599 76.286 49.8679 76.286ZM54.7339 77V68.18H55.8019V77H54.7339Z" fill="#475569"/>
</g>
<defs>
<clipPath id="clip0_183_596">
<rect width="77.5" height="16" fill="white" transform="translate(0 64)"/>
</clipPath>
</defs>
</svg>
