<svg width="78" height="80" viewBox="0 0 78 80" fill="none" xmlns="http://www.w3.org/2000/svg">
<rect x="10.75" width="56" height="56" rx="16" fill="#6366F1" fill-opacity="0.1"/>
<path d="M39.0707 36.1668C39.304 36.1474 39.5033 36.055 39.6686 35.8897C39.8339 35.7245 39.9165 35.5252 39.9165 35.2918C39.9165 35.0196 39.829 34.8009 39.654 34.6356C39.479 34.4703 39.2554 34.3974 38.9832 34.4168C38.1859 34.4752 37.3401 34.2564 36.4457 33.7606C35.5512 33.2647 34.9873 32.3654 34.754 31.0627C34.7151 30.8488 34.613 30.6738 34.4478 30.5377C34.2825 30.4016 34.0929 30.3335 33.879 30.3335C33.6068 30.3335 33.3832 30.4356 33.2082 30.6397C33.0332 30.8439 32.9748 31.0821 33.0332 31.3543C33.3637 33.1238 34.1415 34.3877 35.3665 35.146C36.5915 35.9043 37.8262 36.2446 39.0707 36.1668ZM38.7498 39.6668C36.0859 39.6668 33.8644 38.7529 32.0853 36.9252C30.3061 35.0974 29.4165 32.8224 29.4165 30.1002C29.4165 28.1557 30.1894 26.0411 31.7353 23.7564C33.2811 21.4717 35.6193 18.9974 38.7498 16.3335C41.8804 18.9974 44.2186 21.4717 45.7644 23.7564C47.3103 26.0411 48.0832 28.1557 48.0832 30.1002C48.0832 32.8224 47.1936 35.0974 45.4144 36.9252C43.6353 38.7529 41.4137 39.6668 38.7498 39.6668ZM38.7498 37.3335C40.7721 37.3335 42.4443 36.6481 43.7665 35.2772C45.0887 33.9064 45.7498 32.1807 45.7498 30.1002C45.7498 28.6807 45.1616 27.0766 43.9853 25.2877C42.8089 23.4988 41.0637 21.5446 38.7498 19.4252C36.4359 21.5446 34.6908 23.4988 33.5144 25.2877C32.338 27.0766 31.7498 28.6807 31.7498 30.1002C31.7498 32.1807 32.4109 33.9064 33.7332 35.2772C35.0554 36.6481 36.7276 37.3335 38.7498 37.3335Z" fill="#6366F1"/>
<path d="M24.5151 77L22.0131 68.36H23.1291L25.0491 75.194L26.9631 68.366L28.0851 68.36L30.0051 75.194L31.9191 68.36H33.0411L30.5391 77H29.4711L27.5241 70.226L25.5831 77H24.5151ZM35.3631 77.18C34.8791 77.18 34.4736 77.0915 34.1466 76.9145C33.8196 76.7375 33.5736 76.5025 33.4086 76.2095C33.2436 75.9165 33.1611 75.596 33.1611 75.248C33.1611 74.908 33.2256 74.6135 33.3546 74.3645C33.4836 74.1155 33.6666 73.9075 33.9036 73.7405C34.1406 73.5735 34.4231 73.442 34.7511 73.346C35.0591 73.264 35.4036 73.1915 35.7846 73.1285C36.1656 73.0655 36.5521 73.0085 36.9441 72.9575C37.3361 72.9065 37.7031 72.856 38.0451 72.806L37.6611 73.028C37.6711 72.454 37.5556 72.0285 37.3146 71.7515C37.0736 71.4745 36.6571 71.336 36.0651 71.336C35.6731 71.336 35.3296 71.4255 35.0346 71.6045C34.7396 71.7835 34.5331 72.072 34.4151 72.47L33.4011 72.164C33.5551 71.596 33.8566 71.15 34.3056 70.826C34.7546 70.502 35.3451 70.34 36.0771 70.34C36.6631 70.34 37.1671 70.445 37.5891 70.655C38.0111 70.865 38.3151 71.182 38.5011 71.606C38.5931 71.806 38.6511 72.023 38.6751 72.257C38.6991 72.491 38.7111 72.736 38.7111 72.992V77H37.7631V75.446L37.9851 75.59C37.7411 76.116 37.3996 76.5125 36.9606 76.7795C36.5216 77.0465 35.9891 77.18 35.3631 77.18ZM35.5251 76.286C35.9091 76.286 36.2421 76.2175 36.5241 76.0805C36.8061 75.9435 37.0331 75.7615 37.2051 75.5345C37.3771 75.3075 37.4891 75.06 37.5411 74.792C37.5991 74.592 37.6316 74.3695 37.6386 74.1245C37.6456 73.8795 37.6491 73.69 37.6491 73.556L38.0211 73.718C37.6731 73.768 37.3306 73.815 36.9936 73.859C36.6566 73.903 36.3381 73.9495 36.0381 73.9985C35.7381 74.0475 35.4691 74.106 35.2311 74.174C35.0531 74.23 34.8876 74.3025 34.7346 74.3915C34.5816 74.4805 34.4581 74.594 34.3641 74.732C34.2701 74.87 34.2231 75.04 34.2231 75.242C34.2231 75.42 34.2676 75.5885 34.3566 75.7475C34.4456 75.9065 34.5856 76.036 34.7766 76.136C34.9676 76.236 35.2171 76.286 35.5251 76.286ZM43.8891 77C43.5031 77.078 43.1236 77.11 42.7506 77.096C42.3776 77.082 42.0446 77.006 41.7516 76.868C41.4586 76.73 41.2371 76.514 41.0871 76.22C40.9591 75.966 40.8901 75.708 40.8801 75.446C40.8701 75.184 40.8651 74.886 40.8651 74.552V68.72H41.9331V74.504C41.9331 74.77 41.9361 74.9965 41.9421 75.1835C41.9481 75.3705 41.9891 75.532 42.0651 75.668C42.2091 75.926 42.4381 76.0765 42.7521 76.1195C43.0661 76.1625 43.4451 76.15 43.8891 76.082V77ZM39.5511 71.402V70.52H43.8891V71.402H39.5511ZM47.7471 77.18C47.1091 77.18 46.5531 77.0395 46.0791 76.7585C45.6051 76.4775 45.2366 76.0835 44.9736 75.5765C44.7106 75.0695 44.5791 74.478 44.5791 73.802C44.5791 73.094 44.7086 72.481 44.9676 71.963C45.2266 71.445 45.5896 71.045 46.0566 70.763C46.5236 70.481 47.0711 70.34 47.6991 70.34C48.3491 70.34 48.9031 70.49 49.3611 70.79C49.8191 71.09 50.1636 71.518 50.3946 72.074C50.6256 72.63 50.7241 73.292 50.6901 74.06H49.6131V73.676C49.6011 72.88 49.4391 72.285 49.1271 71.891C48.8151 71.497 48.3511 71.3 47.7351 71.3C47.0731 71.3 46.5706 71.512 46.2276 71.936C45.8846 72.36 45.7131 72.968 45.7131 73.76C45.7131 74.524 45.8846 75.116 46.2276 75.536C46.5706 75.956 47.0611 76.166 47.6991 76.166C48.1271 76.166 48.4991 76.068 48.8151 75.872C49.1311 75.676 49.3791 75.394 49.5591 75.026L50.5851 75.38C50.3311 75.952 49.9516 76.395 49.4466 76.709C48.9416 77.023 48.3751 77.18 47.7471 77.18ZM45.3531 74.06V73.202H50.1411V74.06H45.3531ZM52.0251 77V70.52H52.9791V72.086L52.8231 71.882C52.8991 71.682 52.9981 71.498 53.1201 71.33C53.2421 71.162 53.3791 71.024 53.5311 70.916C53.6971 70.782 53.8866 70.679 54.0996 70.607C54.3126 70.535 54.5291 70.492 54.7491 70.478C54.9691 70.464 55.1751 70.478 55.3671 70.52V71.522C55.1431 71.464 54.8966 71.449 54.6276 71.477C54.3586 71.505 54.1111 71.602 53.8851 71.768C53.6751 71.918 53.5136 72.0985 53.4006 72.3095C53.2876 72.5205 53.2091 72.749 53.1651 72.995C53.1211 73.241 53.0991 73.492 53.0991 73.748V77H52.0251Z" fill="#475569"/>
</svg>
