<svg width="78" height="80" viewBox="0 0 78 80" fill="none" xmlns="http://www.w3.org/2000/svg">
<rect x="10.75" width="56" height="56" rx="16" fill="#6366F1" fill-opacity="0.1"/>
<path d="M38.75 37.9168C37.9333 37.9168 37.2431 37.6349 36.6792 37.071C36.1153 36.5071 35.8333 35.8168 35.8333 35.0002C35.8333 34.1835 36.1153 33.4932 36.6792 32.9293C37.2431 32.3654 37.9333 32.0835 38.75 32.0835C39.5667 32.0835 40.2569 32.3654 40.8208 32.9293C41.3847 33.4932 41.6667 34.1835 41.6667 35.0002C41.6667 35.8168 41.3847 36.5071 40.8208 37.071C40.2569 37.6349 39.5667 37.9168 38.75 37.9168V37.9168M32.1583 31.3252L29.7083 28.8168C30.8556 27.6696 32.2021 26.7606 33.7479 26.0897C35.2937 25.4189 36.9611 25.0835 38.75 25.0835C40.5389 25.0835 42.2062 25.4238 43.7521 26.1043C45.2979 26.7849 46.6444 27.7085 47.7917 28.8752L45.3417 31.3252C44.4861 30.4696 43.4944 29.7988 42.3667 29.3127C41.2389 28.8266 40.0333 28.5835 38.75 28.5835C37.4667 28.5835 36.2611 28.8266 35.1333 29.3127C34.0056 29.7988 33.0139 30.4696 32.1583 31.3252V31.3252M27.2 26.3668L24.75 23.9168C26.5389 22.0891 28.6292 20.6599 31.0208 19.6293C33.4125 18.5988 35.9889 18.0835 38.75 18.0835C41.5111 18.0835 44.0875 18.5988 46.4792 19.6293C48.8708 20.6599 50.9611 22.0891 52.75 23.9168L50.3 26.3668C48.8028 24.8696 47.0674 23.6981 45.0938 22.8522C43.1201 22.0064 41.0056 21.5835 38.75 21.5835C36.4944 21.5835 34.3799 22.0064 32.4062 22.8522C30.4326 23.6981 28.6972 24.8696 27.2 26.3668V26.3668" fill="#6366F1"/>
<path d="M16.8619 77V68.36H17.9299V77H16.8619ZM24.3439 77V73.754C24.3439 73.448 24.3164 73.153 24.2614 72.869C24.2064 72.585 24.1119 72.3295 23.9779 72.1025C23.8439 71.8755 23.6639 71.696 23.4379 71.564C23.2119 71.432 22.9279 71.366 22.5859 71.366C22.3179 71.366 22.0744 71.4115 21.8554 71.5025C21.6364 71.5935 21.4489 71.7305 21.2929 71.9135C21.1369 72.0965 21.0164 72.327 20.9314 72.605C20.8464 72.883 20.8039 73.21 20.8039 73.586L20.1019 73.37C20.1019 72.744 20.2149 72.2055 20.4409 71.7545C20.6669 71.3035 20.9849 70.957 21.3949 70.715C21.8049 70.473 22.2879 70.352 22.8439 70.352C23.2619 70.352 23.6194 70.418 23.9164 70.55C24.2134 70.682 24.4599 70.8575 24.6559 71.0765C24.8519 71.2955 25.0059 71.5395 25.1179 71.8085C25.2299 72.0775 25.3089 72.3515 25.3549 72.6305C25.4009 72.9095 25.4239 73.172 25.4239 73.418V77H24.3439ZM19.7239 77V70.52H20.6839V72.254H20.8039V77H19.7239ZM30.6019 77C30.2159 77.078 29.8364 77.11 29.4634 77.096C29.0904 77.082 28.7574 77.006 28.4644 76.868C28.1714 76.73 27.9499 76.514 27.7999 76.22C27.6719 75.966 27.6029 75.708 27.5929 75.446C27.5829 75.184 27.5779 74.886 27.5779 74.552V68.72H28.6459V74.504C28.6459 74.77 28.6489 74.9965 28.6549 75.1835C28.6609 75.3705 28.7019 75.532 28.7779 75.668C28.9219 75.926 29.1509 76.0765 29.4649 76.1195C29.7789 76.1625 30.1579 76.15 30.6019 76.082V77ZM26.2639 71.402V70.52H30.6019V71.402H26.2639ZM34.4599 77.18C33.8219 77.18 33.2659 77.0395 32.7919 76.7585C32.3179 76.4775 31.9494 76.0835 31.6864 75.5765C31.4234 75.0695 31.2919 74.478 31.2919 73.802C31.2919 73.094 31.4214 72.481 31.6804 71.963C31.9394 71.445 32.3024 71.045 32.7694 70.763C33.2364 70.481 33.7839 70.34 34.4119 70.34C35.0619 70.34 35.6159 70.49 36.0739 70.79C36.5319 71.09 36.8764 71.518 37.1074 72.074C37.3384 72.63 37.4369 73.292 37.4029 74.06H36.3259V73.676C36.3139 72.88 36.1519 72.285 35.8399 71.891C35.5279 71.497 35.0639 71.3 34.4479 71.3C33.7859 71.3 33.2834 71.512 32.9404 71.936C32.5974 72.36 32.4259 72.968 32.4259 73.76C32.4259 74.524 32.5974 75.116 32.9404 75.536C33.2834 75.956 33.7739 76.166 34.4119 76.166C34.8399 76.166 35.2119 76.068 35.5279 75.872C35.8439 75.676 36.0919 75.394 36.2719 75.026L37.2979 75.38C37.0439 75.952 36.6644 76.395 36.1594 76.709C35.6544 77.023 35.0879 77.18 34.4599 77.18ZM32.0659 74.06V73.202H36.8539V74.06H32.0659ZM38.7379 77V70.52H39.6919V72.086L39.5359 71.882C39.6119 71.682 39.7109 71.498 39.8329 71.33C39.9549 71.162 40.0919 71.024 40.2439 70.916C40.4099 70.782 40.5994 70.679 40.8124 70.607C41.0254 70.535 41.2419 70.492 41.4619 70.478C41.6819 70.464 41.8879 70.478 42.0799 70.52V71.522C41.8559 71.464 41.6094 71.449 41.3404 71.477C41.0714 71.505 40.8239 71.602 40.5979 71.768C40.3879 71.918 40.2264 72.0985 40.1134 72.3095C40.0004 72.5205 39.9219 72.749 39.8779 72.995C39.8339 73.241 39.8119 73.492 39.8119 73.748V77H38.7379ZM47.8339 77V73.754C47.8339 73.448 47.8064 73.153 47.7514 72.869C47.6964 72.585 47.6019 72.3295 47.4679 72.1025C47.3339 71.8755 47.1539 71.696 46.9279 71.564C46.7019 71.432 46.4179 71.366 46.0759 71.366C45.8079 71.366 45.5644 71.4115 45.3454 71.5025C45.1264 71.5935 44.9389 71.7305 44.7829 71.9135C44.6269 72.0965 44.5064 72.327 44.4214 72.605C44.3364 72.883 44.2939 73.21 44.2939 73.586L43.5919 73.37C43.5919 72.744 43.7049 72.2055 43.9309 71.7545C44.1569 71.3035 44.4749 70.957 44.8849 70.715C45.2949 70.473 45.7779 70.352 46.3339 70.352C46.7519 70.352 47.1094 70.418 47.4064 70.55C47.7034 70.682 47.9499 70.8575 48.1459 71.0765C48.3419 71.2955 48.4959 71.5395 48.6079 71.8085C48.7199 72.0775 48.7989 72.3515 48.8449 72.6305C48.8909 72.9095 48.9139 73.172 48.9139 73.418V77H47.8339ZM43.2139 77V70.52H44.1739V72.254H44.2939V77H43.2139ZM53.2219 77.18C52.5839 77.18 52.0279 77.0395 51.5539 76.7585C51.0799 76.4775 50.7114 76.0835 50.4484 75.5765C50.1854 75.0695 50.0539 74.478 50.0539 73.802C50.0539 73.094 50.1834 72.481 50.4424 71.963C50.7014 71.445 51.0644 71.045 51.5314 70.763C51.9984 70.481 52.5459 70.34 53.1739 70.34C53.8239 70.34 54.3779 70.49 54.8359 70.79C55.2939 71.09 55.6384 71.518 55.8694 72.074C56.1004 72.63 56.1989 73.292 56.1649 74.06H55.0879V73.676C55.0759 72.88 54.9139 72.285 54.6019 71.891C54.2899 71.497 53.8259 71.3 53.2099 71.3C52.5479 71.3 52.0454 71.512 51.7024 71.936C51.3594 72.36 51.1879 72.968 51.1879 73.76C51.1879 74.524 51.3594 75.116 51.7024 75.536C52.0454 75.956 52.5359 76.166 53.1739 76.166C53.6019 76.166 53.9739 76.068 54.2899 75.872C54.6059 75.676 54.8539 75.394 55.0339 75.026L56.0599 75.38C55.8059 75.952 55.4264 76.395 54.9214 76.709C54.4164 77.023 53.8499 77.18 53.2219 77.18ZM50.8279 74.06V73.202H55.6159V74.06H50.8279ZM61.1179 77C60.7319 77.078 60.3524 77.11 59.9794 77.096C59.6064 77.082 59.2734 77.006 58.9804 76.868C58.6874 76.73 58.4659 76.514 58.3159 76.22C58.1879 75.966 58.1189 75.708 58.1089 75.446C58.0989 75.184 58.0939 74.886 58.0939 74.552V68.72H59.1619V74.504C59.1619 74.77 59.1649 74.9965 59.1709 75.1835C59.1769 75.3705 59.2179 75.532 59.2939 75.668C59.4379 75.926 59.6669 76.0765 59.9809 76.1195C60.2949 76.1625 60.6739 76.15 61.1179 76.082V77ZM56.7799 71.402V70.52H61.1179V71.402H56.7799Z" fill="#475569"/>
</svg>
