<svg width="78" height="80" viewBox="0 0 78 80" fill="none" xmlns="http://www.w3.org/2000/svg">
<rect x="10.75" width="56" height="56" rx="16" fill="#10B981" fill-opacity="0.1"/>
<path d="M29.125 38.5V19.8333C29.125 19.1917 29.3535 18.6424 29.8104 18.1854C30.2674 17.7285 30.8167 17.5 31.4583 17.5H38.4583C39.1 17.5 39.6493 17.7285 40.1062 18.1854C40.5632 18.6424 40.7917 19.1917 40.7917 19.8333V28H41.9583C42.6 28 43.1493 28.2285 43.6062 28.6854C44.0632 29.1424 44.2917 29.6917 44.2917 30.3333V35.5833C44.2917 35.9139 44.4035 36.191 44.6271 36.4146C44.8507 36.6382 45.1278 36.75 45.4583 36.75C45.7889 36.75 46.066 36.6382 46.2896 36.4146C46.5132 36.191 46.625 35.9139 46.625 35.5833V27.1833C46.45 27.2806 46.2653 27.3437 46.0708 27.3729C45.8764 27.4021 45.6722 27.4167 45.4583 27.4167C44.6417 27.4167 43.9514 27.1347 43.3875 26.5708C42.8236 26.0069 42.5417 25.3167 42.5417 24.5C42.5417 23.8778 42.7118 23.3187 43.0521 22.8229C43.3924 22.3271 43.8444 21.9722 44.4083 21.7583L41.9583 19.3083L43.1833 18.0833L47.5 22.2833C47.7917 22.575 48.0104 22.9153 48.1562 23.3042C48.3021 23.6931 48.375 24.0917 48.375 24.5V35.5833C48.375 36.4 48.0931 37.0903 47.5292 37.6542C46.9653 38.2181 46.275 38.5 45.4583 38.5C44.6417 38.5 43.9514 38.2181 43.3875 37.6542C42.8236 37.0903 42.5417 36.4 42.5417 35.5833V29.75V29.75V29.75H40.7917V38.5H29.125V38.5M31.4583 25.6667H38.4583V19.8333V19.8333V19.8333H31.4583V19.8333V19.8333V25.6667V25.6667M45.4583 25.6667C45.7889 25.6667 46.066 25.5549 46.2896 25.3313C46.5132 25.1076 46.625 24.8306 46.625 24.5C46.625 24.1694 46.5132 23.8924 46.2896 23.6687C46.066 23.4451 45.7889 23.3333 45.4583 23.3333C45.1278 23.3333 44.8507 23.4451 44.6271 23.6687C44.4035 23.8924 44.2917 24.1694 44.2917 24.5C44.2917 24.8306 44.4035 25.1076 44.6271 25.3313C44.8507 25.5549 45.1278 25.6667 45.4583 25.6667V25.6667M31.4583 36.1667H38.4583V28H31.4583V36.1667V36.1667M38.4583 36.1667H31.4583V36.1667H38.4583V36.1667V36.1667" fill="#10B981"/>
<path d="M27.8659 77V68.36H32.9059V69.428H28.9339V72.146H32.1859V73.214H28.9339V77H27.8659ZM36.4459 77.168C36.0279 77.168 35.6704 77.102 35.3734 76.97C35.0764 76.838 34.8299 76.6625 34.6339 76.4435C34.4379 76.2245 34.2839 75.9805 34.1719 75.7115C34.0599 75.4425 33.9809 75.1685 33.9349 74.8895C33.8889 74.6105 33.8659 74.348 33.8659 74.102V70.52H34.9459V73.766C34.9459 74.07 34.9734 74.3645 35.0284 74.6495C35.0834 74.9345 35.1779 75.1905 35.3119 75.4175C35.4459 75.6445 35.6259 75.824 35.8519 75.956C36.0779 76.088 36.3619 76.154 36.7039 76.154C36.9719 76.154 37.2154 76.1085 37.4344 76.0175C37.6534 75.9265 37.8409 75.7895 37.9969 75.6065C38.1529 75.4235 38.2734 75.1925 38.3584 74.9135C38.4434 74.6345 38.4859 74.308 38.4859 73.934L39.1879 74.15C39.1879 74.776 39.0749 75.3145 38.8489 75.7655C38.6229 76.2165 38.3049 76.563 37.8949 76.805C37.4849 77.047 37.0019 77.168 36.4459 77.168ZM38.6059 77V75.266H38.4859V70.52H39.5599V77H38.6059ZM44.0479 77.18C43.4099 77.18 42.8539 77.0395 42.3799 76.7585C41.9059 76.4775 41.5374 76.0835 41.2744 75.5765C41.0114 75.0695 40.8799 74.478 40.8799 73.802C40.8799 73.094 41.0094 72.481 41.2684 71.963C41.5274 71.445 41.8904 71.045 42.3574 70.763C42.8244 70.481 43.3719 70.34 43.9999 70.34C44.6499 70.34 45.2039 70.49 45.6619 70.79C46.1199 71.09 46.4644 71.518 46.6954 72.074C46.9264 72.63 47.0249 73.292 46.9909 74.06H45.9139V73.676C45.9019 72.88 45.7399 72.285 45.4279 71.891C45.1159 71.497 44.6519 71.3 44.0359 71.3C43.3739 71.3 42.8714 71.512 42.5284 71.936C42.1854 72.36 42.0139 72.968 42.0139 73.76C42.0139 74.524 42.1854 75.116 42.5284 75.536C42.8714 75.956 43.3619 76.166 43.9999 76.166C44.4279 76.166 44.7999 76.068 45.1159 75.872C45.4319 75.676 45.6799 75.394 45.8599 75.026L46.8859 75.38C46.6319 75.952 46.2524 76.395 45.7474 76.709C45.2424 77.023 44.6759 77.18 44.0479 77.18ZM41.6539 74.06V73.202H46.4419V74.06H41.6539ZM48.4459 77V68.18H49.5139V77H48.4459Z" fill="#475569"/>
</svg>
