<svg width="78" height="80" viewBox="0 0 78 80" fill="none" xmlns="http://www.w3.org/2000/svg">
<rect x="10.75" width="56" height="56" rx="16" fill="#F97316" fill-opacity="0.1"/>
<path d="M31.7498 39.6668C31.1082 39.6668 30.5589 39.4384 30.1019 38.9814C29.645 38.5245 29.4165 37.9752 29.4165 37.3335V18.6668C29.4165 18.0252 29.645 17.4759 30.1019 17.0189C30.5589 16.562 31.1082 16.3335 31.7498 16.3335H45.7498C46.3915 16.3335 46.9408 16.562 47.3978 17.0189C47.8547 17.4759 48.0832 18.0252 48.0832 18.6668V37.3335C48.0832 37.9752 47.8547 38.5245 47.3978 38.9814C46.9408 39.4384 46.3915 39.6668 45.7498 39.6668H31.7498V39.6668M31.7498 37.3335H45.7498V37.3335V37.3335V18.6668V18.6668V18.6668H43.4165V26.8335L40.4998 25.0835L37.5832 26.8335V18.6668H31.7498V18.6668V18.6668V37.3335V37.3335V37.3335V37.3335M31.7498 37.3335V37.3335V37.3335V18.6668V18.6668V18.6668V18.6668V18.6668V18.6668V37.3335V37.3335V37.3335V37.3335V37.3335M37.5832 26.8335L40.4998 25.0835L43.4165 26.8335V26.8335L40.4998 25.0835L37.5832 26.8335V26.8335V26.8335" fill="#F97316"/>
<path d="M22.4871 77V68.36H25.8531C26.3691 68.36 26.8101 68.466 27.1761 68.678C27.5421 68.89 27.8221 69.169 28.0161 69.515C28.2101 69.861 28.3071 70.234 28.3071 70.634C28.3071 71.104 28.1866 71.5145 27.9456 71.8655C27.7046 72.2165 27.3811 72.458 26.9751 72.59L26.9631 72.296C27.5191 72.444 27.9511 72.7165 28.2591 73.1135C28.5671 73.5105 28.7211 73.982 28.7211 74.528C28.7211 75.032 28.6176 75.4685 28.4106 75.8375C28.2036 76.2065 27.9076 76.4925 27.5226 76.6955C27.1376 76.8985 26.6811 77 26.1531 77H22.4871ZM23.5671 75.98H25.9491C26.2671 75.98 26.5526 75.9215 26.8056 75.8045C27.0586 75.6875 27.2581 75.5205 27.4041 75.3035C27.5501 75.0865 27.6231 74.826 27.6231 74.522C27.6231 74.232 27.5576 73.9705 27.4266 73.7375C27.2956 73.5045 27.1131 73.319 26.8791 73.181C26.6451 73.043 26.3751 72.974 26.0691 72.974H23.5671V75.98ZM23.5671 71.966H25.8411C26.0951 71.966 26.3256 71.911 26.5326 71.801C26.7396 71.691 26.9041 71.5365 27.0261 71.3375C27.1481 71.1385 27.2091 70.904 27.2091 70.634C27.2091 70.262 27.0826 69.958 26.8296 69.722C26.5766 69.486 26.2471 69.368 25.8411 69.368H23.5671V71.966ZM32.6751 77.18C32.0291 77.18 31.4731 77.034 31.0071 76.742C30.5411 76.45 30.1826 76.0465 29.9316 75.5315C29.6806 75.0165 29.5551 74.424 29.5551 73.754C29.5551 73.076 29.6831 72.4805 29.9391 71.9675C30.1951 71.4545 30.5566 71.055 31.0236 70.769C31.4906 70.483 32.0411 70.34 32.6751 70.34C33.3231 70.34 33.8806 70.4855 34.3476 70.7765C34.8146 71.0675 35.1736 71.4695 35.4246 71.9825C35.6756 72.4955 35.8011 73.086 35.8011 73.754C35.8011 74.432 35.6746 75.028 35.4216 75.542C35.1686 76.056 34.8081 76.4575 34.3401 76.7465C33.8721 77.0355 33.3171 77.18 32.6751 77.18ZM32.6751 76.166C33.3451 76.166 33.8446 75.942 34.1736 75.494C34.5026 75.046 34.6671 74.466 34.6671 73.754C34.6671 73.024 34.5011 72.4415 34.1691 72.0065C33.8371 71.5715 33.3391 71.354 32.6751 71.354C32.2231 71.354 31.8506 71.456 31.5576 71.66C31.2646 71.864 31.0466 72.146 30.9036 72.506C30.7606 72.866 30.6891 73.282 30.6891 73.754C30.6891 74.484 30.8571 75.0685 31.1931 75.5075C31.5291 75.9465 32.0231 76.166 32.6751 76.166ZM39.8811 77.18C39.2351 77.18 38.6791 77.034 38.2131 76.742C37.7471 76.45 37.3886 76.0465 37.1376 75.5315C36.8866 75.0165 36.7611 74.424 36.7611 73.754C36.7611 73.076 36.8891 72.4805 37.1451 71.9675C37.4011 71.4545 37.7626 71.055 38.2296 70.769C38.6966 70.483 39.2471 70.34 39.8811 70.34C40.5291 70.34 41.0866 70.4855 41.5536 70.7765C42.0206 71.0675 42.3796 71.4695 42.6306 71.9825C42.8816 72.4955 43.0071 73.086 43.0071 73.754C43.0071 74.432 42.8806 75.028 42.6276 75.542C42.3746 76.056 42.0141 76.4575 41.5461 76.7465C41.0781 77.0355 40.5231 77.18 39.8811 77.18ZM39.8811 76.166C40.5511 76.166 41.0506 75.942 41.3796 75.494C41.7086 75.046 41.8731 74.466 41.8731 73.754C41.8731 73.024 41.7071 72.4415 41.3751 72.0065C41.0431 71.5715 40.5451 71.354 39.8811 71.354C39.4291 71.354 39.0566 71.456 38.7636 71.66C38.4706 71.864 38.2526 72.146 38.1096 72.506C37.9666 72.866 37.8951 73.282 37.8951 73.754C37.8951 74.484 38.0631 75.0685 38.3991 75.5075C38.7351 75.9465 39.2291 76.166 39.8811 76.166ZM44.3211 77L44.3271 68.36H45.4071V73.64L48.1251 70.52H49.5111L46.6491 73.76L49.8471 77H48.3531L45.4071 73.88V77H44.3211ZM52.7751 77.174C52.0011 77.174 51.3676 77.005 50.8746 76.667C50.3816 76.329 50.0791 75.856 49.9671 75.248L51.0591 75.074C51.1471 75.426 51.3491 75.705 51.6651 75.911C51.9811 76.117 52.3731 76.22 52.8411 76.22C53.2831 76.22 53.6306 76.1285 53.8836 75.9455C54.1366 75.7625 54.2631 75.512 54.2631 75.194C54.2631 75.012 54.2211 74.864 54.1371 74.75C54.0531 74.636 53.8801 74.529 53.6181 74.429C53.3561 74.329 52.9611 74.208 52.4331 74.066C51.8611 73.914 51.4106 73.7565 51.0816 73.5935C50.7526 73.4305 50.5186 73.241 50.3796 73.025C50.2406 72.809 50.1711 72.546 50.1711 72.236C50.1711 71.856 50.2751 71.5235 50.4831 71.2385C50.6911 70.9535 50.9816 70.7325 51.3546 70.5755C51.7276 70.4185 52.1631 70.34 52.6611 70.34C53.1531 70.34 53.5926 70.4185 53.9796 70.5755C54.3666 70.7325 54.6791 70.9535 54.9171 71.2385C55.1551 71.5235 55.2971 71.856 55.3431 72.236L54.2511 72.434C54.1991 72.088 54.0316 71.8145 53.7486 71.6135C53.4656 71.4125 53.1031 71.306 52.6611 71.294C52.2411 71.28 51.9001 71.355 51.6381 71.519C51.3761 71.683 51.2451 71.904 51.2451 72.182C51.2451 72.34 51.2936 72.4745 51.3906 72.5855C51.4876 72.6965 51.6696 72.802 51.9366 72.902C52.2036 73.002 52.5911 73.116 53.0991 73.244C53.6691 73.39 54.1191 73.5475 54.4491 73.7165C54.7791 73.8855 55.0146 74.0855 55.1556 74.3165C55.2966 74.5475 55.3671 74.83 55.3671 75.164C55.3671 75.79 55.1371 76.2815 54.6771 76.6385C54.2171 76.9955 53.5831 77.174 52.7751 77.174Z" fill="#475569"/>
</svg>
