<svg width="78" height="80" viewBox="0 0 78 80" fill="none" xmlns="http://www.w3.org/2000/svg">
<rect x="10.75" width="56" height="56" rx="16" fill="#EC4899" fill-opacity="0.1"/>
<path d="M29.4168 18.6665L31.7502 23.3332H35.2502L32.9168 18.6665H35.2502L37.5835 23.3332H41.0835L38.7502 18.6665H41.0835L43.4168 23.3332H46.9168L44.5835 18.6665H48.0835C48.7252 18.6665 49.2745 18.895 49.7314 19.3519C50.1884 19.8089 50.4168 20.3582 50.4168 20.9998V34.9998C50.4168 35.6415 50.1884 36.1908 49.7314 36.6478C49.2745 37.1047 48.7252 37.3332 48.0835 37.3332H29.4168C28.7752 37.3332 28.2259 37.1047 27.7689 36.6478C27.312 36.1908 27.0835 35.6415 27.0835 34.9998V20.9998C27.0835 20.3582 27.312 19.8089 27.7689 19.3519C28.2259 18.895 28.7752 18.6665 29.4168 18.6665V18.6665V18.6665M29.4168 25.6665V34.9998V34.9998V34.9998H48.0835V34.9998V34.9998V25.6665H29.4168V25.6665M29.4168 25.6665V25.6665V34.9998V34.9998V34.9998V34.9998V34.9998V34.9998V25.6665V25.6665" fill="#EC4899"/>
<path d="M21.6949 77.18C20.8329 77.18 20.1019 76.99 19.5019 76.61C18.9019 76.23 18.4454 75.702 18.1324 75.026C17.8194 74.35 17.6629 73.568 17.6629 72.68C17.6629 71.792 17.8194 71.01 18.1324 70.334C18.4454 69.658 18.9019 69.13 19.5019 68.75C20.1019 68.37 20.8329 68.18 21.6949 68.18C22.6949 68.18 23.5174 68.4345 24.1624 68.9435C24.8074 69.4525 25.2529 70.136 25.4989 70.994L24.4129 71.282C24.2369 70.638 23.9224 70.13 23.4694 69.758C23.0164 69.386 22.4249 69.2 21.6949 69.2C21.0509 69.2 20.5149 69.346 20.0869 69.638C19.6589 69.93 19.3369 70.3375 19.1209 70.8605C18.9049 71.3835 18.7949 71.99 18.7909 72.68C18.7869 73.37 18.8929 73.976 19.1089 74.498C19.3249 75.02 19.6489 75.4275 20.0809 75.7205C20.5129 76.0135 21.0509 76.16 21.6949 76.16C22.4249 76.16 23.0164 75.973 23.4694 75.599C23.9224 75.225 24.2369 74.718 24.4129 74.078L25.4989 74.366C25.2529 75.224 24.8074 75.9075 24.1624 76.4165C23.5174 76.9255 22.6949 77.18 21.6949 77.18ZM26.9389 69.374V68.27H28.0069V69.374H26.9389ZM26.9389 77V70.52H28.0069V77H26.9389ZM34.4209 77V73.754C34.4209 73.448 34.3934 73.153 34.3384 72.869C34.2834 72.585 34.1889 72.3295 34.0549 72.1025C33.9209 71.8755 33.7409 71.696 33.5149 71.564C33.2889 71.432 33.0049 71.366 32.6629 71.366C32.3949 71.366 32.1514 71.4115 31.9324 71.5025C31.7134 71.5935 31.5259 71.7305 31.3699 71.9135C31.2139 72.0965 31.0934 72.327 31.0084 72.605C30.9234 72.883 30.8809 73.21 30.8809 73.586L30.1789 73.37C30.1789 72.744 30.2919 72.2055 30.5179 71.7545C30.7439 71.3035 31.0619 70.957 31.4719 70.715C31.8819 70.473 32.3649 70.352 32.9209 70.352C33.3389 70.352 33.6964 70.418 33.9934 70.55C34.2904 70.682 34.5369 70.8575 34.7329 71.0765C34.9289 71.2955 35.0829 71.5395 35.1949 71.8085C35.3069 72.0775 35.3859 72.3515 35.4319 72.6305C35.4779 72.9095 35.5009 73.172 35.5009 73.418V77H34.4209ZM29.8009 77V70.52H30.7609V72.254H30.8809V77H29.8009ZM39.8089 77.18C39.1709 77.18 38.6149 77.0395 38.1409 76.7585C37.6669 76.4775 37.2984 76.0835 37.0354 75.5765C36.7724 75.0695 36.6409 74.478 36.6409 73.802C36.6409 73.094 36.7704 72.481 37.0294 71.963C37.2884 71.445 37.6514 71.045 38.1184 70.763C38.5854 70.481 39.1329 70.34 39.7609 70.34C40.4109 70.34 40.9649 70.49 41.4229 70.79C41.8809 71.09 42.2254 71.518 42.4564 72.074C42.6874 72.63 42.7859 73.292 42.7519 74.06H41.6749V73.676C41.6629 72.88 41.5009 72.285 41.1889 71.891C40.8769 71.497 40.4129 71.3 39.7969 71.3C39.1349 71.3 38.6324 71.512 38.2894 71.936C37.9464 72.36 37.7749 72.968 37.7749 73.76C37.7749 74.524 37.9464 75.116 38.2894 75.536C38.6324 75.956 39.1229 76.166 39.7609 76.166C40.1889 76.166 40.5609 76.068 40.8769 75.872C41.1929 75.676 41.4409 75.394 41.6209 75.026L42.6469 75.38C42.3929 75.952 42.0134 76.395 41.5084 76.709C41.0034 77.023 40.4369 77.18 39.8089 77.18ZM37.4149 74.06V73.202H42.2029V74.06H37.4149ZM51.6529 77L51.6589 72.854C51.6589 72.37 51.5294 71.991 51.2704 71.717C51.0114 71.443 50.6769 71.306 50.2669 71.306C50.0249 71.306 49.7964 71.3615 49.5814 71.4725C49.3664 71.5835 49.1909 71.7555 49.0549 71.9885C48.9189 72.2215 48.8509 72.52 48.8509 72.884L48.2869 72.656C48.2769 72.196 48.3709 71.793 48.5689 71.447C48.7669 71.101 49.0384 70.832 49.3834 70.64C49.7284 70.448 50.1169 70.352 50.5489 70.352C51.2249 70.352 51.7569 70.5575 52.1449 70.9685C52.5329 71.3795 52.7269 71.93 52.7269 72.62L52.7209 77H51.6529ZM43.9009 77V70.52H44.8549V72.254H44.9749V77H43.9009ZM47.7829 77L47.7889 72.896C47.7889 72.402 47.6609 72.0135 47.4049 71.7305C47.1489 71.4475 46.8089 71.306 46.3849 71.306C45.9629 71.306 45.6224 71.4505 45.3634 71.7395C45.1044 72.0285 44.9749 72.41 44.9749 72.884L44.4109 72.548C44.4109 72.128 44.5109 71.7525 44.7109 71.4215C44.9109 71.0905 45.1829 70.8295 45.5269 70.6385C45.8709 70.4475 46.2609 70.352 46.6969 70.352C47.1329 70.352 47.5124 70.4445 47.8354 70.6295C48.1584 70.8145 48.4084 71.078 48.5854 71.42C48.7624 71.762 48.8509 72.168 48.8509 72.638L48.8449 77H47.7829ZM56.1289 77.18C55.6449 77.18 55.2394 77.0915 54.9124 76.9145C54.5854 76.7375 54.3394 76.5025 54.1744 76.2095C54.0094 75.9165 53.9269 75.596 53.9269 75.248C53.9269 74.908 53.9914 74.6135 54.1204 74.3645C54.2494 74.1155 54.4324 73.9075 54.6694 73.7405C54.9064 73.5735 55.1889 73.442 55.5169 73.346C55.8249 73.264 56.1694 73.1915 56.5504 73.1285C56.9314 73.0655 57.3179 73.0085 57.7099 72.9575C58.1019 72.9065 58.4689 72.856 58.8109 72.806L58.4269 73.028C58.4369 72.454 58.3214 72.0285 58.0804 71.7515C57.8394 71.4745 57.4229 71.336 56.8309 71.336C56.4389 71.336 56.0954 71.4255 55.8004 71.6045C55.5054 71.7835 55.2989 72.072 55.1809 72.47L54.1669 72.164C54.3209 71.596 54.6224 71.15 55.0714 70.826C55.5204 70.502 56.1109 70.34 56.8429 70.34C57.4289 70.34 57.9329 70.445 58.3549 70.655C58.7769 70.865 59.0809 71.182 59.2669 71.606C59.3589 71.806 59.4169 72.023 59.4409 72.257C59.4649 72.491 59.4769 72.736 59.4769 72.992V77H58.5289V75.446L58.7509 75.59C58.5069 76.116 58.1654 76.5125 57.7264 76.7795C57.2874 77.0465 56.7549 77.18 56.1289 77.18ZM56.2909 76.286C56.6749 76.286 57.0079 76.2175 57.2899 76.0805C57.5719 75.9435 57.7989 75.7615 57.9709 75.5345C58.1429 75.3075 58.2549 75.06 58.3069 74.792C58.3649 74.592 58.3974 74.3695 58.4044 74.1245C58.4114 73.8795 58.4149 73.69 58.4149 73.556L58.7869 73.718C58.4389 73.768 58.0964 73.815 57.7594 73.859C57.4224 73.903 57.1039 73.9495 56.8039 73.9985C56.5039 74.0475 56.2349 74.106 55.9969 74.174C55.8189 74.23 55.6534 74.3025 55.5004 74.3915C55.3474 74.4805 55.2239 74.594 55.1299 74.732C55.0359 74.87 54.9889 75.04 54.9889 75.242C54.9889 75.42 55.0334 75.5885 55.1224 75.7475C55.2114 75.9065 55.3514 76.036 55.5424 76.136C55.7334 76.236 55.9829 76.286 56.2909 76.286Z" fill="#475569"/>
</svg>
