<svg width="78" height="80" viewBox="0 0 78 80" fill="none" xmlns="http://www.w3.org/2000/svg">
<rect x="10.75" width="56" height="56" rx="16" fill="#64748B" fill-opacity="0.1"/>
<path d="M46.9168 38.5002L38.7502 30.3335L36.0085 33.0752C36.1641 33.3668 36.271 33.6779 36.3293 34.0085C36.3877 34.3391 36.4168 34.6696 36.4168 35.0002C36.4168 36.2835 35.9599 37.3821 35.046 38.296C34.1321 39.2099 33.0335 39.6668 31.7502 39.6668C30.4668 39.6668 29.3682 39.2099 28.4543 38.296C27.5404 37.3821 27.0835 36.2835 27.0835 35.0002C27.0835 33.7168 27.5404 32.6182 28.4543 31.7043C29.3682 30.7904 30.4668 30.3335 31.7502 30.3335C32.0807 30.3335 32.4113 30.3627 32.7418 30.421C33.0724 30.4793 33.3835 30.5863 33.6752 30.7418L36.4168 28.0002L33.6752 25.2585C33.3835 25.4141 33.0724 25.521 32.7418 25.5793C32.4113 25.6377 32.0807 25.6668 31.7502 25.6668C30.4668 25.6668 29.3682 25.2099 28.4543 24.296C27.5404 23.3821 27.0835 22.2835 27.0835 21.0002C27.0835 19.7168 27.5404 18.6182 28.4543 17.7043C29.3682 16.7904 30.4668 16.3335 31.7502 16.3335C33.0335 16.3335 34.1321 16.7904 35.046 17.7043C35.9599 18.6182 36.4168 19.7168 36.4168 21.0002C36.4168 21.3307 36.3877 21.6613 36.3293 21.9918C36.271 22.3224 36.1641 22.6335 36.0085 22.9252L50.4168 37.3335V38.5002H46.9168ZM42.2502 26.8335L39.9168 24.5002L46.9168 17.5002H50.4168V18.6668L42.2502 26.8335ZM31.7502 23.3335C32.3918 23.3335 32.9411 23.105 33.3981 22.6481C33.855 22.1911 34.0835 21.6418 34.0835 21.0002C34.0835 20.3585 33.855 19.8092 33.3981 19.3522C32.9411 18.8953 32.3918 18.6668 31.7502 18.6668C31.1085 18.6668 30.5592 18.8953 30.1022 19.3522C29.6453 19.8092 29.4168 20.3585 29.4168 21.0002C29.4168 21.6418 29.6453 22.1911 30.1022 22.6481C30.5592 23.105 31.1085 23.3335 31.7502 23.3335ZM38.7502 28.5835C38.9057 28.5835 39.0418 28.5252 39.1585 28.4085C39.2752 28.2918 39.3335 28.1557 39.3335 28.0002C39.3335 27.8446 39.2752 27.7085 39.1585 27.5918C39.0418 27.4752 38.9057 27.4168 38.7502 27.4168C38.5946 27.4168 38.4585 27.4752 38.3418 27.5918C38.2252 27.7085 38.1668 27.8446 38.1668 28.0002C38.1668 28.1557 38.2252 28.2918 38.3418 28.4085C38.4585 28.5252 38.5946 28.5835 38.7502 28.5835ZM31.7502 37.3335C32.3918 37.3335 32.9411 37.105 33.3981 36.6481C33.855 36.1911 34.0835 35.6418 34.0835 35.0002C34.0835 34.3585 33.855 33.8092 33.3981 33.3522C32.9411 32.8953 32.3918 32.6668 31.7502 32.6668C31.1085 32.6668 30.5592 32.8953 30.1022 33.3522C29.6453 33.8092 29.4168 34.3585 29.4168 35.0002C29.4168 35.6418 29.6453 36.1911 30.1022 36.6481C30.5592 37.105 31.1085 37.3335 31.7502 37.3335Z" fill="#64748B"/>
<path d="M20.8758 77V68.36H24.2418C24.7578 68.36 25.1988 68.466 25.5648 68.678C25.9308 68.89 26.2108 69.169 26.4048 69.515C26.5988 69.861 26.6958 70.234 26.6958 70.634C26.6958 71.104 26.5753 71.5145 26.3343 71.8655C26.0933 72.2165 25.7698 72.458 25.3638 72.59L25.3518 72.296C25.9078 72.444 26.3398 72.7165 26.6478 73.1135C26.9558 73.5105 27.1098 73.982 27.1098 74.528C27.1098 75.032 27.0063 75.4685 26.7993 75.8375C26.5923 76.2065 26.2963 76.4925 25.9113 76.6955C25.5263 76.8985 25.0698 77 24.5418 77H20.8758ZM21.9558 75.98H24.3378C24.6558 75.98 24.9413 75.9215 25.1943 75.8045C25.4473 75.6875 25.6468 75.5205 25.7928 75.3035C25.9388 75.0865 26.0118 74.826 26.0118 74.522C26.0118 74.232 25.9463 73.9705 25.8153 73.7375C25.6843 73.5045 25.5018 73.319 25.2678 73.181C25.0338 73.043 24.7638 72.974 24.4578 72.974H21.9558V75.98ZM21.9558 71.966H24.2298C24.4838 71.966 24.7143 71.911 24.9213 71.801C25.1283 71.691 25.2928 71.5365 25.4148 71.3375C25.5368 71.1385 25.5978 70.904 25.5978 70.634C25.5978 70.262 25.4713 69.958 25.2183 69.722C24.9653 69.486 24.6358 69.368 24.2298 69.368H21.9558V71.966ZM30.1458 77.18C29.6618 77.18 29.2563 77.0915 28.9293 76.9145C28.6023 76.7375 28.3563 76.5025 28.1913 76.2095C28.0263 75.9165 27.9438 75.596 27.9438 75.248C27.9438 74.908 28.0083 74.6135 28.1373 74.3645C28.2663 74.1155 28.4493 73.9075 28.6863 73.7405C28.9233 73.5735 29.2058 73.442 29.5338 73.346C29.8418 73.264 30.1863 73.1915 30.5673 73.1285C30.9483 73.0655 31.3348 73.0085 31.7268 72.9575C32.1188 72.9065 32.4858 72.856 32.8278 72.806L32.4438 73.028C32.4538 72.454 32.3383 72.0285 32.0973 71.7515C31.8563 71.4745 31.4398 71.336 30.8478 71.336C30.4558 71.336 30.1123 71.4255 29.8173 71.6045C29.5223 71.7835 29.3158 72.072 29.1978 72.47L28.1838 72.164C28.3378 71.596 28.6393 71.15 29.0883 70.826C29.5373 70.502 30.1278 70.34 30.8598 70.34C31.4458 70.34 31.9498 70.445 32.3718 70.655C32.7938 70.865 33.0978 71.182 33.2838 71.606C33.3758 71.806 33.4338 72.023 33.4578 72.257C33.4818 72.491 33.4938 72.736 33.4938 72.992V77H32.5458V75.446L32.7678 75.59C32.5238 76.116 32.1823 76.5125 31.7433 76.7795C31.3043 77.0465 30.7718 77.18 30.1458 77.18ZM30.3078 76.286C30.6918 76.286 31.0248 76.2175 31.3068 76.0805C31.5888 75.9435 31.8158 75.7615 31.9878 75.5345C32.1598 75.3075 32.2718 75.06 32.3238 74.792C32.3818 74.592 32.4143 74.3695 32.4213 74.1245C32.4283 73.8795 32.4318 73.69 32.4318 73.556L32.8038 73.718C32.4558 73.768 32.1133 73.815 31.7763 73.859C31.4393 73.903 31.1208 73.9495 30.8208 73.9985C30.5208 74.0475 30.2518 74.106 30.0138 74.174C29.8358 74.23 29.6703 74.3025 29.5173 74.3915C29.3643 74.4805 29.2408 74.594 29.1468 74.732C29.0528 74.87 29.0058 75.04 29.0058 75.242C29.0058 75.42 29.0503 75.5885 29.1393 75.7475C29.2283 75.9065 29.3683 76.036 29.5593 76.136C29.7503 76.236 29.9998 76.286 30.3078 76.286ZM35.0538 77V70.52H36.0078V72.086L35.8518 71.882C35.9278 71.682 36.0268 71.498 36.1488 71.33C36.2708 71.162 36.4078 71.024 36.5598 70.916C36.7258 70.782 36.9153 70.679 37.1283 70.607C37.3413 70.535 37.5578 70.492 37.7778 70.478C37.9978 70.464 38.2038 70.478 38.3958 70.52V71.522C38.1718 71.464 37.9253 71.449 37.6563 71.477C37.3873 71.505 37.1398 71.602 36.9138 71.768C36.7038 71.918 36.5423 72.0985 36.4293 72.3095C36.3163 72.5205 36.2378 72.749 36.1938 72.995C36.1498 73.241 36.1278 73.492 36.1278 73.748V77H35.0538ZM42.5118 77.18C41.9038 77.18 41.3918 77.029 40.9758 76.727C40.5598 76.425 40.2448 76.0155 40.0308 75.4985C39.8168 74.9815 39.7098 74.4 39.7098 73.754C39.7098 73.102 39.8168 72.5185 40.0308 72.0035C40.2448 71.4885 40.5603 71.0825 40.9773 70.7855C41.3943 70.4885 41.9078 70.34 42.5178 70.34C43.1178 70.34 43.6343 70.4895 44.0673 70.7885C44.5003 71.0875 44.8333 71.4945 45.0663 72.0095C45.2993 72.5245 45.4158 73.106 45.4158 73.754C45.4158 74.402 45.2993 74.9845 45.0663 75.5015C44.8333 76.0185 44.5003 76.4275 44.0673 76.7285C43.6343 77.0295 43.1158 77.18 42.5118 77.18ZM39.5298 77V68.36H40.6038V72.23H40.4838V77H39.5298ZM42.3798 76.202C42.8058 76.202 43.1593 76.094 43.4403 75.878C43.7213 75.662 43.9318 75.369 44.0718 74.999C44.2118 74.629 44.2818 74.214 44.2818 73.754C44.2818 73.298 44.2123 72.886 44.0733 72.518C43.9343 72.15 43.7223 71.858 43.4373 71.642C43.1523 71.426 42.7898 71.318 42.3498 71.318C41.9278 71.318 41.5788 71.421 41.3028 71.627C41.0268 71.833 40.8213 72.1195 40.6863 72.4865C40.5513 72.8535 40.4838 73.276 40.4838 73.754C40.4838 74.228 40.5508 74.6495 40.6848 75.0185C40.8188 75.3875 41.0258 75.677 41.3058 75.887C41.5858 76.097 41.9438 76.202 42.3798 76.202ZM49.5438 77.18C48.9058 77.18 48.3498 77.0395 47.8758 76.7585C47.4018 76.4775 47.0333 76.0835 46.7703 75.5765C46.5073 75.0695 46.3758 74.478 46.3758 73.802C46.3758 73.094 46.5053 72.481 46.7643 71.963C47.0233 71.445 47.3863 71.045 47.8533 70.763C48.3203 70.481 48.8678 70.34 49.4958 70.34C50.1458 70.34 50.6998 70.49 51.1578 70.79C51.6158 71.09 51.9603 71.518 52.1913 72.074C52.4223 72.63 52.5208 73.292 52.4868 74.06H51.4098V73.676C51.3978 72.88 51.2358 72.285 50.9238 71.891C50.6118 71.497 50.1478 71.3 49.5318 71.3C48.8698 71.3 48.3673 71.512 48.0243 71.936C47.6813 72.36 47.5098 72.968 47.5098 73.76C47.5098 74.524 47.6813 75.116 48.0243 75.536C48.3673 75.956 48.8578 76.166 49.4958 76.166C49.9238 76.166 50.2958 76.068 50.6118 75.872C50.9278 75.676 51.1758 75.394 51.3558 75.026L52.3818 75.38C52.1278 75.952 51.7483 76.395 51.2433 76.709C50.7383 77.023 50.1718 77.18 49.5438 77.18ZM47.1498 74.06V73.202H51.9378V74.06H47.1498ZM53.8218 77V70.52H54.7758V72.086L54.6198 71.882C54.6958 71.682 54.7948 71.498 54.9168 71.33C55.0388 71.162 55.1758 71.024 55.3278 70.916C55.4938 70.782 55.6833 70.679 55.8963 70.607C56.1093 70.535 56.3258 70.492 56.5458 70.478C56.7658 70.464 56.9718 70.478 57.1638 70.52V71.522C56.9398 71.464 56.6933 71.449 56.4243 71.477C56.1553 71.505 55.9078 71.602 55.6818 71.768C55.4718 71.918 55.3103 72.0985 55.1973 72.3095C55.0843 72.5205 55.0058 72.749 54.9618 72.995C54.9178 73.241 54.8958 73.492 54.8958 73.748V77H53.8218Z" fill="#475569"/>
</svg>
