<svg width="78" height="80" viewBox="0 0 78 80" fill="none" xmlns="http://www.w3.org/2000/svg">
<rect x="10.75" width="56" height="56" rx="16" fill="#06B6D4" fill-opacity="0.1"/>
<path d="M30.5833 36.1667H32.2458L43.65 24.7625L41.9875 23.1L30.5833 34.5042V36.1667V36.1667M28.25 38.5V33.5417L43.65 18.1708C43.8833 17.9569 44.141 17.7917 44.4229 17.675C44.7049 17.5583 45.0014 17.5 45.3125 17.5C45.6236 17.5 45.925 17.5583 46.2167 17.675C46.5083 17.7917 46.7611 17.9667 46.975 18.2L48.5792 19.8333C48.8125 20.0472 48.9826 20.3 49.0896 20.5917C49.1965 20.8833 49.25 21.175 49.25 21.4667C49.25 21.7778 49.1965 22.0743 49.0896 22.3562C48.9826 22.6382 48.8125 22.8958 48.5792 23.1292L33.2083 38.5H28.25V38.5M46.9167 21.4667V21.4667L45.2833 19.8333V19.8333L46.9167 21.4667V21.4667M42.8042 23.9458L41.9875 23.1V23.1L43.65 24.7625V24.7625L42.8042 23.9458V23.9458" fill="#06B6D4"/>
<path d="M12.9168 77.18C12.3048 77.18 11.7538 77.076 11.2638 76.868C10.7738 76.66 10.3698 76.3635 10.0518 75.9785C9.73377 75.5935 9.52677 75.136 9.43077 74.606L10.5348 74.432C10.6728 74.976 10.9628 75.401 11.4048 75.707C11.8468 76.013 12.3688 76.166 12.9708 76.166C13.3568 76.166 13.7068 76.105 14.0208 75.983C14.3348 75.861 14.5843 75.6865 14.7693 75.4595C14.9543 75.2325 15.0468 74.962 15.0468 74.648C15.0468 74.458 15.0133 74.2935 14.9463 74.1545C14.8793 74.0155 14.7893 73.8975 14.6763 73.8005C14.5633 73.7035 14.4343 73.621 14.2893 73.553C14.1443 73.485 13.9948 73.428 13.8408 73.382L11.6388 72.728C11.3988 72.658 11.1668 72.568 10.9428 72.458C10.7188 72.348 10.5188 72.21 10.3428 72.044C10.1668 71.878 10.0268 71.6775 9.92277 71.4425C9.81877 71.2075 9.76677 70.93 9.76677 70.61C9.76677 70.1 9.89927 69.6635 10.1643 69.3005C10.4293 68.9375 10.7898 68.6605 11.2458 68.4695C11.7018 68.2785 12.2168 68.184 12.7908 68.186C13.3708 68.19 13.8898 68.293 14.3478 68.495C14.8058 68.697 15.1853 68.986 15.4863 69.362C15.7873 69.738 15.9908 70.188 16.0968 70.712L14.9628 70.91C14.9028 70.56 14.7698 70.2575 14.5638 70.0025C14.3578 69.7475 14.1003 69.551 13.7913 69.413C13.4823 69.275 13.1448 69.204 12.7788 69.2C12.4248 69.196 12.1058 69.2525 11.8218 69.3695C11.5378 69.4865 11.3123 69.648 11.1453 69.854C10.9783 70.06 10.8948 70.296 10.8948 70.562C10.8948 70.828 10.9703 71.042 11.1213 71.204C11.2723 71.366 11.4588 71.4935 11.6808 71.5865C11.9028 71.6795 12.1208 71.756 12.3348 71.816L13.9788 72.29C14.1668 72.342 14.3838 72.414 14.6298 72.506C14.8758 72.598 15.1148 72.7275 15.3468 72.8945C15.5788 73.0615 15.7708 73.2815 15.9228 73.5545C16.0748 73.8275 16.1508 74.172 16.1508 74.588C16.1508 75.006 16.0673 75.3765 15.9003 75.6995C15.7333 76.0225 15.5018 76.2935 15.2058 76.5125C14.9098 76.7315 14.5663 76.8975 14.1753 77.0105C13.7843 77.1235 13.3648 77.18 12.9168 77.18ZM21.0288 77C20.6428 77.078 20.2633 77.11 19.8903 77.096C19.5173 77.082 19.1843 77.006 18.8913 76.868C18.5983 76.73 18.3768 76.514 18.2268 76.22C18.0988 75.966 18.0298 75.708 18.0198 75.446C18.0098 75.184 18.0048 74.886 18.0048 74.552V68.72H19.0728V74.504C19.0728 74.77 19.0758 74.9965 19.0818 75.1835C19.0878 75.3705 19.1288 75.532 19.2048 75.668C19.3488 75.926 19.5778 76.0765 19.8918 76.1195C20.2058 76.1625 20.5848 76.15 21.0288 76.082V77ZM16.6908 71.402V70.52H21.0288V71.402H16.6908ZM24.1908 77.18C23.7068 77.18 23.3013 77.0915 22.9743 76.9145C22.6473 76.7375 22.4013 76.5025 22.2363 76.2095C22.0713 75.9165 21.9888 75.596 21.9888 75.248C21.9888 74.908 22.0533 74.6135 22.1823 74.3645C22.3113 74.1155 22.4943 73.9075 22.7313 73.7405C22.9683 73.5735 23.2508 73.442 23.5788 73.346C23.8868 73.264 24.2313 73.1915 24.6123 73.1285C24.9933 73.0655 25.3798 73.0085 25.7718 72.9575C26.1638 72.9065 26.5308 72.856 26.8728 72.806L26.4888 73.028C26.4988 72.454 26.3833 72.0285 26.1423 71.7515C25.9013 71.4745 25.4848 71.336 24.8928 71.336C24.5008 71.336 24.1573 71.4255 23.8623 71.6045C23.5673 71.7835 23.3608 72.072 23.2428 72.47L22.2288 72.164C22.3828 71.596 22.6843 71.15 23.1333 70.826C23.5823 70.502 24.1728 70.34 24.9048 70.34C25.4908 70.34 25.9948 70.445 26.4168 70.655C26.8388 70.865 27.1428 71.182 27.3288 71.606C27.4208 71.806 27.4788 72.023 27.5028 72.257C27.5268 72.491 27.5388 72.736 27.5388 72.992V77H26.5908V75.446L26.8128 75.59C26.5688 76.116 26.2273 76.5125 25.7883 76.7795C25.3493 77.0465 24.8168 77.18 24.1908 77.18ZM24.3528 76.286C24.7368 76.286 25.0698 76.2175 25.3518 76.0805C25.6338 75.9435 25.8608 75.7615 26.0328 75.5345C26.2048 75.3075 26.3168 75.06 26.3688 74.792C26.4268 74.592 26.4593 74.3695 26.4663 74.1245C26.4733 73.8795 26.4768 73.69 26.4768 73.556L26.8488 73.718C26.5008 73.768 26.1583 73.815 25.8213 73.859C25.4843 73.903 25.1658 73.9495 24.8658 73.9985C24.5658 74.0475 24.2968 74.106 24.0588 74.174C23.8808 74.23 23.7153 74.3025 23.5623 74.3915C23.4093 74.4805 23.2858 74.594 23.1918 74.732C23.0978 74.87 23.0508 75.04 23.0508 75.242C23.0508 75.42 23.0953 75.5885 23.1843 75.7475C23.2733 75.9065 23.4133 76.036 23.6043 76.136C23.7953 76.236 24.0448 76.286 24.3528 76.286ZM32.7168 77C32.3308 77.078 31.9513 77.11 31.5783 77.096C31.2053 77.082 30.8723 77.006 30.5793 76.868C30.2863 76.73 30.0648 76.514 29.9148 76.22C29.7868 75.966 29.7178 75.708 29.7078 75.446C29.6978 75.184 29.6928 74.886 29.6928 74.552V68.72H30.7608V74.504C30.7608 74.77 30.7638 74.9965 30.7698 75.1835C30.7758 75.3705 30.8168 75.532 30.8928 75.668C31.0368 75.926 31.2658 76.0765 31.5798 76.1195C31.8938 76.1625 32.2728 76.15 32.7168 76.082V77ZM28.3788 71.402V70.52H32.7168V71.402H28.3788ZM34.1568 69.374V68.27H35.2248V69.374H34.1568ZM34.1568 77V70.52H35.2248V77H34.1568ZM39.7848 77.18C39.1388 77.18 38.5828 77.034 38.1168 76.742C37.6508 76.45 37.2923 76.0465 37.0413 75.5315C36.7903 75.0165 36.6648 74.424 36.6648 73.754C36.6648 73.076 36.7928 72.4805 37.0488 71.9675C37.3048 71.4545 37.6663 71.055 38.1333 70.769C38.6003 70.483 39.1508 70.34 39.7848 70.34C40.4328 70.34 40.9903 70.4855 41.4573 70.7765C41.9243 71.0675 42.2833 71.4695 42.5343 71.9825C42.7853 72.4955 42.9108 73.086 42.9108 73.754C42.9108 74.432 42.7843 75.028 42.5313 75.542C42.2783 76.056 41.9178 76.4575 41.4498 76.7465C40.9818 77.0355 40.4268 77.18 39.7848 77.18ZM39.7848 76.166C40.4548 76.166 40.9543 75.942 41.2833 75.494C41.6123 75.046 41.7768 74.466 41.7768 73.754C41.7768 73.024 41.6108 72.4415 41.2788 72.0065C40.9468 71.5715 40.4488 71.354 39.7848 71.354C39.3328 71.354 38.9603 71.456 38.6673 71.66C38.3743 71.864 38.1563 72.146 38.0133 72.506C37.8703 72.866 37.7988 73.282 37.7988 73.754C37.7988 74.484 37.9668 75.0685 38.3028 75.5075C38.6388 75.9465 39.1328 76.166 39.7848 76.166ZM48.8448 77V73.754C48.8448 73.448 48.8173 73.153 48.7623 72.869C48.7073 72.585 48.6128 72.3295 48.4788 72.1025C48.3448 71.8755 48.1648 71.696 47.9388 71.564C47.7128 71.432 47.4288 71.366 47.0868 71.366C46.8188 71.366 46.5753 71.4115 46.3563 71.5025C46.1373 71.5935 45.9498 71.7305 45.7938 71.9135C45.6378 72.0965 45.5173 72.327 45.4323 72.605C45.3473 72.883 45.3048 73.21 45.3048 73.586L44.6028 73.37C44.6028 72.744 44.7158 72.2055 44.9418 71.7545C45.1678 71.3035 45.4858 70.957 45.8958 70.715C46.3058 70.473 46.7888 70.352 47.3448 70.352C47.7628 70.352 48.1203 70.418 48.4173 70.55C48.7143 70.682 48.9608 70.8575 49.1568 71.0765C49.3528 71.2955 49.5068 71.5395 49.6188 71.8085C49.7308 72.0775 49.8098 72.3515 49.8558 72.6305C49.9018 72.9095 49.9248 73.172 49.9248 73.418V77H48.8448ZM44.2248 77V70.52H45.1848V72.254H45.3048V77H44.2248ZM54.2328 77.18C53.5948 77.18 53.0388 77.0395 52.5648 76.7585C52.0908 76.4775 51.7223 76.0835 51.4593 75.5765C51.1963 75.0695 51.0648 74.478 51.0648 73.802C51.0648 73.094 51.1943 72.481 51.4533 71.963C51.7123 71.445 52.0753 71.045 52.5423 70.763C53.0093 70.481 53.5568 70.34 54.1848 70.34C54.8348 70.34 55.3888 70.49 55.8468 70.79C56.3048 71.09 56.6493 71.518 56.8803 72.074C57.1113 72.63 57.2098 73.292 57.1758 74.06H56.0988V73.676C56.0868 72.88 55.9248 72.285 55.6128 71.891C55.3008 71.497 54.8368 71.3 54.2208 71.3C53.5588 71.3 53.0563 71.512 52.7133 71.936C52.3703 72.36 52.1988 72.968 52.1988 73.76C52.1988 74.524 52.3703 75.116 52.7133 75.536C53.0563 75.956 53.5468 76.166 54.1848 76.166C54.6128 76.166 54.9848 76.068 55.3008 75.872C55.6168 75.676 55.8648 75.394 56.0448 75.026L57.0708 75.38C56.8168 75.952 56.4373 76.395 55.9323 76.709C55.4273 77.023 54.8608 77.18 54.2328 77.18ZM51.8388 74.06V73.202H56.6268V74.06H51.8388ZM58.5108 77V70.52H59.4648V72.086L59.3088 71.882C59.3848 71.682 59.4838 71.498 59.6058 71.33C59.7278 71.162 59.8648 71.024 60.0168 70.916C60.1828 70.782 60.3723 70.679 60.5853 70.607C60.7983 70.535 61.0148 70.492 61.2348 70.478C61.4548 70.464 61.6608 70.478 61.8528 70.52V71.522C61.6288 71.464 61.3823 71.449 61.1133 71.477C60.8443 71.505 60.5968 71.602 60.3708 71.768C60.1608 71.918 59.9993 72.0985 59.8863 72.3095C59.7733 72.5205 59.6948 72.749 59.6508 72.995C59.6068 73.241 59.5848 73.492 59.5848 73.748V77H58.5108ZM63.7728 79.88L65.0268 76.472L65.0448 77.48L62.2128 70.52H63.3348L65.5548 76.118H65.1708L67.2528 70.52H68.3388L64.8108 79.88H63.7728Z" fill="#475569"/>
</svg>
