<svg width="78" height="80" viewBox="0 0 78 80" fill="none" xmlns="http://www.w3.org/2000/svg">
<rect x="10.75" width="56" height="56" rx="16" fill="#F43F5E" fill-opacity="0.1"/>
<path d="M27.0835 24.4998V20.9998C27.0835 20.3582 27.312 19.8089 27.7689 19.3519C28.2259 18.895 28.7752 18.6665 29.4168 18.6665H48.0835C48.7252 18.6665 49.2745 18.895 49.7314 19.3519C50.1884 19.8089 50.4168 20.3582 50.4168 20.9998V24.4998H48.0835V20.9998H29.4168V24.4998H27.0835ZM29.4168 37.3332C28.7752 37.3332 28.2259 37.1047 27.7689 36.6478C27.312 36.1908 27.0835 35.6415 27.0835 34.9998V31.4998H29.4168V34.9998H48.0835V31.4998H50.4168V34.9998C50.4168 35.6415 50.1884 36.1908 49.7314 36.6478C49.2745 37.1047 48.7252 37.3332 48.0835 37.3332H29.4168ZM36.4168 33.8332C36.6307 33.8332 36.8349 33.7797 37.0293 33.6728C37.2238 33.5658 37.3696 33.4054 37.4668 33.1915L41.0835 25.9582L42.3668 28.5248C42.4641 28.7387 42.6099 28.8991 42.8043 29.0061C42.9988 29.113 43.2029 29.1665 43.4168 29.1665H50.4168V26.8332H44.146L42.1335 22.8082C42.0363 22.5943 41.8904 22.4436 41.696 22.3561C41.5016 22.2686 41.2974 22.2248 41.0835 22.2248C40.8696 22.2248 40.6654 22.2686 40.471 22.3561C40.2766 22.4436 40.1307 22.5943 40.0335 22.8082L36.4168 30.0415L35.1335 27.4748C35.0363 27.2609 34.8904 27.1005 34.696 26.9936C34.5016 26.8866 34.2974 26.8332 34.0835 26.8332H27.0835V29.1665H33.3543L35.3668 33.1915C35.4641 33.4054 35.6099 33.5658 35.8043 33.6728C35.9988 33.7797 36.2029 33.8332 36.4168 33.8332Z" fill="#F43F5E"/>
<path d="M17.981 77.18C17.119 77.18 16.388 76.99 15.788 76.61C15.188 76.23 14.7315 75.702 14.4185 75.026C14.1055 74.35 13.949 73.568 13.949 72.68C13.949 71.792 14.1055 71.01 14.4185 70.334C14.7315 69.658 15.188 69.13 15.788 68.75C16.388 68.37 17.119 68.18 17.981 68.18C18.981 68.18 19.8035 68.4345 20.4485 68.9435C21.0935 69.4525 21.539 70.136 21.785 70.994L20.699 71.282C20.523 70.638 20.2085 70.13 19.7555 69.758C19.3025 69.386 18.711 69.2 17.981 69.2C17.337 69.2 16.801 69.346 16.373 69.638C15.945 69.93 15.623 70.3375 15.407 70.8605C15.191 71.3835 15.081 71.99 15.077 72.68C15.073 73.37 15.179 73.976 15.395 74.498C15.611 75.02 15.935 75.4275 16.367 75.7205C16.799 76.0135 17.337 76.16 17.981 76.16C18.711 76.16 19.3025 75.973 19.7555 75.599C20.2085 75.225 20.523 74.718 20.699 74.078L21.785 74.366C21.539 75.224 21.0935 75.9075 20.4485 76.4165C19.8035 76.9255 18.981 77.18 17.981 77.18ZM27.719 77V73.754C27.719 73.448 27.6915 73.153 27.6365 72.869C27.5815 72.585 27.487 72.3295 27.353 72.1025C27.219 71.8755 27.039 71.696 26.813 71.564C26.587 71.432 26.303 71.366 25.961 71.366C25.693 71.366 25.4495 71.4115 25.2305 71.5025C25.0115 71.5935 24.824 71.7305 24.668 71.9135C24.512 72.0965 24.3915 72.327 24.3065 72.605C24.2215 72.883 24.179 73.21 24.179 73.586L23.477 73.37C23.477 72.744 23.59 72.2055 23.816 71.7545C24.042 71.3035 24.36 70.957 24.77 70.715C25.18 70.473 25.663 70.352 26.219 70.352C26.637 70.352 26.9945 70.418 27.2915 70.55C27.5885 70.682 27.835 70.8575 28.031 71.0765C28.227 71.2955 28.381 71.5395 28.493 71.8085C28.605 72.0775 28.684 72.3515 28.73 72.6305C28.776 72.9095 28.799 73.172 28.799 73.418V77H27.719ZM23.099 77V68.36H24.059V73.13H24.179V77H23.099ZM33.167 77.18C32.529 77.18 31.973 77.0395 31.499 76.7585C31.025 76.4775 30.6565 76.0835 30.3935 75.5765C30.1305 75.0695 29.999 74.478 29.999 73.802C29.999 73.094 30.1285 72.481 30.3875 71.963C30.6465 71.445 31.0095 71.045 31.4765 70.763C31.9435 70.481 32.491 70.34 33.119 70.34C33.769 70.34 34.323 70.49 34.781 70.79C35.239 71.09 35.5835 71.518 35.8145 72.074C36.0455 72.63 36.144 73.292 36.11 74.06H35.033V73.676C35.021 72.88 34.859 72.285 34.547 71.891C34.235 71.497 33.771 71.3 33.155 71.3C32.493 71.3 31.9905 71.512 31.6475 71.936C31.3045 72.36 31.133 72.968 31.133 73.76C31.133 74.524 31.3045 75.116 31.6475 75.536C31.9905 75.956 32.481 76.166 33.119 76.166C33.547 76.166 33.919 76.068 34.235 75.872C34.551 75.676 34.799 75.394 34.979 75.026L36.005 75.38C35.751 75.952 35.3715 76.395 34.8665 76.709C34.3615 77.023 33.795 77.18 33.167 77.18ZM30.773 74.06V73.202H35.561V74.06H30.773ZM40.175 77.18C39.517 77.18 38.959 77.033 38.501 76.739C38.043 76.445 37.694 76.0405 37.454 75.5255C37.214 75.0105 37.091 74.422 37.085 73.76C37.091 73.086 37.217 72.492 37.463 71.978C37.709 71.464 38.062 71.0625 38.522 70.7735C38.982 70.4845 39.537 70.34 40.187 70.34C40.869 70.34 41.457 70.508 41.951 70.844C42.445 71.18 42.777 71.64 42.947 72.224L41.891 72.542C41.753 72.166 41.531 71.874 41.225 71.666C40.919 71.458 40.569 71.354 40.175 71.354C39.731 71.354 39.365 71.457 39.077 71.663C38.789 71.869 38.575 72.153 38.435 72.515C38.295 72.877 38.223 73.292 38.219 73.76C38.225 74.482 38.3915 75.0635 38.7185 75.5045C39.0455 75.9455 39.531 76.166 40.175 76.166C40.597 76.166 40.948 76.069 41.228 75.875C41.508 75.681 41.721 75.4 41.867 75.032L42.947 75.314C42.721 75.918 42.37 76.38 41.894 76.7C41.418 77.02 40.845 77.18 40.175 77.18ZM44.171 77L44.177 68.36H45.257V73.64L47.975 70.52H49.361L46.499 73.76L49.697 77H48.203L45.257 73.88V77H44.171ZM52.757 77.168C52.339 77.168 51.9815 77.102 51.6845 76.97C51.3875 76.838 51.141 76.6625 50.945 76.4435C50.749 76.2245 50.595 75.9805 50.483 75.7115C50.371 75.4425 50.292 75.1685 50.246 74.8895C50.2 74.6105 50.177 74.348 50.177 74.102V70.52H51.257V73.766C51.257 74.07 51.2845 74.3645 51.3395 74.6495C51.3945 74.9345 51.489 75.1905 51.623 75.4175C51.757 75.6445 51.937 75.824 52.163 75.956C52.389 76.088 52.673 76.154 53.015 76.154C53.283 76.154 53.5265 76.1085 53.7455 76.0175C53.9645 75.9265 54.152 75.7895 54.308 75.6065C54.464 75.4235 54.5845 75.1925 54.6695 74.9135C54.7545 74.6345 54.797 74.308 54.797 73.934L55.499 74.15C55.499 74.776 55.386 75.3145 55.16 75.7655C54.934 76.2165 54.616 76.563 54.206 76.805C53.796 77.047 53.313 77.168 52.757 77.168ZM54.917 77V75.266H54.797V70.52H55.871V77H54.917ZM60.527 77.18C59.919 77.18 59.407 77.029 58.991 76.727C58.575 76.425 58.26 76.0155 58.046 75.4985C57.832 74.9815 57.725 74.4 57.725 73.754C57.725 73.102 57.832 72.5185 58.046 72.0035C58.26 71.4885 58.5755 71.0825 58.9925 70.7855C59.4095 70.4885 59.923 70.34 60.533 70.34C61.133 70.34 61.6495 70.4895 62.0825 70.7885C62.5155 71.0875 62.8485 71.4945 63.0815 72.0095C63.3145 72.5245 63.431 73.106 63.431 73.754C63.431 74.402 63.3145 74.9845 63.0815 75.5015C62.8485 76.0185 62.5155 76.4275 62.0825 76.7285C61.6495 77.0295 61.131 77.18 60.527 77.18ZM57.545 79.88V70.52H58.499V75.29H58.619V79.88H57.545ZM60.395 76.202C60.821 76.202 61.1745 76.094 61.4555 75.878C61.7365 75.662 61.947 75.369 62.087 74.999C62.227 74.629 62.297 74.214 62.297 73.754C62.297 73.298 62.2275 72.886 62.0885 72.518C61.9495 72.15 61.7375 71.858 61.4525 71.642C61.1675 71.426 60.805 71.318 60.365 71.318C59.943 71.318 59.594 71.421 59.318 71.627C59.042 71.833 58.8365 72.1195 58.7015 72.4865C58.5665 72.8535 58.499 73.276 58.499 73.754C58.499 74.228 58.566 74.6495 58.7 75.0185C58.834 75.3875 59.041 75.677 59.321 75.887C59.601 76.097 59.959 76.202 60.395 76.202Z" fill="#475569"/>
</svg>
