<svg width="78" height="80" viewBox="0 0 78 80" fill="none" xmlns="http://www.w3.org/2000/svg">
<rect x="10.75" width="56" height="56" rx="16" fill="#64748B" fill-opacity="0.1"/>
<path d="M25.9165 37.3332V32.6665C25.9165 32.0054 26.145 31.4512 26.6019 31.004C27.0589 30.5568 27.6082 30.3332 28.2498 30.3332H32.0707C32.4596 30.3332 32.829 30.4304 33.179 30.6248C33.529 30.8193 33.8109 31.0818 34.0248 31.4123C34.5887 32.1707 35.2839 32.7637 36.1103 33.1915C36.9366 33.6193 37.8165 33.8332 38.7498 33.8332C39.7026 33.8332 40.5922 33.6193 41.4186 33.1915C42.245 32.7637 42.9304 32.1707 43.4748 31.4123C43.7276 31.0818 44.0241 30.8193 44.3644 30.6248C44.7047 30.4304 45.0596 30.3332 45.429 30.3332H49.2498C49.9109 30.3332 50.4651 30.5568 50.9123 31.004C51.3596 31.4512 51.5832 32.0054 51.5832 32.6665V37.3332H43.4165V34.679C42.7359 35.1651 42.0019 35.5346 41.2144 35.7873C40.4269 36.0401 39.6054 36.1665 38.7498 36.1665C37.9137 36.1665 37.0971 36.0353 36.2998 35.7728C35.5026 35.5103 34.7637 35.1359 34.0832 34.6498V37.3332H25.9165V37.3332M38.7498 32.6665C38.0109 32.6665 37.3109 32.4964 36.6498 32.1561C35.9887 31.8158 35.4346 31.3443 34.9873 30.7415C34.6568 30.2554 34.2436 29.8714 33.7478 29.5894C33.2519 29.3075 32.7123 29.1665 32.129 29.1665C32.5568 28.4471 33.4609 27.8783 34.8415 27.4603C36.2221 27.0422 37.5248 26.8332 38.7498 26.8332C39.9748 26.8332 41.2776 27.0422 42.6582 27.4603C44.0387 27.8783 44.9429 28.4471 45.3707 29.1665C44.8068 29.1665 44.2721 29.3075 43.7665 29.5894C43.2609 29.8714 42.8429 30.2554 42.5123 30.7415C42.0846 31.3637 41.5401 31.8401 40.879 32.1707C40.2179 32.5012 39.5082 32.6665 38.7498 32.6665V32.6665M29.4165 29.1665C28.4443 29.1665 27.6179 28.8262 26.9373 28.1457C26.2568 27.4651 25.9165 26.6387 25.9165 25.6665C25.9165 24.6748 26.2568 23.8436 26.9373 23.1728C27.6179 22.5019 28.4443 22.1665 29.4165 22.1665C30.4082 22.1665 31.2394 22.5019 31.9103 23.1728C32.5811 23.8436 32.9165 24.6748 32.9165 25.6665C32.9165 26.6387 32.5811 27.4651 31.9103 28.1457C31.2394 28.8262 30.4082 29.1665 29.4165 29.1665V29.1665M48.0832 29.1665C47.1109 29.1665 46.2846 28.8262 45.604 28.1457C44.9234 27.4651 44.5832 26.6387 44.5832 25.6665C44.5832 24.6748 44.9234 23.8436 45.604 23.1728C46.2846 22.5019 47.1109 22.1665 48.0832 22.1665C49.0748 22.1665 49.9061 22.5019 50.5769 23.1728C51.2478 23.8436 51.5832 24.6748 51.5832 25.6665C51.5832 26.6387 51.2478 27.4651 50.5769 28.1457C49.9061 28.8262 49.0748 29.1665 48.0832 29.1665V29.1665M38.7498 25.6665C37.7776 25.6665 36.9512 25.3262 36.2707 24.6457C35.5901 23.9651 35.2498 23.1387 35.2498 22.1665C35.2498 21.1748 35.5901 20.3436 36.2707 19.6728C36.9512 19.0019 37.7776 18.6665 38.7498 18.6665C39.7415 18.6665 40.5728 19.0019 41.2436 19.6728C41.9144 20.3436 42.2498 21.1748 42.2498 22.1665C42.2498 23.1387 41.9144 23.9651 41.2436 24.6457C40.5728 25.3262 39.7415 25.6665 38.7498 25.6665V25.6665" fill="#64748B"/>
<path d="M25.6341 77.18C25.0221 77.18 24.4711 77.076 23.9811 76.868C23.4911 76.66 23.0871 76.3635 22.7691 75.9785C22.4511 75.5935 22.2441 75.136 22.1481 74.606L23.2521 74.432C23.3901 74.976 23.6801 75.401 24.1221 75.707C24.5641 76.013 25.0861 76.166 25.6881 76.166C26.0741 76.166 26.4241 76.105 26.7381 75.983C27.0521 75.861 27.3016 75.6865 27.4866 75.4595C27.6716 75.2325 27.7641 74.962 27.7641 74.648C27.7641 74.458 27.7306 74.2935 27.6636 74.1545C27.5966 74.0155 27.5066 73.8975 27.3936 73.8005C27.2806 73.7035 27.1516 73.621 27.0066 73.553C26.8616 73.485 26.7121 73.428 26.5581 73.382L24.3561 72.728C24.1161 72.658 23.8841 72.568 23.6601 72.458C23.4361 72.348 23.2361 72.21 23.0601 72.044C22.8841 71.878 22.7441 71.6775 22.6401 71.4425C22.5361 71.2075 22.4841 70.93 22.4841 70.61C22.4841 70.1 22.6166 69.6635 22.8816 69.3005C23.1466 68.9375 23.5071 68.6605 23.9631 68.4695C24.4191 68.2785 24.9341 68.184 25.5081 68.186C26.0881 68.19 26.6071 68.293 27.0651 68.495C27.5231 68.697 27.9026 68.986 28.2036 69.362C28.5046 69.738 28.7081 70.188 28.8141 70.712L27.6801 70.91C27.6201 70.56 27.4871 70.2575 27.2811 70.0025C27.0751 69.7475 26.8176 69.551 26.5086 69.413C26.1996 69.275 25.8621 69.204 25.4961 69.2C25.1421 69.196 24.8231 69.2525 24.5391 69.3695C24.2551 69.4865 24.0296 69.648 23.8626 69.854C23.6956 70.06 23.6121 70.296 23.6121 70.562C23.6121 70.828 23.6876 71.042 23.8386 71.204C23.9896 71.366 24.1761 71.4935 24.3981 71.5865C24.6201 71.6795 24.8381 71.756 25.0521 71.816L26.6961 72.29C26.8841 72.342 27.1011 72.414 27.3471 72.506C27.5931 72.598 27.8321 72.7275 28.0641 72.8945C28.2961 73.0615 28.4881 73.2815 28.6401 73.5545C28.7921 73.8275 28.8681 74.172 28.8681 74.588C28.8681 75.006 28.7846 75.3765 28.6176 75.6995C28.4506 76.0225 28.2191 76.2935 27.9231 76.5125C27.6271 76.7315 27.2836 76.8975 26.8926 77.0105C26.5016 77.1235 26.0821 77.18 25.6341 77.18ZM32.8881 77.18C32.2421 77.18 31.6861 77.034 31.2201 76.742C30.7541 76.45 30.3956 76.0465 30.1446 75.5315C29.8936 75.0165 29.7681 74.424 29.7681 73.754C29.7681 73.076 29.8961 72.4805 30.1521 71.9675C30.4081 71.4545 30.7696 71.055 31.2366 70.769C31.7036 70.483 32.2541 70.34 32.8881 70.34C33.5361 70.34 34.0936 70.4855 34.5606 70.7765C35.0276 71.0675 35.3866 71.4695 35.6376 71.9825C35.8886 72.4955 36.0141 73.086 36.0141 73.754C36.0141 74.432 35.8876 75.028 35.6346 75.542C35.3816 76.056 35.0211 76.4575 34.5531 76.7465C34.0851 77.0355 33.5301 77.18 32.8881 77.18ZM32.8881 76.166C33.5581 76.166 34.0576 75.942 34.3866 75.494C34.7156 75.046 34.8801 74.466 34.8801 73.754C34.8801 73.024 34.7141 72.4415 34.3821 72.0065C34.0501 71.5715 33.5521 71.354 32.8881 71.354C32.4361 71.354 32.0636 71.456 31.7706 71.66C31.4776 71.864 31.2596 72.146 31.1166 72.506C30.9736 72.866 30.9021 73.282 30.9021 73.754C30.9021 74.484 31.0701 75.0685 31.4061 75.5075C31.7421 75.9465 32.2361 76.166 32.8881 76.166ZM40.0641 77.18C39.4061 77.18 38.8481 77.033 38.3901 76.739C37.9321 76.445 37.5831 76.0405 37.3431 75.5255C37.1031 75.0105 36.9801 74.422 36.9741 73.76C36.9801 73.086 37.1061 72.492 37.3521 71.978C37.5981 71.464 37.9511 71.0625 38.4111 70.7735C38.8711 70.4845 39.4261 70.34 40.0761 70.34C40.7581 70.34 41.3461 70.508 41.8401 70.844C42.3341 71.18 42.6661 71.64 42.8361 72.224L41.7801 72.542C41.6421 72.166 41.4201 71.874 41.1141 71.666C40.8081 71.458 40.4581 71.354 40.0641 71.354C39.6201 71.354 39.2541 71.457 38.9661 71.663C38.6781 71.869 38.4641 72.153 38.3241 72.515C38.1841 72.877 38.1121 73.292 38.1081 73.76C38.1141 74.482 38.2806 75.0635 38.6076 75.5045C38.9346 75.9455 39.4201 76.166 40.0641 76.166C40.4861 76.166 40.8371 76.069 41.1171 75.875C41.3971 75.681 41.6101 75.4 41.7561 75.032L42.8361 75.314C42.6101 75.918 42.2591 76.38 41.7831 76.7C41.3071 77.02 40.7341 77.18 40.0641 77.18ZM44.0061 69.374V68.27H45.0741V69.374H44.0061ZM44.0061 77V70.52H45.0741V77H44.0061ZM48.7161 77.18C48.2321 77.18 47.8266 77.0915 47.4996 76.9145C47.1726 76.7375 46.9266 76.5025 46.7616 76.2095C46.5966 75.9165 46.5141 75.596 46.5141 75.248C46.5141 74.908 46.5786 74.6135 46.7076 74.3645C46.8366 74.1155 47.0196 73.9075 47.2566 73.7405C47.4936 73.5735 47.7761 73.442 48.1041 73.346C48.4121 73.264 48.7566 73.1915 49.1376 73.1285C49.5186 73.0655 49.9051 73.0085 50.2971 72.9575C50.6891 72.9065 51.0561 72.856 51.3981 72.806L51.0141 73.028C51.0241 72.454 50.9086 72.0285 50.6676 71.7515C50.4266 71.4745 50.0101 71.336 49.4181 71.336C49.0261 71.336 48.6826 71.4255 48.3876 71.6045C48.0926 71.7835 47.8861 72.072 47.7681 72.47L46.7541 72.164C46.9081 71.596 47.2096 71.15 47.6586 70.826C48.1076 70.502 48.6981 70.34 49.4301 70.34C50.0161 70.34 50.5201 70.445 50.9421 70.655C51.3641 70.865 51.6681 71.182 51.8541 71.606C51.9461 71.806 52.0041 72.023 52.0281 72.257C52.0521 72.491 52.0641 72.736 52.0641 72.992V77H51.1161V75.446L51.3381 75.59C51.0941 76.116 50.7526 76.5125 50.3136 76.7795C49.8746 77.0465 49.3421 77.18 48.7161 77.18ZM48.8781 76.286C49.2621 76.286 49.5951 76.2175 49.8771 76.0805C50.1591 75.9435 50.3861 75.7615 50.5581 75.5345C50.7301 75.3075 50.8421 75.06 50.8941 74.792C50.9521 74.592 50.9846 74.3695 50.9916 74.1245C50.9986 73.8795 51.0021 73.69 51.0021 73.556L51.3741 73.718C51.0261 73.768 50.6836 73.815 50.3466 73.859C50.0096 73.903 49.6911 73.9495 49.3911 73.9985C49.0911 74.0475 48.8221 74.106 48.5841 74.174C48.4061 74.23 48.2406 74.3025 48.0876 74.3915C47.9346 74.4805 47.8111 74.594 47.7171 74.732C47.6231 74.87 47.5761 75.04 47.5761 75.242C47.5761 75.42 47.6206 75.5885 47.7096 75.7475C47.7986 75.9065 47.9386 76.036 48.1296 76.136C48.3206 76.236 48.5701 76.286 48.8781 76.286ZM53.7441 77V68.18H54.8121V77H53.7441Z" fill="#475569"/>
</svg>
