<svg width="271" height="80" viewBox="0 0 271 80" fill="none" xmlns="http://www.w3.org/2000/svg">
<rect x="107.25" width="56" height="56" rx="16" fill="#3B82F6" fill-opacity="0.1"/>
<path d="M134.2 36.1668H136.242V34.7085C137.214 34.5335 138.05 34.1543 138.75 33.571C139.45 32.9877 139.8 32.1224 139.8 30.9752C139.8 30.1585 139.567 29.4099 139.1 28.7293C138.633 28.0488 137.7 27.4557 136.3 26.9502C135.133 26.5613 134.327 26.221 133.879 25.9293C133.432 25.6377 133.208 25.2391 133.208 24.7335C133.208 24.2279 133.388 23.8293 133.748 23.5377C134.108 23.246 134.628 23.1002 135.308 23.1002C135.931 23.1002 136.417 23.2509 136.767 23.5522C137.117 23.8536 137.37 24.2279 137.525 24.6752L139.392 23.9168C139.178 23.2363 138.784 22.6432 138.211 22.1377C137.637 21.6321 137 21.3502 136.3 21.2918V19.8335H134.258V21.2918C133.286 21.5057 132.528 21.9335 131.983 22.5752C131.439 23.2168 131.167 23.9363 131.167 24.7335C131.167 25.6474 131.434 26.3863 131.969 26.9502C132.504 27.5141 133.345 28.0002 134.492 28.4085C135.717 28.8557 136.568 29.2543 137.044 29.6043C137.52 29.9543 137.758 30.4113 137.758 30.9752C137.758 31.6168 137.53 32.0884 137.073 32.3897C136.616 32.6911 136.067 32.8418 135.425 32.8418C134.783 32.8418 134.215 32.6425 133.719 32.2439C133.223 31.8453 132.858 31.2474 132.625 30.4502L130.7 31.2085C130.972 32.1418 131.395 32.8953 131.969 33.4689C132.543 34.0425 133.286 34.4363 134.2 34.6502V36.1668ZM135.25 39.6668C133.636 39.6668 132.12 39.3606 130.7 38.7481C129.281 38.1356 128.046 37.3043 126.996 36.2543C125.946 35.2043 125.115 33.9696 124.502 32.5502C123.89 31.1307 123.583 29.6141 123.583 28.0002C123.583 26.3863 123.89 24.8696 124.502 23.4502C125.115 22.0307 125.946 20.796 126.996 19.746C128.046 18.696 129.281 17.8647 130.7 17.2522C132.12 16.6397 133.636 16.3335 135.25 16.3335C136.864 16.3335 138.381 16.6397 139.8 17.2522C141.22 17.8647 142.454 18.696 143.504 19.746C144.554 20.796 145.386 22.0307 145.998 23.4502C146.611 24.8696 146.917 26.3863 146.917 28.0002C146.917 29.6141 146.611 31.1307 145.998 32.5502C145.386 33.9696 144.554 35.2043 143.504 36.2543C142.454 37.3043 141.22 38.1356 139.8 38.7481C138.381 39.3606 136.864 39.6668 135.25 39.6668ZM135.25 37.3335C137.856 37.3335 140.063 36.4293 141.871 34.621C143.679 32.8127 144.583 30.6057 144.583 28.0002C144.583 25.3946 143.679 23.1877 141.871 21.3793C140.063 19.571 137.856 18.6668 135.25 18.6668C132.645 18.6668 130.438 19.571 128.629 21.3793C126.821 23.1877 125.917 25.3946 125.917 28.0002C125.917 30.6057 126.821 32.8127 128.629 34.621C130.438 36.4293 132.645 37.3335 135.25 37.3335Z" fill="#2563EB"/>
<path d="M123.37 77.18C122.508 77.18 121.777 76.99 121.177 76.61C120.577 76.23 120.121 75.702 119.808 75.026C119.495 74.35 119.338 73.568 119.338 72.68C119.338 71.792 119.495 71.01 119.808 70.334C120.121 69.658 120.577 69.13 121.177 68.75C121.777 68.37 122.508 68.18 123.37 68.18C124.232 68.18 124.963 68.37 125.563 68.75C126.163 69.13 126.62 69.658 126.933 70.334C127.246 71.01 127.402 71.792 127.402 72.68C127.402 73.568 127.246 74.35 126.933 75.026C126.62 75.702 126.163 76.23 125.563 76.61C124.963 76.99 124.232 77.18 123.37 77.18ZM123.37 76.16C124.014 76.164 124.551 76.0195 124.98 75.7265C125.409 75.4335 125.731 75.025 125.946 74.501C126.161 73.977 126.268 73.37 126.268 72.68C126.268 71.99 126.161 71.3845 125.946 70.8635C125.731 70.3425 125.409 69.936 124.98 69.644C124.551 69.352 124.014 69.204 123.37 69.2C122.726 69.196 122.191 69.34 121.764 69.632C121.337 69.924 121.016 70.3325 120.801 70.8575C120.586 71.3825 120.476 71.99 120.472 72.68C120.468 73.37 120.574 73.975 120.789 74.495C121.004 75.015 121.327 75.4215 121.758 75.7145C122.189 76.0075 122.726 76.156 123.37 76.16ZM132.22 77C131.834 77.078 131.455 77.11 131.082 77.096C130.709 77.082 130.376 77.006 130.083 76.868C129.79 76.73 129.568 76.514 129.418 76.22C129.29 75.966 129.221 75.708 129.211 75.446C129.201 75.184 129.196 74.886 129.196 74.552V68.72H130.264V74.504C130.264 74.77 130.267 74.9965 130.273 75.1835C130.279 75.3705 130.32 75.532 130.396 75.668C130.54 75.926 130.769 76.0765 131.083 76.1195C131.397 76.1625 131.776 76.15 132.22 76.082V77ZM127.882 71.402V70.52H132.22V71.402H127.882ZM138.154 77V73.754C138.154 73.448 138.127 73.153 138.072 72.869C138.017 72.585 137.922 72.3295 137.788 72.1025C137.654 71.8755 137.474 71.696 137.248 71.564C137.022 71.432 136.738 71.366 136.396 71.366C136.128 71.366 135.885 71.4115 135.666 71.5025C135.447 71.5935 135.259 71.7305 135.103 71.9135C134.947 72.0965 134.827 72.327 134.742 72.605C134.657 72.883 134.614 73.21 134.614 73.586L133.912 73.37C133.912 72.744 134.025 72.2055 134.251 71.7545C134.477 71.3035 134.795 70.957 135.205 70.715C135.615 70.473 136.098 70.352 136.654 70.352C137.072 70.352 137.43 70.418 137.727 70.55C138.024 70.682 138.27 70.8575 138.466 71.0765C138.662 71.2955 138.816 71.5395 138.928 71.8085C139.04 72.0775 139.119 72.3515 139.165 72.6305C139.211 72.9095 139.234 73.172 139.234 73.418V77H138.154ZM133.534 77V68.36H134.494V73.13H134.614V77H133.534ZM143.602 77.18C142.964 77.18 142.408 77.0395 141.934 76.7585C141.46 76.4775 141.092 76.0835 140.829 75.5765C140.566 75.0695 140.434 74.478 140.434 73.802C140.434 73.094 140.564 72.481 140.823 71.963C141.082 71.445 141.445 71.045 141.912 70.763C142.379 70.481 142.926 70.34 143.554 70.34C144.204 70.34 144.758 70.49 145.216 70.79C145.674 71.09 146.019 71.518 146.25 72.074C146.481 72.63 146.579 73.292 146.545 74.06H145.468V73.676C145.456 72.88 145.294 72.285 144.982 71.891C144.67 71.497 144.206 71.3 143.59 71.3C142.928 71.3 142.426 71.512 142.083 71.936C141.74 72.36 141.568 72.968 141.568 73.76C141.568 74.524 141.74 75.116 142.083 75.536C142.426 75.956 142.916 76.166 143.554 76.166C143.982 76.166 144.354 76.068 144.67 75.872C144.986 75.676 145.234 75.394 145.414 75.026L146.44 75.38C146.186 75.952 145.807 76.395 145.302 76.709C144.797 77.023 144.23 77.18 143.602 77.18ZM141.208 74.06V73.202H145.996V74.06H141.208ZM147.88 77V70.52H148.834V72.086L148.678 71.882C148.754 71.682 148.853 71.498 148.975 71.33C149.097 71.162 149.234 71.024 149.386 70.916C149.552 70.782 149.742 70.679 149.955 70.607C150.168 70.535 150.384 70.492 150.604 70.478C150.824 70.464 151.03 70.478 151.222 70.52V71.522C150.998 71.464 150.752 71.449 150.483 71.477C150.214 71.505 149.966 71.602 149.74 71.768C149.53 71.918 149.369 72.0985 149.256 72.3095C149.143 72.5205 149.064 72.749 149.02 72.995C148.976 73.241 148.954 73.492 148.954 73.748V77H147.88Z" fill="#475569"/>
</svg>
