<svg width="78" height="80" viewBox="0 0 78 80" fill="none" xmlns="http://www.w3.org/2000/svg">
<rect x="10.75" width="56" height="56" rx="16" fill="#F43F5E" fill-opacity="0.1"/>
<path d="M29.4168 39.6668C28.7752 39.6668 28.2259 39.4384 27.7689 38.9814C27.312 38.5245 27.0835 37.9752 27.0835 37.3335V23.3335C27.0835 22.6918 27.312 22.1425 27.7689 21.6856C28.2259 21.2286 28.7752 21.0002 29.4168 21.0002H34.0835V18.6668C34.0835 18.0252 34.312 17.4759 34.7689 17.0189C35.2259 16.562 35.7752 16.3335 36.4168 16.3335H41.0835C41.7252 16.3335 42.2745 16.562 42.7314 17.0189C43.1884 17.4759 43.4168 18.0252 43.4168 18.6668V21.0002H48.0835C48.7252 21.0002 49.2745 21.2286 49.7314 21.6856C50.1884 22.1425 50.4168 22.6918 50.4168 23.3335V37.3335C50.4168 37.9752 50.1884 38.5245 49.7314 38.9814C49.2745 39.4384 48.7252 39.6668 48.0835 39.6668H29.4168ZM29.4168 37.3335H48.0835V23.3335H29.4168V37.3335ZM36.4168 21.0002H41.0835V18.6668H36.4168V21.0002ZM29.4168 37.3335V23.3335V37.3335ZM37.5835 31.5002V35.0002H39.9168V31.5002H43.4168V29.1668H39.9168V25.6668H37.5835V29.1668H34.0835V31.5002H37.5835Z" fill="#F43F5E"/>
<path d="M17.6721 77V68.36H18.6441L21.9081 75.242L25.1541 68.36H26.1381V76.994H25.1241V70.706L22.1901 77H21.6201L18.6861 70.706V77H17.6721ZM30.6261 77.18C29.9881 77.18 29.4321 77.0395 28.9581 76.7585C28.4841 76.4775 28.1156 76.0835 27.8526 75.5765C27.5896 75.0695 27.4581 74.478 27.4581 73.802C27.4581 73.094 27.5876 72.481 27.8466 71.963C28.1056 71.445 28.4686 71.045 28.9356 70.763C29.4026 70.481 29.9501 70.34 30.5781 70.34C31.2281 70.34 31.7821 70.49 32.2401 70.79C32.6981 71.09 33.0426 71.518 33.2736 72.074C33.5046 72.63 33.6031 73.292 33.5691 74.06H32.4921V73.676C32.4801 72.88 32.3181 72.285 32.0061 71.891C31.6941 71.497 31.2301 71.3 30.6141 71.3C29.9521 71.3 29.4496 71.512 29.1066 71.936C28.7636 72.36 28.5921 72.968 28.5921 73.76C28.5921 74.524 28.7636 75.116 29.1066 75.536C29.4496 75.956 29.9401 76.166 30.5781 76.166C31.0061 76.166 31.3781 76.068 31.6941 75.872C32.0101 75.676 32.2581 75.394 32.4381 75.026L33.4641 75.38C33.2101 75.952 32.8306 76.395 32.3256 76.709C31.8206 77.023 31.2541 77.18 30.6261 77.18ZM28.2321 74.06V73.202H33.0201V74.06H28.2321ZM37.4481 77.18C36.8441 77.18 36.3256 77.0295 35.8926 76.7285C35.4596 76.4275 35.1266 76.0185 34.8936 75.5015C34.6606 74.9845 34.5441 74.402 34.5441 73.754C34.5441 73.106 34.6606 72.5245 34.8936 72.0095C35.1266 71.4945 35.4596 71.0875 35.8926 70.7885C36.3256 70.4895 36.8421 70.34 37.4421 70.34C38.0521 70.34 38.5656 70.4885 38.9826 70.7855C39.3996 71.0825 39.7151 71.4885 39.9291 72.0035C40.1431 72.5185 40.2501 73.102 40.2501 73.754C40.2501 74.4 40.1431 74.9815 39.9291 75.4985C39.7151 76.0155 39.4001 76.425 38.9841 76.727C38.5681 77.029 38.0561 77.18 37.4481 77.18ZM37.5801 76.202C38.0161 76.202 38.3741 76.097 38.6541 75.887C38.9341 75.677 39.1411 75.3875 39.2751 75.0185C39.4091 74.6495 39.4761 74.228 39.4761 73.754C39.4761 73.276 39.4086 72.8535 39.2736 72.4865C39.1386 72.1195 38.9331 71.833 38.6571 71.627C38.3811 71.421 38.0321 71.318 37.6101 71.318C37.1701 71.318 36.8071 71.426 36.5211 71.642C36.2351 71.858 36.0231 72.15 35.8851 72.518C35.7471 72.886 35.6781 73.298 35.6781 73.754C35.6781 74.214 35.7481 74.629 35.8881 74.999C36.0281 75.369 36.2386 75.662 36.5196 75.878C36.8006 76.094 37.1541 76.202 37.5801 76.202ZM39.4761 77V72.23H39.3561V68.36H40.4301V77H39.4761ZM42.2301 69.374V68.27H43.2981V69.374H42.2301ZM42.2301 77V70.52H43.2981V77H42.2301ZM47.8281 77.18C47.1701 77.18 46.6121 77.033 46.1541 76.739C45.6961 76.445 45.3471 76.0405 45.1071 75.5255C44.8671 75.0105 44.7441 74.422 44.7381 73.76C44.7441 73.086 44.8701 72.492 45.1161 71.978C45.3621 71.464 45.7151 71.0625 46.1751 70.7735C46.6351 70.4845 47.1901 70.34 47.8401 70.34C48.5221 70.34 49.1101 70.508 49.6041 70.844C50.0981 71.18 50.4301 71.64 50.6001 72.224L49.5441 72.542C49.4061 72.166 49.1841 71.874 48.8781 71.666C48.5721 71.458 48.2221 71.354 47.8281 71.354C47.3841 71.354 47.0181 71.457 46.7301 71.663C46.4421 71.869 46.2281 72.153 46.0881 72.515C45.9481 72.877 45.8761 73.292 45.8721 73.76C45.8781 74.482 46.0446 75.0635 46.3716 75.5045C46.6986 75.9455 47.1841 76.166 47.8281 76.166C48.2501 76.166 48.6011 76.069 48.8811 75.875C49.1611 75.681 49.3741 75.4 49.5201 75.032L50.6001 75.314C50.3741 75.918 50.0231 76.38 49.5471 76.7C49.0711 77.02 48.4981 77.18 47.8281 77.18ZM53.6121 77.18C53.1281 77.18 52.7226 77.0915 52.3956 76.9145C52.0686 76.7375 51.8226 76.5025 51.6576 76.2095C51.4926 75.9165 51.4101 75.596 51.4101 75.248C51.4101 74.908 51.4746 74.6135 51.6036 74.3645C51.7326 74.1155 51.9156 73.9075 52.1526 73.7405C52.3896 73.5735 52.6721 73.442 53.0001 73.346C53.3081 73.264 53.6526 73.1915 54.0336 73.1285C54.4146 73.0655 54.8011 73.0085 55.1931 72.9575C55.5851 72.9065 55.9521 72.856 56.2941 72.806L55.9101 73.028C55.9201 72.454 55.8046 72.0285 55.5636 71.7515C55.3226 71.4745 54.9061 71.336 54.3141 71.336C53.9221 71.336 53.5786 71.4255 53.2836 71.6045C52.9886 71.7835 52.7821 72.072 52.6641 72.47L51.6501 72.164C51.8041 71.596 52.1056 71.15 52.5546 70.826C53.0036 70.502 53.5941 70.34 54.3261 70.34C54.9121 70.34 55.4161 70.445 55.8381 70.655C56.2601 70.865 56.5641 71.182 56.7501 71.606C56.8421 71.806 56.9001 72.023 56.9241 72.257C56.9481 72.491 56.9601 72.736 56.9601 72.992V77H56.0121V75.446L56.2341 75.59C55.9901 76.116 55.6486 76.5125 55.2096 76.7795C54.7706 77.0465 54.2381 77.18 53.6121 77.18ZM53.7741 76.286C54.1581 76.286 54.4911 76.2175 54.7731 76.0805C55.0551 75.9435 55.2821 75.7615 55.4541 75.5345C55.6261 75.3075 55.7381 75.06 55.7901 74.792C55.8481 74.592 55.8806 74.3695 55.8876 74.1245C55.8946 73.8795 55.8981 73.69 55.8981 73.556L56.2701 73.718C55.9221 73.768 55.5796 73.815 55.2426 73.859C54.9056 73.903 54.5871 73.9495 54.2871 73.9985C53.9871 74.0475 53.7181 74.106 53.4801 74.174C53.3021 74.23 53.1366 74.3025 52.9836 74.3915C52.8306 74.4805 52.7071 74.594 52.6131 74.732C52.5191 74.87 52.4721 75.04 52.4721 75.242C52.4721 75.42 52.5166 75.5885 52.6056 75.7475C52.6946 75.9065 52.8346 76.036 53.0256 76.136C53.2166 76.236 53.4661 76.286 53.7741 76.286ZM58.6401 77V68.18H59.7081V77H58.6401Z" fill="#475569"/>
</svg>
