<svg width="78" height="80" viewBox="0 0 78 80" fill="none" xmlns="http://www.w3.org/2000/svg">
<rect x="10.75" width="56" height="56" rx="16" fill="#EC4899" fill-opacity="0.1"/>
<path d="M38.7498 38.5L38.1665 26.8333L34.0832 25.6667H25.9165V23.3333H32.9165L41.0832 17.5L42.5998 19.2792L37.7582 22.75H41.0832L50.1832 17.5L51.5832 19.1333L41.6665 26.8333L41.0832 38.5H38.7498ZM31.7498 22.1667C31.1082 22.1667 30.5589 21.9382 30.1019 21.4813C29.645 21.0243 29.4165 20.475 29.4165 19.8333C29.4165 19.1917 29.645 18.6424 30.1019 18.1854C30.5589 17.7285 31.1082 17.5 31.7498 17.5C32.3915 17.5 32.9408 17.7285 33.3978 18.1854C33.8547 18.6424 34.0832 19.1917 34.0832 19.8333C34.0832 20.475 33.8547 21.0243 33.3978 21.4813C32.9408 21.9382 32.3915 22.1667 31.7498 22.1667Z" fill="#EC4899"/>
<path d="M19.0612 77V68.36H24.1012V69.428H20.1292V72.146H23.3812V73.214H20.1292V77H19.0612ZM25.3012 69.374V68.27H26.3692V69.374H25.3012ZM25.3012 77V70.52H26.3692V77H25.3012ZM31.7872 77C31.4012 77.078 31.0217 77.11 30.6487 77.096C30.2757 77.082 29.9427 77.006 29.6497 76.868C29.3567 76.73 29.1352 76.514 28.9852 76.22C28.8572 75.966 28.7882 75.708 28.7782 75.446C28.7682 75.184 28.7632 74.886 28.7632 74.552V68.72H29.8312V74.504C29.8312 74.77 29.8342 74.9965 29.8402 75.1835C29.8462 75.3705 29.8872 75.532 29.9632 75.668C30.1072 75.926 30.3362 76.0765 30.6502 76.1195C30.9642 76.1625 31.3432 76.15 31.7872 76.082V77ZM27.4492 71.402V70.52H31.7872V71.402H27.4492ZM37.7212 77V73.754C37.7212 73.448 37.6937 73.153 37.6387 72.869C37.5837 72.585 37.4892 72.3295 37.3552 72.1025C37.2212 71.8755 37.0412 71.696 36.8152 71.564C36.5892 71.432 36.3052 71.366 35.9632 71.366C35.6952 71.366 35.4517 71.4115 35.2327 71.5025C35.0137 71.5935 34.8262 71.7305 34.6702 71.9135C34.5142 72.0965 34.3937 72.327 34.3087 72.605C34.2237 72.883 34.1812 73.21 34.1812 73.586L33.4792 73.37C33.4792 72.744 33.5922 72.2055 33.8182 71.7545C34.0442 71.3035 34.3622 70.957 34.7722 70.715C35.1822 70.473 35.6652 70.352 36.2212 70.352C36.6392 70.352 36.9967 70.418 37.2937 70.55C37.5907 70.682 37.8372 70.8575 38.0332 71.0765C38.2292 71.2955 38.3832 71.5395 38.4952 71.8085C38.6072 72.0775 38.6862 72.3515 38.7322 72.6305C38.7782 72.9095 38.8012 73.172 38.8012 73.418V77H37.7212ZM33.1012 77V70.52H34.0612V72.254H34.1812V77H33.1012ZM43.1092 77.18C42.4712 77.18 41.9152 77.0395 41.4412 76.7585C40.9672 76.4775 40.5987 76.0835 40.3357 75.5765C40.0727 75.0695 39.9412 74.478 39.9412 73.802C39.9412 73.094 40.0707 72.481 40.3297 71.963C40.5887 71.445 40.9517 71.045 41.4187 70.763C41.8857 70.481 42.4332 70.34 43.0612 70.34C43.7112 70.34 44.2652 70.49 44.7232 70.79C45.1812 71.09 45.5257 71.518 45.7567 72.074C45.9877 72.63 46.0862 73.292 46.0522 74.06H44.9752V73.676C44.9632 72.88 44.8012 72.285 44.4892 71.891C44.1772 71.497 43.7132 71.3 43.0972 71.3C42.4352 71.3 41.9327 71.512 41.5897 71.936C41.2467 72.36 41.0752 72.968 41.0752 73.76C41.0752 74.524 41.2467 75.116 41.5897 75.536C41.9327 75.956 42.4232 76.166 43.0612 76.166C43.4892 76.166 43.8612 76.068 44.1772 75.872C44.4932 75.676 44.7412 75.394 44.9212 75.026L45.9472 75.38C45.6932 75.952 45.3137 76.395 44.8087 76.709C44.3037 77.023 43.7372 77.18 43.1092 77.18ZM40.7152 74.06V73.202H45.5032V74.06H40.7152ZM49.8352 77.174C49.0612 77.174 48.4277 77.005 47.9347 76.667C47.4417 76.329 47.1392 75.856 47.0272 75.248L48.1192 75.074C48.2072 75.426 48.4092 75.705 48.7252 75.911C49.0412 76.117 49.4332 76.22 49.9012 76.22C50.3432 76.22 50.6907 76.1285 50.9437 75.9455C51.1967 75.7625 51.3232 75.512 51.3232 75.194C51.3232 75.012 51.2812 74.864 51.1972 74.75C51.1132 74.636 50.9402 74.529 50.6782 74.429C50.4162 74.329 50.0212 74.208 49.4932 74.066C48.9212 73.914 48.4707 73.7565 48.1417 73.5935C47.8127 73.4305 47.5787 73.241 47.4397 73.025C47.3007 72.809 47.2312 72.546 47.2312 72.236C47.2312 71.856 47.3352 71.5235 47.5432 71.2385C47.7512 70.9535 48.0417 70.7325 48.4147 70.5755C48.7877 70.4185 49.2232 70.34 49.7212 70.34C50.2132 70.34 50.6527 70.4185 51.0397 70.5755C51.4267 70.7325 51.7392 70.9535 51.9772 71.2385C52.2152 71.5235 52.3572 71.856 52.4032 72.236L51.3112 72.434C51.2592 72.088 51.0917 71.8145 50.8087 71.6135C50.5257 71.4125 50.1632 71.306 49.7212 71.294C49.3012 71.28 48.9602 71.355 48.6982 71.519C48.4362 71.683 48.3052 71.904 48.3052 72.182C48.3052 72.34 48.3537 72.4745 48.4507 72.5855C48.5477 72.6965 48.7297 72.802 48.9967 72.902C49.2637 73.002 49.6512 73.116 50.1592 73.244C50.7292 73.39 51.1792 73.5475 51.5092 73.7165C51.8392 73.8855 52.0747 74.0855 52.2157 74.3165C52.3567 74.5475 52.4272 74.83 52.4272 75.164C52.4272 75.79 52.1972 76.2815 51.7372 76.6385C51.2772 76.9955 50.6432 77.174 49.8352 77.174ZM56.2012 77.174C55.4272 77.174 54.7937 77.005 54.3007 76.667C53.8077 76.329 53.5052 75.856 53.3932 75.248L54.4852 75.074C54.5732 75.426 54.7752 75.705 55.0912 75.911C55.4072 76.117 55.7992 76.22 56.2672 76.22C56.7092 76.22 57.0567 76.1285 57.3097 75.9455C57.5627 75.7625 57.6892 75.512 57.6892 75.194C57.6892 75.012 57.6472 74.864 57.5632 74.75C57.4792 74.636 57.3062 74.529 57.0442 74.429C56.7822 74.329 56.3872 74.208 55.8592 74.066C55.2872 73.914 54.8367 73.7565 54.5077 73.5935C54.1787 73.4305 53.9447 73.241 53.8057 73.025C53.6667 72.809 53.5972 72.546 53.5972 72.236C53.5972 71.856 53.7012 71.5235 53.9092 71.2385C54.1172 70.9535 54.4077 70.7325 54.7807 70.5755C55.1537 70.4185 55.5892 70.34 56.0872 70.34C56.5792 70.34 57.0187 70.4185 57.4057 70.5755C57.7927 70.7325 58.1052 70.9535 58.3432 71.2385C58.5812 71.5235 58.7232 71.856 58.7692 72.236L57.6772 72.434C57.6252 72.088 57.4577 71.8145 57.1747 71.6135C56.8917 71.4125 56.5292 71.306 56.0872 71.294C55.6672 71.28 55.3262 71.355 55.0642 71.519C54.8022 71.683 54.6712 71.904 54.6712 72.182C54.6712 72.34 54.7197 72.4745 54.8167 72.5855C54.9137 72.6965 55.0957 72.802 55.3627 72.902C55.6297 73.002 56.0172 73.116 56.5252 73.244C57.0952 73.39 57.5452 73.5475 57.8752 73.7165C58.2052 73.8855 58.4407 74.0855 58.5817 74.3165C58.7227 74.5475 58.7932 74.83 58.7932 75.164C58.7932 75.79 58.5632 76.2815 58.1032 76.6385C57.6432 76.9955 57.0092 77.174 56.2012 77.174Z" fill="#475569"/>
</svg>
