<svg width="78" height="80" viewBox="0 0 78 80" fill="none" xmlns="http://www.w3.org/2000/svg">
<rect x="10.75" width="56" height="56" rx="16" fill="#13A4EC" fill-opacity="0.1"/>
<path d="M30.3585 29.7502C30.5141 29.5557 30.6308 29.3175 30.7085 29.0356C30.7863 28.7536 30.8252 28.4085 30.8252 28.0002C30.8252 27.4168 30.6308 26.6779 30.2419 25.7835C29.853 24.8891 29.6585 24.2182 29.6585 23.771C29.6585 23.5377 29.6828 23.2946 29.7315 23.0418C29.7801 22.7891 29.9113 22.4974 30.1252 22.1668H31.8752C31.6613 22.4974 31.5301 22.7891 31.4815 23.0418C31.4328 23.2946 31.4085 23.5377 31.4085 23.771C31.4085 24.2182 31.603 24.8891 31.9919 25.7835C32.3808 26.6779 32.5752 27.4168 32.5752 28.0002C32.5752 28.4085 32.5363 28.7439 32.4585 29.0064C32.3808 29.2689 32.2641 29.5168 32.1085 29.7502H30.3585V29.7502M37.9419 29.7502C38.0974 29.5557 38.2141 29.3175 38.2919 29.0356C38.3696 28.7536 38.4085 28.4085 38.4085 28.0002C38.4085 27.4168 38.2141 26.6779 37.8252 25.7835C37.4363 24.8891 37.2419 24.2182 37.2419 23.771C37.2419 23.5377 37.2662 23.2946 37.3148 23.0418C37.3634 22.7891 37.4946 22.4974 37.7085 22.1668H39.4585C39.2446 22.4974 39.1134 22.7891 39.0648 23.0418C39.0162 23.2946 38.9919 23.5377 38.9919 23.771C38.9919 24.2182 39.1863 24.8891 39.5752 25.7835C39.9641 26.6779 40.1585 27.4168 40.1585 28.0002C40.1585 28.4085 40.1196 28.7439 40.0419 29.0064C39.9641 29.2689 39.8474 29.5168 39.6919 29.7502H37.9419V29.7502M34.1502 29.7502C34.3058 29.5557 34.4224 29.3175 34.5002 29.0356C34.578 28.7536 34.6169 28.4085 34.6169 28.0002C34.6169 27.4168 34.4224 26.6779 34.0335 25.7835C33.6446 24.8891 33.4502 24.2182 33.4502 23.771C33.4502 23.5377 33.4745 23.2946 33.5231 23.0418C33.5717 22.7891 33.703 22.4974 33.9169 22.1668H35.6669C35.453 22.4974 35.3217 22.7891 35.2731 23.0418C35.2245 23.2946 35.2002 23.5377 35.2002 23.771C35.2002 24.2182 35.3946 24.8891 35.7835 25.7835C36.1724 26.6779 36.3669 27.4168 36.3669 28.0002C36.3669 28.4085 36.328 28.7439 36.2502 29.0064C36.1724 29.2689 36.0558 29.5168 35.9002 29.7502H34.1502V29.7502M35.7835 39.6668C33.8196 39.6668 32.0891 39.0106 30.5919 37.6981C29.0946 36.3856 28.2002 34.7571 27.9085 32.8127C27.8502 32.4627 27.9426 32.1564 28.1856 31.8939C28.4287 31.6314 28.7252 31.5002 29.0752 31.5002H41.3544L42.6377 19.4252C42.7349 18.5502 43.1092 17.8161 43.7606 17.2231C44.412 16.63 45.1946 16.3335 46.1085 16.3335C47.0808 16.3335 47.9071 16.6738 48.5877 17.3543C49.2683 18.0349 49.6085 18.8613 49.6085 19.8335C49.6085 20.1057 49.5842 20.4654 49.5356 20.9127C49.487 21.3599 49.4627 21.5835 49.4627 21.5835L47.1585 21.2918C47.1585 21.2918 47.178 21.0925 47.2169 20.6939C47.2558 20.2953 47.2752 20.0085 47.2752 19.8335C47.2752 19.5029 47.1634 19.2259 46.9398 19.0022C46.7162 18.7786 46.4391 18.6668 46.1085 18.6668C45.7974 18.6668 45.5349 18.7689 45.321 18.9731C45.1071 19.1772 44.9808 19.4252 44.9419 19.7168L43.6002 32.4043C43.3863 34.4654 42.5405 36.1911 41.0627 37.5814C39.5849 38.9717 37.8252 39.6668 35.7835 39.6668V39.6668M35.7835 37.3335C36.9308 37.3335 37.9613 37.0127 38.8752 36.371C39.7891 35.7293 40.4502 34.8835 40.8585 33.8335H30.621C31.0683 34.8835 31.7537 35.7293 32.6773 36.371C33.6009 37.0127 34.6363 37.3335 35.7835 37.3335V37.3335M35.7835 33.8335V33.8335V33.8335V33.8335V33.8335V33.8335V33.8335" fill="#13A4EC"/>
<path d="M22.3849 77V68.36H23.4529V75.986H27.4609V77H22.3849ZM30.9409 77.168C30.5229 77.168 30.1654 77.102 29.8684 76.97C29.5714 76.838 29.3249 76.6625 29.1289 76.4435C28.9329 76.2245 28.7789 75.9805 28.6669 75.7115C28.5549 75.4425 28.4759 75.1685 28.4299 74.8895C28.3839 74.6105 28.3609 74.348 28.3609 74.102V70.52H29.4409V73.766C29.4409 74.07 29.4684 74.3645 29.5234 74.6495C29.5784 74.9345 29.6729 75.1905 29.8069 75.4175C29.9409 75.6445 30.1209 75.824 30.3469 75.956C30.5729 76.088 30.8569 76.154 31.1989 76.154C31.4669 76.154 31.7104 76.1085 31.9294 76.0175C32.1484 75.9265 32.3359 75.7895 32.4919 75.6065C32.6479 75.4235 32.7684 75.1925 32.8534 74.9135C32.9384 74.6345 32.9809 74.308 32.9809 73.934L33.6829 74.15C33.6829 74.776 33.5699 75.3145 33.3439 75.7655C33.1179 76.2165 32.7999 76.563 32.3899 76.805C31.9799 77.047 31.4969 77.168 30.9409 77.168ZM33.1009 77V75.266H32.9809V70.52H34.0549V77H33.1009ZM40.3489 77V73.754C40.3489 73.448 40.3214 73.153 40.2664 72.869C40.2114 72.585 40.1169 72.3295 39.9829 72.1025C39.8489 71.8755 39.6689 71.696 39.4429 71.564C39.2169 71.432 38.9329 71.366 38.5909 71.366C38.3229 71.366 38.0794 71.4115 37.8604 71.5025C37.6414 71.5935 37.4539 71.7305 37.2979 71.9135C37.1419 72.0965 37.0214 72.327 36.9364 72.605C36.8514 72.883 36.8089 73.21 36.8089 73.586L36.1069 73.37C36.1069 72.744 36.2199 72.2055 36.4459 71.7545C36.6719 71.3035 36.9899 70.957 37.3999 70.715C37.8099 70.473 38.2929 70.352 38.8489 70.352C39.2669 70.352 39.6244 70.418 39.9214 70.55C40.2184 70.682 40.4649 70.8575 40.6609 71.0765C40.8569 71.2955 41.0109 71.5395 41.1229 71.8085C41.2349 72.0775 41.3139 72.3515 41.3599 72.6305C41.4059 72.9095 41.4289 73.172 41.4289 73.418V77H40.3489ZM35.7289 77V70.52H36.6889V72.254H36.8089V77H35.7289ZM45.6589 77.18C45.0009 77.18 44.4429 77.033 43.9849 76.739C43.5269 76.445 43.1779 76.0405 42.9379 75.5255C42.6979 75.0105 42.5749 74.422 42.5689 73.76C42.5749 73.086 42.7009 72.492 42.9469 71.978C43.1929 71.464 43.5459 71.0625 44.0059 70.7735C44.4659 70.4845 45.0209 70.34 45.6709 70.34C46.3529 70.34 46.9409 70.508 47.4349 70.844C47.9289 71.18 48.2609 71.64 48.4309 72.224L47.3749 72.542C47.2369 72.166 47.0149 71.874 46.7089 71.666C46.4029 71.458 46.0529 71.354 45.6589 71.354C45.2149 71.354 44.8489 71.457 44.5609 71.663C44.2729 71.869 44.0589 72.153 43.9189 72.515C43.7789 72.877 43.7069 73.292 43.7029 73.76C43.7089 74.482 43.8754 75.0635 44.2024 75.5045C44.5294 75.9455 45.0149 76.166 45.6589 76.166C46.0809 76.166 46.4319 76.069 46.7119 75.875C46.9919 75.681 47.2049 75.4 47.3509 75.032L48.4309 75.314C48.2049 75.918 47.8539 76.38 47.3779 76.7C46.9019 77.02 46.3289 77.18 45.6589 77.18ZM54.2749 77V73.754C54.2749 73.448 54.2474 73.153 54.1924 72.869C54.1374 72.585 54.0429 72.3295 53.9089 72.1025C53.7749 71.8755 53.5949 71.696 53.3689 71.564C53.1429 71.432 52.8589 71.366 52.5169 71.366C52.2489 71.366 52.0054 71.4115 51.7864 71.5025C51.5674 71.5935 51.3799 71.7305 51.2239 71.9135C51.0679 72.0965 50.9474 72.327 50.8624 72.605C50.7774 72.883 50.7349 73.21 50.7349 73.586L50.0329 73.37C50.0329 72.744 50.1459 72.2055 50.3719 71.7545C50.5979 71.3035 50.9159 70.957 51.3259 70.715C51.7359 70.473 52.2189 70.352 52.7749 70.352C53.1929 70.352 53.5504 70.418 53.8474 70.55C54.1444 70.682 54.3909 70.8575 54.5869 71.0765C54.7829 71.2955 54.9369 71.5395 55.0489 71.8085C55.1609 72.0775 55.2399 72.3515 55.2859 72.6305C55.3319 72.9095 55.3549 73.172 55.3549 73.418V77H54.2749ZM49.6549 77V68.36H50.6149V73.13H50.7349V77H49.6549Z" fill="#475569"/>
</svg>
