<svg width="271" height="80" viewBox="0 0 271 80" fill="none" xmlns="http://www.w3.org/2000/svg">
<rect x="107.25" width="56" height="56" rx="16" fill="#22C55E" fill-opacity="0.1"/>
<path d="M131.575 34.2123L135.25 31.9957L138.925 34.2415L137.963 30.0415L141.2 27.2415L136.942 26.8623L135.25 22.8957L133.558 26.8332L129.3 27.2123L132.538 30.0415L131.575 34.2123ZM128.046 39.0832L129.942 30.8873L123.583 25.3748L131.983 24.6457L135.25 16.9165L138.517 24.6457L146.917 25.3748L140.558 30.8873L142.454 39.0832L135.25 34.7373L128.046 39.0832Z" fill="#16A34A"/>
<path d="M118.336 77V68.36H121.702C122.218 68.36 122.659 68.466 123.025 68.678C123.391 68.89 123.671 69.169 123.865 69.515C124.059 69.861 124.156 70.234 124.156 70.634C124.156 71.104 124.036 71.5145 123.795 71.8655C123.554 72.2165 123.23 72.458 122.824 72.59L122.812 72.296C123.368 72.444 123.8 72.7165 124.108 73.1135C124.416 73.5105 124.57 73.982 124.57 74.528C124.57 75.032 124.467 75.4685 124.26 75.8375C124.053 76.2065 123.757 76.4925 123.372 76.6955C122.987 76.8985 122.53 77 122.002 77H118.336ZM119.416 75.98H121.798C122.116 75.98 122.402 75.9215 122.655 75.8045C122.908 75.6875 123.107 75.5205 123.253 75.3035C123.399 75.0865 123.472 74.826 123.472 74.522C123.472 74.232 123.407 73.9705 123.276 73.7375C123.145 73.5045 122.962 73.319 122.728 73.181C122.494 73.043 122.224 72.974 121.918 72.974H119.416V75.98ZM119.416 71.966H121.69C121.944 71.966 122.175 71.911 122.382 71.801C122.589 71.691 122.753 71.5365 122.875 71.3375C122.997 71.1385 123.058 70.904 123.058 70.634C123.058 70.262 122.932 69.958 122.679 69.722C122.426 69.486 122.096 69.368 121.69 69.368H119.416V71.966ZM128.524 77.18C127.878 77.18 127.322 77.034 126.856 76.742C126.39 76.45 126.032 76.0465 125.781 75.5315C125.53 75.0165 125.404 74.424 125.404 73.754C125.404 73.076 125.532 72.4805 125.788 71.9675C126.044 71.4545 126.406 71.055 126.873 70.769C127.34 70.483 127.89 70.34 128.524 70.34C129.172 70.34 129.73 70.4855 130.197 70.7765C130.664 71.0675 131.023 71.4695 131.274 71.9825C131.525 72.4955 131.65 73.086 131.65 73.754C131.65 74.432 131.524 75.028 131.271 75.542C131.018 76.056 130.657 76.4575 130.189 76.7465C129.721 77.0355 129.166 77.18 128.524 77.18ZM128.524 76.166C129.194 76.166 129.694 75.942 130.023 75.494C130.352 75.046 130.516 74.466 130.516 73.754C130.516 73.024 130.35 72.4415 130.018 72.0065C129.686 71.5715 129.188 71.354 128.524 71.354C128.072 71.354 127.7 71.456 127.407 71.66C127.114 71.864 126.896 72.146 126.753 72.506C126.61 72.866 126.538 73.282 126.538 73.754C126.538 74.484 126.706 75.0685 127.042 75.5075C127.378 75.9465 127.872 76.166 128.524 76.166ZM137.584 77V73.754C137.584 73.448 137.557 73.153 137.502 72.869C137.447 72.585 137.352 72.3295 137.218 72.1025C137.084 71.8755 136.904 71.696 136.678 71.564C136.452 71.432 136.168 71.366 135.826 71.366C135.558 71.366 135.315 71.4115 135.096 71.5025C134.877 71.5935 134.689 71.7305 134.533 71.9135C134.377 72.0965 134.257 72.327 134.172 72.605C134.087 72.883 134.044 73.21 134.044 73.586L133.342 73.37C133.342 72.744 133.455 72.2055 133.681 71.7545C133.907 71.3035 134.225 70.957 134.635 70.715C135.045 70.473 135.528 70.352 136.084 70.352C136.502 70.352 136.86 70.418 137.157 70.55C137.454 70.682 137.7 70.8575 137.896 71.0765C138.092 71.2955 138.246 71.5395 138.358 71.8085C138.47 72.0775 138.549 72.3515 138.595 72.6305C138.641 72.9095 138.664 73.172 138.664 73.418V77H137.584ZM132.964 77V70.52H133.924V72.254H134.044V77H132.964ZM142.684 77.168C142.266 77.168 141.909 77.102 141.612 76.97C141.315 76.838 141.068 76.6625 140.872 76.4435C140.676 76.2245 140.522 75.9805 140.41 75.7115C140.298 75.4425 140.219 75.1685 140.173 74.8895C140.127 74.6105 140.104 74.348 140.104 74.102V70.52H141.184V73.766C141.184 74.07 141.212 74.3645 141.267 74.6495C141.322 74.9345 141.416 75.1905 141.55 75.4175C141.684 75.6445 141.864 75.824 142.09 75.956C142.316 76.088 142.6 76.154 142.942 76.154C143.21 76.154 143.454 76.1085 143.673 76.0175C143.892 75.9265 144.079 75.7895 144.235 75.6065C144.391 75.4235 144.512 75.1925 144.597 74.9135C144.682 74.6345 144.724 74.308 144.724 73.934L145.426 74.15C145.426 74.776 145.313 75.3145 145.087 75.7655C144.861 76.2165 144.543 76.563 144.133 76.805C143.723 77.047 143.24 77.168 142.684 77.168ZM144.844 77V75.266H144.724V70.52H145.798V77H144.844ZM149.926 77.174C149.152 77.174 148.519 77.005 148.026 76.667C147.533 76.329 147.23 75.856 147.118 75.248L148.21 75.074C148.298 75.426 148.5 75.705 148.816 75.911C149.132 76.117 149.524 76.22 149.992 76.22C150.434 76.22 150.782 76.1285 151.035 75.9455C151.288 75.7625 151.414 75.512 151.414 75.194C151.414 75.012 151.372 74.864 151.288 74.75C151.204 74.636 151.031 74.529 150.769 74.429C150.507 74.329 150.112 74.208 149.584 74.066C149.012 73.914 148.562 73.7565 148.233 73.5935C147.904 73.4305 147.67 73.241 147.531 73.025C147.392 72.809 147.322 72.546 147.322 72.236C147.322 71.856 147.426 71.5235 147.634 71.2385C147.842 70.9535 148.133 70.7325 148.506 70.5755C148.879 70.4185 149.314 70.34 149.812 70.34C150.304 70.34 150.744 70.4185 151.131 70.5755C151.518 70.7325 151.83 70.9535 152.068 71.2385C152.306 71.5235 152.448 71.856 152.494 72.236L151.402 72.434C151.35 72.088 151.183 71.8145 150.9 71.6135C150.617 71.4125 150.254 71.306 149.812 71.294C149.392 71.28 149.051 71.355 148.789 71.519C148.527 71.683 148.396 71.904 148.396 72.182C148.396 72.34 148.445 72.4745 148.542 72.5855C148.639 72.6965 148.821 72.802 149.088 72.902C149.355 73.002 149.742 73.116 150.25 73.244C150.82 73.39 151.27 73.5475 151.6 73.7165C151.93 73.8855 152.166 74.0855 152.307 74.3165C152.448 74.5475 152.518 74.83 152.518 75.164C152.518 75.79 152.288 76.2815 151.828 76.6385C151.368 76.9955 150.734 77.174 149.926 77.174Z" fill="#475569"/>
</svg>
