<svg width="78" height="80" viewBox="0 0 78 80" fill="none" xmlns="http://www.w3.org/2000/svg">
<rect x="10.75" width="56" height="56" rx="16" fill="#13A4EC" fill-opacity="0.1"/>
<path d="M36.4167 35C34.1417 35 32.2118 34.2076 30.6271 32.6229C29.0424 31.0382 28.25 29.1083 28.25 26.8333V19.8333C28.25 19.1917 28.4785 18.6424 28.9354 18.1854C29.3924 17.7285 29.9417 17.5 30.5833 17.5H45.1667C46.2944 17.5 47.2569 17.8986 48.0542 18.6958C48.8514 19.4931 49.25 20.4556 49.25 21.5833C49.25 22.7111 48.8514 23.6736 48.0542 24.4708C47.2569 25.2681 46.2944 25.6667 45.1667 25.6667H44.5833V26.8333C44.5833 29.1083 43.791 31.0382 42.2063 32.6229C40.6215 34.2076 38.6917 35 36.4167 35V35M30.5833 23.3333H42.25V19.8333H30.5833V23.3333V23.3333M36.4167 32.6667C38.0306 32.6667 39.4062 32.0979 40.5437 30.9604C41.6812 29.8229 42.25 28.4472 42.25 26.8333V25.6667H30.5833V26.8333C30.5833 28.4472 31.1521 29.8229 32.2896 30.9604C33.4271 32.0979 34.8028 32.6667 36.4167 32.6667V32.6667M44.5833 23.3333H45.1667C45.6528 23.3333 46.066 23.1632 46.4062 22.8229C46.7465 22.4826 46.9167 22.0694 46.9167 21.5833C46.9167 21.0972 46.7465 20.684 46.4062 20.3438C46.066 20.0035 45.6528 19.8333 45.1667 19.8333H44.5833V23.3333V23.3333M28.25 38.5V36.1667H46.9167V38.5H28.25V38.5M36.4167 25.6667V25.6667V25.6667V25.6667V25.6667V25.6667V25.6667V25.6667V25.6667" fill="#13A4EC"/>
<path d="M24.1548 77.18C23.2928 77.18 22.5618 76.99 21.9618 76.61C21.3618 76.23 20.9053 75.702 20.5923 75.026C20.2793 74.35 20.1228 73.568 20.1228 72.68C20.1228 71.792 20.2793 71.01 20.5923 70.334C20.9053 69.658 21.3618 69.13 21.9618 68.75C22.5618 68.37 23.2928 68.18 24.1548 68.18C25.1548 68.18 25.9773 68.4345 26.6223 68.9435C27.2673 69.4525 27.7128 70.136 27.9588 70.994L26.8728 71.282C26.6968 70.638 26.3823 70.13 25.9293 69.758C25.4763 69.386 24.8848 69.2 24.1548 69.2C23.5108 69.2 22.9748 69.346 22.5468 69.638C22.1188 69.93 21.7968 70.3375 21.5808 70.8605C21.3648 71.3835 21.2548 71.99 21.2508 72.68C21.2468 73.37 21.3528 73.976 21.5688 74.498C21.7848 75.02 22.1088 75.4275 22.5408 75.7205C22.9728 76.0135 23.5108 76.16 24.1548 76.16C24.8848 76.16 25.4763 75.973 25.9293 75.599C26.3823 75.225 26.6968 74.718 26.8728 74.078L27.9588 74.366C27.7128 75.224 27.2673 75.9075 26.6223 76.4165C25.9773 76.9255 25.1548 77.18 24.1548 77.18ZM32.0388 77.18C31.3928 77.18 30.8368 77.034 30.3708 76.742C29.9048 76.45 29.5463 76.0465 29.2953 75.5315C29.0443 75.0165 28.9188 74.424 28.9188 73.754C28.9188 73.076 29.0468 72.4805 29.3028 71.9675C29.5588 71.4545 29.9203 71.055 30.3873 70.769C30.8543 70.483 31.4048 70.34 32.0388 70.34C32.6868 70.34 33.2443 70.4855 33.7113 70.7765C34.1783 71.0675 34.5373 71.4695 34.7883 71.9825C35.0393 72.4955 35.1648 73.086 35.1648 73.754C35.1648 74.432 35.0383 75.028 34.7853 75.542C34.5323 76.056 34.1718 76.4575 33.7038 76.7465C33.2358 77.0355 32.6808 77.18 32.0388 77.18ZM32.0388 76.166C32.7088 76.166 33.2083 75.942 33.5373 75.494C33.8663 75.046 34.0308 74.466 34.0308 73.754C34.0308 73.024 33.8648 72.4415 33.5328 72.0065C33.2008 71.5715 32.7028 71.354 32.0388 71.354C31.5868 71.354 31.2143 71.456 30.9213 71.66C30.6283 71.864 30.4103 72.146 30.2673 72.506C30.1243 72.866 30.0528 73.282 30.0528 73.754C30.0528 74.484 30.2208 75.0685 30.5568 75.5075C30.8928 75.9465 31.3868 76.166 32.0388 76.166ZM37.1028 77V70.166C37.1028 70 37.1103 69.8295 37.1253 69.6545C37.1403 69.4795 37.1763 69.309 37.2333 69.143C37.2903 68.977 37.3828 68.824 37.5108 68.684C37.6588 68.522 37.8208 68.4055 37.9968 68.3345C38.1728 68.2635 38.3518 68.22 38.5338 68.204C38.7158 68.188 38.8888 68.18 39.0528 68.18H39.8748V69.068H39.1128C38.7968 69.068 38.5608 69.1455 38.4048 69.3005C38.2488 69.4555 38.1708 69.688 38.1708 69.998V77H37.1028ZM36.0048 71.402V70.52H39.8748V71.402H36.0048ZM40.9128 77V70.166C40.9128 70 40.9203 69.8295 40.9353 69.6545C40.9503 69.4795 40.9863 69.309 41.0433 69.143C41.1003 68.977 41.1928 68.824 41.3208 68.684C41.4688 68.522 41.6308 68.4055 41.8068 68.3345C41.9828 68.2635 42.1618 68.22 42.3438 68.204C42.5258 68.188 42.6988 68.18 42.8628 68.18H43.6848V69.068H42.9228C42.6068 69.068 42.3708 69.1455 42.2148 69.3005C42.0588 69.4555 41.9808 69.688 41.9808 69.998V77H40.9128ZM39.8148 71.402V70.52H43.6848V71.402H39.8148ZM47.2128 77.18C46.5748 77.18 46.0188 77.0395 45.5448 76.7585C45.0708 76.4775 44.7023 76.0835 44.4393 75.5765C44.1763 75.0695 44.0448 74.478 44.0448 73.802C44.0448 73.094 44.1743 72.481 44.4333 71.963C44.6923 71.445 45.0553 71.045 45.5223 70.763C45.9893 70.481 46.5368 70.34 47.1648 70.34C47.8148 70.34 48.3688 70.49 48.8268 70.79C49.2848 71.09 49.6293 71.518 49.8603 72.074C50.0913 72.63 50.1898 73.292 50.1558 74.06H49.0788V73.676C49.0668 72.88 48.9048 72.285 48.5928 71.891C48.2808 71.497 47.8168 71.3 47.2008 71.3C46.5388 71.3 46.0363 71.512 45.6933 71.936C45.3503 72.36 45.1788 72.968 45.1788 73.76C45.1788 74.524 45.3503 75.116 45.6933 75.536C46.0363 75.956 46.5268 76.166 47.1648 76.166C47.5928 76.166 47.9648 76.068 48.2808 75.872C48.5968 75.676 48.8448 75.394 49.0248 75.026L50.0508 75.38C49.7968 75.952 49.4173 76.395 48.9123 76.709C48.4073 77.023 47.8408 77.18 47.2128 77.18ZM44.8188 74.06V73.202H49.6068V74.06H44.8188ZM54.2988 77.18C53.6608 77.18 53.1048 77.0395 52.6308 76.7585C52.1568 76.4775 51.7883 76.0835 51.5253 75.5765C51.2623 75.0695 51.1308 74.478 51.1308 73.802C51.1308 73.094 51.2603 72.481 51.5193 71.963C51.7783 71.445 52.1413 71.045 52.6083 70.763C53.0753 70.481 53.6228 70.34 54.2508 70.34C54.9008 70.34 55.4548 70.49 55.9128 70.79C56.3708 71.09 56.7153 71.518 56.9463 72.074C57.1773 72.63 57.2758 73.292 57.2418 74.06H56.1648V73.676C56.1528 72.88 55.9908 72.285 55.6788 71.891C55.3668 71.497 54.9028 71.3 54.2868 71.3C53.6248 71.3 53.1223 71.512 52.7793 71.936C52.4363 72.36 52.2648 72.968 52.2648 73.76C52.2648 74.524 52.4363 75.116 52.7793 75.536C53.1223 75.956 53.6128 76.166 54.2508 76.166C54.6788 76.166 55.0508 76.068 55.3668 75.872C55.6828 75.676 55.9308 75.394 56.1108 75.026L57.1368 75.38C56.8828 75.952 56.5033 76.395 55.9983 76.709C55.4933 77.023 54.9268 77.18 54.2988 77.18ZM51.9048 74.06V73.202H56.6928V74.06H51.9048Z" fill="#475569"/>
</svg>
