<svg width="78" height="80" viewBox="0 0 78 80" fill="none" xmlns="http://www.w3.org/2000/svg">
<rect x="10.75" width="56" height="56" rx="16" fill="#13A4EC" fill-opacity="0.1"/>
<path d="M38.7502 39.6813C37.1363 39.6813 35.6196 39.3751 34.2002 38.7626C32.7807 38.1501 31.546 37.3188 30.496 36.2688C29.446 35.2188 28.6147 33.9841 28.0022 32.5647C27.3897 31.1452 27.0835 29.6286 27.0835 28.0147C27.0835 26.5563 27.3654 25.1272 27.9293 23.7272C28.4932 22.3272 29.2807 21.0779 30.2918 19.9793C31.3029 18.8807 32.5182 17.9959 33.9377 17.3251C35.3571 16.6543 36.9127 16.3188 38.6043 16.3188C39.0127 16.3188 39.4307 16.3383 39.8585 16.3772C40.2863 16.4161 40.7238 16.4841 41.171 16.5813C40.996 17.4563 41.0543 18.2827 41.346 19.0605C41.6377 19.8383 42.0752 20.4848 42.6585 21.0001C43.2418 21.5154 43.937 21.8702 44.7439 22.0647C45.5509 22.2591 46.3821 22.2105 47.2377 21.9188C46.7321 23.0661 46.805 24.1647 47.4564 25.2147C48.1078 26.2647 49.0752 26.8091 50.3585 26.848C50.3779 27.0619 50.3925 27.2612 50.4022 27.4459C50.412 27.6307 50.4168 27.83 50.4168 28.0438C50.4168 29.6383 50.1106 31.1404 49.4981 32.5501C48.8856 33.9598 48.0543 35.1945 47.0043 36.2543C45.9543 37.314 44.7196 38.1501 43.3002 38.7626C41.8807 39.3751 40.3641 39.6813 38.7502 39.6813V39.6813M37.0002 25.6813C37.4863 25.6813 37.8995 25.5112 38.2397 25.1709C38.58 24.8307 38.7502 24.4175 38.7502 23.9313C38.7502 23.4452 38.58 23.032 38.2397 22.6918C37.8995 22.3515 37.4863 22.1813 37.0002 22.1813C36.5141 22.1813 36.1009 22.3515 35.7606 22.6918C35.4203 23.032 35.2502 23.4452 35.2502 23.9313C35.2502 24.4175 35.4203 24.8307 35.7606 25.1709C36.1009 25.5112 36.5141 25.6813 37.0002 25.6813V25.6813M34.6668 31.5147C35.1529 31.5147 35.5661 31.3445 35.9064 31.0043C36.2467 30.664 36.4168 30.2508 36.4168 29.7647C36.4168 29.2786 36.2467 28.8654 35.9064 28.5251C35.5661 28.1848 35.1529 28.0147 34.6668 28.0147C34.1807 28.0147 33.7675 28.1848 33.4272 28.5251C33.087 28.8654 32.9168 29.2786 32.9168 29.7647C32.9168 30.2508 33.087 30.664 33.4272 31.0043C33.7675 31.3445 34.1807 31.5147 34.6668 31.5147V31.5147M42.2502 32.6813C42.5807 32.6813 42.8578 32.5695 43.0814 32.3459C43.305 32.1223 43.4168 31.8452 43.4168 31.5147C43.4168 31.1841 43.305 30.907 43.0814 30.6834C42.8578 30.4598 42.5807 30.348 42.2502 30.348C41.9196 30.348 41.6425 30.4598 41.4189 30.6834C41.1953 30.907 41.0835 31.1841 41.0835 31.5147C41.0835 31.8452 41.1953 32.1223 41.4189 32.3459C41.6425 32.5695 41.9196 32.6813 42.2502 32.6813V32.6813M38.7502 37.348C41.1224 37.348 43.2272 36.5313 45.0647 34.898C46.9022 33.2647 47.9085 31.1841 48.0835 28.6563C47.1113 28.2286 46.3481 27.6452 45.7939 26.9063C45.2397 26.1675 44.8654 25.3411 44.671 24.4272C43.1738 24.2133 41.8904 23.5716 40.821 22.5022C39.7516 21.4327 39.0904 20.1494 38.8377 18.6522C37.2821 18.6133 35.9161 18.8952 34.7397 19.498C33.5634 20.1008 32.5814 20.8737 31.7939 21.8168C31.0064 22.7598 30.4134 23.7855 30.0147 24.8938C29.6161 26.0022 29.4168 27.0425 29.4168 28.0147C29.4168 30.6008 30.3259 32.8029 32.1439 34.6209C33.962 36.439 36.1641 37.348 38.7502 37.348V37.348M38.7502 27.898V27.898V27.898V27.898V27.898V27.898V27.898V27.898V27.898V27.898V27.898V27.898V27.898V27.898" fill="#13A4EC"/>
<path d="M22.325 77.18C21.713 77.18 21.162 77.076 20.672 76.868C20.182 76.66 19.778 76.3635 19.46 75.9785C19.142 75.5935 18.935 75.136 18.839 74.606L19.943 74.432C20.081 74.976 20.371 75.401 20.813 75.707C21.255 76.013 21.777 76.166 22.379 76.166C22.765 76.166 23.115 76.105 23.429 75.983C23.743 75.861 23.9925 75.6865 24.1775 75.4595C24.3625 75.2325 24.455 74.962 24.455 74.648C24.455 74.458 24.4215 74.2935 24.3545 74.1545C24.2875 74.0155 24.1975 73.8975 24.0845 73.8005C23.9715 73.7035 23.8425 73.621 23.6975 73.553C23.5525 73.485 23.403 73.428 23.249 73.382L21.047 72.728C20.807 72.658 20.575 72.568 20.351 72.458C20.127 72.348 19.927 72.21 19.751 72.044C19.575 71.878 19.435 71.6775 19.331 71.4425C19.227 71.2075 19.175 70.93 19.175 70.61C19.175 70.1 19.3075 69.6635 19.5725 69.3005C19.8375 68.9375 20.198 68.6605 20.654 68.4695C21.11 68.2785 21.625 68.184 22.199 68.186C22.779 68.19 23.298 68.293 23.756 68.495C24.214 68.697 24.5935 68.986 24.8945 69.362C25.1955 69.738 25.399 70.188 25.505 70.712L24.371 70.91C24.311 70.56 24.178 70.2575 23.972 70.0025C23.766 69.7475 23.5085 69.551 23.1995 69.413C22.8905 69.275 22.553 69.204 22.187 69.2C21.833 69.196 21.514 69.2525 21.23 69.3695C20.946 69.4865 20.7205 69.648 20.5535 69.854C20.3865 70.06 20.303 70.296 20.303 70.562C20.303 70.828 20.3785 71.042 20.5295 71.204C20.6805 71.366 20.867 71.4935 21.089 71.5865C21.311 71.6795 21.529 71.756 21.743 71.816L23.387 72.29C23.575 72.342 23.792 72.414 24.038 72.506C24.284 72.598 24.523 72.7275 24.755 72.8945C24.987 73.0615 25.179 73.2815 25.331 73.5545C25.483 73.8275 25.559 74.172 25.559 74.588C25.559 75.006 25.4755 75.3765 25.3085 75.6995C25.1415 76.0225 24.91 76.2935 24.614 76.5125C24.318 76.7315 23.9745 76.8975 23.5835 77.0105C23.1925 77.1235 22.773 77.18 22.325 77.18ZM31.433 77V73.754C31.433 73.448 31.4055 73.153 31.3505 72.869C31.2955 72.585 31.201 72.3295 31.067 72.1025C30.933 71.8755 30.753 71.696 30.527 71.564C30.301 71.432 30.017 71.366 29.675 71.366C29.407 71.366 29.1635 71.4115 28.9445 71.5025C28.7255 71.5935 28.538 71.7305 28.382 71.9135C28.226 72.0965 28.1055 72.327 28.0205 72.605C27.9355 72.883 27.893 73.21 27.893 73.586L27.191 73.37C27.191 72.744 27.304 72.2055 27.53 71.7545C27.756 71.3035 28.074 70.957 28.484 70.715C28.894 70.473 29.377 70.352 29.933 70.352C30.351 70.352 30.7085 70.418 31.0055 70.55C31.3025 70.682 31.549 70.8575 31.745 71.0765C31.941 71.2955 32.095 71.5395 32.207 71.8085C32.319 72.0775 32.398 72.3515 32.444 72.6305C32.49 72.9095 32.513 73.172 32.513 73.418V77H31.433ZM26.813 77V70.52H27.773V72.254H27.893V77H26.813ZM35.915 77.18C35.431 77.18 35.0255 77.0915 34.6985 76.9145C34.3715 76.7375 34.1255 76.5025 33.9605 76.2095C33.7955 75.9165 33.713 75.596 33.713 75.248C33.713 74.908 33.7775 74.6135 33.9065 74.3645C34.0355 74.1155 34.2185 73.9075 34.4555 73.7405C34.6925 73.5735 34.975 73.442 35.303 73.346C35.611 73.264 35.9555 73.1915 36.3365 73.1285C36.7175 73.0655 37.104 73.0085 37.496 72.9575C37.888 72.9065 38.255 72.856 38.597 72.806L38.213 73.028C38.223 72.454 38.1075 72.0285 37.8665 71.7515C37.6255 71.4745 37.209 71.336 36.617 71.336C36.225 71.336 35.8815 71.4255 35.5865 71.6045C35.2915 71.7835 35.085 72.072 34.967 72.47L33.953 72.164C34.107 71.596 34.4085 71.15 34.8575 70.826C35.3065 70.502 35.897 70.34 36.629 70.34C37.215 70.34 37.719 70.445 38.141 70.655C38.563 70.865 38.867 71.182 39.053 71.606C39.145 71.806 39.203 72.023 39.227 72.257C39.251 72.491 39.263 72.736 39.263 72.992V77H38.315V75.446L38.537 75.59C38.293 76.116 37.9515 76.5125 37.5125 76.7795C37.0735 77.0465 36.541 77.18 35.915 77.18ZM36.077 76.286C36.461 76.286 36.794 76.2175 37.076 76.0805C37.358 75.9435 37.585 75.7615 37.757 75.5345C37.929 75.3075 38.041 75.06 38.093 74.792C38.151 74.592 38.1835 74.3695 38.1905 74.1245C38.1975 73.8795 38.201 73.69 38.201 73.556L38.573 73.718C38.225 73.768 37.8825 73.815 37.5455 73.859C37.2085 73.903 36.89 73.9495 36.59 73.9985C36.29 74.0475 36.021 74.106 35.783 74.174C35.605 74.23 35.4395 74.3025 35.2865 74.3915C35.1335 74.4805 35.01 74.594 34.916 74.732C34.822 74.87 34.775 75.04 34.775 75.242C34.775 75.42 34.8195 75.5885 34.9085 75.7475C34.9975 75.9065 35.1375 76.036 35.3285 76.136C35.5195 76.236 35.769 76.286 36.077 76.286ZM43.553 77.18C42.895 77.18 42.337 77.033 41.879 76.739C41.421 76.445 41.072 76.0405 40.832 75.5255C40.592 75.0105 40.469 74.422 40.463 73.76C40.469 73.086 40.595 72.492 40.841 71.978C41.087 71.464 41.44 71.0625 41.9 70.7735C42.36 70.4845 42.915 70.34 43.565 70.34C44.247 70.34 44.835 70.508 45.329 70.844C45.823 71.18 46.155 71.64 46.325 72.224L45.269 72.542C45.131 72.166 44.909 71.874 44.603 71.666C44.297 71.458 43.947 71.354 43.553 71.354C43.109 71.354 42.743 71.457 42.455 71.663C42.167 71.869 41.953 72.153 41.813 72.515C41.673 72.877 41.601 73.292 41.597 73.76C41.603 74.482 41.7695 75.0635 42.0965 75.5045C42.4235 75.9455 42.909 76.166 43.553 76.166C43.975 76.166 44.326 76.069 44.606 75.875C44.886 75.681 45.099 75.4 45.245 75.032L46.325 75.314C46.099 75.918 45.748 76.38 45.272 76.7C44.796 77.02 44.223 77.18 43.553 77.18ZM47.549 77L47.555 68.36H48.635V73.64L51.353 70.52H52.739L49.877 73.76L53.075 77H51.581L48.635 73.88V77H47.549ZM56.003 77.174C55.229 77.174 54.5955 77.005 54.1025 76.667C53.6095 76.329 53.307 75.856 53.195 75.248L54.287 75.074C54.375 75.426 54.577 75.705 54.893 75.911C55.209 76.117 55.601 76.22 56.069 76.22C56.511 76.22 56.8585 76.1285 57.1115 75.9455C57.3645 75.7625 57.491 75.512 57.491 75.194C57.491 75.012 57.449 74.864 57.365 74.75C57.281 74.636 57.108 74.529 56.846 74.429C56.584 74.329 56.189 74.208 55.661 74.066C55.089 73.914 54.6385 73.7565 54.3095 73.5935C53.9805 73.4305 53.7465 73.241 53.6075 73.025C53.4685 72.809 53.399 72.546 53.399 72.236C53.399 71.856 53.503 71.5235 53.711 71.2385C53.919 70.9535 54.2095 70.7325 54.5825 70.5755C54.9555 70.4185 55.391 70.34 55.889 70.34C56.381 70.34 56.8205 70.4185 57.2075 70.5755C57.5945 70.7325 57.907 70.9535 58.145 71.2385C58.383 71.5235 58.525 71.856 58.571 72.236L57.479 72.434C57.427 72.088 57.2595 71.8145 56.9765 71.6135C56.6935 71.4125 56.331 71.306 55.889 71.294C55.469 71.28 55.128 71.355 54.866 71.519C54.604 71.683 54.473 71.904 54.473 72.182C54.473 72.34 54.5215 72.4745 54.6185 72.5855C54.7155 72.6965 54.8975 72.802 55.1645 72.902C55.4315 73.002 55.819 73.116 56.327 73.244C56.897 73.39 57.347 73.5475 57.677 73.7165C58.007 73.8855 58.2425 74.0855 58.3835 74.3165C58.5245 74.5475 58.595 74.83 58.595 75.164C58.595 75.79 58.365 76.2815 57.905 76.6385C57.445 76.9955 56.811 77.174 56.003 77.174Z" fill="#475569"/>
</svg>
