<svg width="78" height="80" viewBox="0 0 78 80" fill="none" xmlns="http://www.w3.org/2000/svg">
<rect x="10.75" width="56" height="56" rx="16" fill="#EC4899" fill-opacity="0.1"/>
<path d="M42.25 38.5L35.25 36.05L29.825 38.15C29.4361 38.3056 29.0764 38.2618 28.7458 38.0187C28.4153 37.7757 28.25 37.45 28.25 37.0417V20.7083C28.25 20.4556 28.3229 20.2319 28.4688 20.0375C28.6146 19.8431 28.8139 19.6972 29.0667 19.6L35.25 17.5L42.25 19.95L47.675 17.85C48.0639 17.6944 48.4236 17.7382 48.7542 17.9812C49.0847 18.2243 49.25 18.55 49.25 18.9583V35.2917C49.25 35.5444 49.1771 35.7681 49.0312 35.9625C48.8854 36.1569 48.6861 36.3028 48.4333 36.4L42.25 38.5ZM41.0833 35.6417V21.9917L36.4167 20.3583V34.0083L41.0833 35.6417ZM43.4167 35.6417L46.9167 34.475V20.65L43.4167 21.9917V35.6417ZM30.5833 35.35L34.0833 34.0083V20.3583L30.5833 21.525V35.35ZM43.4167 21.9917V35.6417V21.9917ZM34.0833 20.3583V34.0083V20.3583Z" fill="#EC4899"/>
<path d="M25.07 77V69.374H22.124V68.36H29.084V69.374H26.138V77H25.07ZM29.444 77V70.52H30.398V72.086L30.242 71.882C30.318 71.682 30.417 71.498 30.539 71.33C30.661 71.162 30.798 71.024 30.95 70.916C31.116 70.782 31.3055 70.679 31.5185 70.607C31.7315 70.535 31.948 70.492 32.168 70.478C32.388 70.464 32.594 70.478 32.786 70.52V71.522C32.562 71.464 32.3155 71.449 32.0465 71.477C31.7775 71.505 31.53 71.602 31.304 71.768C31.094 71.918 30.9325 72.0985 30.8195 72.3095C30.7065 72.5205 30.628 72.749 30.584 72.995C30.54 73.241 30.518 73.492 30.518 73.748V77H29.444ZM35.558 77.18C35.074 77.18 34.6685 77.0915 34.3415 76.9145C34.0145 76.7375 33.7685 76.5025 33.6035 76.2095C33.4385 75.9165 33.356 75.596 33.356 75.248C33.356 74.908 33.4205 74.6135 33.5495 74.3645C33.6785 74.1155 33.8615 73.9075 34.0985 73.7405C34.3355 73.5735 34.618 73.442 34.946 73.346C35.254 73.264 35.5985 73.1915 35.9795 73.1285C36.3605 73.0655 36.747 73.0085 37.139 72.9575C37.531 72.9065 37.898 72.856 38.24 72.806L37.856 73.028C37.866 72.454 37.7505 72.0285 37.5095 71.7515C37.2685 71.4745 36.852 71.336 36.26 71.336C35.868 71.336 35.5245 71.4255 35.2295 71.6045C34.9345 71.7835 34.728 72.072 34.61 72.47L33.596 72.164C33.75 71.596 34.0515 71.15 34.5005 70.826C34.9495 70.502 35.54 70.34 36.272 70.34C36.858 70.34 37.362 70.445 37.784 70.655C38.206 70.865 38.51 71.182 38.696 71.606C38.788 71.806 38.846 72.023 38.87 72.257C38.894 72.491 38.906 72.736 38.906 72.992V77H37.958V75.446L38.18 75.59C37.936 76.116 37.5945 76.5125 37.1555 76.7795C36.7165 77.0465 36.184 77.18 35.558 77.18ZM35.72 76.286C36.104 76.286 36.437 76.2175 36.719 76.0805C37.001 75.9435 37.228 75.7615 37.4 75.5345C37.572 75.3075 37.684 75.06 37.736 74.792C37.794 74.592 37.8265 74.3695 37.8335 74.1245C37.8405 73.8795 37.844 73.69 37.844 73.556L38.216 73.718C37.868 73.768 37.5255 73.815 37.1885 73.859C36.8515 73.903 36.533 73.9495 36.233 73.9985C35.933 74.0475 35.664 74.106 35.426 74.174C35.248 74.23 35.0825 74.3025 34.9295 74.3915C34.7765 74.4805 34.653 74.594 34.559 74.732C34.465 74.87 34.418 75.04 34.418 75.242C34.418 75.42 34.4625 75.5885 34.5515 75.7475C34.6405 75.9065 34.7805 76.036 34.9715 76.136C35.1625 76.236 35.412 76.286 35.72 76.286ZM41.978 77L39.626 70.52H40.706L42.524 75.638L44.336 70.52H45.422L43.07 77H41.978ZM49.07 77.18C48.432 77.18 47.876 77.0395 47.402 76.7585C46.928 76.4775 46.5595 76.0835 46.2965 75.5765C46.0335 75.0695 45.902 74.478 45.902 73.802C45.902 73.094 46.0315 72.481 46.2905 71.963C46.5495 71.445 46.9125 71.045 47.3795 70.763C47.8465 70.481 48.394 70.34 49.022 70.34C49.672 70.34 50.226 70.49 50.684 70.79C51.142 71.09 51.4865 71.518 51.7175 72.074C51.9485 72.63 52.047 73.292 52.013 74.06H50.936V73.676C50.924 72.88 50.762 72.285 50.45 71.891C50.138 71.497 49.674 71.3 49.058 71.3C48.396 71.3 47.8935 71.512 47.5505 71.936C47.2075 72.36 47.036 72.968 47.036 73.76C47.036 74.524 47.2075 75.116 47.5505 75.536C47.8935 75.956 48.384 76.166 49.022 76.166C49.45 76.166 49.822 76.068 50.138 75.872C50.454 75.676 50.702 75.394 50.882 75.026L51.908 75.38C51.654 75.952 51.2745 76.395 50.7695 76.709C50.2645 77.023 49.698 77.18 49.07 77.18ZM46.676 74.06V73.202H51.464V74.06H46.676ZM53.468 77V68.18H54.536V77H53.468Z" fill="#475569"/>
</svg>
