<svg width="271" height="80" viewBox="0 0 271 80" fill="none" xmlns="http://www.w3.org/2000/svg">
<rect x="107.25" width="56" height="56" rx="16" fill="#3B82F6" fill-opacity="0.1"/>
<path d="M127.083 35.0002V26.8335H129.417V35.0002H127.083ZM134.083 35.0002V26.8335H136.417V35.0002H134.083ZM123.583 39.6668V37.3335H146.917V39.6668H123.583ZM141.083 35.0002V26.8335H143.417V35.0002H141.083ZM123.583 24.5002V22.1668L135.25 16.3335L146.917 22.1668V24.5002H123.583ZM128.775 22.1668H135.25H141.725H128.775ZM128.775 22.1668H141.725L135.25 18.9585L128.775 22.1668Z" fill="#2563EB"/>
<path d="M113.836 77V68.36H114.904V77H113.836ZM121.318 77V73.754C121.318 73.448 121.291 73.153 121.236 72.869C121.181 72.585 121.086 72.3295 120.952 72.1025C120.818 71.8755 120.638 71.696 120.412 71.564C120.186 71.432 119.902 71.366 119.56 71.366C119.292 71.366 119.049 71.4115 118.83 71.5025C118.611 71.5935 118.423 71.7305 118.267 71.9135C118.111 72.0965 117.991 72.327 117.905 72.605C117.821 72.883 117.778 73.21 117.778 73.586L117.076 73.37C117.076 72.744 117.189 72.2055 117.415 71.7545C117.641 71.3035 117.959 70.957 118.369 70.715C118.779 70.473 119.262 70.352 119.818 70.352C120.236 70.352 120.594 70.418 120.891 70.55C121.188 70.682 121.434 70.8575 121.63 71.0765C121.826 71.2955 121.98 71.5395 122.092 71.8085C122.204 72.0775 122.283 72.3515 122.329 72.6305C122.375 72.9095 122.398 73.172 122.398 73.418V77H121.318ZM116.698 77V70.52H117.658V72.254H117.778V77H116.698ZM127.576 77C127.19 77.078 126.811 77.11 126.438 77.096C126.065 77.082 125.732 77.006 125.439 76.868C125.146 76.73 124.924 76.514 124.774 76.22C124.646 75.966 124.577 75.708 124.567 75.446C124.557 75.184 124.552 74.886 124.552 74.552V68.72H125.62V74.504C125.62 74.77 125.623 74.9965 125.629 75.1835C125.635 75.3705 125.676 75.532 125.752 75.668C125.896 75.926 126.125 76.0765 126.439 76.1195C126.753 76.1625 127.132 76.15 127.576 76.082V77ZM123.238 71.402V70.52H127.576V71.402H123.238ZM131.434 77.18C130.796 77.18 130.24 77.0395 129.766 76.7585C129.292 76.4775 128.924 76.0835 128.661 75.5765C128.398 75.0695 128.266 74.478 128.266 73.802C128.266 73.094 128.396 72.481 128.655 71.963C128.914 71.445 129.277 71.045 129.744 70.763C130.211 70.481 130.758 70.34 131.386 70.34C132.036 70.34 132.59 70.49 133.048 70.79C133.506 71.09 133.851 71.518 134.082 72.074C134.313 72.63 134.411 73.292 134.377 74.06H133.3V73.676C133.288 72.88 133.126 72.285 132.814 71.891C132.502 71.497 132.038 71.3 131.422 71.3C130.76 71.3 130.258 71.512 129.915 71.936C129.572 72.36 129.4 72.968 129.4 73.76C129.4 74.524 129.572 75.116 129.915 75.536C130.258 75.956 130.748 76.166 131.386 76.166C131.814 76.166 132.186 76.068 132.502 75.872C132.818 75.676 133.066 75.394 133.246 75.026L134.272 75.38C134.018 75.952 133.639 76.395 133.134 76.709C132.629 77.023 132.062 77.18 131.434 77.18ZM129.04 74.06V73.202H133.828V74.06H129.04ZM135.712 77V70.52H136.666V72.086L136.51 71.882C136.586 71.682 136.685 71.498 136.807 71.33C136.929 71.162 137.066 71.024 137.218 70.916C137.384 70.782 137.573 70.679 137.786 70.607C137.999 70.535 138.216 70.492 138.436 70.478C138.656 70.464 138.862 70.478 139.054 70.52V71.522C138.83 71.464 138.583 71.449 138.314 71.477C138.045 71.505 137.798 71.602 137.572 71.768C137.362 71.918 137.2 72.0985 137.087 72.3095C136.974 72.5205 136.896 72.749 136.852 72.995C136.808 73.241 136.786 73.492 136.786 73.748V77H135.712ZM142.882 77.18C142.244 77.18 141.688 77.0395 141.214 76.7585C140.74 76.4775 140.371 76.0835 140.108 75.5765C139.845 75.0695 139.714 74.478 139.714 73.802C139.714 73.094 139.843 72.481 140.102 71.963C140.361 71.445 140.724 71.045 141.191 70.763C141.658 70.481 142.206 70.34 142.834 70.34C143.484 70.34 144.038 70.49 144.496 70.79C144.954 71.09 145.298 71.518 145.529 72.074C145.76 72.63 145.859 73.292 145.825 74.06H144.748V73.676C144.736 72.88 144.574 72.285 144.262 71.891C143.95 71.497 143.486 71.3 142.87 71.3C142.208 71.3 141.705 71.512 141.362 71.936C141.019 72.36 140.848 72.968 140.848 73.76C140.848 74.524 141.019 75.116 141.362 75.536C141.705 75.956 142.196 76.166 142.834 76.166C143.262 76.166 143.634 76.068 143.95 75.872C144.266 75.676 144.514 75.394 144.694 75.026L145.72 75.38C145.466 75.952 145.086 76.395 144.581 76.709C144.076 77.023 143.51 77.18 142.882 77.18ZM140.488 74.06V73.202H145.276V74.06H140.488ZM149.608 77.174C148.834 77.174 148.2 77.005 147.707 76.667C147.214 76.329 146.912 75.856 146.8 75.248L147.892 75.074C147.98 75.426 148.182 75.705 148.498 75.911C148.814 76.117 149.206 76.22 149.674 76.22C150.116 76.22 150.463 76.1285 150.716 75.9455C150.969 75.7625 151.096 75.512 151.096 75.194C151.096 75.012 151.054 74.864 150.97 74.75C150.886 74.636 150.713 74.529 150.451 74.429C150.189 74.329 149.794 74.208 149.266 74.066C148.694 73.914 148.243 73.7565 147.914 73.5935C147.585 73.4305 147.351 73.241 147.212 73.025C147.073 72.809 147.004 72.546 147.004 72.236C147.004 71.856 147.108 71.5235 147.316 71.2385C147.524 70.9535 147.814 70.7325 148.187 70.5755C148.56 70.4185 148.996 70.34 149.494 70.34C149.986 70.34 150.425 70.4185 150.812 70.5755C151.199 70.7325 151.512 70.9535 151.75 71.2385C151.988 71.5235 152.13 71.856 152.176 72.236L151.084 72.434C151.032 72.088 150.864 71.8145 150.581 71.6135C150.298 71.4125 149.936 71.306 149.494 71.294C149.074 71.28 148.733 71.355 148.471 71.519C148.209 71.683 148.078 71.904 148.078 72.182C148.078 72.34 148.126 72.4745 148.223 72.5855C148.32 72.6965 148.502 72.802 148.769 72.902C149.036 73.002 149.424 73.116 149.932 73.244C150.502 73.39 150.952 73.5475 151.282 73.7165C151.612 73.8855 151.847 74.0855 151.988 74.3165C152.129 74.5475 152.2 74.83 152.2 75.164C152.2 75.79 151.97 76.2815 151.51 76.6385C151.05 76.9955 150.416 77.174 149.608 77.174ZM157.144 77C156.758 77.078 156.379 77.11 156.006 77.096C155.633 77.082 155.3 77.006 155.007 76.868C154.714 76.73 154.492 76.514 154.342 76.22C154.214 75.966 154.145 75.708 154.135 75.446C154.125 75.184 154.12 74.886 154.12 74.552V68.72H155.188V74.504C155.188 74.77 155.191 74.9965 155.197 75.1835C155.203 75.3705 155.244 75.532 155.32 75.668C155.464 75.926 155.693 76.0765 156.007 76.1195C156.321 76.1625 156.7 76.15 157.144 76.082V77ZM152.806 71.402V70.52H157.144V71.402H152.806Z" fill="#475569"/>
</svg>
