<svg width="78" height="80" viewBox="0 0 78 80" fill="none" xmlns="http://www.w3.org/2000/svg">
<rect x="10.75" width="56" height="56" rx="16" fill="#10B981" fill-opacity="0.1"/>
<path d="M31.1665 38.5V17.5H39.3332C41.2776 17.5 42.9304 18.1806 44.2915 19.5417C45.6526 20.9028 46.3332 22.5556 46.3332 24.5C46.3332 26.4444 45.6526 28.0972 44.2915 29.4583C42.9304 30.8194 41.2776 31.5 39.3332 31.5H35.8332V38.5H31.1665ZM35.8332 26.8333H39.5665C40.2082 26.8333 40.7575 26.6049 41.2144 26.1479C41.6714 25.691 41.8998 25.1417 41.8998 24.5C41.8998 23.8583 41.6714 23.309 41.2144 22.8521C40.7575 22.3951 40.2082 22.1667 39.5665 22.1667H35.8332V26.8333Z" fill="#10B981"/>
<g clip-path="url(#clip0_183_708)">
<path d="M18.6199 77V68.36H22.0339C22.1179 68.36 22.2174 68.363 22.3324 68.369C22.4474 68.375 22.5599 68.388 22.6699 68.408C23.1359 68.48 23.5279 68.6405 23.8459 68.8895C24.1639 69.1385 24.4034 69.452 24.5644 69.83C24.7254 70.208 24.8059 70.626 24.8059 71.084C24.8059 71.542 24.7249 71.96 24.5629 72.338C24.4009 72.716 24.1609 73.0295 23.8429 73.2785C23.5249 73.5275 23.1339 73.688 22.6699 73.76C22.5599 73.776 22.4469 73.788 22.3309 73.796C22.2149 73.804 22.1159 73.808 22.0339 73.808H19.6879V77H18.6199ZM19.6879 72.794H21.9979C22.0739 72.794 22.1604 72.79 22.2574 72.782C22.3544 72.774 22.4479 72.76 22.5379 72.74C22.8139 72.678 23.0384 72.5615 23.2114 72.3905C23.3844 72.2195 23.5114 72.019 23.5924 71.789C23.6734 71.559 23.7139 71.324 23.7139 71.084C23.7139 70.844 23.6734 70.609 23.5924 70.379C23.5114 70.149 23.3844 69.9485 23.2114 69.7775C23.0384 69.6065 22.8139 69.49 22.5379 69.428C22.4479 69.406 22.3544 69.3915 22.2574 69.3845C22.1604 69.3775 22.0739 69.374 21.9979 69.374H19.6879V72.794ZM27.6079 77.18C27.1239 77.18 26.7184 77.0915 26.3914 76.9145C26.0644 76.7375 25.8184 76.5025 25.6534 76.2095C25.4884 75.9165 25.4059 75.596 25.4059 75.248C25.4059 74.908 25.4704 74.6135 25.5994 74.3645C25.7284 74.1155 25.9114 73.9075 26.1484 73.7405C26.3854 73.5735 26.6679 73.442 26.9959 73.346C27.3039 73.264 27.6484 73.1915 28.0294 73.1285C28.4104 73.0655 28.7969 73.0085 29.1889 72.9575C29.5809 72.9065 29.9479 72.856 30.2899 72.806L29.9059 73.028C29.9159 72.454 29.8004 72.0285 29.5594 71.7515C29.3184 71.4745 28.9019 71.336 28.3099 71.336C27.9179 71.336 27.5744 71.4255 27.2794 71.6045C26.9844 71.7835 26.7779 72.072 26.6599 72.47L25.6459 72.164C25.7999 71.596 26.1014 71.15 26.5504 70.826C26.9994 70.502 27.5899 70.34 28.3219 70.34C28.9079 70.34 29.4119 70.445 29.8339 70.655C30.2559 70.865 30.5599 71.182 30.7459 71.606C30.8379 71.806 30.8959 72.023 30.9199 72.257C30.9439 72.491 30.9559 72.736 30.9559 72.992V77H30.0079V75.446L30.2299 75.59C29.9859 76.116 29.6444 76.5125 29.2054 76.7795C28.7664 77.0465 28.2339 77.18 27.6079 77.18ZM27.7699 76.286C28.1539 76.286 28.4869 76.2175 28.7689 76.0805C29.0509 75.9435 29.2779 75.7615 29.4499 75.5345C29.6219 75.3075 29.7339 75.06 29.7859 74.792C29.8439 74.592 29.8764 74.3695 29.8834 74.1245C29.8904 73.8795 29.8939 73.69 29.8939 73.556L30.2659 73.718C29.9179 73.768 29.5754 73.815 29.2384 73.859C28.9014 73.903 28.5829 73.9495 28.2829 73.9985C27.9829 74.0475 27.7139 74.106 27.4759 74.174C27.2979 74.23 27.1324 74.3025 26.9794 74.3915C26.8264 74.4805 26.7029 74.594 26.6089 74.732C26.5149 74.87 26.4679 75.04 26.4679 75.242C26.4679 75.42 26.5124 75.5885 26.6014 75.7475C26.6904 75.9065 26.8304 76.036 27.0214 76.136C27.2124 76.236 27.4619 76.286 27.7699 76.286ZM32.5159 77V70.52H33.4699V72.086L33.3139 71.882C33.3899 71.682 33.4889 71.498 33.6109 71.33C33.7329 71.162 33.8699 71.024 34.0219 70.916C34.1879 70.782 34.3774 70.679 34.5904 70.607C34.8034 70.535 35.0199 70.492 35.2399 70.478C35.4599 70.464 35.6659 70.478 35.8579 70.52V71.522C35.6339 71.464 35.3874 71.449 35.1184 71.477C34.8494 71.505 34.6019 71.602 34.3759 71.768C34.1659 71.918 34.0044 72.0985 33.8914 72.3095C33.7784 72.5205 33.6999 72.749 33.6559 72.995C33.6119 73.241 33.5899 73.492 33.5899 73.748V77H32.5159ZM36.9919 77L36.9979 68.36H38.0779V73.64L40.7959 70.52H42.1819L39.3199 73.76L42.5179 77H41.0239L38.0779 73.88V77H36.9919ZM43.2379 69.374V68.27H44.3059V69.374H43.2379ZM43.2379 77V70.52H44.3059V77H43.2379ZM50.7199 77V73.754C50.7199 73.448 50.6924 73.153 50.6374 72.869C50.5824 72.585 50.4879 72.3295 50.3539 72.1025C50.2199 71.8755 50.0399 71.696 49.8139 71.564C49.5879 71.432 49.3039 71.366 48.9619 71.366C48.6939 71.366 48.4504 71.4115 48.2314 71.5025C48.0124 71.5935 47.8249 71.7305 47.6689 71.9135C47.5129 72.0965 47.3924 72.327 47.3074 72.605C47.2224 72.883 47.1799 73.21 47.1799 73.586L46.4779 73.37C46.4779 72.744 46.5909 72.2055 46.8169 71.7545C47.0429 71.3035 47.3609 70.957 47.7709 70.715C48.1809 70.473 48.6639 70.352 49.2199 70.352C49.6379 70.352 49.9954 70.418 50.2924 70.55C50.5894 70.682 50.8359 70.8575 51.0319 71.0765C51.2279 71.2955 51.3819 71.5395 51.4939 71.8085C51.6059 72.0775 51.6849 72.3515 51.7309 72.6305C51.7769 72.9095 51.7999 73.172 51.7999 73.418V77H50.7199ZM46.0999 77V70.52H47.0599V72.254H47.1799V77H46.0999ZM55.9819 80.06C55.6419 80.06 55.3099 80.0085 54.9859 79.9055C54.6619 79.8025 54.3649 79.646 54.0949 79.436C53.8249 79.226 53.5999 78.96 53.4199 78.638L54.3979 78.122C54.5579 78.44 54.7844 78.6705 55.0774 78.8135C55.3704 78.9565 55.6739 79.028 55.9879 79.028C56.3999 79.028 56.7414 78.953 57.0124 78.803C57.2834 78.653 57.4844 78.43 57.6154 78.134C57.7464 77.838 57.8099 77.47 57.8059 77.03V75.26H57.9319V70.52H58.8799V77.042C58.8799 77.22 58.8744 77.3905 58.8634 77.5535C58.8524 77.7165 58.8319 77.878 58.8019 78.038C58.7179 78.498 58.5519 78.877 58.3039 79.175C58.0559 79.473 57.7359 79.695 57.3439 79.841C56.9519 79.987 56.4979 80.06 55.9819 80.06ZM55.9039 77.18C55.2999 77.18 54.7814 77.0295 54.3484 76.7285C53.9154 76.4275 53.5824 76.0185 53.3494 75.5015C53.1164 74.9845 52.9999 74.402 52.9999 73.754C52.9999 73.106 53.1164 72.5245 53.3494 72.0095C53.5824 71.4945 53.9154 71.0875 54.3484 70.7885C54.7814 70.4895 55.2979 70.34 55.8979 70.34C56.5079 70.34 57.0214 70.4885 57.4384 70.7855C57.8554 71.0825 58.1709 71.4885 58.3849 72.0035C58.5989 72.5185 58.7059 73.102 58.7059 73.754C58.7059 74.4 58.5989 74.9815 58.3849 75.4985C58.1709 76.0155 57.8559 76.425 57.4399 76.727C57.0239 77.029 56.5119 77.18 55.9039 77.18ZM56.0359 76.202C56.4719 76.202 56.8299 76.097 57.1099 75.887C57.3899 75.677 57.5969 75.3875 57.7309 75.0185C57.8649 74.6495 57.9319 74.228 57.9319 73.754C57.9319 73.276 57.8644 72.8535 57.7294 72.4865C57.5944 72.1195 57.3889 71.833 57.1129 71.627C56.8369 71.421 56.4879 71.318 56.0659 71.318C55.6259 71.318 55.2629 71.426 54.9769 71.642C54.6909 71.858 54.4789 72.15 54.3409 72.518C54.2029 72.886 54.1339 73.298 54.1339 73.754C54.1339 74.214 54.2039 74.629 54.3439 74.999C54.4839 75.369 54.6944 75.662 54.9754 75.878C55.2564 76.094 55.6099 76.202 56.0359 76.202Z" fill="#475569"/>
</g>
<defs>
<clipPath id="clip0_183_708">
<rect width="77.5" height="16" fill="white" transform="translate(0 64)"/>
</clipPath>
</defs>
</svg>
