<svg width="271" height="80" viewBox="0 0 271 80" fill="none" xmlns="http://www.w3.org/2000/svg">
<rect x="107.25" width="56" height="56" rx="16" fill="#EF4444" fill-opacity="0.1"/>
<path d="M125.917 34.4165V36.7498V36.7498V36.7498H144.583V36.7498V36.7498V34.4165H125.917V34.4165M125.917 21.5832H128.483C128.386 21.4082 128.323 21.2234 128.294 21.029C128.265 20.8346 128.25 20.6304 128.25 20.4165C128.25 19.4443 128.59 18.6179 129.271 17.9373C129.952 17.2568 130.778 16.9165 131.75 16.9165C132.333 16.9165 132.873 17.0672 133.369 17.3686C133.865 17.67 134.297 18.0443 134.667 18.4915L135.25 19.2498L135.833 18.4915C136.183 18.0248 136.611 17.6457 137.117 17.354C137.622 17.0623 138.167 16.9165 138.75 16.9165C139.722 16.9165 140.549 17.2568 141.229 17.9373C141.91 18.6179 142.25 19.4443 142.25 20.4165C142.25 20.6304 142.236 20.8346 142.206 21.029C142.177 21.2234 142.114 21.4082 142.017 21.5832H144.583C145.225 21.5832 145.774 21.8116 146.231 22.2686C146.688 22.7255 146.917 23.2748 146.917 23.9165V36.7498C146.917 37.3915 146.688 37.9408 146.231 38.3978C145.774 38.8547 145.225 39.0832 144.583 39.0832H125.917C125.275 39.0832 124.726 38.8547 124.269 38.3978C123.812 37.9408 123.583 37.3915 123.583 36.7498V23.9165C123.583 23.2748 123.812 22.7255 124.269 22.2686C124.726 21.8116 125.275 21.5832 125.917 21.5832V21.5832M125.917 30.9165H144.583V23.9165V23.9165V23.9165H138.633L141.083 27.2415L139.217 28.5832L135.25 23.2165L131.283 28.5832L129.417 27.2415L131.808 23.9165H125.917V23.9165V23.9165V30.9165V30.9165M131.75 21.5832C132.081 21.5832 132.358 21.4714 132.581 21.2478C132.805 21.0241 132.917 20.7471 132.917 20.4165C132.917 20.0859 132.805 19.8089 132.581 19.5853C132.358 19.3616 132.081 19.2498 131.75 19.2498C131.42 19.2498 131.143 19.3616 130.919 19.5853C130.695 19.8089 130.583 20.0859 130.583 20.4165C130.583 20.7471 130.695 21.0241 130.919 21.2478C131.143 21.4714 131.42 21.5832 131.75 21.5832V21.5832M138.75 21.5832C139.081 21.5832 139.358 21.4714 139.581 21.2478C139.805 21.0241 139.917 20.7471 139.917 20.4165C139.917 20.0859 139.805 19.8089 139.581 19.5853C139.358 19.3616 139.081 19.2498 138.75 19.2498C138.42 19.2498 138.143 19.3616 137.919 19.5853C137.695 19.8089 137.583 20.0859 137.583 20.4165C137.583 20.7471 137.695 21.0241 137.919 21.2478C138.143 21.4714 138.42 21.5832 138.75 21.5832V21.5832" fill="#EF4444"/>
<path d="M129.166 77.18C128.572 77.18 128.031 77.0765 127.543 76.8695C127.055 76.6625 126.635 76.364 126.284 75.974C125.933 75.584 125.663 75.1115 125.473 74.5565C125.283 74.0015 125.188 73.376 125.188 72.68C125.188 71.762 125.351 70.967 125.678 70.295C126.005 69.623 126.467 69.1035 127.063 68.7365C127.659 68.3695 128.36 68.186 129.166 68.186C130.134 68.186 130.914 68.4115 131.506 68.8625C132.098 69.3135 132.506 69.928 132.73 70.706L131.65 70.928C131.468 70.406 131.171 69.989 130.76 69.677C130.349 69.365 129.836 69.208 129.22 69.206C128.576 69.202 128.04 69.3455 127.613 69.6365C127.186 69.9275 126.865 70.335 126.65 70.859C126.435 71.383 126.326 71.99 126.322 72.68C126.318 73.37 126.423 73.975 126.638 74.495C126.853 75.015 127.176 75.4215 127.607 75.7145C128.038 76.0075 128.576 76.156 129.22 76.16C129.776 76.164 130.243 76.0585 130.622 75.8435C131.001 75.6285 131.295 75.317 131.504 74.909C131.713 74.501 131.84 74.01 131.884 73.436H130.048V72.554H133.012C133.022 72.636 133.028 72.732 133.031 72.842C133.034 72.952 133.036 73.026 133.036 73.064C133.036 73.854 132.889 74.5595 132.595 75.1805C132.301 75.8015 131.866 76.29 131.291 76.646C130.716 77.002 130.008 77.18 129.166 77.18ZM134.356 69.374V68.27H135.424V69.374H134.356ZM134.356 77V70.52H135.424V77H134.356ZM137.842 77V70.166C137.842 70 137.849 69.8295 137.864 69.6545C137.879 69.4795 137.915 69.309 137.972 69.143C138.029 68.977 138.122 68.824 138.25 68.684C138.398 68.522 138.56 68.4055 138.736 68.3345C138.912 68.2635 139.091 68.22 139.273 68.204C139.455 68.188 139.628 68.18 139.792 68.18H140.614V69.068H139.852C139.536 69.068 139.3 69.1455 139.144 69.3005C138.988 69.4555 138.91 69.688 138.91 69.998V77H137.842ZM136.744 71.402V70.52H140.614V71.402H136.744ZM145.192 77C144.806 77.078 144.426 77.11 144.053 77.096C143.68 77.082 143.347 77.006 143.054 76.868C142.761 76.73 142.54 76.514 142.39 76.22C142.262 75.966 142.193 75.708 142.183 75.446C142.173 75.184 142.168 74.886 142.168 74.552V68.72H143.236V74.504C143.236 74.77 143.239 74.9965 143.245 75.1835C143.251 75.3705 143.292 75.532 143.368 75.668C143.512 75.926 143.741 76.0765 144.055 76.1195C144.369 76.1625 144.748 76.15 145.192 76.082V77ZM140.854 71.402V70.52H145.192V71.402H140.854Z" fill="#475569"/>
</svg>
