<svg width="78" height="80" viewBox="0 0 78 80" fill="none" xmlns="http://www.w3.org/2000/svg">
<rect x="10.75" width="56" height="56" rx="16" fill="#6366F1" fill-opacity="0.1"/>
<path d="M32.3335 30.3333C31.6918 30.3333 31.1425 30.1049 30.6856 29.6479C30.2286 29.191 30.0002 28.6417 30.0002 28C30.0002 27.3583 30.2286 26.809 30.6856 26.3521C31.1425 25.8951 31.6918 25.6667 32.3335 25.6667C32.9752 25.6667 33.5245 25.8951 33.9814 26.3521C34.4384 26.809 34.6668 27.3583 34.6668 28C34.6668 28.6417 34.4384 29.191 33.9814 29.6479C33.5245 30.1049 32.9752 30.3333 32.3335 30.3333ZM32.3335 35C30.3891 35 28.7363 34.3194 27.3752 32.9583C26.0141 31.5972 25.3335 29.9444 25.3335 28C25.3335 26.0556 26.0141 24.4028 27.3752 23.0417C28.7363 21.6806 30.3891 21 32.3335 21C33.6363 21 34.8175 21.3208 35.8772 21.9625C36.937 22.6042 37.7779 23.45 38.4002 24.5H48.6668L52.1668 28L46.9168 33.25L44.5835 31.5L42.2502 33.25L39.771 31.5H38.4002C37.7779 32.55 36.937 33.3958 35.8772 34.0375C34.8175 34.6792 33.6363 35 32.3335 35ZM32.3335 32.6667C33.4224 32.6667 34.38 32.3361 35.2064 31.675C36.0328 31.0139 36.5821 30.1778 36.8543 29.1667H40.5002L42.1918 30.3625L44.5835 28.5833L46.6543 30.1875L48.8418 28L47.6752 26.8333H36.8543C36.5821 25.8222 36.0328 24.9861 35.2064 24.325C34.38 23.6639 33.4224 23.3333 32.3335 23.3333C31.0502 23.3333 29.9516 23.7903 29.0377 24.7042C28.1238 25.6181 27.6668 26.7167 27.6668 28C27.6668 29.2833 28.1238 30.3819 29.0377 31.2958C29.9516 32.2097 31.0502 32.6667 32.3335 32.6667Z" fill="#6366F1"/>
<path d="M26.1981 77V68.36H29.6121C29.6961 68.36 29.7956 68.363 29.9106 68.369C30.0256 68.375 30.1381 68.388 30.2481 68.408C30.7141 68.48 31.1061 68.6405 31.4241 68.8895C31.7421 69.1385 31.9816 69.452 32.1426 69.83C32.3036 70.208 32.3841 70.626 32.3841 71.084C32.3841 71.754 32.2101 72.3335 31.8621 72.8225C31.5141 73.3115 31.0041 73.618 30.3321 73.742L29.9241 73.808H27.2661V77H26.1981ZM31.3401 77L29.6361 73.484L30.6921 73.16L32.5641 77H31.3401ZM27.2661 72.794H29.5761C29.6521 72.794 29.7386 72.79 29.8356 72.782C29.9326 72.774 30.0261 72.76 30.1161 72.74C30.3921 72.678 30.6166 72.5615 30.7896 72.3905C30.9626 72.2195 31.0896 72.019 31.1706 71.789C31.2516 71.559 31.2921 71.324 31.2921 71.084C31.2921 70.844 31.2516 70.609 31.1706 70.379C31.0896 70.149 30.9626 69.9485 30.7896 69.7775C30.6166 69.6065 30.3921 69.49 30.1161 69.428C30.0261 69.406 29.9326 69.3915 29.8356 69.3845C29.7386 69.3775 29.6521 69.374 29.5761 69.374H27.2661V72.794ZM36.6921 77.18C36.0541 77.18 35.4981 77.0395 35.0241 76.7585C34.5501 76.4775 34.1816 76.0835 33.9186 75.5765C33.6556 75.0695 33.5241 74.478 33.5241 73.802C33.5241 73.094 33.6536 72.481 33.9126 71.963C34.1716 71.445 34.5346 71.045 35.0016 70.763C35.4686 70.481 36.0161 70.34 36.6441 70.34C37.2941 70.34 37.8481 70.49 38.3061 70.79C38.7641 71.09 39.1086 71.518 39.3396 72.074C39.5706 72.63 39.6691 73.292 39.6351 74.06H38.5581V73.676C38.5461 72.88 38.3841 72.285 38.0721 71.891C37.7601 71.497 37.2961 71.3 36.6801 71.3C36.0181 71.3 35.5156 71.512 35.1726 71.936C34.8296 72.36 34.6581 72.968 34.6581 73.76C34.6581 74.524 34.8296 75.116 35.1726 75.536C35.5156 75.956 36.0061 76.166 36.6441 76.166C37.0721 76.166 37.4441 76.068 37.7601 75.872C38.0761 75.676 38.3241 75.394 38.5041 75.026L39.5301 75.38C39.2761 75.952 38.8966 76.395 38.3916 76.709C37.8866 77.023 37.3201 77.18 36.6921 77.18ZM34.2981 74.06V73.202H39.0861V74.06H34.2981ZM45.4041 77V73.754C45.4041 73.448 45.3766 73.153 45.3216 72.869C45.2666 72.585 45.1721 72.3295 45.0381 72.1025C44.9041 71.8755 44.7241 71.696 44.4981 71.564C44.2721 71.432 43.9881 71.366 43.6461 71.366C43.3781 71.366 43.1346 71.4115 42.9156 71.5025C42.6966 71.5935 42.5091 71.7305 42.3531 71.9135C42.1971 72.0965 42.0766 72.327 41.9916 72.605C41.9066 72.883 41.8641 73.21 41.8641 73.586L41.1621 73.37C41.1621 72.744 41.2751 72.2055 41.5011 71.7545C41.7271 71.3035 42.0451 70.957 42.4551 70.715C42.8651 70.473 43.3481 70.352 43.9041 70.352C44.3221 70.352 44.6796 70.418 44.9766 70.55C45.2736 70.682 45.5201 70.8575 45.7161 71.0765C45.9121 71.2955 46.0661 71.5395 46.1781 71.8085C46.2901 72.0775 46.3691 72.3515 46.4151 72.6305C46.4611 72.9095 46.4841 73.172 46.4841 73.418V77H45.4041ZM40.7841 77V70.52H41.7441V72.254H41.8641V77H40.7841ZM51.6621 77C51.2761 77.078 50.8966 77.11 50.5236 77.096C50.1506 77.082 49.8176 77.006 49.5246 76.868C49.2316 76.73 49.0101 76.514 48.8601 76.22C48.7321 75.966 48.6631 75.708 48.6531 75.446C48.6431 75.184 48.6381 74.886 48.6381 74.552V68.72H49.7061V74.504C49.7061 74.77 49.7091 74.9965 49.7151 75.1835C49.7211 75.3705 49.7621 75.532 49.8381 75.668C49.9821 75.926 50.2111 76.0765 50.5251 76.1195C50.8391 76.1625 51.2181 76.15 51.6621 76.082V77ZM47.3241 71.402V70.52H51.6621V71.402H47.3241Z" fill="#475569"/>
</svg>
