<svg width="78" height="80" viewBox="0 0 78 80" fill="none" xmlns="http://www.w3.org/2000/svg">
<rect x="10.75" width="56" height="56" rx="16" fill="#F43F5E" fill-opacity="0.1"/>
<path d="M34.6665 39.9582L32.3332 38.2082V33.5415H31.1665C30.5248 33.5415 29.9755 33.313 29.5186 32.8561C29.0616 32.3991 28.8332 31.8498 28.8332 31.2082V22.4582C28.5026 22.4582 28.2255 22.3464 28.0019 22.1228C27.7783 21.8991 27.6665 21.6221 27.6665 21.2915C27.6665 20.9609 27.7783 20.6839 28.0019 20.4603C28.2255 20.2366 28.5026 20.1248 28.8332 20.1248H32.3332V18.3748H31.7498C31.4193 18.3748 31.1422 18.263 30.9186 18.0394C30.695 17.8158 30.5832 17.5387 30.5832 17.2082C30.5832 16.8776 30.695 16.6005 30.9186 16.3769C31.1422 16.1533 31.4193 16.0415 31.7498 16.0415H35.2498C35.5804 16.0415 35.8575 16.1533 36.0811 16.3769C36.3047 16.6005 36.4165 16.8776 36.4165 17.2082C36.4165 17.5387 36.3047 17.8158 36.0811 18.0394C35.8575 18.263 35.5804 18.3748 35.2498 18.3748H34.6665V20.1248H38.1665C38.4971 20.1248 38.7741 20.2366 38.9978 20.4603C39.2214 20.6839 39.3332 20.9609 39.3332 21.2915C39.3332 21.6221 39.2214 21.8991 38.9978 22.1228C38.7741 22.3464 38.4971 22.4582 38.1665 22.4582V31.2082C38.1665 31.8498 37.938 32.3991 37.4811 32.8561C37.0241 33.313 36.4748 33.5415 35.8332 33.5415H34.6665V39.9582ZM31.1665 31.2082H35.8332V29.4582H33.7915C33.5582 29.4582 33.354 29.3707 33.179 29.1957C33.004 29.0207 32.9165 28.8165 32.9165 28.5832C32.9165 28.3498 33.004 28.1457 33.179 27.9707C33.354 27.7957 33.5582 27.7082 33.7915 27.7082H35.8332V25.9582H33.7915C33.5582 25.9582 33.354 25.8707 33.179 25.6957C33.004 25.5207 32.9165 25.3165 32.9165 25.0832C32.9165 24.8498 33.004 24.6457 33.179 24.4707C33.354 24.2957 33.5582 24.2082 33.7915 24.2082H35.8332V22.4582H31.1665V31.2082ZM42.8332 39.3748C42.1915 39.3748 41.6422 39.1464 41.1853 38.6894C40.7283 38.2325 40.4998 37.6832 40.4998 37.0415V29.4582C40.4998 28.8943 40.5971 28.4276 40.7915 28.0582C40.9859 27.6887 41.1901 27.3679 41.404 27.0957C41.6179 26.8234 41.8123 26.6047 41.9873 26.4394C42.1623 26.2741 42.2498 26.1137 42.2498 25.9582V25.3748C41.9193 25.3748 41.6422 25.263 41.4186 25.0394C41.195 24.8158 41.0832 24.5387 41.0832 24.2082C41.0832 23.8776 41.195 23.6005 41.4186 23.3769C41.6422 23.1533 41.9193 23.0415 42.2498 23.0415H48.0832C48.4137 23.0415 48.6908 23.1533 48.9144 23.3769C49.138 23.6005 49.2498 23.8776 49.2498 24.2082C49.2498 24.5387 49.138 24.8158 48.9144 25.0394C48.6908 25.263 48.4137 25.3748 48.0832 25.3748V25.9582C48.0832 26.1137 48.1804 26.2887 48.3748 26.4832C48.5693 26.6776 48.7832 26.9109 49.0165 27.1832C49.2304 27.4554 49.42 27.7762 49.5853 28.1457C49.7505 28.5151 49.8332 28.9526 49.8332 29.4582V37.0415C49.8332 37.6832 49.6047 38.2325 49.1478 38.6894C48.6908 39.1464 48.1415 39.3748 47.4998 39.3748H42.8332ZM42.8332 30.0415H47.4998V29.4582C47.4998 29.1665 47.4123 28.9137 47.2373 28.6998C47.0623 28.4859 46.8679 28.2526 46.654 27.9998C46.4401 27.7471 46.2359 27.4651 46.0415 27.154C45.8471 26.8429 45.7498 26.4443 45.7498 25.9582V25.3748H44.5832V25.9582C44.5832 26.4248 44.4908 26.8137 44.3061 27.1248C44.1214 27.4359 43.9221 27.7179 43.7082 27.9707C43.4943 28.2234 43.295 28.4616 43.1103 28.6853C42.9255 28.9089 42.8332 29.1665 42.8332 29.4582V30.0415ZM42.8332 33.5415H47.4998V31.7915H42.8332V33.5415ZM42.8332 37.0415H47.4998V35.2915H42.8332V37.0415ZM42.8332 33.5415H47.4998H42.8332Z" fill="#F43F5E"/>
<path d="M5.20992 77.18C4.59792 77.18 4.04692 77.076 3.55692 76.868C3.06692 76.66 2.66292 76.3635 2.34492 75.9785C2.02692 75.5935 1.81992 75.136 1.72392 74.606L2.82792 74.432C2.96592 74.976 3.25592 75.401 3.69792 75.707C4.13992 76.013 4.66192 76.166 5.26392 76.166C5.64992 76.166 5.99992 76.105 6.31392 75.983C6.62792 75.861 6.87742 75.6865 7.06242 75.4595C7.24742 75.2325 7.33992 74.962 7.33992 74.648C7.33992 74.458 7.30642 74.2935 7.23942 74.1545C7.17242 74.0155 7.08242 73.8975 6.96942 73.8005C6.85642 73.7035 6.72742 73.621 6.58242 73.553C6.43742 73.485 6.28792 73.428 6.13392 73.382L3.93192 72.728C3.69192 72.658 3.45992 72.568 3.23592 72.458C3.01192 72.348 2.81192 72.21 2.63592 72.044C2.45992 71.878 2.31992 71.6775 2.21592 71.4425C2.11192 71.2075 2.05992 70.93 2.05992 70.61C2.05992 70.1 2.19242 69.6635 2.45742 69.3005C2.72242 68.9375 3.08292 68.6605 3.53892 68.4695C3.99492 68.2785 4.50992 68.184 5.08392 68.186C5.66392 68.19 6.18292 68.293 6.64092 68.495C7.09892 68.697 7.47842 68.986 7.77942 69.362C8.08042 69.738 8.28392 70.188 8.38992 70.712L7.25592 70.91C7.19592 70.56 7.06292 70.2575 6.85692 70.0025C6.65092 69.7475 6.39342 69.551 6.08442 69.413C5.77542 69.275 5.43792 69.204 5.07192 69.2C4.71792 69.196 4.39892 69.2525 4.11492 69.3695C3.83092 69.4865 3.60542 69.648 3.43842 69.854C3.27142 70.06 3.18792 70.296 3.18792 70.562C3.18792 70.828 3.26342 71.042 3.41442 71.204C3.56542 71.366 3.75192 71.4935 3.97392 71.5865C4.19592 71.6795 4.41392 71.756 4.62792 71.816L6.27192 72.29C6.45992 72.342 6.67692 72.414 6.92292 72.506C7.16892 72.598 7.40792 72.7275 7.63992 72.8945C7.87192 73.0615 8.06392 73.2815 8.21592 73.5545C8.36792 73.8275 8.44392 74.172 8.44392 74.588C8.44392 75.006 8.36042 75.3765 8.19342 75.6995C8.02642 76.0225 7.79492 76.2935 7.49892 76.5125C7.20292 76.7315 6.85942 76.8975 6.46842 77.0105C6.07742 77.1235 5.65792 77.18 5.20992 77.18ZM12.1639 77.168C11.7459 77.168 11.3884 77.102 11.0914 76.97C10.7944 76.838 10.5479 76.6625 10.3519 76.4435C10.1559 76.2245 10.0019 75.9805 9.88992 75.7115C9.77792 75.4425 9.69892 75.1685 9.65292 74.8895C9.60692 74.6105 9.58392 74.348 9.58392 74.102V70.52H10.6639V73.766C10.6639 74.07 10.6914 74.3645 10.7464 74.6495C10.8014 74.9345 10.8959 75.1905 11.0299 75.4175C11.1639 75.6445 11.3439 75.824 11.5699 75.956C11.7959 76.088 12.0799 76.154 12.4219 76.154C12.6899 76.154 12.9334 76.1085 13.1524 76.0175C13.3714 75.9265 13.5589 75.7895 13.7149 75.6065C13.8709 75.4235 13.9914 75.1925 14.0764 74.9135C14.1614 74.6345 14.2039 74.308 14.2039 73.934L14.9059 74.15C14.9059 74.776 14.7929 75.3145 14.5669 75.7655C14.3409 76.2165 14.0229 76.563 13.6129 76.805C13.2029 77.047 12.7199 77.168 12.1639 77.168ZM14.3239 77V75.266H14.2039V70.52H15.2779V77H14.3239ZM19.9339 77.18C19.3259 77.18 18.8139 77.029 18.3979 76.727C17.9819 76.425 17.6669 76.0155 17.4529 75.4985C17.2389 74.9815 17.1319 74.4 17.1319 73.754C17.1319 73.102 17.2389 72.5185 17.4529 72.0035C17.6669 71.4885 17.9824 71.0825 18.3994 70.7855C18.8164 70.4885 19.3299 70.34 19.9399 70.34C20.5399 70.34 21.0564 70.4895 21.4894 70.7885C21.9224 71.0875 22.2554 71.4945 22.4884 72.0095C22.7214 72.5245 22.8379 73.106 22.8379 73.754C22.8379 74.402 22.7214 74.9845 22.4884 75.5015C22.2554 76.0185 21.9224 76.4275 21.4894 76.7285C21.0564 77.0295 20.5379 77.18 19.9339 77.18ZM16.9519 79.88V70.52H17.9059V75.29H18.0259V79.88H16.9519ZM19.8019 76.202C20.2279 76.202 20.5814 76.094 20.8624 75.878C21.1434 75.662 21.3539 75.369 21.4939 74.999C21.6339 74.629 21.7039 74.214 21.7039 73.754C21.7039 73.298 21.6344 72.886 21.4954 72.518C21.3564 72.15 21.1444 71.858 20.8594 71.642C20.5744 71.426 20.2119 71.318 19.7719 71.318C19.3499 71.318 19.0009 71.421 18.7249 71.627C18.4489 71.833 18.2434 72.1195 18.1084 72.4865C17.9734 72.8535 17.9059 73.276 17.9059 73.754C17.9059 74.228 17.9729 74.6495 18.1069 75.0185C18.2409 75.3875 18.4479 75.677 18.7279 75.887C19.0079 76.097 19.3659 76.202 19.8019 76.202ZM27.1339 77.18C26.5259 77.18 26.0139 77.029 25.5979 76.727C25.1819 76.425 24.8669 76.0155 24.6529 75.4985C24.4389 74.9815 24.3319 74.4 24.3319 73.754C24.3319 73.102 24.4389 72.5185 24.6529 72.0035C24.8669 71.4885 25.1824 71.0825 25.5994 70.7855C26.0164 70.4885 26.5299 70.34 27.1399 70.34C27.7399 70.34 28.2564 70.4895 28.6894 70.7885C29.1224 71.0875 29.4554 71.4945 29.6884 72.0095C29.9214 72.5245 30.0379 73.106 30.0379 73.754C30.0379 74.402 29.9214 74.9845 29.6884 75.5015C29.4554 76.0185 29.1224 76.4275 28.6894 76.7285C28.2564 77.0295 27.7379 77.18 27.1339 77.18ZM24.1519 79.88V70.52H25.1059V75.29H25.2259V79.88H24.1519ZM27.0019 76.202C27.4279 76.202 27.7814 76.094 28.0624 75.878C28.3434 75.662 28.5539 75.369 28.6939 74.999C28.8339 74.629 28.9039 74.214 28.9039 73.754C28.9039 73.298 28.8344 72.886 28.6954 72.518C28.5564 72.15 28.3444 71.858 28.0594 71.642C27.7744 71.426 27.4119 71.318 26.9719 71.318C26.5499 71.318 26.2009 71.421 25.9249 71.627C25.6489 71.833 25.4434 72.1195 25.3084 72.4865C25.1734 72.8535 25.1059 73.276 25.1059 73.754C25.1059 74.228 25.1729 74.6495 25.3069 75.0185C25.4409 75.3875 25.6479 75.677 25.9279 75.887C26.2079 76.097 26.5659 76.202 27.0019 76.202ZM31.4779 77V68.18H32.5459V77H31.4779ZM37.1539 77.18C36.5159 77.18 35.9599 77.0395 35.4859 76.7585C35.0119 76.4775 34.6434 76.0835 34.3804 75.5765C34.1174 75.0695 33.9859 74.478 33.9859 73.802C33.9859 73.094 34.1154 72.481 34.3744 71.963C34.6334 71.445 34.9964 71.045 35.4634 70.763C35.9304 70.481 36.4779 70.34 37.1059 70.34C37.7559 70.34 38.3099 70.49 38.7679 70.79C39.2259 71.09 39.5704 71.518 39.8014 72.074C40.0324 72.63 40.1309 73.292 40.0969 74.06H39.0199V73.676C39.0079 72.88 38.8459 72.285 38.5339 71.891C38.2219 71.497 37.7579 71.3 37.1419 71.3C36.4799 71.3 35.9774 71.512 35.6344 71.936C35.2914 72.36 35.1199 72.968 35.1199 73.76C35.1199 74.524 35.2914 75.116 35.6344 75.536C35.9774 75.956 36.4679 76.166 37.1059 76.166C37.5339 76.166 37.9059 76.068 38.2219 75.872C38.5379 75.676 38.7859 75.394 38.9659 75.026L39.9919 75.38C39.7379 75.952 39.3584 76.395 38.8534 76.709C38.3484 77.023 37.7819 77.18 37.1539 77.18ZM34.7599 74.06V73.202H39.5479V74.06H34.7599ZM48.9979 77L49.0039 72.854C49.0039 72.37 48.8744 71.991 48.6154 71.717C48.3564 71.443 48.0219 71.306 47.6119 71.306C47.3699 71.306 47.1414 71.3615 46.9264 71.4725C46.7114 71.5835 46.5359 71.7555 46.3999 71.9885C46.2639 72.2215 46.1959 72.52 46.1959 72.884L45.6319 72.656C45.6219 72.196 45.7159 71.793 45.9139 71.447C46.1119 71.101 46.3834 70.832 46.7284 70.64C47.0734 70.448 47.4619 70.352 47.8939 70.352C48.5699 70.352 49.1019 70.5575 49.4899 70.9685C49.8779 71.3795 50.0719 71.93 50.0719 72.62L50.0659 77H48.9979ZM41.2459 77V70.52H42.1999V72.254H42.3199V77H41.2459ZM45.1279 77L45.1339 72.896C45.1339 72.402 45.0059 72.0135 44.7499 71.7305C44.4939 71.4475 44.1539 71.306 43.7299 71.306C43.3079 71.306 42.9674 71.4505 42.7084 71.7395C42.4494 72.0285 42.3199 72.41 42.3199 72.884L41.7559 72.548C41.7559 72.128 41.8559 71.7525 42.0559 71.4215C42.2559 71.0905 42.5279 70.8295 42.8719 70.6385C43.2159 70.4475 43.6059 70.352 44.0419 70.352C44.4779 70.352 44.8574 70.4445 45.1804 70.6295C45.5034 70.8145 45.7534 71.078 45.9304 71.42C46.1074 71.762 46.1959 72.168 46.1959 72.638L46.1899 77H45.1279ZM54.3799 77.18C53.7419 77.18 53.1859 77.0395 52.7119 76.7585C52.2379 76.4775 51.8694 76.0835 51.6064 75.5765C51.3434 75.0695 51.2119 74.478 51.2119 73.802C51.2119 73.094 51.3414 72.481 51.6004 71.963C51.8594 71.445 52.2224 71.045 52.6894 70.763C53.1564 70.481 53.7039 70.34 54.3319 70.34C54.9819 70.34 55.5359 70.49 55.9939 70.79C56.4519 71.09 56.7964 71.518 57.0274 72.074C57.2584 72.63 57.3569 73.292 57.3229 74.06H56.2459V73.676C56.2339 72.88 56.0719 72.285 55.7599 71.891C55.4479 71.497 54.9839 71.3 54.3679 71.3C53.7059 71.3 53.2034 71.512 52.8604 71.936C52.5174 72.36 52.3459 72.968 52.3459 73.76C52.3459 74.524 52.5174 75.116 52.8604 75.536C53.2034 75.956 53.6939 76.166 54.3319 76.166C54.7599 76.166 55.1319 76.068 55.4479 75.872C55.7639 75.676 56.0119 75.394 56.1919 75.026L57.2179 75.38C56.9639 75.952 56.5844 76.395 56.0794 76.709C55.5744 77.023 55.0079 77.18 54.3799 77.18ZM51.9859 74.06V73.202H56.7739V74.06H51.9859ZM63.0919 77V73.754C63.0919 73.448 63.0644 73.153 63.0094 72.869C62.9544 72.585 62.8599 72.3295 62.7259 72.1025C62.5919 71.8755 62.4119 71.696 62.1859 71.564C61.9599 71.432 61.6759 71.366 61.3339 71.366C61.0659 71.366 60.8224 71.4115 60.6034 71.5025C60.3844 71.5935 60.1969 71.7305 60.0409 71.9135C59.8849 72.0965 59.7644 72.327 59.6794 72.605C59.5944 72.883 59.5519 73.21 59.5519 73.586L58.8499 73.37C58.8499 72.744 58.9629 72.2055 59.1889 71.7545C59.4149 71.3035 59.7329 70.957 60.1429 70.715C60.5529 70.473 61.0359 70.352 61.5919 70.352C62.0099 70.352 62.3674 70.418 62.6644 70.55C62.9614 70.682 63.2079 70.8575 63.4039 71.0765C63.5999 71.2955 63.7539 71.5395 63.8659 71.8085C63.9779 72.0775 64.0569 72.3515 64.1029 72.6305C64.1489 72.9095 64.1719 73.172 64.1719 73.418V77H63.0919ZM58.4719 77V70.52H59.4319V72.254H59.5519V77H58.4719ZM69.3499 77C68.9639 77.078 68.5844 77.11 68.2114 77.096C67.8384 77.082 67.5054 77.006 67.2124 76.868C66.9194 76.73 66.6979 76.514 66.5479 76.22C66.4199 75.966 66.3509 75.708 66.3409 75.446C66.3309 75.184 66.3259 74.886 66.3259 74.552V68.72H67.3939V74.504C67.3939 74.77 67.3969 74.9965 67.4029 75.1835C67.4089 75.3705 67.4499 75.532 67.5259 75.668C67.6699 75.926 67.8989 76.0765 68.2129 76.1195C68.5269 76.1625 68.9059 76.15 69.3499 76.082V77ZM65.0119 71.402V70.52H69.3499V71.402H65.0119ZM73.1179 77.174C72.3439 77.174 71.7104 77.005 71.2174 76.667C70.7244 76.329 70.4219 75.856 70.3099 75.248L71.4019 75.074C71.4899 75.426 71.6919 75.705 72.0079 75.911C72.3239 76.117 72.7159 76.22 73.1839 76.22C73.6259 76.22 73.9734 76.1285 74.2264 75.9455C74.4794 75.7625 74.6059 75.512 74.6059 75.194C74.6059 75.012 74.5639 74.864 74.4799 74.75C74.3959 74.636 74.2229 74.529 73.9609 74.429C73.6989 74.329 73.3039 74.208 72.7759 74.066C72.2039 73.914 71.7534 73.7565 71.4244 73.5935C71.0954 73.4305 70.8614 73.241 70.7224 73.025C70.5834 72.809 70.5139 72.546 70.5139 72.236C70.5139 71.856 70.6179 71.5235 70.8259 71.2385C71.0339 70.9535 71.3244 70.7325 71.6974 70.5755C72.0704 70.4185 72.5059 70.34 73.0039 70.34C73.4959 70.34 73.9354 70.4185 74.3224 70.5755C74.7094 70.7325 75.0219 70.9535 75.2599 71.2385C75.4979 71.5235 75.6399 71.856 75.6859 72.236L74.5939 72.434C74.5419 72.088 74.3744 71.8145 74.0914 71.6135C73.8084 71.4125 73.4459 71.306 73.0039 71.294C72.5839 71.28 72.2429 71.355 71.9809 71.519C71.7189 71.683 71.5879 71.904 71.5879 72.182C71.5879 72.34 71.6364 72.4745 71.7334 72.5855C71.8304 72.6965 72.0124 72.802 72.2794 72.902C72.5464 73.002 72.9339 73.116 73.4419 73.244C74.0119 73.39 74.4619 73.5475 74.7919 73.7165C75.1219 73.8855 75.3574 74.0855 75.4984 74.3165C75.6394 74.5475 75.7099 74.83 75.7099 75.164C75.7099 75.79 75.4799 76.2815 75.0199 76.6385C74.5599 76.9955 73.9259 77.174 73.1179 77.174Z" fill="#475569"/>
</svg>
