<svg width="271" height="80" viewBox="0 0 271 80" fill="none" xmlns="http://www.w3.org/2000/svg">
<rect x="107.25" width="56" height="56" rx="16" fill="#EF4444" fill-opacity="0.1"/>
<path d="M129.417 38.5V36.1667H134.083V32.55C133.131 32.3361 132.28 31.9326 131.531 31.3396C130.783 30.7465 130.233 30.0028 129.883 29.1083C128.425 28.9333 127.205 28.2965 126.223 27.1979C125.241 26.0993 124.75 24.8111 124.75 23.3333V22.1667C124.75 21.525 124.978 20.9757 125.435 20.5187C125.892 20.0618 126.442 19.8333 127.083 19.8333H129.417V17.5H141.083V19.8333H143.417C144.058 19.8333 144.608 20.0618 145.065 20.5187C145.522 20.9757 145.75 21.525 145.75 22.1667V23.3333C145.75 24.8111 145.259 26.0993 144.277 27.1979C143.295 28.2965 142.075 28.9333 140.617 29.1083C140.267 30.0028 139.717 30.7465 138.969 31.3396C138.22 31.9326 137.369 32.3361 136.417 32.55V36.1667H141.083V38.5H129.417V38.5M129.417 26.6V22.1667H127.083V23.3333C127.083 24.0722 127.297 24.7382 127.725 25.3313C128.153 25.9243 128.717 26.3472 129.417 26.6V26.6M135.25 30.3333C136.222 30.3333 137.049 29.9931 137.729 29.3125C138.41 28.6319 138.75 27.8056 138.75 26.8333V19.8333H131.75V26.8333C131.75 27.8056 132.09 28.6319 132.771 29.3125C133.451 29.9931 134.278 30.3333 135.25 30.3333V30.3333M141.083 26.6C141.783 26.3472 142.347 25.9243 142.775 25.3313C143.203 24.7382 143.417 24.0722 143.417 23.3333V22.1667H141.083V26.6V26.6M135.25 25.0833V25.0833V25.0833V25.0833V25.0833V25.0833V25.0833V25.0833V25.0833" fill="#EF4444"/>
<g clip-path="url(#clip0_183_991)">
<path d="M114.889 77L112.387 68.36H113.503L115.423 75.194L117.337 68.366L118.459 68.36L120.379 75.194L122.293 68.36H123.415L120.913 77H119.845L117.898 70.226L115.957 77H114.889ZM124.315 69.374V68.27H125.383V69.374H124.315ZM124.315 77V70.52H125.383V77H124.315ZM131.797 77V73.754C131.797 73.448 131.77 73.153 131.715 72.869C131.66 72.585 131.565 72.3295 131.431 72.1025C131.297 71.8755 131.117 71.696 130.891 71.564C130.665 71.432 130.381 71.366 130.039 71.366C129.771 71.366 129.528 71.4115 129.309 71.5025C129.09 71.5935 128.902 71.7305 128.746 71.9135C128.59 72.0965 128.47 72.327 128.385 72.605C128.3 72.883 128.257 73.21 128.257 73.586L127.555 73.37C127.555 72.744 127.668 72.2055 127.894 71.7545C128.12 71.3035 128.438 70.957 128.848 70.715C129.258 70.473 129.741 70.352 130.297 70.352C130.715 70.352 131.073 70.418 131.37 70.55C131.667 70.682 131.913 70.8575 132.109 71.0765C132.305 71.2955 132.459 71.5395 132.571 71.8085C132.683 72.0775 132.762 72.3515 132.808 72.6305C132.854 72.9095 132.877 73.172 132.877 73.418V77H131.797ZM127.177 77V70.52H128.137V72.254H128.257V77H127.177ZM139.051 77V73.754C139.051 73.448 139.024 73.153 138.969 72.869C138.914 72.585 138.819 72.3295 138.685 72.1025C138.551 71.8755 138.371 71.696 138.145 71.564C137.919 71.432 137.635 71.366 137.293 71.366C137.025 71.366 136.782 71.4115 136.563 71.5025C136.344 71.5935 136.156 71.7305 136 71.9135C135.844 72.0965 135.724 72.327 135.639 72.605C135.554 72.883 135.511 73.21 135.511 73.586L134.809 73.37C134.809 72.744 134.922 72.2055 135.148 71.7545C135.374 71.3035 135.692 70.957 136.102 70.715C136.512 70.473 136.995 70.352 137.551 70.352C137.969 70.352 138.327 70.418 138.624 70.55C138.921 70.682 139.167 70.8575 139.363 71.0765C139.559 71.2955 139.713 71.5395 139.825 71.8085C139.937 72.0775 140.016 72.3515 140.062 72.6305C140.108 72.9095 140.131 73.172 140.131 73.418V77H139.051ZM134.431 77V70.52H135.391V72.254H135.511V77H134.431ZM141.811 69.374V68.27H142.879V69.374H141.811ZM141.811 77V70.52H142.879V77H141.811ZM149.293 77V73.754C149.293 73.448 149.266 73.153 149.211 72.869C149.156 72.585 149.061 72.3295 148.927 72.1025C148.793 71.8755 148.613 71.696 148.387 71.564C148.161 71.432 147.877 71.366 147.535 71.366C147.267 71.366 147.024 71.4115 146.805 71.5025C146.586 71.5935 146.398 71.7305 146.242 71.9135C146.086 72.0965 145.966 72.327 145.881 72.605C145.796 72.883 145.753 73.21 145.753 73.586L145.051 73.37C145.051 72.744 145.164 72.2055 145.39 71.7545C145.616 71.3035 145.934 70.957 146.344 70.715C146.754 70.473 147.237 70.352 147.793 70.352C148.211 70.352 148.569 70.418 148.866 70.55C149.163 70.682 149.409 70.8575 149.605 71.0765C149.801 71.2955 149.955 71.5395 150.067 71.8085C150.179 72.0775 150.258 72.3515 150.304 72.6305C150.35 72.9095 150.373 73.172 150.373 73.418V77H149.293ZM144.673 77V70.52H145.633V72.254H145.753V77H144.673ZM154.555 80.06C154.215 80.06 153.883 80.0085 153.559 79.9055C153.235 79.8025 152.938 79.646 152.668 79.436C152.398 79.226 152.173 78.96 151.993 78.638L152.971 78.122C153.131 78.44 153.358 78.6705 153.651 78.8135C153.944 78.9565 154.247 79.028 154.561 79.028C154.973 79.028 155.315 78.953 155.586 78.803C155.857 78.653 156.058 78.43 156.189 78.134C156.32 77.838 156.383 77.47 156.379 77.03V75.26H156.505V70.52H157.453V77.042C157.453 77.22 157.448 77.3905 157.437 77.5535C157.426 77.7165 157.405 77.878 157.375 78.038C157.291 78.498 157.125 78.877 156.877 79.175C156.629 79.473 156.309 79.695 155.917 79.841C155.525 79.987 155.071 80.06 154.555 80.06ZM154.477 77.18C153.873 77.18 153.355 77.0295 152.922 76.7285C152.489 76.4275 152.156 76.0185 151.923 75.5015C151.69 74.9845 151.573 74.402 151.573 73.754C151.573 73.106 151.69 72.5245 151.923 72.0095C152.156 71.4945 152.489 71.0875 152.922 70.7885C153.355 70.4895 153.871 70.34 154.471 70.34C155.081 70.34 155.595 70.4885 156.012 70.7855C156.429 71.0825 156.744 71.4885 156.958 72.0035C157.172 72.5185 157.279 73.102 157.279 73.754C157.279 74.4 157.172 74.9815 156.958 75.4985C156.744 76.0155 156.429 76.425 156.013 76.727C155.597 77.029 155.085 77.18 154.477 77.18ZM154.609 76.202C155.045 76.202 155.403 76.097 155.683 75.887C155.963 75.677 156.17 75.3875 156.304 75.0185C156.438 74.6495 156.505 74.228 156.505 73.754C156.505 73.276 156.438 72.8535 156.303 72.4865C156.168 72.1195 155.962 71.833 155.686 71.627C155.41 71.421 155.061 71.318 154.639 71.318C154.199 71.318 153.836 71.426 153.55 71.642C153.264 71.858 153.052 72.15 152.914 72.518C152.776 72.886 152.707 73.298 152.707 73.754C152.707 74.214 152.777 74.629 152.917 74.999C153.057 75.369 153.268 75.662 153.549 75.878C153.83 76.094 154.183 76.202 154.609 76.202Z" fill="#475569"/>
</g>
<defs>
<clipPath id="clip0_183_991">
<rect width="270.5" height="16" fill="white" transform="translate(0 64)"/>
</clipPath>
</defs>
</svg>
