<svg width="78" height="80" viewBox="0 0 78 80" fill="none" xmlns="http://www.w3.org/2000/svg">
<rect x="10.75" width="56" height="56" rx="16" fill="#10B981" fill-opacity="0.1"/>
<path d="M31.7498 39.0832C31.4193 39.0832 31.1422 38.9714 30.9186 38.7478C30.695 38.5241 30.5832 38.2471 30.5832 37.9165V35.5248C30.2332 35.1359 29.9512 34.7033 29.7373 34.2269C29.5234 33.7505 29.4165 33.2304 29.4165 32.6665V21.5832C29.4165 19.9693 30.1651 18.788 31.6623 18.0394C33.1596 17.2908 35.5221 16.9165 38.7498 16.9165C42.0943 16.9165 44.4859 17.2762 45.9248 17.9957C47.3637 18.7151 48.0832 19.9109 48.0832 21.5832V32.6665C48.0832 33.2304 47.9762 33.7505 47.7623 34.2269C47.5484 34.7033 47.2665 35.1359 46.9165 35.5248V37.9165C46.9165 38.2471 46.8047 38.5241 46.5811 38.7478C46.3575 38.9714 46.0804 39.0832 45.7498 39.0832H44.5832C44.2526 39.0832 43.9755 38.9714 43.7519 38.7478C43.5283 38.5241 43.4165 38.2471 43.4165 37.9165V36.7498H34.0832V37.9165C34.0832 38.2471 33.9714 38.5241 33.7478 38.7478C33.5241 38.9714 33.2471 39.0832 32.9165 39.0832H31.7498ZM38.8082 20.4165C40.9471 20.4165 42.4978 20.4165 43.4603 20.4165C44.4228 20.4165 45.0498 20.4165 45.3415 20.4165H32.2748C32.6248 20.4165 33.2811 20.4165 34.2436 20.4165C35.2061 20.4165 36.7276 20.4165 38.8082 20.4165ZM43.4165 28.5832H34.0832C33.4415 28.5832 32.8922 28.5832 32.4353 28.5832C31.9783 28.5832 31.7498 28.5832 31.7498 28.5832H45.7498C45.7498 28.5832 45.5214 28.5832 45.0644 28.5832C44.6075 28.5832 44.0582 28.5832 43.4165 28.5832ZM31.7498 26.2498H45.7498V22.7498H31.7498V26.2498ZM34.6665 33.2498C35.1526 33.2498 35.5658 33.0797 35.9061 32.7394C36.2464 32.3991 36.4165 31.9859 36.4165 31.4998C36.4165 31.0137 36.2464 30.6005 35.9061 30.2603C35.5658 29.92 35.1526 29.7498 34.6665 29.7498C34.1804 29.7498 33.7672 29.92 33.4269 30.2603C33.0866 30.6005 32.9165 31.0137 32.9165 31.4998C32.9165 31.9859 33.0866 32.3991 33.4269 32.7394C33.7672 33.0797 34.1804 33.2498 34.6665 33.2498ZM42.8332 33.2498C43.3193 33.2498 43.7325 33.0797 44.0728 32.7394C44.413 32.3991 44.5832 31.9859 44.5832 31.4998C44.5832 31.0137 44.413 30.6005 44.0728 30.2603C43.7325 29.92 43.3193 29.7498 42.8332 29.7498C42.3471 29.7498 41.9339 29.92 41.5936 30.2603C41.2533 30.6005 41.0832 31.0137 41.0832 31.4998C41.0832 31.9859 41.2533 32.3991 41.5936 32.7394C41.9339 33.0797 42.3471 33.2498 42.8332 33.2498ZM32.2748 20.4165H45.3415C45.0498 20.0859 44.4228 19.8089 43.4603 19.5853C42.4978 19.3616 40.9471 19.2498 38.8082 19.2498C36.7276 19.2498 35.2061 19.3714 34.2436 19.6144C33.2811 19.8575 32.6248 20.1248 32.2748 20.4165ZM34.0832 34.4165H43.4165C44.0582 34.4165 44.6075 34.188 45.0644 33.7311C45.5214 33.2741 45.7498 32.7248 45.7498 32.0832V28.5832H31.7498V32.0832C31.7498 32.7248 31.9783 33.2741 32.4353 33.7311C32.8922 34.188 33.4415 34.4165 34.0832 34.4165Z" fill="#10B981"/>
<path d="M9.78206 77V68.36H10.7541L14.0181 75.242L17.2641 68.36H18.2481V76.994H17.2341V70.706L14.3001 77H13.7301L10.7961 70.706V77H9.78206ZM22.7361 77.18C22.0981 77.18 21.5421 77.0395 21.0681 76.7585C20.5941 76.4775 20.2256 76.0835 19.9626 75.5765C19.6996 75.0695 19.5681 74.478 19.5681 73.802C19.5681 73.094 19.6976 72.481 19.9566 71.963C20.2156 71.445 20.5786 71.045 21.0456 70.763C21.5126 70.481 22.0601 70.34 22.6881 70.34C23.3381 70.34 23.8921 70.49 24.3501 70.79C24.8081 71.09 25.1526 71.518 25.3836 72.074C25.6146 72.63 25.7131 73.292 25.6791 74.06H24.6021V73.676C24.5901 72.88 24.4281 72.285 24.1161 71.891C23.8041 71.497 23.3401 71.3 22.7241 71.3C22.0621 71.3 21.5596 71.512 21.2166 71.936C20.8736 72.36 20.7021 72.968 20.7021 73.76C20.7021 74.524 20.8736 75.116 21.2166 75.536C21.5596 75.956 22.0501 76.166 22.6881 76.166C23.1161 76.166 23.4881 76.068 23.8041 75.872C24.1201 75.676 24.3681 75.394 24.5481 75.026L25.5741 75.38C25.3201 75.952 24.9406 76.395 24.4356 76.709C23.9306 77.023 23.3641 77.18 22.7361 77.18ZM20.3421 74.06V73.202H25.1301V74.06H20.3421ZM30.6321 77C30.2461 77.078 29.8666 77.11 29.4936 77.096C29.1206 77.082 28.7876 77.006 28.4946 76.868C28.2016 76.73 27.9801 76.514 27.8301 76.22C27.7021 75.966 27.6331 75.708 27.6231 75.446C27.6131 75.184 27.6081 74.886 27.6081 74.552V68.72H28.6761V74.504C28.6761 74.77 28.6791 74.9965 28.6851 75.1835C28.6911 75.3705 28.7321 75.532 28.8081 75.668C28.9521 75.926 29.1811 76.0765 29.4951 76.1195C29.8091 76.1625 30.1881 76.15 30.6321 76.082V77ZM26.2941 71.402V70.52H30.6321V71.402H26.2941ZM31.9521 77V70.52H32.9061V72.086L32.7501 71.882C32.8261 71.682 32.9251 71.498 33.0471 71.33C33.1691 71.162 33.3061 71.024 33.4581 70.916C33.6241 70.782 33.8136 70.679 34.0266 70.607C34.2396 70.535 34.4561 70.492 34.6761 70.478C34.8961 70.464 35.1021 70.478 35.2941 70.52V71.522C35.0701 71.464 34.8236 71.449 34.5546 71.477C34.2856 71.505 34.0381 71.602 33.8121 71.768C33.6021 71.918 33.4406 72.0985 33.3276 72.3095C33.2146 72.5205 33.1361 72.749 33.0921 72.995C33.0481 73.241 33.0261 73.492 33.0261 73.748V77H31.9521ZM39.0741 77.18C38.4281 77.18 37.8721 77.034 37.4061 76.742C36.9401 76.45 36.5816 76.0465 36.3306 75.5315C36.0796 75.0165 35.9541 74.424 35.9541 73.754C35.9541 73.076 36.0821 72.4805 36.3381 71.9675C36.5941 71.4545 36.9556 71.055 37.4226 70.769C37.8896 70.483 38.4401 70.34 39.0741 70.34C39.7221 70.34 40.2796 70.4855 40.7466 70.7765C41.2136 71.0675 41.5726 71.4695 41.8236 71.9825C42.0746 72.4955 42.2001 73.086 42.2001 73.754C42.2001 74.432 42.0736 75.028 41.8206 75.542C41.5676 76.056 41.2071 76.4575 40.7391 76.7465C40.2711 77.0355 39.7161 77.18 39.0741 77.18ZM39.0741 76.166C39.7441 76.166 40.2436 75.942 40.5726 75.494C40.9016 75.046 41.0661 74.466 41.0661 73.754C41.0661 73.024 40.9001 72.4415 40.5681 72.0065C40.2361 71.5715 39.7381 71.354 39.0741 71.354C38.6221 71.354 38.2496 71.456 37.9566 71.66C37.6636 71.864 37.4456 72.146 37.3026 72.506C37.1596 72.866 37.0881 73.282 37.0881 73.754C37.0881 74.484 37.2561 75.0685 37.5921 75.5075C37.9281 75.9465 38.4221 76.166 39.0741 76.166ZM45.7041 68.36H46.7901L44.4861 77H43.4001L45.7041 68.36ZM48.3501 77V68.36H51.7161C52.2321 68.36 52.6731 68.466 53.0391 68.678C53.4051 68.89 53.6851 69.169 53.8791 69.515C54.0731 69.861 54.1701 70.234 54.1701 70.634C54.1701 71.104 54.0496 71.5145 53.8086 71.8655C53.5676 72.2165 53.2441 72.458 52.8381 72.59L52.8261 72.296C53.3821 72.444 53.8141 72.7165 54.1221 73.1135C54.4301 73.5105 54.5841 73.982 54.5841 74.528C54.5841 75.032 54.4806 75.4685 54.2736 75.8375C54.0666 76.2065 53.7706 76.4925 53.3856 76.6955C53.0006 76.8985 52.5441 77 52.0161 77H48.3501ZM49.4301 75.98H51.8121C52.1301 75.98 52.4156 75.9215 52.6686 75.8045C52.9216 75.6875 53.1211 75.5205 53.2671 75.3035C53.4131 75.0865 53.4861 74.826 53.4861 74.522C53.4861 74.232 53.4206 73.9705 53.2896 73.7375C53.1586 73.5045 52.9761 73.319 52.7421 73.181C52.5081 73.043 52.2381 72.974 51.9321 72.974H49.4301V75.98ZM49.4301 71.966H51.7041C51.9581 71.966 52.1886 71.911 52.3956 71.801C52.6026 71.691 52.7671 71.5365 52.8891 71.3375C53.0111 71.1385 53.0721 70.904 53.0721 70.634C53.0721 70.262 52.9456 69.958 52.6926 69.722C52.4396 69.486 52.1101 69.368 51.7041 69.368H49.4301V71.966ZM58.2381 77.168C57.8201 77.168 57.4626 77.102 57.1656 76.97C56.8686 76.838 56.6221 76.6625 56.4261 76.4435C56.2301 76.2245 56.0761 75.9805 55.9641 75.7115C55.8521 75.4425 55.7731 75.1685 55.7271 74.8895C55.6811 74.6105 55.6581 74.348 55.6581 74.102V70.52H56.7381V73.766C56.7381 74.07 56.7656 74.3645 56.8206 74.6495C56.8756 74.9345 56.9701 75.1905 57.1041 75.4175C57.2381 75.6445 57.4181 75.824 57.6441 75.956C57.8701 76.088 58.1541 76.154 58.4961 76.154C58.7641 76.154 59.0076 76.1085 59.2266 76.0175C59.4456 75.9265 59.6331 75.7895 59.7891 75.6065C59.9451 75.4235 60.0656 75.1925 60.1506 74.9135C60.2356 74.6345 60.2781 74.308 60.2781 73.934L60.9801 74.15C60.9801 74.776 60.8671 75.3145 60.6411 75.7655C60.4151 76.2165 60.0971 76.563 59.6871 76.805C59.2771 77.047 58.7941 77.168 58.2381 77.168ZM60.3981 77V75.266H60.2781V70.52H61.3521V77H60.3981ZM65.4801 77.174C64.7061 77.174 64.0726 77.005 63.5796 76.667C63.0866 76.329 62.7841 75.856 62.6721 75.248L63.7641 75.074C63.8521 75.426 64.0541 75.705 64.3701 75.911C64.6861 76.117 65.0781 76.22 65.5461 76.22C65.9881 76.22 66.3356 76.1285 66.5886 75.9455C66.8416 75.7625 66.9681 75.512 66.9681 75.194C66.9681 75.012 66.9261 74.864 66.8421 74.75C66.7581 74.636 66.5851 74.529 66.3231 74.429C66.0611 74.329 65.6661 74.208 65.1381 74.066C64.5661 73.914 64.1156 73.7565 63.7866 73.5935C63.4576 73.4305 63.2236 73.241 63.0846 73.025C62.9456 72.809 62.8761 72.546 62.8761 72.236C62.8761 71.856 62.9801 71.5235 63.1881 71.2385C63.3961 70.9535 63.6866 70.7325 64.0596 70.5755C64.4326 70.4185 64.8681 70.34 65.3661 70.34C65.8581 70.34 66.2976 70.4185 66.6846 70.5755C67.0716 70.7325 67.3841 70.9535 67.6221 71.2385C67.8601 71.5235 68.0021 71.856 68.0481 72.236L66.9561 72.434C66.9041 72.088 66.7366 71.8145 66.4536 71.6135C66.1706 71.4125 65.8081 71.306 65.3661 71.294C64.9461 71.28 64.6051 71.355 64.3431 71.519C64.0811 71.683 63.9501 71.904 63.9501 72.182C63.9501 72.34 63.9986 72.4745 64.0956 72.5855C64.1926 72.6965 64.3746 72.802 64.6416 72.902C64.9086 73.002 65.2961 73.116 65.8041 73.244C66.3741 73.39 66.8241 73.5475 67.1541 73.7165C67.4841 73.8855 67.7196 74.0855 67.8606 74.3165C68.0016 74.5475 68.0721 74.83 68.0721 75.164C68.0721 75.79 67.8421 76.2815 67.3821 76.6385C66.9221 76.9955 66.2881 77.174 65.4801 77.174Z" fill="#475569"/>
</svg>
