<svg width="78" height="80" viewBox="0 0 78 80" fill="none" xmlns="http://www.w3.org/2000/svg">
<rect x="10.75" width="56" height="56" rx="16" fill="#10B981" fill-opacity="0.1"/>
<path d="M42.2498 37.3332C39.6443 37.3332 37.4373 36.429 35.629 34.6207C33.8207 32.8123 32.9165 30.6054 32.9165 27.9998C32.9165 25.3943 33.8207 23.1873 35.629 21.379C37.4373 19.5707 39.6443 18.6665 42.2498 18.6665C44.8554 18.6665 47.0623 19.5707 48.8707 21.379C50.679 23.1873 51.5832 25.3943 51.5832 27.9998C51.5832 30.6054 50.679 32.8123 48.8707 34.6207C47.0623 36.429 44.8554 37.3332 42.2498 37.3332ZM32.9165 37.0415C30.8554 36.4971 29.1734 35.3887 27.8707 33.7165C26.5679 32.0443 25.9165 30.1387 25.9165 27.9998C25.9165 25.8609 26.5679 23.9554 27.8707 22.2832C29.1734 20.6109 30.8554 19.5026 32.9165 18.9582V21.4082C31.5165 21.8943 30.3887 22.7401 29.5332 23.9457C28.6776 25.1512 28.2498 26.5026 28.2498 27.9998C28.2498 29.4971 28.6776 30.8484 29.5332 32.054C30.3887 33.2596 31.5165 34.1054 32.9165 34.5915V37.0415ZM42.2498 34.9998C44.1943 34.9998 45.8471 34.3193 47.2082 32.9582C48.5693 31.5971 49.2498 29.9443 49.2498 27.9998C49.2498 26.0554 48.5693 24.4026 47.2082 23.0415C45.8471 21.6804 44.1943 20.9998 42.2498 20.9998C40.3054 20.9998 38.6526 21.6804 37.2915 23.0415C35.9304 24.4026 35.2498 26.0554 35.2498 27.9998C35.2498 29.9443 35.9304 31.5971 37.2915 32.9582C38.6526 34.3193 40.3054 34.9998 42.2498 34.9998Z" fill="#10B981"/>
<path d="M32.1048 77V69.374H29.1588V68.36H36.1188V69.374H33.1728V77H32.1048ZM38.8788 77.18C38.2328 77.18 37.6768 77.034 37.2108 76.742C36.7448 76.45 36.3863 76.0465 36.1353 75.5315C35.8843 75.0165 35.7588 74.424 35.7588 73.754C35.7588 73.076 35.8868 72.4805 36.1428 71.9675C36.3988 71.4545 36.7603 71.055 37.2273 70.769C37.6943 70.483 38.2448 70.34 38.8788 70.34C39.5268 70.34 40.0843 70.4855 40.5513 70.7765C41.0183 71.0675 41.3773 71.4695 41.6283 71.9825C41.8793 72.4955 42.0048 73.086 42.0048 73.754C42.0048 74.432 41.8783 75.028 41.6253 75.542C41.3723 76.056 41.0118 76.4575 40.5438 76.7465C40.0758 77.0355 39.5208 77.18 38.8788 77.18ZM38.8788 76.166C39.5488 76.166 40.0483 75.942 40.3773 75.494C40.7063 75.046 40.8708 74.466 40.8708 73.754C40.8708 73.024 40.7048 72.4415 40.3728 72.0065C40.0408 71.5715 39.5428 71.354 38.8788 71.354C38.4268 71.354 38.0543 71.456 37.7613 71.66C37.4683 71.864 37.2503 72.146 37.1073 72.506C36.9643 72.866 36.8928 73.282 36.8928 73.754C36.8928 74.484 37.0608 75.0685 37.3968 75.5075C37.7328 75.9465 38.2268 76.166 38.8788 76.166ZM43.4448 77V68.18H44.5128V77H43.4448ZM46.4328 77V68.18H47.5008V77H46.4328Z" fill="#475569"/>
</svg>
