<svg width="78" height="80" viewBox="0 0 78 80" fill="none" xmlns="http://www.w3.org/2000/svg">
<rect x="10.75" width="56" height="56" rx="16" fill="#64748B" fill-opacity="0.1"/>
<path d="M37.5835 29.1668H30.5835V26.8335H37.5835V19.8335H39.9168V26.8335H46.9168V29.1668H39.9168V36.1668H37.5835V29.1668V29.1668" fill="#64748B"/>
<path d="M26.8701 77.18C26.0081 77.18 25.2771 76.99 24.6771 76.61C24.0771 76.23 23.6206 75.702 23.3076 75.026C22.9946 74.35 22.8381 73.568 22.8381 72.68C22.8381 71.792 22.9946 71.01 23.3076 70.334C23.6206 69.658 24.0771 69.13 24.6771 68.75C25.2771 68.37 26.0081 68.18 26.8701 68.18C27.7321 68.18 28.4631 68.37 29.0631 68.75C29.6631 69.13 30.1196 69.658 30.4326 70.334C30.7456 71.01 30.9021 71.792 30.9021 72.68C30.9021 73.568 30.7456 74.35 30.4326 75.026C30.1196 75.702 29.6631 76.23 29.0631 76.61C28.4631 76.99 27.7321 77.18 26.8701 77.18ZM26.8701 76.16C27.5141 76.164 28.0506 76.0195 28.4796 75.7265C28.9086 75.4335 29.2306 75.025 29.4456 74.501C29.6606 73.977 29.7681 73.37 29.7681 72.68C29.7681 71.99 29.6606 71.3845 29.4456 70.8635C29.2306 70.3425 28.9086 69.936 28.4796 69.644C28.0506 69.352 27.5141 69.204 26.8701 69.2C26.2261 69.196 25.6906 69.34 25.2636 69.632C24.8366 69.924 24.5156 70.3325 24.3006 70.8575C24.0856 71.3825 23.9761 71.99 23.9721 72.68C23.9681 73.37 24.0736 73.975 24.2886 74.495C24.5036 75.015 24.8266 75.4215 25.2576 75.7145C25.6886 76.0075 26.2261 76.156 26.8701 76.16ZM35.7201 77C35.3341 77.078 34.9546 77.11 34.5816 77.096C34.2086 77.082 33.8756 77.006 33.5826 76.868C33.2896 76.73 33.0681 76.514 32.9181 76.22C32.7901 75.966 32.7211 75.708 32.7111 75.446C32.7011 75.184 32.6961 74.886 32.6961 74.552V68.72H33.7641V74.504C33.7641 74.77 33.7671 74.9965 33.7731 75.1835C33.7791 75.3705 33.8201 75.532 33.8961 75.668C34.0401 75.926 34.2691 76.0765 34.5831 76.1195C34.8971 76.1625 35.2761 76.15 35.7201 76.082V77ZM31.3821 71.402V70.52H35.7201V71.402H31.3821ZM41.6541 77V73.754C41.6541 73.448 41.6266 73.153 41.5716 72.869C41.5166 72.585 41.4221 72.3295 41.2881 72.1025C41.1541 71.8755 40.9741 71.696 40.7481 71.564C40.5221 71.432 40.2381 71.366 39.8961 71.366C39.6281 71.366 39.3846 71.4115 39.1656 71.5025C38.9466 71.5935 38.7591 71.7305 38.6031 71.9135C38.4471 72.0965 38.3266 72.327 38.2416 72.605C38.1566 72.883 38.1141 73.21 38.1141 73.586L37.4121 73.37C37.4121 72.744 37.5251 72.2055 37.7511 71.7545C37.9771 71.3035 38.2951 70.957 38.7051 70.715C39.1151 70.473 39.5981 70.352 40.1541 70.352C40.5721 70.352 40.9296 70.418 41.2266 70.55C41.5236 70.682 41.7701 70.8575 41.9661 71.0765C42.1621 71.2955 42.3161 71.5395 42.4281 71.8085C42.5401 72.0775 42.6191 72.3515 42.6651 72.6305C42.7111 72.9095 42.7341 73.172 42.7341 73.418V77H41.6541ZM37.0341 77V68.36H37.9941V73.13H38.1141V77H37.0341ZM47.1021 77.18C46.4641 77.18 45.9081 77.0395 45.4341 76.7585C44.9601 76.4775 44.5916 76.0835 44.3286 75.5765C44.0656 75.0695 43.9341 74.478 43.9341 73.802C43.9341 73.094 44.0636 72.481 44.3226 71.963C44.5816 71.445 44.9446 71.045 45.4116 70.763C45.8786 70.481 46.4261 70.34 47.0541 70.34C47.7041 70.34 48.2581 70.49 48.7161 70.79C49.1741 71.09 49.5186 71.518 49.7496 72.074C49.9806 72.63 50.0791 73.292 50.0451 74.06H48.9681V73.676C48.9561 72.88 48.7941 72.285 48.4821 71.891C48.1701 71.497 47.7061 71.3 47.0901 71.3C46.4281 71.3 45.9256 71.512 45.5826 71.936C45.2396 72.36 45.0681 72.968 45.0681 73.76C45.0681 74.524 45.2396 75.116 45.5826 75.536C45.9256 75.956 46.4161 76.166 47.0541 76.166C47.4821 76.166 47.8541 76.068 48.1701 75.872C48.4861 75.676 48.7341 75.394 48.9141 75.026L49.9401 75.38C49.6861 75.952 49.3066 76.395 48.8016 76.709C48.2966 77.023 47.7301 77.18 47.1021 77.18ZM44.7081 74.06V73.202H49.4961V74.06H44.7081ZM51.3801 77V70.52H52.3341V72.086L52.1781 71.882C52.2541 71.682 52.3531 71.498 52.4751 71.33C52.5971 71.162 52.7341 71.024 52.8861 70.916C53.0521 70.782 53.2416 70.679 53.4546 70.607C53.6676 70.535 53.8841 70.492 54.1041 70.478C54.3241 70.464 54.5301 70.478 54.7221 70.52V71.522C54.4981 71.464 54.2516 71.449 53.9826 71.477C53.7136 71.505 53.4661 71.602 53.2401 71.768C53.0301 71.918 52.8686 72.0985 52.7556 72.3095C52.6426 72.5205 52.5641 72.749 52.5201 72.995C52.4761 73.241 52.4541 73.492 52.4541 73.748V77H51.3801Z" fill="#475569"/>
</svg>
