<svg width="78" height="80" viewBox="0 0 78 80" fill="none" xmlns="http://www.w3.org/2000/svg">
<rect x="10.75" width="56" height="56" rx="16" fill="#6366F1" fill-opacity="0.1"/>
<path d="M38.7498 39.6668C36.0471 38.9863 33.8158 37.4356 32.0561 35.0147C30.2964 32.5939 29.4165 29.9057 29.4165 26.9502V19.8335L38.7498 16.3335L48.0832 19.8335V26.9502C48.0832 29.9057 47.2033 32.5939 45.4436 35.0147C43.6839 37.4356 41.4526 38.9863 38.7498 39.6668ZM38.7498 37.2168C40.7721 36.5752 42.4443 35.2918 43.7665 33.3668C45.0887 31.4418 45.7498 29.3029 45.7498 26.9502V21.4377L38.7498 18.8127L31.7498 21.4377V26.9502C31.7498 29.3029 32.4109 31.4418 33.7332 33.3668C35.0554 35.2918 36.7276 36.5752 38.7498 37.2168Z" fill="#6366F1"/>
<g clip-path="url(#clip0_183_667)">
<path d="M16.9968 77V68.36H17.9688L21.2328 75.242L24.4788 68.36H25.4628V76.994H24.4488V70.706L21.5148 77H20.9448L18.0108 70.706V77H16.9968ZM28.9848 77.18C28.5008 77.18 28.0953 77.0915 27.7683 76.9145C27.4413 76.7375 27.1953 76.5025 27.0303 76.2095C26.8653 75.9165 26.7828 75.596 26.7828 75.248C26.7828 74.908 26.8473 74.6135 26.9763 74.3645C27.1053 74.1155 27.2883 73.9075 27.5253 73.7405C27.7623 73.5735 28.0448 73.442 28.3728 73.346C28.6808 73.264 29.0253 73.1915 29.4063 73.1285C29.7873 73.0655 30.1738 73.0085 30.5658 72.9575C30.9578 72.9065 31.3248 72.856 31.6668 72.806L31.2828 73.028C31.2928 72.454 31.1773 72.0285 30.9363 71.7515C30.6953 71.4745 30.2788 71.336 29.6868 71.336C29.2948 71.336 28.9513 71.4255 28.6563 71.6045C28.3613 71.7835 28.1548 72.072 28.0368 72.47L27.0228 72.164C27.1768 71.596 27.4783 71.15 27.9273 70.826C28.3763 70.502 28.9668 70.34 29.6988 70.34C30.2848 70.34 30.7888 70.445 31.2108 70.655C31.6328 70.865 31.9368 71.182 32.1228 71.606C32.2148 71.806 32.2728 72.023 32.2968 72.257C32.3208 72.491 32.3328 72.736 32.3328 72.992V77H31.3848V75.446L31.6068 75.59C31.3628 76.116 31.0213 76.5125 30.5823 76.7795C30.1433 77.0465 29.6108 77.18 28.9848 77.18ZM29.1468 76.286C29.5308 76.286 29.8638 76.2175 30.1458 76.0805C30.4278 75.9435 30.6548 75.7615 30.8268 75.5345C30.9988 75.3075 31.1108 75.06 31.1628 74.792C31.2208 74.592 31.2533 74.3695 31.2603 74.1245C31.2673 73.8795 31.2708 73.69 31.2708 73.556L31.6428 73.718C31.2948 73.768 30.9523 73.815 30.6153 73.859C30.2783 73.903 29.9598 73.9495 29.6598 73.9985C29.3598 74.0475 29.0908 74.106 28.8528 74.174C28.6748 74.23 28.5093 74.3025 28.3563 74.3915C28.2033 74.4805 28.0798 74.594 27.9858 74.732C27.8918 74.87 27.8448 75.04 27.8448 75.242C27.8448 75.42 27.8893 75.5885 27.9783 75.7475C28.0673 75.9065 28.2073 76.036 28.3983 76.136C28.5893 76.236 28.8388 76.286 29.1468 76.286ZM38.5068 77V73.754C38.5068 73.448 38.4793 73.153 38.4243 72.869C38.3693 72.585 38.2748 72.3295 38.1408 72.1025C38.0068 71.8755 37.8268 71.696 37.6008 71.564C37.3748 71.432 37.0908 71.366 36.7488 71.366C36.4808 71.366 36.2373 71.4115 36.0183 71.5025C35.7993 71.5935 35.6118 71.7305 35.4558 71.9135C35.2998 72.0965 35.1793 72.327 35.0943 72.605C35.0093 72.883 34.9668 73.21 34.9668 73.586L34.2648 73.37C34.2648 72.744 34.3778 72.2055 34.6038 71.7545C34.8298 71.3035 35.1478 70.957 35.5578 70.715C35.9678 70.473 36.4508 70.352 37.0068 70.352C37.4248 70.352 37.7823 70.418 38.0793 70.55C38.3763 70.682 38.6228 70.8575 38.8188 71.0765C39.0148 71.2955 39.1688 71.5395 39.2808 71.8085C39.3928 72.0775 39.4718 72.3515 39.5178 72.6305C39.5638 72.9095 39.5868 73.172 39.5868 73.418V77H38.5068ZM33.8868 77V70.52H34.8468V72.254H34.9668V77H33.8868ZM42.9888 77.18C42.5048 77.18 42.0993 77.0915 41.7723 76.9145C41.4453 76.7375 41.1993 76.5025 41.0343 76.2095C40.8693 75.9165 40.7868 75.596 40.7868 75.248C40.7868 74.908 40.8513 74.6135 40.9803 74.3645C41.1093 74.1155 41.2923 73.9075 41.5293 73.7405C41.7663 73.5735 42.0488 73.442 42.3768 73.346C42.6848 73.264 43.0293 73.1915 43.4103 73.1285C43.7913 73.0655 44.1778 73.0085 44.5698 72.9575C44.9618 72.9065 45.3288 72.856 45.6708 72.806L45.2868 73.028C45.2968 72.454 45.1813 72.0285 44.9403 71.7515C44.6993 71.4745 44.2828 71.336 43.6908 71.336C43.2988 71.336 42.9553 71.4255 42.6603 71.6045C42.3653 71.7835 42.1588 72.072 42.0408 72.47L41.0268 72.164C41.1808 71.596 41.4823 71.15 41.9313 70.826C42.3803 70.502 42.9708 70.34 43.7028 70.34C44.2888 70.34 44.7928 70.445 45.2148 70.655C45.6368 70.865 45.9408 71.182 46.1268 71.606C46.2188 71.806 46.2768 72.023 46.3008 72.257C46.3248 72.491 46.3368 72.736 46.3368 72.992V77H45.3888V75.446L45.6108 75.59C45.3668 76.116 45.0253 76.5125 44.5863 76.7795C44.1473 77.0465 43.6148 77.18 42.9888 77.18ZM43.1508 76.286C43.5348 76.286 43.8678 76.2175 44.1498 76.0805C44.4318 75.9435 44.6588 75.7615 44.8308 75.5345C45.0028 75.3075 45.1148 75.06 45.1668 74.792C45.2248 74.592 45.2573 74.3695 45.2643 74.1245C45.2713 73.8795 45.2748 73.69 45.2748 73.556L45.6468 73.718C45.2988 73.768 44.9563 73.815 44.6193 73.859C44.2823 73.903 43.9638 73.9495 43.6638 73.9985C43.3638 74.0475 43.0948 74.106 42.8568 74.174C42.6788 74.23 42.5133 74.3025 42.3603 74.3915C42.2073 74.4805 42.0838 74.594 41.9898 74.732C41.8958 74.87 41.8488 75.04 41.8488 75.242C41.8488 75.42 41.8933 75.5885 41.9823 75.7475C42.0713 75.9065 42.2113 76.036 42.4023 76.136C42.5933 76.236 42.8428 76.286 43.1508 76.286ZM50.5188 80.06C50.1788 80.06 49.8468 80.0085 49.5228 79.9055C49.1988 79.8025 48.9018 79.646 48.6318 79.436C48.3618 79.226 48.1368 78.96 47.9568 78.638L48.9348 78.122C49.0948 78.44 49.3213 78.6705 49.6143 78.8135C49.9073 78.9565 50.2108 79.028 50.5248 79.028C50.9368 79.028 51.2783 78.953 51.5493 78.803C51.8203 78.653 52.0213 78.43 52.1523 78.134C52.2833 77.838 52.3468 77.47 52.3428 77.03V75.26H52.4688V70.52H53.4168V77.042C53.4168 77.22 53.4113 77.3905 53.4003 77.5535C53.3893 77.7165 53.3688 77.878 53.3388 78.038C53.2548 78.498 53.0888 78.877 52.8408 79.175C52.5928 79.473 52.2728 79.695 51.8808 79.841C51.4888 79.987 51.0348 80.06 50.5188 80.06ZM50.4408 77.18C49.8368 77.18 49.3183 77.0295 48.8853 76.7285C48.4523 76.4275 48.1193 76.0185 47.8863 75.5015C47.6533 74.9845 47.5368 74.402 47.5368 73.754C47.5368 73.106 47.6533 72.5245 47.8863 72.0095C48.1193 71.4945 48.4523 71.0875 48.8853 70.7885C49.3183 70.4895 49.8348 70.34 50.4348 70.34C51.0448 70.34 51.5583 70.4885 51.9753 70.7855C52.3923 71.0825 52.7078 71.4885 52.9218 72.0035C53.1358 72.5185 53.2428 73.102 53.2428 73.754C53.2428 74.4 53.1358 74.9815 52.9218 75.4985C52.7078 76.0155 52.3928 76.425 51.9768 76.727C51.5608 77.029 51.0488 77.18 50.4408 77.18ZM50.5728 76.202C51.0088 76.202 51.3668 76.097 51.6468 75.887C51.9268 75.677 52.1338 75.3875 52.2678 75.0185C52.4018 74.6495 52.4688 74.228 52.4688 73.754C52.4688 73.276 52.4013 72.8535 52.2663 72.4865C52.1313 72.1195 51.9258 71.833 51.6498 71.627C51.3738 71.421 51.0248 71.318 50.6028 71.318C50.1628 71.318 49.7998 71.426 49.5138 71.642C49.2278 71.858 49.0158 72.15 48.8778 72.518C48.7398 72.886 48.6708 73.298 48.6708 73.754C48.6708 74.214 48.7408 74.629 48.8808 74.999C49.0208 75.369 49.2313 75.662 49.5123 75.878C49.7933 76.094 50.1468 76.202 50.5728 76.202ZM57.9048 77.18C57.2668 77.18 56.7108 77.0395 56.2368 76.7585C55.7628 76.4775 55.3943 76.0835 55.1313 75.5765C54.8683 75.0695 54.7368 74.478 54.7368 73.802C54.7368 73.094 54.8663 72.481 55.1253 71.963C55.3843 71.445 55.7473 71.045 56.2143 70.763C56.6813 70.481 57.2288 70.34 57.8568 70.34C58.5068 70.34 59.0608 70.49 59.5188 70.79C59.9768 71.09 60.3213 71.518 60.5523 72.074C60.7833 72.63 60.8818 73.292 60.8478 74.06H59.7708V73.676C59.7588 72.88 59.5968 72.285 59.2848 71.891C58.9728 71.497 58.5088 71.3 57.8928 71.3C57.2308 71.3 56.7283 71.512 56.3853 71.936C56.0423 72.36 55.8708 72.968 55.8708 73.76C55.8708 74.524 56.0423 75.116 56.3853 75.536C56.7283 75.956 57.2188 76.166 57.8568 76.166C58.2848 76.166 58.6568 76.068 58.9728 75.872C59.2888 75.676 59.5368 75.394 59.7168 75.026L60.7428 75.38C60.4888 75.952 60.1093 76.395 59.6043 76.709C59.0993 77.023 58.5328 77.18 57.9048 77.18ZM55.5108 74.06V73.202H60.2988V74.06H55.5108Z" fill="#475569"/>
</g>
<defs>
<clipPath id="clip0_183_667">
<rect width="77.5" height="16" fill="white" transform="translate(0 64)"/>
</clipPath>
</defs>
</svg>
