<svg width="78" height="80" viewBox="0 0 78 80" fill="none" xmlns="http://www.w3.org/2000/svg">
<rect x="10.75" width="56" height="56" rx="16" fill="#F97316" fill-opacity="0.1"/>
<path d="M40.3835 39.5502L38.7502 37.9169L42.8919 33.7752L32.9752 23.8585L28.8335 28.0002L27.2002 26.3669L28.8335 24.6752L27.2002 23.0419L29.6502 20.5919L28.0169 18.9002L29.6502 17.2669L31.3419 18.9002L33.7919 16.4502L35.4252 18.0835L37.1169 16.4502L38.7502 18.0835L34.6085 22.2252L44.5252 32.1419L48.6669 28.0002L50.3002 29.6335L48.6669 31.3252L50.3002 32.9585L47.8502 35.4085L49.4835 37.1002L47.8502 38.7335L46.1585 37.1002L43.7085 39.5502L42.0752 37.9169L40.3835 39.5502Z" fill="#F97316"/>
<path d="M23.7802 77.18C23.1682 77.18 22.6172 77.076 22.1272 76.868C21.6372 76.66 21.2332 76.3635 20.9152 75.9785C20.5972 75.5935 20.3902 75.136 20.2942 74.606L21.3982 74.432C21.5362 74.976 21.8262 75.401 22.2682 75.707C22.7102 76.013 23.2322 76.166 23.8342 76.166C24.2202 76.166 24.5702 76.105 24.8842 75.983C25.1982 75.861 25.4477 75.6865 25.6327 75.4595C25.8177 75.2325 25.9102 74.962 25.9102 74.648C25.9102 74.458 25.8767 74.2935 25.8097 74.1545C25.7427 74.0155 25.6527 73.8975 25.5397 73.8005C25.4267 73.7035 25.2977 73.621 25.1527 73.553C25.0077 73.485 24.8582 73.428 24.7042 73.382L22.5022 72.728C22.2622 72.658 22.0302 72.568 21.8062 72.458C21.5822 72.348 21.3822 72.21 21.2062 72.044C21.0302 71.878 20.8902 71.6775 20.7862 71.4425C20.6822 71.2075 20.6302 70.93 20.6302 70.61C20.6302 70.1 20.7627 69.6635 21.0277 69.3005C21.2927 68.9375 21.6532 68.6605 22.1092 68.4695C22.5652 68.2785 23.0802 68.184 23.6542 68.186C24.2342 68.19 24.7532 68.293 25.2112 68.495C25.6692 68.697 26.0487 68.986 26.3497 69.362C26.6507 69.738 26.8542 70.188 26.9602 70.712L25.8262 70.91C25.7662 70.56 25.6332 70.2575 25.4272 70.0025C25.2212 69.7475 24.9637 69.551 24.6547 69.413C24.3457 69.275 24.0082 69.204 23.6422 69.2C23.2882 69.196 22.9692 69.2525 22.6852 69.3695C22.4012 69.4865 22.1757 69.648 22.0087 69.854C21.8417 70.06 21.7582 70.296 21.7582 70.562C21.7582 70.828 21.8337 71.042 21.9847 71.204C22.1357 71.366 22.3222 71.4935 22.5442 71.5865C22.7662 71.6795 22.9842 71.756 23.1982 71.816L24.8422 72.29C25.0302 72.342 25.2472 72.414 25.4932 72.506C25.7392 72.598 25.9782 72.7275 26.2102 72.8945C26.4422 73.0615 26.6342 73.2815 26.7862 73.5545C26.9382 73.8275 27.0142 74.172 27.0142 74.588C27.0142 75.006 26.9307 75.3765 26.7637 75.6995C26.5967 76.0225 26.3652 76.2935 26.0692 76.5125C25.7732 76.7315 25.4297 76.8975 25.0387 77.0105C24.6477 77.1235 24.2282 77.18 23.7802 77.18ZM31.2502 77.18C30.6422 77.18 30.1302 77.029 29.7142 76.727C29.2982 76.425 28.9832 76.0155 28.7692 75.4985C28.5552 74.9815 28.4482 74.4 28.4482 73.754C28.4482 73.102 28.5552 72.5185 28.7692 72.0035C28.9832 71.4885 29.2987 71.0825 29.7157 70.7855C30.1327 70.4885 30.6462 70.34 31.2562 70.34C31.8562 70.34 32.3727 70.4895 32.8057 70.7885C33.2387 71.0875 33.5717 71.4945 33.8047 72.0095C34.0377 72.5245 34.1542 73.106 34.1542 73.754C34.1542 74.402 34.0377 74.9845 33.8047 75.5015C33.5717 76.0185 33.2387 76.4275 32.8057 76.7285C32.3727 77.0295 31.8542 77.18 31.2502 77.18ZM28.2682 79.88V70.52H29.2222V75.29H29.3422V79.88H28.2682ZM31.1182 76.202C31.5442 76.202 31.8977 76.094 32.1787 75.878C32.4597 75.662 32.6702 75.369 32.8102 74.999C32.9502 74.629 33.0202 74.214 33.0202 73.754C33.0202 73.298 32.9507 72.886 32.8117 72.518C32.6727 72.15 32.4607 71.858 32.1757 71.642C31.8907 71.426 31.5282 71.318 31.0882 71.318C30.6662 71.318 30.3172 71.421 30.0412 71.627C29.7652 71.833 29.5597 72.1195 29.4247 72.4865C29.2897 72.8535 29.2222 73.276 29.2222 73.754C29.2222 74.228 29.2892 74.6495 29.4232 75.0185C29.5572 75.3875 29.7642 75.677 30.0442 75.887C30.3242 76.097 30.6822 76.202 31.1182 76.202ZM38.2342 77.18C37.5882 77.18 37.0322 77.034 36.5662 76.742C36.1002 76.45 35.7417 76.0465 35.4907 75.5315C35.2397 75.0165 35.1142 74.424 35.1142 73.754C35.1142 73.076 35.2422 72.4805 35.4982 71.9675C35.7542 71.4545 36.1157 71.055 36.5827 70.769C37.0497 70.483 37.6002 70.34 38.2342 70.34C38.8822 70.34 39.4397 70.4855 39.9067 70.7765C40.3737 71.0675 40.7327 71.4695 40.9837 71.9825C41.2347 72.4955 41.3602 73.086 41.3602 73.754C41.3602 74.432 41.2337 75.028 40.9807 75.542C40.7277 76.056 40.3672 76.4575 39.8992 76.7465C39.4312 77.0355 38.8762 77.18 38.2342 77.18ZM38.2342 76.166C38.9042 76.166 39.4037 75.942 39.7327 75.494C40.0617 75.046 40.2262 74.466 40.2262 73.754C40.2262 73.024 40.0602 72.4415 39.7282 72.0065C39.3962 71.5715 38.8982 71.354 38.2342 71.354C37.7822 71.354 37.4097 71.456 37.1167 71.66C36.8237 71.864 36.6057 72.146 36.4627 72.506C36.3197 72.866 36.2482 73.282 36.2482 73.754C36.2482 74.484 36.4162 75.0685 36.7522 75.5075C37.0882 75.9465 37.5822 76.166 38.2342 76.166ZM42.6802 77V70.52H43.6342V72.086L43.4782 71.882C43.5542 71.682 43.6532 71.498 43.7752 71.33C43.8972 71.162 44.0342 71.024 44.1862 70.916C44.3522 70.782 44.5417 70.679 44.7547 70.607C44.9677 70.535 45.1842 70.492 45.4042 70.478C45.6242 70.464 45.8302 70.478 46.0222 70.52V71.522C45.7982 71.464 45.5517 71.449 45.2827 71.477C45.0137 71.505 44.7662 71.602 44.5402 71.768C44.3302 71.918 44.1687 72.0985 44.0557 72.3095C43.9427 72.5205 43.8642 72.749 43.8202 72.995C43.7762 73.241 43.7542 73.492 43.7542 73.748V77H42.6802ZM50.7802 77C50.3942 77.078 50.0147 77.11 49.6417 77.096C49.2687 77.082 48.9357 77.006 48.6427 76.868C48.3497 76.73 48.1282 76.514 47.9782 76.22C47.8502 75.966 47.7812 75.708 47.7712 75.446C47.7612 75.184 47.7562 74.886 47.7562 74.552V68.72H48.8242V74.504C48.8242 74.77 48.8272 74.9965 48.8332 75.1835C48.8392 75.3705 48.8802 75.532 48.9562 75.668C49.1002 75.926 49.3292 76.0765 49.6432 76.1195C49.9572 76.1625 50.3362 76.15 50.7802 76.082V77ZM46.4422 71.402V70.52H50.7802V71.402H46.4422ZM54.5482 77.174C53.7742 77.174 53.1407 77.005 52.6477 76.667C52.1547 76.329 51.8522 75.856 51.7402 75.248L52.8322 75.074C52.9202 75.426 53.1222 75.705 53.4382 75.911C53.7542 76.117 54.1462 76.22 54.6142 76.22C55.0562 76.22 55.4037 76.1285 55.6567 75.9455C55.9097 75.7625 56.0362 75.512 56.0362 75.194C56.0362 75.012 55.9942 74.864 55.9102 74.75C55.8262 74.636 55.6532 74.529 55.3912 74.429C55.1292 74.329 54.7342 74.208 54.2062 74.066C53.6342 73.914 53.1837 73.7565 52.8547 73.5935C52.5257 73.4305 52.2917 73.241 52.1527 73.025C52.0137 72.809 51.9442 72.546 51.9442 72.236C51.9442 71.856 52.0482 71.5235 52.2562 71.2385C52.4642 70.9535 52.7547 70.7325 53.1277 70.5755C53.5007 70.4185 53.9362 70.34 54.4342 70.34C54.9262 70.34 55.3657 70.4185 55.7527 70.5755C56.1397 70.7325 56.4522 70.9535 56.6902 71.2385C56.9282 71.5235 57.0702 71.856 57.1162 72.236L56.0242 72.434C55.9722 72.088 55.8047 71.8145 55.5217 71.6135C55.2387 71.4125 54.8762 71.306 54.4342 71.294C54.0142 71.28 53.6732 71.355 53.4112 71.519C53.1492 71.683 53.0182 71.904 53.0182 72.182C53.0182 72.34 53.0667 72.4745 53.1637 72.5855C53.2607 72.6965 53.4427 72.802 53.7097 72.902C53.9767 73.002 54.3642 73.116 54.8722 73.244C55.4422 73.39 55.8922 73.5475 56.2222 73.7165C56.5522 73.8855 56.7877 74.0855 56.9287 74.3165C57.0697 74.5475 57.1402 74.83 57.1402 75.164C57.1402 75.79 56.9102 76.2815 56.4502 76.6385C55.9902 76.9955 55.3562 77.174 54.5482 77.174Z" fill="#475569"/>
</svg>
