<svg width="78" height="80" viewBox="0 0 78 80" fill="none" xmlns="http://www.w3.org/2000/svg">
<rect x="10.75" width="56" height="56" rx="16" fill="#06B6D4" fill-opacity="0.1"/>
<path d="M41.0832 25.5498V23.5665C41.7248 23.2943 42.3811 23.0901 43.0519 22.954C43.7228 22.8179 44.4276 22.7498 45.1665 22.7498C45.6721 22.7498 46.1679 22.7887 46.654 22.8665C47.1401 22.9443 47.6165 23.0415 48.0832 23.1582V25.0248C47.6165 24.8498 47.145 24.7186 46.6686 24.6311C46.1922 24.5436 45.6915 24.4998 45.1665 24.4998C44.4276 24.4998 43.7179 24.5922 43.0373 24.7769C42.3568 24.9616 41.7054 25.2193 41.0832 25.5498ZM41.0832 31.9665V29.9832C41.7248 29.7109 42.3811 29.5068 43.0519 29.3707C43.7228 29.2346 44.4276 29.1665 45.1665 29.1665C45.6721 29.1665 46.1679 29.2054 46.654 29.2832C47.1401 29.3609 47.6165 29.4582 48.0832 29.5748V31.4415C47.6165 31.2665 47.145 31.1353 46.6686 31.0478C46.1922 30.9603 45.6915 30.9165 45.1665 30.9165C44.4276 30.9165 43.7179 31.004 43.0373 31.179C42.3568 31.354 41.7054 31.6165 41.0832 31.9665ZM41.0832 28.7582V26.7748C41.7248 26.5026 42.3811 26.2984 43.0519 26.1623C43.7228 26.0262 44.4276 25.9582 45.1665 25.9582C45.6721 25.9582 46.1679 25.9971 46.654 26.0748C47.1401 26.1526 47.6165 26.2498 48.0832 26.3665V28.2332C47.6165 28.0582 47.145 27.9269 46.6686 27.8394C46.1922 27.7519 45.6915 27.7082 45.1665 27.7082C44.4276 27.7082 43.7179 27.8005 43.0373 27.9853C42.3568 28.17 41.7054 28.4276 41.0832 28.7582ZM32.3332 32.6665C33.2471 32.6665 34.1366 32.7686 35.0019 32.9728C35.8672 33.1769 36.7276 33.4832 37.5832 33.8915V22.3998C36.7859 21.9332 35.9401 21.5832 35.0457 21.3498C34.1512 21.1165 33.2471 20.9998 32.3332 20.9998C31.6332 20.9998 30.938 21.0679 30.2478 21.204C29.5575 21.3401 28.8915 21.5443 28.2498 21.8165V33.3665C28.9304 33.1332 29.6061 32.9582 30.2769 32.8415C30.9478 32.7248 31.6332 32.6665 32.3332 32.6665ZM39.9165 33.8915C40.7721 33.4832 41.6325 33.1769 42.4978 32.9728C43.363 32.7686 44.2526 32.6665 45.1665 32.6665C45.8665 32.6665 46.5519 32.7248 47.2228 32.8415C47.8936 32.9582 48.5693 33.1332 49.2498 33.3665V21.8165C48.6082 21.5443 47.9422 21.3401 47.2519 21.204C46.5616 21.0679 45.8665 20.9998 45.1665 20.9998C44.2526 20.9998 43.3484 21.1165 42.454 21.3498C41.5596 21.5832 40.7137 21.9332 39.9165 22.3998V33.8915ZM38.7498 37.3332C37.8165 36.5943 36.8054 36.0207 35.7165 35.6123C34.6276 35.204 33.4998 34.9998 32.3332 34.9998C31.5165 34.9998 30.7144 35.1068 29.9269 35.3207C29.1394 35.5346 28.3859 35.8359 27.6665 36.2248C27.2582 36.4387 26.8644 36.429 26.4853 36.1957C26.1061 35.9623 25.9165 35.6221 25.9165 35.1748V21.1165C25.9165 20.9026 25.97 20.6984 26.0769 20.504C26.1839 20.3096 26.3443 20.1637 26.5582 20.0665C27.4526 19.5998 28.3859 19.2498 29.3582 19.0165C30.3304 18.7832 31.3221 18.6665 32.3332 18.6665C33.4609 18.6665 34.5644 18.8123 35.6436 19.104C36.7228 19.3957 37.7582 19.8332 38.7498 20.4165C39.7415 19.8332 40.7769 19.3957 41.8561 19.104C42.9353 18.8123 44.0387 18.6665 45.1665 18.6665C46.1776 18.6665 47.1693 18.7832 48.1415 19.0165C49.1137 19.2498 50.0471 19.5998 50.9415 20.0665C51.1554 20.1637 51.3158 20.3096 51.4228 20.504C51.5297 20.6984 51.5832 20.9026 51.5832 21.1165V35.1748C51.5832 35.6221 51.3936 35.9623 51.0144 36.1957C50.6353 36.429 50.2415 36.4387 49.8332 36.2248C49.1137 35.8359 48.3603 35.5346 47.5728 35.3207C46.7853 35.1068 45.9832 34.9998 45.1665 34.9998C43.9998 34.9998 42.8721 35.204 41.7832 35.6123C40.6943 36.0207 39.6832 36.5943 38.7498 37.3332Z" fill="#06B6D4"/>
<path d="M22.4871 77V68.36H25.8531C26.3691 68.36 26.8101 68.466 27.1761 68.678C27.5421 68.89 27.8221 69.169 28.0161 69.515C28.2101 69.861 28.3071 70.234 28.3071 70.634C28.3071 71.104 28.1866 71.5145 27.9456 71.8655C27.7046 72.2165 27.3811 72.458 26.9751 72.59L26.9631 72.296C27.5191 72.444 27.9511 72.7165 28.2591 73.1135C28.5671 73.5105 28.7211 73.982 28.7211 74.528C28.7211 75.032 28.6176 75.4685 28.4106 75.8375C28.2036 76.2065 27.9076 76.4925 27.5226 76.6955C27.1376 76.8985 26.6811 77 26.1531 77H22.4871ZM23.5671 75.98H25.9491C26.2671 75.98 26.5526 75.9215 26.8056 75.8045C27.0586 75.6875 27.2581 75.5205 27.4041 75.3035C27.5501 75.0865 27.6231 74.826 27.6231 74.522C27.6231 74.232 27.5576 73.9705 27.4266 73.7375C27.2956 73.5045 27.1131 73.319 26.8791 73.181C26.6451 73.043 26.3751 72.974 26.0691 72.974H23.5671V75.98ZM23.5671 71.966H25.8411C26.0951 71.966 26.3256 71.911 26.5326 71.801C26.7396 71.691 26.9041 71.5365 27.0261 71.3375C27.1481 71.1385 27.2091 70.904 27.2091 70.634C27.2091 70.262 27.0826 69.958 26.8296 69.722C26.5766 69.486 26.2471 69.368 25.8411 69.368H23.5671V71.966ZM32.6751 77.18C32.0291 77.18 31.4731 77.034 31.0071 76.742C30.5411 76.45 30.1826 76.0465 29.9316 75.5315C29.6806 75.0165 29.5551 74.424 29.5551 73.754C29.5551 73.076 29.6831 72.4805 29.9391 71.9675C30.1951 71.4545 30.5566 71.055 31.0236 70.769C31.4906 70.483 32.0411 70.34 32.6751 70.34C33.3231 70.34 33.8806 70.4855 34.3476 70.7765C34.8146 71.0675 35.1736 71.4695 35.4246 71.9825C35.6756 72.4955 35.8011 73.086 35.8011 73.754C35.8011 74.432 35.6746 75.028 35.4216 75.542C35.1686 76.056 34.8081 76.4575 34.3401 76.7465C33.8721 77.0355 33.3171 77.18 32.6751 77.18ZM32.6751 76.166C33.3451 76.166 33.8446 75.942 34.1736 75.494C34.5026 75.046 34.6671 74.466 34.6671 73.754C34.6671 73.024 34.5011 72.4415 34.1691 72.0065C33.8371 71.5715 33.3391 71.354 32.6751 71.354C32.2231 71.354 31.8506 71.456 31.5576 71.66C31.2646 71.864 31.0466 72.146 30.9036 72.506C30.7606 72.866 30.6891 73.282 30.6891 73.754C30.6891 74.484 30.8571 75.0685 31.1931 75.5075C31.5291 75.9465 32.0231 76.166 32.6751 76.166ZM39.8811 77.18C39.2351 77.18 38.6791 77.034 38.2131 76.742C37.7471 76.45 37.3886 76.0465 37.1376 75.5315C36.8866 75.0165 36.7611 74.424 36.7611 73.754C36.7611 73.076 36.8891 72.4805 37.1451 71.9675C37.4011 71.4545 37.7626 71.055 38.2296 70.769C38.6966 70.483 39.2471 70.34 39.8811 70.34C40.5291 70.34 41.0866 70.4855 41.5536 70.7765C42.0206 71.0675 42.3796 71.4695 42.6306 71.9825C42.8816 72.4955 43.0071 73.086 43.0071 73.754C43.0071 74.432 42.8806 75.028 42.6276 75.542C42.3746 76.056 42.0141 76.4575 41.5461 76.7465C41.0781 77.0355 40.5231 77.18 39.8811 77.18ZM39.8811 76.166C40.5511 76.166 41.0506 75.942 41.3796 75.494C41.7086 75.046 41.8731 74.466 41.8731 73.754C41.8731 73.024 41.7071 72.4415 41.3751 72.0065C41.0431 71.5715 40.5451 71.354 39.8811 71.354C39.4291 71.354 39.0566 71.456 38.7636 71.66C38.4706 71.864 38.2526 72.146 38.1096 72.506C37.9666 72.866 37.8951 73.282 37.8951 73.754C37.8951 74.484 38.0631 75.0685 38.3991 75.5075C38.7351 75.9465 39.2291 76.166 39.8811 76.166ZM44.3211 77L44.3271 68.36H45.4071V73.64L48.1251 70.52H49.5111L46.6491 73.76L49.8471 77H48.3531L45.4071 73.88V77H44.3211ZM52.7751 77.174C52.0011 77.174 51.3676 77.005 50.8746 76.667C50.3816 76.329 50.0791 75.856 49.9671 75.248L51.0591 75.074C51.1471 75.426 51.3491 75.705 51.6651 75.911C51.9811 76.117 52.3731 76.22 52.8411 76.22C53.2831 76.22 53.6306 76.1285 53.8836 75.9455C54.1366 75.7625 54.2631 75.512 54.2631 75.194C54.2631 75.012 54.2211 74.864 54.1371 74.75C54.0531 74.636 53.8801 74.529 53.6181 74.429C53.3561 74.329 52.9611 74.208 52.4331 74.066C51.8611 73.914 51.4106 73.7565 51.0816 73.5935C50.7526 73.4305 50.5186 73.241 50.3796 73.025C50.2406 72.809 50.1711 72.546 50.1711 72.236C50.1711 71.856 50.2751 71.5235 50.4831 71.2385C50.6911 70.9535 50.9816 70.7325 51.3546 70.5755C51.7276 70.4185 52.1631 70.34 52.6611 70.34C53.1531 70.34 53.5926 70.4185 53.9796 70.5755C54.3666 70.7325 54.6791 70.9535 54.9171 71.2385C55.1551 71.5235 55.2971 71.856 55.3431 72.236L54.2511 72.434C54.1991 72.088 54.0316 71.8145 53.7486 71.6135C53.4656 71.4125 53.1031 71.306 52.6611 71.294C52.2411 71.28 51.9001 71.355 51.6381 71.519C51.3761 71.683 51.2451 71.904 51.2451 72.182C51.2451 72.34 51.2936 72.4745 51.3906 72.5855C51.4876 72.6965 51.6696 72.802 51.9366 72.902C52.2036 73.002 52.5911 73.116 53.0991 73.244C53.6691 73.39 54.1191 73.5475 54.4491 73.7165C54.7791 73.8855 55.0146 74.0855 55.1556 74.3165C55.2966 74.5475 55.3671 74.83 55.3671 75.164C55.3671 75.79 55.1371 76.2815 54.6771 76.6385C54.2171 76.9955 53.5831 77.174 52.7751 77.174Z" fill="#475569"/>
</svg>
