<svg width="78" height="80" viewBox="0 0 78 80" fill="none" xmlns="http://www.w3.org/2000/svg">
<rect x="10.75" width="56" height="56" rx="16" fill="#F97316" fill-opacity="0.1"/>
<path d="M30.5832 38.5C30.2526 38.5 29.9755 38.3882 29.7519 38.1646C29.5283 37.941 29.4165 37.6639 29.4165 37.3333V36.1667V36.1667C28.4443 36.1667 27.6179 35.8264 26.9373 35.1458C26.2568 34.4653 25.9165 33.6389 25.9165 32.6667V26.8333C25.9165 25.8611 26.2568 25.0347 26.9373 24.3542C27.6179 23.6736 28.4443 23.3333 29.4165 23.3333V23.3333V21C29.4165 20.0278 29.7568 19.2014 30.4373 18.5208C31.1179 17.8403 31.9443 17.5 32.9165 17.5H44.5832C45.5554 17.5 46.3818 17.8403 47.0623 18.5208C47.7429 19.2014 48.0832 20.0278 48.0832 21V23.3333V23.3333C49.0554 23.3333 49.8818 23.6736 50.5623 24.3542C51.2429 25.0347 51.5832 25.8611 51.5832 26.8333V32.6667C51.5832 33.6389 51.2429 34.4653 50.5623 35.1458C49.8818 35.8264 49.0554 36.1667 48.0832 36.1667V36.1667V37.3333C48.0832 37.6639 47.9714 37.941 47.7478 38.1646C47.5241 38.3882 47.2471 38.5 46.9165 38.5C46.5859 38.5 46.3089 38.3882 46.0853 38.1646C45.8616 37.941 45.7498 37.6639 45.7498 37.3333V36.1667H31.7498V37.3333C31.7498 37.6639 31.638 37.941 31.4144 38.1646C31.1908 38.3882 30.9137 38.5 30.5832 38.5V38.5M29.4165 33.8333H48.0832C48.4137 33.8333 48.6908 33.7215 48.9144 33.4979C49.138 33.2743 49.2498 32.9972 49.2498 32.6667V26.8333C49.2498 26.5028 49.138 26.2257 48.9144 26.0021C48.6908 25.7785 48.4137 25.6667 48.0832 25.6667C47.7526 25.6667 47.4755 25.7785 47.2519 26.0021C47.0283 26.2257 46.9165 26.5028 46.9165 26.8333V31.5H30.5832V26.8333C30.5832 26.5028 30.4714 26.2257 30.2478 26.0021C30.0241 25.7785 29.7471 25.6667 29.4165 25.6667C29.0859 25.6667 28.8089 25.7785 28.5853 26.0021C28.3616 26.2257 28.2498 26.5028 28.2498 26.8333V32.6667C28.2498 32.9972 28.3616 33.2743 28.5853 33.4979C28.8089 33.7215 29.0859 33.8333 29.4165 33.8333V33.8333M32.9165 29.1667H44.5832V26.8333C44.5832 26.3083 44.6901 25.8319 44.904 25.4042C45.1179 24.9764 45.3998 24.5972 45.7498 24.2667V21C45.7498 20.6694 45.638 20.3924 45.4144 20.1688C45.1908 19.9451 44.9137 19.8333 44.5832 19.8333H32.9165C32.5859 19.8333 32.3089 19.9451 32.0853 20.1688C31.8616 20.3924 31.7498 20.6694 31.7498 21V24.2667C32.0998 24.5972 32.3818 24.9764 32.5957 25.4042C32.8096 25.8319 32.9165 26.3083 32.9165 26.8333V29.1667V29.1667M38.7498 29.1667V29.1667V29.1667V29.1667V29.1667V29.1667V29.1667V29.1667V29.1667V29.1667V29.1667V29.1667V29.1667V29.1667V29.1667V29.1667M38.7498 33.8333V33.8333V33.8333V33.8333V33.8333V33.8333V33.8333V33.8333V33.8333V33.8333V33.8333V33.8333V33.8333V33.8333V33.8333V33.8333V33.8333V33.8333V33.8333V33.8333M38.7498 31.5V31.5V31.5V31.5V31.5V31.5V31.5V31.5V31.5V31.5V31.5V31.5V31.5V31.5V31.5V31.5V31.5V31.5V31.5V31.5" fill="#F97316"/>
<path d="M13.721 77V68.36H18.761V69.428H14.789V72.146H18.041V73.214H14.789V77H13.721ZM22.301 77.168C21.883 77.168 21.5255 77.102 21.2285 76.97C20.9315 76.838 20.685 76.6625 20.489 76.4435C20.293 76.2245 20.139 75.9805 20.027 75.7115C19.915 75.4425 19.836 75.1685 19.79 74.8895C19.744 74.6105 19.721 74.348 19.721 74.102V70.52H20.801V73.766C20.801 74.07 20.8285 74.3645 20.8835 74.6495C20.9385 74.9345 21.033 75.1905 21.167 75.4175C21.301 75.6445 21.481 75.824 21.707 75.956C21.933 76.088 22.217 76.154 22.559 76.154C22.827 76.154 23.0705 76.1085 23.2895 76.0175C23.5085 75.9265 23.696 75.7895 23.852 75.6065C24.008 75.4235 24.1285 75.1925 24.2135 74.9135C24.2985 74.6345 24.341 74.308 24.341 73.934L25.043 74.15C25.043 74.776 24.93 75.3145 24.704 75.7655C24.478 76.2165 24.16 76.563 23.75 76.805C23.34 77.047 22.857 77.168 22.301 77.168ZM24.461 77V75.266H24.341V70.52H25.415V77H24.461ZM27.095 77V70.52H28.049V72.086L27.893 71.882C27.969 71.682 28.068 71.498 28.19 71.33C28.312 71.162 28.449 71.024 28.601 70.916C28.767 70.782 28.9565 70.679 29.1695 70.607C29.3825 70.535 29.599 70.492 29.819 70.478C30.039 70.464 30.245 70.478 30.437 70.52V71.522C30.213 71.464 29.9665 71.449 29.6975 71.477C29.4285 71.505 29.181 71.602 28.955 71.768C28.745 71.918 28.5835 72.0985 28.4705 72.3095C28.3575 72.5205 28.279 72.749 28.235 72.995C28.191 73.241 28.169 73.492 28.169 73.748V77H27.095ZM36.191 77V73.754C36.191 73.448 36.1635 73.153 36.1085 72.869C36.0535 72.585 35.959 72.3295 35.825 72.1025C35.691 71.8755 35.511 71.696 35.285 71.564C35.059 71.432 34.775 71.366 34.433 71.366C34.165 71.366 33.9215 71.4115 33.7025 71.5025C33.4835 71.5935 33.296 71.7305 33.14 71.9135C32.984 72.0965 32.8635 72.327 32.7785 72.605C32.6935 72.883 32.651 73.21 32.651 73.586L31.949 73.37C31.949 72.744 32.062 72.2055 32.288 71.7545C32.514 71.3035 32.832 70.957 33.242 70.715C33.652 70.473 34.135 70.352 34.691 70.352C35.109 70.352 35.4665 70.418 35.7635 70.55C36.0605 70.682 36.307 70.8575 36.503 71.0765C36.699 71.2955 36.853 71.5395 36.965 71.8085C37.077 72.0775 37.156 72.3515 37.202 72.6305C37.248 72.9095 37.271 73.172 37.271 73.418V77H36.191ZM31.571 77V70.52H32.531V72.254H32.651V77H31.571ZM38.951 69.374V68.27H40.019V69.374H38.951ZM38.951 77V70.52H40.019V77H38.951ZM45.437 77C45.051 77.078 44.6715 77.11 44.2985 77.096C43.9255 77.082 43.5925 77.006 43.2995 76.868C43.0065 76.73 42.785 76.514 42.635 76.22C42.507 75.966 42.438 75.708 42.428 75.446C42.418 75.184 42.413 74.886 42.413 74.552V68.72H43.481V74.504C43.481 74.77 43.484 74.9965 43.49 75.1835C43.496 75.3705 43.537 75.532 43.613 75.668C43.757 75.926 43.986 76.0765 44.3 76.1195C44.614 76.1625 44.993 76.15 45.437 76.082V77ZM41.099 71.402V70.52H45.437V71.402H41.099ZM49.217 77.168C48.799 77.168 48.4415 77.102 48.1445 76.97C47.8475 76.838 47.601 76.6625 47.405 76.4435C47.209 76.2245 47.055 75.9805 46.943 75.7115C46.831 75.4425 46.752 75.1685 46.706 74.8895C46.66 74.6105 46.637 74.348 46.637 74.102V70.52H47.717V73.766C47.717 74.07 47.7445 74.3645 47.7995 74.6495C47.8545 74.9345 47.949 75.1905 48.083 75.4175C48.217 75.6445 48.397 75.824 48.623 75.956C48.849 76.088 49.133 76.154 49.475 76.154C49.743 76.154 49.9865 76.1085 50.2055 76.0175C50.4245 75.9265 50.612 75.7895 50.768 75.6065C50.924 75.4235 51.0445 75.1925 51.1295 74.9135C51.2145 74.6345 51.257 74.308 51.257 73.934L51.959 74.15C51.959 74.776 51.846 75.3145 51.62 75.7655C51.394 76.2165 51.076 76.563 50.666 76.805C50.256 77.047 49.773 77.168 49.217 77.168ZM51.377 77V75.266H51.257V70.52H52.331V77H51.377ZM54.011 77V70.52H54.965V72.086L54.809 71.882C54.885 71.682 54.984 71.498 55.106 71.33C55.228 71.162 55.365 71.024 55.517 70.916C55.683 70.782 55.8725 70.679 56.0855 70.607C56.2985 70.535 56.515 70.492 56.735 70.478C56.955 70.464 57.161 70.478 57.353 70.52V71.522C57.129 71.464 56.8825 71.449 56.6135 71.477C56.3445 71.505 56.097 71.602 55.871 71.768C55.661 71.918 55.4995 72.0985 55.3865 72.3095C55.2735 72.5205 55.195 72.749 55.151 72.995C55.107 73.241 55.085 73.492 55.085 73.748V77H54.011ZM61.181 77.18C60.543 77.18 59.987 77.0395 59.513 76.7585C59.039 76.4775 58.6705 76.0835 58.4075 75.5765C58.1445 75.0695 58.013 74.478 58.013 73.802C58.013 73.094 58.1425 72.481 58.4015 71.963C58.6605 71.445 59.0235 71.045 59.4905 70.763C59.9575 70.481 60.505 70.34 61.133 70.34C61.783 70.34 62.337 70.49 62.795 70.79C63.253 71.09 63.5975 71.518 63.8285 72.074C64.0595 72.63 64.158 73.292 64.124 74.06H63.047V73.676C63.035 72.88 62.873 72.285 62.561 71.891C62.249 71.497 61.785 71.3 61.169 71.3C60.507 71.3 60.0045 71.512 59.6615 71.936C59.3185 72.36 59.147 72.968 59.147 73.76C59.147 74.524 59.3185 75.116 59.6615 75.536C60.0045 75.956 60.495 76.166 61.133 76.166C61.561 76.166 61.933 76.068 62.249 75.872C62.565 75.676 62.813 75.394 62.993 75.026L64.019 75.38C63.765 75.952 63.3855 76.395 62.8805 76.709C62.3755 77.023 61.809 77.18 61.181 77.18ZM58.787 74.06V73.202H63.575V74.06H58.787Z" fill="#475569"/>
</svg>
