<svg width="78" height="80" viewBox="0 0 78 80" fill="none" xmlns="http://www.w3.org/2000/svg">
<rect x="10.75" width="56" height="56" rx="16" fill="#13A4EC" fill-opacity="0.1"/>
<path d="M38.8668 39.6668C37.2335 39.6668 35.7022 39.3557 34.2731 38.7335C32.8439 38.1113 31.5995 37.2703 30.5397 36.2106C29.48 35.1509 28.6391 33.9064 28.0168 32.4772C27.3946 31.0481 27.0835 29.5168 27.0835 27.8835C27.0835 25.0446 27.9877 22.5411 29.796 20.3731C31.6043 18.205 33.9085 16.8585 36.7085 16.3335C36.3585 18.2585 36.4654 20.1397 37.0293 21.9772C37.5932 23.8147 38.5654 25.4238 39.946 26.8043C41.3266 28.1849 42.9356 29.1571 44.7731 29.721C46.6106 30.2849 48.4918 30.3918 50.4168 30.0418C49.9113 32.8418 48.5696 35.146 46.3918 36.9543C44.2141 38.7627 41.7057 39.6668 38.8668 39.6668V39.6668M38.8668 37.3335C40.5779 37.3335 42.1627 36.9057 43.621 36.0502C45.0793 35.1946 46.2266 34.0182 47.0627 32.521C45.3904 32.3654 43.8057 31.9425 42.3085 31.2522C40.8113 30.562 39.4696 29.6238 38.2835 28.4377C37.0974 27.2516 36.1543 25.9099 35.4543 24.4127C34.7543 22.9154 34.3363 21.3307 34.2002 19.6585C32.7029 20.4946 31.5314 21.6467 30.6856 23.1147C29.8397 24.5828 29.4168 26.1724 29.4168 27.8835C29.4168 30.5085 30.3356 32.7397 32.1731 34.5772C34.0106 36.4147 36.2418 37.3335 38.8668 37.3335V37.3335M38.2835 28.4377V28.4377V28.4377V28.4377V28.4377V28.4377V28.4377V28.4377V28.4377V28.4377V28.4377V28.4377" fill="#13A4EC"/>
<path d="M9.53908 77V68.36H10.6071V75.986H14.6151V77H9.53908ZM17.4771 77.18C16.9931 77.18 16.5876 77.0915 16.2606 76.9145C15.9336 76.7375 15.6876 76.5025 15.5226 76.2095C15.3576 75.9165 15.2751 75.596 15.2751 75.248C15.2751 74.908 15.3396 74.6135 15.4686 74.3645C15.5976 74.1155 15.7806 73.9075 16.0176 73.7405C16.2546 73.5735 16.5371 73.442 16.8651 73.346C17.1731 73.264 17.5176 73.1915 17.8986 73.1285C18.2796 73.0655 18.6661 73.0085 19.0581 72.9575C19.4501 72.9065 19.8171 72.856 20.1591 72.806L19.7751 73.028C19.7851 72.454 19.6696 72.0285 19.4286 71.7515C19.1876 71.4745 18.7711 71.336 18.1791 71.336C17.7871 71.336 17.4436 71.4255 17.1486 71.6045C16.8536 71.7835 16.6471 72.072 16.5291 72.47L15.5151 72.164C15.6691 71.596 15.9706 71.15 16.4196 70.826C16.8686 70.502 17.4591 70.34 18.1911 70.34C18.7771 70.34 19.2811 70.445 19.7031 70.655C20.1251 70.865 20.4291 71.182 20.6151 71.606C20.7071 71.806 20.7651 72.023 20.7891 72.257C20.8131 72.491 20.8251 72.736 20.8251 72.992V77H19.8771V75.446L20.0991 75.59C19.8551 76.116 19.5136 76.5125 19.0746 76.7795C18.6356 77.0465 18.1031 77.18 17.4771 77.18ZM17.6391 76.286C18.0231 76.286 18.3561 76.2175 18.6381 76.0805C18.9201 75.9435 19.1471 75.7615 19.3191 75.5345C19.4911 75.3075 19.6031 75.06 19.6551 74.792C19.7131 74.592 19.7456 74.3695 19.7526 74.1245C19.7596 73.8795 19.7631 73.69 19.7631 73.556L20.1351 73.718C19.7871 73.768 19.4446 73.815 19.1076 73.859C18.7706 73.903 18.4521 73.9495 18.1521 73.9985C17.8521 74.0475 17.5831 74.106 17.3451 74.174C17.1671 74.23 17.0016 74.3025 16.8486 74.3915C16.6956 74.4805 16.5721 74.594 16.4781 74.732C16.3841 74.87 16.3371 75.04 16.3371 75.242C16.3371 75.42 16.3816 75.5885 16.4706 75.7475C16.5596 75.9065 16.6996 76.036 16.8906 76.136C17.0816 76.236 17.3311 76.286 17.6391 76.286ZM26.0031 77C25.6171 77.078 25.2376 77.11 24.8646 77.096C24.4916 77.082 24.1586 77.006 23.8656 76.868C23.5726 76.73 23.3511 76.514 23.2011 76.22C23.0731 75.966 23.0041 75.708 22.9941 75.446C22.9841 75.184 22.9791 74.886 22.9791 74.552V68.72H24.0471V74.504C24.0471 74.77 24.0501 74.9965 24.0561 75.1835C24.0621 75.3705 24.1031 75.532 24.1791 75.668C24.3231 75.926 24.5521 76.0765 24.8661 76.1195C25.1801 76.1625 25.5591 76.15 26.0031 76.082V77ZM21.6651 71.402V70.52H26.0031V71.402H21.6651ZM29.8611 77.18C29.2231 77.18 28.6671 77.0395 28.1931 76.7585C27.7191 76.4775 27.3506 76.0835 27.0876 75.5765C26.8246 75.0695 26.6931 74.478 26.6931 73.802C26.6931 73.094 26.8226 72.481 27.0816 71.963C27.3406 71.445 27.7036 71.045 28.1706 70.763C28.6376 70.481 29.1851 70.34 29.8131 70.34C30.4631 70.34 31.0171 70.49 31.4751 70.79C31.9331 71.09 32.2776 71.518 32.5086 72.074C32.7396 72.63 32.8381 73.292 32.8041 74.06H31.7271V73.676C31.7151 72.88 31.5531 72.285 31.2411 71.891C30.9291 71.497 30.4651 71.3 29.8491 71.3C29.1871 71.3 28.6846 71.512 28.3416 71.936C27.9986 72.36 27.8271 72.968 27.8271 73.76C27.8271 74.524 27.9986 75.116 28.3416 75.536C28.6846 75.956 29.1751 76.166 29.8131 76.166C30.2411 76.166 30.6131 76.068 30.9291 75.872C31.2451 75.676 31.4931 75.394 31.6731 75.026L32.6991 75.38C32.4451 75.952 32.0656 76.395 31.5606 76.709C31.0556 77.023 30.4891 77.18 29.8611 77.18ZM27.4671 74.06V73.202H32.2551V74.06H27.4671ZM38.9871 77.174C38.2131 77.174 37.5796 77.005 37.0866 76.667C36.5936 76.329 36.2911 75.856 36.1791 75.248L37.2711 75.074C37.3591 75.426 37.5611 75.705 37.8771 75.911C38.1931 76.117 38.5851 76.22 39.0531 76.22C39.4951 76.22 39.8426 76.1285 40.0956 75.9455C40.3486 75.7625 40.4751 75.512 40.4751 75.194C40.4751 75.012 40.4331 74.864 40.3491 74.75C40.2651 74.636 40.0921 74.529 39.8301 74.429C39.5681 74.329 39.1731 74.208 38.6451 74.066C38.0731 73.914 37.6226 73.7565 37.2936 73.5935C36.9646 73.4305 36.7306 73.241 36.5916 73.025C36.4526 72.809 36.3831 72.546 36.3831 72.236C36.3831 71.856 36.4871 71.5235 36.6951 71.2385C36.9031 70.9535 37.1936 70.7325 37.5666 70.5755C37.9396 70.4185 38.3751 70.34 38.8731 70.34C39.3651 70.34 39.8046 70.4185 40.1916 70.5755C40.5786 70.7325 40.8911 70.9535 41.1291 71.2385C41.3671 71.5235 41.5091 71.856 41.5551 72.236L40.4631 72.434C40.4111 72.088 40.2436 71.8145 39.9606 71.6135C39.6776 71.4125 39.3151 71.306 38.8731 71.294C38.4531 71.28 38.1121 71.355 37.8501 71.519C37.5881 71.683 37.4571 71.904 37.4571 72.182C37.4571 72.34 37.5056 72.4745 37.6026 72.5855C37.6996 72.6965 37.8816 72.802 38.1486 72.902C38.4156 73.002 38.8031 73.116 39.3111 73.244C39.8811 73.39 40.3311 73.5475 40.6611 73.7165C40.9911 73.8855 41.2266 74.0855 41.3676 74.3165C41.5086 74.5475 41.5791 74.83 41.5791 75.164C41.5791 75.79 41.3491 76.2815 40.8891 76.6385C40.4291 76.9955 39.7951 77.174 38.9871 77.174ZM47.5191 77V73.754C47.5191 73.448 47.4916 73.153 47.4366 72.869C47.3816 72.585 47.2871 72.3295 47.1531 72.1025C47.0191 71.8755 46.8391 71.696 46.6131 71.564C46.3871 71.432 46.1031 71.366 45.7611 71.366C45.4931 71.366 45.2496 71.4115 45.0306 71.5025C44.8116 71.5935 44.6241 71.7305 44.4681 71.9135C44.3121 72.0965 44.1916 72.327 44.1066 72.605C44.0216 72.883 43.9791 73.21 43.9791 73.586L43.2771 73.37C43.2771 72.744 43.3901 72.2055 43.6161 71.7545C43.8421 71.3035 44.1601 70.957 44.5701 70.715C44.9801 70.473 45.4631 70.352 46.0191 70.352C46.4371 70.352 46.7946 70.418 47.0916 70.55C47.3886 70.682 47.6351 70.8575 47.8311 71.0765C48.0271 71.2955 48.1811 71.5395 48.2931 71.8085C48.4051 72.0775 48.4841 72.3515 48.5301 72.6305C48.5761 72.9095 48.5991 73.172 48.5991 73.418V77H47.5191ZM42.8991 77V70.52H43.8591V72.254H43.9791V77H42.8991ZM52.0011 77.18C51.5171 77.18 51.1116 77.0915 50.7846 76.9145C50.4576 76.7375 50.2116 76.5025 50.0466 76.2095C49.8816 75.9165 49.7991 75.596 49.7991 75.248C49.7991 74.908 49.8636 74.6135 49.9926 74.3645C50.1216 74.1155 50.3046 73.9075 50.5416 73.7405C50.7786 73.5735 51.0611 73.442 51.3891 73.346C51.6971 73.264 52.0416 73.1915 52.4226 73.1285C52.8036 73.0655 53.1901 73.0085 53.5821 72.9575C53.9741 72.9065 54.3411 72.856 54.6831 72.806L54.2991 73.028C54.3091 72.454 54.1936 72.0285 53.9526 71.7515C53.7116 71.4745 53.2951 71.336 52.7031 71.336C52.3111 71.336 51.9676 71.4255 51.6726 71.6045C51.3776 71.7835 51.1711 72.072 51.0531 72.47L50.0391 72.164C50.1931 71.596 50.4946 71.15 50.9436 70.826C51.3926 70.502 51.9831 70.34 52.7151 70.34C53.3011 70.34 53.8051 70.445 54.2271 70.655C54.6491 70.865 54.9531 71.182 55.1391 71.606C55.2311 71.806 55.2891 72.023 55.3131 72.257C55.3371 72.491 55.3491 72.736 55.3491 72.992V77H54.4011V75.446L54.6231 75.59C54.3791 76.116 54.0376 76.5125 53.5986 76.7795C53.1596 77.0465 52.6271 77.18 52.0011 77.18ZM52.1631 76.286C52.5471 76.286 52.8801 76.2175 53.1621 76.0805C53.4441 75.9435 53.6711 75.7615 53.8431 75.5345C54.0151 75.3075 54.1271 75.06 54.1791 74.792C54.2371 74.592 54.2696 74.3695 54.2766 74.1245C54.2836 73.8795 54.2871 73.69 54.2871 73.556L54.6591 73.718C54.3111 73.768 53.9686 73.815 53.6316 73.859C53.2946 73.903 52.9761 73.9495 52.6761 73.9985C52.3761 74.0475 52.1071 74.106 51.8691 74.174C51.6911 74.23 51.5256 74.3025 51.3726 74.3915C51.2196 74.4805 51.0961 74.594 51.0021 74.732C50.9081 74.87 50.8611 75.04 50.8611 75.242C50.8611 75.42 50.9056 75.5885 50.9946 75.7475C51.0836 75.9065 51.2236 76.036 51.4146 76.136C51.6056 76.236 51.8551 76.286 52.1631 76.286ZM59.6391 77.18C58.9811 77.18 58.4231 77.033 57.9651 76.739C57.5071 76.445 57.1581 76.0405 56.9181 75.5255C56.6781 75.0105 56.5551 74.422 56.5491 73.76C56.5551 73.086 56.6811 72.492 56.9271 71.978C57.1731 71.464 57.5261 71.0625 57.9861 70.7735C58.4461 70.4845 59.0011 70.34 59.6511 70.34C60.3331 70.34 60.9211 70.508 61.4151 70.844C61.9091 71.18 62.2411 71.64 62.4111 72.224L61.3551 72.542C61.2171 72.166 60.9951 71.874 60.6891 71.666C60.3831 71.458 60.0331 71.354 59.6391 71.354C59.1951 71.354 58.8291 71.457 58.5411 71.663C58.2531 71.869 58.0391 72.153 57.8991 72.515C57.7591 72.877 57.6871 73.292 57.6831 73.76C57.6891 74.482 57.8556 75.0635 58.1826 75.5045C58.5096 75.9455 58.9951 76.166 59.6391 76.166C60.0611 76.166 60.4121 76.069 60.6921 75.875C60.9721 75.681 61.1851 75.4 61.3311 75.032L62.4111 75.314C62.1851 75.918 61.8341 76.38 61.3581 76.7C60.8821 77.02 60.3091 77.18 59.6391 77.18ZM63.6351 77L63.6411 68.36H64.7211V73.64L67.4391 70.52H68.8251L65.9631 73.76L69.1611 77H67.6671L64.7211 73.88V77H63.6351Z" fill="#475569"/>
</svg>
