<svg width="271" height="80" viewBox="0 0 271 80" fill="none" xmlns="http://www.w3.org/2000/svg">
<rect x="107.25" width="56" height="56" rx="16" fill="#3B82F6" fill-opacity="0.1"/>
<path d="M124.75 38.5V22.1667H129.417V17.5H141.083V26.8333H145.75V38.5H136.417V33.8333H134.083V38.5H124.75ZM127.083 36.1667H129.417V33.8333H127.083V36.1667ZM127.083 31.5H129.417V29.1667H127.083V31.5ZM127.083 26.8333H129.417V24.5H127.083V26.8333ZM131.75 31.5H134.083V29.1667H131.75V31.5ZM131.75 26.8333H134.083V24.5H131.75V26.8333ZM131.75 22.1667H134.083V19.8333H131.75V22.1667ZM136.417 31.5H138.75V29.1667H136.417V31.5ZM136.417 26.8333H138.75V24.5H136.417V26.8333ZM136.417 22.1667H138.75V19.8333H136.417V22.1667ZM141.083 36.1667H143.417V33.8333H141.083V36.1667ZM141.083 31.5H143.417V29.1667H141.083V31.5Z" fill="#2563EB"/>
<path d="M122.698 77V68.36H126.112C126.196 68.36 126.296 68.363 126.411 68.369C126.526 68.375 126.638 68.388 126.748 68.408C127.214 68.48 127.606 68.6405 127.924 68.8895C128.242 69.1385 128.482 69.452 128.643 69.83C128.804 70.208 128.884 70.626 128.884 71.084C128.884 71.754 128.71 72.3335 128.362 72.8225C128.014 73.3115 127.504 73.618 126.832 73.742L126.424 73.808H123.766V77H122.698ZM127.84 77L126.136 73.484L127.192 73.16L129.064 77H127.84ZM123.766 72.794H126.076C126.152 72.794 126.239 72.79 126.336 72.782C126.433 72.774 126.526 72.76 126.616 72.74C126.892 72.678 127.117 72.5615 127.29 72.3905C127.463 72.2195 127.59 72.019 127.671 71.789C127.752 71.559 127.792 71.324 127.792 71.084C127.792 70.844 127.752 70.609 127.671 70.379C127.59 70.149 127.463 69.9485 127.29 69.7775C127.117 69.6065 126.892 69.49 126.616 69.428C126.526 69.406 126.433 69.3915 126.336 69.3845C126.239 69.3775 126.152 69.374 126.076 69.374H123.766V72.794ZM133.192 77.18C132.554 77.18 131.998 77.0395 131.524 76.7585C131.05 76.4775 130.682 76.0835 130.419 75.5765C130.156 75.0695 130.024 74.478 130.024 73.802C130.024 73.094 130.154 72.481 130.413 71.963C130.672 71.445 131.035 71.045 131.502 70.763C131.969 70.481 132.516 70.34 133.144 70.34C133.794 70.34 134.348 70.49 134.806 70.79C135.264 71.09 135.609 71.518 135.84 72.074C136.071 72.63 136.169 73.292 136.135 74.06H135.058V73.676C135.046 72.88 134.884 72.285 134.572 71.891C134.26 71.497 133.796 71.3 133.18 71.3C132.518 71.3 132.016 71.512 131.673 71.936C131.33 72.36 131.158 72.968 131.158 73.76C131.158 74.524 131.33 75.116 131.673 75.536C132.016 75.956 132.506 76.166 133.144 76.166C133.572 76.166 133.944 76.068 134.26 75.872C134.576 75.676 134.824 75.394 135.004 75.026L136.03 75.38C135.776 75.952 135.397 76.395 134.892 76.709C134.387 77.023 133.82 77.18 133.192 77.18ZM130.798 74.06V73.202H135.586V74.06H130.798ZM141.904 77V73.754C141.904 73.448 141.877 73.153 141.822 72.869C141.767 72.585 141.672 72.3295 141.538 72.1025C141.404 71.8755 141.224 71.696 140.998 71.564C140.772 71.432 140.488 71.366 140.146 71.366C139.878 71.366 139.635 71.4115 139.416 71.5025C139.197 71.5935 139.009 71.7305 138.853 71.9135C138.697 72.0965 138.577 72.327 138.492 72.605C138.407 72.883 138.364 73.21 138.364 73.586L137.662 73.37C137.662 72.744 137.775 72.2055 138.001 71.7545C138.227 71.3035 138.545 70.957 138.955 70.715C139.365 70.473 139.848 70.352 140.404 70.352C140.822 70.352 141.18 70.418 141.477 70.55C141.774 70.682 142.02 70.8575 142.216 71.0765C142.412 71.2955 142.566 71.5395 142.678 71.8085C142.79 72.0775 142.869 72.3515 142.915 72.6305C142.961 72.9095 142.984 73.172 142.984 73.418V77H141.904ZM137.284 77V70.52H138.244V72.254H138.364V77H137.284ZM148.162 77C147.776 77.078 147.397 77.11 147.024 77.096C146.651 77.082 146.318 77.006 146.025 76.868C145.732 76.73 145.51 76.514 145.36 76.22C145.232 75.966 145.163 75.708 145.153 75.446C145.143 75.184 145.138 74.886 145.138 74.552V68.72H146.206V74.504C146.206 74.77 146.209 74.9965 146.215 75.1835C146.221 75.3705 146.262 75.532 146.338 75.668C146.482 75.926 146.711 76.0765 147.025 76.1195C147.339 76.1625 147.718 76.15 148.162 76.082V77ZM143.824 71.402V70.52H148.162V71.402H143.824Z" fill="#475569"/>
</svg>
