<svg width="78" height="80" viewBox="0 0 78 80" fill="none" xmlns="http://www.w3.org/2000/svg">
<rect x="10.75" width="56" height="56" rx="16" fill="#6366F1" fill-opacity="0.1"/>
<path d="M31.7498 29.7498C31.7498 30.7609 31.954 31.7186 32.3623 32.6228C32.7707 33.5269 33.354 34.3193 34.1123 34.9998C34.0929 34.9026 34.0832 34.8151 34.0832 34.7373C34.0832 34.6596 34.0832 34.5721 34.0832 34.4748C34.0832 33.8526 34.1998 33.2693 34.4332 32.7248C34.6665 32.1804 35.0068 31.6846 35.454 31.2373L38.7498 27.9998L42.0457 31.2373C42.4929 31.6846 42.8332 32.1804 43.0665 32.7248C43.2998 33.2693 43.4165 33.8526 43.4165 34.4748C43.4165 34.5721 43.4165 34.6596 43.4165 34.7373C43.4165 34.8151 43.4068 34.9026 43.3873 34.9998C44.1457 34.3193 44.729 33.5269 45.1373 32.6228C45.5457 31.7186 45.7498 30.7609 45.7498 29.7498C45.7498 28.7776 45.57 27.8589 45.2103 26.9936C44.8505 26.1283 44.3304 25.3554 43.6498 24.6748V24.6748C43.2609 24.9276 42.8526 25.1172 42.4248 25.2436C41.9971 25.37 41.5596 25.4332 41.1123 25.4332C39.9068 25.4332 38.8616 25.0346 37.9769 24.2373C37.0922 23.4401 36.5818 22.4582 36.4457 21.2915V21.2915C35.6873 21.9332 35.0165 22.5991 34.4332 23.2894C33.8498 23.9797 33.3589 24.6797 32.9603 25.3894C32.5616 26.0991 32.2603 26.8234 32.0561 27.5623C31.8519 28.3012 31.7498 29.0304 31.7498 29.7498V29.7498M38.7498 31.2665L37.0873 32.8998C36.8734 33.1137 36.7082 33.3568 36.5915 33.629C36.4748 33.9012 36.4165 34.1832 36.4165 34.4748C36.4165 35.0971 36.645 35.6318 37.1019 36.079C37.5589 36.5262 38.1082 36.7498 38.7498 36.7498C39.3915 36.7498 39.9408 36.5262 40.3978 36.079C40.8547 35.6318 41.0832 35.0971 41.0832 34.4748C41.0832 34.1637 41.0248 33.8769 40.9082 33.6144C40.7915 33.3519 40.6262 33.1137 40.4123 32.8998L38.7498 31.2665V31.2665M38.7498 16.9165V20.7665C38.7498 21.4276 38.9783 21.9818 39.4353 22.429C39.8922 22.8762 40.4512 23.0998 41.1123 23.0998C41.4623 23.0998 41.788 23.0269 42.0894 22.8811C42.3908 22.7353 42.6582 22.5165 42.8915 22.2248L43.4165 21.5832C44.8554 22.3998 45.9929 23.5373 46.829 24.9957C47.6651 26.454 48.0832 28.0387 48.0832 29.7498C48.0832 32.3554 47.179 34.5623 45.3707 36.3707C43.5623 38.179 41.3554 39.0832 38.7498 39.0832C36.1443 39.0832 33.9373 38.179 32.129 36.3707C30.3207 34.5623 29.4165 32.3554 29.4165 29.7498C29.4165 27.2415 30.2575 24.8596 31.9394 22.604C33.6214 20.3484 35.8915 18.4526 38.7498 16.9165V16.9165" fill="#6366F1"/>
<path d="M32.2458 77.18C31.6518 77.18 31.1108 77.0765 30.6228 76.8695C30.1348 76.6625 29.7153 76.364 29.3643 75.974C29.0133 75.584 28.7428 75.1115 28.5528 74.5565C28.3628 74.0015 28.2678 73.376 28.2678 72.68C28.2678 71.762 28.4313 70.967 28.7583 70.295C29.0853 69.623 29.5468 69.1035 30.1428 68.7365C30.7388 68.3695 31.4398 68.186 32.2458 68.186C33.2138 68.186 33.9938 68.4115 34.5858 68.8625C35.1778 69.3135 35.5858 69.928 35.8098 70.706L34.7298 70.928C34.5478 70.406 34.2513 69.989 33.8403 69.677C33.4293 69.365 32.9158 69.208 32.2998 69.206C31.6558 69.202 31.1203 69.3455 30.6933 69.6365C30.2663 69.9275 29.9453 70.335 29.7303 70.859C29.5153 71.383 29.4058 71.99 29.4018 72.68C29.3978 73.37 29.5033 73.975 29.7183 74.495C29.9333 75.015 30.2563 75.4215 30.6873 75.7145C31.1183 76.0075 31.6558 76.156 32.2998 76.16C32.8558 76.164 33.3233 76.0585 33.7023 75.8435C34.0813 75.6285 34.3753 75.317 34.5843 74.909C34.7933 74.501 34.9198 74.01 34.9638 73.436H33.1278V72.554H36.0918C36.1018 72.636 36.1083 72.732 36.1113 72.842C36.1143 72.952 36.1158 73.026 36.1158 73.064C36.1158 73.854 35.9688 74.5595 35.6748 75.1805C35.3808 75.8015 34.9463 76.29 34.3713 76.646C33.7963 77.002 33.0878 77.18 32.2458 77.18ZM39.1578 77.18C38.6738 77.18 38.2683 77.0915 37.9413 76.9145C37.6143 76.7375 37.3683 76.5025 37.2033 76.2095C37.0383 75.9165 36.9558 75.596 36.9558 75.248C36.9558 74.908 37.0203 74.6135 37.1493 74.3645C37.2783 74.1155 37.4613 73.9075 37.6983 73.7405C37.9353 73.5735 38.2178 73.442 38.5458 73.346C38.8538 73.264 39.1983 73.1915 39.5793 73.1285C39.9603 73.0655 40.3468 73.0085 40.7388 72.9575C41.1308 72.9065 41.4978 72.856 41.8398 72.806L41.4558 73.028C41.4658 72.454 41.3503 72.0285 41.1093 71.7515C40.8683 71.4745 40.4518 71.336 39.8598 71.336C39.4678 71.336 39.1243 71.4255 38.8293 71.6045C38.5343 71.7835 38.3278 72.072 38.2098 72.47L37.1958 72.164C37.3498 71.596 37.6513 71.15 38.1003 70.826C38.5493 70.502 39.1398 70.34 39.8718 70.34C40.4578 70.34 40.9618 70.445 41.3838 70.655C41.8058 70.865 42.1098 71.182 42.2958 71.606C42.3878 71.806 42.4458 72.023 42.4698 72.257C42.4938 72.491 42.5058 72.736 42.5058 72.992V77H41.5578V75.446L41.7798 75.59C41.5358 76.116 41.1943 76.5125 40.7553 76.7795C40.3163 77.0465 39.7838 77.18 39.1578 77.18ZM39.3198 76.286C39.7038 76.286 40.0368 76.2175 40.3188 76.0805C40.6008 75.9435 40.8278 75.7615 40.9998 75.5345C41.1718 75.3075 41.2838 75.06 41.3358 74.792C41.3938 74.592 41.4263 74.3695 41.4333 74.1245C41.4403 73.8795 41.4438 73.69 41.4438 73.556L41.8158 73.718C41.4678 73.768 41.1253 73.815 40.7883 73.859C40.4513 73.903 40.1328 73.9495 39.8328 73.9985C39.5328 74.0475 39.2638 74.106 39.0258 74.174C38.8478 74.23 38.6823 74.3025 38.5293 74.3915C38.3763 74.4805 38.2528 74.594 38.1588 74.732C38.0648 74.87 38.0178 75.04 38.0178 75.242C38.0178 75.42 38.0623 75.5885 38.1513 75.7475C38.2403 75.9065 38.3803 76.036 38.5713 76.136C38.7623 76.236 39.0118 76.286 39.3198 76.286ZM46.5138 77.174C45.7398 77.174 45.1063 77.005 44.6133 76.667C44.1203 76.329 43.8178 75.856 43.7058 75.248L44.7978 75.074C44.8858 75.426 45.0878 75.705 45.4038 75.911C45.7198 76.117 46.1118 76.22 46.5798 76.22C47.0218 76.22 47.3693 76.1285 47.6223 75.9455C47.8753 75.7625 48.0018 75.512 48.0018 75.194C48.0018 75.012 47.9598 74.864 47.8758 74.75C47.7918 74.636 47.6188 74.529 47.3568 74.429C47.0948 74.329 46.6998 74.208 46.1718 74.066C45.5998 73.914 45.1493 73.7565 44.8203 73.5935C44.4913 73.4305 44.2573 73.241 44.1183 73.025C43.9793 72.809 43.9098 72.546 43.9098 72.236C43.9098 71.856 44.0138 71.5235 44.2218 71.2385C44.4298 70.9535 44.7203 70.7325 45.0933 70.5755C45.4663 70.4185 45.9018 70.34 46.3998 70.34C46.8918 70.34 47.3313 70.4185 47.7183 70.5755C48.1053 70.7325 48.4178 70.9535 48.6558 71.2385C48.8938 71.5235 49.0358 71.856 49.0818 72.236L47.9898 72.434C47.9378 72.088 47.7703 71.8145 47.4873 71.6135C47.2043 71.4125 46.8418 71.306 46.3998 71.294C45.9798 71.28 45.6388 71.355 45.3768 71.519C45.1148 71.683 44.9838 71.904 44.9838 72.182C44.9838 72.34 45.0323 72.4745 45.1293 72.5855C45.2263 72.6965 45.4083 72.802 45.6753 72.902C45.9423 73.002 46.3298 73.116 46.8378 73.244C47.4078 73.39 47.8578 73.5475 48.1878 73.7165C48.5178 73.8855 48.7533 74.0855 48.8943 74.3165C49.0353 74.5475 49.1058 74.83 49.1058 75.164C49.1058 75.79 48.8758 76.2815 48.4158 76.6385C47.9558 76.9955 47.3218 77.174 46.5138 77.174Z" fill="#475569"/>
</svg>
