<svg width="78" height="80" viewBox="0 0 78 80" fill="none" xmlns="http://www.w3.org/2000/svg">
<rect x="10.75" width="56" height="56" rx="16" fill="#64748B" fill-opacity="0.1"/>
<path d="M44 28.8748L39.1583 24.1498C38.5556 23.5665 38.0451 22.92 37.6271 22.2103C37.209 21.5005 37 20.7276 37 19.8915C37 18.8221 37.3743 17.913 38.1229 17.1644C38.8715 16.4158 39.7806 16.0415 40.85 16.0415C41.4722 16.0415 42.0556 16.1728 42.6 16.4353C43.1444 16.6978 43.6111 17.0526 44 17.4998C44.3889 17.0526 44.8556 16.6978 45.4 16.4353C45.9444 16.1728 46.5278 16.0415 47.15 16.0415C48.2194 16.0415 49.1285 16.4158 49.8771 17.1644C50.6257 17.913 51 18.8221 51 19.8915C51 20.7276 50.7958 21.5005 50.3875 22.2103C49.9792 22.92 49.4736 23.5665 48.8708 24.1498L44 28.8748V28.8748M44 25.6082L47.1792 22.4873C47.5486 22.1179 47.8889 21.7241 48.2 21.3061C48.5111 20.888 48.6667 20.4165 48.6667 19.8915C48.6667 19.4637 48.5208 19.104 48.2292 18.8123C47.9375 18.5207 47.5778 18.3748 47.15 18.3748C46.8778 18.3748 46.6201 18.4283 46.3771 18.5353C46.134 18.6422 45.925 18.8026 45.75 19.0165L44 21.1165L42.25 19.0165C42.075 18.8026 41.866 18.6422 41.6229 18.5353C41.3799 18.4283 41.1222 18.3748 40.85 18.3748C40.4222 18.3748 40.0625 18.5207 39.7708 18.8123C39.4792 19.104 39.3333 19.4637 39.3333 19.8915C39.3333 20.4165 39.4889 20.888 39.8 21.3061C40.1111 21.7241 40.4514 22.1179 40.8208 22.4873L44 25.6082V25.6082M33.5 35.2915L41.6083 37.5082L48.55 35.3498C48.4528 35.1748 48.3118 35.0241 48.1271 34.8978C47.9424 34.7714 47.7333 34.7082 47.5 34.7082H41.6083C41.0833 34.7082 40.6653 34.6887 40.3542 34.6498C40.0431 34.6109 39.7222 34.5332 39.3917 34.4165L36.6792 33.5123L37.3208 31.2373L39.6833 32.0248C40.0139 32.1221 40.4028 32.1998 40.85 32.2582C41.2972 32.3165 41.9583 32.3554 42.8333 32.3748V32.3748V32.3748V32.3748C42.8333 32.1609 42.7701 31.9568 42.6437 31.7623C42.5174 31.5679 42.3667 31.4415 42.1917 31.3832L35.3667 28.8748V28.8748V28.8748H33.5V35.2915V35.2915M26.5 39.3748V26.5415H35.3667C35.5028 26.5415 35.6389 26.5561 35.775 26.5853C35.9111 26.6144 36.0375 26.6484 36.1542 26.6873L43.0083 29.2248C43.65 29.4582 44.1701 29.8665 44.5688 30.4498C44.9674 31.0332 45.1667 31.6748 45.1667 32.3748H47.5C48.4722 32.3748 49.2986 32.6957 49.9792 33.3373C50.6597 33.979 51 34.8248 51 35.8748V37.0415L41.6667 39.9582L33.5 37.6832V37.6832V39.3748H26.5V39.3748M28.8333 37.0415H31.1667V28.8748H28.8333V37.0415V37.0415M44 21.1165V21.1165V21.1165V21.1165V21.1165V21.1165V21.1165V21.1165V21.1165V21.1165V21.1165V21.1165V21.1165V21.1165V21.1165V21.1165V21.1165V21.1165" fill="#64748B"/>
<path d="M13.7059 77V68.36H16.3699C16.4559 68.36 16.6089 68.362 16.8289 68.366C17.0489 68.37 17.2599 68.386 17.4619 68.414C18.1279 68.502 18.6864 68.745 19.1374 69.143C19.5884 69.541 19.9279 70.0465 20.1559 70.6595C20.3839 71.2725 20.4979 71.946 20.4979 72.68C20.4979 73.416 20.3839 74.0905 20.1559 74.7035C19.9279 75.3165 19.5884 75.8215 19.1374 76.2185C18.6864 76.6155 18.1279 76.858 17.4619 76.946C17.2619 76.972 17.0504 76.9875 16.8274 76.9925C16.6044 76.9975 16.4519 77 16.3699 77H13.7059ZM14.8039 75.98H16.3699C16.5199 75.98 16.6894 75.9755 16.8784 75.9665C17.0674 75.9575 17.2319 75.94 17.3719 75.914C17.8439 75.828 18.2259 75.6305 18.5179 75.3215C18.8099 75.0125 19.0239 74.6285 19.1599 74.1695C19.2959 73.7105 19.3639 73.214 19.3639 72.68C19.3639 72.136 19.2949 71.6345 19.1569 71.1755C19.0189 70.7165 18.8034 70.3345 18.5104 70.0295C18.2174 69.7245 17.8379 69.53 17.3719 69.446C17.2319 69.418 17.0659 69.4 16.8739 69.392C16.6819 69.384 16.5139 69.38 16.3699 69.38H14.8039V75.98ZM24.6379 77.18C23.9919 77.18 23.4359 77.034 22.9699 76.742C22.5039 76.45 22.1454 76.0465 21.8944 75.5315C21.6434 75.0165 21.5179 74.424 21.5179 73.754C21.5179 73.076 21.6459 72.4805 21.9019 71.9675C22.1579 71.4545 22.5194 71.055 22.9864 70.769C23.4534 70.483 24.0039 70.34 24.6379 70.34C25.2859 70.34 25.8434 70.4855 26.3104 70.7765C26.7774 71.0675 27.1364 71.4695 27.3874 71.9825C27.6384 72.4955 27.7639 73.086 27.7639 73.754C27.7639 74.432 27.6374 75.028 27.3844 75.542C27.1314 76.056 26.7709 76.4575 26.3029 76.7465C25.8349 77.0355 25.2799 77.18 24.6379 77.18ZM24.6379 76.166C25.3079 76.166 25.8074 75.942 26.1364 75.494C26.4654 75.046 26.6299 74.466 26.6299 73.754C26.6299 73.024 26.4639 72.4415 26.1319 72.0065C25.7999 71.5715 25.3019 71.354 24.6379 71.354C24.1859 71.354 23.8134 71.456 23.5204 71.66C23.2274 71.864 23.0094 72.146 22.8664 72.506C22.7234 72.866 22.6519 73.282 22.6519 73.754C22.6519 74.484 22.8199 75.0685 23.1559 75.5075C23.4919 75.9465 23.9859 76.166 24.6379 76.166ZM33.6979 77V73.754C33.6979 73.448 33.6704 73.153 33.6154 72.869C33.5604 72.585 33.4659 72.3295 33.3319 72.1025C33.1979 71.8755 33.0179 71.696 32.7919 71.564C32.5659 71.432 32.2819 71.366 31.9399 71.366C31.6719 71.366 31.4284 71.4115 31.2094 71.5025C30.9904 71.5935 30.8029 71.7305 30.6469 71.9135C30.4909 72.0965 30.3704 72.327 30.2854 72.605C30.2004 72.883 30.1579 73.21 30.1579 73.586L29.4559 73.37C29.4559 72.744 29.5689 72.2055 29.7949 71.7545C30.0209 71.3035 30.3389 70.957 30.7489 70.715C31.1589 70.473 31.6419 70.352 32.1979 70.352C32.6159 70.352 32.9734 70.418 33.2704 70.55C33.5674 70.682 33.8139 70.8575 34.0099 71.0765C34.2059 71.2955 34.3599 71.5395 34.4719 71.8085C34.5839 72.0775 34.6629 72.3515 34.7089 72.6305C34.7549 72.9095 34.7779 73.172 34.7779 73.418V77H33.6979ZM29.0779 77V70.52H30.0379V72.254H30.1579V77H29.0779ZM38.1799 77.18C37.6959 77.18 37.2904 77.0915 36.9634 76.9145C36.6364 76.7375 36.3904 76.5025 36.2254 76.2095C36.0604 75.9165 35.9779 75.596 35.9779 75.248C35.9779 74.908 36.0424 74.6135 36.1714 74.3645C36.3004 74.1155 36.4834 73.9075 36.7204 73.7405C36.9574 73.5735 37.2399 73.442 37.5679 73.346C37.8759 73.264 38.2204 73.1915 38.6014 73.1285C38.9824 73.0655 39.3689 73.0085 39.7609 72.9575C40.1529 72.9065 40.5199 72.856 40.8619 72.806L40.4779 73.028C40.4879 72.454 40.3724 72.0285 40.1314 71.7515C39.8904 71.4745 39.4739 71.336 38.8819 71.336C38.4899 71.336 38.1464 71.4255 37.8514 71.6045C37.5564 71.7835 37.3499 72.072 37.2319 72.47L36.2179 72.164C36.3719 71.596 36.6734 71.15 37.1224 70.826C37.5714 70.502 38.1619 70.34 38.8939 70.34C39.4799 70.34 39.9839 70.445 40.4059 70.655C40.8279 70.865 41.1319 71.182 41.3179 71.606C41.4099 71.806 41.4679 72.023 41.4919 72.257C41.5159 72.491 41.5279 72.736 41.5279 72.992V77H40.5799V75.446L40.8019 75.59C40.5579 76.116 40.2164 76.5125 39.7774 76.7795C39.3384 77.0465 38.8059 77.18 38.1799 77.18ZM38.3419 76.286C38.7259 76.286 39.0589 76.2175 39.3409 76.0805C39.6229 75.9435 39.8499 75.7615 40.0219 75.5345C40.1939 75.3075 40.3059 75.06 40.3579 74.792C40.4159 74.592 40.4484 74.3695 40.4554 74.1245C40.4624 73.8795 40.4659 73.69 40.4659 73.556L40.8379 73.718C40.4899 73.768 40.1474 73.815 39.8104 73.859C39.4734 73.903 39.1549 73.9495 38.8549 73.9985C38.5549 74.0475 38.2859 74.106 38.0479 74.174C37.8699 74.23 37.7044 74.3025 37.5514 74.3915C37.3984 74.4805 37.2749 74.594 37.1809 74.732C37.0869 74.87 37.0399 75.04 37.0399 75.242C37.0399 75.42 37.0844 75.5885 37.1734 75.7475C37.2624 75.9065 37.4024 76.036 37.5934 76.136C37.7844 76.236 38.0339 76.286 38.3419 76.286ZM46.7059 77C46.3199 77.078 45.9404 77.11 45.5674 77.096C45.1944 77.082 44.8614 77.006 44.5684 76.868C44.2754 76.73 44.0539 76.514 43.9039 76.22C43.7759 75.966 43.7069 75.708 43.6969 75.446C43.6869 75.184 43.6819 74.886 43.6819 74.552V68.72H44.7499V74.504C44.7499 74.77 44.7529 74.9965 44.7589 75.1835C44.7649 75.3705 44.8059 75.532 44.8819 75.668C45.0259 75.926 45.2549 76.0765 45.5689 76.1195C45.8829 76.1625 46.2619 76.15 46.7059 76.082V77ZM42.3679 71.402V70.52H46.7059V71.402H42.3679ZM48.1459 69.374V68.27H49.2139V69.374H48.1459ZM48.1459 77V70.52H49.2139V77H48.1459ZM53.7739 77.18C53.1279 77.18 52.5719 77.034 52.1059 76.742C51.6399 76.45 51.2814 76.0465 51.0304 75.5315C50.7794 75.0165 50.6539 74.424 50.6539 73.754C50.6539 73.076 50.7819 72.4805 51.0379 71.9675C51.2939 71.4545 51.6554 71.055 52.1224 70.769C52.5894 70.483 53.1399 70.34 53.7739 70.34C54.4219 70.34 54.9794 70.4855 55.4464 70.7765C55.9134 71.0675 56.2724 71.4695 56.5234 71.9825C56.7744 72.4955 56.8999 73.086 56.8999 73.754C56.8999 74.432 56.7734 75.028 56.5204 75.542C56.2674 76.056 55.9069 76.4575 55.4389 76.7465C54.9709 77.0355 54.4159 77.18 53.7739 77.18ZM53.7739 76.166C54.4439 76.166 54.9434 75.942 55.2724 75.494C55.6014 75.046 55.7659 74.466 55.7659 73.754C55.7659 73.024 55.5999 72.4415 55.2679 72.0065C54.9359 71.5715 54.4379 71.354 53.7739 71.354C53.3219 71.354 52.9494 71.456 52.6564 71.66C52.3634 71.864 52.1454 72.146 52.0024 72.506C51.8594 72.866 51.7879 73.282 51.7879 73.754C51.7879 74.484 51.9559 75.0685 52.2919 75.5075C52.6279 75.9465 53.1219 76.166 53.7739 76.166ZM62.8339 77V73.754C62.8339 73.448 62.8064 73.153 62.7514 72.869C62.6964 72.585 62.6019 72.3295 62.4679 72.1025C62.3339 71.8755 62.1539 71.696 61.9279 71.564C61.7019 71.432 61.4179 71.366 61.0759 71.366C60.8079 71.366 60.5644 71.4115 60.3454 71.5025C60.1264 71.5935 59.9389 71.7305 59.7829 71.9135C59.6269 72.0965 59.5064 72.327 59.4214 72.605C59.3364 72.883 59.2939 73.21 59.2939 73.586L58.5919 73.37C58.5919 72.744 58.7049 72.2055 58.9309 71.7545C59.1569 71.3035 59.4749 70.957 59.8849 70.715C60.2949 70.473 60.7779 70.352 61.3339 70.352C61.7519 70.352 62.1094 70.418 62.4064 70.55C62.7034 70.682 62.9499 70.8575 63.1459 71.0765C63.3419 71.2955 63.4959 71.5395 63.6079 71.8085C63.7199 72.0775 63.7989 72.3515 63.8449 72.6305C63.8909 72.9095 63.9139 73.172 63.9139 73.418V77H62.8339ZM58.2139 77V70.52H59.1739V72.254H59.2939V77H58.2139Z" fill="#475569"/>
</svg>
