<svg width="78" height="80" viewBox="0 0 78 80" fill="none" xmlns="http://www.w3.org/2000/svg">
<rect x="10.75" width="56" height="56" rx="16" fill="#64748B" fill-opacity="0.1"/>
<path d="M30.0002 27.4165C29.1835 27.4165 28.4932 27.1346 27.9293 26.5707C27.3654 26.0068 27.0835 25.3165 27.0835 24.4998C27.0835 23.6832 27.3654 22.9929 27.9293 22.429C28.4932 21.8651 29.1835 21.5832 30.0002 21.5832C30.8168 21.5832 31.5071 21.8651 32.071 22.429C32.6349 22.9929 32.9168 23.6832 32.9168 24.4998C32.9168 25.3165 32.6349 26.0068 32.071 26.5707C31.5071 27.1346 30.8168 27.4165 30.0002 27.4165V27.4165M35.2502 22.7498C34.4335 22.7498 33.7432 22.4679 33.1793 21.904C32.6154 21.3401 32.3335 20.6498 32.3335 19.8332C32.3335 19.0165 32.6154 18.3262 33.1793 17.7623C33.7432 17.1984 34.4335 16.9165 35.2502 16.9165C36.0668 16.9165 36.7571 17.1984 37.321 17.7623C37.8849 18.3262 38.1668 19.0165 38.1668 19.8332C38.1668 20.6498 37.8849 21.3401 37.321 21.904C36.7571 22.4679 36.0668 22.7498 35.2502 22.7498V22.7498M42.2502 22.7498C41.4335 22.7498 40.7432 22.4679 40.1793 21.904C39.6154 21.3401 39.3335 20.6498 39.3335 19.8332C39.3335 19.0165 39.6154 18.3262 40.1793 17.7623C40.7432 17.1984 41.4335 16.9165 42.2502 16.9165C43.0668 16.9165 43.7571 17.1984 44.321 17.7623C44.8849 18.3262 45.1668 19.0165 45.1668 19.8332C45.1668 20.6498 44.8849 21.3401 44.321 21.904C43.7571 22.4679 43.0668 22.7498 42.2502 22.7498V22.7498M47.5002 27.4165C46.6835 27.4165 45.9932 27.1346 45.4293 26.5707C44.8654 26.0068 44.5835 25.3165 44.5835 24.4998C44.5835 23.6832 44.8654 22.9929 45.4293 22.429C45.9932 21.8651 46.6835 21.5832 47.5002 21.5832C48.3168 21.5832 49.0071 21.8651 49.571 22.429C50.1349 22.9929 50.4168 23.6832 50.4168 24.4998C50.4168 25.3165 50.1349 26.0068 49.571 26.5707C49.0071 27.1346 48.3168 27.4165 47.5002 27.4165V27.4165M32.5085 39.0832C31.6335 39.0832 30.8995 38.7478 30.3064 38.0769C29.7134 37.4061 29.4168 36.6137 29.4168 35.6998C29.4168 34.6887 29.762 33.804 30.4522 33.0457C31.1425 32.2873 31.8279 31.5387 32.5085 30.7998C33.0724 30.1971 33.5585 29.5408 33.9668 28.8311C34.3752 28.1214 34.8613 27.4554 35.4252 26.8332C35.8529 26.3276 36.3488 25.9096 36.9127 25.579C37.4766 25.2484 38.0891 25.0832 38.7502 25.0832C39.4113 25.0832 40.0238 25.2387 40.5877 25.5498C41.1516 25.8609 41.6474 26.2693 42.0752 26.7748C42.6196 27.3971 43.1009 28.0679 43.5189 28.7873C43.937 29.5068 44.4279 30.1776 44.9918 30.7998C45.6724 31.5387 46.3578 32.2873 47.0481 33.0457C47.7384 33.804 48.0835 34.6887 48.0835 35.6998C48.0835 36.6137 47.787 37.4061 47.1939 38.0769C46.6009 38.7478 45.8668 39.0832 44.9918 39.0832C43.9418 39.0832 42.9016 38.9957 41.871 38.8207C40.8404 38.6457 39.8002 38.5582 38.7502 38.5582C37.7002 38.5582 36.6599 38.6457 35.6293 38.8207C34.5988 38.9957 33.5585 39.0832 32.5085 39.0832V39.0832" fill="#64748B"/>
<path d="M29.9148 77V68.36H33.3288C33.4128 68.36 33.5123 68.363 33.6273 68.369C33.7423 68.375 33.8548 68.388 33.9648 68.408C34.4308 68.48 34.8228 68.6405 35.1408 68.8895C35.4588 69.1385 35.6983 69.452 35.8593 69.83C36.0203 70.208 36.1008 70.626 36.1008 71.084C36.1008 71.542 36.0198 71.96 35.8578 72.338C35.6958 72.716 35.4558 73.0295 35.1378 73.2785C34.8198 73.5275 34.4288 73.688 33.9648 73.76C33.8548 73.776 33.7418 73.788 33.6258 73.796C33.5098 73.804 33.4108 73.808 33.3288 73.808H30.9828V77H29.9148ZM30.9828 72.794H33.2928C33.3688 72.794 33.4553 72.79 33.5523 72.782C33.6493 72.774 33.7428 72.76 33.8328 72.74C34.1088 72.678 34.3333 72.5615 34.5063 72.3905C34.6793 72.2195 34.8063 72.019 34.8873 71.789C34.9683 71.559 35.0088 71.324 35.0088 71.084C35.0088 70.844 34.9683 70.609 34.8873 70.379C34.8063 70.149 34.6793 69.9485 34.5063 69.7775C34.3333 69.6065 34.1088 69.49 33.8328 69.428C33.7428 69.406 33.6493 69.3915 33.5523 69.3845C33.4553 69.3775 33.3688 69.374 33.2928 69.374H30.9828V72.794ZM40.0488 77.18C39.4108 77.18 38.8548 77.0395 38.3808 76.7585C37.9068 76.4775 37.5383 76.0835 37.2753 75.5765C37.0123 75.0695 36.8808 74.478 36.8808 73.802C36.8808 73.094 37.0103 72.481 37.2693 71.963C37.5283 71.445 37.8913 71.045 38.3583 70.763C38.8253 70.481 39.3728 70.34 40.0008 70.34C40.6508 70.34 41.2048 70.49 41.6628 70.79C42.1208 71.09 42.4653 71.518 42.6963 72.074C42.9273 72.63 43.0258 73.292 42.9918 74.06H41.9148V73.676C41.9028 72.88 41.7408 72.285 41.4288 71.891C41.1168 71.497 40.6528 71.3 40.0368 71.3C39.3748 71.3 38.8723 71.512 38.5293 71.936C38.1863 72.36 38.0148 72.968 38.0148 73.76C38.0148 74.524 38.1863 75.116 38.5293 75.536C38.8723 75.956 39.3628 76.166 40.0008 76.166C40.4288 76.166 40.8008 76.068 41.1168 75.872C41.4328 75.676 41.6808 75.394 41.8608 75.026L42.8868 75.38C42.6328 75.952 42.2533 76.395 41.7483 76.709C41.2433 77.023 40.6768 77.18 40.0488 77.18ZM37.6548 74.06V73.202H42.4428V74.06H37.6548ZM47.9448 77C47.5588 77.078 47.1793 77.11 46.8063 77.096C46.4333 77.082 46.1003 77.006 45.8073 76.868C45.5143 76.73 45.2928 76.514 45.1428 76.22C45.0148 75.966 44.9458 75.708 44.9358 75.446C44.9258 75.184 44.9208 74.886 44.9208 74.552V68.72H45.9888V74.504C45.9888 74.77 45.9918 74.9965 45.9978 75.1835C46.0038 75.3705 46.0448 75.532 46.1208 75.668C46.2648 75.926 46.4938 76.0765 46.8078 76.1195C47.1218 76.1625 47.5008 76.15 47.9448 76.082V77ZM43.6068 71.402V70.52H47.9448V71.402H43.6068Z" fill="#475569"/>
</svg>
