<svg width="78" height="80" viewBox="0 0 78 80" fill="none" xmlns="http://www.w3.org/2000/svg">
<rect x="10.75" width="56" height="56" rx="16" fill="#F97316" fill-opacity="0.1"/>
<path d="M29.4168 34.4165V36.7498V36.7498V36.7498H48.0835V36.7498V36.7498V34.4165H29.4168V34.4165M29.4168 21.5832H31.9835C31.8863 21.4082 31.8231 21.2234 31.7939 21.029C31.7647 20.8346 31.7502 20.6304 31.7502 20.4165C31.7502 19.4443 32.0904 18.6179 32.771 17.9373C33.4516 17.2568 34.2779 16.9165 35.2502 16.9165C35.8335 16.9165 36.3731 17.0672 36.8689 17.3686C37.3647 17.67 37.7974 18.0443 38.1668 18.4915L38.7502 19.2498L39.3335 18.4915C39.6835 18.0248 40.1113 17.6457 40.6168 17.354C41.1224 17.0623 41.6668 16.9165 42.2502 16.9165C43.2224 16.9165 44.0488 17.2568 44.7293 17.9373C45.4099 18.6179 45.7502 19.4443 45.7502 20.4165C45.7502 20.6304 45.7356 20.8346 45.7064 21.029C45.6772 21.2234 45.6141 21.4082 45.5168 21.5832H48.0835C48.7252 21.5832 49.2745 21.8116 49.7314 22.2686C50.1884 22.7255 50.4168 23.2748 50.4168 23.9165V36.7498C50.4168 37.3915 50.1884 37.9408 49.7314 38.3978C49.2745 38.8547 48.7252 39.0832 48.0835 39.0832H29.4168C28.7752 39.0832 28.2259 38.8547 27.7689 38.3978C27.312 37.9408 27.0835 37.3915 27.0835 36.7498V23.9165C27.0835 23.2748 27.312 22.7255 27.7689 22.2686C28.2259 21.8116 28.7752 21.5832 29.4168 21.5832V21.5832M29.4168 30.9165H48.0835V23.9165V23.9165V23.9165H42.1335L44.5835 27.2415L42.7168 28.5832L38.7502 23.2165L34.7835 28.5832L32.9168 27.2415L35.3085 23.9165H29.4168V23.9165V23.9165V30.9165V30.9165M35.2502 21.5832C35.5807 21.5832 35.8578 21.4714 36.0814 21.2478C36.305 21.0241 36.4168 20.7471 36.4168 20.4165C36.4168 20.0859 36.305 19.8089 36.0814 19.5853C35.8578 19.3616 35.5807 19.2498 35.2502 19.2498C34.9196 19.2498 34.6425 19.3616 34.4189 19.5853C34.1953 19.8089 34.0835 20.0859 34.0835 20.4165C34.0835 20.7471 34.1953 21.0241 34.4189 21.2478C34.6425 21.4714 34.9196 21.5832 35.2502 21.5832V21.5832M42.2502 21.5832C42.5807 21.5832 42.8578 21.4714 43.0814 21.2478C43.305 21.0241 43.4168 20.7471 43.4168 20.4165C43.4168 20.0859 43.305 19.8089 43.0814 19.5853C42.8578 19.3616 42.5807 19.2498 42.2502 19.2498C41.9196 19.2498 41.6425 19.3616 41.4189 19.5853C41.1953 19.8089 41.0835 20.0859 41.0835 20.4165C41.0835 20.7471 41.1953 21.0241 41.4189 21.2478C41.6425 21.4714 41.9196 21.5832 42.2502 21.5832V21.5832" fill="#F97316"/>
<path d="M14.258 77V68.36H17.672C17.756 68.36 17.8555 68.363 17.9705 68.369C18.0855 68.375 18.198 68.388 18.308 68.408C18.774 68.48 19.166 68.6405 19.484 68.8895C19.802 69.1385 20.0415 69.452 20.2025 69.83C20.3635 70.208 20.444 70.626 20.444 71.084C20.444 71.542 20.363 71.96 20.201 72.338C20.039 72.716 19.799 73.0295 19.481 73.2785C19.163 73.5275 18.772 73.688 18.308 73.76C18.198 73.776 18.085 73.788 17.969 73.796C17.853 73.804 17.754 73.808 17.672 73.808H15.326V77H14.258ZM15.326 72.794H17.636C17.712 72.794 17.7985 72.79 17.8955 72.782C17.9925 72.774 18.086 72.76 18.176 72.74C18.452 72.678 18.6765 72.5615 18.8495 72.3905C19.0225 72.2195 19.1495 72.019 19.2305 71.789C19.3115 71.559 19.352 71.324 19.352 71.084C19.352 70.844 19.3115 70.609 19.2305 70.379C19.1495 70.149 19.0225 69.9485 18.8495 69.7775C18.6765 69.6065 18.452 69.49 18.176 69.428C18.086 69.406 17.9925 69.3915 17.8955 69.3845C17.7985 69.3775 17.712 69.374 17.636 69.374H15.326V72.794ZM21.644 77V70.52H22.598V72.086L22.442 71.882C22.518 71.682 22.617 71.498 22.739 71.33C22.861 71.162 22.998 71.024 23.15 70.916C23.316 70.782 23.5055 70.679 23.7185 70.607C23.9315 70.535 24.148 70.492 24.368 70.478C24.588 70.464 24.794 70.478 24.986 70.52V71.522C24.762 71.464 24.5155 71.449 24.2465 71.477C23.9775 71.505 23.73 71.602 23.504 71.768C23.294 71.918 23.1325 72.0985 23.0195 72.3095C22.9065 72.5205 22.828 72.749 22.784 72.995C22.74 73.241 22.718 73.492 22.718 73.748V77H21.644ZM28.814 77.18C28.176 77.18 27.62 77.0395 27.146 76.7585C26.672 76.4775 26.3035 76.0835 26.0405 75.5765C25.7775 75.0695 25.646 74.478 25.646 73.802C25.646 73.094 25.7755 72.481 26.0345 71.963C26.2935 71.445 26.6565 71.045 27.1235 70.763C27.5905 70.481 28.138 70.34 28.766 70.34C29.416 70.34 29.97 70.49 30.428 70.79C30.886 71.09 31.2305 71.518 31.4615 72.074C31.6925 72.63 31.791 73.292 31.757 74.06H30.68V73.676C30.668 72.88 30.506 72.285 30.194 71.891C29.882 71.497 29.418 71.3 28.802 71.3C28.14 71.3 27.6375 71.512 27.2945 71.936C26.9515 72.36 26.78 72.968 26.78 73.76C26.78 74.524 26.9515 75.116 27.2945 75.536C27.6375 75.956 28.128 76.166 28.766 76.166C29.194 76.166 29.566 76.068 29.882 75.872C30.198 75.676 30.446 75.394 30.626 75.026L31.652 75.38C31.398 75.952 31.0185 76.395 30.5135 76.709C30.0085 77.023 29.442 77.18 28.814 77.18ZM26.42 74.06V73.202H31.208V74.06H26.42ZM35.54 77.174C34.766 77.174 34.1325 77.005 33.6395 76.667C33.1465 76.329 32.844 75.856 32.732 75.248L33.824 75.074C33.912 75.426 34.114 75.705 34.43 75.911C34.746 76.117 35.138 76.22 35.606 76.22C36.048 76.22 36.3955 76.1285 36.6485 75.9455C36.9015 75.7625 37.028 75.512 37.028 75.194C37.028 75.012 36.986 74.864 36.902 74.75C36.818 74.636 36.645 74.529 36.383 74.429C36.121 74.329 35.726 74.208 35.198 74.066C34.626 73.914 34.1755 73.7565 33.8465 73.5935C33.5175 73.4305 33.2835 73.241 33.1445 73.025C33.0055 72.809 32.936 72.546 32.936 72.236C32.936 71.856 33.04 71.5235 33.248 71.2385C33.456 70.9535 33.7465 70.7325 34.1195 70.5755C34.4925 70.4185 34.928 70.34 35.426 70.34C35.918 70.34 36.3575 70.4185 36.7445 70.5755C37.1315 70.7325 37.444 70.9535 37.682 71.2385C37.92 71.5235 38.062 71.856 38.108 72.236L37.016 72.434C36.964 72.088 36.7965 71.8145 36.5135 71.6135C36.2305 71.4125 35.868 71.306 35.426 71.294C35.006 71.28 34.665 71.355 34.403 71.519C34.141 71.683 34.01 71.904 34.01 72.182C34.01 72.34 34.0585 72.4745 34.1555 72.5855C34.2525 72.6965 34.4345 72.802 34.7015 72.902C34.9685 73.002 35.356 73.116 35.864 73.244C36.434 73.39 36.884 73.5475 37.214 73.7165C37.544 73.8855 37.7795 74.0855 37.9205 74.3165C38.0615 74.5475 38.132 74.83 38.132 75.164C38.132 75.79 37.902 76.2815 37.442 76.6385C36.982 76.9955 36.348 77.174 35.54 77.174ZM42.266 77.18C41.628 77.18 41.072 77.0395 40.598 76.7585C40.124 76.4775 39.7555 76.0835 39.4925 75.5765C39.2295 75.0695 39.098 74.478 39.098 73.802C39.098 73.094 39.2275 72.481 39.4865 71.963C39.7455 71.445 40.1085 71.045 40.5755 70.763C41.0425 70.481 41.59 70.34 42.218 70.34C42.868 70.34 43.422 70.49 43.88 70.79C44.338 71.09 44.6825 71.518 44.9135 72.074C45.1445 72.63 45.243 73.292 45.209 74.06H44.132V73.676C44.12 72.88 43.958 72.285 43.646 71.891C43.334 71.497 42.87 71.3 42.254 71.3C41.592 71.3 41.0895 71.512 40.7465 71.936C40.4035 72.36 40.232 72.968 40.232 73.76C40.232 74.524 40.4035 75.116 40.7465 75.536C41.0895 75.956 41.58 76.166 42.218 76.166C42.646 76.166 43.018 76.068 43.334 75.872C43.65 75.676 43.898 75.394 44.078 75.026L45.104 75.38C44.85 75.952 44.4705 76.395 43.9655 76.709C43.4605 77.023 42.894 77.18 42.266 77.18ZM39.872 74.06V73.202H44.66V74.06H39.872ZM50.978 77V73.754C50.978 73.448 50.9505 73.153 50.8955 72.869C50.8405 72.585 50.746 72.3295 50.612 72.1025C50.478 71.8755 50.298 71.696 50.072 71.564C49.846 71.432 49.562 71.366 49.22 71.366C48.952 71.366 48.7085 71.4115 48.4895 71.5025C48.2705 71.5935 48.083 71.7305 47.927 71.9135C47.771 72.0965 47.6505 72.327 47.5655 72.605C47.4805 72.883 47.438 73.21 47.438 73.586L46.736 73.37C46.736 72.744 46.849 72.2055 47.075 71.7545C47.301 71.3035 47.619 70.957 48.029 70.715C48.439 70.473 48.922 70.352 49.478 70.352C49.896 70.352 50.2535 70.418 50.5505 70.55C50.8475 70.682 51.094 70.8575 51.29 71.0765C51.486 71.2955 51.64 71.5395 51.752 71.8085C51.864 72.0775 51.943 72.3515 51.989 72.6305C52.035 72.9095 52.058 73.172 52.058 73.418V77H50.978ZM46.358 77V70.52H47.318V72.254H47.438V77H46.358ZM57.236 77C56.85 77.078 56.4705 77.11 56.0975 77.096C55.7245 77.082 55.3915 77.006 55.0985 76.868C54.8055 76.73 54.584 76.514 54.434 76.22C54.306 75.966 54.237 75.708 54.227 75.446C54.217 75.184 54.212 74.886 54.212 74.552V68.72H55.28V74.504C55.28 74.77 55.283 74.9965 55.289 75.1835C55.295 75.3705 55.336 75.532 55.412 75.668C55.556 75.926 55.785 76.0765 56.099 76.1195C56.413 76.1625 56.792 76.15 57.236 76.082V77ZM52.898 71.402V70.52H57.236V71.402H52.898ZM61.004 77.174C60.23 77.174 59.5965 77.005 59.1035 76.667C58.6105 76.329 58.308 75.856 58.196 75.248L59.288 75.074C59.376 75.426 59.578 75.705 59.894 75.911C60.21 76.117 60.602 76.22 61.07 76.22C61.512 76.22 61.8595 76.1285 62.1125 75.9455C62.3655 75.7625 62.492 75.512 62.492 75.194C62.492 75.012 62.45 74.864 62.366 74.75C62.282 74.636 62.109 74.529 61.847 74.429C61.585 74.329 61.19 74.208 60.662 74.066C60.09 73.914 59.6395 73.7565 59.3105 73.5935C58.9815 73.4305 58.7475 73.241 58.6085 73.025C58.4695 72.809 58.4 72.546 58.4 72.236C58.4 71.856 58.504 71.5235 58.712 71.2385C58.92 70.9535 59.2105 70.7325 59.5835 70.5755C59.9565 70.4185 60.392 70.34 60.89 70.34C61.382 70.34 61.8215 70.4185 62.2085 70.5755C62.5955 70.7325 62.908 70.9535 63.146 71.2385C63.384 71.5235 63.526 71.856 63.572 72.236L62.48 72.434C62.428 72.088 62.2605 71.8145 61.9775 71.6135C61.6945 71.4125 61.332 71.306 60.89 71.294C60.47 71.28 60.129 71.355 59.867 71.519C59.605 71.683 59.474 71.904 59.474 72.182C59.474 72.34 59.5225 72.4745 59.6195 72.5855C59.7165 72.6965 59.8985 72.802 60.1655 72.902C60.4325 73.002 60.82 73.116 61.328 73.244C61.898 73.39 62.348 73.5475 62.678 73.7165C63.008 73.8855 63.2435 74.0855 63.3845 74.3165C63.5255 74.5475 63.596 74.83 63.596 75.164C63.596 75.79 63.366 76.2815 62.906 76.6385C62.446 76.9955 61.812 77.174 61.004 77.174Z" fill="#475569"/>
</svg>
