<svg width="78" height="80" viewBox="0 0 78 80" fill="none" xmlns="http://www.w3.org/2000/svg">
<rect x="10.75" width="56" height="56" rx="16" fill="#F97316" fill-opacity="0.1"/>
<path d="M28.2502 37.3332C27.9196 37.3332 27.6425 37.2214 27.4189 36.9978C27.1953 36.7741 27.0835 36.4971 27.0835 36.1665C27.0835 35.9721 27.1224 35.7922 27.2002 35.6269C27.2779 35.4616 27.3946 35.3304 27.5502 35.2332L37.5835 27.7082V25.6665C37.5835 25.3359 37.7002 25.0589 37.9335 24.8353C38.1668 24.6116 38.4488 24.4998 38.7793 24.4998C39.2654 24.4998 39.6738 24.3248 40.0043 23.9748C40.3349 23.6248 40.5002 23.2068 40.5002 22.7207C40.5002 22.2346 40.33 21.8262 39.9897 21.4957C39.6495 21.1651 39.2363 20.9998 38.7502 20.9998C38.2641 20.9998 37.8509 21.17 37.5106 21.5103C37.1703 21.8505 37.0002 22.2637 37.0002 22.7498H34.6668C34.6668 21.6221 35.0654 20.6596 35.8627 19.8623C36.6599 19.0651 37.6224 18.6665 38.7502 18.6665C39.8779 18.6665 40.8404 19.0603 41.6377 19.8478C42.4349 20.6353 42.8335 21.5929 42.8335 22.7207C42.8335 23.6346 42.5661 24.4512 42.0314 25.1707C41.4967 25.8901 40.7918 26.3859 39.9168 26.6582V27.7082L49.9502 35.2332C50.1057 35.3304 50.2224 35.4616 50.3002 35.6269C50.3779 35.7922 50.4168 35.9721 50.4168 36.1665C50.4168 36.4971 50.305 36.7741 50.0814 36.9978C49.8578 37.2214 49.5807 37.3332 49.2502 37.3332H28.2502ZM31.7502 34.9998H45.7502L38.7502 29.7498L31.7502 34.9998Z" fill="#F97316"/>
<path d="M20.8852 77.18C20.0232 77.18 19.2922 76.99 18.6922 76.61C18.0922 76.23 17.6357 75.702 17.3227 75.026C17.0097 74.35 16.8532 73.568 16.8532 72.68C16.8532 71.792 17.0097 71.01 17.3227 70.334C17.6357 69.658 18.0922 69.13 18.6922 68.75C19.2922 68.37 20.0232 68.18 20.8852 68.18C21.8852 68.18 22.7077 68.4345 23.3527 68.9435C23.9977 69.4525 24.4432 70.136 24.6892 70.994L23.6032 71.282C23.4272 70.638 23.1127 70.13 22.6597 69.758C22.2067 69.386 21.6152 69.2 20.8852 69.2C20.2412 69.2 19.7052 69.346 19.2772 69.638C18.8492 69.93 18.5272 70.3375 18.3112 70.8605C18.0952 71.3835 17.9852 71.99 17.9812 72.68C17.9772 73.37 18.0832 73.976 18.2992 74.498C18.5152 75.02 18.8392 75.4275 19.2712 75.7205C19.7032 76.0135 20.2412 76.16 20.8852 76.16C21.6152 76.16 22.2067 75.973 22.6597 75.599C23.1127 75.225 23.4272 74.718 23.6032 74.078L24.6892 74.366C24.4432 75.224 23.9977 75.9075 23.3527 76.4165C22.7077 76.9255 21.8852 77.18 20.8852 77.18ZM26.1292 77V68.18H27.1972V77H26.1292ZM31.7572 77.18C31.1112 77.18 30.5552 77.034 30.0892 76.742C29.6232 76.45 29.2647 76.0465 29.0137 75.5315C28.7627 75.0165 28.6372 74.424 28.6372 73.754C28.6372 73.076 28.7652 72.4805 29.0212 71.9675C29.2772 71.4545 29.6387 71.055 30.1057 70.769C30.5727 70.483 31.1232 70.34 31.7572 70.34C32.4052 70.34 32.9627 70.4855 33.4297 70.7765C33.8967 71.0675 34.2557 71.4695 34.5067 71.9825C34.7577 72.4955 34.8832 73.086 34.8832 73.754C34.8832 74.432 34.7567 75.028 34.5037 75.542C34.2507 76.056 33.8902 76.4575 33.4222 76.7465C32.9542 77.0355 32.3992 77.18 31.7572 77.18ZM31.7572 76.166C32.4272 76.166 32.9267 75.942 33.2557 75.494C33.5847 75.046 33.7492 74.466 33.7492 73.754C33.7492 73.024 33.5832 72.4415 33.2512 72.0065C32.9192 71.5715 32.4212 71.354 31.7572 71.354C31.3052 71.354 30.9327 71.456 30.6397 71.66C30.3467 71.864 30.1287 72.146 29.9857 72.506C29.8427 72.866 29.7712 73.282 29.7712 73.754C29.7712 74.484 29.9392 75.0685 30.2752 75.5075C30.6112 75.9465 31.1052 76.166 31.7572 76.166ZM39.8212 77C39.4352 77.078 39.0557 77.11 38.6827 77.096C38.3097 77.082 37.9767 77.006 37.6837 76.868C37.3907 76.73 37.1692 76.514 37.0192 76.22C36.8912 75.966 36.8222 75.708 36.8122 75.446C36.8022 75.184 36.7972 74.886 36.7972 74.552V68.72H37.8652V74.504C37.8652 74.77 37.8682 74.9965 37.8742 75.1835C37.8802 75.3705 37.9212 75.532 37.9972 75.668C38.1412 75.926 38.3702 76.0765 38.6842 76.1195C38.9982 76.1625 39.3772 76.15 39.8212 76.082V77ZM35.4832 71.402V70.52H39.8212V71.402H35.4832ZM45.7552 77V73.754C45.7552 73.448 45.7277 73.153 45.6727 72.869C45.6177 72.585 45.5232 72.3295 45.3892 72.1025C45.2552 71.8755 45.0752 71.696 44.8492 71.564C44.6232 71.432 44.3392 71.366 43.9972 71.366C43.7292 71.366 43.4857 71.4115 43.2667 71.5025C43.0477 71.5935 42.8602 71.7305 42.7042 71.9135C42.5482 72.0965 42.4277 72.327 42.3427 72.605C42.2577 72.883 42.2152 73.21 42.2152 73.586L41.5132 73.37C41.5132 72.744 41.6262 72.2055 41.8522 71.7545C42.0782 71.3035 42.3962 70.957 42.8062 70.715C43.2162 70.473 43.6992 70.352 44.2552 70.352C44.6732 70.352 45.0307 70.418 45.3277 70.55C45.6247 70.682 45.8712 70.8575 46.0672 71.0765C46.2632 71.2955 46.4172 71.5395 46.5292 71.8085C46.6412 72.0775 46.7202 72.3515 46.7662 72.6305C46.8122 72.9095 46.8352 73.172 46.8352 73.418V77H45.7552ZM41.1352 77V68.36H42.0952V73.13H42.2152V77H41.1352ZM51.2032 77.18C50.5652 77.18 50.0092 77.0395 49.5352 76.7585C49.0612 76.4775 48.6927 76.0835 48.4297 75.5765C48.1667 75.0695 48.0352 74.478 48.0352 73.802C48.0352 73.094 48.1647 72.481 48.4237 71.963C48.6827 71.445 49.0457 71.045 49.5127 70.763C49.9797 70.481 50.5272 70.34 51.1552 70.34C51.8052 70.34 52.3592 70.49 52.8172 70.79C53.2752 71.09 53.6197 71.518 53.8507 72.074C54.0817 72.63 54.1802 73.292 54.1462 74.06H53.0692V73.676C53.0572 72.88 52.8952 72.285 52.5832 71.891C52.2712 71.497 51.8072 71.3 51.1912 71.3C50.5292 71.3 50.0267 71.512 49.6837 71.936C49.3407 72.36 49.1692 72.968 49.1692 73.76C49.1692 74.524 49.3407 75.116 49.6837 75.536C50.0267 75.956 50.5172 76.166 51.1552 76.166C51.5832 76.166 51.9552 76.068 52.2712 75.872C52.5872 75.676 52.8352 75.394 53.0152 75.026L54.0412 75.38C53.7872 75.952 53.4077 76.395 52.9027 76.709C52.3977 77.023 51.8312 77.18 51.2032 77.18ZM48.8092 74.06V73.202H53.5972V74.06H48.8092ZM57.9292 77.174C57.1552 77.174 56.5217 77.005 56.0287 76.667C55.5357 76.329 55.2332 75.856 55.1212 75.248L56.2132 75.074C56.3012 75.426 56.5032 75.705 56.8192 75.911C57.1352 76.117 57.5272 76.22 57.9952 76.22C58.4372 76.22 58.7847 76.1285 59.0377 75.9455C59.2907 75.7625 59.4172 75.512 59.4172 75.194C59.4172 75.012 59.3752 74.864 59.2912 74.75C59.2072 74.636 59.0342 74.529 58.7722 74.429C58.5102 74.329 58.1152 74.208 57.5872 74.066C57.0152 73.914 56.5647 73.7565 56.2357 73.5935C55.9067 73.4305 55.6727 73.241 55.5337 73.025C55.3947 72.809 55.3252 72.546 55.3252 72.236C55.3252 71.856 55.4292 71.5235 55.6372 71.2385C55.8452 70.9535 56.1357 70.7325 56.5087 70.5755C56.8817 70.4185 57.3172 70.34 57.8152 70.34C58.3072 70.34 58.7467 70.4185 59.1337 70.5755C59.5207 70.7325 59.8332 70.9535 60.0712 71.2385C60.3092 71.5235 60.4512 71.856 60.4972 72.236L59.4052 72.434C59.3532 72.088 59.1857 71.8145 58.9027 71.6135C58.6197 71.4125 58.2572 71.306 57.8152 71.294C57.3952 71.28 57.0542 71.355 56.7922 71.519C56.5302 71.683 56.3992 71.904 56.3992 72.182C56.3992 72.34 56.4477 72.4745 56.5447 72.5855C56.6417 72.6965 56.8237 72.802 57.0907 72.902C57.3577 73.002 57.7452 73.116 58.2532 73.244C58.8232 73.39 59.2732 73.5475 59.6032 73.7165C59.9332 73.8855 60.1687 74.0855 60.3097 74.3165C60.4507 74.5475 60.5212 74.83 60.5212 75.164C60.5212 75.79 60.2912 76.2815 59.8312 76.6385C59.3712 76.9955 58.7372 77.174 57.9292 77.174Z" fill="#475569"/>
</svg>
