<svg width="78" height="80" viewBox="0 0 78 80" fill="none" xmlns="http://www.w3.org/2000/svg">
<rect x="10.75" width="56" height="56" rx="16" fill="#06B6D4" fill-opacity="0.1"/>
<path d="M38.7498 38.5L30.5832 34.0667V27.0667L25.9165 24.5L38.7498 17.5L51.5832 24.5V33.8333H49.2498V25.7833L46.9165 27.0667V34.0667L38.7498 38.5ZM38.7498 28.8167L46.7415 24.5L38.7498 20.1833L30.7582 24.5L38.7498 28.8167ZM38.7498 35.8458L44.5832 32.6958V28.2917L38.7498 31.5L32.9165 28.2917V32.6958L38.7498 35.8458Z" fill="#06B6D4"/>
<path d="M22.7271 77.18C21.8651 77.18 21.1341 76.99 20.5341 76.61C19.9341 76.23 19.4776 75.702 19.1646 75.026C18.8516 74.35 18.6951 73.568 18.6951 72.68C18.6951 71.792 18.8516 71.01 19.1646 70.334C19.4776 69.658 19.9341 69.13 20.5341 68.75C21.1341 68.37 21.8651 68.18 22.7271 68.18C23.7271 68.18 24.5496 68.4345 25.1946 68.9435C25.8396 69.4525 26.2851 70.136 26.5311 70.994L25.4451 71.282C25.2691 70.638 24.9546 70.13 24.5016 69.758C24.0486 69.386 23.4571 69.2 22.7271 69.2C22.0831 69.2 21.5471 69.346 21.1191 69.638C20.6911 69.93 20.3691 70.3375 20.1531 70.8605C19.9371 71.3835 19.8271 71.99 19.8231 72.68C19.8191 73.37 19.9251 73.976 20.1411 74.498C20.3571 75.02 20.6811 75.4275 21.1131 75.7205C21.5451 76.0135 22.0831 76.16 22.7271 76.16C23.4571 76.16 24.0486 75.973 24.5016 75.599C24.9546 75.225 25.2691 74.718 25.4451 74.078L26.5311 74.366C26.2851 75.224 25.8396 75.9075 25.1946 76.4165C24.5496 76.9255 23.7271 77.18 22.7271 77.18ZM30.6111 77.18C29.9651 77.18 29.4091 77.034 28.9431 76.742C28.4771 76.45 28.1186 76.0465 27.8676 75.5315C27.6166 75.0165 27.4911 74.424 27.4911 73.754C27.4911 73.076 27.6191 72.4805 27.8751 71.9675C28.1311 71.4545 28.4926 71.055 28.9596 70.769C29.4266 70.483 29.9771 70.34 30.6111 70.34C31.2591 70.34 31.8166 70.4855 32.2836 70.7765C32.7506 71.0675 33.1096 71.4695 33.3606 71.9825C33.6116 72.4955 33.7371 73.086 33.7371 73.754C33.7371 74.432 33.6106 75.028 33.3576 75.542C33.1046 76.056 32.7441 76.4575 32.2761 76.7465C31.8081 77.0355 31.2531 77.18 30.6111 77.18ZM30.6111 76.166C31.2811 76.166 31.7806 75.942 32.1096 75.494C32.4386 75.046 32.6031 74.466 32.6031 73.754C32.6031 73.024 32.4371 72.4415 32.1051 72.0065C31.7731 71.5715 31.2751 71.354 30.6111 71.354C30.1591 71.354 29.7866 71.456 29.4936 71.66C29.2006 71.864 28.9826 72.146 28.8396 72.506C28.6966 72.866 28.6251 73.282 28.6251 73.754C28.6251 74.484 28.7931 75.0685 29.1291 75.5075C29.4651 75.9465 29.9591 76.166 30.6111 76.166ZM37.5171 77.168C37.0991 77.168 36.7416 77.102 36.4446 76.97C36.1476 76.838 35.9011 76.6625 35.7051 76.4435C35.5091 76.2245 35.3551 75.9805 35.2431 75.7115C35.1311 75.4425 35.0521 75.1685 35.0061 74.8895C34.9601 74.6105 34.9371 74.348 34.9371 74.102V70.52H36.0171V73.766C36.0171 74.07 36.0446 74.3645 36.0996 74.6495C36.1546 74.9345 36.2491 75.1905 36.3831 75.4175C36.5171 75.6445 36.6971 75.824 36.9231 75.956C37.1491 76.088 37.4331 76.154 37.7751 76.154C38.0431 76.154 38.2866 76.1085 38.5056 76.0175C38.7246 75.9265 38.9121 75.7895 39.0681 75.6065C39.2241 75.4235 39.3446 75.1925 39.4296 74.9135C39.5146 74.6345 39.5571 74.308 39.5571 73.934L40.2591 74.15C40.2591 74.776 40.1461 75.3145 39.9201 75.7655C39.6941 76.2165 39.3761 76.563 38.9661 76.805C38.5561 77.047 38.0731 77.168 37.5171 77.168ZM39.6771 77V75.266H39.5571V70.52H40.6311V77H39.6771ZM42.3111 77V70.52H43.2651V72.086L43.1091 71.882C43.1851 71.682 43.2841 71.498 43.4061 71.33C43.5281 71.162 43.6651 71.024 43.8171 70.916C43.9831 70.782 44.1726 70.679 44.3856 70.607C44.5986 70.535 44.8151 70.492 45.0351 70.478C45.2551 70.464 45.4611 70.478 45.6531 70.52V71.522C45.4291 71.464 45.1826 71.449 44.9136 71.477C44.6446 71.505 44.3971 71.602 44.1711 71.768C43.9611 71.918 43.7996 72.0985 43.6866 72.3095C43.5736 72.5205 43.4951 72.749 43.4511 72.995C43.4071 73.241 43.3851 73.492 43.3851 73.748V77H42.3111ZM49.0011 77.174C48.2271 77.174 47.5936 77.005 47.1006 76.667C46.6076 76.329 46.3051 75.856 46.1931 75.248L47.2851 75.074C47.3731 75.426 47.5751 75.705 47.8911 75.911C48.2071 76.117 48.5991 76.22 49.0671 76.22C49.5091 76.22 49.8566 76.1285 50.1096 75.9455C50.3626 75.7625 50.4891 75.512 50.4891 75.194C50.4891 75.012 50.4471 74.864 50.3631 74.75C50.2791 74.636 50.1061 74.529 49.8441 74.429C49.5821 74.329 49.1871 74.208 48.6591 74.066C48.0871 73.914 47.6366 73.7565 47.3076 73.5935C46.9786 73.4305 46.7446 73.241 46.6056 73.025C46.4666 72.809 46.3971 72.546 46.3971 72.236C46.3971 71.856 46.5011 71.5235 46.7091 71.2385C46.9171 70.9535 47.2076 70.7325 47.5806 70.5755C47.9536 70.4185 48.3891 70.34 48.8871 70.34C49.3791 70.34 49.8186 70.4185 50.2056 70.5755C50.5926 70.7325 50.9051 70.9535 51.1431 71.2385C51.3811 71.5235 51.5231 71.856 51.5691 72.236L50.4771 72.434C50.4251 72.088 50.2576 71.8145 49.9746 71.6135C49.6916 71.4125 49.3291 71.306 48.8871 71.294C48.4671 71.28 48.1261 71.355 47.8641 71.519C47.6021 71.683 47.4711 71.904 47.4711 72.182C47.4711 72.34 47.5196 72.4745 47.6166 72.5855C47.7136 72.6965 47.8956 72.802 48.1626 72.902C48.4296 73.002 48.8171 73.116 49.3251 73.244C49.8951 73.39 50.3451 73.5475 50.6751 73.7165C51.0051 73.8855 51.2406 74.0855 51.3816 74.3165C51.5226 74.5475 51.5931 74.83 51.5931 75.164C51.5931 75.79 51.3631 76.2815 50.9031 76.6385C50.4431 76.9955 49.8091 77.174 49.0011 77.174ZM55.7271 77.18C55.0891 77.18 54.5331 77.0395 54.0591 76.7585C53.5851 76.4775 53.2166 76.0835 52.9536 75.5765C52.6906 75.0695 52.5591 74.478 52.5591 73.802C52.5591 73.094 52.6886 72.481 52.9476 71.963C53.2066 71.445 53.5696 71.045 54.0366 70.763C54.5036 70.481 55.0511 70.34 55.6791 70.34C56.3291 70.34 56.8831 70.49 57.3411 70.79C57.7991 71.09 58.1436 71.518 58.3746 72.074C58.6056 72.63 58.7041 73.292 58.6701 74.06H57.5931V73.676C57.5811 72.88 57.4191 72.285 57.1071 71.891C56.7951 71.497 56.3311 71.3 55.7151 71.3C55.0531 71.3 54.5506 71.512 54.2076 71.936C53.8646 72.36 53.6931 72.968 53.6931 73.76C53.6931 74.524 53.8646 75.116 54.2076 75.536C54.5506 75.956 55.0411 76.166 55.6791 76.166C56.1071 76.166 56.4791 76.068 56.7951 75.872C57.1111 75.676 57.3591 75.394 57.5391 75.026L58.5651 75.38C58.3111 75.952 57.9316 76.395 57.4266 76.709C56.9216 77.023 56.3551 77.18 55.7271 77.18ZM53.3331 74.06V73.202H58.1211V74.06H53.3331Z" fill="#475569"/>
</svg>
