<svg width="78" height="80" viewBox="0 0 78 80" fill="none" xmlns="http://www.w3.org/2000/svg">
<rect x="10.75" width="56" height="56" rx="16" fill="#F43F5E" fill-opacity="0.1"/>
<path d="M34.8125 38.5C32.9847 38.5 31.434 37.8632 30.1604 36.5896C28.8868 35.316 28.25 33.7653 28.25 31.9375C28.25 31.0625 28.4153 30.2264 28.7458 29.4292C29.0764 28.6319 29.5528 27.9222 30.175 27.3L38.05 19.425C38.6722 18.8028 39.3819 18.3264 40.1792 17.9958C40.9764 17.6653 41.8125 17.5 42.6875 17.5C44.5153 17.5 46.066 18.1368 47.3396 19.4104C48.6132 20.684 49.25 22.2347 49.25 24.0625C49.25 24.9375 49.0847 25.7736 48.7542 26.5708C48.4236 27.3681 47.9472 28.0778 47.325 28.7L39.45 36.575C38.8278 37.1972 38.1181 37.6736 37.3208 38.0042C36.5236 38.3347 35.6875 38.5 34.8125 38.5V38.5M42.5708 30.1583L45.6917 27.0667C46.0806 26.6778 46.3819 26.2208 46.5958 25.6958C46.8097 25.1708 46.9167 24.6264 46.9167 24.0625C46.9167 22.8958 46.5035 21.8993 45.6771 21.0729C44.8507 20.2465 43.8542 19.8333 42.6875 19.8333C42.1236 19.8333 41.5792 19.9403 41.0542 20.1542C40.5292 20.3681 40.0722 20.6694 39.6833 21.0583L36.5917 24.1792L42.5708 30.1583V30.1583M34.8125 36.1667C35.3764 36.1667 35.9208 36.0597 36.4458 35.8458C36.9708 35.6319 37.4278 35.3306 37.8167 34.9417L40.9083 31.8208L34.9292 25.8417L31.8083 28.9333C31.4194 29.3222 31.1181 29.7792 30.9042 30.3042C30.6903 30.8292 30.5833 31.3736 30.5833 31.9375C30.5833 33.1042 30.9965 34.1007 31.8229 34.9271C32.6493 35.7535 33.6458 36.1667 34.8125 36.1667V36.1667" fill="#F43F5E"/>
<path d="M13.967 77V68.36H14.939L18.203 75.242L21.449 68.36H22.433V76.994H21.419V70.706L18.485 77H17.915L14.981 70.706V77H13.967ZM26.921 77.18C26.283 77.18 25.727 77.0395 25.253 76.7585C24.779 76.4775 24.4105 76.0835 24.1475 75.5765C23.8845 75.0695 23.753 74.478 23.753 73.802C23.753 73.094 23.8825 72.481 24.1415 71.963C24.4005 71.445 24.7635 71.045 25.2305 70.763C25.6975 70.481 26.245 70.34 26.873 70.34C27.523 70.34 28.077 70.49 28.535 70.79C28.993 71.09 29.3375 71.518 29.5685 72.074C29.7995 72.63 29.898 73.292 29.864 74.06H28.787V73.676C28.775 72.88 28.613 72.285 28.301 71.891C27.989 71.497 27.525 71.3 26.909 71.3C26.247 71.3 25.7445 71.512 25.4015 71.936C25.0585 72.36 24.887 72.968 24.887 73.76C24.887 74.524 25.0585 75.116 25.4015 75.536C25.7445 75.956 26.235 76.166 26.873 76.166C27.301 76.166 27.673 76.068 27.989 75.872C28.305 75.676 28.553 75.394 28.733 75.026L29.759 75.38C29.505 75.952 29.1255 76.395 28.6205 76.709C28.1155 77.023 27.549 77.18 26.921 77.18ZM24.527 74.06V73.202H29.315V74.06H24.527ZM33.743 77.18C33.139 77.18 32.6205 77.0295 32.1875 76.7285C31.7545 76.4275 31.4215 76.0185 31.1885 75.5015C30.9555 74.9845 30.839 74.402 30.839 73.754C30.839 73.106 30.9555 72.5245 31.1885 72.0095C31.4215 71.4945 31.7545 71.0875 32.1875 70.7885C32.6205 70.4895 33.137 70.34 33.737 70.34C34.347 70.34 34.8605 70.4885 35.2775 70.7855C35.6945 71.0825 36.01 71.4885 36.224 72.0035C36.438 72.5185 36.545 73.102 36.545 73.754C36.545 74.4 36.438 74.9815 36.224 75.4985C36.01 76.0155 35.695 76.425 35.279 76.727C34.863 77.029 34.351 77.18 33.743 77.18ZM33.875 76.202C34.311 76.202 34.669 76.097 34.949 75.887C35.229 75.677 35.436 75.3875 35.57 75.0185C35.704 74.6495 35.771 74.228 35.771 73.754C35.771 73.276 35.7035 72.8535 35.5685 72.4865C35.4335 72.1195 35.228 71.833 34.952 71.627C34.676 71.421 34.327 71.318 33.905 71.318C33.465 71.318 33.102 71.426 32.816 71.642C32.53 71.858 32.318 72.15 32.18 72.518C32.042 72.886 31.973 73.298 31.973 73.754C31.973 74.214 32.043 74.629 32.183 74.999C32.323 75.369 32.5335 75.662 32.8145 75.878C33.0955 76.094 33.449 76.202 33.875 76.202ZM35.771 77V72.23H35.651V68.36H36.725V77H35.771ZM38.525 69.374V68.27H39.593V69.374H38.525ZM38.525 77V70.52H39.593V77H38.525ZM44.123 77.18C43.465 77.18 42.907 77.033 42.449 76.739C41.991 76.445 41.642 76.0405 41.402 75.5255C41.162 75.0105 41.039 74.422 41.033 73.76C41.039 73.086 41.165 72.492 41.411 71.978C41.657 71.464 42.01 71.0625 42.47 70.7735C42.93 70.4845 43.485 70.34 44.135 70.34C44.817 70.34 45.405 70.508 45.899 70.844C46.393 71.18 46.725 71.64 46.895 72.224L45.839 72.542C45.701 72.166 45.479 71.874 45.173 71.666C44.867 71.458 44.517 71.354 44.123 71.354C43.679 71.354 43.313 71.457 43.025 71.663C42.737 71.869 42.523 72.153 42.383 72.515C42.243 72.877 42.171 73.292 42.167 73.76C42.173 74.482 42.3395 75.0635 42.6665 75.5045C42.9935 75.9455 43.479 76.166 44.123 76.166C44.545 76.166 44.896 76.069 45.176 75.875C45.456 75.681 45.669 75.4 45.815 75.032L46.895 75.314C46.669 75.918 46.318 76.38 45.842 76.7C45.366 77.02 44.793 77.18 44.123 77.18ZM48.065 69.374V68.27H49.133V69.374H48.065ZM48.065 77V70.52H49.133V77H48.065ZM55.547 77V73.754C55.547 73.448 55.5195 73.153 55.4645 72.869C55.4095 72.585 55.315 72.3295 55.181 72.1025C55.047 71.8755 54.867 71.696 54.641 71.564C54.415 71.432 54.131 71.366 53.789 71.366C53.521 71.366 53.2775 71.4115 53.0585 71.5025C52.8395 71.5935 52.652 71.7305 52.496 71.9135C52.34 72.0965 52.2195 72.327 52.1345 72.605C52.0495 72.883 52.007 73.21 52.007 73.586L51.305 73.37C51.305 72.744 51.418 72.2055 51.644 71.7545C51.87 71.3035 52.188 70.957 52.598 70.715C53.008 70.473 53.491 70.352 54.047 70.352C54.465 70.352 54.8225 70.418 55.1195 70.55C55.4165 70.682 55.663 70.8575 55.859 71.0765C56.055 71.2955 56.209 71.5395 56.321 71.8085C56.433 72.0775 56.512 72.3515 56.558 72.6305C56.604 72.9095 56.627 73.172 56.627 73.418V77H55.547ZM50.927 77V70.52H51.887V72.254H52.007V77H50.927ZM60.935 77.18C60.297 77.18 59.741 77.0395 59.267 76.7585C58.793 76.4775 58.4245 76.0835 58.1615 75.5765C57.8985 75.0695 57.767 74.478 57.767 73.802C57.767 73.094 57.8965 72.481 58.1555 71.963C58.4145 71.445 58.7775 71.045 59.2445 70.763C59.7115 70.481 60.259 70.34 60.887 70.34C61.537 70.34 62.091 70.49 62.549 70.79C63.007 71.09 63.3515 71.518 63.5825 72.074C63.8135 72.63 63.912 73.292 63.878 74.06H62.801V73.676C62.789 72.88 62.627 72.285 62.315 71.891C62.003 71.497 61.539 71.3 60.923 71.3C60.261 71.3 59.7585 71.512 59.4155 71.936C59.0725 72.36 58.901 72.968 58.901 73.76C58.901 74.524 59.0725 75.116 59.4155 75.536C59.7585 75.956 60.249 76.166 60.887 76.166C61.315 76.166 61.687 76.068 62.003 75.872C62.319 75.676 62.567 75.394 62.747 75.026L63.773 75.38C63.519 75.952 63.1395 76.395 62.6345 76.709C62.1295 77.023 61.563 77.18 60.935 77.18ZM58.541 74.06V73.202H63.329V74.06H58.541Z" fill="#475569"/>
</svg>
