<svg width="78" height="80" viewBox="0 0 78 80" fill="none" xmlns="http://www.w3.org/2000/svg">
<rect x="10.75" width="56" height="56" rx="16" fill="#EC4899" fill-opacity="0.1"/>
<path d="M29.4168 35C28.7752 35 28.2259 34.7715 27.7689 34.3146C27.312 33.8576 27.0835 33.3083 27.0835 32.6667V23.3333C27.0835 22.6917 27.312 22.1424 27.7689 21.6854C28.2259 21.2285 28.7752 21 29.4168 21H48.0835C48.7252 21 49.2745 21.2285 49.7314 21.6854C50.1884 22.1424 50.4168 22.6917 50.4168 23.3333V32.6667C50.4168 33.3083 50.1884 33.8576 49.7314 34.3146C49.2745 34.7715 48.7252 35 48.0835 35H29.4168ZM29.4168 32.6667H48.0835V23.3333H29.4168V32.6667ZM32.9168 31.5H35.2502V29.1667H37.5835V26.8333H35.2502V24.5H32.9168V26.8333H30.5835V29.1667H32.9168V31.5ZM41.6668 31.5C42.1529 31.5 42.5661 31.3299 42.9064 30.9896C43.2467 30.6493 43.4168 30.2361 43.4168 29.75C43.4168 29.2639 43.2467 28.8507 42.9064 28.5104C42.5661 28.1701 42.1529 28 41.6668 28C41.1807 28 40.7675 28.1701 40.4272 28.5104C40.087 28.8507 39.9168 29.2639 39.9168 29.75C39.9168 30.2361 40.087 30.6493 40.4272 30.9896C40.7675 31.3299 41.1807 31.5 41.6668 31.5ZM45.1668 28C45.6529 28 46.0661 27.8299 46.4064 27.4896C46.7467 27.1493 46.9168 26.7361 46.9168 26.25C46.9168 25.7639 46.7467 25.3507 46.4064 25.0104C46.0661 24.6701 45.6529 24.5 45.1668 24.5C44.6807 24.5 44.2675 24.6701 43.9272 25.0104C43.587 25.3507 43.4168 25.7639 43.4168 26.25C43.4168 26.7361 43.587 27.1493 43.9272 27.4896C44.2675 27.8299 44.6807 28 45.1668 28ZM29.4168 32.6667V23.3333V32.6667Z" fill="#EC4899"/>
<g clip-path="url(#clip0_183_737)">
<path d="M21.5182 77.18C20.9242 77.18 20.3832 77.0765 19.8952 76.8695C19.4072 76.6625 18.9877 76.364 18.6367 75.974C18.2857 75.584 18.0152 75.1115 17.8252 74.5565C17.6352 74.0015 17.5402 73.376 17.5402 72.68C17.5402 71.762 17.7037 70.967 18.0307 70.295C18.3577 69.623 18.8192 69.1035 19.4152 68.7365C20.0112 68.3695 20.7122 68.186 21.5182 68.186C22.4862 68.186 23.2662 68.4115 23.8582 68.8625C24.4502 69.3135 24.8582 69.928 25.0822 70.706L24.0022 70.928C23.8202 70.406 23.5237 69.989 23.1127 69.677C22.7017 69.365 22.1882 69.208 21.5722 69.206C20.9282 69.202 20.3927 69.3455 19.9657 69.6365C19.5387 69.9275 19.2177 70.335 19.0027 70.859C18.7877 71.383 18.6782 71.99 18.6742 72.68C18.6702 73.37 18.7757 73.975 18.9907 74.495C19.2057 75.015 19.5287 75.4215 19.9597 75.7145C20.3907 76.0075 20.9282 76.156 21.5722 76.16C22.1282 76.164 22.5957 76.0585 22.9747 75.8435C23.3537 75.6285 23.6477 75.317 23.8567 74.909C24.0657 74.501 24.1922 74.01 24.2362 73.436H22.4002V72.554H25.3642C25.3742 72.636 25.3807 72.732 25.3837 72.842C25.3867 72.952 25.3882 73.026 25.3882 73.064C25.3882 73.854 25.2412 74.5595 24.9472 75.1805C24.6532 75.8015 24.2187 76.29 23.6437 76.646C23.0687 77.002 22.3602 77.18 21.5182 77.18ZM28.4302 77.18C27.9462 77.18 27.5407 77.0915 27.2137 76.9145C26.8867 76.7375 26.6407 76.5025 26.4757 76.2095C26.3107 75.9165 26.2282 75.596 26.2282 75.248C26.2282 74.908 26.2927 74.6135 26.4217 74.3645C26.5507 74.1155 26.7337 73.9075 26.9707 73.7405C27.2077 73.5735 27.4902 73.442 27.8182 73.346C28.1262 73.264 28.4707 73.1915 28.8517 73.1285C29.2327 73.0655 29.6192 73.0085 30.0112 72.9575C30.4032 72.9065 30.7702 72.856 31.1122 72.806L30.7282 73.028C30.7382 72.454 30.6227 72.0285 30.3817 71.7515C30.1407 71.4745 29.7242 71.336 29.1322 71.336C28.7402 71.336 28.3967 71.4255 28.1017 71.6045C27.8067 71.7835 27.6002 72.072 27.4822 72.47L26.4682 72.164C26.6222 71.596 26.9237 71.15 27.3727 70.826C27.8217 70.502 28.4122 70.34 29.1442 70.34C29.7302 70.34 30.2342 70.445 30.6562 70.655C31.0782 70.865 31.3822 71.182 31.5682 71.606C31.6602 71.806 31.7182 72.023 31.7422 72.257C31.7662 72.491 31.7782 72.736 31.7782 72.992V77H30.8302V75.446L31.0522 75.59C30.8082 76.116 30.4667 76.5125 30.0277 76.7795C29.5887 77.0465 29.0562 77.18 28.4302 77.18ZM28.5922 76.286C28.9762 76.286 29.3092 76.2175 29.5912 76.0805C29.8732 75.9435 30.1002 75.7615 30.2722 75.5345C30.4442 75.3075 30.5562 75.06 30.6082 74.792C30.6662 74.592 30.6987 74.3695 30.7057 74.1245C30.7127 73.8795 30.7162 73.69 30.7162 73.556L31.0882 73.718C30.7402 73.768 30.3977 73.815 30.0607 73.859C29.7237 73.903 29.4052 73.9495 29.1052 73.9985C28.8052 74.0475 28.5362 74.106 28.2982 74.174C28.1202 74.23 27.9547 74.3025 27.8017 74.3915C27.6487 74.4805 27.5252 74.594 27.4312 74.732C27.3372 74.87 27.2902 75.04 27.2902 75.242C27.2902 75.42 27.3347 75.5885 27.4237 75.7475C27.5127 75.9065 27.6527 76.036 27.8437 76.136C28.0347 76.236 28.2842 76.286 28.5922 76.286ZM41.0842 77L41.0902 72.854C41.0902 72.37 40.9607 71.991 40.7017 71.717C40.4427 71.443 40.1082 71.306 39.6982 71.306C39.4562 71.306 39.2277 71.3615 39.0127 71.4725C38.7977 71.5835 38.6222 71.7555 38.4862 71.9885C38.3502 72.2215 38.2822 72.52 38.2822 72.884L37.7182 72.656C37.7082 72.196 37.8022 71.793 38.0002 71.447C38.1982 71.101 38.4697 70.832 38.8147 70.64C39.1597 70.448 39.5482 70.352 39.9802 70.352C40.6562 70.352 41.1882 70.5575 41.5762 70.9685C41.9642 71.3795 42.1582 71.93 42.1582 72.62L42.1522 77H41.0842ZM33.3322 77V70.52H34.2862V72.254H34.4062V77H33.3322ZM37.2142 77L37.2202 72.896C37.2202 72.402 37.0922 72.0135 36.8362 71.7305C36.5802 71.4475 36.2402 71.306 35.8162 71.306C35.3942 71.306 35.0537 71.4505 34.7947 71.7395C34.5357 72.0285 34.4062 72.41 34.4062 72.884L33.8422 72.548C33.8422 72.128 33.9422 71.7525 34.1422 71.4215C34.3422 71.0905 34.6142 70.8295 34.9582 70.6385C35.3022 70.4475 35.6922 70.352 36.1282 70.352C36.5642 70.352 36.9437 70.4445 37.2667 70.6295C37.5897 70.8145 37.8397 71.078 38.0167 71.42C38.1937 71.762 38.2822 72.168 38.2822 72.638L38.2762 77H37.2142ZM43.8382 69.374V68.27H44.9062V69.374H43.8382ZM43.8382 77V70.52H44.9062V77H43.8382ZM51.3202 77V73.754C51.3202 73.448 51.2927 73.153 51.2377 72.869C51.1827 72.585 51.0882 72.3295 50.9542 72.1025C50.8202 71.8755 50.6402 71.696 50.4142 71.564C50.1882 71.432 49.9042 71.366 49.5622 71.366C49.2942 71.366 49.0507 71.4115 48.8317 71.5025C48.6127 71.5935 48.4252 71.7305 48.2692 71.9135C48.1132 72.0965 47.9927 72.327 47.9077 72.605C47.8227 72.883 47.7802 73.21 47.7802 73.586L47.0782 73.37C47.0782 72.744 47.1912 72.2055 47.4172 71.7545C47.6432 71.3035 47.9612 70.957 48.3712 70.715C48.7812 70.473 49.2642 70.352 49.8202 70.352C50.2382 70.352 50.5957 70.418 50.8927 70.55C51.1897 70.682 51.4362 70.8575 51.6322 71.0765C51.8282 71.2955 51.9822 71.5395 52.0942 71.8085C52.2062 72.0775 52.2852 72.3515 52.3312 72.6305C52.3772 72.9095 52.4002 73.172 52.4002 73.418V77H51.3202ZM46.7002 77V70.52H47.6602V72.254H47.7802V77H46.7002ZM56.5822 80.06C56.2422 80.06 55.9102 80.0085 55.5862 79.9055C55.2622 79.8025 54.9652 79.646 54.6952 79.436C54.4252 79.226 54.2002 78.96 54.0202 78.638L54.9982 78.122C55.1582 78.44 55.3847 78.6705 55.6777 78.8135C55.9707 78.9565 56.2742 79.028 56.5882 79.028C57.0002 79.028 57.3417 78.953 57.6127 78.803C57.8837 78.653 58.0847 78.43 58.2157 78.134C58.3467 77.838 58.4102 77.47 58.4062 77.03V75.26H58.5322V70.52H59.4802V77.042C59.4802 77.22 59.4747 77.3905 59.4637 77.5535C59.4527 77.7165 59.4322 77.878 59.4022 78.038C59.3182 78.498 59.1522 78.877 58.9042 79.175C58.6562 79.473 58.3362 79.695 57.9442 79.841C57.5522 79.987 57.0982 80.06 56.5822 80.06ZM56.5042 77.18C55.9002 77.18 55.3817 77.0295 54.9487 76.7285C54.5157 76.4275 54.1827 76.0185 53.9497 75.5015C53.7167 74.9845 53.6002 74.402 53.6002 73.754C53.6002 73.106 53.7167 72.5245 53.9497 72.0095C54.1827 71.4945 54.5157 71.0875 54.9487 70.7885C55.3817 70.4895 55.8982 70.34 56.4982 70.34C57.1082 70.34 57.6217 70.4885 58.0387 70.7855C58.4557 71.0825 58.7712 71.4885 58.9852 72.0035C59.1992 72.5185 59.3062 73.102 59.3062 73.754C59.3062 74.4 59.1992 74.9815 58.9852 75.4985C58.7712 76.0155 58.4562 76.425 58.0402 76.727C57.6242 77.029 57.1122 77.18 56.5042 77.18ZM56.6362 76.202C57.0722 76.202 57.4302 76.097 57.7102 75.887C57.9902 75.677 58.1972 75.3875 58.3312 75.0185C58.4652 74.6495 58.5322 74.228 58.5322 73.754C58.5322 73.276 58.4647 72.8535 58.3297 72.4865C58.1947 72.1195 57.9892 71.833 57.7132 71.627C57.4372 71.421 57.0882 71.318 56.6662 71.318C56.2262 71.318 55.8632 71.426 55.5772 71.642C55.2912 71.858 55.0792 72.15 54.9412 72.518C54.8032 72.886 54.7342 73.298 54.7342 73.754C54.7342 74.214 54.8042 74.629 54.9442 74.999C55.0842 75.369 55.2947 75.662 55.5757 75.878C55.8567 76.094 56.2102 76.202 56.6362 76.202Z" fill="#475569"/>
</g>
<defs>
<clipPath id="clip0_183_737">
<rect width="77.5" height="16" fill="white" transform="translate(0 64)"/>
</clipPath>
</defs>
</svg>
