<svg width="78" height="80" viewBox="0 0 78 80" fill="none" xmlns="http://www.w3.org/2000/svg">
<rect x="10.75" width="56" height="56" rx="16" fill="#F97316" fill-opacity="0.1"/>
<path d="M32.3332 38.4928C31.4582 38.4928 30.5929 38.2789 29.7373 37.8512C28.8818 37.4234 28.1915 36.8595 27.6665 36.1595C28.1721 36.1595 28.6873 35.9602 29.2123 35.5616C29.7373 35.163 29.9998 34.5845 29.9998 33.8262C29.9998 32.8539 30.3401 32.0276 31.0207 31.347C31.7012 30.6664 32.5276 30.3262 33.4998 30.3262C34.4721 30.3262 35.2984 30.6664 35.979 31.347C36.6596 32.0276 36.9998 32.8539 36.9998 33.8262C36.9998 35.1095 36.5429 36.2081 35.629 37.122C34.7151 38.0359 33.6165 38.4928 32.3332 38.4928ZM32.3332 36.1595C32.9748 36.1595 33.5241 35.931 33.9811 35.4741C34.438 35.0171 34.6665 34.4678 34.6665 33.8262C34.6665 33.4956 34.5547 33.2185 34.3311 32.9949C34.1075 32.7713 33.8304 32.6595 33.4998 32.6595C33.1693 32.6595 32.8922 32.7713 32.6686 32.9949C32.445 33.2185 32.3332 33.4956 32.3332 33.8262C32.3332 34.2734 32.2797 34.6817 32.1728 35.0512C32.0658 35.4206 31.9248 35.7706 31.7498 36.1012C31.8471 36.1401 31.9443 36.1595 32.0415 36.1595C32.1387 36.1595 32.2359 36.1595 32.3332 36.1595ZM39.0415 31.4928L35.8332 28.2845L46.2748 17.8428C46.4887 17.6289 46.7561 17.5171 47.0769 17.5074C47.3978 17.4977 47.6748 17.6095 47.9082 17.8428L49.4832 19.4178C49.7165 19.6512 49.8332 19.9234 49.8332 20.2345C49.8332 20.5456 49.7165 20.8178 49.4832 21.0512L39.0415 31.4928Z" fill="#F97316"/>
<path d="M19.7841 77V68.36H23.1501C23.6661 68.36 24.1071 68.466 24.4731 68.678C24.8391 68.89 25.1191 69.169 25.3131 69.515C25.5071 69.861 25.6041 70.234 25.6041 70.634C25.6041 71.104 25.4836 71.5145 25.2426 71.8655C25.0016 72.2165 24.6781 72.458 24.2721 72.59L24.2601 72.296C24.8161 72.444 25.2481 72.7165 25.5561 73.1135C25.8641 73.5105 26.0181 73.982 26.0181 74.528C26.0181 75.032 25.9146 75.4685 25.7076 75.8375C25.5006 76.2065 25.2046 76.4925 24.8196 76.6955C24.4346 76.8985 23.9781 77 23.4501 77H19.7841ZM20.8641 75.98H23.2461C23.5641 75.98 23.8496 75.9215 24.1026 75.8045C24.3556 75.6875 24.5551 75.5205 24.7011 75.3035C24.8471 75.0865 24.9201 74.826 24.9201 74.522C24.9201 74.232 24.8546 73.9705 24.7236 73.7375C24.5926 73.5045 24.4101 73.319 24.1761 73.181C23.9421 73.043 23.6721 72.974 23.3661 72.974H20.8641V75.98ZM20.8641 71.966H23.1381C23.3921 71.966 23.6226 71.911 23.8296 71.801C24.0366 71.691 24.2011 71.5365 24.3231 71.3375C24.4451 71.1385 24.5061 70.904 24.5061 70.634C24.5061 70.262 24.3796 69.958 24.1266 69.722C23.8736 69.486 23.5441 69.368 23.1381 69.368H20.8641V71.966ZM30.0201 77.18C29.3821 77.18 28.8261 77.0395 28.3521 76.7585C27.8781 76.4775 27.5096 76.0835 27.2466 75.5765C26.9836 75.0695 26.8521 74.478 26.8521 73.802C26.8521 73.094 26.9816 72.481 27.2406 71.963C27.4996 71.445 27.8626 71.045 28.3296 70.763C28.7966 70.481 29.3441 70.34 29.9721 70.34C30.6221 70.34 31.1761 70.49 31.6341 70.79C32.0921 71.09 32.4366 71.518 32.6676 72.074C32.8986 72.63 32.9971 73.292 32.9631 74.06H31.8861V73.676C31.8741 72.88 31.7121 72.285 31.4001 71.891C31.0881 71.497 30.6241 71.3 30.0081 71.3C29.3461 71.3 28.8436 71.512 28.5006 71.936C28.1576 72.36 27.9861 72.968 27.9861 73.76C27.9861 74.524 28.1576 75.116 28.5006 75.536C28.8436 75.956 29.3341 76.166 29.9721 76.166C30.4001 76.166 30.7721 76.068 31.0881 75.872C31.4041 75.676 31.6521 75.394 31.8321 75.026L32.8581 75.38C32.6041 75.952 32.2246 76.395 31.7196 76.709C31.2146 77.023 30.6481 77.18 30.0201 77.18ZM27.6261 74.06V73.202H32.4141V74.06H27.6261ZM36.0201 77.18C35.5361 77.18 35.1306 77.0915 34.8036 76.9145C34.4766 76.7375 34.2306 76.5025 34.0656 76.2095C33.9006 75.9165 33.8181 75.596 33.8181 75.248C33.8181 74.908 33.8826 74.6135 34.0116 74.3645C34.1406 74.1155 34.3236 73.9075 34.5606 73.7405C34.7976 73.5735 35.0801 73.442 35.4081 73.346C35.7161 73.264 36.0606 73.1915 36.4416 73.1285C36.8226 73.0655 37.2091 73.0085 37.6011 72.9575C37.9931 72.9065 38.3601 72.856 38.7021 72.806L38.3181 73.028C38.3281 72.454 38.2126 72.0285 37.9716 71.7515C37.7306 71.4745 37.3141 71.336 36.7221 71.336C36.3301 71.336 35.9866 71.4255 35.6916 71.6045C35.3966 71.7835 35.1901 72.072 35.0721 72.47L34.0581 72.164C34.2121 71.596 34.5136 71.15 34.9626 70.826C35.4116 70.502 36.0021 70.34 36.7341 70.34C37.3201 70.34 37.8241 70.445 38.2461 70.655C38.6681 70.865 38.9721 71.182 39.1581 71.606C39.2501 71.806 39.3081 72.023 39.3321 72.257C39.3561 72.491 39.3681 72.736 39.3681 72.992V77H38.4201V75.446L38.6421 75.59C38.3981 76.116 38.0566 76.5125 37.6176 76.7795C37.1786 77.0465 36.6461 77.18 36.0201 77.18ZM36.1821 76.286C36.5661 76.286 36.8991 76.2175 37.1811 76.0805C37.4631 75.9435 37.6901 75.7615 37.8621 75.5345C38.0341 75.3075 38.1461 75.06 38.1981 74.792C38.2561 74.592 38.2886 74.3695 38.2956 74.1245C38.3026 73.8795 38.3061 73.69 38.3061 73.556L38.6781 73.718C38.3301 73.768 37.9876 73.815 37.6506 73.859C37.3136 73.903 36.9951 73.9495 36.6951 73.9985C36.3951 74.0475 36.1261 74.106 35.8881 74.174C35.7101 74.23 35.5446 74.3025 35.3916 74.3915C35.2386 74.4805 35.1151 74.594 35.0211 74.732C34.9271 74.87 34.8801 75.04 34.8801 75.242C34.8801 75.42 34.9246 75.5885 35.0136 75.7475C35.1026 75.9065 35.2426 76.036 35.4336 76.136C35.6246 76.236 35.8741 76.286 36.1821 76.286ZM43.3881 77.168C42.9701 77.168 42.6126 77.102 42.3156 76.97C42.0186 76.838 41.7721 76.6625 41.5761 76.4435C41.3801 76.2245 41.2261 75.9805 41.1141 75.7115C41.0021 75.4425 40.9231 75.1685 40.8771 74.8895C40.8311 74.6105 40.8081 74.348 40.8081 74.102V70.52H41.8881V73.766C41.8881 74.07 41.9156 74.3645 41.9706 74.6495C42.0256 74.9345 42.1201 75.1905 42.2541 75.4175C42.3881 75.6445 42.5681 75.824 42.7941 75.956C43.0201 76.088 43.3041 76.154 43.6461 76.154C43.9141 76.154 44.1576 76.1085 44.3766 76.0175C44.5956 75.9265 44.7831 75.7895 44.9391 75.6065C45.0951 75.4235 45.2156 75.1925 45.3006 74.9135C45.3856 74.6345 45.4281 74.308 45.4281 73.934L46.1301 74.15C46.1301 74.776 46.0171 75.3145 45.7911 75.7655C45.5651 76.2165 45.2471 76.563 44.8371 76.805C44.4271 77.047 43.9441 77.168 43.3881 77.168ZM45.5481 77V75.266H45.4281V70.52H46.5021V77H45.5481ZM51.8001 77C51.4141 77.078 51.0346 77.11 50.6616 77.096C50.2886 77.082 49.9556 77.006 49.6626 76.868C49.3696 76.73 49.1481 76.514 48.9981 76.22C48.8701 75.966 48.8011 75.708 48.7911 75.446C48.7811 75.184 48.7761 74.886 48.7761 74.552V68.72H49.8441V74.504C49.8441 74.77 49.8471 74.9965 49.8531 75.1835C49.8591 75.3705 49.9001 75.532 49.9761 75.668C50.1201 75.926 50.3491 76.0765 50.6631 76.1195C50.9771 76.1625 51.3561 76.15 51.8001 76.082V77ZM47.4621 71.402V70.52H51.8001V71.402H47.4621ZM53.8401 79.88L55.0941 76.472L55.1121 77.48L52.2801 70.52H53.4021L55.6221 76.118H55.2381L57.3201 70.52H58.4061L54.8781 79.88H53.8401Z" fill="#475569"/>
</svg>
