<svg width="78" height="80" viewBox="0 0 78 80" fill="none" xmlns="http://www.w3.org/2000/svg">
<rect x="10.75" width="56" height="56" rx="16" fill="#F97316" fill-opacity="0.1"/>
<path d="M31.1957 39.0832C30.6707 39.0832 30.204 38.9228 29.7957 38.6019C29.3874 38.2811 29.1054 37.8679 28.9499 37.3623L25.9749 26.5707C25.8776 26.2012 25.9408 25.8609 26.1644 25.5498C26.3881 25.2387 26.6943 25.0832 27.0832 25.0832H32.6249L37.7582 17.4415C37.8554 17.2859 37.9915 17.1596 38.1665 17.0623C38.3415 16.9651 38.5262 16.9165 38.7207 16.9165C38.9151 16.9165 39.0999 16.9651 39.2749 17.0623C39.4499 17.1596 39.586 17.2859 39.6832 17.4415L44.8165 25.0832H50.4165C50.8054 25.0832 51.1117 25.2387 51.3353 25.5498C51.5589 25.8609 51.6221 26.2012 51.5249 26.5707L48.5499 37.3623C48.3943 37.8679 48.1124 38.2811 47.704 38.6019C47.2957 38.9228 46.829 39.0832 46.304 39.0832H31.1957V39.0832M31.1665 36.7498H46.3332V36.7498V36.7498L48.8999 27.4165H28.5999L31.1665 36.7498V36.7498V36.7498V36.7498M38.7499 34.4165C39.3915 34.4165 39.9408 34.188 40.3978 33.7311C40.8547 33.2741 41.0832 32.7248 41.0832 32.0832C41.0832 31.4415 40.8547 30.8922 40.3978 30.4353C39.9408 29.9783 39.3915 29.7498 38.7499 29.7498C38.1082 29.7498 37.5589 29.9783 37.1019 30.4353C36.645 30.8922 36.4165 31.4415 36.4165 32.0832C36.4165 32.7248 36.645 33.2741 37.1019 33.7311C37.5589 34.188 38.1082 34.4165 38.7499 34.4165V34.4165M35.454 25.0832H42.0165L38.7207 20.1832L35.454 25.0832V25.0832M38.7499 32.0832V32.0832V32.0832V32.0832V32.0832V32.0832V32.0832V32.0832V32.0832V32.0832" fill="#F97316"/>
<path d="M15.7399 77.18C15.1459 77.18 14.6049 77.0765 14.1169 76.8695C13.6289 76.6625 13.2094 76.364 12.8584 75.974C12.5074 75.584 12.2369 75.1115 12.0469 74.5565C11.8569 74.0015 11.7619 73.376 11.7619 72.68C11.7619 71.762 11.9254 70.967 12.2524 70.295C12.5794 69.623 13.0409 69.1035 13.6369 68.7365C14.2329 68.3695 14.9339 68.186 15.7399 68.186C16.7079 68.186 17.4879 68.4115 18.0799 68.8625C18.6719 69.3135 19.0799 69.928 19.3039 70.706L18.2239 70.928C18.0419 70.406 17.7454 69.989 17.3344 69.677C16.9234 69.365 16.4099 69.208 15.7939 69.206C15.1499 69.202 14.6144 69.3455 14.1874 69.6365C13.7604 69.9275 13.4394 70.335 13.2244 70.859C13.0094 71.383 12.8999 71.99 12.8959 72.68C12.8919 73.37 12.9974 73.975 13.2124 74.495C13.4274 75.015 13.7504 75.4215 14.1814 75.7145C14.6124 76.0075 15.1499 76.156 15.7939 76.16C16.3499 76.164 16.8174 76.0585 17.1964 75.8435C17.5754 75.6285 17.8694 75.317 18.0784 74.909C18.2874 74.501 18.4139 74.01 18.4579 73.436H16.6219V72.554H19.5859C19.5959 72.636 19.6024 72.732 19.6054 72.842C19.6084 72.952 19.6099 73.026 19.6099 73.064C19.6099 73.854 19.4629 74.5595 19.1689 75.1805C18.8749 75.8015 18.4404 76.29 17.8654 76.646C17.2904 77.002 16.5819 77.18 15.7399 77.18ZM20.8099 77V70.52H21.7639V72.086L21.6079 71.882C21.6839 71.682 21.7829 71.498 21.9049 71.33C22.0269 71.162 22.1639 71.024 22.3159 70.916C22.4819 70.782 22.6714 70.679 22.8844 70.607C23.0974 70.535 23.3139 70.492 23.5339 70.478C23.7539 70.464 23.9599 70.478 24.1519 70.52V71.522C23.9279 71.464 23.6814 71.449 23.4124 71.477C23.1434 71.505 22.8959 71.602 22.6699 71.768C22.4599 71.918 22.2984 72.0985 22.1854 72.3095C22.0724 72.5205 21.9939 72.749 21.9499 72.995C21.9059 73.241 21.8839 73.492 21.8839 73.748V77H20.8099ZM27.9319 77.18C27.2859 77.18 26.7299 77.034 26.2639 76.742C25.7979 76.45 25.4394 76.0465 25.1884 75.5315C24.9374 75.0165 24.8119 74.424 24.8119 73.754C24.8119 73.076 24.9399 72.4805 25.1959 71.9675C25.4519 71.4545 25.8134 71.055 26.2804 70.769C26.7474 70.483 27.2979 70.34 27.9319 70.34C28.5799 70.34 29.1374 70.4855 29.6044 70.7765C30.0714 71.0675 30.4304 71.4695 30.6814 71.9825C30.9324 72.4955 31.0579 73.086 31.0579 73.754C31.0579 74.432 30.9314 75.028 30.6784 75.542C30.4254 76.056 30.0649 76.4575 29.5969 76.7465C29.1289 77.0355 28.5739 77.18 27.9319 77.18ZM27.9319 76.166C28.6019 76.166 29.1014 75.942 29.4304 75.494C29.7594 75.046 29.9239 74.466 29.9239 73.754C29.9239 73.024 29.7579 72.4415 29.4259 72.0065C29.0939 71.5715 28.5959 71.354 27.9319 71.354C27.4799 71.354 27.1074 71.456 26.8144 71.66C26.5214 71.864 26.3034 72.146 26.1604 72.506C26.0174 72.866 25.9459 73.282 25.9459 73.754C25.9459 74.484 26.1139 75.0685 26.4499 75.5075C26.7859 75.9465 27.2799 76.166 27.9319 76.166ZM35.1079 77.18C34.4499 77.18 33.8919 77.033 33.4339 76.739C32.9759 76.445 32.6269 76.0405 32.3869 75.5255C32.1469 75.0105 32.0239 74.422 32.0179 73.76C32.0239 73.086 32.1499 72.492 32.3959 71.978C32.6419 71.464 32.9949 71.0625 33.4549 70.7735C33.9149 70.4845 34.4699 70.34 35.1199 70.34C35.8019 70.34 36.3899 70.508 36.8839 70.844C37.3779 71.18 37.7099 71.64 37.8799 72.224L36.8239 72.542C36.6859 72.166 36.4639 71.874 36.1579 71.666C35.8519 71.458 35.5019 71.354 35.1079 71.354C34.6639 71.354 34.2979 71.457 34.0099 71.663C33.7219 71.869 33.5079 72.153 33.3679 72.515C33.2279 72.877 33.1559 73.292 33.1519 73.76C33.1579 74.482 33.3244 75.0635 33.6514 75.5045C33.9784 75.9455 34.4639 76.166 35.1079 76.166C35.5299 76.166 35.8809 76.069 36.1609 75.875C36.4409 75.681 36.6539 75.4 36.7999 75.032L37.8799 75.314C37.6539 75.918 37.3029 76.38 36.8269 76.7C36.3509 77.02 35.7779 77.18 35.1079 77.18ZM41.7379 77.18C41.0999 77.18 40.5439 77.0395 40.0699 76.7585C39.5959 76.4775 39.2274 76.0835 38.9644 75.5765C38.7014 75.0695 38.5699 74.478 38.5699 73.802C38.5699 73.094 38.6994 72.481 38.9584 71.963C39.2174 71.445 39.5804 71.045 40.0474 70.763C40.5144 70.481 41.0619 70.34 41.6899 70.34C42.3399 70.34 42.8939 70.49 43.3519 70.79C43.8099 71.09 44.1544 71.518 44.3854 72.074C44.6164 72.63 44.7149 73.292 44.6809 74.06H43.6039V73.676C43.5919 72.88 43.4299 72.285 43.1179 71.891C42.8059 71.497 42.3419 71.3 41.7259 71.3C41.0639 71.3 40.5614 71.512 40.2184 71.936C39.8754 72.36 39.7039 72.968 39.7039 73.76C39.7039 74.524 39.8754 75.116 40.2184 75.536C40.5614 75.956 41.0519 76.166 41.6899 76.166C42.1179 76.166 42.4899 76.068 42.8059 75.872C43.1219 75.676 43.3699 75.394 43.5499 75.026L44.5759 75.38C44.3219 75.952 43.9424 76.395 43.4374 76.709C42.9324 77.023 42.3659 77.18 41.7379 77.18ZM39.3439 74.06V73.202H44.1319V74.06H39.3439ZM46.0159 77V70.52H46.9699V72.086L46.8139 71.882C46.8899 71.682 46.9889 71.498 47.1109 71.33C47.2329 71.162 47.3699 71.024 47.5219 70.916C47.6879 70.782 47.8774 70.679 48.0904 70.607C48.3034 70.535 48.5199 70.492 48.7399 70.478C48.9599 70.464 49.1659 70.478 49.3579 70.52V71.522C49.1339 71.464 48.8874 71.449 48.6184 71.477C48.3494 71.505 48.1019 71.602 47.8759 71.768C47.6659 71.918 47.5044 72.0985 47.3914 72.3095C47.2784 72.5205 47.1999 72.749 47.1559 72.995C47.1119 73.241 47.0899 73.492 47.0899 73.748V77H46.0159ZM50.6179 69.374V68.27H51.6859V69.374H50.6179ZM50.6179 77V70.52H51.6859V77H50.6179ZM56.2939 77.18C55.6559 77.18 55.0999 77.0395 54.6259 76.7585C54.1519 76.4775 53.7834 76.0835 53.5204 75.5765C53.2574 75.0695 53.1259 74.478 53.1259 73.802C53.1259 73.094 53.2554 72.481 53.5144 71.963C53.7734 71.445 54.1364 71.045 54.6034 70.763C55.0704 70.481 55.6179 70.34 56.2459 70.34C56.8959 70.34 57.4499 70.49 57.9079 70.79C58.3659 71.09 58.7104 71.518 58.9414 72.074C59.1724 72.63 59.2709 73.292 59.2369 74.06H58.1599V73.676C58.1479 72.88 57.9859 72.285 57.6739 71.891C57.3619 71.497 56.8979 71.3 56.2819 71.3C55.6199 71.3 55.1174 71.512 54.7744 71.936C54.4314 72.36 54.2599 72.968 54.2599 73.76C54.2599 74.524 54.4314 75.116 54.7744 75.536C55.1174 75.956 55.6079 76.166 56.2459 76.166C56.6739 76.166 57.0459 76.068 57.3619 75.872C57.6779 75.676 57.9259 75.394 58.1059 75.026L59.1319 75.38C58.8779 75.952 58.4984 76.395 57.9934 76.709C57.4884 77.023 56.9219 77.18 56.2939 77.18ZM53.8999 74.06V73.202H58.6879V74.06H53.8999ZM63.0199 77.174C62.2459 77.174 61.6124 77.005 61.1194 76.667C60.6264 76.329 60.3239 75.856 60.2119 75.248L61.3039 75.074C61.3919 75.426 61.5939 75.705 61.9099 75.911C62.2259 76.117 62.6179 76.22 63.0859 76.22C63.5279 76.22 63.8754 76.1285 64.1284 75.9455C64.3814 75.7625 64.5079 75.512 64.5079 75.194C64.5079 75.012 64.4659 74.864 64.3819 74.75C64.2979 74.636 64.1249 74.529 63.8629 74.429C63.6009 74.329 63.2059 74.208 62.6779 74.066C62.1059 73.914 61.6554 73.7565 61.3264 73.5935C60.9974 73.4305 60.7634 73.241 60.6244 73.025C60.4854 72.809 60.4159 72.546 60.4159 72.236C60.4159 71.856 60.5199 71.5235 60.7279 71.2385C60.9359 70.9535 61.2264 70.7325 61.5994 70.5755C61.9724 70.4185 62.4079 70.34 62.9059 70.34C63.3979 70.34 63.8374 70.4185 64.2244 70.5755C64.6114 70.7325 64.9239 70.9535 65.1619 71.2385C65.3999 71.5235 65.5419 71.856 65.5879 72.236L64.4959 72.434C64.4439 72.088 64.2764 71.8145 63.9934 71.6135C63.7104 71.4125 63.3479 71.306 62.9059 71.294C62.4859 71.28 62.1449 71.355 61.8829 71.519C61.6209 71.683 61.4899 71.904 61.4899 72.182C61.4899 72.34 61.5384 72.4745 61.6354 72.5855C61.7324 72.6965 61.9144 72.802 62.1814 72.902C62.4484 73.002 62.8359 73.116 63.3439 73.244C63.9139 73.39 64.3639 73.5475 64.6939 73.7165C65.0239 73.8855 65.2594 74.0855 65.4004 74.3165C65.5414 74.5475 65.6119 74.83 65.6119 75.164C65.6119 75.79 65.3819 76.2815 64.9219 76.6385C64.4619 76.9955 63.8279 77.174 63.0199 77.174Z" fill="#475569"/>
</svg>
