<svg width="271" height="80" viewBox="0 0 271 80" fill="none" xmlns="http://www.w3.org/2000/svg">
<rect x="107.25" width="56" height="56" rx="16" fill="#22C55E" fill-opacity="0.1"/>
<path d="M137.583 29.1665C136.611 29.1665 135.785 28.8262 135.104 28.1457C134.423 27.4651 134.083 26.6387 134.083 25.6665C134.083 24.6943 134.423 23.8679 135.104 23.1873C135.785 22.5068 136.611 22.1665 137.583 22.1665C138.555 22.1665 139.382 22.5068 140.062 23.1873C140.743 23.8679 141.083 24.6943 141.083 25.6665C141.083 26.6387 140.743 27.4651 140.062 28.1457C139.382 28.8262 138.555 29.1665 137.583 29.1665ZM129.417 32.6665C128.775 32.6665 128.226 32.438 127.769 31.9811C127.312 31.5241 127.083 30.9748 127.083 30.3332V20.9998C127.083 20.3582 127.312 19.8089 127.769 19.3519C128.226 18.895 128.775 18.6665 129.417 18.6665H145.75C146.392 18.6665 146.941 18.895 147.398 19.3519C147.855 19.8089 148.083 20.3582 148.083 20.9998V30.3332C148.083 30.9748 147.855 31.5241 147.398 31.9811C146.941 32.438 146.392 32.6665 145.75 32.6665H129.417ZM131.75 30.3332H143.417C143.417 29.6915 143.645 29.1422 144.102 28.6853C144.559 28.2283 145.108 27.9998 145.75 27.9998V23.3332C145.108 23.3332 144.559 23.1047 144.102 22.6478C143.645 22.1908 143.417 21.6415 143.417 20.9998H131.75C131.75 21.6415 131.521 22.1908 131.064 22.6478C130.607 23.1047 130.058 23.3332 129.417 23.3332V27.9998C130.058 27.9998 130.607 28.2283 131.064 28.6853C131.521 29.1422 131.75 29.6915 131.75 30.3332ZM144.583 37.3332H124.75C124.108 37.3332 123.559 37.1047 123.102 36.6478C122.645 36.1908 122.417 35.6415 122.417 34.9998V22.1665H124.75V34.9998H144.583V37.3332ZM129.417 30.3332V20.9998V30.3332Z" fill="#16A34A"/>
<path d="M121.723 77.18C121.111 77.18 120.56 77.076 120.07 76.868C119.58 76.66 119.176 76.3635 118.858 75.9785C118.54 75.5935 118.333 75.136 118.237 74.606L119.341 74.432C119.479 74.976 119.769 75.401 120.211 75.707C120.653 76.013 121.175 76.166 121.777 76.166C122.163 76.166 122.513 76.105 122.827 75.983C123.141 75.861 123.391 75.6865 123.576 75.4595C123.761 75.2325 123.853 74.962 123.853 74.648C123.853 74.458 123.82 74.2935 123.753 74.1545C123.686 74.0155 123.596 73.8975 123.483 73.8005C123.37 73.7035 123.241 73.621 123.096 73.553C122.951 73.485 122.801 73.428 122.647 73.382L120.445 72.728C120.205 72.658 119.973 72.568 119.749 72.458C119.525 72.348 119.325 72.21 119.149 72.044C118.973 71.878 118.833 71.6775 118.729 71.4425C118.625 71.2075 118.573 70.93 118.573 70.61C118.573 70.1 118.706 69.6635 118.971 69.3005C119.236 68.9375 119.596 68.6605 120.052 68.4695C120.508 68.2785 121.023 68.184 121.597 68.186C122.177 68.19 122.696 68.293 123.154 68.495C123.612 68.697 123.992 68.986 124.293 69.362C124.594 69.738 124.797 70.188 124.903 70.712L123.769 70.91C123.709 70.56 123.576 70.2575 123.37 70.0025C123.164 69.7475 122.907 69.551 122.598 69.413C122.289 69.275 121.951 69.204 121.585 69.2C121.231 69.196 120.912 69.2525 120.628 69.3695C120.344 69.4865 120.119 69.648 119.952 69.854C119.785 70.06 119.701 70.296 119.701 70.562C119.701 70.828 119.777 71.042 119.928 71.204C120.079 71.366 120.265 71.4935 120.487 71.5865C120.709 71.6795 120.927 71.756 121.141 71.816L122.785 72.29C122.973 72.342 123.19 72.414 123.436 72.506C123.682 72.598 123.921 72.7275 124.153 72.8945C124.385 73.0615 124.577 73.2815 124.729 73.5545C124.881 73.8275 124.957 74.172 124.957 74.588C124.957 75.006 124.874 75.3765 124.707 75.6995C124.54 76.0225 124.308 76.2935 124.012 76.5125C123.716 76.7315 123.373 76.8975 122.982 77.0105C122.591 77.1235 122.171 77.18 121.723 77.18ZM128.059 77.18C127.575 77.18 127.17 77.0915 126.843 76.9145C126.516 76.7375 126.27 76.5025 126.105 76.2095C125.94 75.9165 125.857 75.596 125.857 75.248C125.857 74.908 125.922 74.6135 126.051 74.3645C126.18 74.1155 126.363 73.9075 126.6 73.7405C126.837 73.5735 127.119 73.442 127.447 73.346C127.755 73.264 128.1 73.1915 128.481 73.1285C128.862 73.0655 129.248 73.0085 129.64 72.9575C130.032 72.9065 130.399 72.856 130.741 72.806L130.357 73.028C130.367 72.454 130.252 72.0285 130.011 71.7515C129.77 71.4745 129.353 71.336 128.761 71.336C128.369 71.336 128.026 71.4255 127.731 71.6045C127.436 71.7835 127.229 72.072 127.111 72.47L126.097 72.164C126.251 71.596 126.553 71.15 127.002 70.826C127.451 70.502 128.041 70.34 128.773 70.34C129.359 70.34 129.863 70.445 130.285 70.655C130.707 70.865 131.011 71.182 131.197 71.606C131.289 71.806 131.347 72.023 131.371 72.257C131.395 72.491 131.407 72.736 131.407 72.992V77H130.459V75.446L130.681 75.59C130.437 76.116 130.096 76.5125 129.657 76.7795C129.218 77.0465 128.685 77.18 128.059 77.18ZM128.221 76.286C128.605 76.286 128.938 76.2175 129.22 76.0805C129.502 75.9435 129.729 75.7615 129.901 75.5345C130.073 75.3075 130.185 75.06 130.237 74.792C130.295 74.592 130.328 74.3695 130.335 74.1245C130.342 73.8795 130.345 73.69 130.345 73.556L130.717 73.718C130.369 73.768 130.027 73.815 129.69 73.859C129.353 73.903 129.034 73.9495 128.734 73.9985C128.434 74.0475 128.165 74.106 127.927 74.174C127.749 74.23 127.584 74.3025 127.431 74.3915C127.278 74.4805 127.154 74.594 127.06 74.732C126.966 74.87 126.919 75.04 126.919 75.242C126.919 75.42 126.964 75.5885 127.053 75.7475C127.142 75.9065 127.282 76.036 127.473 76.136C127.664 76.236 127.913 76.286 128.221 76.286ZM133.087 77V68.18H134.155V77H133.087ZM137.797 77.18C137.313 77.18 136.908 77.0915 136.581 76.9145C136.254 76.7375 136.008 76.5025 135.843 76.2095C135.678 75.9165 135.595 75.596 135.595 75.248C135.595 74.908 135.66 74.6135 135.789 74.3645C135.918 74.1155 136.101 73.9075 136.338 73.7405C136.575 73.5735 136.857 73.442 137.185 73.346C137.493 73.264 137.838 73.1915 138.219 73.1285C138.6 73.0655 138.986 73.0085 139.378 72.9575C139.77 72.9065 140.137 72.856 140.479 72.806L140.095 73.028C140.105 72.454 139.99 72.0285 139.749 71.7515C139.508 71.4745 139.091 71.336 138.499 71.336C138.107 71.336 137.764 71.4255 137.469 71.6045C137.174 71.7835 136.967 72.072 136.849 72.47L135.835 72.164C135.989 71.596 136.291 71.15 136.74 70.826C137.189 70.502 137.779 70.34 138.511 70.34C139.097 70.34 139.601 70.445 140.023 70.655C140.445 70.865 140.749 71.182 140.935 71.606C141.027 71.806 141.085 72.023 141.109 72.257C141.133 72.491 141.145 72.736 141.145 72.992V77H140.197V75.446L140.419 75.59C140.175 76.116 139.834 76.5125 139.395 76.7795C138.956 77.0465 138.423 77.18 137.797 77.18ZM137.959 76.286C138.343 76.286 138.676 76.2175 138.958 76.0805C139.24 75.9435 139.467 75.7615 139.639 75.5345C139.811 75.3075 139.923 75.06 139.975 74.792C140.033 74.592 140.066 74.3695 140.073 74.1245C140.08 73.8795 140.083 73.69 140.083 73.556L140.455 73.718C140.107 73.768 139.765 73.815 139.428 73.859C139.091 73.903 138.772 73.9495 138.472 73.9985C138.172 74.0475 137.903 74.106 137.665 74.174C137.487 74.23 137.322 74.3025 137.169 74.3915C137.016 74.4805 136.892 74.594 136.798 74.732C136.704 74.87 136.657 75.04 136.657 75.242C136.657 75.42 136.702 75.5885 136.791 75.7475C136.88 75.9065 137.02 76.036 137.211 76.136C137.402 76.236 137.651 76.286 137.959 76.286ZM142.705 77V70.52H143.659V72.086L143.503 71.882C143.579 71.682 143.678 71.498 143.8 71.33C143.922 71.162 144.059 71.024 144.211 70.916C144.377 70.782 144.567 70.679 144.78 70.607C144.993 70.535 145.209 70.492 145.429 70.478C145.649 70.464 145.855 70.478 146.047 70.52V71.522C145.823 71.464 145.577 71.449 145.308 71.477C145.039 71.505 144.791 71.602 144.565 71.768C144.355 71.918 144.194 72.0985 144.081 72.3095C143.968 72.5205 143.889 72.749 143.845 72.995C143.801 73.241 143.779 73.492 143.779 73.748V77H142.705ZM147.967 79.88L149.221 76.472L149.239 77.48L146.407 70.52H147.529L149.749 76.118H149.365L151.447 70.52H152.533L149.005 79.88H147.967Z" fill="#475569"/>
</svg>
