<svg width="271" height="80" viewBox="0 0 271 80" fill="none" xmlns="http://www.w3.org/2000/svg">
<rect x="107.25" width="56" height="56" rx="16" fill="#A855F7" fill-opacity="0.1"/>
<path d="M128.133 36.75L126.5 35.1167L140.033 21.5833H132.333V19.25H144V30.9167H141.667V23.2167L128.133 36.75V36.75" fill="#9333EA"/>
<path d="M118.771 77V68.36H122.185C122.269 68.36 122.369 68.363 122.484 68.369C122.599 68.375 122.711 68.388 122.821 68.408C123.287 68.48 123.679 68.6405 123.997 68.8895C124.315 69.1385 124.555 69.452 124.716 69.83C124.877 70.208 124.957 70.626 124.957 71.084C124.957 71.754 124.783 72.3335 124.435 72.8225C124.087 73.3115 123.577 73.618 122.905 73.742L122.497 73.808H119.839V77H118.771ZM123.913 77L122.209 73.484L123.265 73.16L125.137 77H123.913ZM119.839 72.794H122.149C122.225 72.794 122.312 72.79 122.409 72.782C122.506 72.774 122.599 72.76 122.689 72.74C122.965 72.678 123.19 72.5615 123.363 72.3905C123.536 72.2195 123.663 72.019 123.744 71.789C123.825 71.559 123.865 71.324 123.865 71.084C123.865 70.844 123.825 70.609 123.744 70.379C123.663 70.149 123.536 69.9485 123.363 69.7775C123.19 69.6065 122.965 69.49 122.689 69.428C122.599 69.406 122.506 69.3915 122.409 69.3845C122.312 69.3775 122.225 69.374 122.149 69.374H119.839V72.794ZM129.265 77.18C128.627 77.18 128.071 77.0395 127.597 76.7585C127.123 76.4775 126.755 76.0835 126.492 75.5765C126.229 75.0695 126.097 74.478 126.097 73.802C126.097 73.094 126.227 72.481 126.486 71.963C126.745 71.445 127.108 71.045 127.575 70.763C128.042 70.481 128.589 70.34 129.217 70.34C129.867 70.34 130.421 70.49 130.879 70.79C131.337 71.09 131.682 71.518 131.913 72.074C132.144 72.63 132.242 73.292 132.208 74.06H131.131V73.676C131.119 72.88 130.957 72.285 130.645 71.891C130.333 71.497 129.869 71.3 129.253 71.3C128.591 71.3 128.089 71.512 127.746 71.936C127.403 72.36 127.231 72.968 127.231 73.76C127.231 74.524 127.403 75.116 127.746 75.536C128.089 75.956 128.579 76.166 129.217 76.166C129.645 76.166 130.017 76.068 130.333 75.872C130.649 75.676 130.897 75.394 131.077 75.026L132.103 75.38C131.849 75.952 131.47 76.395 130.965 76.709C130.46 77.023 129.893 77.18 129.265 77.18ZM126.871 74.06V73.202H131.659V74.06H126.871ZM136.339 77.18C135.731 77.18 135.219 77.029 134.803 76.727C134.387 76.425 134.072 76.0155 133.858 75.4985C133.644 74.9815 133.537 74.4 133.537 73.754C133.537 73.102 133.644 72.5185 133.858 72.0035C134.072 71.4885 134.388 71.0825 134.805 70.7855C135.222 70.4885 135.735 70.34 136.345 70.34C136.945 70.34 137.462 70.4895 137.895 70.7885C138.328 71.0875 138.661 71.4945 138.894 72.0095C139.127 72.5245 139.243 73.106 139.243 73.754C139.243 74.402 139.127 74.9845 138.894 75.5015C138.661 76.0185 138.328 76.4275 137.895 76.7285C137.462 77.0295 136.943 77.18 136.339 77.18ZM133.357 79.88V70.52H134.311V75.29H134.431V79.88H133.357ZM136.207 76.202C136.633 76.202 136.987 76.094 137.268 75.878C137.549 75.662 137.759 75.369 137.899 74.999C138.039 74.629 138.109 74.214 138.109 73.754C138.109 73.298 138.04 72.886 137.901 72.518C137.762 72.15 137.55 71.858 137.265 71.642C136.98 71.426 136.617 71.318 136.177 71.318C135.755 71.318 135.406 71.421 135.13 71.627C134.854 71.833 134.649 72.1195 134.514 72.4865C134.379 72.8535 134.311 73.276 134.311 73.754C134.311 74.228 134.378 74.6495 134.512 75.0185C134.646 75.3875 134.853 75.677 135.133 75.887C135.413 76.097 135.771 76.202 136.207 76.202ZM142.405 77.18C141.921 77.18 141.516 77.0915 141.189 76.9145C140.862 76.7375 140.616 76.5025 140.451 76.2095C140.286 75.9165 140.203 75.596 140.203 75.248C140.203 74.908 140.268 74.6135 140.397 74.3645C140.526 74.1155 140.709 73.9075 140.946 73.7405C141.183 73.5735 141.465 73.442 141.793 73.346C142.101 73.264 142.446 73.1915 142.827 73.1285C143.208 73.0655 143.594 73.0085 143.986 72.9575C144.378 72.9065 144.745 72.856 145.087 72.806L144.703 73.028C144.713 72.454 144.598 72.0285 144.357 71.7515C144.116 71.4745 143.699 71.336 143.107 71.336C142.715 71.336 142.372 71.4255 142.077 71.6045C141.782 71.7835 141.575 72.072 141.457 72.47L140.443 72.164C140.597 71.596 140.899 71.15 141.348 70.826C141.797 70.502 142.387 70.34 143.119 70.34C143.705 70.34 144.209 70.445 144.631 70.655C145.053 70.865 145.357 71.182 145.543 71.606C145.635 71.806 145.693 72.023 145.717 72.257C145.741 72.491 145.753 72.736 145.753 72.992V77H144.805V75.446L145.027 75.59C144.783 76.116 144.442 76.5125 144.003 76.7795C143.564 77.0465 143.031 77.18 142.405 77.18ZM142.567 76.286C142.951 76.286 143.284 76.2175 143.566 76.0805C143.848 75.9435 144.075 75.7615 144.247 75.5345C144.419 75.3075 144.531 75.06 144.583 74.792C144.641 74.592 144.674 74.3695 144.681 74.1245C144.688 73.8795 144.691 73.69 144.691 73.556L145.063 73.718C144.715 73.768 144.373 73.815 144.036 73.859C143.699 73.903 143.38 73.9495 143.08 73.9985C142.78 74.0475 142.511 74.106 142.273 74.174C142.095 74.23 141.93 74.3025 141.777 74.3915C141.624 74.4805 141.5 74.594 141.406 74.732C141.312 74.87 141.265 75.04 141.265 75.242C141.265 75.42 141.31 75.5885 141.399 75.7475C141.488 75.9065 141.628 76.036 141.819 76.136C142.01 76.236 142.259 76.286 142.567 76.286ZM147.853 79.88L149.107 76.472L149.125 77.48L146.293 70.52H147.415L149.635 76.118H149.251L151.333 70.52H152.419L148.891 79.88H147.853Z" fill="#475569"/>
</svg>
