<svg width="78" height="80" viewBox="0 0 78 80" fill="none" xmlns="http://www.w3.org/2000/svg">
<rect x="10.75" width="56" height="56" rx="16" fill="#64748B" fill-opacity="0.1"/>
<path d="M32.9168 38.5L27.0835 32.6667L32.9168 26.8333L34.5793 28.4667L31.546 31.5H49.2502V33.8333H31.546L34.5793 36.8667L32.9168 38.5V38.5M44.5835 29.1667L42.921 27.5333L45.9543 24.5H28.2502V22.1667H45.9543L42.921 19.1333L44.5835 17.5L50.4168 23.3333L44.5835 29.1667V29.1667" fill="#64748B"/>
<path d="M18.356 77V69.374H15.41V68.36H22.37V69.374H19.424V77H18.356ZM22.73 77V70.52H23.684V72.086L23.528 71.882C23.604 71.682 23.703 71.498 23.825 71.33C23.947 71.162 24.084 71.024 24.236 70.916C24.402 70.782 24.5915 70.679 24.8045 70.607C25.0175 70.535 25.234 70.492 25.454 70.478C25.674 70.464 25.88 70.478 26.072 70.52V71.522C25.848 71.464 25.6015 71.449 25.3325 71.477C25.0635 71.505 24.816 71.602 24.59 71.768C24.38 71.918 24.2185 72.0985 24.1055 72.3095C23.9925 72.5205 23.914 72.749 23.87 72.995C23.826 73.241 23.804 73.492 23.804 73.748V77H22.73ZM28.844 77.18C28.36 77.18 27.9545 77.0915 27.6275 76.9145C27.3005 76.7375 27.0545 76.5025 26.8895 76.2095C26.7245 75.9165 26.642 75.596 26.642 75.248C26.642 74.908 26.7065 74.6135 26.8355 74.3645C26.9645 74.1155 27.1475 73.9075 27.3845 73.7405C27.6215 73.5735 27.904 73.442 28.232 73.346C28.54 73.264 28.8845 73.1915 29.2655 73.1285C29.6465 73.0655 30.033 73.0085 30.425 72.9575C30.817 72.9065 31.184 72.856 31.526 72.806L31.142 73.028C31.152 72.454 31.0365 72.0285 30.7955 71.7515C30.5545 71.4745 30.138 71.336 29.546 71.336C29.154 71.336 28.8105 71.4255 28.5155 71.6045C28.2205 71.7835 28.014 72.072 27.896 72.47L26.882 72.164C27.036 71.596 27.3375 71.15 27.7865 70.826C28.2355 70.502 28.826 70.34 29.558 70.34C30.144 70.34 30.648 70.445 31.07 70.655C31.492 70.865 31.796 71.182 31.982 71.606C32.074 71.806 32.132 72.023 32.156 72.257C32.18 72.491 32.192 72.736 32.192 72.992V77H31.244V75.446L31.466 75.59C31.222 76.116 30.8805 76.5125 30.4415 76.7795C30.0025 77.0465 29.47 77.18 28.844 77.18ZM29.006 76.286C29.39 76.286 29.723 76.2175 30.005 76.0805C30.287 75.9435 30.514 75.7615 30.686 75.5345C30.858 75.3075 30.97 75.06 31.022 74.792C31.08 74.592 31.1125 74.3695 31.1195 74.1245C31.1265 73.8795 31.13 73.69 31.13 73.556L31.502 73.718C31.154 73.768 30.8115 73.815 30.4745 73.859C30.1375 73.903 29.819 73.9495 29.519 73.9985C29.219 74.0475 28.95 74.106 28.712 74.174C28.534 74.23 28.3685 74.3025 28.2155 74.3915C28.0625 74.4805 27.939 74.594 27.845 74.732C27.751 74.87 27.704 75.04 27.704 75.242C27.704 75.42 27.7485 75.5885 27.8375 75.7475C27.9265 75.9065 28.0665 76.036 28.2575 76.136C28.4485 76.236 28.698 76.286 29.006 76.286ZM38.366 77V73.754C38.366 73.448 38.3385 73.153 38.2835 72.869C38.2285 72.585 38.134 72.3295 38 72.1025C37.866 71.8755 37.686 71.696 37.46 71.564C37.234 71.432 36.95 71.366 36.608 71.366C36.34 71.366 36.0965 71.4115 35.8775 71.5025C35.6585 71.5935 35.471 71.7305 35.315 71.9135C35.159 72.0965 35.0385 72.327 34.9535 72.605C34.8685 72.883 34.826 73.21 34.826 73.586L34.124 73.37C34.124 72.744 34.237 72.2055 34.463 71.7545C34.689 71.3035 35.007 70.957 35.417 70.715C35.827 70.473 36.31 70.352 36.866 70.352C37.284 70.352 37.6415 70.418 37.9385 70.55C38.2355 70.682 38.482 70.8575 38.678 71.0765C38.874 71.2955 39.028 71.5395 39.14 71.8085C39.252 72.0775 39.331 72.3515 39.377 72.6305C39.423 72.9095 39.446 73.172 39.446 73.418V77H38.366ZM33.746 77V70.52H34.706V72.254H34.826V77H33.746ZM43.454 77.174C42.68 77.174 42.0465 77.005 41.5535 76.667C41.0605 76.329 40.758 75.856 40.646 75.248L41.738 75.074C41.826 75.426 42.028 75.705 42.344 75.911C42.66 76.117 43.052 76.22 43.52 76.22C43.962 76.22 44.3095 76.1285 44.5625 75.9455C44.8155 75.7625 44.942 75.512 44.942 75.194C44.942 75.012 44.9 74.864 44.816 74.75C44.732 74.636 44.559 74.529 44.297 74.429C44.035 74.329 43.64 74.208 43.112 74.066C42.54 73.914 42.0895 73.7565 41.7605 73.5935C41.4315 73.4305 41.1975 73.241 41.0585 73.025C40.9195 72.809 40.85 72.546 40.85 72.236C40.85 71.856 40.954 71.5235 41.162 71.2385C41.37 70.9535 41.6605 70.7325 42.0335 70.5755C42.4065 70.4185 42.842 70.34 43.34 70.34C43.832 70.34 44.2715 70.4185 44.6585 70.5755C45.0455 70.7325 45.358 70.9535 45.596 71.2385C45.834 71.5235 45.976 71.856 46.022 72.236L44.93 72.434C44.878 72.088 44.7105 71.8145 44.4275 71.6135C44.1445 71.4125 43.782 71.306 43.34 71.294C42.92 71.28 42.579 71.355 42.317 71.519C42.055 71.683 41.924 71.904 41.924 72.182C41.924 72.34 41.9725 72.4745 42.0695 72.5855C42.1665 72.6965 42.3485 72.802 42.6155 72.902C42.8825 73.002 43.27 73.116 43.778 73.244C44.348 73.39 44.798 73.5475 45.128 73.7165C45.458 73.8855 45.6935 74.0855 45.8345 74.3165C45.9755 74.5475 46.046 74.83 46.046 75.164C46.046 75.79 45.816 76.2815 45.356 76.6385C44.896 76.9955 44.262 77.174 43.454 77.174ZM47.99 77V70.166C47.99 70 47.9975 69.8295 48.0125 69.6545C48.0275 69.4795 48.0635 69.309 48.1205 69.143C48.1775 68.977 48.27 68.824 48.398 68.684C48.546 68.522 48.708 68.4055 48.884 68.3345C49.06 68.2635 49.239 68.22 49.421 68.204C49.603 68.188 49.776 68.18 49.94 68.18H50.762V69.068H50C49.684 69.068 49.448 69.1455 49.292 69.3005C49.136 69.4555 49.058 69.688 49.058 69.998V77H47.99ZM46.892 71.402V70.52H50.762V71.402H46.892ZM54.29 77.18C53.652 77.18 53.096 77.0395 52.622 76.7585C52.148 76.4775 51.7795 76.0835 51.5165 75.5765C51.2535 75.0695 51.122 74.478 51.122 73.802C51.122 73.094 51.2515 72.481 51.5105 71.963C51.7695 71.445 52.1325 71.045 52.5995 70.763C53.0665 70.481 53.614 70.34 54.242 70.34C54.892 70.34 55.446 70.49 55.904 70.79C56.362 71.09 56.7065 71.518 56.9375 72.074C57.1685 72.63 57.267 73.292 57.233 74.06H56.156V73.676C56.144 72.88 55.982 72.285 55.67 71.891C55.358 71.497 54.894 71.3 54.278 71.3C53.616 71.3 53.1135 71.512 52.7705 71.936C52.4275 72.36 52.256 72.968 52.256 73.76C52.256 74.524 52.4275 75.116 52.7705 75.536C53.1135 75.956 53.604 76.166 54.242 76.166C54.67 76.166 55.042 76.068 55.358 75.872C55.674 75.676 55.922 75.394 56.102 75.026L57.128 75.38C56.874 75.952 56.4945 76.395 55.9895 76.709C55.4845 77.023 54.918 77.18 54.29 77.18ZM51.896 74.06V73.202H56.684V74.06H51.896ZM58.568 77V70.52H59.522V72.086L59.366 71.882C59.442 71.682 59.541 71.498 59.663 71.33C59.785 71.162 59.922 71.024 60.074 70.916C60.24 70.782 60.4295 70.679 60.6425 70.607C60.8555 70.535 61.072 70.492 61.292 70.478C61.512 70.464 61.718 70.478 61.91 70.52V71.522C61.686 71.464 61.4395 71.449 61.1705 71.477C60.9015 71.505 60.654 71.602 60.428 71.768C60.218 71.918 60.0565 72.0985 59.9435 72.3095C59.8305 72.5205 59.752 72.749 59.708 72.995C59.664 73.241 59.642 73.492 59.642 73.748V77H58.568Z" fill="#475569"/>
</svg>
