<svg width="78" height="80" viewBox="0 0 78 80" fill="none" xmlns="http://www.w3.org/2000/svg">
<rect x="10.75" width="56" height="56" rx="16" fill="#10B981" fill-opacity="0.1"/>
<path d="M30.5833 37.3332C28.9306 37.3332 27.5451 36.7741 26.4271 35.6561C25.309 34.538 24.75 33.1526 24.75 31.4998C24.75 29.8471 25.3187 28.4616 26.4562 27.3436C27.5938 26.2255 28.9694 25.6665 30.5833 25.6665C32.0806 25.6665 33.3396 26.1137 34.3604 27.0082C35.3812 27.9026 36.0278 29.0109 36.3 30.3332H37.0583L34.9583 24.4998H32.9167V22.1665H38.75V24.4998H37.4667L37.875 25.6665H43.475L41.7833 20.9998V20.9998V20.9998H38.75V18.6665H41.7833C42.2889 18.6665 42.741 18.8026 43.1396 19.0748C43.5382 19.3471 43.825 19.7165 44 20.1832L45.9833 25.6082H46.9167C48.5306 25.6082 49.9063 26.1769 51.0438 27.3144C52.1813 28.4519 52.75 29.8276 52.75 31.4415C52.75 33.0748 52.1861 34.4651 51.0583 35.6123C49.9306 36.7596 48.55 37.3332 46.9167 37.3332C45.5167 37.3332 44.2868 36.8957 43.2271 36.0207C42.1674 35.1457 41.4917 34.0276 41.2 32.6665H36.3C36.0278 34.0082 35.3667 35.1214 34.3167 36.0061C33.2667 36.8908 32.0222 37.3332 30.5833 37.3332V37.3332M30.5833 34.9998C31.3806 34.9998 32.066 34.7811 32.6396 34.3436C33.2132 33.9061 33.6167 33.3471 33.85 32.6665H30.5833V30.3332H33.85C33.6167 29.6332 33.2132 29.0693 32.6396 28.6415C32.066 28.2137 31.3806 27.9998 30.5833 27.9998C29.5917 27.9998 28.7604 28.3353 28.0896 29.0061C27.4188 29.6769 27.0833 30.5082 27.0833 31.4998C27.0833 32.4721 27.4188 33.2984 28.0896 33.979C28.7604 34.6596 29.5917 34.9998 30.5833 34.9998V34.9998M39.5667 30.3332H41.2C41.2972 29.8859 41.4285 29.4679 41.5938 29.079C41.759 28.6901 41.9778 28.3304 42.25 27.9998H38.6917L39.5667 30.3332V30.3332M46.9167 34.9998C47.9083 34.9998 48.7396 34.6596 49.4104 33.979C50.0813 33.2984 50.4167 32.4721 50.4167 31.4998C50.4167 30.5082 50.0813 29.6769 49.4104 29.0061C48.7396 28.3353 47.9083 27.9998 46.9167 27.9998C46.8778 27.9998 46.8583 27.9998 46.8583 27.9998C46.8583 27.9998 46.8389 27.9998 46.8 27.9998L47.9667 31.0915L45.75 31.9082L44.6417 28.8165C44.2528 29.1471 43.9514 29.5359 43.7375 29.9832C43.5236 30.4304 43.4167 30.9359 43.4167 31.4998C43.4167 32.4721 43.7521 33.2984 44.4229 33.979C45.0937 34.6596 45.925 34.9998 46.9167 34.9998V34.9998M30.4667 31.4998V31.4998V31.4998V31.4998V31.4998V31.4998V31.4998V31.4998V31.4998V31.4998V31.4998M46.9167 31.4998V31.4998V31.4998V31.4998V31.4998V31.4998V31.4998V31.4998V31.4998V31.4998V31.4998V31.4998V31.4998" fill="#10B981"/>
<g clip-path="url(#clip0_183_696)">
<path d="M20.912 77.18C20.3 77.18 19.749 77.076 19.259 76.868C18.769 76.66 18.365 76.3635 18.047 75.9785C17.729 75.5935 17.522 75.136 17.426 74.606L18.53 74.432C18.668 74.976 18.958 75.401 19.4 75.707C19.842 76.013 20.364 76.166 20.966 76.166C21.352 76.166 21.702 76.105 22.016 75.983C22.33 75.861 22.5795 75.6865 22.7645 75.4595C22.9495 75.2325 23.042 74.962 23.042 74.648C23.042 74.458 23.0085 74.2935 22.9415 74.1545C22.8745 74.0155 22.7845 73.8975 22.6715 73.8005C22.5585 73.7035 22.4295 73.621 22.2845 73.553C22.1395 73.485 21.99 73.428 21.836 73.382L19.634 72.728C19.394 72.658 19.162 72.568 18.938 72.458C18.714 72.348 18.514 72.21 18.338 72.044C18.162 71.878 18.022 71.6775 17.918 71.4425C17.814 71.2075 17.762 70.93 17.762 70.61C17.762 70.1 17.8945 69.6635 18.1595 69.3005C18.4245 68.9375 18.785 68.6605 19.241 68.4695C19.697 68.2785 20.212 68.184 20.786 68.186C21.366 68.19 21.885 68.293 22.343 68.495C22.801 68.697 23.1805 68.986 23.4815 69.362C23.7825 69.738 23.986 70.188 24.092 70.712L22.958 70.91C22.898 70.56 22.765 70.2575 22.559 70.0025C22.353 69.7475 22.0955 69.551 21.7865 69.413C21.4775 69.275 21.14 69.204 20.774 69.2C20.42 69.196 20.101 69.2525 19.817 69.3695C19.533 69.4865 19.3075 69.648 19.1405 69.854C18.9735 70.06 18.89 70.296 18.89 70.562C18.89 70.828 18.9655 71.042 19.1165 71.204C19.2675 71.366 19.454 71.4935 19.676 71.5865C19.898 71.6795 20.116 71.756 20.33 71.816L21.974 72.29C22.162 72.342 22.379 72.414 22.625 72.506C22.871 72.598 23.11 72.7275 23.342 72.8945C23.574 73.0615 23.766 73.2815 23.918 73.5545C24.07 73.8275 24.146 74.172 24.146 74.588C24.146 75.006 24.0625 75.3765 23.8955 75.6995C23.7285 76.0225 23.497 76.2935 23.201 76.5125C22.905 76.7315 22.5615 76.8975 22.1705 77.0105C21.7795 77.1235 21.36 77.18 20.912 77.18ZM30.02 77V73.754C30.02 73.448 29.9925 73.153 29.9375 72.869C29.8825 72.585 29.788 72.3295 29.654 72.1025C29.52 71.8755 29.34 71.696 29.114 71.564C28.888 71.432 28.604 71.366 28.262 71.366C27.994 71.366 27.7505 71.4115 27.5315 71.5025C27.3125 71.5935 27.125 71.7305 26.969 71.9135C26.813 72.0965 26.6925 72.327 26.6075 72.605C26.5225 72.883 26.48 73.21 26.48 73.586L25.778 73.37C25.778 72.744 25.891 72.2055 26.117 71.7545C26.343 71.3035 26.661 70.957 27.071 70.715C27.481 70.473 27.964 70.352 28.52 70.352C28.938 70.352 29.2955 70.418 29.5925 70.55C29.8895 70.682 30.136 70.8575 30.332 71.0765C30.528 71.2955 30.682 71.5395 30.794 71.8085C30.906 72.0775 30.985 72.3515 31.031 72.6305C31.077 72.9095 31.1 73.172 31.1 73.418V77H30.02ZM25.4 77V68.36H26.36V73.13H26.48V77H25.4ZM34.502 77.18C34.018 77.18 33.6125 77.0915 33.2855 76.9145C32.9585 76.7375 32.7125 76.5025 32.5475 76.2095C32.3825 75.9165 32.3 75.596 32.3 75.248C32.3 74.908 32.3645 74.6135 32.4935 74.3645C32.6225 74.1155 32.8055 73.9075 33.0425 73.7405C33.2795 73.5735 33.562 73.442 33.89 73.346C34.198 73.264 34.5425 73.1915 34.9235 73.1285C35.3045 73.0655 35.691 73.0085 36.083 72.9575C36.475 72.9065 36.842 72.856 37.184 72.806L36.8 73.028C36.81 72.454 36.6945 72.0285 36.4535 71.7515C36.2125 71.4745 35.796 71.336 35.204 71.336C34.812 71.336 34.4685 71.4255 34.1735 71.6045C33.8785 71.7835 33.672 72.072 33.554 72.47L32.54 72.164C32.694 71.596 32.9955 71.15 33.4445 70.826C33.8935 70.502 34.484 70.34 35.216 70.34C35.802 70.34 36.306 70.445 36.728 70.655C37.15 70.865 37.454 71.182 37.64 71.606C37.732 71.806 37.79 72.023 37.814 72.257C37.838 72.491 37.85 72.736 37.85 72.992V77H36.902V75.446L37.124 75.59C36.88 76.116 36.5385 76.5125 36.0995 76.7795C35.6605 77.0465 35.128 77.18 34.502 77.18ZM34.664 76.286C35.048 76.286 35.381 76.2175 35.663 76.0805C35.945 75.9435 36.172 75.7615 36.344 75.5345C36.516 75.3075 36.628 75.06 36.68 74.792C36.738 74.592 36.7705 74.3695 36.7775 74.1245C36.7845 73.8795 36.788 73.69 36.788 73.556L37.16 73.718C36.812 73.768 36.4695 73.815 36.1325 73.859C35.7955 73.903 35.477 73.9495 35.177 73.9985C34.877 74.0475 34.608 74.106 34.37 74.174C34.192 74.23 34.0265 74.3025 33.8735 74.3915C33.7205 74.4805 33.597 74.594 33.503 74.732C33.409 74.87 33.362 75.04 33.362 75.242C33.362 75.42 33.4065 75.5885 33.4955 75.7475C33.5845 75.9065 33.7245 76.036 33.9155 76.136C34.1065 76.236 34.356 76.286 34.664 76.286ZM39.41 77V70.52H40.364V72.086L40.208 71.882C40.284 71.682 40.383 71.498 40.505 71.33C40.627 71.162 40.764 71.024 40.916 70.916C41.082 70.782 41.2715 70.679 41.4845 70.607C41.6975 70.535 41.914 70.492 42.134 70.478C42.354 70.464 42.56 70.478 42.752 70.52V71.522C42.528 71.464 42.2815 71.449 42.0125 71.477C41.7435 71.505 41.496 71.602 41.27 71.768C41.06 71.918 40.8985 72.0985 40.7855 72.3095C40.6725 72.5205 40.594 72.749 40.55 72.995C40.506 73.241 40.484 73.492 40.484 73.748V77H39.41ZM44.012 69.374V68.27H45.08V69.374H44.012ZM44.012 77V70.52H45.08V77H44.012ZM51.494 77V73.754C51.494 73.448 51.4665 73.153 51.4115 72.869C51.3565 72.585 51.262 72.3295 51.128 72.1025C50.994 71.8755 50.814 71.696 50.588 71.564C50.362 71.432 50.078 71.366 49.736 71.366C49.468 71.366 49.2245 71.4115 49.0055 71.5025C48.7865 71.5935 48.599 71.7305 48.443 71.9135C48.287 72.0965 48.1665 72.327 48.0815 72.605C47.9965 72.883 47.954 73.21 47.954 73.586L47.252 73.37C47.252 72.744 47.365 72.2055 47.591 71.7545C47.817 71.3035 48.135 70.957 48.545 70.715C48.955 70.473 49.438 70.352 49.994 70.352C50.412 70.352 50.7695 70.418 51.0665 70.55C51.3635 70.682 51.61 70.8575 51.806 71.0765C52.002 71.2955 52.156 71.5395 52.268 71.8085C52.38 72.0775 52.459 72.3515 52.505 72.6305C52.551 72.9095 52.574 73.172 52.574 73.418V77H51.494ZM46.874 77V70.52H47.834V72.254H47.954V77H46.874ZM56.756 80.06C56.416 80.06 56.084 80.0085 55.76 79.9055C55.436 79.8025 55.139 79.646 54.869 79.436C54.599 79.226 54.374 78.96 54.194 78.638L55.172 78.122C55.332 78.44 55.5585 78.6705 55.8515 78.8135C56.1445 78.9565 56.448 79.028 56.762 79.028C57.174 79.028 57.5155 78.953 57.7865 78.803C58.0575 78.653 58.2585 78.43 58.3895 78.134C58.5205 77.838 58.584 77.47 58.58 77.03V75.26H58.706V70.52H59.654V77.042C59.654 77.22 59.6485 77.3905 59.6375 77.5535C59.6265 77.7165 59.606 77.878 59.576 78.038C59.492 78.498 59.326 78.877 59.078 79.175C58.83 79.473 58.51 79.695 58.118 79.841C57.726 79.987 57.272 80.06 56.756 80.06ZM56.678 77.18C56.074 77.18 55.5555 77.0295 55.1225 76.7285C54.6895 76.4275 54.3565 76.0185 54.1235 75.5015C53.8905 74.9845 53.774 74.402 53.774 73.754C53.774 73.106 53.8905 72.5245 54.1235 72.0095C54.3565 71.4945 54.6895 71.0875 55.1225 70.7885C55.5555 70.4895 56.072 70.34 56.672 70.34C57.282 70.34 57.7955 70.4885 58.2125 70.7855C58.6295 71.0825 58.945 71.4885 59.159 72.0035C59.373 72.5185 59.48 73.102 59.48 73.754C59.48 74.4 59.373 74.9815 59.159 75.4985C58.945 76.0155 58.63 76.425 58.214 76.727C57.798 77.029 57.286 77.18 56.678 77.18ZM56.81 76.202C57.246 76.202 57.604 76.097 57.884 75.887C58.164 75.677 58.371 75.3875 58.505 75.0185C58.639 74.6495 58.706 74.228 58.706 73.754C58.706 73.276 58.6385 72.8535 58.5035 72.4865C58.3685 72.1195 58.163 71.833 57.887 71.627C57.611 71.421 57.262 71.318 56.84 71.318C56.4 71.318 56.037 71.426 55.751 71.642C55.465 71.858 55.253 72.15 55.115 72.518C54.977 72.886 54.908 73.298 54.908 73.754C54.908 74.214 54.978 74.629 55.118 74.999C55.258 75.369 55.4685 75.662 55.7495 75.878C56.0305 76.094 56.384 76.202 56.81 76.202Z" fill="#475569"/>
</g>
<defs>
<clipPath id="clip0_183_696">
<rect width="77.5" height="16" fill="white" transform="translate(0 64)"/>
</clipPath>
</defs>
</svg>
