<svg width="271" height="80" viewBox="0 0 271 80" fill="none" xmlns="http://www.w3.org/2000/svg">
<rect x="107.25" width="56" height="56" rx="16" fill="#3B82F6" fill-opacity="0.1"/>
<path d="M125.333 35.5832L123.583 33.8332L132.333 25.0832L137 29.7498L145.283 20.4165L146.917 22.0498L137 33.2498L132.333 28.5832L125.333 35.5832Z" fill="#2563EB"/>
<path d="M123.013 77.18C122.401 77.18 121.85 77.076 121.36 76.868C120.87 76.66 120.466 76.3635 120.148 75.9785C119.83 75.5935 119.623 75.136 119.527 74.606L120.631 74.432C120.769 74.976 121.059 75.401 121.501 75.707C121.943 76.013 122.465 76.166 123.067 76.166C123.453 76.166 123.803 76.105 124.117 75.983C124.431 75.861 124.681 75.6865 124.866 75.4595C125.051 75.2325 125.143 74.962 125.143 74.648C125.143 74.458 125.11 74.2935 125.043 74.1545C124.976 74.0155 124.886 73.8975 124.773 73.8005C124.66 73.7035 124.531 73.621 124.386 73.553C124.241 73.485 124.091 73.428 123.937 73.382L121.735 72.728C121.495 72.658 121.263 72.568 121.039 72.458C120.815 72.348 120.615 72.21 120.439 72.044C120.263 71.878 120.123 71.6775 120.019 71.4425C119.915 71.2075 119.863 70.93 119.863 70.61C119.863 70.1 119.996 69.6635 120.261 69.3005C120.526 68.9375 120.886 68.6605 121.342 68.4695C121.798 68.2785 122.313 68.184 122.887 68.186C123.467 68.19 123.986 68.293 124.444 68.495C124.902 68.697 125.282 68.986 125.583 69.362C125.884 69.738 126.087 70.188 126.193 70.712L125.059 70.91C124.999 70.56 124.866 70.2575 124.66 70.0025C124.454 69.7475 124.197 69.551 123.888 69.413C123.579 69.275 123.241 69.204 122.875 69.2C122.521 69.196 122.202 69.2525 121.918 69.3695C121.634 69.4865 121.409 69.648 121.242 69.854C121.075 70.06 120.991 70.296 120.991 70.562C120.991 70.828 121.067 71.042 121.218 71.204C121.369 71.366 121.555 71.4935 121.777 71.5865C121.999 71.6795 122.217 71.756 122.431 71.816L124.075 72.29C124.263 72.342 124.48 72.414 124.726 72.506C124.972 72.598 125.211 72.7275 125.443 72.8945C125.675 73.0615 125.867 73.2815 126.019 73.5545C126.171 73.8275 126.247 74.172 126.247 74.588C126.247 75.006 126.164 75.3765 125.997 75.6995C125.83 76.0225 125.598 76.2935 125.302 76.5125C125.006 76.7315 124.663 76.8975 124.272 77.0105C123.881 77.1235 123.461 77.18 123.013 77.18ZM131.125 77C130.739 77.078 130.36 77.11 129.987 77.096C129.614 77.082 129.281 77.006 128.988 76.868C128.695 76.73 128.473 76.514 128.323 76.22C128.195 75.966 128.126 75.708 128.116 75.446C128.106 75.184 128.101 74.886 128.101 74.552V68.72H129.169V74.504C129.169 74.77 129.172 74.9965 129.178 75.1835C129.184 75.3705 129.225 75.532 129.301 75.668C129.445 75.926 129.674 76.0765 129.988 76.1195C130.302 76.1625 130.681 76.15 131.125 76.082V77ZM126.787 71.402V70.52H131.125V71.402H126.787ZM134.935 77.18C134.289 77.18 133.733 77.034 133.267 76.742C132.801 76.45 132.443 76.0465 132.192 75.5315C131.941 75.0165 131.815 74.424 131.815 73.754C131.815 73.076 131.943 72.4805 132.199 71.9675C132.455 71.4545 132.817 71.055 133.284 70.769C133.751 70.483 134.301 70.34 134.935 70.34C135.583 70.34 136.141 70.4855 136.608 70.7765C137.075 71.0675 137.434 71.4695 137.685 71.9825C137.936 72.4955 138.061 73.086 138.061 73.754C138.061 74.432 137.935 75.028 137.682 75.542C137.429 76.056 137.068 76.4575 136.6 76.7465C136.132 77.0355 135.577 77.18 134.935 77.18ZM134.935 76.166C135.605 76.166 136.105 75.942 136.434 75.494C136.763 75.046 136.927 74.466 136.927 73.754C136.927 73.024 136.761 72.4415 136.429 72.0065C136.097 71.5715 135.599 71.354 134.935 71.354C134.483 71.354 134.111 71.456 133.818 71.66C133.525 71.864 133.307 72.146 133.164 72.506C133.021 72.866 132.949 73.282 132.949 73.754C132.949 74.484 133.117 75.0685 133.453 75.5075C133.789 75.9465 134.283 76.166 134.935 76.166ZM142.111 77.18C141.453 77.18 140.895 77.033 140.437 76.739C139.979 76.445 139.63 76.0405 139.39 75.5255C139.15 75.0105 139.027 74.422 139.021 73.76C139.027 73.086 139.153 72.492 139.399 71.978C139.645 71.464 139.998 71.0625 140.458 70.7735C140.918 70.4845 141.473 70.34 142.123 70.34C142.805 70.34 143.393 70.508 143.887 70.844C144.381 71.18 144.713 71.64 144.883 72.224L143.827 72.542C143.689 72.166 143.467 71.874 143.161 71.666C142.855 71.458 142.505 71.354 142.111 71.354C141.667 71.354 141.301 71.457 141.013 71.663C140.725 71.869 140.511 72.153 140.371 72.515C140.231 72.877 140.159 73.292 140.155 73.76C140.161 74.482 140.328 75.0635 140.655 75.5045C140.982 75.9455 141.467 76.166 142.111 76.166C142.533 76.166 142.884 76.069 143.164 75.875C143.444 75.681 143.657 75.4 143.803 75.032L144.883 75.314C144.657 75.918 144.306 76.38 143.83 76.7C143.354 77.02 142.781 77.18 142.111 77.18ZM146.107 77L146.113 68.36H147.193V73.64L149.911 70.52H151.297L148.435 73.76L151.633 77H150.139L147.193 73.88V77H146.107Z" fill="#475569"/>
</svg>
