<svg width="78" height="80" viewBox="0 0 78 80" fill="none" xmlns="http://www.w3.org/2000/svg">
<rect x="10.75" width="56" height="56" rx="16" fill="#6366F1" fill-opacity="0.1"/>
<path d="M37.0582 35.2335L43.0957 28.0002H38.429L39.2748 21.3793L33.879 29.1668H37.9332L37.0582 35.2335ZM34.0832 39.6668L35.2498 31.5002H29.4165L39.9165 16.3335H42.2498L41.0832 25.6668H48.0832L36.4165 39.6668H34.0832Z" fill="#6366F1"/>
<path d="M11.1561 77V68.36H16.6161V69.374H12.2241V72.08H15.8961V73.094H12.2241V75.986H16.6161V77H11.1561ZM18.1761 77V68.18H19.2441V77H18.1761ZM23.8521 77.18C23.2141 77.18 22.6581 77.0395 22.1841 76.7585C21.7101 76.4775 21.3416 76.0835 21.0786 75.5765C20.8156 75.0695 20.6841 74.478 20.6841 73.802C20.6841 73.094 20.8136 72.481 21.0726 71.963C21.3316 71.445 21.6946 71.045 22.1616 70.763C22.6286 70.481 23.1761 70.34 23.8041 70.34C24.4541 70.34 25.0081 70.49 25.4661 70.79C25.9241 71.09 26.2686 71.518 26.4996 72.074C26.7306 72.63 26.8291 73.292 26.7951 74.06H25.7181V73.676C25.7061 72.88 25.5441 72.285 25.2321 71.891C24.9201 71.497 24.4561 71.3 23.8401 71.3C23.1781 71.3 22.6756 71.512 22.3326 71.936C21.9896 72.36 21.8181 72.968 21.8181 73.76C21.8181 74.524 21.9896 75.116 22.3326 75.536C22.6756 75.956 23.1661 76.166 23.8041 76.166C24.2321 76.166 24.6041 76.068 24.9201 75.872C25.2361 75.676 25.4841 75.394 25.6641 75.026L26.6901 75.38C26.4361 75.952 26.0566 76.395 25.5516 76.709C25.0466 77.023 24.4801 77.18 23.8521 77.18ZM21.4581 74.06V73.202H26.2461V74.06H21.4581ZM30.8601 77.18C30.2021 77.18 29.6441 77.033 29.1861 76.739C28.7281 76.445 28.3791 76.0405 28.1391 75.5255C27.8991 75.0105 27.7761 74.422 27.7701 73.76C27.7761 73.086 27.9021 72.492 28.1481 71.978C28.3941 71.464 28.7471 71.0625 29.2071 70.7735C29.6671 70.4845 30.2221 70.34 30.8721 70.34C31.5541 70.34 32.1421 70.508 32.6361 70.844C33.1301 71.18 33.4621 71.64 33.6321 72.224L32.5761 72.542C32.4381 72.166 32.2161 71.874 31.9101 71.666C31.6041 71.458 31.2541 71.354 30.8601 71.354C30.4161 71.354 30.0501 71.457 29.7621 71.663C29.4741 71.869 29.2601 72.153 29.1201 72.515C28.9801 72.877 28.9081 73.292 28.9041 73.76C28.9101 74.482 29.0766 75.0635 29.4036 75.5045C29.7306 75.9455 30.2161 76.166 30.8601 76.166C31.2821 76.166 31.6331 76.069 31.9131 75.875C32.1931 75.681 32.4061 75.4 32.5521 75.032L33.6321 75.314C33.4061 75.918 33.0551 76.38 32.5791 76.7C32.1031 77.02 31.5301 77.18 30.8601 77.18ZM38.4801 77C38.0941 77.078 37.7146 77.11 37.3416 77.096C36.9686 77.082 36.6356 77.006 36.3426 76.868C36.0496 76.73 35.8281 76.514 35.6781 76.22C35.5501 75.966 35.4811 75.708 35.4711 75.446C35.4611 75.184 35.4561 74.886 35.4561 74.552V68.72H36.5241V74.504C36.5241 74.77 36.5271 74.9965 36.5331 75.1835C36.5391 75.3705 36.5801 75.532 36.6561 75.668C36.8001 75.926 37.0291 76.0765 37.3431 76.1195C37.6571 76.1625 38.0361 76.15 38.4801 76.082V77ZM34.1421 71.402V70.52H38.4801V71.402H34.1421ZM39.8001 77V70.52H40.7541V72.086L40.5981 71.882C40.6741 71.682 40.7731 71.498 40.8951 71.33C41.0171 71.162 41.1541 71.024 41.3061 70.916C41.4721 70.782 41.6616 70.679 41.8746 70.607C42.0876 70.535 42.3041 70.492 42.5241 70.478C42.7441 70.464 42.9501 70.478 43.1421 70.52V71.522C42.9181 71.464 42.6716 71.449 42.4026 71.477C42.1336 71.505 41.8861 71.602 41.6601 71.768C41.4501 71.918 41.2886 72.0985 41.1756 72.3095C41.0626 72.5205 40.9841 72.749 40.9401 72.995C40.8961 73.241 40.8741 73.492 40.8741 73.748V77H39.8001ZM44.4021 69.374V68.27H45.4701V69.374H44.4021ZM44.4021 77V70.52H45.4701V77H44.4021ZM50.0001 77.18C49.3421 77.18 48.7841 77.033 48.3261 76.739C47.8681 76.445 47.5191 76.0405 47.2791 75.5255C47.0391 75.0105 46.9161 74.422 46.9101 73.76C46.9161 73.086 47.0421 72.492 47.2881 71.978C47.5341 71.464 47.8871 71.0625 48.3471 70.7735C48.8071 70.4845 49.3621 70.34 50.0121 70.34C50.6941 70.34 51.2821 70.508 51.7761 70.844C52.2701 71.18 52.6021 71.64 52.7721 72.224L51.7161 72.542C51.5781 72.166 51.3561 71.874 51.0501 71.666C50.7441 71.458 50.3941 71.354 50.0001 71.354C49.5561 71.354 49.1901 71.457 48.9021 71.663C48.6141 71.869 48.4001 72.153 48.2601 72.515C48.1201 72.877 48.0481 73.292 48.0441 73.76C48.0501 74.482 48.2166 75.0635 48.5436 75.5045C48.8706 75.9455 49.3561 76.166 50.0001 76.166C50.4221 76.166 50.7731 76.069 51.0531 75.875C51.3331 75.681 51.5461 75.4 51.6921 75.032L52.7721 75.314C52.5461 75.918 52.1951 76.38 51.7191 76.7C51.2431 77.02 50.6701 77.18 50.0001 77.18ZM53.9421 69.374V68.27H55.0101V69.374H53.9421ZM53.9421 77V70.52H55.0101V77H53.9421ZM60.4281 77C60.0421 77.078 59.6626 77.11 59.2896 77.096C58.9166 77.082 58.5836 77.006 58.2906 76.868C57.9976 76.73 57.7761 76.514 57.6261 76.22C57.4981 75.966 57.4291 75.708 57.4191 75.446C57.4091 75.184 57.4041 74.886 57.4041 74.552V68.72H58.4721V74.504C58.4721 74.77 58.4751 74.9965 58.4811 75.1835C58.4871 75.3705 58.5281 75.532 58.6041 75.668C58.7481 75.926 58.9771 76.0765 59.2911 76.1195C59.6051 76.1625 59.9841 76.15 60.4281 76.082V77ZM56.0901 71.402V70.52H60.4281V71.402H56.0901ZM62.4681 79.88L63.7221 76.472L63.7401 77.48L60.9081 70.52H62.0301L64.2501 76.118H63.8661L65.9481 70.52H67.0341L63.5061 79.88H62.4681Z" fill="#475569"/>
</svg>
