<svg width="271" height="80" viewBox="0 0 271 80" fill="none" xmlns="http://www.w3.org/2000/svg">
<rect x="107.25" width="56" height="56" rx="16" fill="#EF4444" fill-opacity="0.1"/>
<path d="M125.917 40.25V27.4167H123.583V20.4167H129.65C129.553 20.2417 129.49 20.0569 129.461 19.8625C129.431 19.6681 129.417 19.4639 129.417 19.25C129.417 18.2778 129.757 17.4514 130.438 16.7708C131.118 16.0903 131.945 15.75 132.917 15.75C133.364 15.75 133.782 15.8326 134.171 15.9979C134.56 16.1632 134.92 16.3917 135.25 16.6833C135.581 16.3722 135.94 16.1389 136.329 15.9833C136.718 15.8278 137.136 15.75 137.583 15.75C138.556 15.75 139.382 16.0903 140.063 16.7708C140.743 17.4514 141.083 18.2778 141.083 19.25C141.083 19.4639 141.064 19.6632 141.025 19.8479C140.986 20.0326 140.928 20.2222 140.85 20.4167H146.917V27.4167H144.583V40.25H125.917V40.25M137.583 18.0833C137.253 18.0833 136.976 18.1951 136.752 18.4188C136.529 18.6424 136.417 18.9194 136.417 19.25C136.417 19.5806 136.529 19.8576 136.752 20.0813C136.976 20.3049 137.253 20.4167 137.583 20.4167C137.914 20.4167 138.191 20.3049 138.415 20.0813C138.638 19.8576 138.75 19.5806 138.75 19.25C138.75 18.9194 138.638 18.6424 138.415 18.4188C138.191 18.1951 137.914 18.0833 137.583 18.0833V18.0833M131.75 19.25C131.75 19.5806 131.862 19.8576 132.086 20.0813C132.309 20.3049 132.586 20.4167 132.917 20.4167C133.247 20.4167 133.524 20.3049 133.748 20.0813C133.972 19.8576 134.083 19.5806 134.083 19.25C134.083 18.9194 133.972 18.6424 133.748 18.4188C133.524 18.1951 133.247 18.0833 132.917 18.0833C132.586 18.0833 132.309 18.1951 132.086 18.4188C131.862 18.6424 131.75 18.9194 131.75 19.25V19.25M125.917 22.75V25.0833H134.083V22.75H125.917V22.75M134.083 37.9167V27.4167H128.25V37.9167H134.083V37.9167M136.417 37.9167H142.25V27.4167H136.417V37.9167V37.9167M144.583 25.0833V22.75H136.417V25.0833H144.583V25.0833" fill="#EF4444"/>
<path d="M116.764 77V68.36H120.178C120.262 68.36 120.361 68.363 120.476 68.369C120.591 68.375 120.704 68.388 120.814 68.408C121.28 68.48 121.672 68.6405 121.99 68.8895C122.308 69.1385 122.547 69.452 122.708 69.83C122.869 70.208 122.95 70.626 122.95 71.084C122.95 71.542 122.869 71.96 122.707 72.338C122.545 72.716 122.305 73.0295 121.987 73.2785C121.669 73.5275 121.278 73.688 120.814 73.76C120.704 73.776 120.591 73.788 120.475 73.796C120.359 73.804 120.26 73.808 120.178 73.808H117.832V77H116.764ZM117.832 72.794H120.142C120.218 72.794 120.304 72.79 120.401 72.782C120.498 72.774 120.592 72.76 120.682 72.74C120.958 72.678 121.182 72.5615 121.355 72.3905C121.528 72.2195 121.655 72.019 121.736 71.789C121.817 71.559 121.858 71.324 121.858 71.084C121.858 70.844 121.817 70.609 121.736 70.379C121.655 70.149 121.528 69.9485 121.355 69.7775C121.182 69.6065 120.958 69.49 120.682 69.428C120.592 69.406 120.498 69.3915 120.401 69.3845C120.304 69.3775 120.218 69.374 120.142 69.374H117.832V72.794ZM125.752 77.18C125.268 77.18 124.862 77.0915 124.535 76.9145C124.208 76.7375 123.962 76.5025 123.797 76.2095C123.632 75.9165 123.55 75.596 123.55 75.248C123.55 74.908 123.614 74.6135 123.743 74.3645C123.872 74.1155 124.055 73.9075 124.292 73.7405C124.529 73.5735 124.812 73.442 125.14 73.346C125.448 73.264 125.792 73.1915 126.173 73.1285C126.554 73.0655 126.941 73.0085 127.333 72.9575C127.725 72.9065 128.092 72.856 128.434 72.806L128.05 73.028C128.06 72.454 127.944 72.0285 127.703 71.7515C127.462 71.4745 127.046 71.336 126.454 71.336C126.062 71.336 125.718 71.4255 125.423 71.6045C125.128 71.7835 124.922 72.072 124.804 72.47L123.79 72.164C123.944 71.596 124.245 71.15 124.694 70.826C125.143 70.502 125.734 70.34 126.466 70.34C127.052 70.34 127.556 70.445 127.978 70.655C128.4 70.865 128.704 71.182 128.89 71.606C128.982 71.806 129.04 72.023 129.064 72.257C129.088 72.491 129.1 72.736 129.1 72.992V77H128.152V75.446L128.374 75.59C128.13 76.116 127.788 76.5125 127.349 76.7795C126.91 77.0465 126.378 77.18 125.752 77.18ZM125.914 76.286C126.298 76.286 126.631 76.2175 126.913 76.0805C127.195 75.9435 127.422 75.7615 127.594 75.5345C127.766 75.3075 127.878 75.06 127.93 74.792C127.988 74.592 128.02 74.3695 128.027 74.1245C128.034 73.8795 128.038 73.69 128.038 73.556L128.41 73.718C128.062 73.768 127.719 73.815 127.382 73.859C127.045 73.903 126.727 73.9495 126.427 73.9985C126.127 74.0475 125.858 74.106 125.62 74.174C125.442 74.23 125.276 74.3025 125.123 74.3915C124.97 74.4805 124.847 74.594 124.753 74.732C124.659 74.87 124.612 75.04 124.612 75.242C124.612 75.42 124.656 75.5885 124.745 75.7475C124.834 75.9065 124.974 76.036 125.165 76.136C125.356 76.236 125.606 76.286 125.914 76.286ZM133.39 77.18C132.732 77.18 132.174 77.033 131.716 76.739C131.258 76.445 130.909 76.0405 130.669 75.5255C130.429 75.0105 130.306 74.422 130.3 73.76C130.306 73.086 130.432 72.492 130.678 71.978C130.924 71.464 131.277 71.0625 131.737 70.7735C132.197 70.4845 132.752 70.34 133.402 70.34C134.084 70.34 134.672 70.508 135.166 70.844C135.66 71.18 135.992 71.64 136.162 72.224L135.106 72.542C134.968 72.166 134.746 71.874 134.44 71.666C134.134 71.458 133.784 71.354 133.39 71.354C132.946 71.354 132.58 71.457 132.292 71.663C132.004 71.869 131.79 72.153 131.65 72.515C131.51 72.877 131.438 73.292 131.434 73.76C131.44 74.482 131.606 75.0635 131.933 75.5045C132.26 75.9455 132.746 76.166 133.39 76.166C133.812 76.166 134.163 76.069 134.443 75.875C134.723 75.681 134.936 75.4 135.082 75.032L136.162 75.314C135.936 75.918 135.585 76.38 135.109 76.7C134.633 77.02 134.06 77.18 133.39 77.18ZM137.386 77L137.392 68.36H138.472V73.64L141.19 70.52H142.576L139.714 73.76L142.912 77H141.418L138.472 73.88V77H137.386ZM146.2 77.18C145.562 77.18 145.006 77.0395 144.532 76.7585C144.058 76.4775 143.689 76.0835 143.426 75.5765C143.163 75.0695 143.032 74.478 143.032 73.802C143.032 73.094 143.161 72.481 143.42 71.963C143.679 71.445 144.042 71.045 144.509 70.763C144.976 70.481 145.524 70.34 146.152 70.34C146.802 70.34 147.356 70.49 147.814 70.79C148.272 71.09 148.616 71.518 148.847 72.074C149.078 72.63 149.177 73.292 149.143 74.06H148.066V73.676C148.054 72.88 147.892 72.285 147.58 71.891C147.268 71.497 146.804 71.3 146.188 71.3C145.526 71.3 145.023 71.512 144.68 71.936C144.337 72.36 144.166 72.968 144.166 73.76C144.166 74.524 144.337 75.116 144.68 75.536C145.023 75.956 145.514 76.166 146.152 76.166C146.58 76.166 146.952 76.068 147.268 75.872C147.584 75.676 147.832 75.394 148.012 75.026L149.038 75.38C148.784 75.952 148.404 76.395 147.899 76.709C147.394 77.023 146.828 77.18 146.2 77.18ZM143.806 74.06V73.202H148.594V74.06H143.806ZM154.096 77C153.71 77.078 153.33 77.11 152.957 77.096C152.584 77.082 152.251 77.006 151.958 76.868C151.665 76.73 151.444 76.514 151.294 76.22C151.166 75.966 151.097 75.708 151.087 75.446C151.077 75.184 151.072 74.886 151.072 74.552V68.72H152.14V74.504C152.14 74.77 152.143 74.9965 152.149 75.1835C152.155 75.3705 152.196 75.532 152.272 75.668C152.416 75.926 152.645 76.0765 152.959 76.1195C153.273 76.1625 153.652 76.15 154.096 76.082V77ZM149.758 71.402V70.52H154.096V71.402H149.758Z" fill="#475569"/>
</svg>
