<svg width="78" height="80" viewBox="0 0 78 80" fill="none" xmlns="http://www.w3.org/2000/svg">
<rect x="10.75" width="56" height="56" rx="16" fill="#64748B" fill-opacity="0.1"/>
<path d="M32.9167 39.6668V32.6668H31.05C30.2722 32.6668 29.6111 32.3946 29.0667 31.8502C28.5222 31.3057 28.25 30.6446 28.25 29.8668C28.25 29.3029 28.4056 28.7828 28.7167 28.3064C29.0278 27.83 29.4361 27.4752 29.9417 27.2418L37.5833 23.8585V23.1002C36.8833 22.8474 36.3194 22.4245 35.8917 21.8314C35.4639 21.2384 35.25 20.5724 35.25 19.8335C35.25 18.8613 35.5903 18.0349 36.2708 17.3543C36.9514 16.6738 37.7778 16.3335 38.75 16.3335C39.7222 16.3335 40.5486 16.6738 41.2292 17.3543C41.9097 18.0349 42.25 18.8613 42.25 19.8335H39.9167C39.9167 19.5029 39.8049 19.2259 39.5813 19.0022C39.3576 18.7786 39.0806 18.6668 38.75 18.6668C38.4194 18.6668 38.1424 18.7786 37.9187 19.0022C37.6951 19.2259 37.5833 19.5029 37.5833 19.8335C37.5833 20.1641 37.6951 20.4411 37.9187 20.6647C38.1424 20.8884 38.4194 21.0002 38.75 21.0002C39.0806 21.0002 39.3576 21.112 39.5813 21.3356C39.8049 21.5592 39.9167 21.8363 39.9167 22.1668V23.8585L47.5583 27.2418C48.0639 27.4752 48.4722 27.83 48.7833 28.3064C49.0944 28.7828 49.25 29.3029 49.25 29.8668C49.25 30.6446 48.9778 31.3057 48.4333 31.8502C47.8889 32.3946 47.2278 32.6668 46.45 32.6668H44.5833V39.6668H32.9167V39.6668M31.05 30.3335H32.9167V29.1668H44.5833V30.3335H46.45C46.5861 30.3335 46.6979 30.2849 46.7854 30.1877C46.8729 30.0904 46.9167 29.9641 46.9167 29.8085C46.9167 29.7113 46.8924 29.6286 46.8438 29.5606C46.7951 29.4925 46.7222 29.4391 46.625 29.4002L38.75 25.9002L30.875 29.4002C30.7778 29.4391 30.7049 29.4925 30.6562 29.5606C30.6076 29.6286 30.5833 29.7113 30.5833 29.8085C30.5833 29.9641 30.6271 30.0904 30.7146 30.1877C30.8021 30.2849 30.9139 30.3335 31.05 30.3335V30.3335M35.25 37.3335H42.25V31.5002H35.25V37.3335V37.3335M35.25 31.5002V31.5002H42.25V31.5002H35.25V31.5002" fill="#64748B"/>
<path d="M16.9909 77V68.36H18.0589V75.986H22.0669V77H16.9909ZM24.9289 77.18C24.4449 77.18 24.0394 77.0915 23.7124 76.9145C23.3854 76.7375 23.1394 76.5025 22.9744 76.2095C22.8094 75.9165 22.7269 75.596 22.7269 75.248C22.7269 74.908 22.7914 74.6135 22.9204 74.3645C23.0494 74.1155 23.2324 73.9075 23.4694 73.7405C23.7064 73.5735 23.9889 73.442 24.3169 73.346C24.6249 73.264 24.9694 73.1915 25.3504 73.1285C25.7314 73.0655 26.1179 73.0085 26.5099 72.9575C26.9019 72.9065 27.2689 72.856 27.6109 72.806L27.2269 73.028C27.2369 72.454 27.1214 72.0285 26.8804 71.7515C26.6394 71.4745 26.2229 71.336 25.6309 71.336C25.2389 71.336 24.8954 71.4255 24.6004 71.6045C24.3054 71.7835 24.0989 72.072 23.9809 72.47L22.9669 72.164C23.1209 71.596 23.4224 71.15 23.8714 70.826C24.3204 70.502 24.9109 70.34 25.6429 70.34C26.2289 70.34 26.7329 70.445 27.1549 70.655C27.5769 70.865 27.8809 71.182 28.0669 71.606C28.1589 71.806 28.2169 72.023 28.2409 72.257C28.2649 72.491 28.2769 72.736 28.2769 72.992V77H27.3289V75.446L27.5509 75.59C27.3069 76.116 26.9654 76.5125 26.5264 76.7795C26.0874 77.0465 25.5549 77.18 24.9289 77.18ZM25.0909 76.286C25.4749 76.286 25.8079 76.2175 26.0899 76.0805C26.3719 75.9435 26.5989 75.7615 26.7709 75.5345C26.9429 75.3075 27.0549 75.06 27.1069 74.792C27.1649 74.592 27.1974 74.3695 27.2044 74.1245C27.2114 73.8795 27.2149 73.69 27.2149 73.556L27.5869 73.718C27.2389 73.768 26.8964 73.815 26.5594 73.859C26.2224 73.903 25.9039 73.9495 25.6039 73.9985C25.3039 74.0475 25.0349 74.106 24.7969 74.174C24.6189 74.23 24.4534 74.3025 24.3004 74.3915C24.1474 74.4805 24.0239 74.594 23.9299 74.732C23.8359 74.87 23.7889 75.04 23.7889 75.242C23.7889 75.42 23.8334 75.5885 23.9224 75.7475C24.0114 75.9065 24.1514 76.036 24.3424 76.136C24.5334 76.236 24.7829 76.286 25.0909 76.286ZM32.2969 77.168C31.8789 77.168 31.5214 77.102 31.2244 76.97C30.9274 76.838 30.6809 76.6625 30.4849 76.4435C30.2889 76.2245 30.1349 75.9805 30.0229 75.7115C29.9109 75.4425 29.8319 75.1685 29.7859 74.8895C29.7399 74.6105 29.7169 74.348 29.7169 74.102V70.52H30.7969V73.766C30.7969 74.07 30.8244 74.3645 30.8794 74.6495C30.9344 74.9345 31.0289 75.1905 31.1629 75.4175C31.2969 75.6445 31.4769 75.824 31.7029 75.956C31.9289 76.088 32.2129 76.154 32.5549 76.154C32.8229 76.154 33.0664 76.1085 33.2854 76.0175C33.5044 75.9265 33.6919 75.7895 33.8479 75.6065C34.0039 75.4235 34.1244 75.1925 34.2094 74.9135C34.2944 74.6345 34.3369 74.308 34.3369 73.934L35.0389 74.15C35.0389 74.776 34.9259 75.3145 34.6999 75.7655C34.4739 76.2165 34.1559 76.563 33.7459 76.805C33.3359 77.047 32.8529 77.168 32.2969 77.168ZM34.4569 77V75.266H34.3369V70.52H35.4109V77H34.4569ZM41.7049 77V73.754C41.7049 73.448 41.6774 73.153 41.6224 72.869C41.5674 72.585 41.4729 72.3295 41.3389 72.1025C41.2049 71.8755 41.0249 71.696 40.7989 71.564C40.5729 71.432 40.2889 71.366 39.9469 71.366C39.6789 71.366 39.4354 71.4115 39.2164 71.5025C38.9974 71.5935 38.8099 71.7305 38.6539 71.9135C38.4979 72.0965 38.3774 72.327 38.2924 72.605C38.2074 72.883 38.1649 73.21 38.1649 73.586L37.4629 73.37C37.4629 72.744 37.5759 72.2055 37.8019 71.7545C38.0279 71.3035 38.3459 70.957 38.7559 70.715C39.1659 70.473 39.6489 70.352 40.2049 70.352C40.6229 70.352 40.9804 70.418 41.2774 70.55C41.5744 70.682 41.8209 70.8575 42.0169 71.0765C42.2129 71.2955 42.3669 71.5395 42.4789 71.8085C42.5909 72.0775 42.6699 72.3515 42.7159 72.6305C42.7619 72.9095 42.7849 73.172 42.7849 73.418V77H41.7049ZM37.0849 77V70.52H38.0449V72.254H38.1649V77H37.0849ZM46.8289 77.18C46.2249 77.18 45.7064 77.0295 45.2734 76.7285C44.8404 76.4275 44.5074 76.0185 44.2744 75.5015C44.0414 74.9845 43.9249 74.402 43.9249 73.754C43.9249 73.106 44.0414 72.5245 44.2744 72.0095C44.5074 71.4945 44.8404 71.0875 45.2734 70.7885C45.7064 70.4895 46.2229 70.34 46.8229 70.34C47.4329 70.34 47.9464 70.4885 48.3634 70.7855C48.7804 71.0825 49.0959 71.4885 49.3099 72.0035C49.5239 72.5185 49.6309 73.102 49.6309 73.754C49.6309 74.4 49.5239 74.9815 49.3099 75.4985C49.0959 76.0155 48.7809 76.425 48.3649 76.727C47.9489 77.029 47.4369 77.18 46.8289 77.18ZM46.9609 76.202C47.3969 76.202 47.7549 76.097 48.0349 75.887C48.3149 75.677 48.5219 75.3875 48.6559 75.0185C48.7899 74.6495 48.8569 74.228 48.8569 73.754C48.8569 73.276 48.7894 72.8535 48.6544 72.4865C48.5194 72.1195 48.3139 71.833 48.0379 71.627C47.7619 71.421 47.4129 71.318 46.9909 71.318C46.5509 71.318 46.1879 71.426 45.9019 71.642C45.6159 71.858 45.4039 72.15 45.2659 72.518C45.1279 72.886 45.0589 73.298 45.0589 73.754C45.0589 74.214 45.1289 74.629 45.2689 74.999C45.4089 75.369 45.6194 75.662 45.9004 75.878C46.1814 76.094 46.5349 76.202 46.9609 76.202ZM48.8569 77V72.23H48.7369V68.36H49.8109V77H48.8569ZM51.4909 77V70.52H52.4449V72.086L52.2889 71.882C52.3649 71.682 52.4639 71.498 52.5859 71.33C52.7079 71.162 52.8449 71.024 52.9969 70.916C53.1629 70.782 53.3524 70.679 53.5654 70.607C53.7784 70.535 53.9949 70.492 54.2149 70.478C54.4349 70.464 54.6409 70.478 54.8329 70.52V71.522C54.6089 71.464 54.3624 71.449 54.0934 71.477C53.8244 71.505 53.5769 71.602 53.3509 71.768C53.1409 71.918 52.9794 72.0985 52.8664 72.3095C52.7534 72.5205 52.6749 72.749 52.6309 72.995C52.5869 73.241 52.5649 73.492 52.5649 73.748V77H51.4909ZM56.7529 79.88L58.0069 76.472L58.0249 77.48L55.1929 70.52H56.3149L58.5349 76.118H58.1509L60.2329 70.52H61.3189L57.7909 79.88H56.7529Z" fill="#475569"/>
</svg>
