<svg width="78" height="80" viewBox="0 0 78 80" fill="none" xmlns="http://www.w3.org/2000/svg">
<rect x="10.75" width="56" height="56" rx="16" fill="#06B6D4" fill-opacity="0.1"/>
<path d="M28.25 30.3332V27.9998H36.4167V30.3332H28.25V30.3332M28.25 25.6665V23.3332H41.0833V25.6665H28.25V25.6665M28.25 20.9998V18.6665H41.0833V20.9998H28.25V20.9998M38.75 37.3332V33.7457L45.1958 27.329C45.3708 27.154 45.5653 27.0276 45.7792 26.9498C45.9931 26.8721 46.2069 26.8332 46.4208 26.8332C46.6542 26.8332 46.8778 26.8769 47.0917 26.9644C47.3056 27.0519 47.5 27.1832 47.675 27.3582L48.7542 28.4373C48.9097 28.6123 49.0312 28.8068 49.1187 29.0207C49.2062 29.2346 49.25 29.4484 49.25 29.6623C49.25 29.8762 49.2111 30.095 49.1333 30.3186C49.0556 30.5422 48.9292 30.7415 48.7542 30.9165L42.3375 37.3332H38.75V37.3332M47.5 29.6623V29.6623L46.4208 28.5832V28.5832L47.5 29.6623V29.6623M40.5 35.5832H41.6083L45.1375 32.0248L44.6125 31.4707L44.0583 30.9457L40.5 34.4748V35.5832V35.5832M44.6125 31.4707L44.0583 30.9457V30.9457L45.1375 32.0248V32.0248L44.6125 31.4707V31.4707" fill="#06B6D4"/>
<path d="M24.4788 77V68.36H29.9388V69.374H25.5468V72.08H29.2188V73.094H25.5468V75.986H29.9388V77H24.4788ZM30.6588 77L33.1368 73.724L30.7128 70.52H31.9848L33.7608 72.896L35.5188 70.52H36.7908L34.3668 73.724L36.8508 77H35.5728L33.7608 74.552L31.9368 77H30.6588ZM39.4128 77.18C38.9288 77.18 38.5233 77.0915 38.1963 76.9145C37.8693 76.7375 37.6233 76.5025 37.4583 76.2095C37.2933 75.9165 37.2108 75.596 37.2108 75.248C37.2108 74.908 37.2753 74.6135 37.4043 74.3645C37.5333 74.1155 37.7163 73.9075 37.9533 73.7405C38.1903 73.5735 38.4728 73.442 38.8008 73.346C39.1088 73.264 39.4533 73.1915 39.8343 73.1285C40.2153 73.0655 40.6018 73.0085 40.9938 72.9575C41.3858 72.9065 41.7528 72.856 42.0948 72.806L41.7108 73.028C41.7208 72.454 41.6053 72.0285 41.3643 71.7515C41.1233 71.4745 40.7068 71.336 40.1148 71.336C39.7228 71.336 39.3793 71.4255 39.0843 71.6045C38.7893 71.7835 38.5828 72.072 38.4648 72.47L37.4508 72.164C37.6048 71.596 37.9063 71.15 38.3553 70.826C38.8043 70.502 39.3948 70.34 40.1268 70.34C40.7128 70.34 41.2168 70.445 41.6388 70.655C42.0608 70.865 42.3648 71.182 42.5508 71.606C42.6428 71.806 42.7008 72.023 42.7248 72.257C42.7488 72.491 42.7608 72.736 42.7608 72.992V77H41.8128V75.446L42.0348 75.59C41.7908 76.116 41.4493 76.5125 41.0103 76.7795C40.5713 77.0465 40.0388 77.18 39.4128 77.18ZM39.5748 76.286C39.9588 76.286 40.2918 76.2175 40.5738 76.0805C40.8558 75.9435 41.0828 75.7615 41.2548 75.5345C41.4268 75.3075 41.5388 75.06 41.5908 74.792C41.6488 74.592 41.6813 74.3695 41.6883 74.1245C41.6953 73.8795 41.6988 73.69 41.6988 73.556L42.0708 73.718C41.7228 73.768 41.3803 73.815 41.0433 73.859C40.7063 73.903 40.3878 73.9495 40.0878 73.9985C39.7878 74.0475 39.5188 74.106 39.2808 74.174C39.1028 74.23 38.9373 74.3025 38.7843 74.3915C38.6313 74.4805 38.5078 74.594 38.4138 74.732C38.3198 74.87 38.2728 75.04 38.2728 75.242C38.2728 75.42 38.3173 75.5885 38.4063 75.7475C38.4953 75.9065 38.6353 76.036 38.8263 76.136C39.0173 76.236 39.2668 76.286 39.5748 76.286ZM52.0668 77L52.0728 72.854C52.0728 72.37 51.9433 71.991 51.6843 71.717C51.4253 71.443 51.0908 71.306 50.6808 71.306C50.4388 71.306 50.2103 71.3615 49.9953 71.4725C49.7803 71.5835 49.6048 71.7555 49.4688 71.9885C49.3328 72.2215 49.2648 72.52 49.2648 72.884L48.7008 72.656C48.6908 72.196 48.7848 71.793 48.9828 71.447C49.1808 71.101 49.4523 70.832 49.7973 70.64C50.1423 70.448 50.5308 70.352 50.9628 70.352C51.6388 70.352 52.1708 70.5575 52.5588 70.9685C52.9468 71.3795 53.1408 71.93 53.1408 72.62L53.1348 77H52.0668ZM44.3148 77V70.52H45.2688V72.254H45.3888V77H44.3148ZM48.1968 77L48.2028 72.896C48.2028 72.402 48.0748 72.0135 47.8188 71.7305C47.5628 71.4475 47.2228 71.306 46.7988 71.306C46.3768 71.306 46.0363 71.4505 45.7773 71.7395C45.5183 72.0285 45.3888 72.41 45.3888 72.884L44.8248 72.548C44.8248 72.128 44.9248 71.7525 45.1248 71.4215C45.3248 71.0905 45.5968 70.8295 45.9408 70.6385C46.2848 70.4475 46.6748 70.352 47.1108 70.352C47.5468 70.352 47.9263 70.4445 48.2493 70.6295C48.5723 70.8145 48.8223 71.078 48.9993 71.42C49.1763 71.762 49.2648 72.168 49.2648 72.638L49.2588 77H48.1968Z" fill="#475569"/>
</svg>
