<svg width="78" height="80" viewBox="0 0 78 80" fill="none" xmlns="http://www.w3.org/2000/svg">
<rect x="10.75" width="56" height="56" rx="16" fill="#F43F5E" fill-opacity="0.1"/>
<path d="M31.7502 36.1667H45.7502L44.0877 24.5H33.4127L31.7502 36.1667ZM38.7502 22.1667C39.0807 22.1667 39.3578 22.0549 39.5814 21.8313C39.805 21.6076 39.9168 21.3306 39.9168 21C39.9168 20.6694 39.805 20.3924 39.5814 20.1688C39.3578 19.9451 39.0807 19.8333 38.7502 19.8333C38.4196 19.8333 38.1425 19.9451 37.9189 20.1688C37.6953 20.3924 37.5835 20.6694 37.5835 21C37.5835 21.3306 37.6953 21.6076 37.9189 21.8313C38.1425 22.0549 38.4196 22.1667 38.7502 22.1667ZM42.046 22.1667H44.0877C44.671 22.1667 45.1765 22.3611 45.6043 22.75C46.0321 23.1389 46.2946 23.6153 46.3918 24.1792L48.0543 35.8458C48.1516 36.5458 47.9717 37.1632 47.5147 37.6979C47.0578 38.2326 46.4696 38.5 45.7502 38.5H31.7502C31.0307 38.5 30.4425 38.2326 29.9856 37.6979C29.5286 37.1632 29.3488 36.5458 29.446 35.8458L31.1085 24.1792C31.2057 23.6153 31.4682 23.1389 31.896 22.75C32.3238 22.3611 32.8293 22.1667 33.4127 22.1667H35.4543C35.396 21.9722 35.3474 21.7826 35.3085 21.5979C35.2696 21.4132 35.2502 21.2139 35.2502 21C35.2502 20.0278 35.5904 19.2014 36.271 18.5208C36.9516 17.8403 37.7779 17.5 38.7502 17.5C39.7224 17.5 40.5488 17.8403 41.2293 18.5208C41.9099 19.2014 42.2502 20.0278 42.2502 21C42.2502 21.2139 42.2307 21.4132 42.1918 21.5979C42.1529 21.7826 42.1043 21.9722 42.046 22.1667ZM31.7502 36.1667H45.7502H31.7502Z" fill="#F43F5E"/>
<path d="M30.3859 77.18C29.7919 77.18 29.2509 77.0765 28.7629 76.8695C28.2749 76.6625 27.8554 76.364 27.5044 75.974C27.1534 75.584 26.8829 75.1115 26.6929 74.5565C26.5029 74.0015 26.4079 73.376 26.4079 72.68C26.4079 71.762 26.5714 70.967 26.8984 70.295C27.2254 69.623 27.6869 69.1035 28.2829 68.7365C28.8789 68.3695 29.5799 68.186 30.3859 68.186C31.3539 68.186 32.1339 68.4115 32.7259 68.8625C33.3179 69.3135 33.7259 69.928 33.9499 70.706L32.8699 70.928C32.6879 70.406 32.3914 69.989 31.9804 69.677C31.5694 69.365 31.0559 69.208 30.4399 69.206C29.7959 69.202 29.2604 69.3455 28.8334 69.6365C28.4064 69.9275 28.0854 70.335 27.8704 70.859C27.6554 71.383 27.5459 71.99 27.5419 72.68C27.5379 73.37 27.6434 73.975 27.8584 74.495C28.0734 75.015 28.3964 75.4215 28.8274 75.7145C29.2584 76.0075 29.7959 76.156 30.4399 76.16C30.9959 76.164 31.4634 76.0585 31.8424 75.8435C32.2214 75.6285 32.5154 75.317 32.7244 74.909C32.9334 74.501 33.0599 74.01 33.1039 73.436H31.2679V72.554H34.2319C34.2419 72.636 34.2484 72.732 34.2514 72.842C34.2544 72.952 34.2559 73.026 34.2559 73.064C34.2559 73.854 34.1089 74.5595 33.8149 75.1805C33.5209 75.8015 33.0864 76.29 32.5114 76.646C31.9364 77.002 31.2279 77.18 30.3859 77.18ZM36.3559 79.88L37.6099 76.472L37.6279 77.48L34.7959 70.52H35.9179L38.1379 76.118H37.7539L39.8359 70.52H40.9219L37.3939 79.88H36.3559ZM49.6579 77L49.6639 72.854C49.6639 72.37 49.5344 71.991 49.2754 71.717C49.0164 71.443 48.6819 71.306 48.2719 71.306C48.0299 71.306 47.8014 71.3615 47.5864 71.4725C47.3714 71.5835 47.1959 71.7555 47.0599 71.9885C46.9239 72.2215 46.8559 72.52 46.8559 72.884L46.2919 72.656C46.2819 72.196 46.3759 71.793 46.5739 71.447C46.7719 71.101 47.0434 70.832 47.3884 70.64C47.7334 70.448 48.1219 70.352 48.5539 70.352C49.2299 70.352 49.7619 70.5575 50.1499 70.9685C50.5379 71.3795 50.7319 71.93 50.7319 72.62L50.7259 77H49.6579ZM41.9059 77V70.52H42.8599V72.254H42.9799V77H41.9059ZM45.7879 77L45.7939 72.896C45.7939 72.402 45.6659 72.0135 45.4099 71.7305C45.1539 71.4475 44.8139 71.306 44.3899 71.306C43.9679 71.306 43.6274 71.4505 43.3684 71.7395C43.1094 72.0285 42.9799 72.41 42.9799 72.884L42.4159 72.548C42.4159 72.128 42.5159 71.7525 42.7159 71.4215C42.9159 71.0905 43.1879 70.8295 43.5319 70.6385C43.8759 70.4475 44.2659 70.352 44.7019 70.352C45.1379 70.352 45.5174 70.4445 45.8404 70.6295C46.1634 70.8145 46.4134 71.078 46.5904 71.42C46.7674 71.762 46.8559 72.168 46.8559 72.638L46.8499 77H45.7879Z" fill="#475569"/>
</svg>
