<svg width="78" height="80" viewBox="0 0 78 80" fill="none" xmlns="http://www.w3.org/2000/svg">
<rect x="10.75" width="56" height="56" rx="16" fill="#10B981" fill-opacity="0.1"/>
<path d="M31.75 36.1667V37.3333C31.75 37.6639 31.6382 37.941 31.4146 38.1646C31.191 38.3882 30.9139 38.5 30.5833 38.5H29.4167C29.0861 38.5 28.809 38.3882 28.5854 38.1646C28.3618 37.941 28.25 37.6639 28.25 37.3333V28L30.7 21C30.8167 20.65 31.0257 20.3681 31.3271 20.1542C31.6285 19.9403 31.9639 19.8333 32.3333 19.8333H35.25V17.5H42.25V19.8333H45.1667C45.5361 19.8333 45.8715 19.9403 46.1729 20.1542C46.4743 20.3681 46.6833 20.65 46.8 21L49.25 28V37.3333C49.25 37.6639 49.1382 37.941 48.9146 38.1646C48.691 38.3882 48.4139 38.5 48.0833 38.5H46.9167C46.5861 38.5 46.309 38.3882 46.0854 38.1646C45.8618 37.941 45.75 37.6639 45.75 37.3333V36.1667H31.75ZM31.5167 25.6667H45.9833L44.7583 22.1667H32.7417L31.5167 25.6667ZM30.5833 28V33.8333V28ZM33.5 32.6667C33.9861 32.6667 34.3993 32.4965 34.7396 32.1562C35.0799 31.816 35.25 31.4028 35.25 30.9167C35.25 30.4306 35.0799 30.0174 34.7396 29.6771C34.3993 29.3368 33.9861 29.1667 33.5 29.1667C33.0139 29.1667 32.6007 29.3368 32.2604 29.6771C31.9201 30.0174 31.75 30.4306 31.75 30.9167C31.75 31.4028 31.9201 31.816 32.2604 32.1562C32.6007 32.4965 33.0139 32.6667 33.5 32.6667ZM44 32.6667C44.4861 32.6667 44.8993 32.4965 45.2396 32.1562C45.5799 31.816 45.75 31.4028 45.75 30.9167C45.75 30.4306 45.5799 30.0174 45.2396 29.6771C44.8993 29.3368 44.4861 29.1667 44 29.1667C43.5139 29.1667 43.1007 29.3368 42.7604 29.6771C42.4201 30.0174 42.25 30.4306 42.25 30.9167C42.25 31.4028 42.4201 31.816 42.7604 32.1562C43.1007 32.4965 43.5139 32.6667 44 32.6667ZM30.5833 33.8333H46.9167V28H30.5833V33.8333Z" fill="#10B981"/>
<path d="M30.5509 77V69.374H27.6049V68.36H34.5649V69.374H31.6189V77H30.5509ZM36.5269 77.18C36.0429 77.18 35.6374 77.0915 35.3104 76.9145C34.9834 76.7375 34.7374 76.5025 34.5724 76.2095C34.4074 75.9165 34.3249 75.596 34.3249 75.248C34.3249 74.908 34.3894 74.6135 34.5184 74.3645C34.6474 74.1155 34.8304 73.9075 35.0674 73.7405C35.3044 73.5735 35.5869 73.442 35.9149 73.346C36.2229 73.264 36.5674 73.1915 36.9484 73.1285C37.3294 73.0655 37.7159 73.0085 38.1079 72.9575C38.4999 72.9065 38.8669 72.856 39.2089 72.806L38.8249 73.028C38.8349 72.454 38.7194 72.0285 38.4784 71.7515C38.2374 71.4745 37.8209 71.336 37.2289 71.336C36.8369 71.336 36.4934 71.4255 36.1984 71.6045C35.9034 71.7835 35.6969 72.072 35.5789 72.47L34.5649 72.164C34.7189 71.596 35.0204 71.15 35.4694 70.826C35.9184 70.502 36.5089 70.34 37.2409 70.34C37.8269 70.34 38.3309 70.445 38.7529 70.655C39.1749 70.865 39.4789 71.182 39.6649 71.606C39.7569 71.806 39.8149 72.023 39.8389 72.257C39.8629 72.491 39.8749 72.736 39.8749 72.992V77H38.9269V75.446L39.1489 75.59C38.9049 76.116 38.5634 76.5125 38.1244 76.7795C37.6854 77.0465 37.1529 77.18 36.5269 77.18ZM36.6889 76.286C37.0729 76.286 37.4059 76.2175 37.6879 76.0805C37.9699 75.9435 38.1969 75.7615 38.3689 75.5345C38.5409 75.3075 38.6529 75.06 38.7049 74.792C38.7629 74.592 38.7954 74.3695 38.8024 74.1245C38.8094 73.8795 38.8129 73.69 38.8129 73.556L39.1849 73.718C38.8369 73.768 38.4944 73.815 38.1574 73.859C37.8204 73.903 37.5019 73.9495 37.2019 73.9985C36.9019 74.0475 36.6329 74.106 36.3949 74.174C36.2169 74.23 36.0514 74.3025 35.8984 74.3915C35.7454 74.4805 35.6219 74.594 35.5279 74.732C35.4339 74.87 35.3869 75.04 35.3869 75.242C35.3869 75.42 35.4314 75.5885 35.5204 75.7475C35.6094 75.9065 35.7494 76.036 35.9404 76.136C36.1314 76.236 36.3809 76.286 36.6889 76.286ZM40.7149 77L43.1929 73.724L40.7689 70.52H42.0409L43.8169 72.896L45.5749 70.52H46.8469L44.4229 73.724L46.9069 77H45.6289L43.8169 74.552L41.9929 77H40.7149ZM47.9869 69.374V68.27H49.0549V69.374H47.9869ZM47.9869 77V70.52H49.0549V77H47.9869Z" fill="#475569"/>
</svg>
