<svg width="78" height="80" viewBox="0 0 78 80" fill="none" xmlns="http://www.w3.org/2000/svg">
<rect x="10.75" width="56" height="56" rx="16" fill="#EC4899" fill-opacity="0.1"/>
<path d="M35.8335 33.2502L44.0002 28.0002L35.8335 22.7502V33.2502V33.2502M38.7502 39.6668C37.1363 39.6668 35.6196 39.3606 34.2002 38.7481C32.7807 38.1356 31.546 37.3043 30.496 36.2543C29.446 35.2043 28.6147 33.9696 28.0022 32.5502C27.3897 31.1307 27.0835 29.6141 27.0835 28.0002C27.0835 26.3863 27.3897 24.8696 28.0022 23.4502C28.6147 22.0307 29.446 20.796 30.496 19.746C31.546 18.696 32.7807 17.8647 34.2002 17.2522C35.6196 16.6397 37.1363 16.3335 38.7502 16.3335C40.3641 16.3335 41.8807 16.6397 43.3002 17.2522C44.7196 17.8647 45.9543 18.696 47.0043 19.746C48.0543 20.796 48.8856 22.0307 49.4981 23.4502C50.1106 24.8696 50.4168 26.3863 50.4168 28.0002C50.4168 29.6141 50.1106 31.1307 49.4981 32.5502C48.8856 33.9696 48.0543 35.2043 47.0043 36.2543C45.9543 37.3043 44.7196 38.1356 43.3002 38.7481C41.8807 39.3606 40.3641 39.6668 38.7502 39.6668V39.6668M38.7502 37.3335C41.3557 37.3335 43.5627 36.4293 45.371 34.621C47.1793 32.8127 48.0835 30.6057 48.0835 28.0002C48.0835 25.3946 47.1793 23.1877 45.371 21.3793C43.5627 19.571 41.3557 18.6668 38.7502 18.6668C36.1446 18.6668 33.9377 19.571 32.1293 21.3793C30.321 23.1877 29.4168 25.3946 29.4168 28.0002C29.4168 30.6057 30.321 32.8127 32.1293 34.621C33.9377 36.4293 36.1446 37.3335 38.7502 37.3335V37.3335M38.7502 28.0002V28.0002V28.0002V28.0002V28.0002V28.0002V28.0002V28.0002V28.0002V28.0002" fill="#EC4899"/>
<path d="M25.8832 77L22.9912 68.36H24.1012L26.6152 75.866L29.1532 68.36H30.2632L27.3712 77H25.8832ZM31.0432 69.374V68.27H32.1112V69.374H31.0432ZM31.0432 77V70.52H32.1112V77H31.0432ZM36.4552 77.18C35.8512 77.18 35.3327 77.0295 34.8997 76.7285C34.4667 76.4275 34.1337 76.0185 33.9007 75.5015C33.6677 74.9845 33.5512 74.402 33.5512 73.754C33.5512 73.106 33.6677 72.5245 33.9007 72.0095C34.1337 71.4945 34.4667 71.0875 34.8997 70.7885C35.3327 70.4895 35.8492 70.34 36.4492 70.34C37.0592 70.34 37.5727 70.4885 37.9897 70.7855C38.4067 71.0825 38.7222 71.4885 38.9362 72.0035C39.1502 72.5185 39.2572 73.102 39.2572 73.754C39.2572 74.4 39.1502 74.9815 38.9362 75.4985C38.7222 76.0155 38.4072 76.425 37.9912 76.727C37.5752 77.029 37.0632 77.18 36.4552 77.18ZM36.5872 76.202C37.0232 76.202 37.3812 76.097 37.6612 75.887C37.9412 75.677 38.1482 75.3875 38.2822 75.0185C38.4162 74.6495 38.4832 74.228 38.4832 73.754C38.4832 73.276 38.4157 72.8535 38.2807 72.4865C38.1457 72.1195 37.9402 71.833 37.6642 71.627C37.3882 71.421 37.0392 71.318 36.6172 71.318C36.1772 71.318 35.8142 71.426 35.5282 71.642C35.2422 71.858 35.0302 72.15 34.8922 72.518C34.7542 72.886 34.6852 73.298 34.6852 73.754C34.6852 74.214 34.7552 74.629 34.8952 74.999C35.0352 75.369 35.2457 75.662 35.5267 75.878C35.8077 76.094 36.1612 76.202 36.5872 76.202ZM38.4832 77V72.23H38.3632V68.36H39.4372V77H38.4832ZM43.9252 77.18C43.2872 77.18 42.7312 77.0395 42.2572 76.7585C41.7832 76.4775 41.4147 76.0835 41.1517 75.5765C40.8887 75.0695 40.7572 74.478 40.7572 73.802C40.7572 73.094 40.8867 72.481 41.1457 71.963C41.4047 71.445 41.7677 71.045 42.2347 70.763C42.7017 70.481 43.2492 70.34 43.8772 70.34C44.5272 70.34 45.0812 70.49 45.5392 70.79C45.9972 71.09 46.3417 71.518 46.5727 72.074C46.8037 72.63 46.9022 73.292 46.8682 74.06H45.7912V73.676C45.7792 72.88 45.6172 72.285 45.3052 71.891C44.9932 71.497 44.5292 71.3 43.9132 71.3C43.2512 71.3 42.7487 71.512 42.4057 71.936C42.0627 72.36 41.8912 72.968 41.8912 73.76C41.8912 74.524 42.0627 75.116 42.4057 75.536C42.7487 75.956 43.2392 76.166 43.8772 76.166C44.3052 76.166 44.6772 76.068 44.9932 75.872C45.3092 75.676 45.5572 75.394 45.7372 75.026L46.7632 75.38C46.5092 75.952 46.1297 76.395 45.6247 76.709C45.1197 77.023 44.5532 77.18 43.9252 77.18ZM41.5312 74.06V73.202H46.3192V74.06H41.5312ZM50.9632 77.18C50.3172 77.18 49.7612 77.034 49.2952 76.742C48.8292 76.45 48.4707 76.0465 48.2197 75.5315C47.9687 75.0165 47.8432 74.424 47.8432 73.754C47.8432 73.076 47.9712 72.4805 48.2272 71.9675C48.4832 71.4545 48.8447 71.055 49.3117 70.769C49.7787 70.483 50.3292 70.34 50.9632 70.34C51.6112 70.34 52.1687 70.4855 52.6357 70.7765C53.1027 71.0675 53.4617 71.4695 53.7127 71.9825C53.9637 72.4955 54.0892 73.086 54.0892 73.754C54.0892 74.432 53.9627 75.028 53.7097 75.542C53.4567 76.056 53.0962 76.4575 52.6282 76.7465C52.1602 77.0355 51.6052 77.18 50.9632 77.18ZM50.9632 76.166C51.6332 76.166 52.1327 75.942 52.4617 75.494C52.7907 75.046 52.9552 74.466 52.9552 73.754C52.9552 73.024 52.7892 72.4415 52.4572 72.0065C52.1252 71.5715 51.6272 71.354 50.9632 71.354C50.5112 71.354 50.1387 71.456 49.8457 71.66C49.5527 71.864 49.3347 72.146 49.1917 72.506C49.0487 72.866 48.9772 73.282 48.9772 73.754C48.9772 74.484 49.1452 75.0685 49.4812 75.5075C49.8172 75.9465 50.3112 76.166 50.9632 76.166Z" fill="#475569"/>
</svg>
