<svg width="78" height="80" viewBox="0 0 78 80" fill="none" xmlns="http://www.w3.org/2000/svg">
<rect x="10.75" width="56" height="56" rx="16" fill="#06B6D4" fill-opacity="0.1"/>
<path d="M31.7498 37.3332C31.1082 37.3332 30.5589 37.1047 30.1019 36.6478C29.645 36.1908 29.4165 35.6415 29.4165 34.9998C29.4165 34.3582 29.645 33.8089 30.1019 33.3519C30.5589 32.895 31.1082 32.6665 31.7498 32.6665C32.3915 32.6665 32.9408 32.895 33.3978 33.3519C33.8547 33.8089 34.0832 34.3582 34.0832 34.9998C34.0832 35.6415 33.8547 36.1908 33.3978 36.6478C32.9408 37.1047 32.3915 37.3332 31.7498 37.3332V37.3332M38.7498 37.3332C38.1082 37.3332 37.5589 37.1047 37.1019 36.6478C36.645 36.1908 36.4165 35.6415 36.4165 34.9998C36.4165 34.3582 36.645 33.8089 37.1019 33.3519C37.5589 32.895 38.1082 32.6665 38.7498 32.6665C39.3915 32.6665 39.9408 32.895 40.3978 33.3519C40.8547 33.8089 41.0832 34.3582 41.0832 34.9998C41.0832 35.6415 40.8547 36.1908 40.3978 36.6478C39.9408 37.1047 39.3915 37.3332 38.7498 37.3332V37.3332M45.7498 37.3332C45.1082 37.3332 44.5589 37.1047 44.1019 36.6478C43.645 36.1908 43.4165 35.6415 43.4165 34.9998C43.4165 34.3582 43.645 33.8089 44.1019 33.3519C44.5589 32.895 45.1082 32.6665 45.7498 32.6665C46.3915 32.6665 46.9408 32.895 47.3978 33.3519C47.8547 33.8089 48.0832 34.3582 48.0832 34.9998C48.0832 35.6415 47.8547 36.1908 47.3978 36.6478C46.9408 37.1047 46.3915 37.3332 45.7498 37.3332V37.3332M31.7498 30.3332C31.1082 30.3332 30.5589 30.1047 30.1019 29.6478C29.645 29.1908 29.4165 28.6415 29.4165 27.9998C29.4165 27.3582 29.645 26.8089 30.1019 26.3519C30.5589 25.895 31.1082 25.6665 31.7498 25.6665C32.3915 25.6665 32.9408 25.895 33.3978 26.3519C33.8547 26.8089 34.0832 27.3582 34.0832 27.9998C34.0832 28.6415 33.8547 29.1908 33.3978 29.6478C32.9408 30.1047 32.3915 30.3332 31.7498 30.3332V30.3332M38.7498 30.3332C38.1082 30.3332 37.5589 30.1047 37.1019 29.6478C36.645 29.1908 36.4165 28.6415 36.4165 27.9998C36.4165 27.3582 36.645 26.8089 37.1019 26.3519C37.5589 25.895 38.1082 25.6665 38.7498 25.6665C39.3915 25.6665 39.9408 25.895 40.3978 26.3519C40.8547 26.8089 41.0832 27.3582 41.0832 27.9998C41.0832 28.6415 40.8547 29.1908 40.3978 29.6478C39.9408 30.1047 39.3915 30.3332 38.7498 30.3332V30.3332M45.7498 30.3332C45.1082 30.3332 44.5589 30.1047 44.1019 29.6478C43.645 29.1908 43.4165 28.6415 43.4165 27.9998C43.4165 27.3582 43.645 26.8089 44.1019 26.3519C44.5589 25.895 45.1082 25.6665 45.7498 25.6665C46.3915 25.6665 46.9408 25.895 47.3978 26.3519C47.8547 26.8089 48.0832 27.3582 48.0832 27.9998C48.0832 28.6415 47.8547 29.1908 47.3978 29.6478C46.9408 30.1047 46.3915 30.3332 45.7498 30.3332V30.3332M31.7498 23.3332C31.1082 23.3332 30.5589 23.1047 30.1019 22.6478C29.645 22.1908 29.4165 21.6415 29.4165 20.9998C29.4165 20.3582 29.645 19.8089 30.1019 19.3519C30.5589 18.895 31.1082 18.6665 31.7498 18.6665C32.3915 18.6665 32.9408 18.895 33.3978 19.3519C33.8547 19.8089 34.0832 20.3582 34.0832 20.9998C34.0832 21.6415 33.8547 22.1908 33.3978 22.6478C32.9408 23.1047 32.3915 23.3332 31.7498 23.3332V23.3332M38.7498 23.3332C38.1082 23.3332 37.5589 23.1047 37.1019 22.6478C36.645 22.1908 36.4165 21.6415 36.4165 20.9998C36.4165 20.3582 36.645 19.8089 37.1019 19.3519C37.5589 18.895 38.1082 18.6665 38.7498 18.6665C39.3915 18.6665 39.9408 18.895 40.3978 19.3519C40.8547 19.8089 41.0832 20.3582 41.0832 20.9998C41.0832 21.6415 40.8547 22.1908 40.3978 22.6478C39.9408 23.1047 39.3915 23.3332 38.7498 23.3332V23.3332M45.7498 23.3332C45.1082 23.3332 44.5589 23.1047 44.1019 22.6478C43.645 22.1908 43.4165 21.6415 43.4165 20.9998C43.4165 20.3582 43.645 19.8089 44.1019 19.3519C44.5589 18.895 45.1082 18.6665 45.7498 18.6665C46.3915 18.6665 46.9408 18.895 47.3978 19.3519C47.8547 19.8089 48.0832 20.3582 48.0832 20.9998C48.0832 21.6415 47.8547 22.1908 47.3978 22.6478C46.9408 23.1047 46.3915 23.3332 45.7498 23.3332V23.3332" fill="#06B6D4"/>
<path d="M6.61708 77.18C6.00508 77.18 5.45408 77.076 4.96408 76.868C4.47408 76.66 4.07008 76.3635 3.75208 75.9785C3.43408 75.5935 3.22708 75.136 3.13108 74.606L4.23508 74.432C4.37308 74.976 4.66308 75.401 5.10508 75.707C5.54708 76.013 6.06908 76.166 6.67108 76.166C7.05708 76.166 7.40708 76.105 7.72108 75.983C8.03508 75.861 8.28458 75.6865 8.46958 75.4595C8.65458 75.2325 8.74708 74.962 8.74708 74.648C8.74708 74.458 8.71358 74.2935 8.64658 74.1545C8.57958 74.0155 8.48958 73.8975 8.37658 73.8005C8.26358 73.7035 8.13458 73.621 7.98958 73.553C7.84458 73.485 7.69508 73.428 7.54108 73.382L5.33908 72.728C5.09908 72.658 4.86708 72.568 4.64308 72.458C4.41908 72.348 4.21908 72.21 4.04308 72.044C3.86708 71.878 3.72708 71.6775 3.62308 71.4425C3.51908 71.2075 3.46708 70.93 3.46708 70.61C3.46708 70.1 3.59958 69.6635 3.86458 69.3005C4.12958 68.9375 4.49008 68.6605 4.94608 68.4695C5.40208 68.2785 5.91708 68.184 6.49108 68.186C7.07108 68.19 7.59008 68.293 8.04808 68.495C8.50608 68.697 8.88558 68.986 9.18658 69.362C9.48758 69.738 9.69108 70.188 9.79708 70.712L8.66308 70.91C8.60308 70.56 8.47008 70.2575 8.26408 70.0025C8.05808 69.7475 7.80058 69.551 7.49158 69.413C7.18258 69.275 6.84508 69.204 6.47908 69.2C6.12508 69.196 5.80608 69.2525 5.52208 69.3695C5.23808 69.4865 5.01258 69.648 4.84558 69.854C4.67858 70.06 4.59508 70.296 4.59508 70.562C4.59508 70.828 4.67058 71.042 4.82158 71.204C4.97258 71.366 5.15908 71.4935 5.38108 71.5865C5.60308 71.6795 5.82108 71.756 6.03508 71.816L7.67908 72.29C7.86708 72.342 8.08408 72.414 8.33008 72.506C8.57608 72.598 8.81508 72.7275 9.04708 72.8945C9.27908 73.0615 9.47108 73.2815 9.62308 73.5545C9.77508 73.8275 9.85108 74.172 9.85108 74.588C9.85108 75.006 9.76758 75.3765 9.60058 75.6995C9.43358 76.0225 9.20208 76.2935 8.90608 76.5125C8.61008 76.7315 8.26658 76.8975 7.87558 77.0105C7.48458 77.1235 7.06508 77.18 6.61708 77.18ZM13.5711 77.168C13.1531 77.168 12.7956 77.102 12.4986 76.97C12.2016 76.838 11.9551 76.6625 11.7591 76.4435C11.5631 76.2245 11.4091 75.9805 11.2971 75.7115C11.1851 75.4425 11.1061 75.1685 11.0601 74.8895C11.0141 74.6105 10.9911 74.348 10.9911 74.102V70.52H12.0711V73.766C12.0711 74.07 12.0986 74.3645 12.1536 74.6495C12.2086 74.9345 12.3031 75.1905 12.4371 75.4175C12.5711 75.6445 12.7511 75.824 12.9771 75.956C13.2031 76.088 13.4871 76.154 13.8291 76.154C14.0971 76.154 14.3406 76.1085 14.5596 76.0175C14.7786 75.9265 14.9661 75.7895 15.1221 75.6065C15.2781 75.4235 15.3986 75.1925 15.4836 74.9135C15.5686 74.6345 15.6111 74.308 15.6111 73.934L16.3131 74.15C16.3131 74.776 16.2001 75.3145 15.9741 75.7655C15.7481 76.2165 15.4301 76.563 15.0201 76.805C14.6101 77.047 14.1271 77.168 13.5711 77.168ZM15.7311 77V75.266H15.6111V70.52H16.6851V77H15.7311ZM21.3411 77.18C20.7331 77.18 20.2211 77.029 19.8051 76.727C19.3891 76.425 19.0741 76.0155 18.8601 75.4985C18.6461 74.9815 18.5391 74.4 18.5391 73.754C18.5391 73.102 18.6461 72.5185 18.8601 72.0035C19.0741 71.4885 19.3896 71.0825 19.8066 70.7855C20.2236 70.4885 20.7371 70.34 21.3471 70.34C21.9471 70.34 22.4636 70.4895 22.8966 70.7885C23.3296 71.0875 23.6626 71.4945 23.8956 72.0095C24.1286 72.5245 24.2451 73.106 24.2451 73.754C24.2451 74.402 24.1286 74.9845 23.8956 75.5015C23.6626 76.0185 23.3296 76.4275 22.8966 76.7285C22.4636 77.0295 21.9451 77.18 21.3411 77.18ZM18.3591 77V68.36H19.4331V72.23H19.3131V77H18.3591ZM21.2091 76.202C21.6351 76.202 21.9886 76.094 22.2696 75.878C22.5506 75.662 22.7611 75.369 22.9011 74.999C23.0411 74.629 23.1111 74.214 23.1111 73.754C23.1111 73.298 23.0416 72.886 22.9026 72.518C22.7636 72.15 22.5516 71.858 22.2666 71.642C21.9816 71.426 21.6191 71.318 21.1791 71.318C20.7571 71.318 20.4081 71.421 20.1321 71.627C19.8561 71.833 19.6506 72.1195 19.5156 72.4865C19.3806 72.8535 19.3131 73.276 19.3131 73.754C19.3131 74.228 19.3801 74.6495 19.5141 75.0185C19.6481 75.3875 19.8551 75.677 20.1351 75.887C20.4151 76.097 20.7731 76.202 21.2091 76.202ZM27.9231 77.174C27.1491 77.174 26.5156 77.005 26.0226 76.667C25.5296 76.329 25.2271 75.856 25.1151 75.248L26.2071 75.074C26.2951 75.426 26.4971 75.705 26.8131 75.911C27.1291 76.117 27.5211 76.22 27.9891 76.22C28.4311 76.22 28.7786 76.1285 29.0316 75.9455C29.2846 75.7625 29.4111 75.512 29.4111 75.194C29.4111 75.012 29.3691 74.864 29.2851 74.75C29.2011 74.636 29.0281 74.529 28.7661 74.429C28.5041 74.329 28.1091 74.208 27.5811 74.066C27.0091 73.914 26.5586 73.7565 26.2296 73.5935C25.9006 73.4305 25.6666 73.241 25.5276 73.025C25.3886 72.809 25.3191 72.546 25.3191 72.236C25.3191 71.856 25.4231 71.5235 25.6311 71.2385C25.8391 70.9535 26.1296 70.7325 26.5026 70.5755C26.8756 70.4185 27.3111 70.34 27.8091 70.34C28.3011 70.34 28.7406 70.4185 29.1276 70.5755C29.5146 70.7325 29.8271 70.9535 30.0651 71.2385C30.3031 71.5235 30.4451 71.856 30.4911 72.236L29.3991 72.434C29.3471 72.088 29.1796 71.8145 28.8966 71.6135C28.6136 71.4125 28.2511 71.306 27.8091 71.294C27.3891 71.28 27.0481 71.355 26.7861 71.519C26.5241 71.683 26.3931 71.904 26.3931 72.182C26.3931 72.34 26.4416 72.4745 26.5386 72.5855C26.6356 72.6965 26.8176 72.802 27.0846 72.902C27.3516 73.002 27.7391 73.116 28.2471 73.244C28.8171 73.39 29.2671 73.5475 29.5971 73.7165C29.9271 73.8855 30.1626 74.0855 30.3036 74.3165C30.4446 74.5475 30.5151 74.83 30.5151 75.164C30.5151 75.79 30.2851 76.2815 29.8251 76.6385C29.3651 76.9955 28.7311 77.174 27.9231 77.174ZM34.5711 77.18C33.9131 77.18 33.3551 77.033 32.8971 76.739C32.4391 76.445 32.0901 76.0405 31.8501 75.5255C31.6101 75.0105 31.4871 74.422 31.4811 73.76C31.4871 73.086 31.6131 72.492 31.8591 71.978C32.1051 71.464 32.4581 71.0625 32.9181 70.7735C33.3781 70.4845 33.9331 70.34 34.5831 70.34C35.2651 70.34 35.8531 70.508 36.3471 70.844C36.8411 71.18 37.1731 71.64 37.3431 72.224L36.2871 72.542C36.1491 72.166 35.9271 71.874 35.6211 71.666C35.3151 71.458 34.9651 71.354 34.5711 71.354C34.1271 71.354 33.7611 71.457 33.4731 71.663C33.1851 71.869 32.9711 72.153 32.8311 72.515C32.6911 72.877 32.6191 73.292 32.6151 73.76C32.6211 74.482 32.7876 75.0635 33.1146 75.5045C33.4416 75.9455 33.9271 76.166 34.5711 76.166C34.9931 76.166 35.3441 76.069 35.6241 75.875C35.9041 75.681 36.1171 75.4 36.2631 75.032L37.3431 75.314C37.1171 75.918 36.7661 76.38 36.2901 76.7C35.8141 77.02 35.2411 77.18 34.5711 77.18ZM38.5731 77V70.52H39.5271V72.086L39.3711 71.882C39.4471 71.682 39.5461 71.498 39.6681 71.33C39.7901 71.162 39.9271 71.024 40.0791 70.916C40.2451 70.782 40.4346 70.679 40.6476 70.607C40.8606 70.535 41.0771 70.492 41.2971 70.478C41.5171 70.464 41.7231 70.478 41.9151 70.52V71.522C41.6911 71.464 41.4446 71.449 41.1756 71.477C40.9066 71.505 40.6591 71.602 40.4331 71.768C40.2231 71.918 40.0616 72.0985 39.9486 72.3095C39.8356 72.5205 39.7571 72.749 39.7131 72.995C39.6691 73.241 39.6471 73.492 39.6471 73.748V77H38.5731ZM43.1751 69.374V68.27H44.2431V69.374H43.1751ZM43.1751 77V70.52H44.2431V77H43.1751ZM49.0191 77.18C48.4111 77.18 47.8991 77.029 47.4831 76.727C47.0671 76.425 46.7521 76.0155 46.5381 75.4985C46.3241 74.9815 46.2171 74.4 46.2171 73.754C46.2171 73.102 46.3241 72.5185 46.5381 72.0035C46.7521 71.4885 47.0676 71.0825 47.4846 70.7855C47.9016 70.4885 48.4151 70.34 49.0251 70.34C49.6251 70.34 50.1416 70.4895 50.5746 70.7885C51.0076 71.0875 51.3406 71.4945 51.5736 72.0095C51.8066 72.5245 51.9231 73.106 51.9231 73.754C51.9231 74.402 51.8066 74.9845 51.5736 75.5015C51.3406 76.0185 51.0076 76.4275 50.5746 76.7285C50.1416 77.0295 49.6231 77.18 49.0191 77.18ZM46.0371 79.88V70.52H46.9911V75.29H47.1111V79.88H46.0371ZM48.8871 76.202C49.3131 76.202 49.6666 76.094 49.9476 75.878C50.2286 75.662 50.4391 75.369 50.5791 74.999C50.7191 74.629 50.7891 74.214 50.7891 73.754C50.7891 73.298 50.7196 72.886 50.5806 72.518C50.4416 72.15 50.2296 71.858 49.9446 71.642C49.6596 71.426 49.2971 71.318 48.8571 71.318C48.4351 71.318 48.0861 71.421 47.8101 71.627C47.5341 71.833 47.3286 72.1195 47.1936 72.4865C47.0586 72.8535 46.9911 73.276 46.9911 73.754C46.9911 74.228 47.0581 74.6495 47.1921 75.0185C47.3261 75.3875 47.5331 75.677 47.8131 75.887C48.0931 76.097 48.4511 76.202 48.8871 76.202ZM56.8611 77C56.4751 77.078 56.0956 77.11 55.7226 77.096C55.3496 77.082 55.0166 77.006 54.7236 76.868C54.4306 76.73 54.2091 76.514 54.0591 76.22C53.9311 75.966 53.8621 75.708 53.8521 75.446C53.8421 75.184 53.8371 74.886 53.8371 74.552V68.72H54.9051V74.504C54.9051 74.77 54.9081 74.9965 54.9141 75.1835C54.9201 75.3705 54.9611 75.532 55.0371 75.668C55.1811 75.926 55.4101 76.0765 55.7241 76.1195C56.0381 76.1625 56.4171 76.15 56.8611 76.082V77ZM52.5231 71.402V70.52H56.8611V71.402H52.5231ZM58.3011 69.374V68.27H59.3691V69.374H58.3011ZM58.3011 77V70.52H59.3691V77H58.3011ZM63.9291 77.18C63.2831 77.18 62.7271 77.034 62.2611 76.742C61.7951 76.45 61.4366 76.0465 61.1856 75.5315C60.9346 75.0165 60.8091 74.424 60.8091 73.754C60.8091 73.076 60.9371 72.4805 61.1931 71.9675C61.4491 71.4545 61.8106 71.055 62.2776 70.769C62.7446 70.483 63.2951 70.34 63.9291 70.34C64.5771 70.34 65.1346 70.4855 65.6016 70.7765C66.0686 71.0675 66.4276 71.4695 66.6786 71.9825C66.9296 72.4955 67.0551 73.086 67.0551 73.754C67.0551 74.432 66.9286 75.028 66.6756 75.542C66.4226 76.056 66.0621 76.4575 65.5941 76.7465C65.1261 77.0355 64.5711 77.18 63.9291 77.18ZM63.9291 76.166C64.5991 76.166 65.0986 75.942 65.4276 75.494C65.7566 75.046 65.9211 74.466 65.9211 73.754C65.9211 73.024 65.7551 72.4415 65.4231 72.0065C65.0911 71.5715 64.5931 71.354 63.9291 71.354C63.4771 71.354 63.1046 71.456 62.8116 71.66C62.5186 71.864 62.3006 72.146 62.1576 72.506C62.0146 72.866 61.9431 73.282 61.9431 73.754C61.9431 74.484 62.1111 75.0685 62.4471 75.5075C62.7831 75.9465 63.2771 76.166 63.9291 76.166ZM72.9891 77V73.754C72.9891 73.448 72.9616 73.153 72.9066 72.869C72.8516 72.585 72.7571 72.3295 72.6231 72.1025C72.4891 71.8755 72.3091 71.696 72.0831 71.564C71.8571 71.432 71.5731 71.366 71.2311 71.366C70.9631 71.366 70.7196 71.4115 70.5006 71.5025C70.2816 71.5935 70.0941 71.7305 69.9381 71.9135C69.7821 72.0965 69.6616 72.327 69.5766 72.605C69.4916 72.883 69.4491 73.21 69.4491 73.586L68.7471 73.37C68.7471 72.744 68.8601 72.2055 69.0861 71.7545C69.3121 71.3035 69.6301 70.957 70.0401 70.715C70.4501 70.473 70.9331 70.352 71.4891 70.352C71.9071 70.352 72.2646 70.418 72.5616 70.55C72.8586 70.682 73.1051 70.8575 73.3011 71.0765C73.4971 71.2955 73.6511 71.5395 73.7631 71.8085C73.8751 72.0775 73.9541 72.3515 74.0001 72.6305C74.0461 72.9095 74.0691 73.172 74.0691 73.418V77H72.9891ZM68.3691 77V70.52H69.3291V72.254H69.4491V77H68.3691Z" fill="#475569"/>
</svg>
