<svg width="78" height="80" viewBox="0 0 78 80" fill="none" xmlns="http://www.w3.org/2000/svg">
<rect x="10.75" width="56" height="56" rx="16" fill="#13A4EC" fill-opacity="0.1"/>
<path d="M29.8833 38.5L28.25 36.8667L40.2083 24.9083C39.8583 24.0917 39.8097 23.1681 40.0625 22.1375C40.3153 21.1069 40.8694 20.1833 41.725 19.3667C42.7556 18.3361 43.9028 17.7333 45.1667 17.5583C46.4306 17.3833 47.4611 17.6944 48.2583 18.4917C49.0556 19.2889 49.3667 20.3194 49.1917 21.5833C49.0167 22.8472 48.4139 23.9944 47.3833 25.025C46.5667 25.8806 45.6431 26.4347 44.6125 26.6875C43.5819 26.9403 42.6583 26.8917 41.8417 26.5417L40.3833 28L49.25 36.8667L47.6167 38.5L38.75 29.6917L29.8833 38.5ZM33.325 28.525L29.825 25.025C28.775 23.975 28.25 22.7208 28.25 21.2625C28.25 19.8042 28.775 18.55 29.825 17.5L37.0583 24.7917L33.325 28.525Z" fill="#13A4EC"/>
<path d="M21.0018 77V68.36H23.6658C23.7518 68.36 23.9048 68.362 24.1248 68.366C24.3448 68.37 24.5558 68.386 24.7578 68.414C25.4238 68.502 25.9823 68.745 26.4333 69.143C26.8843 69.541 27.2238 70.0465 27.4518 70.6595C27.6798 71.2725 27.7938 71.946 27.7938 72.68C27.7938 73.416 27.6798 74.0905 27.4518 74.7035C27.2238 75.3165 26.8843 75.8215 26.4333 76.2185C25.9823 76.6155 25.4238 76.858 24.7578 76.946C24.5578 76.972 24.3463 76.9875 24.1233 76.9925C23.9003 76.9975 23.7478 77 23.6658 77H21.0018ZM22.0998 75.98H23.6658C23.8158 75.98 23.9853 75.9755 24.1743 75.9665C24.3633 75.9575 24.5278 75.94 24.6678 75.914C25.1398 75.828 25.5218 75.6305 25.8138 75.3215C26.1058 75.0125 26.3198 74.6285 26.4558 74.1695C26.5918 73.7105 26.6598 73.214 26.6598 72.68C26.6598 72.136 26.5908 71.6345 26.4528 71.1755C26.3148 70.7165 26.0993 70.3345 25.8063 70.0295C25.5133 69.7245 25.1338 69.53 24.6678 69.446C24.5278 69.418 24.3618 69.4 24.1698 69.392C23.9778 69.384 23.8098 69.38 23.6658 69.38H22.0998V75.98ZM29.2938 69.374V68.27H30.3618V69.374H29.2938ZM29.2938 77V70.52H30.3618V77H29.2938ZM36.7758 77V73.754C36.7758 73.448 36.7483 73.153 36.6933 72.869C36.6383 72.585 36.5438 72.3295 36.4098 72.1025C36.2758 71.8755 36.0958 71.696 35.8698 71.564C35.6438 71.432 35.3598 71.366 35.0178 71.366C34.7498 71.366 34.5063 71.4115 34.2873 71.5025C34.0683 71.5935 33.8808 71.7305 33.7248 71.9135C33.5688 72.0965 33.4483 72.327 33.3633 72.605C33.2783 72.883 33.2358 73.21 33.2358 73.586L32.5338 73.37C32.5338 72.744 32.6468 72.2055 32.8728 71.7545C33.0988 71.3035 33.4168 70.957 33.8268 70.715C34.2368 70.473 34.7198 70.352 35.2758 70.352C35.6938 70.352 36.0513 70.418 36.3483 70.55C36.6453 70.682 36.8918 70.8575 37.0878 71.0765C37.2838 71.2955 37.4378 71.5395 37.5498 71.8085C37.6618 72.0775 37.7408 72.3515 37.7868 72.6305C37.8328 72.9095 37.8558 73.172 37.8558 73.418V77H36.7758ZM32.1558 77V70.52H33.1158V72.254H33.2358V77H32.1558ZM44.0298 77V73.754C44.0298 73.448 44.0023 73.153 43.9473 72.869C43.8923 72.585 43.7978 72.3295 43.6638 72.1025C43.5298 71.8755 43.3498 71.696 43.1238 71.564C42.8978 71.432 42.6138 71.366 42.2718 71.366C42.0038 71.366 41.7603 71.4115 41.5413 71.5025C41.3223 71.5935 41.1348 71.7305 40.9788 71.9135C40.8228 72.0965 40.7023 72.327 40.6173 72.605C40.5323 72.883 40.4898 73.21 40.4898 73.586L39.7878 73.37C39.7878 72.744 39.9008 72.2055 40.1268 71.7545C40.3528 71.3035 40.6708 70.957 41.0808 70.715C41.4908 70.473 41.9738 70.352 42.5298 70.352C42.9478 70.352 43.3053 70.418 43.6023 70.55C43.8993 70.682 44.1458 70.8575 44.3418 71.0765C44.5378 71.2955 44.6918 71.5395 44.8038 71.8085C44.9158 72.0775 44.9948 72.3515 45.0408 72.6305C45.0868 72.9095 45.1098 73.172 45.1098 73.418V77H44.0298ZM39.4098 77V70.52H40.3698V72.254H40.4898V77H39.4098ZM49.4178 77.18C48.7798 77.18 48.2238 77.0395 47.7498 76.7585C47.2758 76.4775 46.9073 76.0835 46.6443 75.5765C46.3813 75.0695 46.2498 74.478 46.2498 73.802C46.2498 73.094 46.3793 72.481 46.6383 71.963C46.8973 71.445 47.2603 71.045 47.7273 70.763C48.1943 70.481 48.7418 70.34 49.3698 70.34C50.0198 70.34 50.5738 70.49 51.0318 70.79C51.4898 71.09 51.8343 71.518 52.0653 72.074C52.2963 72.63 52.3948 73.292 52.3608 74.06H51.2838V73.676C51.2718 72.88 51.1098 72.285 50.7978 71.891C50.4858 71.497 50.0218 71.3 49.4058 71.3C48.7438 71.3 48.2413 71.512 47.8983 71.936C47.5553 72.36 47.3838 72.968 47.3838 73.76C47.3838 74.524 47.5553 75.116 47.8983 75.536C48.2413 75.956 48.7318 76.166 49.3698 76.166C49.7978 76.166 50.1698 76.068 50.4858 75.872C50.8018 75.676 51.0498 75.394 51.2298 75.026L52.2558 75.38C52.0018 75.952 51.6223 76.395 51.1173 76.709C50.6123 77.023 50.0458 77.18 49.4178 77.18ZM47.0238 74.06V73.202H51.8118V74.06H47.0238ZM53.6958 77V70.52H54.6498V72.086L54.4938 71.882C54.5698 71.682 54.6688 71.498 54.7908 71.33C54.9128 71.162 55.0498 71.024 55.2018 70.916C55.3678 70.782 55.5573 70.679 55.7703 70.607C55.9833 70.535 56.1998 70.492 56.4198 70.478C56.6398 70.464 56.8458 70.478 57.0378 70.52V71.522C56.8138 71.464 56.5673 71.449 56.2983 71.477C56.0293 71.505 55.7818 71.602 55.5558 71.768C55.3458 71.918 55.1843 72.0985 55.0713 72.3095C54.9583 72.5205 54.8798 72.749 54.8358 72.995C54.7918 73.241 54.7698 73.492 54.7698 73.748V77H53.6958Z" fill="#475569"/>
</svg>
