<svg width="78" height="80" viewBox="0 0 78 80" fill="none" xmlns="http://www.w3.org/2000/svg">
<rect x="10.75" width="56" height="56" rx="16" fill="#64748B" fill-opacity="0.1"/>
<path d="M44.7583 38.15L37.7 31.0333C37.3111 31.1889 36.9174 31.3056 36.5188 31.3833C36.1201 31.4611 35.6972 31.5 35.25 31.5C33.3056 31.5 31.6528 30.8194 30.2917 29.4583C28.9306 28.0972 28.25 26.4444 28.25 24.5C28.25 23.8 28.3472 23.134 28.5417 22.5021C28.7361 21.8701 29.0083 21.2722 29.3583 20.7083L33.6167 24.9667L35.7167 22.8667L31.4583 18.6083C32.0222 18.2583 32.6201 17.9861 33.2521 17.7917C33.884 17.5972 34.55 17.5 35.25 17.5C37.1944 17.5 38.8472 18.1806 40.2083 19.5417C41.5694 20.9028 42.25 22.5556 42.25 24.5C42.25 24.9472 42.2111 25.3701 42.1333 25.7688C42.0556 26.1674 41.9389 26.5611 41.7833 26.95L48.9 34.0083C49.1333 34.2417 49.25 34.5236 49.25 34.8542C49.25 35.1847 49.1333 35.4667 48.9 35.7L46.45 38.15C46.2167 38.3833 45.9347 38.5 45.6042 38.5C45.2736 38.5 44.9917 38.3833 44.7583 38.15V38.15M45.6042 35.6708L46.3917 34.8833L38.925 27.4167C39.275 27.0278 39.5278 26.5757 39.6833 26.0604C39.8389 25.5451 39.9167 25.025 39.9167 24.5C39.9167 23.3333 39.5424 22.3174 38.7937 21.4521C38.0451 20.5868 37.1167 20.0667 36.0083 19.8917L38.1667 22.05C38.4 22.2833 38.5167 22.5556 38.5167 22.8667C38.5167 23.1778 38.4 23.45 38.1667 23.6833L34.4333 27.4167C34.2 27.65 33.9278 27.7667 33.6167 27.7667C33.3056 27.7667 33.0333 27.65 32.8 27.4167L30.6417 25.2583C30.8167 26.3667 31.3368 27.2951 32.2021 28.0437C33.0674 28.7924 34.0833 29.1667 35.25 29.1667C35.7556 29.1667 36.2611 29.0889 36.7667 28.9333C37.2722 28.7778 37.7292 28.5347 38.1375 28.2042L45.6042 35.6708V35.6708M38.5167 27.7667V27.7667V27.7667V27.7667V27.7667V27.7667V27.7667V27.7667V27.7667V27.7667V27.7667V27.7667V27.7667V27.7667V27.7667V27.7667V27.7667V27.7667V27.7667V27.7667" fill="#64748B"/>
<path d="M21.5842 77V68.36H24.9982C25.0822 68.36 25.1817 68.363 25.2967 68.369C25.4117 68.375 25.5242 68.388 25.6342 68.408C26.1002 68.48 26.4922 68.6405 26.8102 68.8895C27.1282 69.1385 27.3677 69.452 27.5287 69.83C27.6897 70.208 27.7702 70.626 27.7702 71.084C27.7702 71.754 27.5962 72.3335 27.2482 72.8225C26.9002 73.3115 26.3902 73.618 25.7182 73.742L25.3102 73.808H22.6522V77H21.5842ZM26.7262 77L25.0222 73.484L26.0782 73.16L27.9502 77H26.7262ZM22.6522 72.794H24.9622C25.0382 72.794 25.1247 72.79 25.2217 72.782C25.3187 72.774 25.4122 72.76 25.5022 72.74C25.7782 72.678 26.0027 72.5615 26.1757 72.3905C26.3487 72.2195 26.4757 72.019 26.5567 71.789C26.6377 71.559 26.6782 71.324 26.6782 71.084C26.6782 70.844 26.6377 70.609 26.5567 70.379C26.4757 70.149 26.3487 69.9485 26.1757 69.7775C26.0027 69.6065 25.7782 69.49 25.5022 69.428C25.4122 69.406 25.3187 69.3915 25.2217 69.3845C25.1247 69.3775 25.0382 69.374 24.9622 69.374H22.6522V72.794ZM32.0782 77.18C31.4402 77.18 30.8842 77.0395 30.4102 76.7585C29.9362 76.4775 29.5677 76.0835 29.3047 75.5765C29.0417 75.0695 28.9102 74.478 28.9102 73.802C28.9102 73.094 29.0397 72.481 29.2987 71.963C29.5577 71.445 29.9207 71.045 30.3877 70.763C30.8547 70.481 31.4022 70.34 32.0302 70.34C32.6802 70.34 33.2342 70.49 33.6922 70.79C34.1502 71.09 34.4947 71.518 34.7257 72.074C34.9567 72.63 35.0552 73.292 35.0212 74.06H33.9442V73.676C33.9322 72.88 33.7702 72.285 33.4582 71.891C33.1462 71.497 32.6822 71.3 32.0662 71.3C31.4042 71.3 30.9017 71.512 30.5587 71.936C30.2157 72.36 30.0442 72.968 30.0442 73.76C30.0442 74.524 30.2157 75.116 30.5587 75.536C30.9017 75.956 31.3922 76.166 32.0302 76.166C32.4582 76.166 32.8302 76.068 33.1462 75.872C33.4622 75.676 33.7102 75.394 33.8902 75.026L34.9162 75.38C34.6622 75.952 34.2827 76.395 33.7777 76.709C33.2727 77.023 32.7062 77.18 32.0782 77.18ZM29.6842 74.06V73.202H34.4722V74.06H29.6842ZM39.1522 77.18C38.5442 77.18 38.0322 77.029 37.6162 76.727C37.2002 76.425 36.8852 76.0155 36.6712 75.4985C36.4572 74.9815 36.3502 74.4 36.3502 73.754C36.3502 73.102 36.4572 72.5185 36.6712 72.0035C36.8852 71.4885 37.2007 71.0825 37.6177 70.7855C38.0347 70.4885 38.5482 70.34 39.1582 70.34C39.7582 70.34 40.2747 70.4895 40.7077 70.7885C41.1407 71.0875 41.4737 71.4945 41.7067 72.0095C41.9397 72.5245 42.0562 73.106 42.0562 73.754C42.0562 74.402 41.9397 74.9845 41.7067 75.5015C41.4737 76.0185 41.1407 76.4275 40.7077 76.7285C40.2747 77.0295 39.7562 77.18 39.1522 77.18ZM36.1702 79.88V70.52H37.1242V75.29H37.2442V79.88H36.1702ZM39.0202 76.202C39.4462 76.202 39.7997 76.094 40.0807 75.878C40.3617 75.662 40.5722 75.369 40.7122 74.999C40.8522 74.629 40.9222 74.214 40.9222 73.754C40.9222 73.298 40.8527 72.886 40.7137 72.518C40.5747 72.15 40.3627 71.858 40.0777 71.642C39.7927 71.426 39.4302 71.318 38.9902 71.318C38.5682 71.318 38.2192 71.421 37.9432 71.627C37.6672 71.833 37.4617 72.1195 37.3267 72.4865C37.1917 72.8535 37.1242 73.276 37.1242 73.754C37.1242 74.228 37.1912 74.6495 37.3252 75.0185C37.4592 75.3875 37.6662 75.677 37.9462 75.887C38.2262 76.097 38.5842 76.202 39.0202 76.202ZM45.2182 77.18C44.7342 77.18 44.3287 77.0915 44.0017 76.9145C43.6747 76.7375 43.4287 76.5025 43.2637 76.2095C43.0987 75.9165 43.0162 75.596 43.0162 75.248C43.0162 74.908 43.0807 74.6135 43.2097 74.3645C43.3387 74.1155 43.5217 73.9075 43.7587 73.7405C43.9957 73.5735 44.2782 73.442 44.6062 73.346C44.9142 73.264 45.2587 73.1915 45.6397 73.1285C46.0207 73.0655 46.4072 73.0085 46.7992 72.9575C47.1912 72.9065 47.5582 72.856 47.9002 72.806L47.5162 73.028C47.5262 72.454 47.4107 72.0285 47.1697 71.7515C46.9287 71.4745 46.5122 71.336 45.9202 71.336C45.5282 71.336 45.1847 71.4255 44.8897 71.6045C44.5947 71.7835 44.3882 72.072 44.2702 72.47L43.2562 72.164C43.4102 71.596 43.7117 71.15 44.1607 70.826C44.6097 70.502 45.2002 70.34 45.9322 70.34C46.5182 70.34 47.0222 70.445 47.4442 70.655C47.8662 70.865 48.1702 71.182 48.3562 71.606C48.4482 71.806 48.5062 72.023 48.5302 72.257C48.5542 72.491 48.5662 72.736 48.5662 72.992V77H47.6182V75.446L47.8402 75.59C47.5962 76.116 47.2547 76.5125 46.8157 76.7795C46.3767 77.0465 45.8442 77.18 45.2182 77.18ZM45.3802 76.286C45.7642 76.286 46.0972 76.2175 46.3792 76.0805C46.6612 75.9435 46.8882 75.7615 47.0602 75.5345C47.2322 75.3075 47.3442 75.06 47.3962 74.792C47.4542 74.592 47.4867 74.3695 47.4937 74.1245C47.5007 73.8795 47.5042 73.69 47.5042 73.556L47.8762 73.718C47.5282 73.768 47.1857 73.815 46.8487 73.859C46.5117 73.903 46.1932 73.9495 45.8932 73.9985C45.5932 74.0475 45.3242 74.106 45.0862 74.174C44.9082 74.23 44.7427 74.3025 44.5897 74.3915C44.4367 74.4805 44.3132 74.594 44.2192 74.732C44.1252 74.87 44.0782 75.04 44.0782 75.242C44.0782 75.42 44.1227 75.5885 44.2117 75.7475C44.3007 75.9065 44.4407 76.036 44.6317 76.136C44.8227 76.236 45.0722 76.286 45.3802 76.286ZM50.2462 69.374V68.27H51.3142V69.374H50.2462ZM50.2462 77V70.52H51.3142V77H50.2462ZM53.1142 77V70.52H54.0682V72.086L53.9122 71.882C53.9882 71.682 54.0872 71.498 54.2092 71.33C54.3312 71.162 54.4682 71.024 54.6202 70.916C54.7862 70.782 54.9757 70.679 55.1887 70.607C55.4017 70.535 55.6182 70.492 55.8382 70.478C56.0582 70.464 56.2642 70.478 56.4562 70.52V71.522C56.2322 71.464 55.9857 71.449 55.7167 71.477C55.4477 71.505 55.2002 71.602 54.9742 71.768C54.7642 71.918 54.6027 72.0985 54.4897 72.3095C54.3767 72.5205 54.2982 72.749 54.2542 72.995C54.2102 73.241 54.1882 73.492 54.1882 73.748V77H53.1142Z" fill="#475569"/>
</svg>
