<svg width="78" height="80" viewBox="0 0 78 80" fill="none" xmlns="http://www.w3.org/2000/svg">
<rect x="10.75" width="56" height="56" rx="16" fill="#13A4EC" fill-opacity="0.1"/>
<path d="M48.1998 33.7752C48.5304 33.9502 48.8221 33.9113 49.0748 33.6585C49.3276 33.4057 49.3665 33.1141 49.1915 32.7835L47.4998 29.6335L46.2748 32.7835L48.1998 33.7752V33.7752M42.3665 32.6668H43.7665L46.5665 25.7252C46.6248 25.5696 46.6103 25.4384 46.5228 25.3314C46.4353 25.2245 46.3332 25.1418 46.2165 25.0835L43.8832 24.1502C43.7082 24.0918 43.538 24.1113 43.3728 24.2085C43.2075 24.3057 43.1054 24.4418 43.0665 24.6168L42.3665 32.6668V32.6668M33.7332 32.6668H35.1332L34.4332 24.6168C34.3943 24.4029 34.2922 24.2571 34.1269 24.1793C33.9616 24.1016 33.7915 24.0918 33.6165 24.1502L31.2832 25.0835C31.1276 25.1418 31.0158 25.2245 30.9478 25.3314C30.8797 25.4384 30.8748 25.5696 30.9332 25.7252L33.7332 32.6668V32.6668M29.2998 33.7752L31.2248 32.7835L29.9998 29.6335L28.3082 32.7835C28.1332 33.1141 28.1721 33.4057 28.4248 33.6585C28.6776 33.9113 28.9693 33.9502 29.2998 33.7752V33.7752M37.4665 32.6668H40.0332L40.9082 22.8085C40.9471 22.6335 40.9033 22.4828 40.7769 22.3564C40.6505 22.23 40.4998 22.1668 40.3248 22.1668H37.1748C37.0193 22.1668 36.8783 22.23 36.7519 22.3564C36.6255 22.4828 36.5721 22.6335 36.5915 22.8085L37.4665 32.6668V32.6668M28.7748 36.1668C27.9582 36.1668 27.2776 35.8606 26.7332 35.2481C26.1887 34.6356 25.9165 33.9113 25.9165 33.0752C25.9165 32.8418 25.9505 32.6134 26.0186 32.3897C26.0866 32.1661 26.1693 31.9474 26.2665 31.7335L28.8332 26.8335C28.5609 26.0557 28.5707 25.2877 28.8623 24.5293C29.154 23.771 29.6693 23.2363 30.4082 22.9252L32.7415 21.9918C33.0137 21.8946 33.2859 21.8266 33.5582 21.7877C33.8304 21.7488 34.1026 21.7585 34.3748 21.8168C34.6471 21.2529 35.0262 20.7814 35.5123 20.4022C35.9984 20.0231 36.5526 19.8335 37.1748 19.8335H40.3248C40.9471 19.8335 41.5012 20.0231 41.9873 20.4022C42.4734 20.7814 42.8526 21.2529 43.1248 21.8168C43.3971 21.7779 43.6693 21.7731 43.9415 21.8022C44.2137 21.8314 44.4859 21.8946 44.7582 21.9918L47.0915 22.9252C47.8693 23.2363 48.4137 23.771 48.7248 24.5293C49.0359 25.2877 49.0165 26.0363 48.6665 26.7752L51.2332 31.6752C51.3498 31.8891 51.4373 32.1127 51.4957 32.346C51.554 32.5793 51.5832 32.8224 51.5832 33.0752C51.5832 33.9502 51.2866 34.6842 50.6936 35.2772C50.1005 35.8703 49.3665 36.1668 48.4915 36.1668C48.2776 36.1668 48.0637 36.1425 47.8498 36.0939C47.6359 36.0453 47.4221 35.9724 47.2082 35.8752L45.3998 35.0002H32.0415L30.4082 35.8752C30.1554 36.0113 29.888 36.0939 29.6061 36.1231C29.3241 36.1522 29.0471 36.1668 28.7748 36.1668V36.1668M38.7498 28.0002V28.0002V28.0002V28.0002V28.0002V28.0002V28.0002V28.0002V28.0002V28.0002V28.0002V28.0002V28.0002V28.0002V28.0002V28.0002V28.0002V28.0002V28.0002V28.0002V28.0002V28.0002V28.0002V28.0002V28.0002V28.0002V28.0002V28.0002V28.0002V28.0002V28.0002V28.0002V28.0002V28.0002" fill="#13A4EC"/>
<path d="M12.6648 77V68.36H16.0308C16.5468 68.36 16.9878 68.466 17.3538 68.678C17.7198 68.89 17.9998 69.169 18.1938 69.515C18.3878 69.861 18.4848 70.234 18.4848 70.634C18.4848 71.104 18.3643 71.5145 18.1233 71.8655C17.8823 72.2165 17.5588 72.458 17.1528 72.59L17.1408 72.296C17.6968 72.444 18.1288 72.7165 18.4368 73.1135C18.7448 73.5105 18.8988 73.982 18.8988 74.528C18.8988 75.032 18.7953 75.4685 18.5883 75.8375C18.3813 76.2065 18.0853 76.4925 17.7003 76.6955C17.3153 76.8985 16.8588 77 16.3308 77H12.6648ZM13.7448 75.98H16.1268C16.4448 75.98 16.7303 75.9215 16.9833 75.8045C17.2363 75.6875 17.4358 75.5205 17.5818 75.3035C17.7278 75.0865 17.8008 74.826 17.8008 74.522C17.8008 74.232 17.7353 73.9705 17.6043 73.7375C17.4733 73.5045 17.2908 73.319 17.0568 73.181C16.8228 73.043 16.5528 72.974 16.2468 72.974H13.7448V75.98ZM13.7448 71.966H16.0188C16.2728 71.966 16.5033 71.911 16.7103 71.801C16.9173 71.691 17.0818 71.5365 17.2038 71.3375C17.3258 71.1385 17.3868 70.904 17.3868 70.634C17.3868 70.262 17.2603 69.958 17.0073 69.722C16.7543 69.486 16.4248 69.368 16.0188 69.368H13.7448V71.966ZM20.0928 77V70.52H21.0468V72.086L20.8908 71.882C20.9668 71.682 21.0658 71.498 21.1878 71.33C21.3098 71.162 21.4468 71.024 21.5988 70.916C21.7648 70.782 21.9543 70.679 22.1673 70.607C22.3803 70.535 22.5968 70.492 22.8168 70.478C23.0368 70.464 23.2428 70.478 23.4348 70.52V71.522C23.2108 71.464 22.9643 71.449 22.6953 71.477C22.4263 71.505 22.1788 71.602 21.9528 71.768C21.7428 71.918 21.5813 72.0985 21.4683 72.3095C21.3553 72.5205 21.2768 72.749 21.2328 72.995C21.1888 73.241 21.1668 73.492 21.1668 73.748V77H20.0928ZM27.2628 77.18C26.6248 77.18 26.0688 77.0395 25.5948 76.7585C25.1208 76.4775 24.7523 76.0835 24.4893 75.5765C24.2263 75.0695 24.0948 74.478 24.0948 73.802C24.0948 73.094 24.2243 72.481 24.4833 71.963C24.7423 71.445 25.1053 71.045 25.5723 70.763C26.0393 70.481 26.5868 70.34 27.2148 70.34C27.8648 70.34 28.4188 70.49 28.8768 70.79C29.3348 71.09 29.6793 71.518 29.9103 72.074C30.1413 72.63 30.2398 73.292 30.2058 74.06H29.1288V73.676C29.1168 72.88 28.9548 72.285 28.6428 71.891C28.3308 71.497 27.8668 71.3 27.2508 71.3C26.5888 71.3 26.0863 71.512 25.7433 71.936C25.4003 72.36 25.2288 72.968 25.2288 73.76C25.2288 74.524 25.4003 75.116 25.7433 75.536C26.0863 75.956 26.5768 76.166 27.2148 76.166C27.6428 76.166 28.0148 76.068 28.3308 75.872C28.6468 75.676 28.8948 75.394 29.0748 75.026L30.1008 75.38C29.8468 75.952 29.4673 76.395 28.9623 76.709C28.4573 77.023 27.8908 77.18 27.2628 77.18ZM24.8688 74.06V73.202H29.6568V74.06H24.8688ZM33.2628 77.18C32.7788 77.18 32.3733 77.0915 32.0463 76.9145C31.7193 76.7375 31.4733 76.5025 31.3083 76.2095C31.1433 75.9165 31.0608 75.596 31.0608 75.248C31.0608 74.908 31.1253 74.6135 31.2543 74.3645C31.3833 74.1155 31.5663 73.9075 31.8033 73.7405C32.0403 73.5735 32.3228 73.442 32.6508 73.346C32.9588 73.264 33.3033 73.1915 33.6843 73.1285C34.0653 73.0655 34.4518 73.0085 34.8438 72.9575C35.2358 72.9065 35.6028 72.856 35.9448 72.806L35.5608 73.028C35.5708 72.454 35.4553 72.0285 35.2143 71.7515C34.9733 71.4745 34.5568 71.336 33.9648 71.336C33.5728 71.336 33.2293 71.4255 32.9343 71.6045C32.6393 71.7835 32.4328 72.072 32.3148 72.47L31.3008 72.164C31.4548 71.596 31.7563 71.15 32.2053 70.826C32.6543 70.502 33.2448 70.34 33.9768 70.34C34.5628 70.34 35.0668 70.445 35.4888 70.655C35.9108 70.865 36.2148 71.182 36.4008 71.606C36.4928 71.806 36.5508 72.023 36.5748 72.257C36.5988 72.491 36.6108 72.736 36.6108 72.992V77H35.6628V75.446L35.8848 75.59C35.6408 76.116 35.2993 76.5125 34.8603 76.7795C34.4213 77.0465 33.8888 77.18 33.2628 77.18ZM33.4248 76.286C33.8088 76.286 34.1418 76.2175 34.4238 76.0805C34.7058 75.9435 34.9328 75.7615 35.1048 75.5345C35.2768 75.3075 35.3888 75.06 35.4408 74.792C35.4988 74.592 35.5313 74.3695 35.5383 74.1245C35.5453 73.8795 35.5488 73.69 35.5488 73.556L35.9208 73.718C35.5728 73.768 35.2303 73.815 34.8933 73.859C34.5563 73.903 34.2378 73.9495 33.9378 73.9985C33.6378 74.0475 33.3688 74.106 33.1308 74.174C32.9528 74.23 32.7873 74.3025 32.6343 74.3915C32.4813 74.4805 32.3578 74.594 32.2638 74.732C32.1698 74.87 32.1228 75.04 32.1228 75.242C32.1228 75.42 32.1673 75.5885 32.2563 75.7475C32.3453 75.9065 32.4853 76.036 32.6763 76.136C32.8673 76.236 33.1168 76.286 33.4248 76.286ZM38.1648 77L38.1708 68.36H39.2508V73.64L41.9688 70.52H43.3548L40.4928 73.76L43.6908 77H42.1968L39.2508 73.88V77H38.1648ZM44.9088 77V70.166C44.9088 70 44.9163 69.8295 44.9313 69.6545C44.9463 69.4795 44.9823 69.309 45.0393 69.143C45.0963 68.977 45.1888 68.824 45.3168 68.684C45.4648 68.522 45.6268 68.4055 45.8028 68.3345C45.9788 68.2635 46.1578 68.22 46.3398 68.204C46.5218 68.188 46.6948 68.18 46.8588 68.18H47.6808V69.068H46.9188C46.6028 69.068 46.3668 69.1455 46.2108 69.3005C46.0548 69.4555 45.9768 69.688 45.9768 69.998V77H44.9088ZM43.8108 71.402V70.52H47.6808V71.402H43.8108ZM50.3028 77.18C49.8188 77.18 49.4133 77.0915 49.0863 76.9145C48.7593 76.7375 48.5133 76.5025 48.3483 76.2095C48.1833 75.9165 48.1008 75.596 48.1008 75.248C48.1008 74.908 48.1653 74.6135 48.2943 74.3645C48.4233 74.1155 48.6063 73.9075 48.8433 73.7405C49.0803 73.5735 49.3628 73.442 49.6908 73.346C49.9988 73.264 50.3433 73.1915 50.7243 73.1285C51.1053 73.0655 51.4918 73.0085 51.8838 72.9575C52.2758 72.9065 52.6428 72.856 52.9848 72.806L52.6008 73.028C52.6108 72.454 52.4953 72.0285 52.2543 71.7515C52.0133 71.4745 51.5968 71.336 51.0048 71.336C50.6128 71.336 50.2693 71.4255 49.9743 71.6045C49.6793 71.7835 49.4728 72.072 49.3548 72.47L48.3408 72.164C48.4948 71.596 48.7963 71.15 49.2453 70.826C49.6943 70.502 50.2848 70.34 51.0168 70.34C51.6028 70.34 52.1068 70.445 52.5288 70.655C52.9508 70.865 53.2548 71.182 53.4408 71.606C53.5328 71.806 53.5908 72.023 53.6148 72.257C53.6388 72.491 53.6508 72.736 53.6508 72.992V77H52.7028V75.446L52.9248 75.59C52.6808 76.116 52.3393 76.5125 51.9003 76.7795C51.4613 77.0465 50.9288 77.18 50.3028 77.18ZM50.4648 76.286C50.8488 76.286 51.1818 76.2175 51.4638 76.0805C51.7458 75.9435 51.9728 75.7615 52.1448 75.5345C52.3168 75.3075 52.4288 75.06 52.4808 74.792C52.5388 74.592 52.5713 74.3695 52.5783 74.1245C52.5853 73.8795 52.5888 73.69 52.5888 73.556L52.9608 73.718C52.6128 73.768 52.2703 73.815 51.9333 73.859C51.5963 73.903 51.2778 73.9495 50.9778 73.9985C50.6778 74.0475 50.4088 74.106 50.1708 74.174C49.9928 74.23 49.8273 74.3025 49.6743 74.3915C49.5213 74.4805 49.3978 74.594 49.3038 74.732C49.2098 74.87 49.1628 75.04 49.1628 75.242C49.1628 75.42 49.2073 75.5885 49.2963 75.7475C49.3853 75.9065 49.5253 76.036 49.7163 76.136C49.9073 76.236 50.1568 76.286 50.4648 76.286ZM57.6588 77.174C56.8848 77.174 56.2513 77.005 55.7583 76.667C55.2653 76.329 54.9628 75.856 54.8508 75.248L55.9428 75.074C56.0308 75.426 56.2328 75.705 56.5488 75.911C56.8648 76.117 57.2568 76.22 57.7248 76.22C58.1668 76.22 58.5143 76.1285 58.7673 75.9455C59.0203 75.7625 59.1468 75.512 59.1468 75.194C59.1468 75.012 59.1048 74.864 59.0208 74.75C58.9368 74.636 58.7638 74.529 58.5018 74.429C58.2398 74.329 57.8448 74.208 57.3168 74.066C56.7448 73.914 56.2943 73.7565 55.9653 73.5935C55.6363 73.4305 55.4023 73.241 55.2633 73.025C55.1243 72.809 55.0548 72.546 55.0548 72.236C55.0548 71.856 55.1588 71.5235 55.3668 71.2385C55.5748 70.9535 55.8653 70.7325 56.2383 70.5755C56.6113 70.4185 57.0468 70.34 57.5448 70.34C58.0368 70.34 58.4763 70.4185 58.8633 70.5755C59.2503 70.7325 59.5628 70.9535 59.8008 71.2385C60.0388 71.5235 60.1808 71.856 60.2268 72.236L59.1348 72.434C59.0828 72.088 58.9153 71.8145 58.6323 71.6135C58.3493 71.4125 57.9868 71.306 57.5448 71.294C57.1248 71.28 56.7838 71.355 56.5218 71.519C56.2598 71.683 56.1288 71.904 56.1288 72.182C56.1288 72.34 56.1773 72.4745 56.2743 72.5855C56.3713 72.6965 56.5533 72.802 56.8203 72.902C57.0873 73.002 57.4748 73.116 57.9828 73.244C58.5528 73.39 59.0028 73.5475 59.3328 73.7165C59.6628 73.8855 59.8983 74.0855 60.0393 74.3165C60.1803 74.5475 60.2508 74.83 60.2508 75.164C60.2508 75.79 60.0208 76.2815 59.5608 76.6385C59.1008 76.9955 58.4668 77.174 57.6588 77.174ZM65.1948 77C64.8088 77.078 64.4293 77.11 64.0563 77.096C63.6833 77.082 63.3503 77.006 63.0573 76.868C62.7643 76.73 62.5428 76.514 62.3928 76.22C62.2648 75.966 62.1958 75.708 62.1858 75.446C62.1758 75.184 62.1708 74.886 62.1708 74.552V68.72H63.2388V74.504C63.2388 74.77 63.2418 74.9965 63.2478 75.1835C63.2538 75.3705 63.2948 75.532 63.3708 75.668C63.5148 75.926 63.7438 76.0765 64.0578 76.1195C64.3718 76.1625 64.7508 76.15 65.1948 76.082V77ZM60.8568 71.402V70.52H65.1948V71.402H60.8568Z" fill="#475569"/>
</svg>
