<svg width="271" height="80" viewBox="0 0 271 80" fill="none" xmlns="http://www.w3.org/2000/svg">
<rect x="107.25" width="56" height="56" rx="16" fill="#A855F7" fill-opacity="0.1"/>
<path d="M132.333 36.75V34.4167H140.033L126.5 20.8833L128.133 19.25L141.667 32.7833V25.0833H144V36.75H132.333V36.75" fill="#9333EA"/>
<path d="M122.497 77V68.36H123.565V75.986H127.573V77H122.497ZM131.353 77.18C130.707 77.18 130.151 77.034 129.685 76.742C129.219 76.45 128.86 76.0465 128.609 75.5315C128.358 75.0165 128.233 74.424 128.233 73.754C128.233 73.076 128.361 72.4805 128.617 71.9675C128.873 71.4545 129.234 71.055 129.701 70.769C130.168 70.483 130.719 70.34 131.353 70.34C132.001 70.34 132.558 70.4855 133.025 70.7765C133.492 71.0675 133.851 71.4695 134.102 71.9825C134.353 72.4955 134.479 73.086 134.479 73.754C134.479 74.432 134.352 75.028 134.099 75.542C133.846 76.056 133.486 76.4575 133.018 76.7465C132.55 77.0355 131.995 77.18 131.353 77.18ZM131.353 76.166C132.023 76.166 132.522 75.942 132.851 75.494C133.18 75.046 133.345 74.466 133.345 73.754C133.345 73.024 133.179 72.4415 132.847 72.0065C132.515 71.5715 132.017 71.354 131.353 71.354C130.901 71.354 130.528 71.456 130.235 71.66C129.942 71.864 129.724 72.146 129.581 72.506C129.438 72.866 129.367 73.282 129.367 73.754C129.367 74.484 129.535 75.0685 129.871 75.5075C130.207 75.9465 130.701 76.166 131.353 76.166ZM137.641 77.18C137.157 77.18 136.751 77.0915 136.424 76.9145C136.097 76.7375 135.851 76.5025 135.686 76.2095C135.521 75.9165 135.439 75.596 135.439 75.248C135.439 74.908 135.503 74.6135 135.632 74.3645C135.761 74.1155 135.944 73.9075 136.181 73.7405C136.418 73.5735 136.701 73.442 137.029 73.346C137.337 73.264 137.681 73.1915 138.062 73.1285C138.443 73.0655 138.83 73.0085 139.222 72.9575C139.614 72.9065 139.981 72.856 140.323 72.806L139.939 73.028C139.949 72.454 139.833 72.0285 139.592 71.7515C139.351 71.4745 138.935 71.336 138.343 71.336C137.951 71.336 137.607 71.4255 137.312 71.6045C137.017 71.7835 136.811 72.072 136.693 72.47L135.679 72.164C135.833 71.596 136.134 71.15 136.583 70.826C137.032 70.502 137.623 70.34 138.355 70.34C138.941 70.34 139.445 70.445 139.867 70.655C140.289 70.865 140.593 71.182 140.779 71.606C140.871 71.806 140.929 72.023 140.953 72.257C140.977 72.491 140.989 72.736 140.989 72.992V77H140.041V75.446L140.263 75.59C140.019 76.116 139.677 76.5125 139.238 76.7795C138.799 77.0465 138.267 77.18 137.641 77.18ZM137.803 76.286C138.187 76.286 138.52 76.2175 138.802 76.0805C139.084 75.9435 139.311 75.7615 139.483 75.5345C139.655 75.3075 139.767 75.06 139.819 74.792C139.877 74.592 139.909 74.3695 139.916 74.1245C139.923 73.8795 139.927 73.69 139.927 73.556L140.299 73.718C139.951 73.768 139.608 73.815 139.271 73.859C138.934 73.903 138.616 73.9495 138.316 73.9985C138.016 74.0475 137.747 74.106 137.509 74.174C137.331 74.23 137.165 74.3025 137.012 74.3915C136.859 74.4805 136.736 74.594 136.642 74.732C136.548 74.87 136.501 75.04 136.501 75.242C136.501 75.42 136.545 75.5885 136.634 75.7475C136.723 75.9065 136.863 76.036 137.054 76.136C137.245 76.236 137.495 76.286 137.803 76.286ZM147.163 77V73.754C147.163 73.448 147.135 73.153 147.08 72.869C147.025 72.585 146.931 72.3295 146.797 72.1025C146.663 71.8755 146.483 71.696 146.257 71.564C146.031 71.432 145.747 71.366 145.405 71.366C145.137 71.366 144.893 71.4115 144.674 71.5025C144.455 71.5935 144.268 71.7305 144.112 71.9135C143.956 72.0965 143.835 72.327 143.75 72.605C143.665 72.883 143.623 73.21 143.623 73.586L142.921 73.37C142.921 72.744 143.034 72.2055 143.26 71.7545C143.486 71.3035 143.804 70.957 144.214 70.715C144.624 70.473 145.107 70.352 145.663 70.352C146.081 70.352 146.438 70.418 146.735 70.55C147.032 70.682 147.279 70.8575 147.475 71.0765C147.671 71.2955 147.825 71.5395 147.937 71.8085C148.049 72.0775 148.128 72.3515 148.174 72.6305C148.22 72.9095 148.243 73.172 148.243 73.418V77H147.163ZM142.543 77V70.52H143.503V72.254H143.623V77H142.543Z" fill="#475569"/>
</svg>
