<svg width="271" height="80" viewBox="0 0 271 80" fill="none" xmlns="http://www.w3.org/2000/svg">
<rect x="107.25" width="56" height="56" rx="16" fill="#EF4444" fill-opacity="0.1"/>
<path d="M129.417 36.75V34.4167H137.7C138.925 34.4167 139.989 34.0278 140.894 33.25C141.798 32.4722 142.25 31.5 142.25 30.3333C142.25 29.1667 141.798 28.1944 140.894 27.4167C139.989 26.6389 138.925 26.25 137.7 26.25H130.35L133.383 29.2833L131.75 30.9167L125.917 25.0833L131.75 19.25L133.383 20.8833L130.35 23.9167H137.7C139.586 23.9167 141.205 24.5292 142.556 25.7542C143.907 26.9792 144.583 28.5056 144.583 30.3333C144.583 32.1611 143.907 33.6875 142.556 34.9125C141.205 36.1375 139.586 36.75 137.7 36.75H129.417V36.75" fill="#EF4444"/>
<path d="M115.702 77V68.36H119.116C119.2 68.36 119.299 68.363 119.414 68.369C119.529 68.375 119.642 68.388 119.752 68.408C120.218 68.48 120.61 68.6405 120.928 68.8895C121.246 69.1385 121.485 69.452 121.646 69.83C121.807 70.208 121.888 70.626 121.888 71.084C121.888 71.754 121.714 72.3335 121.366 72.8225C121.018 73.3115 120.508 73.618 119.836 73.742L119.428 73.808H116.77V77H115.702ZM120.844 77L119.14 73.484L120.196 73.16L122.068 77H120.844ZM116.77 72.794H119.08C119.156 72.794 119.242 72.79 119.339 72.782C119.436 72.774 119.53 72.76 119.62 72.74C119.896 72.678 120.12 72.5615 120.293 72.3905C120.466 72.2195 120.593 72.019 120.674 71.789C120.755 71.559 120.796 71.324 120.796 71.084C120.796 70.844 120.755 70.609 120.674 70.379C120.593 70.149 120.466 69.9485 120.293 69.7775C120.12 69.6065 119.896 69.49 119.62 69.428C119.53 69.406 119.436 69.3915 119.339 69.3845C119.242 69.3775 119.156 69.374 119.08 69.374H116.77V72.794ZM126.196 77.18C125.558 77.18 125.002 77.0395 124.528 76.7585C124.054 76.4775 123.685 76.0835 123.422 75.5765C123.159 75.0695 123.028 74.478 123.028 73.802C123.028 73.094 123.157 72.481 123.416 71.963C123.675 71.445 124.038 71.045 124.505 70.763C124.972 70.481 125.52 70.34 126.148 70.34C126.798 70.34 127.352 70.49 127.81 70.79C128.268 71.09 128.612 71.518 128.843 72.074C129.074 72.63 129.173 73.292 129.139 74.06H128.062V73.676C128.05 72.88 127.888 72.285 127.576 71.891C127.264 71.497 126.8 71.3 126.184 71.3C125.522 71.3 125.019 71.512 124.676 71.936C124.333 72.36 124.162 72.968 124.162 73.76C124.162 74.524 124.333 75.116 124.676 75.536C125.019 75.956 125.51 76.166 126.148 76.166C126.576 76.166 126.948 76.068 127.264 75.872C127.58 75.676 127.828 75.394 128.008 75.026L129.034 75.38C128.78 75.952 128.4 76.395 127.895 76.709C127.39 77.023 126.824 77.18 126.196 77.18ZM123.802 74.06V73.202H128.59V74.06H123.802ZM131.092 77V70.166C131.092 70 131.099 69.8295 131.114 69.6545C131.129 69.4795 131.165 69.309 131.222 69.143C131.279 68.977 131.372 68.824 131.5 68.684C131.648 68.522 131.81 68.4055 131.986 68.3345C132.162 68.2635 132.341 68.22 132.523 68.204C132.705 68.188 132.878 68.18 133.042 68.18H133.864V69.068H133.102C132.786 69.068 132.55 69.1455 132.394 69.3005C132.238 69.4555 132.16 69.688 132.16 69.998V77H131.092ZM129.994 71.402V70.52H133.864V71.402H129.994ZM137.284 77.168C136.866 77.168 136.508 77.102 136.211 76.97C135.914 76.838 135.668 76.6625 135.472 76.4435C135.276 76.2245 135.122 75.9805 135.01 75.7115C134.898 75.4425 134.819 75.1685 134.773 74.8895C134.727 74.6105 134.704 74.348 134.704 74.102V70.52H135.784V73.766C135.784 74.07 135.811 74.3645 135.866 74.6495C135.921 74.9345 136.016 75.1905 136.15 75.4175C136.284 75.6445 136.464 75.824 136.69 75.956C136.916 76.088 137.2 76.154 137.542 76.154C137.81 76.154 138.053 76.1085 138.272 76.0175C138.491 75.9265 138.679 75.7895 138.835 75.6065C138.991 75.4235 139.111 75.1925 139.196 74.9135C139.281 74.6345 139.324 74.308 139.324 73.934L140.026 74.15C140.026 74.776 139.913 75.3145 139.687 75.7655C139.461 76.2165 139.143 76.563 138.733 76.805C138.323 77.047 137.84 77.168 137.284 77.168ZM139.444 77V75.266H139.324V70.52H140.398V77H139.444ZM146.692 77V73.754C146.692 73.448 146.664 73.153 146.609 72.869C146.554 72.585 146.46 72.3295 146.326 72.1025C146.192 71.8755 146.012 71.696 145.786 71.564C145.56 71.432 145.276 71.366 144.934 71.366C144.666 71.366 144.422 71.4115 144.203 71.5025C143.984 71.5935 143.797 71.7305 143.641 71.9135C143.485 72.0965 143.364 72.327 143.279 72.605C143.194 72.883 143.152 73.21 143.152 73.586L142.45 73.37C142.45 72.744 142.563 72.2055 142.789 71.7545C143.015 71.3035 143.333 70.957 143.743 70.715C144.153 70.473 144.636 70.352 145.192 70.352C145.61 70.352 145.967 70.418 146.264 70.55C146.561 70.682 146.808 70.8575 147.004 71.0765C147.2 71.2955 147.354 71.5395 147.466 71.8085C147.578 72.0775 147.657 72.3515 147.703 72.6305C147.749 72.9095 147.772 73.172 147.772 73.418V77H146.692ZM142.072 77V70.52H143.032V72.254H143.152V77H142.072ZM151.816 77.18C151.212 77.18 150.693 77.0295 150.26 76.7285C149.827 76.4275 149.494 76.0185 149.261 75.5015C149.028 74.9845 148.912 74.402 148.912 73.754C148.912 73.106 149.028 72.5245 149.261 72.0095C149.494 71.4945 149.827 71.0875 150.26 70.7885C150.693 70.4895 151.21 70.34 151.81 70.34C152.42 70.34 152.933 70.4885 153.35 70.7855C153.767 71.0825 154.083 71.4885 154.297 72.0035C154.511 72.5185 154.618 73.102 154.618 73.754C154.618 74.4 154.511 74.9815 154.297 75.4985C154.083 76.0155 153.768 76.425 153.352 76.727C152.936 77.029 152.424 77.18 151.816 77.18ZM151.948 76.202C152.384 76.202 152.742 76.097 153.022 75.887C153.302 75.677 153.509 75.3875 153.643 75.0185C153.777 74.6495 153.844 74.228 153.844 73.754C153.844 73.276 153.776 72.8535 153.641 72.4865C153.506 72.1195 153.301 71.833 153.025 71.627C152.749 71.421 152.4 71.318 151.978 71.318C151.538 71.318 151.175 71.426 150.889 71.642C150.603 71.858 150.391 72.15 150.253 72.518C150.115 72.886 150.046 73.298 150.046 73.754C150.046 74.214 150.116 74.629 150.256 74.999C150.396 75.369 150.606 75.662 150.887 75.878C151.168 76.094 151.522 76.202 151.948 76.202ZM153.844 77V72.23H153.724V68.36H154.798V77H153.844Z" fill="#475569"/>
</svg>
