<svg preserveAspectRatio="none" width="100%" height="100%" overflow="visible" style="display: block;" viewBox="10.75 0.0 56 56" fill="none" xmlns="http://www.w3.org/2000/svg">
<g id="Container">
<path id="Icon" d="M29.125 38.5V19.8333C29.125 19.1917 29.3535 18.6424 29.8104 18.1854C30.2674 17.7285 30.8167 17.5 31.4583 17.5H38.4583C39.1 17.5 39.6493 17.7285 40.1062 18.1854C40.5632 18.6424 40.7917 19.1917 40.7917 19.8333V28H41.9583C42.6 28 43.1493 28.2285 43.6062 28.6854C44.0632 29.1424 44.2917 29.6917 44.2917 30.3333V35.5833C44.2917 35.9139 44.4035 36.191 44.6271 36.4146C44.8507 36.6382 45.1278 36.75 45.4583 36.75C45.7889 36.75 46.066 36.6382 46.2896 36.4146C46.5132 36.191 46.625 35.9139 46.625 35.5833V27.1833C46.45 27.2806 46.2653 27.3437 46.0708 27.3729C45.8764 27.4021 45.6722 27.4167 45.4583 27.4167C44.6417 27.4167 43.9514 27.1347 43.3875 26.5708C42.8236 26.0069 42.5417 25.3167 42.5417 24.5C42.5417 23.8778 42.7118 23.3187 43.0521 22.8229C43.3924 22.3271 43.8444 21.9722 44.4083 21.7583L41.9583 19.3083L43.1833 18.0833L47.5 22.2833C47.7917 22.575 48.0104 22.9153 48.1562 23.3042C48.3021 23.6931 48.375 24.0917 48.375 24.5V35.5833C48.375 36.4 48.0931 37.0903 47.5292 37.6542C46.9653 38.2181 46.275 38.5 45.4583 38.5C44.6417 38.5 43.9514 38.2181 43.3875 37.6542C42.8236 37.0903 42.5417 36.4 42.5417 35.5833V29.75V29.75V29.75H40.7917V38.5H29.125V38.5M31.4583 25.6667H38.4583V19.8333V19.8333V19.8333H31.4583V19.8333V19.8333V25.6667V25.6667M45.4583 25.6667C45.7889 25.6667 46.066 25.5549 46.2896 25.3313C46.5132 25.1076 46.625 24.8306 46.625 24.5C46.625 24.1694 46.5132 23.8924 46.2896 23.6687C46.066 23.4451 45.7889 23.3333 45.4583 23.3333C45.1278 23.3333 44.8507 23.4451 44.6271 23.6687C44.4035 23.8924 44.2917 24.1694 44.2917 24.5C44.2917 24.8306 44.4035 25.1076 44.6271 25.3313C44.8507 25.5549 45.1278 25.6667 45.4583 25.6667V25.6667M31.4583 36.1667H38.4583V28H31.4583V36.1667V36.1667M38.4583 36.1667H31.4583V36.1667H38.4583V36.1667V36.1667" fill="#000000"/>
</g>
</svg>
