<svg preserveAspectRatio="none" width="100%" height="100%" overflow="visible" style="display: block;" viewBox="10.75 0.0 56 56" fill="none" xmlns="http://www.w3.org/2000/svg">
<g id="Container">
<path id="Icon" d="M29.4168 34.4165V36.7498V36.7498V36.7498H48.0835V36.7498V36.7498V34.4165H29.4168V34.4165M29.4168 21.5832H31.9835C31.8863 21.4082 31.8231 21.2234 31.7939 21.029C31.7647 20.8346 31.7502 20.6304 31.7502 20.4165C31.7502 19.4443 32.0904 18.6179 32.771 17.9373C33.4516 17.2568 34.2779 16.9165 35.2502 16.9165C35.8335 16.9165 36.3731 17.0672 36.8689 17.3686C37.3647 17.67 37.7974 18.0443 38.1668 18.4915L38.7502 19.2498L39.3335 18.4915C39.6835 18.0248 40.1113 17.6457 40.6168 17.354C41.1224 17.0623 41.6668 16.9165 42.2502 16.9165C43.2224 16.9165 44.0488 17.2568 44.7293 17.9373C45.4099 18.6179 45.7502 19.4443 45.7502 20.4165C45.7502 20.6304 45.7356 20.8346 45.7064 21.029C45.6772 21.2234 45.6141 21.4082 45.5168 21.5832H48.0835C48.7252 21.5832 49.2745 21.8116 49.7314 22.2686C50.1884 22.7255 50.4168 23.2748 50.4168 23.9165V36.7498C50.4168 37.3915 50.1884 37.9408 49.7314 38.3978C49.2745 38.8547 48.7252 39.0832 48.0835 39.0832H29.4168C28.7752 39.0832 28.2259 38.8547 27.7689 38.3978C27.312 37.9408 27.0835 37.3915 27.0835 36.7498V23.9165C27.0835 23.2748 27.312 22.7255 27.7689 22.2686C28.2259 21.8116 28.7752 21.5832 29.4168 21.5832V21.5832M29.4168 30.9165H48.0835V23.9165V23.9165V23.9165H42.1335L44.5835 27.2415L42.7168 28.5832L38.7502 23.2165L34.7835 28.5832L32.9168 27.2415L35.3085 23.9165H29.4168V23.9165V23.9165V30.9165V30.9165M35.2502 21.5832C35.5807 21.5832 35.8578 21.4714 36.0814 21.2478C36.305 21.0241 36.4168 20.7471 36.4168 20.4165C36.4168 20.0859 36.305 19.8089 36.0814 19.5853C35.8578 19.3616 35.5807 19.2498 35.2502 19.2498C34.9196 19.2498 34.6425 19.3616 34.4189 19.5853C34.1953 19.8089 34.0835 20.0859 34.0835 20.4165C34.0835 20.7471 34.1953 21.0241 34.4189 21.2478C34.6425 21.4714 34.9196 21.5832 35.2502 21.5832V21.5832M42.2502 21.5832C42.5807 21.5832 42.8578 21.4714 43.0814 21.2478C43.305 21.0241 43.4168 20.7471 43.4168 20.4165C43.4168 20.0859 43.305 19.8089 43.0814 19.5853C42.8578 19.3616 42.5807 19.2498 42.2502 19.2498C41.9196 19.2498 41.6425 19.3616 41.4189 19.5853C41.1953 19.8089 41.0835 20.0859 41.0835 20.4165C41.0835 20.7471 41.1953 21.0241 41.4189 21.2478C41.6425 21.4714 41.9196 21.5832 42.2502 21.5832V21.5832" fill="#000000"/>
</g>
</svg>
