<svg preserveAspectRatio="none" width="100%" height="100%" overflow="visible" style="display: block;" viewBox="10.75 0.0 56 56" fill="none" xmlns="http://www.w3.org/2000/svg">
<g id="Container">
<path id="Icon" d="M38.75 40.25C38.5167 40.25 38.2979 40.1868 38.0938 40.0604C37.8896 39.934 37.7389 39.7347 37.6417 39.4625L31.75 21.6708L35.8333 22.6625L37.5833 21.3208V18.55C37.5833 17.7722 37.8653 17.1111 38.4292 16.5667C38.9931 16.0222 39.6833 15.75 40.5 15.75C41.3167 15.75 42.0069 16.0222 42.5708 16.5667C43.1347 17.1111 43.4167 17.7722 43.4167 18.55V19.25H41.0833V18.55C41.0833 18.3944 41.025 18.2632 40.9083 18.1562C40.7917 18.0493 40.6556 17.9958 40.5 17.9958C40.3444 17.9958 40.2083 18.0493 40.0917 18.1562C39.975 18.2632 39.9167 18.3944 39.9167 18.55V21.3208L41.6667 22.6625L45.75 21.6708L39.8583 39.4333C39.7611 39.7056 39.6104 39.9097 39.4062 40.0458C39.2021 40.1819 38.9833 40.25 38.75 40.25V40.25M39.9167 31.85L42.1917 24.9083L41.1417 25.1708L39.9167 24.2667V31.85V31.85M37.5833 31.85V24.2667L36.3583 25.2L35.2792 24.9083L37.5833 31.85V31.85" fill="#000000"/>
</g>
</svg>
