<svg preserveAspectRatio="none" width="100%" height="100%" overflow="visible" style="display: block;" viewBox="10.75 0.0 56 56" fill="none" xmlns="http://www.w3.org/2000/svg">
<g id="Container">
<path id="Icon" d="M38.7502 38.5C36.6113 38.5 34.7682 37.8243 33.221 36.473C31.6738 35.1215 30.7161 33.4056 30.3481 31.325C30.1168 29.9049 30.219 28.5139 30.6543 27.1521C31.0898 25.7903 31.7991 24.6028 32.7822 23.5896C33.7653 22.5764 34.9101 21.8153 36.2167 21.3063C37.5233 20.7972 38.8677 20.6563 40.2502 20.8833C40.2502 19.3854 40.6613 18.0528 41.4835 16.8854C42.3057 15.7181 43.4057 14.9153 44.7835 14.4771C44.3557 15.3646 44.1418 16.3014 44.1418 17.2875C44.1418 18.2736 44.3557 19.2104 44.7835 20.0979C46.1661 20.5646 47.2898 21.3868 48.1545 22.5646C49.0192 23.7424 49.5307 25.0701 49.689 26.5479C49.9012 28.4299 49.5724 30.1684 48.7024 31.7635C47.8323 33.3587 46.5942 34.6163 44.9877 35.5365C43.3813 36.4566 41.6134 36.9701 39.6835 37.0771C39.1057 37.8257 38.3813 38.4139 37.5103 38.8417C36.6394 39.2695 35.7224 39.4834 34.7595 39.4834C34.1043 39.4834 33.4738 39.3778 32.868 39.1667C32.2622 38.9556 31.7224 38.6486 31.2481 38.2459L32.7657 36.7283C33.0627 36.9903 33.3938 37.1917 33.7585 37.3323C34.1233 37.4729 34.5068 37.5433 34.9085 37.5433C35.4577 37.5433 35.9728 37.4167 36.4543 37.1635C36.9357 36.9104 37.3526 36.5587 37.7043 36.1083L38.7502 38.5ZM38.7502 38.5V38.5V38.5" fill="#000000"/>
</g>
</svg>
