<svg preserveAspectRatio="none" width="100%" height="100%" overflow="visible" style="display: block;" viewBox="10.75 0.0 56 56" fill="none" xmlns="http://www.w3.org/2000/svg">
<g id="Container">
<path id="Cigarette" d="M22 34L42 14L46 18L26 38L22 34Z" fill="#000000"/>
<path id="Filter" d="M22 34L26 38L23.5 40.5L19.5 36.5L22 34Z" fill="#000000"/>
<path id="Burning" d="M42 14L46 18L44 20L40 16L42 14Z" fill="#000000"/>
<path id="Smoke1" d="M48 12C48 12 50 10 50 8C50 6 48 6 48 4" stroke="#000000" stroke-width="1.5" stroke-linecap="round" fill="none"/>
<path id="Smoke2" d="M52 14C52 14 54 12 54 10C54 8 52 8 52 6" stroke="#000000" stroke-width="1.5" stroke-linecap="round" fill="none"/>
<circle id="Prohibit" cx="28" cy="28" r="14" stroke="#000000" stroke-width="2.5" fill="none"/>
<path id="ProhibitLine" d="M38 18L18 38" stroke="#000000" stroke-width="2.5" stroke-linecap="round"/>
</g>
</svg>
