<svg preserveAspectRatio="none" width="100%" height="100%" overflow="visible" style="display: block;" viewBox="10.75 0.0 56 56" fill="none" xmlns="http://www.w3.org/2000/svg">
<g id="Container">
<path id="Icon" d="M44.7583 38.15L37.7 31.0333C37.3111 31.1889 36.9174 31.3056 36.5188 31.3833C36.1201 31.4611 35.6972 31.5 35.25 31.5C33.3056 31.5 31.6528 30.8194 30.2917 29.4583C28.9306 28.0972 28.25 26.4444 28.25 24.5C28.25 23.8 28.3472 23.134 28.5417 22.5021C28.7361 21.8701 29.0083 21.2722 29.3583 20.7083L33.6167 24.9667L35.7167 22.8667L31.4583 18.6083C32.0222 18.2583 32.6201 17.9861 33.2521 17.7917C33.884 17.5972 34.55 17.5 35.25 17.5C37.1944 17.5 38.8472 18.1806 40.2083 19.5417C41.5694 20.9028 42.25 22.5556 42.25 24.5C42.25 24.9472 42.2111 25.3701 42.1333 25.7688C42.0556 26.1674 41.9389 26.5611 41.7833 26.95L48.9 34.0083C49.1333 34.2417 49.25 34.5236 49.25 34.8542C49.25 35.1847 49.1333 35.4667 48.9 35.7L46.45 38.15C46.2167 38.3833 45.9347 38.5 45.6042 38.5C45.2736 38.5 44.9917 38.3833 44.7583 38.15V38.15M45.6042 35.6708L46.3917 34.8833L38.925 27.4167C39.275 27.0278 39.5278 26.5757 39.6833 26.0604C39.8389 25.5451 39.9167 25.025 39.9167 24.5C39.9167 23.3333 39.5424 22.3174 38.7937 21.4521C38.0451 20.5868 37.1167 20.0667 36.0083 19.8917L38.1667 22.05C38.4 22.2833 38.5167 22.5556 38.5167 22.8667C38.5167 23.1778 38.4 23.45 38.1667 23.6833L34.4333 27.4167C34.2 27.65 33.9278 27.7667 33.6167 27.7667C33.3056 27.7667 33.0333 27.65 32.8 27.4167L30.6417 25.2583C30.8167 26.3667 31.3368 27.2951 32.2021 28.0437C33.0674 28.7924 34.0833 29.1667 35.25 29.1667C35.7556 29.1667 36.2611 29.0889 36.7667 28.9333C37.2722 28.7778 37.7292 28.5347 38.1375 28.2042L45.6042 35.6708V35.6708M38.5167 27.7667V27.7667V27.7667V27.7667V27.7667V27.7667V27.7667V27.7667V27.7667V27.7667V27.7667V27.7667V27.7667V27.7667V27.7667V27.7667V27.7667V27.7667V27.7667V27.7667" fill="#000000"/>
</g>
</svg>
