<svg preserveAspectRatio="none" width="100%" height="100%" overflow="visible" style="display: block;" viewBox="0 0 25.6667 16.3333" fill="none" xmlns="http://www.w3.org/2000/svg">
<g id="Container">
<path id="Icon" d="M22.2833 13.9417C22.6139 14.1167 22.9056 14.0778 23.1583 13.825C23.4111 13.5722 23.45 13.2806 23.275 12.95L21.5833 9.8L20.3583 12.95L22.2833 13.9417V13.9417M16.45 12.8333H17.85L20.65 5.89167C20.7083 5.73611 20.6938 5.60486 20.6063 5.49792C20.5188 5.39097 20.4167 5.30833 20.3 5.25L17.9667 4.31667C17.7917 4.25833 17.6215 4.27778 17.4562 4.375C17.291 4.47222 17.1889 4.60833 17.15 4.78333L16.45 12.8333V12.8333M7.81667 12.8333H9.21667L8.51667 4.78333C8.47778 4.56944 8.37569 4.42361 8.21042 4.34583C8.04514 4.26806 7.875 4.25833 7.7 4.31667L5.36667 5.25C5.21111 5.30833 5.09931 5.39097 5.03125 5.49792C4.96319 5.60486 4.95833 5.73611 5.01667 5.89167L7.81667 12.8333V12.8333M3.38333 13.9417L5.30833 12.95L4.08333 9.8L2.39167 12.95C2.21667 13.2806 2.25556 13.5722 2.50833 13.825C2.76111 14.0778 3.05278 14.1167 3.38333 13.9417V13.9417M11.55 12.8333H14.1167L14.9917 2.975C15.0306 2.8 14.9868 2.64931 14.8604 2.52292C14.734 2.39653 14.5833 2.33333 14.4083 2.33333H11.2583C11.1028 2.33333 10.9618 2.39653 10.8354 2.52292C10.709 2.64931 10.6556 2.8 10.675 2.975L11.55 12.8333V12.8333M2.85833 16.3333C2.04167 16.3333 1.36111 16.0271 0.816667 15.4146C0.272222 14.8021 0 14.0778 0 13.2417C0 13.0083 0.0340278 12.7799 0.102083 12.5562C0.170139 12.3326 0.252778 12.1139 0.35 11.9L2.91667 7C2.64444 6.22222 2.65417 5.45417 2.94583 4.69583C3.2375 3.9375 3.75278 3.40278 4.49167 3.09167L6.825 2.15833C7.09722 2.06111 7.36944 1.99306 7.64167 1.95417C7.91389 1.91528 8.18611 1.925 8.45833 1.98333C8.73056 1.41944 9.10972 0.947917 9.59583 0.56875C10.0819 0.189583 10.6361 0 11.2583 0H14.4083C15.0306 0 15.5847 0.189583 16.0708 0.56875C16.5569 0.947917 16.9361 1.41944 17.2083 1.98333C17.4806 1.94444 17.7528 1.93958 18.025 1.96875C18.2972 1.99792 18.5694 2.06111 18.8417 2.15833L21.175 3.09167C21.9528 3.40278 22.4972 3.9375 22.8083 4.69583C23.1194 5.45417 23.1 6.20278 22.75 6.94167L25.3167 11.8417C25.4333 12.0556 25.5208 12.2792 25.5792 12.5125C25.6375 12.7458 25.6667 12.9889 25.6667 13.2417C25.6667 14.1167 25.3701 14.8507 24.7771 15.4438C24.184 16.0368 23.45 16.3333 22.575 16.3333C22.3611 16.3333 22.1472 16.309 21.9333 16.2604C21.7194 16.2118 21.5056 16.1389 21.2917 16.0417L19.4833 15.1667H6.125L4.49167 16.0417C4.23889 16.1778 3.97153 16.2604 3.68958 16.2896C3.40764 16.3187 3.13056 16.3333 2.85833 16.3333V16.3333M12.8333 8.16667V8.16667V8.16667V8.16667V8.16667V8.16667V8.16667V8.16667V8.16667V8.16667V8.16667V8.16667V8.16667V8.16667V8.16667V8.16667V8.16667V8.16667V8.16667V8.16667V8.16667V8.16667V8.16667V8.16667V8.16667V8.16667V8.16667V8.16667V8.16667V8.16667V8.16667V8.16667V8.16667V8.16667" fill="#000000"/>
</g>
</svg>
