<svg preserveAspectRatio="none" width="100%" height="100%" overflow="visible" style="display: block;" viewBox="107.25 0.0 56 56" fill="none" xmlns="http://www.w3.org/2000/svg">
<g id="Container">
<path id="Icon" d="M125.917 39.0832C125.275 39.0832 124.726 38.8547 124.269 38.3978C123.812 37.9408 123.583 37.3915 123.583 36.7498V23.9165C123.583 23.2748 123.812 22.7255 124.269 22.2686C124.726 21.8116 125.275 21.5832 125.917 21.5832H130.583V19.2498C130.583 18.6082 130.812 18.0589 131.269 17.6019C131.726 17.145 132.275 16.9165 132.917 16.9165H137.583C138.225 16.9165 138.774 17.145 139.231 17.6019C139.688 18.0589 139.917 18.6082 139.917 19.2498V21.5832H144.583C145.225 21.5832 145.774 21.8116 146.231 22.2686C146.688 22.7255 146.917 23.2748 146.917 23.9165V36.7498C146.917 37.3915 146.688 37.9408 146.231 38.3978C145.774 38.8547 145.225 39.0832 144.583 39.0832H125.917ZM125.917 36.7498H144.583V23.9165H125.917V36.7498ZM132.917 21.5832H137.583V19.2498H132.917V21.5832ZM125.917 36.7498V23.9165V36.7498Z" fill="#000000"/>
</g>
</svg>
