<svg preserveAspectRatio="none" width="100%" height="100%" overflow="visible" style="display: block;" viewBox="10.75 0.0 56 56" fill="none" xmlns="http://www.w3.org/2000/svg">
<g id="Container">
<path id="Icon" d="M50.4168 20.9998V34.9998C50.4168 35.6415 50.1884 36.1908 49.7314 36.6478C49.2745 37.1047 48.7252 37.3332 48.0835 37.3332H29.4168C28.7752 37.3332 28.2259 37.1047 27.7689 36.6478C27.312 36.1908 27.0835 35.6415 27.0835 34.9998V20.9998C27.0835 20.3582 27.312 19.8089 27.7689 19.3519C28.2259 18.895 28.7752 18.6665 29.4168 18.6665H48.0835C48.7252 18.6665 49.2745 18.895 49.7314 19.3519C50.1884 19.8089 50.4168 20.3582 50.4168 20.9998V20.9998M29.4168 23.3332H48.0835V20.9998V20.9998V20.9998H29.4168V20.9998V20.9998V23.3332V23.3332M29.4168 27.9998V34.9998V34.9998V34.9998H48.0835V34.9998V34.9998V27.9998H29.4168V27.9998M29.4168 34.9998V34.9998V34.9998V34.9998V20.9998V20.9998V20.9998V20.9998V20.9998V20.9998V34.9998V34.9998V34.9998V34.9998" fill="#000000"/>
</g>
</svg>
