<svg preserveAspectRatio="none" width="100%" height="100%" overflow="visible" style="display: block;" viewBox="10.75 0.0 56 56" fill="none" xmlns="http://www.w3.org/2000/svg">
<g id="Container">
<path id="Icon" d="M32.3335 30.3333C31.6918 30.3333 31.1425 30.1049 30.6856 29.6479C30.2286 29.191 30.0002 28.6417 30.0002 28C30.0002 27.3583 30.2286 26.809 30.6856 26.3521C31.1425 25.8951 31.6918 25.6667 32.3335 25.6667C32.9752 25.6667 33.5245 25.8951 33.9814 26.3521C34.4384 26.809 34.6668 27.3583 34.6668 28C34.6668 28.6417 34.4384 29.191 33.9814 29.6479C33.5245 30.1049 32.9752 30.3333 32.3335 30.3333ZM32.3335 35C30.3891 35 28.7363 34.3194 27.3752 32.9583C26.0141 31.5972 25.3335 29.9444 25.3335 28C25.3335 26.0556 26.0141 24.4028 27.3752 23.0417C28.7363 21.6806 30.3891 21 32.3335 21C33.6363 21 34.8175 21.3208 35.8772 21.9625C36.937 22.6042 37.7779 23.45 38.4002 24.5H48.6668L52.1668 28L46.9168 33.25L44.5835 31.5L42.2502 33.25L39.771 31.5H38.4002C37.7779 32.55 36.937 33.3958 35.8772 34.0375C34.8175 34.6792 33.6363 35 32.3335 35ZM32.3335 32.6667C33.4224 32.6667 34.38 32.3361 35.2064 31.675C36.0328 31.0139 36.5821 30.1778 36.8543 29.1667H40.5002L42.1918 30.3625L44.5835 28.5833L46.6543 30.1875L48.8418 28L47.6752 26.8333H36.8543C36.5821 25.8222 36.0328 24.9861 35.2064 24.325C34.38 23.6639 33.4224 23.3333 32.3335 23.3333C31.0502 23.3333 29.9516 23.7903 29.0377 24.7042C28.1238 25.6181 27.6668 26.7167 27.6668 28C27.6668 29.2833 28.1238 30.3819 29.0377 31.2958C29.9516 32.2097 31.0502 32.6667 32.3335 32.6667Z" fill="#000000"/>
</g>
</svg>
