<svg preserveAspectRatio="none" width="100%" height="100%" overflow="visible" style="display: block;" viewBox="10.75 0.0 56 56" fill="none" xmlns="http://www.w3.org/2000/svg">
<g id="Container">
<path id="Icon" d="M38.75 37.9168C37.9333 37.9168 37.2431 37.6349 36.6792 37.071C36.1153 36.5071 35.8333 35.8168 35.8333 35.0002C35.8333 34.1835 36.1153 33.4932 36.6792 32.9293C37.2431 32.3654 37.9333 32.0835 38.75 32.0835C39.5667 32.0835 40.2569 32.3654 40.8208 32.9293C41.3847 33.4932 41.6667 34.1835 41.6667 35.0002C41.6667 35.8168 41.3847 36.5071 40.8208 37.071C40.2569 37.6349 39.5667 37.9168 38.75 37.9168V37.9168M32.1583 31.3252L29.7083 28.8168C30.8556 27.6696 32.2021 26.7606 33.7479 26.0897C35.2937 25.4189 36.9611 25.0835 38.75 25.0835C40.5389 25.0835 42.2062 25.4238 43.7521 26.1043C45.2979 26.7849 46.6444 27.7085 47.7917 28.8752L45.3417 31.3252C44.4861 30.4696 43.4944 29.7988 42.3667 29.3127C41.2389 28.8266 40.0333 28.5835 38.75 28.5835C37.4667 28.5835 36.2611 28.8266 35.1333 29.3127C34.0056 29.7988 33.0139 30.4696 32.1583 31.3252V31.3252M27.2 26.3668L24.75 23.9168C26.5389 22.0891 28.6292 20.6599 31.0208 19.6293C33.4125 18.5988 35.9889 18.0835 38.75 18.0835C41.5111 18.0835 44.0875 18.5988 46.4792 19.6293C48.8708 20.6599 50.9611 22.0891 52.75 23.9168L50.3 26.3668C48.8028 24.8696 47.0674 23.6981 45.0938 22.8522C43.1201 22.0064 41.0056 21.5835 38.75 21.5835C36.4944 21.5835 34.3799 22.0064 32.4062 22.8522C30.4326 23.6981 28.6972 24.8696 27.2 26.3668V26.3668" fill="#000000"/>
</g>
</svg>
