<svg preserveAspectRatio="none" width="100%" height="100%" overflow="visible" style="display: block;" viewBox="10.75 0.0 56 56" fill="none" xmlns="http://www.w3.org/2000/svg">
<g id="Container">
<path id="Icon" d="M44 28.8748L39.1583 24.1498C38.5556 23.5665 38.0451 22.92 37.6271 22.2103C37.209 21.5005 37 20.7276 37 19.8915C37 18.8221 37.3743 17.913 38.1229 17.1644C38.8715 16.4158 39.7806 16.0415 40.85 16.0415C41.4722 16.0415 42.0556 16.1728 42.6 16.4353C43.1444 16.6978 43.6111 17.0526 44 17.4998C44.3889 17.0526 44.8556 16.6978 45.4 16.4353C45.9444 16.1728 46.5278 16.0415 47.15 16.0415C48.2194 16.0415 49.1285 16.4158 49.8771 17.1644C50.6257 17.913 51 18.8221 51 19.8915C51 20.7276 50.7958 21.5005 50.3875 22.2103C49.9792 22.92 49.4736 23.5665 48.8708 24.1498L44 28.8748V28.8748M44 25.6082L47.1792 22.4873C47.5486 22.1179 47.8889 21.7241 48.2 21.3061C48.5111 20.888 48.6667 20.4165 48.6667 19.8915C48.6667 19.4637 48.5208 19.104 48.2292 18.8123C47.9375 18.5207 47.5778 18.3748 47.15 18.3748C46.8778 18.3748 46.6201 18.4283 46.3771 18.5353C46.134 18.6422 45.925 18.8026 45.75 19.0165L44 21.1165L42.25 19.0165C42.075 18.8026 41.866 18.6422 41.6229 18.5353C41.3799 18.4283 41.1222 18.3748 40.85 18.3748C40.4222 18.3748 40.0625 18.5207 39.7708 18.8123C39.4792 19.104 39.3333 19.4637 39.3333 19.8915C39.3333 20.4165 39.4889 20.888 39.8 21.3061C40.1111 21.7241 40.4514 22.1179 40.8208 22.4873L44 25.6082V25.6082M33.5 35.2915L41.6083 37.5082L48.55 35.3498C48.4528 35.1748 48.3118 35.0241 48.1271 34.8978C47.9424 34.7714 47.7333 34.7082 47.5 34.7082H41.6083C41.0833 34.7082 40.6653 34.6887 40.3542 34.6498C40.0431 34.6109 39.7222 34.5332 39.3917 34.4165L36.6792 33.5123L37.3208 31.2373L39.6833 32.0248C40.0139 32.1221 40.4028 32.1998 40.85 32.2582C41.2972 32.3165 41.9583 32.3554 42.8333 32.3748V32.3748V32.3748V32.3748C42.8333 32.1609 42.7701 31.9568 42.6437 31.7623C42.5174 31.5679 42.3667 31.4415 42.1917 31.3832L35.3667 28.8748V28.8748V28.8748H33.5V35.2915V35.2915M26.5 39.3748V26.5415H35.3667C35.5028 26.5415 35.6389 26.5561 35.775 26.5853C35.9111 26.6144 36.0375 26.6484 36.1542 26.6873L43.0083 29.2248C43.65 29.4582 44.1701 29.8665 44.5688 30.4498C44.9674 31.0332 45.1667 31.6748 45.1667 32.3748H47.5C48.4722 32.3748 49.2986 32.6957 49.9792 33.3373C50.6597 33.979 51 34.8248 51 35.8748V37.0415L41.6667 39.9582L33.5 37.6832V37.6832V39.3748H26.5V39.3748M28.8333 37.0415H31.1667V28.8748H28.8333V37.0415V37.0415M44 21.1165V21.1165V21.1165V21.1165V21.1165V21.1165V21.1165V21.1165V21.1165V21.1165V21.1165V21.1165V21.1165V21.1165V21.1165V21.1165V21.1165V21.1165" fill="#000000"/>
</g>
</svg>
