<svg preserveAspectRatio="none" width="100%" height="100%" overflow="visible" style="display: block;" viewBox="10.75 0.0 56 56" fill="none" xmlns="http://www.w3.org/2000/svg">
<g id="Container">
<path id="Icon" d="M28.25 30.3332V27.9998H36.4167V30.3332H28.25V30.3332M28.25 25.6665V23.3332H41.0833V25.6665H28.25V25.6665M28.25 20.9998V18.6665H41.0833V20.9998H28.25V20.9998M38.75 37.3332V33.7457L45.1958 27.329C45.3708 27.154 45.5653 27.0276 45.7792 26.9498C45.9931 26.8721 46.2069 26.8332 46.4208 26.8332C46.6542 26.8332 46.8778 26.8769 47.0917 26.9644C47.3056 27.0519 47.5 27.1832 47.675 27.3582L48.7542 28.4373C48.9097 28.6123 49.0312 28.8068 49.1187 29.0207C49.2062 29.2346 49.25 29.4484 49.25 29.6623C49.25 29.8762 49.2111 30.095 49.1333 30.3186C49.0556 30.5422 48.9292 30.7415 48.7542 30.9165L42.3375 37.3332H38.75V37.3332M47.5 29.6623V29.6623L46.4208 28.5832V28.5832L47.5 29.6623V29.6623M40.5 35.5832H41.6083L45.1375 32.0248L44.6125 31.4707L44.0583 30.9457L40.5 34.4748V35.5832V35.5832M44.6125 31.4707L44.0583 30.9457V30.9457L45.1375 32.0248V32.0248L44.6125 31.4707V31.4707" fill="#000000"/>
</g>
</svg>
