<svg preserveAspectRatio="none" width="100%" height="100%" overflow="visible" style="display: block;" viewBox="10.75 0.0 56 56" fill="none" xmlns="http://www.w3.org/2000/svg">
<g id="Container">
<path id="Icon" d="M31.7498 39.0832C31.4193 39.0832 31.1422 38.9714 30.9186 38.7478C30.695 38.5241 30.5832 38.2471 30.5832 37.9165V35.5248C30.2332 35.1359 29.9512 34.7033 29.7373 34.2269C29.5234 33.7505 29.4165 33.2304 29.4165 32.6665V21.5832C29.4165 19.9693 30.1651 18.788 31.6623 18.0394C33.1596 17.2908 35.5221 16.9165 38.7498 16.9165C42.0943 16.9165 44.4859 17.2762 45.9248 17.9957C47.3637 18.7151 48.0832 19.9109 48.0832 21.5832V32.6665C48.0832 33.2304 47.9762 33.7505 47.7623 34.2269C47.5484 34.7033 47.2665 35.1359 46.9165 35.5248V37.9165C46.9165 38.2471 46.8047 38.5241 46.5811 38.7478C46.3575 38.9714 46.0804 39.0832 45.7498 39.0832H44.5832C44.2526 39.0832 43.9755 38.9714 43.7519 38.7478C43.5283 38.5241 43.4165 38.2471 43.4165 37.9165V36.7498H34.0832V37.9165C34.0832 38.2471 33.9714 38.5241 33.7478 38.7478C33.5241 38.9714 33.2471 39.0832 32.9165 39.0832H31.7498ZM38.8082 20.4165C40.9471 20.4165 42.4978 20.4165 43.4603 20.4165C44.4228 20.4165 45.0498 20.4165 45.3415 20.4165H32.2748C32.6248 20.4165 33.2811 20.4165 34.2436 20.4165C35.2061 20.4165 36.7276 20.4165 38.8082 20.4165ZM43.4165 28.5832H34.0832C33.4415 28.5832 32.8922 28.5832 32.4353 28.5832C31.9783 28.5832 31.7498 28.5832 31.7498 28.5832H45.7498C45.7498 28.5832 45.5214 28.5832 45.0644 28.5832C44.6075 28.5832 44.0582 28.5832 43.4165 28.5832ZM31.7498 26.2498H45.7498V22.7498H31.7498V26.2498ZM34.6665 33.2498C35.1526 33.2498 35.5658 33.0797 35.9061 32.7394C36.2464 32.3991 36.4165 31.9859 36.4165 31.4998C36.4165 31.0137 36.2464 30.6005 35.9061 30.2603C35.5658 29.92 35.1526 29.7498 34.6665 29.7498C34.1804 29.7498 33.7672 29.92 33.4269 30.2603C33.0866 30.6005 32.9165 31.0137 32.9165 31.4998C32.9165 31.9859 33.0866 32.3991 33.4269 32.7394C33.7672 33.0797 34.1804 33.2498 34.6665 33.2498ZM42.8332 33.2498C43.3193 33.2498 43.7325 33.0797 44.0728 32.7394C44.413 32.3991 44.5832 31.9859 44.5832 31.4998C44.5832 31.0137 44.413 30.6005 44.0728 30.2603C43.7325 29.92 43.3193 29.7498 42.8332 29.7498C42.3471 29.7498 41.9339 29.92 41.5936 30.2603C41.2533 30.6005 41.0832 31.0137 41.0832 31.4998C41.0832 31.9859 41.2533 32.3991 41.5936 32.7394C41.9339 33.0797 42.3471 33.2498 42.8332 33.2498ZM32.2748 20.4165H45.3415C45.0498 20.0859 44.4228 19.8089 43.4603 19.5853C42.4978 19.3616 40.9471 19.2498 38.8082 19.2498C36.7276 19.2498 35.2061 19.3714 34.2436 19.6144C33.2811 19.8575 32.6248 20.1248 32.2748 20.4165ZM34.0832 34.4165H43.4165C44.0582 34.4165 44.6075 34.188 45.0644 33.7311C45.5214 33.2741 45.7498 32.7248 45.7498 32.0832V28.5832H31.7498V32.0832C31.7498 32.7248 31.9783 33.2741 32.4353 33.7311C32.8922 34.188 33.4415 34.4165 34.0832 34.4165Z" fill="#000000"/>
</g>
</svg>
