<svg preserveAspectRatio="none" width="100%" height="100%" overflow="visible" style="display: block;" viewBox="10.75 0.0 56 56" fill="none" xmlns="http://www.w3.org/2000/svg">
<g id="Container">
<path id="Icon" d="M38.7502 39.6667C36.3113 39.6667 34.3543 38.8333 32.8793 37.1667C31.4043 35.5 30.6668 33.5972 30.6668 31.4583C30.6668 29.8472 31.0765 28.3611 31.896 27C32.7154 25.6389 33.8474 24.5833 35.2918 23.8333V26.5833C34.4307 27.1806 33.7752 27.9375 33.3252 28.8542C32.8752 29.7708 32.6502 30.75 32.6502 31.7917C32.6502 33.375 33.2324 34.7118 34.3968 35.8021C35.5613 36.8924 36.9793 37.4375 38.6502 37.4375C40.321 37.4375 41.7536 36.8889 42.9479 35.7917C44.1422 34.6944 44.7696 33.3611 44.8303 31.7917C44.8303 30.7361 44.5981 29.75 44.1335 28.8333C43.6689 27.9167 43.0002 27.1667 42.1272 26.5833V23.8333C43.5939 24.5833 44.7404 25.6389 45.5668 27C46.3932 28.3611 46.8064 29.8472 46.8064 31.4583C46.8064 33.5972 46.0654 35.5 44.5835 37.1667C43.1016 38.8333 41.1418 39.6667 38.7043 39.6667H38.7502ZM37.5835 33.8333V16.3333H40.5002V33.8333H37.5835Z" fill="#000000"/>
</g>
</svg>
