<svg preserveAspectRatio="none" width="100%" height="100%" overflow="visible" style="display: block;" viewBox="107.25 0.0 56 56" fill="none" xmlns="http://www.w3.org/2000/svg">
<g id="Container">
<path id="Icon" d="M125.917 34.4165V36.7498V36.7498V36.7498H144.583V36.7498V36.7498V34.4165H125.917V34.4165M125.917 21.5832H128.483C128.386 21.4082 128.323 21.2234 128.294 21.029C128.265 20.8346 128.25 20.6304 128.25 20.4165C128.25 19.4443 128.59 18.6179 129.271 17.9373C129.952 17.2568 130.778 16.9165 131.75 16.9165C132.333 16.9165 132.873 17.0672 133.369 17.3686C133.865 17.67 134.297 18.0443 134.667 18.4915L135.25 19.2498L135.833 18.4915C136.183 18.0248 136.611 17.6457 137.117 17.354C137.622 17.0623 138.167 16.9165 138.75 16.9165C139.722 16.9165 140.549 17.2568 141.229 17.9373C141.91 18.6179 142.25 19.4443 142.25 20.4165C142.25 20.6304 142.236 20.8346 142.206 21.029C142.177 21.2234 142.114 21.4082 142.017 21.5832H144.583C145.225 21.5832 145.774 21.8116 146.231 22.2686C146.688 22.7255 146.917 23.2748 146.917 23.9165V36.7498C146.917 37.3915 146.688 37.9408 146.231 38.3978C145.774 38.8547 145.225 39.0832 144.583 39.0832H125.917C125.275 39.0832 124.726 38.8547 124.269 38.3978C123.812 37.9408 123.583 37.3915 123.583 36.7498V23.9165C123.583 23.2748 123.812 22.7255 124.269 22.2686C124.726 21.8116 125.275 21.5832 125.917 21.5832V21.5832M125.917 30.9165H144.583V23.9165V23.9165V23.9165H138.633L141.083 27.2415L139.217 28.5832L135.25 23.2165L131.283 28.5832L129.417 27.2415L131.808 23.9165H125.917V23.9165V23.9165V30.9165V30.9165M131.75 21.5832C132.081 21.5832 132.358 21.4714 132.581 21.2478C132.805 21.0241 132.917 20.7471 132.917 20.4165C132.917 20.0859 132.805 19.8089 132.581 19.5853C132.358 19.3616 132.081 19.2498 131.75 19.2498C131.42 19.2498 131.143 19.3616 130.919 19.5853C130.695 19.8089 130.583 20.0859 130.583 20.4165C130.583 20.7471 130.695 21.0241 130.919 21.2478C131.143 21.4714 131.42 21.5832 131.75 21.5832V21.5832M138.75 21.5832C139.081 21.5832 139.358 21.4714 139.581 21.2478C139.805 21.0241 139.917 20.7471 139.917 20.4165C139.917 20.0859 139.805 19.8089 139.581 19.5853C139.358 19.3616 139.081 19.2498 138.75 19.2498C138.42 19.2498 138.143 19.3616 137.919 19.5853C137.695 19.8089 137.583 20.0859 137.583 20.4165C137.583 20.7471 137.695 21.0241 137.919 21.2478C138.143 21.4714 138.42 21.5832 138.75 21.5832V21.5832" fill="#000000"/>
</g>
</svg>
