<svg preserveAspectRatio="none" width="100%" height="100%" overflow="visible" style="display: block;" viewBox="10.75 0.0 56 56" fill="none" xmlns="http://www.w3.org/2000/svg">
<g id="Container">
<path id="Icon" d="M30.5833 37.3332C28.9306 37.3332 27.5451 36.7741 26.4271 35.6561C25.309 34.538 24.75 33.1526 24.75 31.4998C24.75 29.8471 25.3187 28.4616 26.4562 27.3436C27.5938 26.2255 28.9694 25.6665 30.5833 25.6665C32.0806 25.6665 33.3396 26.1137 34.3604 27.0082C35.3812 27.9026 36.0278 29.0109 36.3 30.3332H37.0583L34.9583 24.4998H32.9167V22.1665H38.75V24.4998H37.4667L37.875 25.6665H43.475L41.7833 20.9998V20.9998V20.9998H38.75V18.6665H41.7833C42.2889 18.6665 42.741 18.8026 43.1396 19.0748C43.5382 19.3471 43.825 19.7165 44 20.1832L45.9833 25.6082H46.9167C48.5306 25.6082 49.9063 26.1769 51.0438 27.3144C52.1813 28.4519 52.75 29.8276 52.75 31.4415C52.75 33.0748 52.1861 34.4651 51.0583 35.6123C49.9306 36.7596 48.55 37.3332 46.9167 37.3332C45.5167 37.3332 44.2868 36.8957 43.2271 36.0207C42.1674 35.1457 41.4917 34.0276 41.2 32.6665H36.3C36.0278 34.0082 35.3667 35.1214 34.3167 36.0061C33.2667 36.8908 32.0222 37.3332 30.5833 37.3332V37.3332M30.5833 34.9998C31.3806 34.9998 32.066 34.7811 32.6396 34.3436C33.2132 33.9061 33.6167 33.3471 33.85 32.6665H30.5833V30.3332H33.85C33.6167 29.6332 33.2132 29.0693 32.6396 28.6415C32.066 28.2137 31.3806 27.9998 30.5833 27.9998C29.5917 27.9998 28.7604 28.3353 28.0896 29.0061C27.4188 29.6769 27.0833 30.5082 27.0833 31.4998C27.0833 32.4721 27.4188 33.2984 28.0896 33.979C28.7604 34.6596 29.5917 34.9998 30.5833 34.9998V34.9998M39.5667 30.3332H41.2C41.2972 29.8859 41.4285 29.4679 41.5938 29.079C41.759 28.6901 41.9778 28.3304 42.25 27.9998H38.6917L39.5667 30.3332V30.3332M46.9167 34.9998C47.9083 34.9998 48.7396 34.6596 49.4104 33.979C50.0813 33.2984 50.4167 32.4721 50.4167 31.4998C50.4167 30.5082 50.0813 29.6769 49.4104 29.0061C48.7396 28.3353 47.9083 27.9998 46.9167 27.9998C46.8778 27.9998 46.8583 27.9998 46.8583 27.9998C46.8583 27.9998 46.8389 27.9998 46.8 27.9998L47.9667 31.0915L45.75 31.9082L44.6417 28.8165C44.2528 29.1471 43.9514 29.5359 43.7375 29.9832C43.5236 30.4304 43.4167 30.9359 43.4167 31.4998C43.4167 32.4721 43.7521 33.2984 44.4229 33.979C45.0937 34.6596 45.925 34.9998 46.9167 34.9998V34.9998M30.4667 31.4998V31.4998V31.4998V31.4998V31.4998V31.4998V31.4998V31.4998V31.4998V31.4998V31.4998M46.9167 31.4998V31.4998V31.4998V31.4998V31.4998V31.4998V31.4998V31.4998V31.4998V31.4998V31.4998V31.4998V31.4998" fill="#000000"/>
</g>
</svg>
