<svg preserveAspectRatio="none" width="100%" height="100%" overflow="visible" style="display: block;" viewBox="107.25 0.0 56 56" fill="none" xmlns="http://www.w3.org/2000/svg">
<g id="Container">
<path id="Icon" d="M135.192 35.0002C135.6 35.0002 135.945 34.8592 136.227 34.5772C136.509 34.2953 136.65 33.9502 136.65 33.5418C136.65 33.1335 136.509 32.7884 136.227 32.5064C135.945 32.2245 135.6 32.0835 135.192 32.0835C134.783 32.0835 134.438 32.2245 134.156 32.5064C133.874 32.7884 133.733 33.1335 133.733 33.5418C133.733 33.9502 133.874 34.2953 134.156 34.5772C134.438 34.8592 134.783 35.0002 135.192 35.0002V35.0002M134.142 30.5085H136.3C136.3 29.8668 136.373 29.3613 136.519 28.9918C136.665 28.6224 137.078 28.1168 137.758 27.4752C138.264 26.9696 138.663 26.4884 138.954 26.0314C139.246 25.5745 139.392 25.0252 139.392 24.3835C139.392 23.2946 138.993 22.4585 138.196 21.8752C137.399 21.2918 136.456 21.0002 135.367 21.0002C134.258 21.0002 133.359 21.2918 132.669 21.8752C131.979 22.4585 131.497 23.1585 131.225 23.9752L133.15 24.7335C133.247 24.3835 133.466 24.0043 133.806 23.596C134.147 23.1877 134.667 22.9835 135.367 22.9835C135.989 22.9835 136.456 23.1536 136.767 23.4939C137.078 23.8342 137.233 24.2085 137.233 24.6168C137.233 25.0057 137.117 25.3703 136.883 25.7106C136.65 26.0509 136.358 26.3668 136.008 26.6585C135.153 27.4168 134.628 27.9904 134.433 28.3793C134.239 28.7682 134.142 29.4779 134.142 30.5085V30.5085M135.25 39.6668C133.636 39.6668 132.12 39.3606 130.7 38.7481C129.281 38.1356 128.046 37.3043 126.996 36.2543C125.946 35.2043 125.115 33.9696 124.502 32.5502C123.89 31.1307 123.583 29.6141 123.583 28.0002C123.583 26.3863 123.89 24.8696 124.502 23.4502C125.115 22.0307 125.946 20.796 126.996 19.746C128.046 18.696 129.281 17.8647 130.7 17.2522C132.12 16.6397 133.636 16.3335 135.25 16.3335C136.864 16.3335 138.381 16.6397 139.8 17.2522C141.22 17.8647 142.454 18.696 143.504 19.746C144.554 20.796 145.386 22.0307 145.998 23.4502C146.611 24.8696 146.917 26.3863 146.917 28.0002C146.917 29.6141 146.611 31.1307 145.998 32.5502C145.386 33.9696 144.554 35.2043 143.504 36.2543C142.454 37.3043 141.22 38.1356 139.8 38.7481C138.381 39.3606 136.864 39.6668 135.25 39.6668V39.6668M135.25 37.3335C137.856 37.3335 140.063 36.4293 141.871 34.621C143.679 32.8127 144.583 30.6057 144.583 28.0002C144.583 25.3946 143.679 23.1877 141.871 21.3793C140.063 19.571 137.856 18.6668 135.25 18.6668C132.645 18.6668 130.438 19.571 128.629 21.3793C126.821 23.1877 125.917 25.3946 125.917 28.0002C125.917 30.6057 126.821 32.8127 128.629 34.621C130.438 36.4293 132.645 37.3335 135.25 37.3335V37.3335M135.25 28.0002V28.0002V28.0002V28.0002V28.0002V28.0002V28.0002V28.0002V28.0002V28.0002" fill="#000000"/>
</g>
</svg>
