<svg preserveAspectRatio="none" width="100%" height="100%" overflow="visible" style="display: block;" viewBox="107.25 0.0 56 56" fill="none" xmlns="http://www.w3.org/2000/svg">
<g id="Container">
<path id="Icon" d="M129.417 38.5V36.1667H134.083V32.55C133.131 32.3361 132.28 31.9326 131.531 31.3396C130.783 30.7465 130.233 30.0028 129.883 29.1083C128.425 28.9333 127.205 28.2965 126.223 27.1979C125.241 26.0993 124.75 24.8111 124.75 23.3333V22.1667C124.75 21.525 124.978 20.9757 125.435 20.5187C125.892 20.0618 126.442 19.8333 127.083 19.8333H129.417V17.5H141.083V19.8333H143.417C144.058 19.8333 144.608 20.0618 145.065 20.5187C145.522 20.9757 145.75 21.525 145.75 22.1667V23.3333C145.75 24.8111 145.259 26.0993 144.277 27.1979C143.295 28.2965 142.075 28.9333 140.617 29.1083C140.267 30.0028 139.717 30.7465 138.969 31.3396C138.22 31.9326 137.369 32.3361 136.417 32.55V36.1667H141.083V38.5H129.417V38.5M129.417 26.6V22.1667H127.083V23.3333C127.083 24.0722 127.297 24.7382 127.725 25.3313C128.153 25.9243 128.717 26.3472 129.417 26.6V26.6M135.25 30.3333C136.222 30.3333 137.049 29.9931 137.729 29.3125C138.41 28.6319 138.75 27.8056 138.75 26.8333V19.8333H131.75V26.8333C131.75 27.8056 132.09 28.6319 132.771 29.3125C133.451 29.9931 134.278 30.3333 135.25 30.3333V30.3333M141.083 26.6C141.783 26.3472 142.347 25.9243 142.775 25.3313C143.203 24.7382 143.417 24.0722 143.417 23.3333V22.1667H141.083V26.6V26.6M135.25 25.0833V25.0833V25.0833V25.0833V25.0833V25.0833V25.0833V25.0833V25.0833" fill="#000000"/>
</g>
</svg>
