<svg preserveAspectRatio="none" width="100%" height="100%" overflow="visible" style="display: block;" viewBox="10.75 0.0 56 56" fill="none" xmlns="http://www.w3.org/2000/svg">
<g id="Container">
<path id="Icon" d="M34.0835 38.5C33.4418 38.5 32.8925 38.2715 32.4356 37.8146C31.9786 37.3576 31.7502 36.8083 31.7502 36.1667V23.3333H29.4168V21H43.4168V23.3333H41.0835V36.1667C41.0835 36.8083 40.855 37.3576 40.3981 37.8146C39.9412 38.2715 39.3918 38.5 38.7502 38.5H34.0835ZM34.0835 36.1667H38.7502V23.3333H34.0835V36.1667ZM46.9168 25.6667C46.3918 25.6667 45.9399 25.482 45.5611 25.1125C45.1823 24.7431 44.9442 24.3056 44.8468 23.8C44.7691 23.4111 44.8761 23.0611 45.1677 22.75C45.4594 22.4389 45.814 22.2833 46.2314 22.2833C46.6487 22.2833 47.0032 22.4389 47.2947 22.75C47.5863 23.0611 47.6933 23.4111 47.6155 23.8C47.5181 24.3056 47.28 24.7431 46.9012 25.1125C46.5224 25.482 46.0705 25.6667 45.5455 25.6667H46.9168ZM38.7502 19.8333L40.7918 17.5H42.2502L40.2085 19.8333H38.7502ZM36.4168 19.8333L38.4585 17.5H39.9168L37.8752 19.8333H36.4168Z" fill="#000000"/>
</g>
</svg>
