<svg preserveAspectRatio="none" width="100%" height="100%" overflow="visible" style="display: block;" viewBox="10.75 0.0 56 56" fill="none" xmlns="http://www.w3.org/2000/svg">
<g id="Container">
<path id="Icon" d="M34.8125 38.5C32.9847 38.5 31.434 37.8632 30.1604 36.5896C28.8868 35.316 28.25 33.7653 28.25 31.9375C28.25 31.0625 28.4153 30.2264 28.7458 29.4292C29.0764 28.6319 29.5528 27.9222 30.175 27.3L38.05 19.425C38.6722 18.8028 39.3819 18.3264 40.1792 17.9958C40.9764 17.6653 41.8125 17.5 42.6875 17.5C44.5153 17.5 46.066 18.1368 47.3396 19.4104C48.6132 20.684 49.25 22.2347 49.25 24.0625C49.25 24.9375 49.0847 25.7736 48.7542 26.5708C48.4236 27.3681 47.9472 28.0778 47.325 28.7L39.45 36.575C38.8278 37.1972 38.1181 37.6736 37.3208 38.0042C36.5236 38.3347 35.6875 38.5 34.8125 38.5V38.5M42.5708 30.1583L45.6917 27.0667C46.0806 26.6778 46.3819 26.2208 46.5958 25.6958C46.8097 25.1708 46.9167 24.6264 46.9167 24.0625C46.9167 22.8958 46.5035 21.8993 45.6771 21.0729C44.8507 20.2465 43.8542 19.8333 42.6875 19.8333C42.1236 19.8333 41.5792 19.9403 41.0542 20.1542C40.5292 20.3681 40.0722 20.6694 39.6833 21.0583L36.5917 24.1792L42.5708 30.1583V30.1583M34.8125 36.1667C35.3764 36.1667 35.9208 36.0597 36.4458 35.8458C36.9708 35.6319 37.4278 35.3306 37.8167 34.9417L40.9083 31.8208L34.9292 25.8417L31.8083 28.9333C31.4194 29.3222 31.1181 29.7792 30.9042 30.3042C30.6903 30.8292 30.5833 31.3736 30.5833 31.9375C30.5833 33.1042 30.9965 34.1007 31.8229 34.9271C32.6493 35.7535 33.6458 36.1667 34.8125 36.1667V36.1667" fill="#000000"/>
</g>
</svg>
