<svg preserveAspectRatio="none" width="100%" height="100%" overflow="visible" style="display: block;" viewBox="10.75 0.0 56 56" fill="none" xmlns="http://www.w3.org/2000/svg">
<g id="Container">
<path id="Icon" d="M29.8833 38.5L28.25 36.8667L40.2083 24.9083C39.8583 24.0917 39.8097 23.1681 40.0625 22.1375C40.3153 21.1069 40.8694 20.1833 41.725 19.3667C42.7556 18.3361 43.9028 17.7333 45.1667 17.5583C46.4306 17.3833 47.4611 17.6944 48.2583 18.4917C49.0556 19.2889 49.3667 20.3194 49.1917 21.5833C49.0167 22.8472 48.4139 23.9944 47.3833 25.025C46.5667 25.8806 45.6431 26.4347 44.6125 26.6875C43.5819 26.9403 42.6583 26.8917 41.8417 26.5417L40.3833 28L49.25 36.8667L47.6167 38.5L38.75 29.6917L29.8833 38.5ZM33.325 28.525L29.825 25.025C28.775 23.975 28.25 22.7208 28.25 21.2625C28.25 19.8042 28.775 18.55 29.825 17.5L37.0583 24.7917L33.325 28.525Z" fill="#000000"/>
</g>
</svg>
