<svg preserveAspectRatio="xMidYMid meet" width="100%" height="100%" overflow="visible" style="display: block;" viewBox="10.75 0.0 56 56" fill="none" xmlns="http://www.w3.org/2000/svg">
<g id="Container" transform="translate(12.0834, 0.0000) scale(2.2857)">
<path id="Icon" d="M2.33333 24.5V11.6667H0V4.66667H6.06667C5.96944 4.49167 5.90625 4.30694 5.87708 4.1125C5.84792 3.91806 5.83333 3.71389 5.83333 3.5C5.83333 2.52778 6.17361 1.70139 6.85417 1.02083C7.53472 0.340278 8.36111 0 9.33333 0C9.78056 0 10.1986 0.0826389 10.5875 0.247917C10.9764 0.413194 11.3361 0.641667 11.6667 0.933333C11.9972 0.622222 12.3569 0.388889 12.7458 0.233333C13.1347 0.0777778 13.5528 0 14 0C14.9722 0 15.7986 0.340278 16.4792 1.02083C17.1597 1.70139 17.5 2.52778 17.5 3.5C17.5 3.71389 17.4806 3.91319 17.4417 4.09792C17.4028 4.28264 17.3444 4.47222 17.2667 4.66667H23.3333V11.6667H21V24.5H2.33333V24.5M14 2.33333C13.6694 2.33333 13.3924 2.44514 13.1687 2.66875C12.9451 2.89236 12.8333 3.16944 12.8333 3.5C12.8333 3.83056 12.9451 4.10764 13.1687 4.33125C13.3924 4.55486 13.6694 4.66667 14 4.66667C14.3306 4.66667 14.6076 4.55486 14.8313 4.33125C15.0549 4.10764 15.1667 3.83056 15.1667 3.5C15.1667 3.16944 15.0549 2.89236 14.8313 2.66875C14.6076 2.44514 14.3306 2.33333 14 2.33333V2.33333M8.16667 3.5C8.16667 3.83056 8.27847 4.10764 8.50208 4.33125C8.72569 4.55486 9.00278 4.66667 9.33333 4.66667C9.66389 4.66667 9.94097 4.55486 10.1646 4.33125C10.3882 4.10764 10.5 3.83056 10.5 3.5C10.5 3.16944 10.3882 2.89236 10.1646 2.66875C9.94097 2.44514 9.66389 2.33333 9.33333 2.33333C9.00278 2.33333 8.72569 2.44514 8.50208 2.66875C8.27847 2.89236 8.16667 3.16944 8.16667 3.5V3.5M2.33333 7V9.33333H10.5V7H2.33333V7M10.5 22.1667V11.6667H4.66667V22.1667H10.5V22.1667M12.8333 22.1667H18.6667V11.6667H12.8333V22.1667V22.1667M21 9.33333V7H12.8333V9.33333H21V9.33333" fill="#000000"/>
</g>
</svg>
