<svg preserveAspectRatio="none" width="100%" height="100%" overflow="visible" style="display: block;" viewBox="10.75 0.0 56 56" fill="none" xmlns="http://www.w3.org/2000/svg">
<g id="Container">
<path id="Icon" d="M38.7502 39.6813C37.1363 39.6813 35.6196 39.3751 34.2002 38.7626C32.7807 38.1501 31.546 37.3188 30.496 36.2688C29.446 35.2188 28.6147 33.9841 28.0022 32.5647C27.3897 31.1452 27.0835 29.6286 27.0835 28.0147C27.0835 26.5563 27.3654 25.1272 27.9293 23.7272C28.4932 22.3272 29.2807 21.0779 30.2918 19.9793C31.3029 18.8807 32.5182 17.9959 33.9377 17.3251C35.3571 16.6543 36.9127 16.3188 38.6043 16.3188C39.0127 16.3188 39.4307 16.3383 39.8585 16.3772C40.2863 16.4161 40.7238 16.4841 41.171 16.5813C40.996 17.4563 41.0543 18.2827 41.346 19.0605C41.6377 19.8383 42.0752 20.4848 42.6585 21.0001C43.2418 21.5154 43.937 21.8702 44.7439 22.0647C45.5509 22.2591 46.3821 22.2105 47.2377 21.9188C46.7321 23.0661 46.805 24.1647 47.4564 25.2147C48.1078 26.2647 49.0752 26.8091 50.3585 26.848C50.3779 27.0619 50.3925 27.2612 50.4022 27.4459C50.412 27.6307 50.4168 27.83 50.4168 28.0438C50.4168 29.6383 50.1106 31.1404 49.4981 32.5501C48.8856 33.9598 48.0543 35.1945 47.0043 36.2543C45.9543 37.314 44.7196 38.1501 43.3002 38.7626C41.8807 39.3751 40.3641 39.6813 38.7502 39.6813V39.6813M37.0002 25.6813C37.4863 25.6813 37.8995 25.5112 38.2397 25.1709C38.58 24.8307 38.7502 24.4175 38.7502 23.9313C38.7502 23.4452 38.58 23.032 38.2397 22.6918C37.8995 22.3515 37.4863 22.1813 37.0002 22.1813C36.5141 22.1813 36.1009 22.3515 35.7606 22.6918C35.4203 23.032 35.2502 23.4452 35.2502 23.9313C35.2502 24.4175 35.4203 24.8307 35.7606 25.1709C36.1009 25.5112 36.5141 25.6813 37.0002 25.6813V25.6813M34.6668 31.5147C35.1529 31.5147 35.5661 31.3445 35.9064 31.0043C36.2467 30.664 36.4168 30.2508 36.4168 29.7647C36.4168 29.2786 36.2467 28.8654 35.9064 28.5251C35.5661 28.1848 35.1529 28.0147 34.6668 28.0147C34.1807 28.0147 33.7675 28.1848 33.4272 28.5251C33.087 28.8654 32.9168 29.2786 32.9168 29.7647C32.9168 30.2508 33.087 30.664 33.4272 31.0043C33.7675 31.3445 34.1807 31.5147 34.6668 31.5147V31.5147M42.2502 32.6813C42.5807 32.6813 42.8578 32.5695 43.0814 32.3459C43.305 32.1223 43.4168 31.8452 43.4168 31.5147C43.4168 31.1841 43.305 30.907 43.0814 30.6834C42.8578 30.4598 42.5807 30.348 42.2502 30.348C41.9196 30.348 41.6425 30.4598 41.4189 30.6834C41.1953 30.907 41.0835 31.1841 41.0835 31.5147C41.0835 31.8452 41.1953 32.1223 41.4189 32.3459C41.6425 32.5695 41.9196 32.6813 42.2502 32.6813V32.6813M38.7502 37.348C41.1224 37.348 43.2272 36.5313 45.0647 34.898C46.9022 33.2647 47.9085 31.1841 48.0835 28.6563C47.1113 28.2286 46.3481 27.6452 45.7939 26.9063C45.2397 26.1675 44.8654 25.3411 44.671 24.4272C43.1738 24.2133 41.8904 23.5716 40.821 22.5022C39.7516 21.4327 39.0904 20.1494 38.8377 18.6522C37.2821 18.6133 35.9161 18.8952 34.7397 19.498C33.5634 20.1008 32.5814 20.8737 31.7939 21.8168C31.0064 22.7598 30.4134 23.7855 30.0147 24.8938C29.6161 26.0022 29.4168 27.0425 29.4168 28.0147C29.4168 30.6008 30.3259 32.8029 32.1439 34.6209C33.962 36.439 36.1641 37.348 38.7502 37.348V37.348M38.7502 27.898V27.898V27.898V27.898V27.898V27.898V27.898V27.898V27.898V27.898V27.898V27.898V27.898V27.898" fill="#000000"/>
</g>
</svg>
