<svg preserveAspectRatio="none" width="100%" height="100%" overflow="visible" style="display: block;" viewBox="10.75 0.0 56 56" fill="none" xmlns="http://www.w3.org/2000/svg">
<g id="Container">
<path id="Icon" d="M42.2498 37.3332C39.6443 37.3332 37.4373 36.429 35.629 34.6207C33.8207 32.8123 32.9165 30.6054 32.9165 27.9998C32.9165 25.3943 33.8207 23.1873 35.629 21.379C37.4373 19.5707 39.6443 18.6665 42.2498 18.6665C44.8554 18.6665 47.0623 19.5707 48.8707 21.379C50.679 23.1873 51.5832 25.3943 51.5832 27.9998C51.5832 30.6054 50.679 32.8123 48.8707 34.6207C47.0623 36.429 44.8554 37.3332 42.2498 37.3332ZM32.9165 37.0415C30.8554 36.4971 29.1734 35.3887 27.8707 33.7165C26.5679 32.0443 25.9165 30.1387 25.9165 27.9998C25.9165 25.8609 26.5679 23.9554 27.8707 22.2832C29.1734 20.6109 30.8554 19.5026 32.9165 18.9582V21.4082C31.5165 21.8943 30.3887 22.7401 29.5332 23.9457C28.6776 25.1512 28.2498 26.5026 28.2498 27.9998C28.2498 29.4971 28.6776 30.8484 29.5332 32.054C30.3887 33.2596 31.5165 34.1054 32.9165 34.5915V37.0415ZM42.2498 34.9998C44.1943 34.9998 45.8471 34.3193 47.2082 32.9582C48.5693 31.5971 49.2498 29.9443 49.2498 27.9998C49.2498 26.0554 48.5693 24.4026 47.2082 23.0415C45.8471 21.6804 44.1943 20.9998 42.2498 20.9998C40.3054 20.9998 38.6526 21.6804 37.2915 23.0415C35.9304 24.4026 35.2498 26.0554 35.2498 27.9998C35.2498 29.9443 35.9304 31.5971 37.2915 32.9582C38.6526 34.3193 40.3054 34.9998 42.2498 34.9998Z" fill="#000000"/>
</g>
</svg>
