<svg preserveAspectRatio="none" width="100%" height="100%" overflow="visible" style="display: block;" viewBox="10.75 0.0 56 56" fill="none" xmlns="http://www.w3.org/2000/svg">
<g id="Container">
<path id="Icon" d="M38.7502 39.6667C35.5363 39.6667 32.8196 38.5486 30.6002 36.3125C28.3807 34.0764 27.271 31.35 27.271 28.1333C27.271 24.9167 28.3807 22.191 30.6002 19.9563C32.8196 17.7215 35.5363 16.6042 38.7502 16.6042C41.964 16.6042 44.6807 17.7215 46.9002 19.9563C49.1196 22.191 50.2293 24.9167 50.2293 28.1333C50.2293 31.35 49.1196 34.0764 46.9002 36.3125C44.6807 38.5486 41.964 39.6667 38.7502 39.6667ZM38.7502 37.3333C41.2835 37.3333 43.4481 36.4375 45.2439 34.6458C47.0397 32.8542 47.9377 30.6917 47.9377 28.1583C47.9377 25.625 47.0397 23.4583 45.2439 21.6583C43.4481 19.8583 41.2835 18.9583 38.7502 18.9583C36.2168 18.9583 34.0522 19.8583 32.2564 21.6583C30.4606 23.4583 29.5627 25.625 29.5627 28.1583C29.5627 30.6917 30.4606 32.8542 32.2564 34.6458C34.0522 36.4375 36.2168 37.3333 38.7502 37.3333ZM37.5835 35V27.4167L34.6668 30.3333L33.0002 28.6667L38.7502 22.9167L44.5002 28.6667L42.8335 30.3333L39.9168 27.4167V35H37.5835Z" fill="#000000"/>
</g>
</svg>
