<svg preserveAspectRatio="none" width="100%" height="100%" overflow="visible" style="display: block;" viewBox="107.25 0.0 56 56" fill="none" xmlns="http://www.w3.org/2000/svg">
<g id="Container">
<path id="Icon" d="M137.583 29.1665C136.611 29.1665 135.785 28.8262 135.104 28.1457C134.423 27.4651 134.083 26.6387 134.083 25.6665C134.083 24.6943 134.423 23.8679 135.104 23.1873C135.785 22.5068 136.611 22.1665 137.583 22.1665C138.555 22.1665 139.382 22.5068 140.062 23.1873C140.743 23.8679 141.083 24.6943 141.083 25.6665C141.083 26.6387 140.743 27.4651 140.062 28.1457C139.382 28.8262 138.555 29.1665 137.583 29.1665ZM129.417 32.6665C128.775 32.6665 128.226 32.438 127.769 31.9811C127.312 31.5241 127.083 30.9748 127.083 30.3332V20.9998C127.083 20.3582 127.312 19.8089 127.769 19.3519C128.226 18.895 128.775 18.6665 129.417 18.6665H145.75C146.392 18.6665 146.941 18.895 147.398 19.3519C147.855 19.8089 148.083 20.3582 148.083 20.9998V30.3332C148.083 30.9748 147.855 31.5241 147.398 31.9811C146.941 32.438 146.392 32.6665 145.75 32.6665H129.417ZM131.75 30.3332H143.417C143.417 29.6915 143.645 29.1422 144.102 28.6853C144.559 28.2283 145.108 27.9998 145.75 27.9998V23.3332C145.108 23.3332 144.559 23.1047 144.102 22.6478C143.645 22.1908 143.417 21.6415 143.417 20.9998H131.75C131.75 21.6415 131.521 22.1908 131.064 22.6478C130.607 23.1047 130.058 23.3332 129.417 23.3332V27.9998C130.058 27.9998 130.607 28.2283 131.064 28.6853C131.521 29.1422 131.75 29.6915 131.75 30.3332ZM144.583 37.3332H124.75C124.108 37.3332 123.559 37.1047 123.102 36.6478C122.645 36.1908 122.417 35.6415 122.417 34.9998V22.1665H124.75V34.9998H144.583V37.3332ZM129.417 30.3332V20.9998V30.3332Z" fill="#000000"/>
</g>
</svg>
