<svg preserveAspectRatio="none" width="100%" height="100%" overflow="visible" style="display: block;" viewBox="107.25 0.0 56 56" fill="none" xmlns="http://www.w3.org/2000/svg">
<g id="Container">
<path id="Icon" d="M124.75 38.5V22.1667H129.417V17.5H141.083V26.8333H145.75V38.5H136.417V33.8333H134.083V38.5H124.75ZM127.083 36.1667H129.417V33.8333H127.083V36.1667ZM127.083 31.5H129.417V29.1667H127.083V31.5ZM127.083 26.8333H129.417V24.5H127.083V26.8333ZM131.75 31.5H134.083V29.1667H131.75V31.5ZM131.75 26.8333H134.083V24.5H131.75V26.8333ZM131.75 22.1667H134.083V19.8333H131.75V22.1667ZM136.417 31.5H138.75V29.1667H136.417V31.5ZM136.417 26.8333H138.75V24.5H136.417V26.8333ZM136.417 22.1667H138.75V19.8333H136.417V22.1667ZM141.083 36.1667H143.417V33.8333H141.083V36.1667ZM141.083 31.5H143.417V29.1667H141.083V31.5Z" fill="#000000"/>
</g>
</svg>
