<svg preserveAspectRatio="none" width="100%" height="100%" overflow="visible" style="display: block;" viewBox="10.75 0.0 56 56" fill="none" xmlns="http://www.w3.org/2000/svg">
<g id="Container">
<path id="Icon" d="M46.9168 38.5002L38.7502 30.3335L36.0085 33.0752C36.1641 33.3668 36.271 33.6779 36.3293 34.0085C36.3877 34.3391 36.4168 34.6696 36.4168 35.0002C36.4168 36.2835 35.9599 37.3821 35.046 38.296C34.1321 39.2099 33.0335 39.6668 31.7502 39.6668C30.4668 39.6668 29.3682 39.2099 28.4543 38.296C27.5404 37.3821 27.0835 36.2835 27.0835 35.0002C27.0835 33.7168 27.5404 32.6182 28.4543 31.7043C29.3682 30.7904 30.4668 30.3335 31.7502 30.3335C32.0807 30.3335 32.4113 30.3627 32.7418 30.421C33.0724 30.4793 33.3835 30.5863 33.6752 30.7418L36.4168 28.0002L33.6752 25.2585C33.3835 25.4141 33.0724 25.521 32.7418 25.5793C32.4113 25.6377 32.0807 25.6668 31.7502 25.6668C30.4668 25.6668 29.3682 25.2099 28.4543 24.296C27.5404 23.3821 27.0835 22.2835 27.0835 21.0002C27.0835 19.7168 27.5404 18.6182 28.4543 17.7043C29.3682 16.7904 30.4668 16.3335 31.7502 16.3335C33.0335 16.3335 34.1321 16.7904 35.046 17.7043C35.9599 18.6182 36.4168 19.7168 36.4168 21.0002C36.4168 21.3307 36.3877 21.6613 36.3293 21.9918C36.271 22.3224 36.1641 22.6335 36.0085 22.9252L50.4168 37.3335V38.5002H46.9168ZM42.2502 26.8335L39.9168 24.5002L46.9168 17.5002H50.4168V18.6668L42.2502 26.8335ZM31.7502 23.3335C32.3918 23.3335 32.9411 23.105 33.3981 22.6481C33.855 22.1911 34.0835 21.6418 34.0835 21.0002C34.0835 20.3585 33.855 19.8092 33.3981 19.3522C32.9411 18.8953 32.3918 18.6668 31.7502 18.6668C31.1085 18.6668 30.5592 18.8953 30.1022 19.3522C29.6453 19.8092 29.4168 20.3585 29.4168 21.0002C29.4168 21.6418 29.6453 22.1911 30.1022 22.6481C30.5592 23.105 31.1085 23.3335 31.7502 23.3335ZM38.7502 28.5835C38.9057 28.5835 39.0418 28.5252 39.1585 28.4085C39.2752 28.2918 39.3335 28.1557 39.3335 28.0002C39.3335 27.8446 39.2752 27.7085 39.1585 27.5918C39.0418 27.4752 38.9057 27.4168 38.7502 27.4168C38.5946 27.4168 38.4585 27.4752 38.3418 27.5918C38.2252 27.7085 38.1668 27.8446 38.1668 28.0002C38.1668 28.1557 38.2252 28.2918 38.3418 28.4085C38.4585 28.5252 38.5946 28.5835 38.7502 28.5835ZM31.7502 37.3335C32.3918 37.3335 32.9411 37.105 33.3981 36.6481C33.855 36.1911 34.0835 35.6418 34.0835 35.0002C34.0835 34.3585 33.855 33.8092 33.3981 33.3522C32.9411 32.8953 32.3918 32.6668 31.7502 32.6668C31.1085 32.6668 30.5592 32.8953 30.1022 33.3522C29.6453 33.8092 29.4168 34.3585 29.4168 35.0002C29.4168 35.6418 29.6453 36.1911 30.1022 36.6481C30.5592 37.105 31.1085 37.3335 31.7502 37.3335Z" fill="#000000"/>
</g>
</svg>
