<svg preserveAspectRatio="none" width="100%" height="100%" overflow="visible" style="display: block;" viewBox="10.75 0.0 56 56" fill="none" xmlns="http://www.w3.org/2000/svg">
<g id="Container">
<path id="Icon" d="M39.0707 36.1668C39.304 36.1474 39.5033 36.055 39.6686 35.8897C39.8339 35.7245 39.9165 35.5252 39.9165 35.2918C39.9165 35.0196 39.829 34.8009 39.654 34.6356C39.479 34.4703 39.2554 34.3974 38.9832 34.4168C38.1859 34.4752 37.3401 34.2564 36.4457 33.7606C35.5512 33.2647 34.9873 32.3654 34.754 31.0627C34.7151 30.8488 34.613 30.6738 34.4478 30.5377C34.2825 30.4016 34.0929 30.3335 33.879 30.3335C33.6068 30.3335 33.3832 30.4356 33.2082 30.6397C33.0332 30.8439 32.9748 31.0821 33.0332 31.3543C33.3637 33.1238 34.1415 34.3877 35.3665 35.146C36.5915 35.9043 37.8262 36.2446 39.0707 36.1668ZM38.7498 39.6668C36.0859 39.6668 33.8644 38.7529 32.0853 36.9252C30.3061 35.0974 29.4165 32.8224 29.4165 30.1002C29.4165 28.1557 30.1894 26.0411 31.7353 23.7564C33.2811 21.4717 35.6193 18.9974 38.7498 16.3335C41.8804 18.9974 44.2186 21.4717 45.7644 23.7564C47.3103 26.0411 48.0832 28.1557 48.0832 30.1002C48.0832 32.8224 47.1936 35.0974 45.4144 36.9252C43.6353 38.7529 41.4137 39.6668 38.7498 39.6668ZM38.7498 37.3335C40.7721 37.3335 42.4443 36.6481 43.7665 35.2772C45.0887 33.9064 45.7498 32.1807 45.7498 30.1002C45.7498 28.6807 45.1616 27.0766 43.9853 25.2877C42.8089 23.4988 41.0637 21.5446 38.7498 19.4252C36.4359 21.5446 34.6908 23.4988 33.5144 25.2877C32.338 27.0766 31.7498 28.6807 31.7498 30.1002C31.7498 32.1807 32.4109 33.9064 33.7332 35.2772C35.0554 36.6481 36.7276 37.3335 38.7498 37.3335Z" fill="#000000"/>
</g>
</svg>
