<svg preserveAspectRatio="none" width="100%" height="100%" overflow="visible" style="display: block;" viewBox="10.75 0.0 56 56" fill="none" xmlns="http://www.w3.org/2000/svg">
<g id="Container">
<path id="Icon" d="M32.3332 38.4928C31.4582 38.4928 30.5929 38.2789 29.7373 37.8512C28.8818 37.4234 28.1915 36.8595 27.6665 36.1595C28.1721 36.1595 28.6873 35.9602 29.2123 35.5616C29.7373 35.163 29.9998 34.5845 29.9998 33.8262C29.9998 32.8539 30.3401 32.0276 31.0207 31.347C31.7012 30.6664 32.5276 30.3262 33.4998 30.3262C34.4721 30.3262 35.2984 30.6664 35.979 31.347C36.6596 32.0276 36.9998 32.8539 36.9998 33.8262C36.9998 35.1095 36.5429 36.2081 35.629 37.122C34.7151 38.0359 33.6165 38.4928 32.3332 38.4928ZM32.3332 36.1595C32.9748 36.1595 33.5241 35.931 33.9811 35.4741C34.438 35.0171 34.6665 34.4678 34.6665 33.8262C34.6665 33.4956 34.5547 33.2185 34.3311 32.9949C34.1075 32.7713 33.8304 32.6595 33.4998 32.6595C33.1693 32.6595 32.8922 32.7713 32.6686 32.9949C32.445 33.2185 32.3332 33.4956 32.3332 33.8262C32.3332 34.2734 32.2797 34.6817 32.1728 35.0512C32.0658 35.4206 31.9248 35.7706 31.7498 36.1012C31.8471 36.1401 31.9443 36.1595 32.0415 36.1595C32.1387 36.1595 32.2359 36.1595 32.3332 36.1595ZM39.0415 31.4928L35.8332 28.2845L46.2748 17.8428C46.4887 17.6289 46.7561 17.5171 47.0769 17.5074C47.3978 17.4977 47.6748 17.6095 47.9082 17.8428L49.4832 19.4178C49.7165 19.6512 49.8332 19.9234 49.8332 20.2345C49.8332 20.5456 49.7165 20.8178 49.4832 21.0512L39.0415 31.4928Z" fill="#000000"/>
</g>
</svg>
